<svg width="44" height="44" viewBox="0 0 44 44" fill="none" xmlns="http://www.w3.org/2000/svg">
<g clip-path="url(#clip0)">
<path d="M22.9167 44H10.0833C3.1185 44 0 38.0142 0 32.0833C0 23.5712 4.4935 14.7583 10.6828 11.1247C10.824 11.0422 10.9835 11 11.1467 11H21.8533C22.0165 11 22.176 11.0422 22.3172 11.1247C23.7948 11.9937 25.1808 13.1358 26.4403 14.5237C26.7795 14.8995 26.752 15.4788 26.3762 15.818C26.0022 16.159 25.4228 16.1297 25.08 15.7557C24.0075 14.5732 22.8378 13.5905 21.6003 12.8333H11.3997C5.84467 16.2323 1.83333 24.2788 1.83333 32.0833C1.83333 36.7345 3.99483 42.1667 10.0833 42.1667H22.9167C29.0052 42.1667 31.1667 36.7345 31.1667 32.0833C31.1667 29.5222 30.712 26.7887 29.8503 24.1853C29.6908 23.7032 29.953 23.1862 30.4333 23.0267C30.9137 22.8635 31.4307 23.1293 31.5902 23.6078C32.5123 26.3963 33 29.3278 33 32.0833C33 38.0142 29.8815 44 22.9167 44Z" fill="#3CB7C6"/>
<path d="M22.9183 12.8325H10.085C8.56879 12.8325 7.33496 11.5987 7.33496 10.0825C7.33496 8.56635 8.56879 7.33252 10.085 7.33252H22.9183C24.4345 7.33252 25.6683 8.56635 25.6683 10.0825C25.6683 11.5987 24.4345 12.8325 22.9183 12.8325ZM10.085 9.16585C9.57896 9.16585 9.16829 9.57835 9.16829 10.0825C9.16829 10.5867 9.57896 10.9992 10.085 10.9992H22.9183C23.4243 10.9992 23.835 10.5867 23.835 10.0825C23.835 9.57835 23.4243 9.16585 22.9183 9.16585H10.085Z" fill="#3CB7C6"/>
<path d="M21.0839 9.16667C20.8144 9.16667 20.5486 9.04933 20.3671 8.822C20.0517 8.426 20.1159 7.85033 20.5101 7.53317L25.5957 3.465C26.0669 3.08917 25.9404 2.58867 25.8891 2.44383C25.8396 2.30267 25.6269 1.83333 25.0237 1.83333H7.97739C7.37422 1.83333 7.16156 2.30267 7.11206 2.44567C7.06072 2.5905 6.93239 3.091 7.40539 3.46683L12.4911 7.535C12.8852 7.85217 12.9494 8.42783 12.6341 8.82383C12.3187 9.218 11.7431 9.28217 11.3452 8.96683L6.25956 4.89867C5.33372 4.158 4.98906 2.95717 5.38139 1.83883C5.77372 0.722333 6.79306 0 7.97739 0H25.0256C26.2099 0 27.2292 0.722333 27.6216 1.83883C28.0139 2.95717 27.6692 4.158 26.7434 4.89867L21.6577 8.96683C21.4872 9.10067 21.2856 9.16667 21.0839 9.16667Z" fill="#3CB7C6"/>
<path d="M17.415 33.9158H12.8317C12.3257 33.9158 11.915 33.5052 11.915 32.9992C11.915 32.4932 12.3257 32.0825 12.8317 32.0825H17.415C18.4252 32.0825 19.2484 31.2612 19.2484 30.2492C19.2484 29.2372 18.4252 28.4158 17.415 28.4158H15.5817C13.5595 28.4158 11.915 26.7713 11.915 24.7492C11.915 22.727 13.5595 21.0825 15.5817 21.0825H20.165C20.671 21.0825 21.0817 21.4932 21.0817 21.9992C21.0817 22.5052 20.671 22.9159 20.165 22.9159H15.5817C14.5715 22.9159 13.7484 23.7372 13.7484 24.7492C13.7484 25.7612 14.5715 26.5825 15.5817 26.5825H17.415C19.4372 26.5825 21.0817 28.227 21.0817 30.2492C21.0817 32.2713 19.4372 33.9158 17.415 33.9158Z" fill="#3CB7C6"/>
<path d="M16.5016 36.6659C15.9956 36.6659 15.585 36.2552 15.585 35.7492V32.9992C15.585 32.4932 15.9956 32.0825 16.5016 32.0825C17.0076 32.0825 17.4183 32.4932 17.4183 32.9992V35.7492C17.4183 36.2552 17.0076 36.6659 16.5016 36.6659Z" fill="#3CB7C6"/>
<path d="M16.5016 22.9159C15.9956 22.9159 15.585 22.5052 15.585 21.9992V19.2492C15.585 18.7432 15.9956 18.3325 16.5016 18.3325C17.0076 18.3325 17.4183 18.7432 17.4183 19.2492V21.9992C17.4183 22.5052 17.0076 22.9159 16.5016 22.9159Z" fill="#3CB7C6"/>
<path d="M26.5841 22.0006C26.3495 22.0006 26.1148 21.9107 25.9351 21.7329C25.5776 21.3754 25.5776 20.7942 25.9351 20.4367L30.5185 15.8534C30.7971 15.5747 31.2225 15.5087 31.5763 15.6811L34.6526 17.2192L40.6018 11.2701C40.9593 10.9126 41.5405 10.9126 41.898 11.2701C42.2555 11.6276 42.2555 12.2087 41.898 12.5662L35.4813 18.9829C35.2008 19.2597 34.7736 19.3276 34.4234 19.1552L31.3471 17.6171L27.2313 21.7329C27.0535 21.9107 26.8188 22.0006 26.5841 22.0006Z" fill="#3CB7C6"/>
<path d="M41.2516 18.3333C40.7456 18.3333 40.335 17.9227 40.335 17.4167V12.8333H35.7516C35.2456 12.8333 34.835 12.4227 34.835 11.9167C34.835 11.4107 35.2456 11 35.7516 11H41.2516C41.7576 11 42.1683 11.4107 42.1683 11.9167V17.4167C42.1683 17.9227 41.7576 18.3333 41.2516 18.3333Z" fill="#3CB7C6"/>
</g>
<defs>
<clipPath id="clip0">
<rect width="44" height="44" fill="white"/>
</clipPath>
</defs>
</svg>
