<svg width="48" height="46" viewBox="0 0 48 46" fill="none" xmlns="http://www.w3.org/2000/svg">
<path d="M10.572 27.8425C9.81544 27.8425 9.20215 28.4558 9.20215 29.2124V31.5902C9.20215 32.3467 9.81544 32.96 10.572 32.96C11.3285 32.96 11.9418 32.3467 11.9418 31.5902V29.2124C11.9418 28.4558 11.3287 27.8425 10.572 27.8425Z" fill="#3CB7C6"/>
<path d="M16.0524 27.8425C15.2959 27.8425 14.6826 28.4558 14.6826 29.2124V31.5902C14.6826 32.3467 15.2959 32.96 16.0524 32.96C16.809 32.96 17.4223 32.3467 17.4223 31.5902V29.2124C17.4223 28.4558 16.8092 27.8425 16.0524 27.8425Z" fill="#3CB7C6"/>
<path d="M21.5319 27.8425C20.7754 27.8425 20.1621 28.4558 20.1621 29.2124V31.5902C20.1621 32.3467 20.7754 32.96 21.5319 32.96C22.2885 32.96 22.9018 32.3467 22.9018 31.5902V29.2124C22.9018 28.4558 22.2885 27.8425 21.5319 27.8425Z" fill="#3CB7C6"/>
<path d="M26.4685 27.8425C25.7119 27.8425 25.0986 28.4558 25.0986 29.2124V31.5902C25.0986 32.3467 25.7119 32.96 26.4685 32.96C27.225 32.96 27.8383 32.3467 27.8383 31.5902V29.2124C27.8383 28.4558 27.225 27.8425 26.4685 27.8425Z" fill="#3CB7C6"/>
<path d="M31.9479 27.8425C31.1914 27.8425 30.5781 28.4558 30.5781 29.2124V31.5902C30.5781 32.3467 31.1914 32.96 31.9479 32.96C32.7045 32.96 33.3178 32.3467 33.3178 31.5902V29.2124C33.3178 28.4558 32.7045 27.8425 31.9479 27.8425Z" fill="#3CB7C6"/>
<path d="M37.4274 27.8425C36.6709 27.8425 36.0576 28.4558 36.0576 29.2124V31.5902C36.0576 32.3467 36.6709 32.96 37.4274 32.96C38.184 32.96 38.7973 32.3467 38.7973 31.5902V29.2124C38.7973 28.4558 38.184 27.8425 37.4274 27.8425Z" fill="#3CB7C6"/>
<path d="M10.572 20.1958C9.81544 20.1958 9.20215 20.8091 9.20215 21.5656V23.9434C9.20215 24.7 9.81544 25.3133 10.572 25.3133C11.3285 25.3133 11.9418 24.7 11.9418 23.9434V21.5656C11.9418 20.8091 11.3287 20.1958 10.572 20.1958Z" fill="#3CB7C6"/>
<path d="M16.0524 20.1958C15.2959 20.1958 14.6826 20.8091 14.6826 21.5656V23.9434C14.6826 24.7 15.2959 25.3133 16.0524 25.3133C16.809 25.3133 17.4223 24.7 17.4223 23.9434V21.5656C17.4223 20.8091 16.8092 20.1958 16.0524 20.1958Z" fill="#3CB7C6"/>
<path d="M21.5319 20.1958C20.7754 20.1958 20.1621 20.8091 20.1621 21.5656V23.9434C20.1621 24.7 20.7754 25.3133 21.5319 25.3133C22.2885 25.3133 22.9018 24.7 22.9018 23.9434V21.5656C22.9018 20.8091 22.2885 20.1958 21.5319 20.1958Z" fill="#3CB7C6"/>
<path d="M26.4685 20.1958C25.7119 20.1958 25.0986 20.8091 25.0986 21.5656V23.9434C25.0986 24.7 25.7119 25.3133 26.4685 25.3133C27.225 25.3133 27.8383 24.7 27.8383 23.9434V21.5656C27.8383 20.8091 27.225 20.1958 26.4685 20.1958Z" fill="#3CB7C6"/>
<path d="M31.9479 20.1958C31.1914 20.1958 30.5781 20.8091 30.5781 21.5656V23.9434C30.5781 24.7 31.1914 25.3133 31.9479 25.3133C32.7045 25.3133 33.3178 24.7 33.3178 23.9434V21.5656C33.3178 20.8091 32.7045 20.1958 31.9479 20.1958Z" fill="#3CB7C6"/>
<path d="M37.4274 20.1958C36.6709 20.1958 36.0576 20.8091 36.0576 21.5656V23.9434C36.0576 24.7 36.6709 25.3133 37.4274 25.3133C38.184 25.3133 38.7973 24.7 38.7973 23.9434V21.5656C38.7973 20.8091 38.184 20.1958 37.4274 20.1958Z" fill="#3CB7C6"/>
<path d="M18.5202 6.2041C17.7637 6.2041 17.1504 6.81739 17.1504 7.57393V9.95174C17.1504 10.7083 17.7637 11.3216 18.5202 11.3216C19.2767 11.3216 19.89 10.7083 19.89 9.95174V7.57393C19.89 6.81739 19.2767 6.2041 18.5202 6.2041Z" fill="#3CB7C6"/>
<path d="M23.9997 6.2041C23.2432 6.2041 22.6299 6.81739 22.6299 7.57393V9.95174C22.6299 10.7083 23.2432 11.3216 23.9997 11.3216C24.7562 11.3216 25.3695 10.7083 25.3695 9.95174V7.57393C25.3695 6.81739 24.7562 6.2041 23.9997 6.2041Z" fill="#3CB7C6"/>
<path d="M29.4792 6.2041C28.7227 6.2041 28.1094 6.81739 28.1094 7.57393V9.95174C28.1094 10.7083 28.7227 11.3216 29.4792 11.3216C30.2357 11.3216 30.849 10.7083 30.849 9.95174V7.57393C30.849 6.81739 30.2357 6.2041 29.4792 6.2041Z" fill="#3CB7C6"/>
<path d="M46.6302 13.5354H36.4864V1.76094C36.4864 1.0044 35.8731 0.391113 35.1166 0.391113H12.8834C12.1269 0.391113 11.5136 1.0044 11.5136 1.76094V13.5352H1.36982C0.61329 13.5352 0 14.1485 0 14.905C0 15.6615 0.61329 16.2748 1.36982 16.2748H2.65765V44.2388C2.65765 44.9953 3.27094 45.6086 4.02748 45.6086H43.9725C44.7291 45.6086 45.3423 44.9953 45.3423 44.2388V16.2748H46.6302C47.3867 16.2748 48 15.6615 48 14.905C48 14.1485 47.3867 13.5354 46.6302 13.5354ZM30.7502 42.8692H25.3605C25.3662 42.8183 25.3699 42.7666 25.3699 42.7142V40.6559H30.7502V42.8692ZM22.6395 42.8692H17.2498V40.6559H22.6301V42.7142C22.6303 42.7666 22.6338 42.8181 22.6395 42.8692ZM33.4898 42.8692V39.2861C33.4898 38.5296 32.8766 37.9163 32.12 37.9163H15.88C15.1234 37.9163 14.5102 38.5296 14.5102 39.2861V42.8692H5.3973V16.275H42.6027V42.8692H33.4898ZM14.2532 3.13076H33.7468V13.5352H14.2532V3.13076Z" fill="#3CB7C6"/>
</svg>
