<svg width="48" height="48" viewBox="0 0 48 48" fill="none" xmlns="http://www.w3.org/2000/svg">
<g clip-path="url(#clip0)">
<path d="M8.21483 31.7761H20.1531C20.8418 31.7761 21.4002 31.2178 21.4002 30.5291V23.8518C21.4002 23.1631 20.8418 22.6047 20.1531 22.6047H8.21483C7.5261 22.6047 6.96777 23.1631 6.96777 23.8518V30.5291C6.96777 31.218 7.5261 31.7761 8.21483 31.7761ZM9.46189 25.0989H18.906V29.282H9.46189V25.0989Z" fill="#3CB7C6"/>
<path d="M46.7529 15.2557H36.0448V13.1748H39.4487C40.1375 13.1748 40.6958 12.6165 40.6958 11.9278V4.17821C40.6958 3.48948 40.1375 2.93115 39.4487 2.93115H9.69748C9.00875 2.93115 8.45043 3.48948 8.45043 4.17821V11.9278C8.45043 12.6165 9.00875 13.1748 9.69748 13.1748H13.1014V15.2557H1.24706C0.558326 15.2557 0 15.814 0 16.5027V43.8218C0 44.5106 0.558326 45.0689 1.24706 45.0689H46.7529C47.4417 45.0689 48 44.5106 48 43.8218V16.5027C48 15.814 47.4417 15.2557 46.7529 15.2557ZM10.9445 5.42527H38.2017V10.6807H10.9445V5.42527ZM15.5955 13.1748H33.5507V15.2557H15.5955V13.1748ZM38.2737 35.9595H33.8881V25.0989H38.2737V35.9595ZM32.2692 38.4536H39.8923V39.1969H32.2692V38.4536ZM30.779 41.691H31.0222H41.1394H41.3826V42.5748H30.779V41.691ZM45.5059 42.5748H43.8767V40.4439C43.8767 39.7552 43.3184 39.1969 42.6296 39.1969H42.3865V37.2066C42.3865 36.5178 41.8281 35.9595 41.1394 35.9595H40.7678V23.8518C40.7678 23.1631 40.2094 22.6048 39.5207 22.6048H32.641C31.9523 22.6048 31.394 23.1631 31.394 23.8518V35.9595H31.0224C30.3336 35.9595 29.7753 36.5178 29.7753 37.2066V39.1969H29.5321C28.8434 39.1969 28.2851 39.7552 28.2851 40.4439V42.5748H2.49412V17.7498H45.5059V42.5748Z" fill="#3CB7C6"/>
</g>
<defs>
<clipPath id="clip0">
<rect width="48" height="48" fill="white"/>
</clipPath>
</defs>
</svg>
