<svg width="48" height="48" viewBox="0 0 48 48" fill="none" xmlns="http://www.w3.org/2000/svg">
<path d="M42.1875 38.7409H40.1719V36.606C40.1719 36.432 40.1027 36.265 39.9797 36.142C39.8566 36.0189 39.6897 35.9497 39.5156 35.9497H38.25V18C38.25 17.8743 38.214 17.7513 38.1461 17.6455C38.0782 17.5397 37.9814 17.4557 37.8671 17.4034L26.9318 12.3964V5.8125C26.9318 5.63845 26.8626 5.47153 26.7395 5.34846C26.6165 5.22539 26.4495 5.15625 26.2755 5.15625H10.4078C10.3214 5.15605 10.2359 5.17288 10.1562 5.20577C10.0764 5.23867 10.0038 5.28697 9.94274 5.34793C9.88164 5.40889 9.83317 5.4813 9.8001 5.56102C9.76702 5.64074 9.75 5.7262 9.75 5.8125V35.9497H8.48438C8.31033 35.9497 8.14341 36.0189 8.02034 36.142C7.89727 36.265 7.82812 36.432 7.82812 36.606V38.7405H5.8125C5.63845 38.7405 5.47153 38.8096 5.34846 38.9327C5.22539 39.0558 5.15625 39.2227 5.15625 39.3968V42.1875C5.15625 42.3615 5.22539 42.5285 5.34846 42.6515C5.47153 42.7746 5.63845 42.8438 5.8125 42.8438H42.1875C42.3615 42.8438 42.5285 42.7746 42.6515 42.6515C42.7746 42.5285 42.8438 42.3615 42.8438 42.1875V39.3971C42.8438 39.2231 42.7746 39.0562 42.6515 38.9331C42.5285 38.81 42.3615 38.7409 42.1875 38.7409ZM36.9375 29.4034H31.1014V27.8438H36.9375V29.4034ZM36.9375 23.4034H31.1014V21.8438H36.9375V23.4034ZM36.9375 18.4211V20.5312H30.4451C30.2711 20.5312 30.1042 20.6004 29.9811 20.7235C29.858 20.8465 29.7889 21.0135 29.7889 21.1875V24.0596C29.7889 24.2337 29.858 24.4006 29.9811 24.5237C30.1042 24.6467 30.2711 24.7159 30.4451 24.7159H36.9375V26.5312H30.4451C30.2711 26.5312 30.1042 26.6004 29.9811 26.7235C29.858 26.8465 29.7889 27.0135 29.7889 27.1875V30.0596C29.7889 30.2337 29.858 30.4006 29.9811 30.5237C30.1042 30.6467 30.2711 30.7159 30.4451 30.7159H36.9375V35.9497H26.9318V13.8398L36.9375 18.4211ZM11.0625 6.46875H25.6193V35.9497H11.0625V6.46875ZM9.14062 37.2622H38.8594V38.7405H9.14062V37.2622ZM41.5312 41.5312H6.46875V40.0534H41.5312V41.5312Z" fill="#3CB7C6"/>
<path d="M23.1874 8.53125H13.5937C13.4197 8.53125 13.2528 8.60039 13.1297 8.72346C13.0066 8.84653 12.9375 9.01345 12.9375 9.1875V12.0596C12.9375 12.2337 13.0066 12.4006 13.1297 12.5237C13.2528 12.6467 13.4197 12.7159 13.5937 12.7159H23.1874C23.3614 12.7159 23.5283 12.6467 23.6514 12.5237C23.7745 12.4006 23.8436 12.2337 23.8436 12.0596V9.1875C23.8436 9.01345 23.7745 8.84653 23.6514 8.72346C23.5283 8.60039 23.3614 8.53125 23.1874 8.53125ZM22.5311 11.4034H14.25V9.84375H22.5311V11.4034Z" fill="#3CB7C6"/>
<path d="M13.5938 18.7159H16.4659C16.6399 18.7159 16.8068 18.6467 16.9299 18.5237C17.053 18.4006 17.1221 18.2337 17.1221 18.0596V15.1875C17.1221 15.0135 17.053 14.8465 16.9299 14.7235C16.8068 14.6004 16.6399 14.5312 16.4659 14.5312H13.5938C13.4197 14.5313 13.2528 14.6004 13.1297 14.7235C13.0066 14.8465 12.9375 15.0135 12.9375 15.1875V18.0596C12.9375 18.2337 13.0066 18.4006 13.1297 18.5237C13.2528 18.6467 13.4197 18.7159 13.5938 18.7159ZM14.25 15.8438H15.8096V17.4034H14.25V15.8438Z" fill="#3CB7C6"/>
<path d="M23.1876 14.5312H20.3154C20.1414 14.5313 19.9745 14.6004 19.8514 14.7235C19.7283 14.8465 19.6592 15.0135 19.6592 15.1875V18.0596C19.6592 18.2337 19.7283 18.4006 19.8514 18.5237C19.9745 18.6467 20.1414 18.7159 20.3154 18.7159H23.1876C23.3616 18.7159 23.5285 18.6467 23.6516 18.5237C23.7747 18.4006 23.8438 18.2337 23.8438 18.0596V15.1875C23.8438 15.0135 23.7747 14.8465 23.6516 14.7235C23.5285 14.6004 23.3616 14.5312 23.1876 14.5312ZM22.5313 17.4034H20.9717V15.8438H22.5313V17.4034Z" fill="#3CB7C6"/>
<path d="M23.1874 20.5312H13.5937C13.4197 20.5313 13.2528 20.6004 13.1297 20.7235C13.0066 20.8465 12.9375 21.0135 12.9375 21.1875V24.0596C12.9375 24.2337 13.0066 24.4006 13.1297 24.5237C13.2528 24.6467 13.4197 24.7159 13.5937 24.7159H23.1874C23.3614 24.7159 23.5283 24.6467 23.6514 24.5237C23.7745 24.4006 23.8436 24.2337 23.8436 24.0596V21.1875C23.8436 21.0135 23.7745 20.8465 23.6514 20.7235C23.5283 20.6004 23.3614 20.5312 23.1874 20.5312ZM22.5311 23.4034H14.25V21.8438H22.5311V23.4034Z" fill="#3CB7C6"/>
<path d="M16.4659 26.5312H13.5938C13.4197 26.5312 13.2528 26.6004 13.1297 26.7235C13.0066 26.8465 12.9375 27.0135 12.9375 27.1875V30.0596C12.9375 30.2337 13.0066 30.4006 13.1297 30.5237C13.2528 30.6467 13.4197 30.7159 13.5938 30.7159H16.4659C16.6399 30.7159 16.8068 30.6467 16.9299 30.5237C17.053 30.4006 17.1221 30.2337 17.1221 30.0596V27.1875C17.1221 27.0135 17.053 26.8465 16.9299 26.7235C16.8068 26.6004 16.6399 26.5312 16.4659 26.5312ZM15.8096 29.4034H14.25V27.8438H15.8096V29.4034Z" fill="#3CB7C6"/>
<path d="M23.1876 26.5312H20.3154C20.1414 26.5312 19.9745 26.6004 19.8514 26.7235C19.7283 26.8465 19.6592 27.0135 19.6592 27.1875V30.0596C19.6592 30.2337 19.7283 30.4006 19.8514 30.5237C19.9745 30.6467 20.1414 30.7159 20.3154 30.7159H23.1876C23.3616 30.7159 23.5285 30.6467 23.6516 30.5237C23.7747 30.4006 23.8438 30.2337 23.8438 30.0596V27.1875C23.8438 27.0135 23.7747 26.8465 23.6516 26.7235C23.5285 26.6004 23.3616 26.5312 23.1876 26.5312ZM22.5313 29.4034H20.9717V27.8438H22.5313V29.4034Z" fill="#3CB7C6"/>
</svg>
