<svg width="48" height="48" viewBox="0 0 48 48" fill="none" xmlns="http://www.w3.org/2000/svg">
<path d="M42.1875 15.4608H41.1251V14.3999L41.9126 14.7622C41.991 14.7982 42.0756 14.8184 42.1617 14.8216C42.2479 14.8249 42.3338 14.8112 42.4146 14.7812C42.4954 14.7513 42.5696 14.7057 42.6328 14.6471C42.696 14.5885 42.747 14.518 42.783 14.4397C42.819 14.3614 42.8392 14.2767 42.8424 14.1906C42.8457 14.1045 42.832 14.0185 42.802 13.9377C42.7721 13.8569 42.7265 13.7828 42.6679 13.7196C42.6093 13.6563 42.5388 13.6053 42.4605 13.5693L24.2738 5.2162C24.2655 5.21245 24.2565 5.21095 24.2483 5.20757C24.2295 5.1997 24.2108 5.1937 24.1909 5.18807C24.1685 5.18084 24.1457 5.17483 24.1226 5.17007C24.1054 5.1667 24.0878 5.1652 24.0705 5.16332C24.0456 5.16024 24.0206 5.15862 23.9955 5.15845C23.9783 5.15845 23.9614 5.16032 23.9441 5.16182C23.919 5.16362 23.8939 5.16687 23.8691 5.17157C23.8523 5.17495 23.8357 5.1802 23.8189 5.1847C23.7934 5.19154 23.7683 5.19993 23.7439 5.20982C23.7371 5.21245 23.7304 5.21357 23.7236 5.21657L5.53875 13.5678C5.46042 13.6038 5.38995 13.6548 5.33136 13.7181C5.27276 13.7813 5.22719 13.8554 5.19724 13.9362C5.13676 14.0994 5.1436 14.28 5.21625 14.4382C5.2889 14.5964 5.42142 14.7192 5.58465 14.7797C5.74787 14.8402 5.92844 14.8333 6.08663 14.7607L6.87412 14.3984V15.4608H5.8125C5.63845 15.4608 5.47153 15.53 5.34846 15.653C5.22539 15.7761 5.15625 15.943 5.15625 16.1171V18.6596C5.15625 18.8336 5.22539 19.0005 5.34846 19.1236C5.47153 19.2467 5.63845 19.3158 5.8125 19.3158H6.87488V37.2629H5.8125C5.63845 37.2629 5.47153 37.3321 5.34846 37.4552C5.22539 37.5782 5.15625 37.7451 5.15625 37.9192V42.1874C5.15625 42.3615 5.22539 42.5284 5.34846 42.6515C5.47153 42.7746 5.63845 42.8437 5.8125 42.8437H42.1875C42.3615 42.8437 42.5285 42.7746 42.6515 42.6515C42.7746 42.5284 42.8438 42.3615 42.8438 42.1874V37.9192C42.8438 37.7451 42.7746 37.5782 42.6515 37.4552C42.5285 37.3321 42.3615 37.2629 42.1875 37.2629H41.1251V19.3162H42.1875C42.3615 19.3162 42.5285 19.2471 42.6515 19.124C42.7746 19.0009 42.8438 18.834 42.8438 18.6599V16.1174C42.8438 16.0312 42.8269 15.9459 42.7939 15.8662C42.7609 15.7865 42.7126 15.7141 42.6517 15.6532C42.5907 15.5922 42.5184 15.5438 42.4387 15.5108C42.3591 15.4778 42.2737 15.4608 42.1875 15.4608ZM8.18738 13.7958L24 6.5347L39.8126 13.7958V15.4608H8.18738V13.7958ZM8.18738 19.3162H12.375V37.2629H8.18738V19.3162ZM34.3125 19.3162V37.2629H33.2501C33.0761 37.2629 32.9092 37.3321 32.7861 37.4552C32.663 37.5782 32.5939 37.7451 32.5939 37.9192V41.5312H30.5314V29.7581C30.5314 29.584 30.4622 29.4171 30.3392 29.294C30.2161 29.171 30.0492 29.1018 29.8751 29.1018H18.1249C17.9508 29.1018 17.7839 29.171 17.6608 29.294C17.5378 29.4171 17.4686 29.584 17.4686 29.7581V41.5312H15.4061V37.9192C15.4061 37.7451 15.337 37.5782 15.2139 37.4552C15.0908 37.3321 14.9239 37.2629 14.7499 37.2629H13.6875V19.3162H34.3125ZM24.6562 30.4162H29.2189V41.5312H24.6562V30.4162ZM23.3438 41.5331H18.7811V30.4143H23.3438V41.5331ZM6.46875 41.5331V38.5773H14.0936V41.5331H6.46875ZM41.5312 41.5331H33.9064V38.5773H41.5312V41.5331ZM39.8126 37.2648H35.625V19.3162H39.8126V37.2648ZM41.5312 18.0037H6.46875V16.7737H41.5312V18.0037Z" fill="#3CB7C6"/>
<path d="M24 9.15649C23.5365 9.15649 23.0833 9.29395 22.6979 9.55149C22.3125 9.80902 22.0121 10.1751 21.8347 10.6033C21.6573 11.0316 21.6109 11.5028 21.7013 11.9575C21.7917 12.4121 22.0149 12.8297 22.3427 13.1575C22.6705 13.4853 23.0881 13.7085 23.5428 13.799C23.9974 13.8894 24.4687 13.843 24.8969 13.6656C25.3252 13.4882 25.6912 13.1878 25.9488 12.8024C26.2063 12.4169 26.3438 11.9638 26.3438 11.5002C26.3431 10.8789 26.0959 10.2831 25.6565 9.84373C25.2171 9.40434 24.6214 9.15719 24 9.15649ZM24 12.5315C23.796 12.5315 23.5967 12.471 23.4271 12.3577C23.2575 12.2444 23.1253 12.0833 23.0473 11.8949C22.9692 11.7065 22.9488 11.4991 22.9886 11.2991C23.0284 11.099 23.1266 10.9153 23.2708 10.771C23.415 10.6268 23.5988 10.5286 23.7988 10.4888C23.9989 10.449 24.2062 10.4694 24.3946 10.5475C24.5831 10.6255 24.7441 10.7577 24.8575 10.9273C24.9708 11.0969 25.0313 11.2963 25.0313 11.5002C25.031 11.7737 24.9222 12.0358 24.7289 12.2291C24.5355 12.4225 24.2734 12.5312 24 12.5315Z" fill="#3CB7C6"/>
</svg>
