<svg width="48" height="48" viewBox="0 0 48 48" fill="none" xmlns="http://www.w3.org/2000/svg">
<g clip-path="url(#clip0)">
<path d="M31.383 34.5H29.5939V31.5938H30.8723C31.0463 31.5938 31.2132 31.5246 31.3363 31.4016C31.4594 31.2785 31.5285 31.1116 31.5285 30.9375V27.9375C31.5285 27.7635 31.4594 27.5965 31.3363 27.4735C31.2132 27.3504 31.0463 27.2813 30.8723 27.2813H10.2375C10.0635 27.2813 9.89653 27.3504 9.77346 27.4735C9.65039 27.5965 9.58125 27.7635 9.58125 27.9375V30.9375C9.58125 31.1116 9.65039 31.2785 9.77346 31.4016C9.89653 31.5246 10.0635 31.5938 10.2375 31.5938H11.5159V34.5H9.72675C9.5527 34.5 9.38578 34.5692 9.26271 34.6922C9.13964 34.8153 9.0705 34.9822 9.0705 35.1563V36.6563C8.94842 36.7369 8.8311 36.8246 8.71913 36.9188V9.86027L10.3395 9.36377C10.7783 10.2569 11.5066 10.9751 12.4057 11.4015C13.3048 11.8279 14.3218 11.9374 15.291 11.7121C16.2603 11.4868 17.1247 10.94 17.7435 10.1607C18.3623 9.38143 18.6991 8.41561 18.699 7.42052C18.6988 7.21801 18.6843 7.01576 18.6559 6.81527L19.8803 6.44027C19.964 6.41619 20.0421 6.37568 20.11 6.32109C20.1779 6.2665 20.2343 6.19894 20.2758 6.12234C20.3174 6.04574 20.3432 5.96163 20.3519 5.87493C20.3606 5.78823 20.3519 5.70067 20.3264 5.61735C20.3009 5.53404 20.259 5.45664 20.2032 5.38968C20.1475 5.32272 20.079 5.26753 20.0017 5.22733C19.9243 5.18713 19.8398 5.16273 19.753 5.15555C19.6661 5.14837 19.5787 5.15856 19.4959 5.18552L8.71875 8.48777V6.93752C8.71875 6.4651 8.53108 6.01203 8.19703 5.67798C7.86298 5.34393 7.40992 5.15627 6.9375 5.15627C6.46508 5.15627 6.01202 5.34393 5.67797 5.67798C5.34392 6.01203 5.15625 6.4651 5.15625 6.93752V42.1875C5.15625 42.3616 5.22539 42.5285 5.34846 42.6516C5.47153 42.7746 5.63845 42.8438 5.8125 42.8438C5.98655 42.8438 6.15347 42.7746 6.27654 42.6516C6.39961 42.5285 6.46875 42.3616 6.46875 42.1875V41.4911C6.4686 41.0179 6.64602 40.5619 6.96591 40.2132C7.28581 39.8645 7.7249 39.6485 8.19638 39.6079C8.32807 39.5955 8.45296 39.5436 8.55467 39.459C8.65638 39.3744 8.73017 39.2611 8.76638 39.1339C8.928 38.5655 9.28969 38.0748 9.78474 37.7521C10.2798 37.4295 10.8748 37.2968 11.4601 37.3784C12.0453 37.46 12.5813 37.7505 12.9691 38.1963C13.357 38.6421 13.5706 39.2131 13.5705 39.804C13.5705 39.8479 13.5668 39.8906 13.5615 39.9694C13.5543 40.0732 13.5719 40.1773 13.6128 40.273C13.6538 40.3687 13.7169 40.4533 13.797 40.5198C13.877 40.5863 13.9718 40.6327 14.0734 40.6554C14.175 40.678 14.2805 40.6762 14.3813 40.65C14.4954 40.6177 14.6132 40.6001 14.7319 40.5979C15.1029 40.5983 15.4585 40.7458 15.7209 41.0081C15.9833 41.2704 16.1309 41.626 16.1314 41.997C16.1314 42.0409 16.1284 42.0844 16.1243 42.1275C16.1086 42.3006 16.1622 42.4728 16.2734 42.6063C16.3845 42.7399 16.5441 42.8239 16.7171 42.84C16.7376 42.8421 16.7581 42.8431 16.7786 42.843C16.9421 42.8429 17.0996 42.7818 17.2203 42.6716C17.3411 42.5615 17.4164 42.4102 17.4315 42.2475C17.4394 42.1643 17.4439 42.0806 17.4439 41.9955C17.4435 41.6656 17.3825 41.3385 17.2639 41.0306H27.2813V42.1875C27.2813 42.3616 27.3504 42.5285 27.4735 42.6516C27.5965 42.7746 27.7635 42.8438 27.9375 42.8438H29.9374C30.1114 42.8438 30.2783 42.7746 30.4014 42.6516C30.5245 42.5285 30.5936 42.3616 30.5936 42.1875V38.25H31.3811C31.5552 38.25 31.7221 38.1809 31.8452 38.0578C31.9682 37.9347 32.0374 37.7678 32.0374 37.5938V35.1563C32.0374 34.9825 31.9685 34.8159 31.8458 34.6929C31.7232 34.5699 31.5567 34.5005 31.383 34.5ZM17.3861 7.42014C17.3859 8.10067 17.1614 8.76215 16.7473 9.3022C16.3333 9.84225 15.7527 10.2307 15.0955 10.4075C14.4384 10.5843 13.7413 10.5396 13.1121 10.2802C12.483 10.0208 11.9569 9.56122 11.6153 8.97264L17.3786 7.20639C17.3836 7.27714 17.3861 7.34839 17.3861 7.42014ZM6.46875 38.9059V6.93752C6.46875 6.8132 6.51814 6.69397 6.60604 6.60606C6.69395 6.51815 6.81318 6.46877 6.9375 6.46877C7.06182 6.46877 7.18105 6.51815 7.26896 6.60606C7.35686 6.69397 7.40625 6.8132 7.40625 6.93752V38.4349C7.07 38.5393 6.75325 38.6984 6.46875 38.9059ZM10.8938 28.5934H30.216V30.2809H10.8934L10.8938 28.5934ZM12.8284 31.5934H28.2814V34.5H12.828L12.8284 31.5934ZM16.1974 39.7185C15.794 39.4566 15.3279 39.3075 14.8474 39.2869C14.7971 38.9284 14.695 38.5791 14.544 38.25H27.2813V39.7189L16.1974 39.7185ZM29.2815 41.5309H28.5938V38.25H29.2811L29.2815 41.5309ZM30.7268 36.9375H13.5518C13.1213 36.5681 12.6119 36.3022 12.0627 36.1601C11.5134 36.0181 10.939 36.0037 10.3834 36.1181V35.8125H30.7271L30.7268 36.9375Z" fill="#3CB7C6"/>
<path d="M16.9397 13.15C16.7823 13.2242 16.6609 13.3579 16.6021 13.5217C16.5433 13.6855 16.5519 13.8659 16.6262 14.0233L18.7194 18.4611C18.7558 18.5395 18.8074 18.61 18.8712 18.6684C18.9349 18.7269 19.0096 18.7721 19.0909 18.8016C19.1722 18.8311 19.2586 18.8442 19.345 18.8402C19.4314 18.8362 19.5161 18.8151 19.5943 18.7783C19.6726 18.7414 19.7428 18.6894 19.8008 18.6253C19.8589 18.5613 19.9038 18.4863 19.9328 18.4049C19.9618 18.3234 19.9744 18.237 19.97 18.1506C19.9655 18.0642 19.944 17.9796 19.9067 17.9016L17.8127 13.4627C17.7382 13.3056 17.6045 13.1845 17.4408 13.1259C17.2772 13.0672 17.0969 13.0759 16.9397 13.15Z" fill="#3CB7C6"/>
<path d="M13.6098 13.6018L12.867 16.9697C12.8295 17.1397 12.861 17.3176 12.9547 17.4643C13.0484 17.611 13.1965 17.7145 13.3665 17.7519C13.5364 17.7894 13.7143 17.7579 13.861 17.6642C14.0077 17.5705 14.1112 17.4224 14.1487 17.2524L14.8916 13.8846C14.9291 13.7146 14.8975 13.5367 14.8039 13.39C14.7102 13.2433 14.5621 13.1398 14.3921 13.1023C14.2221 13.0648 14.0442 13.0964 13.8975 13.1901C13.7508 13.2837 13.6473 13.4319 13.6098 13.6018Z" fill="#3CB7C6"/>
<path d="M18.3748 11.7376C18.3373 11.9077 18.3688 12.0856 18.4625 12.2324C18.5562 12.3791 18.7043 12.4827 18.8743 12.5203L22.0539 13.2226C22.1381 13.2412 22.2251 13.2431 22.3099 13.228C22.3948 13.213 22.4759 13.1814 22.5486 13.135C22.6212 13.0887 22.684 13.0284 22.7334 12.9578C22.7828 12.8872 22.8178 12.8075 22.8364 12.7233C22.8549 12.6392 22.8568 12.5522 22.8417 12.4673C22.8267 12.3824 22.7951 12.3014 22.7488 12.2287C22.7024 12.156 22.6422 12.0932 22.5715 12.0438C22.5009 11.9945 22.4212 11.9595 22.337 11.9409L19.1574 11.2385C18.9875 11.2011 18.8096 11.2326 18.6629 11.3262C18.5162 11.4198 18.4125 11.5678 18.3748 11.7376Z" fill="#3CB7C6"/>
<path d="M42.392 39.3231C42.274 38.4165 41.8304 37.5837 41.1438 36.9799C40.4573 36.3762 39.5746 36.0426 38.6604 36.0415C38.5588 36.0415 38.4583 36.0463 38.3585 36.0542L38.036 24.6501C38.0761 24.6501 38.1166 24.6568 38.1568 24.6568C38.8651 24.6566 39.5626 24.4819 40.1874 24.1481C40.8122 23.8143 41.3452 23.3317 41.7392 22.743C42.1332 22.1543 42.3761 21.4776 42.4465 20.7727C42.5169 20.0678 42.4125 19.3564 42.1426 18.7015C42.4233 18.2866 42.6158 17.8185 42.7081 17.3262C42.8004 16.8338 42.7905 16.3278 42.6791 15.8394C42.5677 15.3511 42.3572 14.8908 42.0605 14.4872C41.7639 14.0836 41.3875 13.7452 40.9546 13.4931C41.0344 12.7766 40.9627 12.0513 40.7442 11.3643C40.5257 10.6773 40.1653 10.0438 39.6863 9.50503C39.2073 8.96623 38.6205 8.53411 37.9637 8.23667C37.307 7.93922 36.5951 7.7831 35.8742 7.77843C35.1533 7.77375 34.4395 7.92063 33.7789 8.20952C33.1184 8.49842 32.526 8.9229 32.0401 9.45544C31.5541 9.98798 31.1855 10.6167 30.9581 11.3008C30.7307 11.985 30.6496 12.7092 30.7201 13.4267C30.1235 13.6781 29.5972 14.071 29.1865 14.5716C28.7759 15.0721 28.4934 15.6651 28.3634 16.2993C28.2334 16.9335 28.2599 17.5898 28.4405 18.2115C28.6212 18.8332 28.9505 19.4015 29.4001 19.8673C29.6763 20.1547 29.9946 20.3983 30.344 20.59C30.1979 21.1087 30.1895 21.6566 30.3196 22.1796C30.4497 22.7025 30.7139 23.1826 31.0861 23.5723C31.5484 24.0518 32.1538 24.3681 32.8113 24.4739C33.4689 24.5797 34.143 24.4691 34.7323 24.1588L34.3198 38.7066C33.6951 39.0594 33.2074 39.6122 32.9353 40.2759C32.6632 40.9397 32.6225 41.6758 32.8198 42.3655C32.8688 42.5309 32.9811 42.6703 33.1322 42.7535C33.2833 42.8368 33.4612 42.8572 33.6272 42.8103C33.7932 42.7634 33.9341 42.653 34.0194 42.503C34.1047 42.353 34.1274 42.1755 34.0828 42.0088C34.034 41.8404 34.0088 41.666 34.0078 41.4906C34.0072 41.1443 34.1023 40.8047 34.2826 40.509C34.4628 40.2134 34.7212 39.9732 35.0293 39.8151C35.1525 39.8027 35.2696 39.7553 35.3668 39.6786C35.4869 39.6429 35.6102 39.619 35.735 39.607C35.8667 39.5947 35.9917 39.5428 36.0934 39.4582C36.1951 39.3736 36.2689 39.2603 36.305 39.133C36.4666 38.5646 36.8283 38.0738 37.3234 37.7512C37.8184 37.4286 38.4134 37.2958 38.9987 37.3775C39.5839 37.4591 40.1199 37.7496 40.5078 38.1954C40.8956 38.6412 41.1092 39.2122 41.1091 39.8031C41.1091 39.8458 41.1058 39.8882 41.1028 39.9302L41.1001 39.9703C41.0933 40.0741 41.1112 40.1779 41.1524 40.2733C41.1936 40.3687 41.2568 40.453 41.3369 40.5192C41.4171 40.5854 41.5118 40.6317 41.6132 40.6541C41.7147 40.6766 41.8201 40.6746 41.9206 40.6483C42.0189 40.623 42.1193 40.6073 42.2206 40.6015C42.3734 40.5931 42.5184 40.5316 42.6306 40.4276C42.7428 40.3236 42.8152 40.1837 42.8352 40.0321C42.8552 39.8804 42.8216 39.7265 42.7402 39.597C42.6588 39.4675 42.5347 39.3705 42.3894 39.3227L42.392 39.3231ZM34.5253 22.7061C34.1864 23.0279 33.7356 23.2053 33.2683 23.2007C33.0366 23.1971 32.8079 23.1475 32.5955 23.0549C32.3831 22.9624 32.1912 22.8287 32.0308 22.6615C31.7687 22.3872 31.6014 22.0362 31.5533 21.6599C31.5052 21.2837 31.5788 20.9019 31.7634 20.5705C31.8107 20.4865 31.8389 20.3932 31.846 20.2971C31.8531 20.201 31.839 20.1045 31.8047 20.0144C31.7703 19.9244 31.7165 19.8431 31.6472 19.7762C31.5778 19.7093 31.4946 19.6584 31.4034 19.6273C30.9701 19.4792 30.5821 19.2222 30.2766 18.881C29.9712 18.5398 29.7585 18.1259 29.659 17.6789C29.5596 17.2319 29.5766 16.7668 29.7086 16.3283C29.8406 15.8897 30.083 15.4925 30.4126 15.1746C30.7478 14.8519 31.1614 14.6224 31.6126 14.509C31.7776 14.4676 31.92 14.3639 32.0099 14.2195C32.0998 14.0752 32.1301 13.9016 32.0945 13.7353C31.974 13.1765 31.9801 12.5977 32.1122 12.0415C32.2444 11.4853 32.4994 10.9657 32.8584 10.5208C33.2174 10.0759 33.6714 9.71695 34.1872 9.47025C34.7029 9.22356 35.2673 9.09537 35.839 9.09509C36.4107 9.0948 36.9752 9.22242 37.4912 9.4686C38.0072 9.71478 38.4616 10.0733 38.821 10.5178C39.1805 10.9624 39.436 11.4817 39.5687 12.0378C39.7014 12.5939 39.7081 13.1726 39.5881 13.7316C39.556 13.8827 39.5782 14.0403 39.6507 14.1768C39.7233 14.3132 39.8416 14.4196 39.9849 14.4775C40.3325 14.6163 40.6418 14.8363 40.8869 15.1192C41.1319 15.4021 41.3057 15.7395 41.3936 16.1034C41.4814 16.4672 41.4809 16.8468 41.3919 17.2103C41.3029 17.5739 41.1282 17.9108 40.8823 18.193C40.7961 18.2933 40.7422 18.4174 40.7277 18.5489C40.7133 18.6804 40.7389 18.8132 40.8013 18.9298C41.0524 19.3983 41.1743 19.9251 41.1545 20.4562C41.1347 20.9873 40.9739 21.5036 40.6886 21.952C40.4033 22.4004 40.0038 22.7649 39.5311 23.0078C39.0584 23.2508 38.5296 23.3636 37.9989 23.3346L37.9479 21.5286L39.5401 20.7452C39.6963 20.6683 39.8156 20.5326 39.8717 20.3678C39.9278 20.2029 39.9161 20.0226 39.8392 19.8664C39.7623 19.7102 39.6265 19.591 39.4617 19.5349C39.2969 19.4788 39.1166 19.4905 38.9604 19.5673L37.907 20.0856L37.8024 16.3855C37.8024 16.0075 37.6522 15.6451 37.385 15.3778C37.1178 15.1106 36.7553 14.9605 36.3774 14.9605C35.9994 14.9605 35.637 15.1106 35.3697 15.3778C35.1025 15.6451 34.9524 16.0075 34.9524 16.3855L34.9085 17.9432L33.4629 16.7691C33.396 16.7148 33.319 16.6741 33.2364 16.6495C33.1538 16.6249 33.0672 16.6168 32.9814 16.6257C32.8957 16.6346 32.8126 16.6603 32.7368 16.7013C32.661 16.7423 32.594 16.7978 32.5396 16.8647C32.4299 16.9998 32.3783 17.173 32.3962 17.3461C32.4142 17.5193 32.5001 17.6782 32.6353 17.788L34.8616 19.5966L34.7829 22.378C34.7107 22.4975 34.6242 22.6077 34.5253 22.7061ZM35.666 37.5373L36.263 16.4248C36.263 16.3951 36.2748 16.3665 36.2958 16.3454C36.3168 16.3243 36.3454 16.3124 36.3751 16.3123C36.4045 16.3129 36.4325 16.3247 36.4534 16.3453C36.4743 16.3658 36.4866 16.3936 36.4876 16.423L36.6215 21.1637L37.0524 36.4056C36.5067 36.667 36.0313 37.055 35.666 37.5373Z" fill="#3CB7C6"/>
</g>
<defs>
<clipPath id="clip0">
<rect width="48" height="48" fill="white"/>
</clipPath>
</defs>
</svg>
