<svg width="24" height="24" viewBox="0 0 24 24" fill="none" xmlns="http://www.w3.org/2000/svg">
<g clip-path="url(#clip0)">
<path d="M23.7773 3.25018C23.6408 3.18287 23.478 3.19876 23.357 3.29119L16.8543 8.26341C16.5338 8.51077 16.4483 8.95829 16.6549 9.30638L15.6289 9.58609L14.1316 8.94859C14.1055 8.93738 14.0782 8.92899 14.0504 8.9236C12.6139 8.64915 11.8692 8.91385 11.4844 9.20874H7.39641C7.53656 8.87316 7.43353 8.48527 7.14534 8.26341L0.642984 3.29115C0.522141 3.19862 0.35925 3.18268 0.222797 3.25009C0.0862969 3.31749 -4.68536e-05 3.45652 2.14115e-08 3.60873V13.2087C-4.68536e-05 13.3523 0.076875 13.4849 0.201563 13.556L2.67736 14.9704C2.79769 15.0394 2.934 15.0757 3.07266 15.0755C3.27614 15.075 3.4718 14.9971 3.62006 14.8578L4.08408 15.2286C3.81413 15.5733 3.75516 16.0384 3.93052 16.4396C4.10592 16.8408 4.48739 17.1134 4.9238 17.1493C4.95778 17.1525 4.99139 17.1536 5.02495 17.1536C5.08645 17.1531 5.14786 17.1478 5.20856 17.1377C5.23355 17.4233 5.34623 17.6941 5.5312 17.913L5.53163 17.9134C5.77102 18.1975 6.11405 18.374 6.48436 18.4036C6.52383 18.4072 6.56325 18.4087 6.60272 18.4087C6.60877 18.4087 6.61458 18.4073 6.62058 18.4072C6.63173 18.6672 6.72858 18.9162 6.89606 19.1154C7.12387 19.3839 7.45837 19.5385 7.8105 19.538C7.95047 19.5378 8.08927 19.5126 8.22038 19.4637C8.35388 19.9408 8.77092 20.2838 9.2648 20.3228C9.29878 20.3259 9.33239 20.3271 9.36595 20.3271C9.64116 20.3288 9.90806 20.2327 10.1191 20.056L10.7464 19.5714L12.2234 20.5584C12.452 20.7103 12.7204 20.7913 12.9949 20.7912C13.089 20.7912 13.183 20.7819 13.2753 20.7634C13.8771 20.6436 14.3295 20.1442 14.3897 19.5337C14.7901 19.6558 15.2243 19.5896 15.57 19.3536C15.9157 19.1176 16.1355 18.7373 16.1676 18.3199C16.6309 18.473 17.1405 18.3724 17.5109 18.0547C17.8813 17.737 18.0582 17.2486 17.9774 16.7674C18.3782 16.7216 18.7388 16.5024 18.964 16.1677C19.1873 15.8312 19.2547 15.4147 19.149 15.0249L19.9378 14.2365L20.2598 14.7193C20.4932 15.069 20.9573 15.1786 21.3226 14.9704L23.7984 13.556C23.9231 13.4848 24 13.3523 24 13.2087V3.60873C24 3.45662 23.9137 3.31763 23.7773 3.25018ZM0.800016 12.9767V4.41812L5.26584 7.83296L1.60284 13.4354L0.800016 12.9767ZM3.0742 14.2759L2.29856 13.8328L5.90292 8.32018L6.65939 8.89857L3.0742 14.2759ZM5.27498 16.2611C5.19661 16.3295 5.09339 16.3625 4.98984 16.3521C4.83534 16.3391 4.70306 16.2362 4.65234 16.0897C4.60162 15.9431 4.64208 15.7805 4.75547 15.6748L5.75588 14.9013C5.82623 14.8414 5.91577 14.8085 6.0082 14.8088C6.01912 14.8088 6.03005 14.8091 6.04102 14.8099C6.19556 14.823 6.32794 14.926 6.37861 15.0726C6.42933 15.2192 6.38883 15.3819 6.27539 15.4876L5.27498 16.2611ZM6.55041 17.6064C6.31167 17.5867 6.10748 17.4269 6.03098 17.1999C5.95448 16.9728 6.0203 16.7221 6.19847 16.5619L7.45823 15.5877C7.64344 15.4307 7.90491 15.4009 8.12077 15.5119C8.33658 15.623 8.46427 15.8532 8.4442 16.0951C8.43281 16.2432 8.36606 16.3816 8.25727 16.4827L7.91447 16.7502L6.98756 17.4666C6.86648 17.5699 6.70898 17.6203 6.55041 17.6064ZM8.59336 18.2263L8.59247 18.2273L8.05861 18.6439C7.97944 18.7111 7.87683 18.7441 7.77333 18.7355C7.66983 18.7269 7.57402 18.6775 7.50703 18.5982C7.43948 18.5192 7.40658 18.4165 7.41562 18.313C7.42247 18.2147 7.46714 18.1229 7.54022 18.0568L8.47528 17.327L8.75114 17.1138C8.75419 17.1112 8.75625 17.1079 8.7593 17.1053L9.04177 16.8849C9.11198 16.8249 9.20133 16.7919 9.29372 16.7919C9.30483 16.7919 9.31589 16.7924 9.32691 16.7935C9.48173 16.8066 9.6142 16.9098 9.66469 17.0567C9.71517 17.2036 9.67416 17.3665 9.56011 17.472L8.62444 18.2023L8.59336 18.2263ZM10.6164 18.6611L9.61598 19.4345C9.53789 19.5035 9.43444 19.5365 9.33084 19.5256C9.17644 19.5125 9.0442 19.4097 8.99348 19.2633C8.94272 19.1169 8.98298 18.9544 9.09619 18.8486L9.11447 18.8343L10.0969 18.0748C10.2594 17.9376 10.5018 17.9551 10.6429 18.1143C10.7839 18.2735 10.7722 18.5162 10.6164 18.6611ZM18.298 15.7247C18.115 15.9957 17.7495 16.0719 17.4734 15.8966L17.4703 15.8947L14.8433 14.0791C14.7258 13.9974 14.5736 13.9847 14.4442 14.0459C14.3148 14.107 14.228 14.2327 14.2165 14.3753C14.205 14.5179 14.2706 14.6559 14.3886 14.7369L16.9306 16.4942L16.9319 16.4955C17.1335 16.6293 17.2344 16.8714 17.1875 17.1088C17.1406 17.3461 16.9552 17.5317 16.7178 17.5787C16.5641 17.6107 16.404 17.58 16.2729 17.4935L13.644 15.6795C13.4621 15.5544 13.2133 15.6001 13.0879 15.7818C12.9625 15.9634 13.0079 16.2123 13.1893 16.3381L15.1094 17.6627L15.11 17.6634C15.3873 17.8582 15.4632 18.2361 15.2827 18.5228C15.1024 18.7961 14.7359 18.8736 14.4604 18.6966L13.7529 18.1945L13.7526 18.1943H13.7525L13.0315 17.6826C12.915 17.5998 12.7631 17.5855 12.6332 17.6451C12.5033 17.7046 12.4149 17.829 12.4015 17.9712C12.3881 18.1135 12.4516 18.2521 12.5682 18.3349L13.3098 18.8611C13.3456 18.89 13.3795 18.9211 13.4115 18.9541C13.6378 19.1686 13.6626 19.5204 13.4687 19.7646C13.2748 20.0087 12.9264 20.0641 12.6662 19.8923L11.3487 19.0118C11.5724 18.6665 11.6007 18.2298 11.4237 17.8585C11.2466 17.4871 10.8896 17.2343 10.4805 17.1906C10.4897 16.5679 10.0137 16.0451 9.39281 15.9962C9.34149 15.9932 9.28997 15.9936 9.23869 15.9975C9.22589 15.5051 8.95336 15.0564 8.52244 14.8179C8.09152 14.5794 7.56652 14.5869 7.14253 14.8375C7.02281 14.4613 6.72422 14.169 6.34552 14.0573C5.96686 13.9455 5.55741 14.0289 5.25258 14.2799L4.7063 14.702L4.08333 14.2043L6.88055 10.0088H10.3916C10.0879 10.2753 9.94622 10.6815 10.0182 11.0791C10.1019 11.5616 10.4845 11.9367 10.9686 12.0107C11.7085 12.1154 12.4629 12.0067 13.1432 11.6974L14.1631 12.3463C14.186 12.3594 14.2101 12.3702 14.2351 12.3786L18.1346 14.89C18.2116 14.943 18.2764 15.0119 18.3245 15.092C18.3264 15.0967 18.3288 15.101 18.3311 15.1057C18.4346 15.3024 18.4219 15.5401 18.298 15.7247ZM18.7074 14.3354C18.6649 14.2943 18.6199 14.2559 18.5727 14.2205L14.6168 11.6724C14.5986 11.6636 14.5797 11.6563 14.5604 11.6505L13.3836 10.9021C13.2582 10.8224 13.0989 10.8186 12.9699 10.8924C12.3947 11.1909 11.7418 11.3058 11.0992 11.2216C10.9493 11.2039 10.8295 11.0887 10.8059 10.9396C10.7764 10.7835 10.8525 10.6264 10.9934 10.5529C11.293 10.3968 11.5745 10.2084 11.8328 9.9908C11.8605 9.96746 11.8833 9.93877 11.8996 9.90643C11.9123 9.89063 11.9264 9.87615 11.9418 9.86307C12.059 9.76266 12.5422 9.4584 13.8582 9.70173L15.4434 10.3767C15.526 10.4126 15.6184 10.419 15.7051 10.3947L17.1188 10.0092L19.4852 13.5578L18.7074 14.3354ZM20.9258 14.2759L17.3402 8.89899L18.0971 8.32018L21.7014 13.8328L20.9258 14.2759ZM23.2 12.9767L22.3972 13.4353L18.7342 7.83301L23.2 4.41807V12.9767Z" fill="white"/>
</g>
<defs>
<clipPath id="clip0">
<rect width="24" height="24" fill="white"/>
</clipPath>
</defs>
</svg>
