<svg width="24" height="24" viewBox="0 0 24 24" fill="none" xmlns="http://www.w3.org/2000/svg">
<path d="M12 8.71875C12.2589 8.71875 12.4688 8.50888 12.4688 8.25C12.4688 7.99112 12.2589 7.78125 12 7.78125C11.7411 7.78125 11.5312 7.99112 11.5312 8.25C11.5312 8.50888 11.7411 8.71875 12 8.71875Z" fill="white"/>
<path d="M12 10.5938C12.2589 10.5938 12.4688 10.3839 12.4688 10.125C12.4688 9.86612 12.2589 9.65625 12 9.65625C11.7411 9.65625 11.5312 9.86612 11.5312 10.125C11.5312 10.3839 11.7411 10.5938 12 10.5938Z" fill="white"/>
<path d="M12 12.4688C12.2589 12.4688 12.4688 12.2589 12.4688 12C12.4688 11.7411 12.2589 11.5312 12 11.5312C11.7411 11.5312 11.5312 11.7411 11.5312 12C11.5312 12.2589 11.7411 12.4688 12 12.4688Z" fill="white"/>
<path d="M12 14.3438C12.2589 14.3438 12.4688 14.1339 12.4688 13.875C12.4688 13.6161 12.2589 13.4062 12 13.4062C11.7411 13.4062 11.5312 13.6161 11.5312 13.875C11.5312 14.1339 11.7411 14.3438 12 14.3438Z" fill="white"/>
<path d="M12 16.2188C12.2589 16.2188 12.4688 16.0089 12.4688 15.75C12.4688 15.4911 12.2589 15.2812 12 15.2812C11.7411 15.2812 11.5312 15.4911 11.5312 15.75C11.5312 16.0089 11.7411 16.2188 12 16.2188Z" fill="white"/>
<path d="M8.25 13.4062H7.78125V12.9375C7.78125 12.6786 7.57134 12.4688 7.3125 12.4688C7.05366 12.4688 6.84375 12.6786 6.84375 12.9375V13.4062H6.375C6.11616 13.4062 5.90625 13.6161 5.90625 13.875C5.90625 14.1339 6.11616 14.3438 6.375 14.3438H6.84375V14.8125C6.84375 15.0714 7.05366 15.2812 7.3125 15.2812C7.57134 15.2812 7.78125 15.0714 7.78125 14.8125V14.3438H8.25C8.50884 14.3438 8.71875 14.1339 8.71875 13.875C8.71875 13.6161 8.50884 13.4062 8.25 13.4062Z" fill="white"/>
<path d="M10.5938 7.3125C10.5938 6.53709 9.96291 5.90625 9.1875 5.90625H5.4375C4.66209 5.90625 4.03125 6.53709 4.03125 7.3125C4.03125 7.92366 4.42308 8.44495 4.96875 8.63845V9.93084L4.71788 10.1817C4.27509 10.6245 4.03125 11.2132 4.03125 11.8392V16.6875C4.03125 17.4629 4.66209 18.0938 5.4375 18.0938H9.1875C9.96291 18.0938 10.5938 17.4629 10.5938 16.6875V11.8392C10.5938 11.2132 10.3499 10.6245 9.90713 10.1817L9.65625 9.93084V8.63845C10.2019 8.44495 10.5938 7.92366 10.5938 7.3125ZM9.65625 16.6875C9.65625 16.946 9.44597 17.1562 9.1875 17.1562H5.4375C5.17903 17.1562 4.96875 16.946 4.96875 16.6875V11.8392C4.96875 11.4636 5.11509 11.1103 5.38083 10.8446L5.63166 10.5938H8.9933L9.24412 10.8446C9.50986 11.1103 9.6562 11.4636 9.6562 11.8392V16.6875H9.65625ZM9.1875 7.78125C8.92866 7.78125 8.71875 7.99111 8.71875 8.25V9.65625H5.90625V8.25C5.90625 7.99111 5.69634 7.78125 5.4375 7.78125C5.17903 7.78125 4.96875 7.57097 4.96875 7.3125C4.96875 7.05403 5.17903 6.84375 5.4375 6.84375H9.1875C9.44597 6.84375 9.65625 7.05403 9.65625 7.3125C9.65625 7.57097 9.44597 7.78125 9.1875 7.78125Z" fill="white"/>
<path d="M13.875 8.71875H19.5C19.7588 8.71875 19.9688 8.50889 19.9688 8.25C19.9688 7.99111 19.7588 7.78125 19.5 7.78125H13.875C13.6162 7.78125 13.4062 7.99111 13.4062 8.25C13.4062 8.50889 13.6162 8.71875 13.875 8.71875Z" fill="white"/>
<path d="M19.5 9.65625H13.875C13.6162 9.65625 13.4062 9.86611 13.4062 10.125C13.4062 10.3839 13.6162 10.5938 13.875 10.5938H19.5C19.7588 10.5938 19.9688 10.3839 19.9688 10.125C19.9688 9.86611 19.7588 9.65625 19.5 9.65625Z" fill="white"/>
<path d="M19.5 11.5312H13.875C13.6162 11.5312 13.4062 11.7411 13.4062 12C13.4062 12.2589 13.6162 12.4688 13.875 12.4688H19.5C19.7588 12.4688 19.9688 12.2589 19.9688 12C19.9688 11.7411 19.7588 11.5312 19.5 11.5312Z" fill="white"/>
<path d="M19.5 13.4062H13.875C13.6162 13.4062 13.4062 13.6161 13.4062 13.875C13.4062 14.1339 13.6162 14.3438 13.875 14.3438H19.5C19.7588 14.3438 19.9688 14.1339 19.9688 13.875C19.9688 13.6161 19.7588 13.4062 19.5 13.4062Z" fill="white"/>
<path d="M19.5 15.2812H13.875C13.6162 15.2812 13.4062 15.4911 13.4062 15.75C13.4062 16.0089 13.6162 16.2188 13.875 16.2188H19.5C19.7588 16.2188 19.9688 16.0089 19.9688 15.75C19.9688 15.4911 19.7588 15.2812 19.5 15.2812Z" fill="white"/>
<path d="M12 21.8438C12.2589 21.8438 12.4688 21.6339 12.4688 21.375C12.4688 21.1161 12.2589 20.9062 12 20.9062C11.7411 20.9062 11.5312 21.1161 11.5312 21.375C11.5312 21.6339 11.7411 21.8438 12 21.8438Z" fill="white"/>
<path d="M0.46875 21.8438H9.89062C10.1495 21.8438 10.3594 21.6339 10.3594 21.375C10.3594 21.1161 10.1495 20.9062 9.89062 20.9062H0.9375V19.9688H23.0625V20.9062H14.1094C13.8505 20.9062 13.6406 21.1161 13.6406 21.375C13.6406 21.6339 13.8505 21.8438 14.1094 21.8438H23.5312C23.7901 21.8438 24 21.6339 24 21.375V19.5C24 19.2411 23.7901 19.0312 23.5312 19.0312H23.0625V3.5625C23.0625 3.30361 22.8526 3.09375 22.5938 3.09375H17.0756C16.8821 2.54817 16.3611 2.15625 15.75 2.15625H8.25C7.63894 2.15625 7.11788 2.54817 6.92438 3.09375H1.40625C1.14741 3.09375 0.9375 3.30361 0.9375 3.5625V19.0312H0.46875C0.209906 19.0312 0 19.2411 0 19.5V21.375C0 21.6339 0.209906 21.8438 0.46875 21.8438ZM8.25 3.09375H15.75C16.0085 3.09375 16.2188 3.30403 16.2188 3.5625C16.2188 3.82097 16.0085 4.03125 15.75 4.03125H8.25C7.99153 4.03125 7.78125 3.82097 7.78125 3.5625C7.78125 3.30403 7.99153 3.09375 8.25 3.09375ZM1.875 4.03125H6.92438C7.11788 4.57683 7.63889 4.96875 8.25 4.96875H15.75C16.3611 4.96875 16.8821 4.57683 17.0756 4.03125H22.125V19.0312H1.875V4.03125Z" fill="white"/>
</svg>
