<svg width="48" height="48" viewBox="0 0 48 48" fill="none" xmlns="http://www.w3.org/2000/svg">
<g clip-path="url(#clip0)">
<path d="M46.7368 38.205H46.4288V30.5499C46.4288 29.7585 45.785 29.1147 44.9936 29.1147H44.2108V15.6808C44.2108 15.2931 43.8965 14.9788 43.5088 14.9788C43.1211 14.9788 42.8067 15.2931 42.8067 15.6808V18.6632H34.4594V9.7227C34.4594 9.66373 34.5074 9.61571 34.5664 9.61571H42.6998C42.7588 9.61571 42.8068 9.66373 42.8068 9.7227V12.6889C42.8068 13.0766 43.1212 13.391 43.5089 13.391C43.8966 13.391 44.2109 13.0766 44.2109 12.6889V9.7227C44.2109 8.88953 43.533 8.21165 42.6998 8.21165C42.6998 8.21165 34.495 8.21455 34.4595 8.21708V3.20635C34.4595 2.42512 33.8239 1.78955 33.0427 1.78955H23.1948C22.4135 1.78955 21.778 2.42512 21.778 3.20635V5.02845C21.7737 5.02845 13.8092 5.02779 13.8092 5.02779C13.0279 5.02779 12.3924 5.66336 12.3924 6.44459V9.41896C12.3924 9.80666 12.7067 10.121 13.0944 10.121C13.4821 10.121 13.7964 9.80666 13.7964 9.41896V6.44468C13.7964 6.43766 13.8021 6.43195 13.8092 6.43195H21.7652C21.7723 6.43195 21.778 6.43766 21.778 6.44468V17.4111H13.7964V16.699V12.4108C13.7964 12.0231 13.4821 11.7088 13.0944 11.7088C12.7067 11.7088 12.3924 12.0231 12.3924 12.4108V15.997H11.3125C9.9404 15.997 8.80704 17.0363 8.65699 18.3689H4.71185C3.13331 18.3689 1.84906 19.6532 1.84906 21.2318V38.2051H1.26328C0.56668 38.205 0 38.7717 0 39.4682V41.4456C0 42.1421 0.56668 42.7089 1.26328 42.7089H3.00563C3.34083 44.6934 5.07073 46.2101 7.14912 46.2101C9.22751 46.2101 10.9574 44.6934 11.2927 42.7089H33.6675C34.0027 44.6934 35.7326 46.2101 37.8111 46.2101C39.8896 46.2101 41.6194 44.6934 41.9546 42.7089H46.7368C47.4333 42.7089 48.0001 42.1422 48.0001 41.4456V39.4682C48 38.7717 47.4333 38.205 46.7368 38.205ZM45.0248 30.5499V32.7992H20.5771C20.1894 32.7992 19.8751 33.1136 19.8751 33.5013C19.8751 33.889 20.1894 34.2033 20.5771 34.2033H45.0248V38.205H39.6015C39.058 37.948 38.4511 37.8035 37.8111 37.8035C37.171 37.8035 36.5642 37.948 36.0206 38.205H13.7965V34.2033H17.5853C17.973 34.2033 18.2873 33.889 18.2873 33.5013C18.2873 33.1136 17.973 32.7992 17.5853 32.7992H13.7965V30.5189H43.5087H44.9935C45.0107 30.5188 45.0248 30.5327 45.0248 30.5499ZM33.6674 41.3048H11.2927C11.1876 40.6827 10.9456 40.1068 10.5985 39.6091H34.3617C34.0145 40.1068 33.7725 40.6827 33.6674 41.3048ZM3.25303 26.9125H5.16789C6.03654 26.9125 6.74325 26.2058 6.74325 25.3371V19.7729H8.63968V28.6232H6.26765C6.08325 28.6232 5.90624 28.6957 5.77482 28.8252L3.25303 31.3105V26.9125ZM23.1821 29.1147V21.4013H33.0553V29.1147H23.1821ZM33.0552 19.9973H23.1821V12.3111H33.0553V19.9973H33.0552ZM21.7781 18.8151V29.1147H13.7965V18.8151H21.7781ZM42.8066 20.0673V29.1148H39.335V26.2446L39.3466 26.258C39.4854 26.4182 39.6808 26.5001 39.8774 26.5001C40.0404 26.5001 40.2041 26.4437 40.3369 26.3286C40.6299 26.0746 40.6615 25.6312 40.4076 25.3382L39.1634 23.9029C39.03 23.7491 38.8364 23.6608 38.6329 23.6608C38.4294 23.6608 38.2358 23.7491 38.1025 23.903L36.8584 25.3383C36.6044 25.6313 36.6361 26.0747 36.929 26.3287C37.222 26.5826 37.6654 26.551 37.9194 26.258L37.931 26.2446V29.1147H34.4594V20.0672H42.8066V20.0673ZM23.1821 3.20635C23.1821 3.19932 23.1878 3.19361 23.1949 3.19361H27.4167V6.38356L26.9049 5.92733C26.6154 5.66936 26.1717 5.69472 25.9137 5.98424C25.6557 6.27366 25.6812 6.71744 25.9706 6.97542L27.6515 8.47393C27.7848 8.5928 27.9518 8.65187 28.1186 8.65187C28.2933 8.65187 28.4677 8.587 28.6031 8.45792L30.1749 6.95941C30.4556 6.69189 30.4661 6.24755 30.1986 5.96683C29.9312 5.6862 29.4868 5.67572 29.206 5.94315L28.8208 6.31045V3.19371H33.0426C33.0496 3.19371 33.0553 3.19942 33.0553 3.20644V10.8798H23.1821V3.20635ZM10.0437 18.6698C10.0437 17.9702 10.6129 17.401 11.3125 17.401H12.3925V38.2049H10.0437V18.6698ZM4.71185 19.7729H5.33919V25.3371C5.33919 25.4316 5.26234 25.5084 5.16789 25.5084H3.25303V21.2317C3.25303 20.4273 3.90751 19.7729 4.71185 19.7729ZM3.25303 33.282L6.55539 30.0273H8.63968V38.0775C8.17605 37.9011 7.67387 37.8035 7.14912 37.8035C6.50906 37.8035 5.90222 37.948 5.35866 38.205H3.25303V33.282ZM1.40406 39.6091H3.6998C3.35272 40.1068 3.11075 40.6827 3.00563 41.3048H1.40406V39.6091ZM7.14912 44.8061C5.60559 44.8061 4.34988 43.5504 4.34988 42.0068C4.34988 40.4633 5.60559 39.2076 7.14912 39.2076C8.69266 39.2076 9.94836 40.4633 9.94836 42.0068C9.94836 43.5504 8.69266 44.8061 7.14912 44.8061ZM37.811 44.8061C36.2676 44.8061 35.012 43.5506 35.0117 42.0075C35.0117 42.0073 35.0117 42.0071 35.0117 42.0069C35.0117 42.0067 35.0117 42.0065 35.0117 42.0064C35.0121 40.4631 36.2676 39.2078 37.811 39.2078C39.3545 39.2078 40.6102 40.4635 40.6102 42.007C40.6102 43.5505 39.3545 44.8061 37.811 44.8061ZM46.5959 41.3048H41.9545C41.8494 40.6827 41.6074 40.1068 41.2603 39.6091H46.5959V41.3048Z" fill="black"/>
</g>
<defs>
<clipPath id="clip0">
<rect width="48" height="48" fill="white"/>
</clipPath>
</defs>
</svg>
