<svg width="48" height="48" viewBox="0 0 48 48" fill="none" xmlns="http://www.w3.org/2000/svg">
<g clip-path="url(#clip0)">
<path d="M21.148 5.59899V15.2046C21.148 15.5931 21.463 15.908 21.8515 15.908C22.24 15.908 22.5549 15.5931 22.5549 15.2046V8.85394C22.5549 8.01122 23.2405 7.32561 24.0832 7.32561C24.926 7.32561 25.6117 8.01122 25.6117 8.85394V12.1276C25.6117 12.516 25.9265 12.831 26.3151 12.831C26.7037 12.831 27.0186 12.516 27.0186 12.1276V8.85394C27.0186 7.23547 25.7018 5.91873 24.0832 5.91873C23.5237 5.91873 23.0004 6.0763 22.5549 6.34905V5.59899C22.5549 3.98052 21.2382 2.66378 19.6197 2.66378C19.0601 2.66378 18.5368 2.82135 18.0914 3.0941V2.93521C18.0913 1.31674 16.7745 0 15.1561 0C13.5376 0 12.2208 1.31674 12.2208 2.93521V3.0941C11.7753 2.82126 11.252 2.66378 10.6925 2.66378C9.07404 2.66378 7.75729 3.98052 7.75729 5.59899V14.1266C7.43718 14.0394 7.10075 13.9919 6.75335 13.9919H5.96953C4.92657 13.9919 4.07812 14.8404 4.07812 15.8834V25.0661C4.07812 25.4546 4.39308 25.7696 4.78156 25.7696C5.17005 25.7696 5.485 25.4546 5.485 25.0661V15.8834C5.485 15.6162 5.70232 15.3988 5.96953 15.3988H6.75335C8.08556 15.3988 9.16933 16.4826 9.16933 17.8148V23.5125C9.16933 23.901 9.48428 24.2159 9.87277 24.2159C10.2613 24.2159 10.5762 23.901 10.5762 23.5125V21.0613H10.7589C12.7528 21.0613 14.375 22.6834 14.375 24.6774V27.2091C14.375 27.5976 14.6899 27.9125 15.0784 27.9125C15.4669 27.9125 15.7818 27.5976 15.7818 27.2091V24.6774C15.7818 21.9077 13.5286 19.6544 10.7589 19.6544H10.5762V17.8148C10.5762 16.6202 10.0251 15.5523 9.16417 14.8507V5.59899C9.16417 4.75627 9.84979 4.07066 10.6925 4.07066C11.5352 4.07066 12.2208 4.75627 12.2208 5.59899V14.6954C12.2208 15.0839 12.5358 15.3988 12.9243 15.3988C13.3128 15.3988 13.6277 15.0839 13.6277 14.6954V2.93521C13.6277 2.09249 14.3133 1.40688 15.1561 1.40688C15.9988 1.40688 16.6844 2.09249 16.6844 2.93521V15.2046C16.6844 15.5931 16.9993 15.908 17.3878 15.908C17.7763 15.908 18.0913 15.5931 18.0913 15.2046V5.59899C18.0913 4.75627 18.7769 4.07066 19.6196 4.07066C20.4624 4.07066 21.148 4.75627 21.148 5.59899Z" fill="black"/>
<path d="M27.1453 43.2359H24.498C23.093 43.2359 21.9498 42.0928 21.9498 40.6878V33.3592C21.9498 32.9707 21.6349 32.6558 21.2464 32.6558C20.8579 32.6558 20.543 32.9707 20.543 33.3592V40.6878C20.543 42.8687 22.3172 44.6428 24.498 44.6428H25.117V47.2966C25.117 47.685 25.4319 48 25.8204 48C26.209 48 26.5239 47.685 26.5239 47.2966V44.6428H27.1453C27.5339 44.6428 27.8488 44.3279 27.8488 43.9394C27.8488 43.5509 27.5339 43.2359 27.1453 43.2359Z" fill="black"/>
<path d="M40.5482 17.4212C39.9886 17.4212 39.4654 17.5787 39.0199 17.8515V17.1014C39.0199 15.483 37.7031 14.1662 36.0846 14.1662C35.5251 14.1662 35.0017 14.3238 34.5562 14.5965V14.4377C34.5562 12.8192 33.2395 11.5024 31.621 11.5024C30.0025 11.5024 28.6858 12.8192 28.6858 14.4377V14.5965C28.2403 14.3237 27.7169 14.1662 27.1574 14.1662C25.5389 14.1662 24.2221 15.483 24.2221 17.1014V25.6291C23.902 25.5418 23.5656 25.4944 23.2182 25.4944H22.4344C21.3914 25.4944 20.543 26.3428 20.543 27.3858V30.3614C20.543 30.7499 20.8579 31.0649 21.2464 31.0649C21.6349 31.0649 21.9498 30.7499 21.9498 30.3614V27.3858C21.9498 27.1186 22.1672 26.9013 22.4344 26.9013H23.2182C24.5504 26.9013 25.6342 27.985 25.6342 29.3172V35.015C25.6342 35.4035 25.949 35.7184 26.3376 35.7184C26.7262 35.7184 27.041 35.4035 27.041 35.015V32.5638H27.2237C29.2176 32.5638 30.8397 34.1859 30.8397 36.1798V38.7116C30.8397 39.1001 31.1546 39.4151 31.5431 39.4151C31.9317 39.4151 32.2466 39.1001 32.2466 38.7116V36.1798C32.2466 33.4101 29.9933 31.1569 27.2237 31.1569H27.041V29.3172C27.041 28.1226 26.4899 27.0546 25.6289 26.3531V17.1014C25.6289 16.2587 26.3146 15.5731 27.1574 15.5731C28.0001 15.5731 28.6857 16.2587 28.6857 17.1014V26.1978C28.6857 26.5863 29.0005 26.9013 29.3891 26.9013C29.7777 26.9013 30.0926 26.5863 30.0926 26.1978V14.4377C30.0926 13.595 30.7782 12.9094 31.6209 12.9094C32.4636 12.9094 33.1492 13.595 33.1492 14.4377V26.7071C33.1492 27.0956 33.4641 27.4106 33.8527 27.4106C34.2413 27.4106 34.5561 27.0956 34.5561 26.7071V17.1014C34.5561 16.2587 35.2418 15.5731 36.0845 15.5731C36.9273 15.5731 37.6129 16.2587 37.6129 17.1014V23.3265C37.6129 23.715 37.9277 24.0299 38.3163 24.0299C38.7049 24.0299 39.0198 23.715 39.0198 23.3265V20.3564C39.0198 19.5137 39.7054 18.828 40.5481 18.828C41.3908 18.828 42.0765 19.5137 42.0765 20.3564V30.4303C42.0765 30.8188 42.3914 31.1337 42.78 31.1337C43.1685 31.1337 43.4834 30.8188 43.4834 30.4303V20.3564C43.4835 18.7379 42.1668 17.4212 40.5482 17.4212Z" fill="black"/>
<path d="M42.7803 32.7246C42.3917 32.7246 42.0769 33.0396 42.0769 33.428V39.3662C42.0769 40.5871 41.6189 41.7518 40.7872 42.6458L40.0283 43.4617C39.9072 43.5919 39.8398 43.7631 39.8398 43.9408V47.2967C39.8398 47.6852 40.1547 48.0001 40.5433 48.0001C40.9319 48.0001 41.2467 47.6852 41.2467 47.2967V44.2174L41.8173 43.604C42.8919 42.4489 43.4838 40.9438 43.4838 39.3661V33.428C43.4838 33.0396 43.1689 32.7246 42.7803 32.7246Z" fill="black"/>
<path d="M18.4472 40.3817H9.23573C8.79388 40.3817 8.43447 40.0222 8.43447 39.5805V37.5803C8.43447 37.1384 8.79398 36.779 9.23573 36.779H18.4327C18.8212 36.779 19.1361 36.4641 19.1361 36.0756C19.1361 35.6871 18.8212 35.3721 18.4327 35.3721H10.0589V33.1403H10.6804C11.0689 33.1403 11.3838 32.8253 11.3838 32.4368C11.3838 32.0483 11.0689 31.7334 10.6804 31.7334H8.03314C6.62804 31.7334 5.485 30.5903 5.485 29.1853V28.0638C5.485 27.6753 5.17005 27.3604 4.78156 27.3604C4.39308 27.3604 4.07812 27.6753 4.07812 28.0638V29.1853C4.07812 31.3661 5.85238 33.1403 8.03314 33.1403H8.65207V35.4508C7.71687 35.7075 7.0276 36.5646 7.0276 37.5801V39.5803C7.0276 40.728 7.90783 41.6736 9.02864 41.7785V47.2889C9.02864 47.6773 9.3436 47.9923 9.73208 47.9923C10.1206 47.9923 10.4355 47.6773 10.4355 47.2889V41.7884H18.4471C18.8356 41.7884 19.1506 41.4735 19.1506 41.085C19.1506 40.6965 18.8357 40.3817 18.4472 40.3817Z" fill="black"/>
<path d="M33.8529 8.89422C33.4643 8.89422 33.1494 9.20918 33.1494 9.59766C33.1494 9.98615 33.4643 10.3011 33.8529 10.3011H36.0142V10.9135C36.0142 11.302 36.329 11.6169 36.7176 11.6169C37.1062 11.6169 37.4211 11.302 37.4211 10.9135V10.3011H39.0243C39.7199 10.3011 40.2858 9.73516 40.2858 9.03951V7.33465C40.2858 6.639 39.7199 6.07306 39.0243 6.07306H34.5563V4.76363H39.5824C39.971 4.76363 40.2858 4.44868 40.2858 4.0602C40.2858 3.67171 39.971 3.35676 39.5824 3.35676H37.4545V2.78791C37.4545 2.39943 37.1396 2.08447 36.751 2.08447C36.3624 2.08447 36.0476 2.39943 36.0476 2.78791V3.35676H34.411C33.7154 3.35676 33.1494 3.9227 33.1494 4.61835V6.21844C33.1494 6.91409 33.7154 7.48003 34.411 7.48003H38.879V8.89432H33.8529V8.89422Z" fill="black"/>
<path d="M30.0519 4.51327L30.6562 4.72421C30.7329 4.75103 30.811 4.76369 30.888 4.76369C31.1789 4.76369 31.4509 4.58193 31.5521 4.29192C31.6802 3.9251 31.4867 3.52395 31.1199 3.39593L30.5156 3.18499C30.1487 3.05696 29.7476 3.25055 29.6196 3.61728C29.4915 3.984 29.685 4.38515 30.0519 4.51327Z" fill="black"/>
<path d="M30.2837 10.4093C30.3606 10.4093 30.4389 10.3966 30.5156 10.3698L31.1199 10.1589C31.4867 10.0308 31.6803 9.62968 31.5522 9.26286C31.4242 8.89613 31.0227 8.70236 30.6562 8.83057L30.0519 9.04151C29.6851 9.16954 29.4915 9.57068 29.6196 9.9375C29.7209 10.2276 29.9929 10.4093 30.2837 10.4093Z" fill="black"/>
<path d="M42.6138 4.7638C42.6906 4.7638 42.769 4.75114 42.8457 4.72432L43.45 4.51338C43.8168 4.38535 44.0104 3.98421 43.8823 3.61739C43.7542 3.25066 43.353 3.05679 42.9863 3.1851L42.382 3.39604C42.0152 3.52406 41.8216 3.92521 41.9497 4.29203C42.051 4.58204 42.323 4.7638 42.6138 4.7638Z" fill="black"/>
<path d="M43.4499 9.04136L42.8456 8.83042C42.479 8.70259 42.0777 8.89599 41.9496 9.26271C41.8216 9.62944 42.0151 10.0307 42.3819 10.1587L42.9862 10.3696C43.063 10.3965 43.1411 10.4091 43.2181 10.4091C43.5089 10.4091 43.781 10.2274 43.8822 9.93736C44.0103 9.57063 43.8168 9.16948 43.4499 9.04136Z" fill="black"/>
</g>
<defs>
<clipPath id="clip0">
<rect width="48" height="48" fill="white"/>
</clipPath>
</defs>
</svg>
