<svg width="48" height="48" viewBox="0 0 48 48" fill="none" xmlns="http://www.w3.org/2000/svg">
<g clip-path="url(#clip0)">
<path d="M16.7316 9.72339C17.051 9.94389 17.4891 9.86355 17.7097 9.54386L23.0441 1.81133C23.219 1.55764 23.5075 1.40624 23.8157 1.40624C24.1238 1.40624 24.4123 1.55764 24.5872 1.81133L33.0063 14.015C33.1428 14.2129 33.3623 14.319 33.5857 14.319C33.7234 14.319 33.8625 14.2787 33.9844 14.1946C34.304 13.9741 34.3844 13.5362 34.1639 13.2166L25.7449 1.01287C25.3074 0.378653 24.5862 0 23.8158 0C23.0452 0 22.3241 0.378653 21.8866 1.01287L16.5522 8.7454C16.3317 9.06499 16.412 9.5029 16.7316 9.72339Z" fill="black"/>
<path d="M15.2045 25.3057C13.9204 25.3057 12.8757 26.3504 12.8757 27.6344V30.1058H12.7979C12.4094 30.1058 12.0947 30.4206 12.0947 30.8089C12.0947 31.1972 12.4094 31.512 12.7979 31.512H17.6748C18.0632 31.512 18.3779 31.1972 18.3779 30.8089C18.3779 30.4206 18.0632 30.1058 17.6748 30.1058H17.5333V27.6344C17.5334 26.3503 16.4886 25.3057 15.2045 25.3057ZM14.2819 27.6344C14.2819 27.1257 14.6958 26.7119 15.2045 26.7119C15.7132 26.7119 16.1271 27.1258 16.1271 27.6344V30.1058H14.2819V27.6344Z" fill="black"/>
<path d="M32.3327 25.3057C31.0487 25.3057 30.004 26.3504 30.004 27.6344V30.1058H29.8623C29.4739 30.1058 29.1592 30.4206 29.1592 30.8089C29.1592 31.1972 29.4739 31.512 29.8623 31.512H34.7393C35.1277 31.512 35.4424 31.1972 35.4424 30.8089C35.4424 30.4206 35.1277 30.1058 34.7393 30.1058H34.6615V27.6344C34.6616 26.3503 33.6169 25.3057 32.3327 25.3057ZM31.4102 27.6344C31.4102 27.1257 31.824 26.7119 32.3327 26.7119C32.8414 26.7119 33.2553 27.1258 33.2553 27.6344V30.1058H31.4102V27.6344Z" fill="black"/>
<path d="M26.1717 27.2655C27.0343 27.2655 27.7362 26.5637 27.7362 25.701V20.9903C27.7362 20.1276 27.0344 19.4258 26.1717 19.4258H21.461C20.5984 19.4258 19.8965 20.1276 19.8965 20.9903V25.701C19.8965 26.5637 20.5983 27.2655 21.461 27.2655H26.1717ZM26.1717 25.8593H24.5195V24.0488H26.33V25.701C26.3299 25.7883 26.2589 25.8593 26.1717 25.8593ZM26.3299 20.9903V22.6425H24.5194V20.832H26.1716C26.2589 20.832 26.3299 20.9031 26.3299 20.9903ZM21.461 20.832H23.1132V22.6425H21.3027V20.9903C21.3027 20.9031 21.3737 20.832 21.461 20.832ZM21.3027 25.701V24.0488H23.1132V25.8593H21.461C21.3737 25.8593 21.3027 25.7883 21.3027 25.701Z" fill="black"/>
<path d="M10.5845 16.5606C13.3413 16.5606 15.5841 14.3179 15.5841 11.5611C15.5841 10.8436 15.2987 10 14.7115 8.98202C14.5175 8.64556 14.0875 8.53024 13.7512 8.72421C13.4148 8.91827 13.2994 9.34821 13.4934 9.68458C14.059 10.6654 14.1778 11.2463 14.1778 11.5611C14.1778 13.5424 12.5659 15.1544 10.5845 15.1544C8.60312 15.1544 6.9912 13.5425 6.9912 11.5611C6.9912 11.3722 7.03536 11.0615 7.22304 10.595L7.74063 10.7203C7.94575 10.7701 8.16241 10.7249 8.33059 10.5975C8.49887 10.4701 8.60106 10.2738 8.60884 10.063L8.62178 9.71327C8.65984 8.67865 9.05153 7.67797 9.72465 6.89563C10.0518 6.51529 10.3521 6.18586 10.5846 5.93733C10.9024 6.27689 11.3344 6.75473 11.7944 7.31047C12.0421 7.60963 12.4855 7.65144 12.7844 7.40375C13.0836 7.15616 13.1254 6.71291 12.8777 6.41376C12.199 5.59374 11.5778 4.93515 11.2676 4.61509C11.0891 4.43115 10.84 4.32568 10.5845 4.32568C10.5844 4.32568 10.5842 4.32568 10.5841 4.32568C10.3286 4.32578 10.0798 4.43134 9.90146 4.61528C9.66896 4.85518 9.19824 5.35121 8.65862 5.97839C7.88857 6.87341 7.40023 7.9865 7.25679 9.15621L7.17382 9.13615C6.74595 9.03265 6.29708 9.2463 6.10639 9.64445C5.75558 10.3771 5.58496 11.004 5.58496 11.561C5.58496 14.3179 7.82772 16.5606 10.5845 16.5606Z" fill="black"/>
<path d="M37.9927 19.2354C39.6812 19.2354 41.0548 17.8618 41.0548 16.1733C41.0548 15.8189 40.951 15.4299 40.7376 14.9848C40.6126 14.7229 40.3615 14.551 40.0853 14.5169C39.9613 13.9228 39.6883 13.3638 39.2904 12.9015C38.9886 12.5506 38.7254 12.2732 38.5953 12.1391C38.4379 11.9769 38.2183 11.8838 37.9926 11.8838C37.767 11.8838 37.5472 11.9769 37.3898 12.1393C36.4714 13.0865 34.9307 14.8701 34.9307 16.1733C34.9307 17.8618 36.3043 19.2354 37.9927 19.2354ZM37.9921 13.5542C38.0649 13.6354 38.1431 13.7241 38.2245 13.8186C38.5474 14.1939 38.7353 14.674 38.7536 15.1704L38.7606 15.3623C38.7684 15.5732 38.8705 15.7695 39.0388 15.8969C39.207 16.0244 39.4235 16.0694 39.6284 16.0199C39.6446 16.0909 39.6486 16.141 39.6486 16.1732C39.6486 17.0863 38.9059 17.829 37.9928 17.829C37.0799 17.829 36.3371 17.0863 36.3371 16.1732C36.3369 15.6989 37.0123 14.6428 37.9921 13.5542Z" fill="black"/>
<path d="M42.4944 42.337C44.6835 42.337 46.4644 40.556 46.4644 38.367C46.4644 37.9175 46.3293 37.4169 46.0515 36.837C45.8899 36.4995 45.5307 36.303 45.1667 36.3393C45.028 35.4827 44.6544 34.6724 44.0866 34.0123C43.6748 33.5337 43.3136 33.1529 43.135 32.9685C43.1349 32.9685 43.1349 32.9684 43.1348 32.9684C42.9677 32.796 42.7343 32.697 42.4945 32.697C42.43 32.697 42.366 32.7048 42.3035 32.7186V31.7148H45.1824C45.5236 31.7148 45.8341 31.5272 45.9929 31.2252C46.1515 30.9231 46.1298 30.561 45.9361 30.2797L39.4449 20.8705C39.2243 20.5509 38.7865 20.4704 38.4668 20.6909C38.1472 20.9114 38.0667 21.3493 38.2872 21.6689L44.2475 30.3086H41.9696L24.395 4.83363C24.2638 4.64341 24.0474 4.52979 23.8162 4.52979C23.585 4.52979 23.3687 4.64341 23.2374 4.83363L5.66287 30.3086H3.38495L10.668 19.7517C10.8885 19.4321 10.8081 18.9942 10.4885 18.7737C10.1689 18.5531 9.73093 18.6334 9.51043 18.9532L1.69624 30.28C1.50265 30.561 1.4809 30.9231 1.63962 31.2253C1.79824 31.5273 2.10883 31.7149 2.45008 31.7149H5.32893V33.7811C5.32893 34.1694 5.64365 34.4842 6.03205 34.4842C6.42045 34.4842 6.73517 34.1694 6.73517 33.7811V31.2307L23.8162 6.47105L40.8972 31.2307V34.0148C39.8228 35.2619 38.5244 37.0429 38.5244 38.367C38.5244 38.725 38.5729 39.0718 38.6621 39.402H34.8435C34.4551 39.402 34.1404 39.7168 34.1404 40.1051C34.1404 40.4934 34.4551 40.8082 34.8435 40.8082H39.3671C39.7688 41.3217 40.2936 41.7339 40.8971 42.0003V43.3192H27.6652V40.8083H31.8471C32.2355 40.8083 32.5503 40.4935 32.5503 40.1052C32.5503 39.7169 32.2355 39.4021 31.8471 39.4021H27.6652V37.4418C27.6652 35.2936 25.9174 33.5459 23.7692 33.5459C23.4269 33.5459 23.0905 33.5912 22.7637 33.6787C22.645 33.269 22.4405 32.8857 22.1606 32.5602C21.9211 32.2817 21.7108 32.0601 21.6068 31.9528C21.6067 31.9527 21.6065 31.9525 21.6064 31.9523C21.4545 31.7958 21.2425 31.7061 21.0247 31.7061C20.807 31.7061 20.5949 31.7959 20.4426 31.9527C19.7029 32.7155 18.4621 34.1564 18.4621 35.2362C18.4621 36.2353 19.0371 37.1021 19.8734 37.5246V39.402H6.73517V36.7774C6.73517 36.3891 6.42045 36.0743 6.03205 36.0743C5.64365 36.0743 5.32893 36.3891 5.32893 36.7774V43.3191H4.80628C4.05038 43.3191 3.43548 43.9341 3.43548 44.6899V46.6292C3.43548 47.3851 4.05047 48 4.80628 48H42.7325C43.4884 48 44.1033 47.385 44.1033 46.6292V44.6899C44.1033 43.934 43.4883 43.3191 42.7325 43.3191H42.3035V42.3321C42.3667 42.3351 42.4304 42.337 42.4944 42.337ZM26.2589 37.4417V43.3191H21.2796V37.7861C22.5735 37.6578 23.5873 36.5633 23.5873 35.2363C23.5873 35.1471 23.5787 35.0552 23.5635 34.9611C23.6317 34.9555 23.7003 34.9523 23.7693 34.9523C25.1421 34.9522 26.2589 36.0689 26.2589 37.4417ZM21.0237 33.3956C21.0469 33.4221 21.0706 33.4494 21.0946 33.4773C21.3272 33.7477 21.4625 34.0936 21.4756 34.4515L21.4813 34.6028C21.4891 34.8137 21.5912 35.0099 21.7594 35.1373C21.8819 35.2301 22.0298 35.2792 22.1803 35.2799C22.1574 35.8975 21.6478 36.3927 21.0248 36.3927C20.9384 36.3927 20.8544 36.3824 20.7734 36.3644C20.7672 36.3629 20.7611 36.361 20.7548 36.3596C20.2472 36.2376 19.8684 35.7809 19.8684 35.2364C19.8683 34.9594 20.2703 34.2533 21.0237 33.3956ZM6.73517 40.8082H19.8735V43.3191H6.73517V40.8082ZM42.6969 46.5938H4.84162V44.7254H42.6969V46.5938ZM39.9307 38.367C39.9307 37.5717 40.9342 36.1042 42.1055 34.7693C42.1209 34.7534 42.1356 34.7368 42.1493 34.7196C42.263 34.5909 42.378 34.4634 42.4939 34.338C42.6474 34.5047 42.8279 34.7056 43.0205 34.9294C43.5075 35.4956 43.791 36.2196 43.8184 36.9683L43.8282 37.2341C43.836 37.4451 43.9382 37.6413 44.1063 37.7688C44.2746 37.8962 44.4911 37.9414 44.6964 37.8916L44.9457 37.8312C45.0352 38.0845 45.0581 38.257 45.0581 38.3671C45.0581 39.7807 43.908 40.9309 42.4943 40.9309C41.0807 40.9309 39.9307 39.7806 39.9307 38.367Z" fill="black"/>
</g>
<defs>
<clipPath id="clip0">
<rect width="48" height="48" fill="white"/>
</clipPath>
</defs>
</svg>
