<svg width="48" height="48" viewBox="0 0 48 48" fill="none" xmlns="http://www.w3.org/2000/svg">
<g clip-path="url(#clip0)">
<path d="M46.4481 31.8576L25.7567 4.73885C25.3414 4.1946 24.6846 3.86963 23.9999 3.86963C23.3152 3.86963 22.6585 4.1946 22.2431 4.73885L1.55179 31.8576C1.38912 32.0708 1.36148 32.3578 1.48033 32.5981C1.59928 32.8386 1.84423 32.9906 2.1124 32.9906H5.192V43.5588H4.92533C4.06871 43.5588 3.37176 44.2558 3.37176 45.1125V47.2948C3.37176 47.6843 3.68751 48 4.07699 48H43.923C44.3125 48 44.6283 47.6843 44.6283 47.2948V45.1125C44.6283 44.2558 43.9313 43.5588 43.0747 43.5588H42.8079V38.2019C42.8079 37.8123 42.4922 37.4967 42.1027 37.4967C41.7132 37.4967 41.3975 37.8123 41.3975 38.2019V40.1516H28.4867V38.7091C28.4867 36.2092 26.4529 34.1754 23.953 34.1754C21.4531 34.1754 19.4193 36.2092 19.4193 38.7091V40.1516H13.4021C13.0126 40.1516 12.6969 40.4673 12.6969 40.8569C12.6969 41.2464 13.0126 41.5621 13.4021 41.5621H19.4193V43.5588H6.60256V41.5621H10.3966C10.7861 41.5621 11.1018 41.2464 11.1018 40.8569C11.1018 40.4673 10.7861 40.1516 10.3966 40.1516H6.60256V32.5237L24 9.7221L41.3975 32.5237V35.1964C41.3975 35.586 41.7132 35.9016 42.1027 35.9016C42.4922 35.9016 42.8079 35.586 42.8079 35.1964V32.9905H45.8875C46.1557 32.9905 46.4006 32.8385 46.5196 32.5981C46.6385 32.3578 46.6108 32.0707 46.4481 31.8576ZM41.3974 41.5621V43.5588H28.4867V41.5621H41.3974ZM20.8298 38.7091C20.8298 36.987 22.2308 35.5859 23.953 35.5859C25.6752 35.5859 27.0762 36.9869 27.0762 38.7091V43.5588H20.8298V38.7091ZM43.0746 44.9693C43.1535 44.9693 43.2177 45.0336 43.2177 45.1125V46.5895H4.78222V45.1125C4.78222 45.0335 4.84644 44.9693 4.92533 44.9693H43.0746ZM42.4516 31.5802L24.5606 8.13175C24.4273 7.95695 24.2199 7.85436 24 7.85436C23.7802 7.85436 23.5727 7.95695 23.4394 8.13175L5.54838 31.5802H3.53763L23.3645 5.59443C23.5148 5.39753 23.7523 5.27999 24 5.27999C24.2477 5.27999 24.4852 5.39753 24.6355 5.59443L44.4624 31.5802H42.4516Z" fill="#3CB7C6"/>
<path d="M32.1414 25.8198C30.853 25.8198 29.8047 26.868 29.8047 28.1565V32.2399C29.4936 32.3132 29.2617 32.592 29.2617 32.9256C29.2617 33.3152 29.5775 33.6309 29.9669 33.6309H34.3998C34.7893 33.6309 35.1051 33.3152 35.1051 32.9256C35.1051 32.5626 34.8307 32.2638 34.478 32.225V28.1566C34.4781 26.868 33.4298 25.8198 32.1414 25.8198ZM31.2153 32.2203V28.1564C31.2153 27.6457 31.6307 27.2302 32.1415 27.2302C32.6523 27.2302 33.0677 27.6457 33.0677 28.1564V32.2203H31.2153Z" fill="#3CB7C6"/>
<path d="M15.7645 25.8198C14.4761 25.8198 13.4279 26.868 13.4279 28.1565V32.2249C13.0752 32.2638 12.8008 32.5625 12.8008 32.9255C12.8008 33.3151 13.1165 33.6308 13.506 33.6308H17.9389C18.3284 33.6308 18.6441 33.3151 18.6441 32.9255C18.6441 32.5919 18.4122 32.3132 18.1011 32.2398V28.1564C18.1012 26.868 17.053 25.8198 15.7645 25.8198ZM14.8384 32.2203V28.1564C14.8384 27.6457 15.2539 27.2302 15.7646 27.2302C16.2754 27.2302 16.6908 27.6457 16.6908 28.1564V32.2203H14.8384Z" fill="#3CB7C6"/>
<path d="M21.5253 19.2446C20.7532 19.2446 20.125 19.8728 20.125 20.6449V25.7457C20.125 26.5178 20.7532 27.146 21.5253 27.146H26.3809C27.1529 27.146 27.7812 26.5178 27.7812 25.7457V20.6449C27.7812 19.8728 27.1529 19.2446 26.3809 19.2446H21.5253ZM26.3707 22.4901H24.7009V20.6551H26.3707V22.4901ZM23.2904 20.6551V22.4901H21.5355V20.6551H23.2904ZM21.5355 23.9006H23.2904V25.7356H21.5355V23.9006ZM24.7009 25.7355V23.9005H26.3707V25.7355H24.7009Z" fill="#3CB7C6"/>
<path d="M32.3479 9.03082H33.8854V12.8287C33.8854 13.2183 34.2012 13.5339 34.5906 13.5339C34.9801 13.5339 35.2959 13.2183 35.2959 12.8287V8.32559C35.2959 7.93602 34.9801 7.62036 34.5906 7.62036H33.5541L36.8338 3.25734L40.1135 7.62036H39.077C38.6876 7.62036 38.3718 7.93602 38.3718 8.32559V11.7816C38.3718 12.1712 38.6876 12.4868 39.077 12.4868C39.4665 12.4868 39.7823 12.1712 39.7823 11.7816V9.03082H41.3197C41.628 9.03082 41.905 8.85949 42.0428 8.58361C42.1804 8.30782 42.1509 7.98341 41.9657 7.73696L37.4796 1.76902C37.3278 1.56723 37.0864 1.44678 36.8338 1.44678C36.5813 1.44678 36.3399 1.56723 36.1878 1.7693L31.7022 7.73677C31.5168 7.98313 31.4872 8.30753 31.6249 8.58351C31.7625 8.8594 32.0396 9.03082 32.3479 9.03082Z" fill="#3CB7C6"/>
<path d="M39.0773 14.082C38.6878 14.082 38.3721 14.3977 38.3721 14.7873V18.7089C38.3721 19.0985 38.6878 19.4141 39.0773 19.4141C39.4668 19.4141 39.7825 19.0985 39.7825 18.7089V14.7873C39.7825 14.3977 39.4668 14.082 39.0773 14.082Z" fill="#3CB7C6"/>
<path d="M2.40867 18.0876H3.251V25.2188C3.251 25.6084 3.56676 25.924 3.95623 25.924C4.3457 25.924 4.66146 25.6084 4.66146 25.2188V17.3824C4.66146 16.9928 4.3457 16.6771 3.95623 16.6771H3.24921L5.89759 13.154L8.54596 16.6771H7.83894C7.44947 16.6771 7.13371 16.9928 7.13371 17.3824V20.13C7.13371 20.5196 7.44947 20.8353 7.83894 20.8353C8.22842 20.8353 8.54417 20.5196 8.54417 20.13V18.0876H9.3865C9.76441 18.0876 10.104 17.8776 10.2728 17.5394C10.4416 17.2013 10.4055 16.8035 10.1784 16.5015L6.68961 11.8604C6.50352 11.6127 6.20742 11.4648 5.89759 11.4648C5.58776 11.4648 5.29175 11.6127 5.10566 11.8602L1.61665 16.5016C1.38957 16.8037 1.35346 17.2014 1.52234 17.5395C1.69122 17.8776 2.03086 18.0876 2.40867 18.0876Z" fill="#3CB7C6"/>
<path d="M8.63103 5.68594H9.63179V9.31966C9.63179 9.70923 9.94755 10.0249 10.337 10.0249C10.7265 10.0249 11.0423 9.70923 11.0423 9.31966V4.98071C11.0423 4.59114 10.7265 4.27548 10.337 4.27548H10.0435L11.8996 1.80614L13.7558 4.27548H13.4622C13.0728 4.27548 12.757 4.59114 12.757 4.98071V7.70289C12.757 8.09246 13.0728 8.40812 13.4622 8.40812C13.8517 8.40812 14.1675 8.09246 14.1675 7.70289V5.68594H15.1681C15.4354 5.68594 15.6797 5.53492 15.7991 5.2958C15.9185 5.05668 15.8924 4.77064 15.7318 4.55701L12.551 0.325346C12.398 0.121676 12.1545 0 11.8998 0C11.8997 0 11.8997 0 11.8996 0C11.645 0 11.4015 0.121488 11.2484 0.325158L8.06731 4.55691C7.90671 4.77055 7.88066 5.05659 8.00008 5.29571C8.11941 5.53483 8.3637 5.68594 8.63103 5.68594Z" fill="#3CB7C6"/>
</g>
<defs>
<clipPath id="clip0">
<rect width="48" height="48" fill="white"/>
</clipPath>
</defs>
</svg>
