<svg width="44" height="44" viewBox="0 0 44 44" fill="none" xmlns="http://www.w3.org/2000/svg">
<g clip-path="url(#clip0)">
<path d="M29.5512 1.57162V18.0242C29.5512 18.7518 29.0712 19.3645 28.4187 19.5428C28.2931 19.5774 28.1613 19.5957 28.0256 19.5957H2.2884C1.44566 19.5957 0.762695 18.8922 0.762695 18.0241V1.57162C0.762695 0.703513 1.44566 0 2.2884 0H28.0256C28.1613 0 28.2931 0.0183096 28.4187 0.0528943C29.0712 0.231243 29.5512 0.843887 29.5512 1.57162Z" fill="#E6E6E6"/>
<path d="M29.5501 1.57162V3.13539H0.761719V1.57162C0.761719 0.703513 1.44468 0 2.28733 0H28.0245C28.8672 0 29.5501 0.703513 29.5501 1.57162Z" fill="#B3B3B3"/>
<path d="M2.85352 2.5475C3.37885 2.5475 3.8047 2.10882 3.8047 1.56769C3.8047 1.02656 3.37885 0.587891 2.85352 0.587891C2.3282 0.587891 1.90234 1.02656 1.90234 1.56769C1.90234 2.10882 2.3282 2.5475 2.85352 2.5475Z" fill="#FC7A51"/>
<path d="M5.39063 2.5475C5.91596 2.5475 6.34182 2.10882 6.34182 1.56769C6.34182 1.02656 5.91596 0.587891 5.39063 0.587891C4.86531 0.587891 4.43945 1.02656 4.43945 1.56769C4.43945 2.10882 4.86531 2.5475 5.39063 2.5475Z" fill="#F9DE58"/>
<path d="M25.7053 5.98877H3.60449V7.05441H25.7053V5.98877Z" fill="#808080"/>
<path d="M25.7053 8.32275H3.60449V9.38839H25.7053V8.32275Z" fill="#808080"/>
<path d="M25.7053 10.6567H3.60449V11.7224H25.7053V10.6567Z" fill="#808080"/>
<path d="M25.7053 12.9902H3.60449V14.0559H25.7053V12.9902Z" fill="#808080"/>
<path d="M25.7053 15.3242H3.60449V16.3899H25.7053V15.3242Z" fill="#808080"/>
<path d="M29.4552 21.5264L25.6059 25.1835C23.8717 26.8314 21.1998 26.8314 19.4656 25.1835L15.6173 21.5264C14.5771 20.5383 14.0336 19.1152 14.1389 17.6621L14.3627 12.9151C14.3862 12.5964 14.4257 12.2825 14.4831 11.9754C14.7502 10.5155 15.3793 9.19412 16.2681 8.10911C16.6631 7.6257 17.1098 7.18976 17.5988 6.81001C18.9757 5.73759 20.6882 5.10596 22.5362 5.10596C24.3842 5.10596 26.0968 5.73856 27.4736 6.81001C27.6946 6.98148 27.9072 7.16457 28.1103 7.35832C28.3558 7.59373 28.5881 7.84367 28.8044 8.10814C29.6931 9.19315 30.3223 10.5145 30.5894 11.9754C30.6467 12.2825 30.6862 12.5964 30.7098 12.9151L30.9326 17.6621C31.0389 19.1151 30.4943 20.5383 29.4552 21.5264Z" fill="#FCD18B"/>
<path d="M25.3424 20.3145C25.3424 20.6152 25.2976 20.9053 25.2148 21.1772C24.8583 22.3521 23.794 23.2044 22.5369 23.2044C21.2791 23.2044 20.2147 22.3522 19.8591 21.1772C19.7762 20.9052 19.7314 20.6152 19.7314 20.3145H25.3424Z" fill="white"/>
<path d="M33.021 12.102H31.7984C31.7984 6.84063 27.643 2.56017 22.5355 2.56017C17.4277 2.56017 13.2724 6.84063 13.2724 12.102H12.0498C12.0498 6.14613 16.7537 1.30078 22.5355 1.30078C28.3172 1.30078 33.021 6.14623 33.021 12.102Z" fill="#F9DE58"/>
<path d="M30.5897 11.9748C30.3226 10.514 29.6934 9.19257 28.8047 8.10756C28.5884 7.84309 28.3561 7.59315 28.1106 7.35774C28.0124 7.26387 27.9114 7.173 27.8088 7.08416C27.7882 7.06634 27.7669 7.04958 27.7461 7.03204C27.662 6.96074 27.577 6.8907 27.4903 6.82289C27.4848 6.81853 27.4795 6.81378 27.4739 6.80952C27.4738 6.80971 27.4736 6.8099 27.4733 6.81C26.0962 5.73884 24.3842 5.10547 22.5365 5.10547C20.6884 5.10547 18.976 5.73797 17.5993 6.80971C17.5993 6.80971 17.5992 6.80961 17.5991 6.80952C17.5971 6.81116 17.5952 6.81291 17.5931 6.81446C17.4795 6.9031 17.3683 6.99465 17.2593 7.0891C17.2488 7.09821 17.2382 7.10731 17.2277 7.11642C17.1235 7.20777 17.0216 7.30194 16.9219 7.39843C16.91 7.41005 16.8978 7.42139 16.8859 7.43301C16.7856 7.53134 16.688 7.63238 16.5928 7.73575C16.584 7.74524 16.5751 7.75445 16.5664 7.76394C16.4641 7.87593 16.3647 7.99082 16.2684 8.10853C15.3797 9.19354 14.7505 10.5149 14.4834 11.9748C15.6839 11.638 16.7526 10.9748 17.5981 10.0854C18.8527 11.4053 20.6017 12.2248 22.5365 12.2248C24.4714 12.2248 26.2197 11.4053 27.4739 10.0859C28.3198 10.9753 29.389 11.6385 30.5897 11.9748Z" fill="#808080"/>
<path d="M18.8692 16.8516C19.3886 16.8516 19.8096 16.4179 19.8096 15.8828C19.8096 15.3478 19.3886 14.9141 18.8692 14.9141C18.3498 14.9141 17.9287 15.3478 17.9287 15.8828C17.9287 16.4179 18.3498 16.8516 18.8692 16.8516Z" fill="#808080"/>
<path d="M26.2051 16.8516C26.7245 16.8516 27.1456 16.4179 27.1456 15.8828C27.1456 15.3478 26.7245 14.9141 26.2051 14.9141C25.6857 14.9141 25.2646 15.3478 25.2646 15.8828C25.2646 16.4179 25.6857 16.8516 26.2051 16.8516Z" fill="#808080"/>
<path d="M17.4667 24.311L22.2631 29.2517L20.006 33.0299L16.2441 25.2798L17.4667 24.311Z" fill="#E6E6E6"/>
<path d="M27.6039 24.311L22.8076 29.2517L25.0647 33.0299L28.8265 25.2798L27.6039 24.311Z" fill="#E6E6E6"/>
<path d="M23.866 32.4486L22.5361 30.1235L21.2061 32.4486L22.5361 33.8186L23.866 32.4486Z" fill="#2BE0C6"/>
<path d="M26.1959 40.2328L22.5388 33.8398L18.8818 40.2328L22.5388 43.9998L26.1959 40.2328Z" fill="#2BE0C6"/>
<path d="M17.9246 21.7924C17.9246 21.9668 17.856 22.1237 17.746 22.238C17.635 22.3514 17.4826 22.4221 17.3133 22.4221H14.4233C13.0672 22.4221 11.9678 21.2896 11.9678 19.8927V18.208H13.1904V19.8927C13.1904 20.5941 13.7424 21.1627 14.4233 21.1627H17.3133C17.651 21.1627 17.9246 21.4445 17.9246 21.7924Z" fill="#FC7A51"/>
<path d="M13.4581 11.0298C11.3368 11.0298 9.61719 12.8012 9.61719 14.9863C9.61719 17.1714 11.3368 18.9428 13.4581 18.9428" fill="#29ABE2"/>
<path d="M31.6152 11.0298C33.7365 11.0298 35.4562 12.8012 35.4562 14.9863C35.4562 17.1714 33.7365 18.9428 31.6152 18.9428" fill="#29ABE2"/>
<path d="M17.9245 21.7923C17.9245 21.9667 17.8559 22.1236 17.7458 22.2379C17.6349 22.3513 17.4825 22.422 17.3132 22.422H15.5264V21.1626H17.3132C17.6509 21.1626 17.9245 21.4444 17.9245 21.7923Z" fill="#808080"/>
<path d="M41.8964 41.1582H30.5896C29.9722 41.1582 29.4717 40.6426 29.4717 40.0066V24.9689C29.4717 24.333 29.9722 23.8174 30.5896 23.8174H41.8965C42.5139 23.8174 43.0144 24.333 43.0144 24.9689V40.0067C43.0143 40.6426 42.5138 41.1582 41.8964 41.1582Z" fill="#808080"/>
<path d="M41.604 25.2705H30.8828V39.705H41.604V25.2705Z" fill="#E6E6E6"/>
<path d="M37.5063 23.0425H34.9807C34.5874 23.0425 34.2686 23.3709 34.2686 23.776V26.2394H38.2185V23.776C38.2184 23.3709 37.8995 23.0425 37.5063 23.0425Z" fill="#29ABE2"/>
<path d="M40.2872 27.6924H32.1992V28.758H40.2872V27.6924Z" fill="#29ABE2"/>
<path d="M40.2872 30.0264H32.1992V31.092H40.2872V30.0264Z" fill="#29ABE2"/>
<path d="M40.2872 32.3599H32.1992V33.4255H40.2872V32.3599Z" fill="#29ABE2"/>
<path d="M40.2872 34.6938H32.1992V35.7595H40.2872V34.6938Z" fill="#29ABE2"/>
<path d="M36.2432 37.0278H32.1992V38.0935H36.2432V37.0278Z" fill="#29ABE2"/>
<path d="M6.01114 23.189C3.15507 23.189 0.839844 25.574 0.839844 28.5159C0.839844 30.1683 1.57039 31.645 2.71681 32.622L1.6698 35.6419L4.36628 33.5675L4.36506 33.5655C4.88231 33.7444 5.43549 33.8428 6.01124 33.8428C8.86722 33.8428 11.1825 31.4578 11.1825 28.5159C11.1825 25.574 8.86722 23.189 6.01114 23.189Z" fill="#FC7A51"/>
<path d="M5.22901 29.3819C5.22901 29.0658 5.27913 28.7819 5.37939 28.5302C5.47955 28.2785 5.68626 28.0593 5.99953 27.872C6.09348 27.814 6.20934 27.7478 6.34721 27.6736C6.4849 27.5995 6.61966 27.5108 6.75123 27.4075C6.8828 27.3043 6.99387 27.1833 7.08481 27.0445C7.17557 26.9059 7.22109 26.7461 7.22109 26.5655C7.22109 26.4299 7.19598 26.3107 7.14594 26.2073C7.09572 26.1041 7.02999 26.0171 6.94864 25.946C6.8671 25.8751 6.77155 25.8218 6.66208 25.7863C6.55242 25.7509 6.44126 25.7331 6.32859 25.7331C6.19072 25.7331 6.06545 25.7573 5.95269 25.8057C5.83993 25.854 5.73808 25.9154 5.64732 25.9895C5.55638 26.0638 5.47494 26.1477 5.40299 26.2412C5.33095 26.3348 5.26982 26.4236 5.21979 26.5074L4.40234 25.9267C4.48369 25.7267 4.59175 25.5492 4.72652 25.3943C4.8611 25.2394 5.01458 25.1088 5.18687 25.0024C5.35907 24.8959 5.54538 24.8153 5.74598 24.7605C5.94639 24.7057 6.1531 24.6782 6.36612 24.6782C6.60415 24.6782 6.83907 24.7138 7.0709 24.7847C7.30253 24.8558 7.51084 24.9686 7.69574 25.1235C7.88044 25.2784 8.03073 25.4768 8.14669 25.7187C8.26255 25.9607 8.32048 26.2495 8.32048 26.5849C8.32048 26.7915 8.29707 26.9737 8.25004 27.1318C8.20311 27.29 8.13559 27.4335 8.04803 27.5625C7.96029 27.6917 7.85684 27.8078 7.73796 27.911C7.6189 28.0143 7.48423 28.1142 7.33394 28.211C7.20858 28.2884 7.08331 28.3627 6.95804 28.4336C6.83268 28.5047 6.71841 28.5837 6.61506 28.6708C6.5117 28.7579 6.42715 28.8579 6.36132 28.9708C6.29558 29.0838 6.26267 29.2209 6.26267 29.3821H5.22901V29.3819ZM5.24782 31.637V30.3014H6.29079V31.637H5.24782Z" fill="white"/>
<path d="M18.0556 31.1093L19.1026 28.0894L16.4061 30.1638L16.4073 30.1657C15.8901 29.9869 15.3369 29.8884 14.7611 29.8884C11.9051 29.8884 9.58984 32.2734 9.58984 35.2154C9.58984 38.1573 11.9051 40.5423 14.7611 40.5423C17.6171 40.5423 19.9324 38.1573 19.9324 35.2154C19.9325 33.5629 19.202 32.0864 18.0556 31.1093Z" fill="#29ABE2"/>
<path d="M14.2119 36.0049V32.2031H15.311V36.0049H14.2119ZM14.2119 38.2607V36.985H15.311V38.2607H14.2119Z" fill="white"/>
</g>
<defs>
<clipPath id="clip0">
<rect width="42.7146" height="44" fill="white" transform="translate(0.53125)"/>
</clipPath>
</defs>
</svg>
