<svg width="44" height="44" viewBox="0 0 44 44" fill="none" xmlns="http://www.w3.org/2000/svg">
<g clip-path="url(#clip0)">
<path d="M35.5441 21.0344H24.7166C23.0502 21.0344 21.6992 19.6835 21.6992 18.0171V8.43107C21.6992 3.77472 25.4739 0 30.1303 0C34.7867 0 38.5614 3.77472 38.5614 8.43107V18.0171C38.5614 19.6835 37.2105 21.0344 35.5441 21.0344Z" fill="#355F7F"/>
<path d="M30.1315 0C29.6865 0 29.2496 0.0347188 28.8232 0.101148C32.8583 0.729781 35.9461 4.2197 35.9461 8.43107V18.0171C35.9461 19.6835 34.5951 21.0344 32.9287 21.0344H35.5452C37.2116 21.0344 38.5625 19.6835 38.5625 18.0171V8.43107C38.5625 3.77472 34.7878 0 30.1315 0V0Z" fill="#305972"/>
<path d="M42.3679 34.0254V25.381C42.3679 23.4443 41.0204 21.7685 39.1288 21.3528L34.0646 20.2397C33.4341 20.1011 32.9849 19.5425 32.9849 18.897V14.7095H27.2795V18.897C27.2795 19.5425 26.8303 20.1011 26.1998 20.2397L21.1356 21.3528C19.244 21.7686 17.8965 23.4443 17.8965 25.381V34.0254H42.3679Z" fill="#ACA6D6"/>
<path d="M39.1286 21.3526L34.0643 20.2396C33.4338 20.1011 32.9846 19.5425 32.9846 18.897V14.7095L30.3682 16.0177V20.2052C30.3682 20.8507 30.8174 21.4093 31.4479 21.5479L36.5122 22.6608C38.4038 23.0765 39.7513 24.7524 39.7513 26.6891V34.0252H42.3677V25.3808C42.3677 23.4442 41.0202 21.7683 39.1286 21.3526Z" fill="#978ECB"/>
<path d="M37.2148 30.9609H42.3703V34.4246H37.2148V30.9609Z" fill="#FFCEBF"/>
<path d="M39.751 30.9609H42.3674V34.0257H39.751V30.9609Z" fill="#FFB09E"/>
<path d="M17.8965 30.9609H23.0519V34.4246H17.8965V30.9609Z" fill="#FFCEBF"/>
<path d="M30.1318 23.027C32.2225 23.027 34.0823 22.0391 35.2704 20.5048L32.7751 20.2397C32.1446 20.1011 31.6954 19.5425 31.6954 18.8969L32.9845 14.7095H27.2791V18.8969C27.2791 19.5425 26.8299 20.1011 26.1994 20.2397L24.9932 20.5048C26.1814 22.0391 28.0411 23.027 30.1318 23.027Z" fill="#FFCEBF"/>
<path d="M32.9836 18.8979V14.7104L30.3672 16.0187V20.2062C30.3672 20.8517 30.8164 21.4103 31.4469 21.5488L33.6023 22.0225C34.2424 21.6169 34.8071 21.1029 35.2696 20.5056L34.0634 20.2405C33.8269 20.1884 33.6191 20.0803 33.4447 19.9251C33.1591 19.6709 32.9836 19.3014 32.9836 18.8979Z" fill="#FFB09E"/>
<path d="M37.2117 34.6795C36.8504 34.6795 36.5576 34.3866 36.5576 34.0253V29.6795C36.5576 29.3183 36.8504 29.0254 37.2117 29.0254C37.573 29.0254 37.8658 29.3183 37.8658 29.6795V34.0253C37.8658 34.3866 37.573 34.6795 37.2117 34.6795Z" fill="#978ECB"/>
<path d="M23.0526 34.6795C22.6913 34.6795 22.3984 34.3866 22.3984 34.0253V29.6795C22.3984 29.3183 22.6912 29.0254 23.0526 29.0254C23.414 29.0254 23.7067 29.3183 23.7067 29.6795V34.0253C23.7067 34.3866 23.4139 34.6795 23.0526 34.6795Z" fill="#978ECB"/>
<path d="M35.9466 8.79622C35.9466 8.56024 35.7496 8.37212 35.5139 8.38441C34.9886 8.41191 34.1522 8.3582 33.2899 7.88563C32.6255 7.52151 32.1892 7.04232 31.9227 6.67245C31.7805 6.47514 31.499 6.44678 31.3164 6.60739C30.7895 7.07077 30.0226 7.62197 28.9999 8.02081C27.2788 8.69189 25.7121 8.58877 24.7964 8.4346C24.5455 8.39232 24.3174 8.58714 24.3174 8.8416V12.8759C24.3174 16.0872 26.9207 18.6905 30.132 18.6905C33.3433 18.6905 35.9466 16.0872 35.9466 12.8759V8.79622Z" fill="#FFCEBF"/>
<path d="M33.3311 12.876C33.35 13.2316 33.4111 15.0544 32.0459 16.5213C30.1838 18.5219 27.4239 17.9745 27.2803 17.9435C27.8104 18.235 28.5513 18.5455 29.4678 18.6521C29.7021 18.6793 29.9245 18.6906 30.133 18.6906C33.3443 18.6906 35.9476 16.0873 35.9476 12.876V8.79636C35.9476 8.56046 35.7505 8.37226 35.5149 8.38463C34.9969 8.4117 34.1764 8.35997 33.3267 7.90527L33.3311 12.876Z" fill="#FFB09E"/>
<path d="M27.327 12.6349C26.9657 12.6349 26.6729 12.342 26.6729 11.9808V10.8587C26.6729 10.4974 26.9656 10.2046 27.327 10.2046C27.6884 10.2046 27.9811 10.4975 27.9811 10.8587V11.9808C27.9812 12.342 27.6884 12.6349 27.327 12.6349Z" fill="#554E56"/>
<path d="M32.9374 12.6349C32.5761 12.6349 32.2832 12.342 32.2832 11.9808V10.8587C32.2832 10.4974 32.576 10.2046 32.9374 10.2046C33.2987 10.2046 33.5914 10.4975 33.5914 10.8587V11.9808C33.5914 12.342 33.2986 12.6349 32.9374 12.6349Z" fill="#554E56"/>
<path d="M30.1329 16.2105C30.1225 16.2105 30.1121 16.2105 30.1017 16.2103C29.612 16.2052 29.1259 16.0778 28.6961 15.8419C28.3793 15.6681 28.2635 15.2705 28.4372 14.9538C28.6109 14.6371 29.0085 14.5213 29.3253 14.695C29.4939 14.7875 29.7679 14.8985 30.1152 14.9022C30.4819 14.9042 30.7642 14.7916 30.9405 14.695C31.2572 14.5212 31.6547 14.6373 31.8286 14.954C32.0023 15.2707 31.8863 15.6684 31.5696 15.842C31.2615 16.0109 30.764 16.2105 30.1329 16.2105Z" fill="#FFB09E"/>
<path d="M2.94531 43.1277V38.1128H41.0583V43.1277C41.0583 43.6093 40.6678 43.9998 40.1862 43.9998H3.81741C3.33573 43.9998 2.94531 43.6093 2.94531 43.1277Z" fill="#EAF6FF"/>
<path d="M38.4396 38.1128V43.1277C38.4396 43.6094 38.0491 43.9999 37.5674 43.9999H40.1839C40.6656 43.9999 41.0561 43.6094 41.0561 43.1277V38.1128H38.4396Z" fill="#D8ECFE"/>
<path d="M14.4791 33.271H4.93066V31.2513C4.93066 30.4411 5.58748 29.7842 6.39779 29.7842H13.0121C13.8223 29.7842 14.4792 30.441 14.4792 31.2513V33.271H14.4791Z" fill="#355F7F"/>
<path d="M13.0149 29.7842H10.3984C11.2087 29.7842 11.8656 30.441 11.8656 31.2513V33.271H14.482V31.2513C14.4819 30.441 13.8251 29.7842 13.0149 29.7842Z" fill="#305972"/>
<path d="M18.1045 26.2124H1.30618C0.765977 26.2124 0.328125 25.7744 0.328125 25.2343V14.4141C0.328125 13.8739 0.766063 13.436 1.30618 13.436H18.1045C18.6447 13.436 19.0825 13.874 19.0825 14.4141V25.2343C19.0825 25.7744 18.6447 26.2124 18.1045 26.2124Z" fill="#355F7F"/>
<path d="M18.1038 13.4351H15.4873C16.0275 13.4351 16.4654 13.873 16.4654 14.4131V25.2333C16.4654 25.7735 16.0274 26.2114 15.4873 26.2114H18.1038C18.644 26.2114 19.0818 25.7735 19.0818 25.2333V14.4132C19.0818 13.873 18.644 13.4351 18.1038 13.4351Z" fill="#305972"/>
<path d="M11.4606 29.7844H7.94727V21.0563C7.94727 20.5746 8.33777 20.1841 8.81944 20.1841H10.5885C11.0701 20.1841 11.4606 20.5746 11.4606 21.0563V29.7844Z" fill="#EAF6FF"/>
<path d="M42.801 38.1134H1.19933C0.717648 38.1134 0.327148 37.7229 0.327148 37.2412V34.1437C0.327148 33.662 0.717648 33.2715 1.19933 33.2715H42.8009C43.2826 33.2715 43.6731 33.662 43.6731 34.1437V37.2412C43.6731 37.7229 43.2827 38.1134 42.801 38.1134Z" fill="#C59191"/>
<path d="M42.8 33.2715H40.1836C40.6653 33.2715 41.0558 33.662 41.0558 34.1437V37.2412C41.0558 37.7229 40.6653 38.1134 40.1836 38.1134H42.8C43.2817 38.1134 43.6722 37.7229 43.6722 37.2412V34.1437C43.6721 33.662 43.2817 33.2715 42.8 33.2715Z" fill="#B98080"/>
</g>
<defs>
<clipPath id="clip0">
<rect width="44" height="44" fill="white"/>
</clipPath>
</defs>
</svg>
