<svg width="44" height="44" viewBox="0 0 44 44" fill="none" xmlns="http://www.w3.org/2000/svg">
<path d="M38.002 27.2636H3.96648C2.70355 27.2636 1.67969 26.2397 1.67969 24.9768V2.2868C1.6796 1.02386 2.70346 0 3.96648 0H38.002C39.265 0 40.2888 1.02386 40.2888 2.2868V24.9767C40.2888 26.2397 39.265 27.2636 38.002 27.2636Z" fill="#365E7D"/>
<path d="M38.0021 0H36.4492C37.7122 0 38.736 1.02386 38.736 2.2868V24.9767C38.736 26.2396 37.7122 27.2635 36.4492 27.2635H38.0021C39.2651 27.2635 40.2889 26.2396 40.2889 24.9767V2.2868C40.2889 1.02386 39.265 0 38.0021 0V0Z" fill="#2B4D66"/>
<path d="M37.1198 3.04443H5.81771C5.74913 3.04443 5.69336 3.10347 5.69336 3.17592V24.0879C5.69336 24.1603 5.74922 24.2194 5.81771 24.2194H37.1198C37.1885 24.2194 37.2443 24.1603 37.2443 24.0879V3.17592C37.2443 3.10347 37.1885 3.04443 37.1198 3.04443Z" fill="#CBE2FF"/>
<path d="M37.1184 3.04443H35.1016C35.1702 3.04443 35.226 3.10347 35.226 3.17592V24.0879C35.226 24.1604 35.1701 24.2194 35.1016 24.2194H37.1184C37.1871 24.2194 37.2429 24.1603 37.2429 24.0879V3.17592C37.2429 3.10347 37.1871 3.04443 37.1184 3.04443Z" fill="#9DC6FB"/>
<path d="M3.70692 14.8377C3.34014 14.8377 3.04297 14.5405 3.04297 14.1738V13.0892C3.04297 12.7226 3.34023 12.4253 3.70692 12.4253C4.07362 12.4253 4.37087 12.7226 4.37087 13.0892V14.1738C4.37087 14.5404 4.0737 14.8377 3.70692 14.8377Z" fill="#2B4D66"/>
<path d="M33.9013 19.6236H27.6046C27.0933 19.6236 26.6787 19.2091 26.6787 18.6977V16.1617C26.6787 15.6504 27.0933 15.2358 27.6046 15.2358H33.9013C34.4127 15.2358 34.8272 15.6504 34.8272 16.1617V18.6977C34.8272 19.2091 34.4127 19.6236 33.9013 19.6236Z" fill="#B3E59F"/>
<path d="M33.9022 15.2358H32.0186C32.5299 15.2358 32.9444 15.6504 32.9444 16.1617V18.6977C32.9444 19.2091 32.5299 19.6236 32.0186 19.6236H33.9022C34.4135 19.6236 34.8281 19.2091 34.8281 18.6977V16.1617C34.8281 15.6504 34.4135 15.2358 33.9022 15.2358Z" fill="#95D6A4"/>
<path d="M39.5416 44C39.7673 44 39.9504 43.817 39.9504 43.5912V39.5772C39.9504 38.9917 40.1119 38.4199 40.4138 37.9379L41.7379 35.8228C42.352 34.8419 42.4898 33.5912 42.1066 32.4769L41.4793 30.6532L40.267 28.0854H31.307L29.5346 30.2964C29.3673 30.505 29.0778 30.5701 28.8374 30.453L26.1673 29.1531C25.6081 28.8809 24.9543 29.0188 24.526 29.4995C23.9581 30.1368 23.9664 31.1606 24.5446 31.7866L28.5392 36.1113C28.9929 36.6025 29.2484 37.274 29.2484 37.9748V43.5912C29.2484 43.817 29.4315 44 29.6572 44H39.5416Z" fill="#F1D0A5"/>
<path d="M42.1083 32.4766L41.481 30.653L40.2687 28.0852L38.859 28.0356L39.9522 30.653L40.4422 32.4766C40.8255 33.591 40.6877 34.8416 40.0736 35.8226L38.7495 37.9377C38.4478 38.4197 38.2861 38.9914 38.2861 39.5769V43.9997H39.5435C39.7692 43.9997 39.9523 43.8167 39.9523 43.5909V39.5769C39.9523 38.9914 40.1139 38.4196 40.4157 37.9377L41.7398 35.8226C42.3537 34.8416 42.4916 33.591 42.1083 32.4766Z" fill="#F1B986"/>
<path d="M32.3086 30.6534V19.2454C32.3086 18.3151 31.6241 17.561 30.7798 17.561C29.9355 17.561 29.251 18.3151 29.251 19.2454V30.6534H32.3086Z" fill="#F1D0A5"/>
<path d="M35.3682 30.6532V25.7217C35.3682 25.1572 34.8552 24.6997 34.2224 24.6997H33.4564C32.8235 24.6997 32.3105 25.1572 32.3105 25.7217V30.6532H35.3682Z" fill="#F1D0A5"/>
<path d="M38.4248 30.6532V25.7217C38.4248 25.1572 37.9119 24.6997 37.279 24.6997H36.513C35.8801 24.6997 35.3672 25.1572 35.3672 25.7217V30.6532H38.4248Z" fill="#F1D0A5"/>
<path d="M41.4805 30.6532V25.7217C41.4805 25.1572 40.9675 24.6997 40.3347 24.6997H39.5687C38.9358 24.6997 38.4229 25.1572 38.4229 25.7217V30.6532H41.4805Z" fill="#F1D0A5"/>
<path d="M40.3349 24.6997H39.5689C39.435 24.6997 39.307 24.7213 39.1875 24.7589C39.6325 24.8992 39.9519 25.2767 39.9519 25.7217V30.6532H41.4807V25.7217C41.4807 25.1573 40.9677 24.6997 40.3349 24.6997Z" fill="#F1B986"/>
<path d="M32.3075 31.317C31.9407 31.317 31.6436 31.0198 31.6436 30.6531V25.7216C31.6436 25.3548 31.9408 25.0576 32.3075 25.0576C32.6742 25.0576 32.9715 25.3549 32.9715 25.7216V30.6531C32.9715 31.0198 32.6742 31.317 32.3075 31.317Z" fill="#F1B986"/>
<path d="M35.3671 31.317C35.0003 31.317 34.7031 31.0198 34.7031 30.6531V25.7216C34.7031 25.3548 35.0004 25.0576 35.3671 25.0576C35.7338 25.0576 36.031 25.3549 36.031 25.7216V30.6531C36.0311 31.0198 35.7339 31.317 35.3671 31.317Z" fill="#F1B986"/>
<path d="M38.4237 31.317C38.0569 31.317 37.7598 31.0198 37.7598 30.6531V25.7216C37.7598 25.3548 38.057 25.0576 38.4237 25.0576C38.7904 25.0576 39.0877 25.3549 39.0877 25.7216V30.6531C39.0877 31.0198 38.7904 31.317 38.4237 31.317Z" fill="#F1B986"/>
<path d="M20.4717 17.2045H9.16797V14.673C9.16797 13.8923 9.8009 13.2593 10.5817 13.2593H19.058C19.8387 13.2593 20.4718 13.8922 20.4718 14.673V17.2045H20.4717Z" fill="#F9F6F9"/>
<path d="M19.0556 13.2593H16.8203C17.6011 13.2593 18.2341 13.8922 18.2341 14.673V17.2045H20.4694V14.673C20.4694 13.8922 19.8365 13.2593 19.0556 13.2593Z" fill="#DDDAEC"/>
<path d="M18.6597 13.259H10.9766V9.12527C10.9766 8.65889 11.3547 8.28076 11.8211 8.28076H17.8151C18.2815 8.28076 18.6596 8.65889 18.6596 9.12527V13.259H18.6597Z" fill="#EAB14D"/>
<path d="M17.8147 8.28076H15.6318C16.0983 8.28076 16.4763 8.65889 16.4763 9.12527V13.259H18.6592V9.12527C18.6593 8.65889 18.2812 8.28076 17.8147 8.28076Z" fill="#E7A52E"/>
<path d="M21.5291 17.8684H8.10829C7.74151 17.8684 7.44434 17.5712 7.44434 17.2045C7.44434 16.8378 7.74159 16.5405 8.10829 16.5405H21.5291C21.8959 16.5405 22.1931 16.8378 22.1931 17.2045C22.1932 17.5712 21.8959 17.8684 21.5291 17.8684Z" fill="#EAB14D"/>
<path d="M16.7099 21.0359H12.9296C12.5628 21.0359 12.2656 20.7387 12.2656 20.372C12.2656 20.0053 12.5629 19.708 12.9296 19.708H16.7099C17.0767 19.708 17.3738 20.0053 17.3738 20.372C17.3738 20.7387 17.0766 21.0359 16.7099 21.0359Z" fill="#2B4D66"/>
<path d="M34.6678 6.99978H26.8368C26.47 6.99978 26.1729 6.70252 26.1729 6.33583C26.1729 5.96913 26.47 5.67188 26.8368 5.67188H34.6678C35.0346 5.67188 35.3317 5.96913 35.3317 6.33583C35.3317 6.70252 35.0345 6.99978 34.6678 6.99978Z" fill="#2B4D66"/>
<path d="M34.6678 9.77664H26.8368C26.47 9.77664 26.1729 9.47938 26.1729 9.11268C26.1729 8.74599 26.4701 8.44873 26.8368 8.44873H34.6678C35.0346 8.44873 35.3317 8.74599 35.3317 9.11268C35.3317 9.47938 35.0345 9.77664 34.6678 9.77664Z" fill="#2B4D66"/>
<path d="M34.6678 12.553H26.8368C26.47 12.553 26.1729 12.2557 26.1729 11.8891C26.1729 11.5224 26.4701 11.2251 26.8368 11.2251H34.6678C35.0346 11.2251 35.3317 11.5224 35.3317 11.8891C35.3317 12.2557 35.0345 12.553 34.6678 12.553Z" fill="#2B4D66"/>
</svg>
