<svg width="44" height="44" viewBox="0 0 44 44" fill="none" xmlns="http://www.w3.org/2000/svg">
<g clip-path="url(#clip0)">
<path d="M18.064 25.6123L15.9359 23.4448L1.44891 37.0659C0.491591 37.966 0.461553 39.4965 1.38284 40.4348C2.30413 41.3732 3.80677 41.3426 4.69051 40.3675L18.064 25.6123Z" fill="#873F30"/>
<path d="M4.62619 40.4356C3.73545 41.3428 2.28175 41.3506 1.38273 40.4349C1.11678 40.164 0.930483 39.8441 0.823242 39.5039C1.6178 39.7671 2.52433 39.5746 3.15115 38.9361C3.17317 38.9137 3.19511 38.8899 3.21645 38.8669L16.5902 24.1113L18.0638 25.6122L4.69015 40.3677C4.6688 40.3907 4.64754 40.4138 4.62619 40.4356Z" fill="#6C3328"/>
<path d="M20.1583 18.3091L15.2578 24.2628L17.2597 26.3017L23.1052 21.3105L20.1583 18.3091Z" fill="#873F30"/>
<path d="M20.1608 18.3091L18.5773 20.233L19.0524 20.7169C19.4021 21.0731 19.4021 21.6506 19.0524 22.0067L16.0488 25.0659L17.2621 26.3017L23.1077 21.3105L20.1608 18.3091Z" fill="#6C3328"/>
<path d="M16.0706 27.4546L14.1274 25.4754C13.5656 24.9032 13.5656 23.9754 14.1274 23.4033C14.6891 22.8311 15.6001 22.8311 16.1618 23.4033L18.1051 25.3825C18.6668 25.9546 18.6668 26.8823 18.1051 27.4546C17.5433 28.0268 16.6324 28.0268 16.0706 27.4546Z" fill="#BA5D4F"/>
<path d="M18.106 27.4547C17.8249 27.741 17.4565 27.8837 17.0895 27.8838C16.7211 27.8838 16.3527 27.741 16.0716 27.4547L14.5986 25.9544C14.8798 26.2408 15.2482 26.3836 15.6159 26.3828C15.9836 26.3835 16.3519 26.2407 16.6331 25.9544C17.1953 25.3818 17.1946 24.4542 16.6331 23.8823L18.106 25.3825C18.6682 25.9552 18.6683 26.8821 18.106 27.4547Z" fill="#A34F41"/>
<path d="M22.7002 4.70166L27.015 9.09633L20.2409 15.9958L15.9262 11.6011L22.7002 4.70166Z" fill="#BA5D4F"/>
<path d="M29.6934 25.6279L25.3786 21.2333L32.1526 14.3338L36.4674 18.7285L29.6934 25.6279Z" fill="#A34F41"/>
<path d="M14.7109 13.1154L14.561 12.9628C13.9927 12.3839 13.9927 11.4454 14.561 10.8665L21.9757 3.31453C22.544 2.73565 23.4655 2.73565 24.0339 3.31453L24.1838 3.46715C24.7521 4.04603 24.7521 4.98455 24.1838 5.56351L16.7691 13.1154C16.2008 13.6943 15.2793 13.6943 14.7109 13.1154Z" fill="#873F30"/>
<path d="M28.2076 26.8603L28.3574 27.0129C28.9258 27.5918 29.8472 27.5918 30.4157 27.0129L37.8303 19.461C38.3987 18.8821 38.3987 17.9436 37.8303 17.3646L37.6805 17.212C37.1121 16.6331 36.1906 16.6331 35.6222 17.212L28.2076 24.7639C27.6391 25.3429 27.6391 26.2814 28.2076 26.8603Z" fill="#6C3328"/>
<path d="M28.8838 7.48193L33.7292 12.4171L23.4984 22.8374L18.653 17.9022L28.8838 7.48193Z" fill="#FCC16D"/>
<path d="M21.0449 20.3452L31.2757 9.92495L33.7282 12.4228L23.4974 22.8431L21.0449 20.3452Z" fill="#FCA62F"/>
<path d="M28.9086 7.2743L27.7214 6.77999C27.3145 6.61052 26.8474 6.70626 26.5365 7.02294L18.2006 15.5132C17.8897 15.8299 17.7957 16.3056 17.9621 16.72L18.4474 17.9292C18.6442 18.4194 19.2678 18.5473 19.6355 18.1728L29.1477 8.48439C29.5155 8.10987 29.3899 7.47471 28.9086 7.2743Z" fill="#873F30"/>
<path d="M33.94 12.3989L34.4254 13.608C34.5918 14.0225 34.4978 14.4983 34.1868 14.8149L25.8509 23.3051C25.54 23.6218 25.073 23.7176 24.666 23.5481L23.4789 23.0538C22.9975 22.8534 22.872 22.2182 23.2397 21.8437L32.752 12.1553C33.1197 11.7807 33.7433 11.9086 33.94 12.3989Z" fill="#6C3328"/>
<path d="M38.338 36.1606H20.6631V33.6343C20.6631 33.1128 21.0782 32.6899 21.5903 32.6899H37.4109C37.9229 32.6899 38.338 33.1128 38.338 33.6343V36.1606Z" fill="#BA5D4F"/>
<path d="M38.3385 33.6343V36.1604H36.3989V33.6343C36.3989 33.113 35.9835 32.6899 35.4717 32.6899H37.4114C37.9231 32.6899 38.3385 33.113 38.3385 33.6343Z" fill="#A34F41"/>
<path d="M42.232 41.1195H16.7662C16.0906 41.1195 15.6419 40.4074 15.9232 39.7819L16.8234 37.7798C17.6032 36.0456 19.3042 34.9336 21.1769 34.9336H37.8212C39.694 34.9336 41.3949 36.0456 42.1747 37.7798L43.075 39.7819C43.3562 40.4074 42.9074 41.1195 42.232 41.1195Z" fill="#873F30"/>
<path d="M42.2327 41.1195H39.7534C40.4284 41.1195 40.8771 40.4074 40.5962 39.7823L39.6959 37.7794C38.9161 36.0455 37.2148 34.9331 35.3428 34.9331H37.8211C39.694 34.9331 41.3954 36.0456 42.1752 37.7794L43.0755 39.7823C43.3565 40.4075 42.9077 41.1195 42.2327 41.1195Z" fill="#6C3328"/>
<path d="M40.8844 31.1266C40.7193 31.1266 40.5545 31.0622 40.4289 30.9337C40.1789 30.6774 40.1801 30.2633 40.4316 30.0086L41.1266 29.3049C41.3782 29.0503 41.7848 29.0516 42.0349 29.3076C42.2849 29.5639 42.2837 29.978 42.0322 30.2328L41.3372 30.9364C41.2119 31.0633 41.0481 31.1266 40.8844 31.1266Z" fill="#FCC16D"/>
<path d="M38.8558 29.6633C38.804 29.6633 38.7515 29.6569 38.699 29.6435C38.355 29.5555 38.1461 29.2003 38.2323 28.8499L38.4734 27.8711C38.5597 27.5206 38.9088 27.3079 39.2525 27.3958C39.5965 27.4837 39.8054 27.8389 39.7192 28.1893L39.4781 29.1681C39.405 29.4651 39.1433 29.6633 38.8558 29.6633Z" fill="#FCC16D"/>
<path d="M42.3059 33.1988C42.0168 33.1988 41.7543 32.9987 41.6826 32.7C41.5983 32.349 41.8093 31.9949 42.1538 31.9092L43.1166 31.6693C43.4613 31.5834 43.8087 31.7983 43.893 32.1493C43.9773 32.5002 43.7663 32.8543 43.4217 32.9401L42.459 33.1799C42.4077 33.1926 42.3564 33.1988 42.3059 33.1988Z" fill="#FCC16D"/>
</g>
<defs>
<clipPath id="clip0">
<rect width="43.2" height="44" fill="white" transform="translate(0.710938)"/>
</clipPath>
</defs>
</svg>
