<svg width="44" height="44" viewBox="0 0 44 44" fill="none" xmlns="http://www.w3.org/2000/svg">
<path d="M19.2895 4.27832L32.458 15.5877V32.2919C32.458 33.3187 31.6256 34.1509 30.599 34.1509H7.98009C6.95331 34.1509 6.12109 33.3185 6.12109 32.2919V15.5877L19.2895 4.27832Z" fill="#E0EBFC"/>
<path d="M4.86927 35.6789H33.7147C34.0212 35.6789 34.2695 35.4305 34.2695 35.1241V34.7052C34.2695 34.3987 34.0212 34.1504 33.7147 34.1504H4.86927C4.56281 34.1504 4.31445 34.3987 4.31445 34.7052V35.1241C4.31445 35.4305 4.56281 35.6789 4.86927 35.6789Z" fill="#A4C9FF"/>
<path d="M33.7145 36.0226H4.86927C4.37375 36.0226 3.9707 35.6196 3.9707 35.1241V34.7052C3.9707 34.2099 4.37375 33.8066 4.86927 33.8066H33.7145C34.21 33.8066 34.6133 34.2097 34.6133 34.7052V35.1241C34.6133 35.6196 34.21 36.0226 33.7145 36.0226ZM4.86927 34.4943C4.75291 34.4943 4.6582 34.589 4.6582 34.7054V35.1242C4.6582 35.2406 4.75291 35.3353 4.86927 35.3353H33.7145C33.8311 35.3353 33.9258 35.2406 33.9258 35.1242V34.7054C33.9258 34.589 33.8311 34.4943 33.7145 34.4943H4.86927Z" fill="#3762CC"/>
<path d="M30.6 34.4946H7.98107C6.76643 34.4946 5.77832 33.5063 5.77832 32.2919V15.5877C5.77832 15.4875 5.82215 15.3923 5.89812 15.327L19.0667 4.01759C19.1952 3.9069 19.3858 3.9069 19.5144 4.01759L32.6828 15.327C32.7587 15.3923 32.8026 15.4875 32.8026 15.5877V32.2919C32.8027 33.5065 31.8146 34.4946 30.6 34.4946ZM6.46582 15.7455V32.2919C6.46582 33.1274 7.14559 33.8071 7.98107 33.8071H30.6C31.4355 33.8071 32.1152 33.1274 32.1152 32.2919V15.7456L19.2906 4.73138L6.46582 15.7455Z" fill="#3762CC"/>
<path d="M4.00491 18.328C4.46777 18.5829 5.00849 18.5114 5.37596 18.2042L18.7112 7.05331C19.0448 6.77436 19.5379 6.77436 19.8716 7.05331L33.2068 18.2042C33.422 18.3842 33.6967 18.4832 33.9803 18.4832C34.2974 18.4832 34.5956 18.3629 34.8199 18.1447L36.2134 16.7876C36.4465 16.5609 36.5728 16.2469 36.5604 15.9264C36.5479 15.6058 36.3975 15.3023 36.1476 15.0933L20.0651 1.64509C19.8499 1.46514 19.5751 1.36597 19.2915 1.36597C19.0079 1.36597 18.7331 1.46514 18.5179 1.64509L2.43518 15.0931C2.18527 15.3023 2.03488 15.606 2.02234 15.9264C2.00979 16.2469 2.13646 16.5607 2.36935 16.7874L3.76205 18.1435C3.83476 18.2145 3.91537 18.2786 4.00491 18.328Z" fill="#F9A7A7"/>
<path d="M4.6049 18.8281C4.34417 18.8281 4.08085 18.7624 3.83817 18.6288C3.72902 18.5689 3.62246 18.4883 3.52123 18.3896L2.12852 17.0337C1.82585 16.7391 1.66154 16.3305 1.67787 15.9129C1.6942 15.4954 1.88945 15.1004 2.2136 14.8294L18.2961 1.38119C18.5734 1.1495 18.9266 1.02197 19.2904 1.02197C19.6544 1.02197 20.0075 1.1495 20.2845 1.38119L36.3671 14.8294C36.6912 15.1003 36.8865 15.4952 36.9028 15.9125C36.9191 16.3307 36.7548 16.7393 36.452 17.0337L35.0587 18.3906C34.7695 18.6718 34.3862 18.8267 33.9794 18.8267C33.6153 18.8267 33.2623 18.6991 32.9854 18.4676L19.6502 7.31672C19.4453 7.14536 19.1362 7.14519 18.9309 7.31672L5.59559 18.4676C5.31028 18.7062 4.95999 18.8281 4.6049 18.8281ZM4.16988 18.0268C4.49249 18.2045 4.87904 18.1706 5.15456 17.9403L18.49 6.78941C18.9542 6.40132 19.6278 6.40149 20.0914 6.78941L33.4268 17.9403C33.5803 18.0687 33.7766 18.1393 33.9797 18.1393C34.2066 18.1393 34.4197 18.0536 34.5796 17.8982L35.9728 16.5413C36.1362 16.3823 36.2249 16.163 36.2163 15.9395C36.2074 15.7159 36.1019 15.5035 35.9264 15.3569L19.8437 1.90868C19.5369 1.65189 19.0448 1.65189 18.7372 1.90868L2.65481 15.3569C2.47932 15.5036 2.37362 15.7163 2.36468 15.94C2.35609 16.1631 2.44478 16.3824 2.60806 16.5414L4.00093 17.8975C4.05799 17.953 4.11471 17.9965 4.16988 18.0268Z" fill="#3762CC"/>
<path d="M12.1818 33.9478L11.6565 33.8234C11.5029 33.7869 11.408 33.6329 11.4442 33.4794L15.2539 17.3979L16.3353 17.6542L12.5257 33.7357C12.4892 33.8892 12.3352 33.9842 12.1818 33.9478Z" fill="#EAA97D"/>
<path d="M26.3978 33.9345L26.9234 33.8101C27.077 33.7736 27.1721 33.6196 27.1356 33.466L23.3181 17.3513L22.2363 17.6076L26.0538 33.7222C26.0901 33.8757 26.2441 33.9708 26.3978 33.9345Z" fill="#EAA97D"/>
<path d="M19.5016 13.2922H18.6709V10.9229C18.6709 10.7125 18.8414 10.542 19.0518 10.542H19.1209C19.3312 10.542 19.5017 10.7125 19.5017 10.9229V13.2922H19.5016Z" fill="#F9CFCF"/>
<path d="M19.5016 13.6357H18.6709C18.4811 13.6357 18.3271 13.4817 18.3271 13.292V10.9229C18.3271 10.5233 18.6523 10.1982 19.0518 10.1982H19.1207C19.5201 10.1982 19.8453 10.5233 19.8453 10.9229V13.292C19.8453 13.4819 19.6913 13.6357 19.5016 13.6357ZM19.0146 12.9482H19.1578V10.9229C19.1578 10.9024 19.1411 10.8857 19.1207 10.8857H19.0518C19.0313 10.8857 19.0146 10.9024 19.0146 10.9229V12.9482Z" fill="#3762CC"/>
<path d="M18.1149 16.6797H20.4638C20.583 16.6797 20.6827 16.5741 20.6937 16.4361L20.9919 12.6597H17.5869L17.8851 16.4361C17.8958 16.5741 17.9955 16.6797 18.1149 16.6797Z" fill="#6BDDDD"/>
<path d="M20.465 17.0233H18.1159C17.8148 17.0233 17.5687 16.7825 17.5434 16.4632L17.2452 12.6866C17.2377 12.591 17.2703 12.4967 17.3354 12.4262C17.4006 12.3557 17.492 12.3157 17.5879 12.3157H20.9931C21.089 12.3157 21.1805 12.3557 21.2456 12.4262C21.3108 12.4967 21.3434 12.591 21.3358 12.6866L21.0376 16.463C21.0122 16.7825 20.7661 17.0233 20.465 17.0233ZM18.2289 16.409H18.2306H18.2289ZM18.223 16.3358H20.3579L20.621 13.0033H17.9599L18.223 16.3358Z" fill="#3762CC"/>
<path d="M12.248 34.2993C12.1994 34.2993 12.1506 34.2937 12.1018 34.2821L11.5764 34.1577C11.2384 34.0776 11.0288 33.7376 11.1089 33.3999L14.9185 17.3186C14.9394 17.2299 14.9948 17.1531 15.0725 17.1053C15.1502 17.0575 15.2437 17.0425 15.3322 17.0633L16.4136 17.3196C16.5984 17.3634 16.7127 17.5487 16.6688 17.7333L12.8596 33.8146C12.8209 33.9781 12.7207 34.117 12.5775 34.2053C12.4768 34.2675 12.3634 34.2993 12.248 34.2993ZM12.2601 33.613H12.2604C12.2602 33.6132 12.2601 33.613 12.2601 33.613ZM11.7914 33.5022L12.2039 33.5998L15.9208 17.9091L15.5085 17.8115L11.7914 33.5022Z" fill="#3762CC"/>
<path d="M26.3308 34.2861C26.2155 34.2861 26.102 34.2541 26.0013 34.1921C25.8581 34.1037 25.7581 33.9649 25.7194 33.8012L21.9019 17.6869C21.8581 17.5022 21.9724 17.3171 22.1572 17.2732L23.239 17.017C23.328 16.9962 23.4211 17.0111 23.4987 17.0589C23.5763 17.1067 23.6317 17.1835 23.6527 17.2722L27.4702 33.3868C27.509 33.5505 27.4815 33.7194 27.3933 33.8626C27.305 34.0058 27.1663 34.106 27.0027 34.1446L26.4771 34.2691C26.4286 34.2804 26.3794 34.2861 26.3308 34.2861ZM22.6503 17.8628L26.3751 33.5866L26.788 33.4888L23.063 17.765L22.6503 17.8628Z" fill="#3762CC"/>
<path d="M38.4 32.3588V19.8606C38.4 19.5284 38.1307 19.259 37.7985 19.259H37.4033C37.0711 19.259 36.8018 19.5284 36.8018 19.8606V32.3588H38.4Z" fill="#EAA97D"/>
<path d="M39.2881 33.7709V33.0181C39.2881 32.6539 38.9929 32.3586 38.6287 32.3586H36.5735C36.2093 32.3586 35.9141 32.6539 35.9141 33.0181V33.7709H39.2881Z" fill="#EAA97D"/>
<path d="M26.4386 42.634H33.6659C34.033 42.634 34.3396 42.3091 34.3732 41.8846L35.2906 30.2646H24.8135L25.7309 41.8846C25.7648 42.3091 26.0714 42.634 26.4386 42.634Z" fill="#A4C9FF"/>
<path d="M33.6669 42.9777H26.4394C25.8889 42.9777 25.4375 42.5195 25.3894 41.9118L24.4718 30.2918C24.4642 30.1962 24.4969 30.1019 24.562 30.0314C24.6271 29.9609 24.7186 29.9209 24.8145 29.9209H35.2916C35.3875 29.9209 35.479 29.9609 35.5441 30.0314C35.6093 30.1019 35.6419 30.1962 35.6344 30.2918L34.7169 41.9118C34.6688 42.5195 34.2174 42.9777 33.6669 42.9777ZM25.1864 30.6084L26.0749 41.8576C26.0939 42.1001 26.2541 42.2902 26.4394 42.2902H33.6669C33.8522 42.2902 34.0124 42.1003 34.0315 41.8576L34.9197 30.6086H25.1864V30.6084Z" fill="#3762CC"/>
<path d="M24.3945 32.2483L24.2642 30.6899C24.2451 30.4616 24.4089 30.2646 24.6179 30.2646H35.4842C35.6932 30.2646 35.857 30.4616 35.8379 30.6899L35.7077 32.2483C35.6908 32.4488 35.5375 32.6023 35.3539 32.6023H24.748C24.5646 32.6021 24.4113 32.4487 24.3945 32.2483Z" fill="#4671C6"/>
<path d="M35.3541 32.9462H24.7482C24.3833 32.9462 24.0839 32.6585 24.052 32.2771L23.9217 30.7189C23.9038 30.5071 23.9744 30.298 24.1149 30.1452C24.2475 30.0008 24.4265 29.9214 24.6179 29.9214H35.4844C35.6757 29.9214 35.8543 30.0008 35.9871 30.145C36.1275 30.2978 36.1983 30.5068 36.1806 30.7187L36.0504 32.2771C36.0184 32.6585 35.719 32.9462 35.3541 32.9462ZM24.7372 32.2195C24.7395 32.2458 24.752 32.2584 24.7551 32.2599L35.3543 32.2585C35.3507 32.2584 35.3632 32.2458 35.3653 32.2195L35.4956 30.6613C35.4983 30.6293 35.4833 30.6103 35.4777 30.607L24.6181 30.6085C24.6191 30.6103 24.6044 30.6293 24.6071 30.6613L24.7372 32.2195Z" fill="#3762CC"/>
<path d="M24.8474 36.9852H27.9765C28.3875 36.9852 28.7204 36.6521 28.7204 36.2413V30.4245C28.7204 30.0136 28.3873 29.6807 27.9765 29.6807H24.8474C24.4364 29.6807 24.1035 30.0138 24.1035 30.4245V36.2413C24.1035 36.6521 24.4366 36.9852 24.8474 36.9852Z" fill="#F9CFCF"/>
<path d="M30.142 32.2128C30.5343 32.2128 30.8524 31.8639 30.8524 31.4337C30.8524 31.0034 30.5343 30.6545 30.142 30.6545C29.7497 30.6545 29.4316 31.0034 29.4316 31.4337C29.4316 31.8639 29.7497 32.2128 30.142 32.2128Z" fill="#F9A7A7"/>
<path d="M35.2024 36.1085C35.3981 36.1085 35.5575 35.9337 35.5575 35.7188C35.5575 35.504 35.3981 35.3292 35.2024 35.3292H33.6548C32.4245 35.3292 31.3343 34.4213 31.0036 33.1215L30.5724 31.4261C30.5296 31.2583 30.389 31.1411 30.2304 31.1411C30.1982 31.1411 30.1661 31.1459 30.135 31.1556C30.0435 31.1836 29.9676 31.2489 29.921 31.3395C29.8744 31.43 29.8627 31.5352 29.8882 31.6354L30.3194 33.331C30.7355 34.9664 32.1069 36.1085 33.6548 36.1085H35.2024Z" fill="#F9CFCF"/>
<path d="M33.7803 36.3034H41.4162V35.2589C41.4162 34.4372 40.75 33.771 39.9282 33.771H35.2682C34.4465 33.771 33.7803 34.4372 33.7803 35.2589V36.3034Z" fill="#EAA97D"/>
<path d="M33.7526 42.6341H41.4452C41.7619 42.6341 42.0087 42.3327 41.9749 41.9872L41.4168 36.3035H33.7809L33.2228 41.9872C33.189 42.3327 33.4358 42.6341 33.7526 42.6341Z" fill="#E0EBFC"/>
<path d="M40.1736 37.9592C40.3208 37.9592 40.44 38.09 40.44 38.2514V42.6342H39.9072V38.2514C39.9072 38.09 40.0265 37.9592 40.1736 37.9592Z" fill="#A4C9FF"/>
<path d="M39.1082 38.9331C39.2553 38.9331 39.3746 39.0639 39.3746 39.2253V42.6341H38.8418V39.2253C38.8418 39.0639 38.9611 38.9331 39.1082 38.9331Z" fill="#A4C9FF"/>
<path d="M38.0438 39.907C38.1909 39.907 38.3102 40.0378 38.3102 40.1992V42.6341H37.7773V40.1992C37.7773 40.038 37.8966 39.907 38.0438 39.907Z" fill="#A4C9FF"/>
<path d="M35.7342 38.9331C35.8813 38.9331 36.0006 39.0639 36.0006 39.2253V42.6341H35.4678V39.2253C35.4678 39.0639 35.5871 38.9331 35.7342 38.9331Z" fill="#A4C9FF"/>
<path d="M34.6688 37.9592C34.8159 37.9592 34.9352 38.09 34.9352 38.2514V42.6342H34.4023V38.2514C34.4023 38.09 34.5216 37.9592 34.6688 37.9592Z" fill="#A4C9FF"/>
<path d="M41.446 42.9779H33.7536C33.5124 42.9779 33.288 42.8767 33.1213 42.6929C32.9423 42.4956 32.855 42.2261 32.8817 41.9537L33.4396 36.27C33.4569 36.0939 33.6047 35.9597 33.7816 35.9597H41.4175C41.5943 35.9597 41.7423 36.0939 41.7595 36.27L42.3176 41.9537C42.3442 42.2261 42.2569 42.4956 42.078 42.6929C41.9116 42.8767 41.6872 42.9779 41.446 42.9779ZM34.0934 36.6472L33.5659 42.0209C33.5582 42.1006 33.5817 42.1773 33.6305 42.2313C33.6551 42.2582 33.6963 42.2906 33.7536 42.2906H41.446C41.5033 42.2906 41.5445 42.2582 41.5691 42.2313C41.6179 42.1773 41.6414 42.1006 41.6337 42.0209L41.1061 36.6472H34.0934Z" fill="#3762CC"/>
<path d="M41.4162 36.6471H33.7803C33.5905 36.6471 33.4365 36.4931 33.4365 36.3034V35.2589C33.4365 34.249 34.2583 33.4272 35.2682 33.4272H39.9282C40.9382 33.4272 41.7597 34.249 41.7597 35.2589V36.3034C41.7599 36.4931 41.6059 36.6471 41.4162 36.6471ZM34.124 35.9596H41.0724V35.2589C41.0724 34.6281 40.5592 34.1147 39.9284 34.1147H35.2684C34.6374 34.1147 34.1242 34.628 34.1242 35.2589V35.9596H34.124Z" fill="#3762CC"/>
<path d="M27.9765 37.3291H24.8474C24.2477 37.3291 23.7598 36.8411 23.7598 36.2413V30.4245C23.7598 29.8249 24.2477 29.3369 24.8474 29.3369H27.9765C28.5762 29.3369 29.0642 29.8249 29.0642 30.4245V36.2413C29.0643 36.8411 28.5764 37.3291 27.9765 37.3291ZM24.8474 30.0244C24.6267 30.0244 24.4473 30.2039 24.4473 30.4245V36.2413C24.4473 36.462 24.6267 36.6416 24.8474 36.6416H27.9765C28.1972 36.6416 28.3767 36.4622 28.3767 36.2413V30.4245C28.3767 30.2039 28.1972 30.0244 27.9765 30.0244H24.8474Z" fill="#3762CC"/>
<path d="M39.2881 34.1147H35.9141C35.7243 34.1147 35.5703 33.9607 35.5703 33.7709V33.0181C35.5703 32.465 36.0203 32.0149 36.5735 32.0149H38.6287C39.1819 32.0149 39.6319 32.465 39.6319 33.0181V33.7709C39.6319 33.9609 39.4781 34.1147 39.2881 34.1147ZM36.2578 33.4272H38.9444V33.0181C38.9444 32.844 38.8028 32.7024 38.6287 32.7024H36.5735C36.3994 32.7024 36.2578 32.844 36.2578 33.0181V33.4272Z" fill="#3762CC"/>
<path d="M38.4 32.7026H36.8018C36.612 32.7026 36.458 32.5486 36.458 32.3588V19.8606C36.458 19.3395 36.8822 18.9153 37.4033 18.9153H37.7985C38.3196 18.9153 38.7438 19.3393 38.7438 19.8606V32.3588C38.7438 32.5486 38.5899 32.7026 38.4 32.7026ZM37.1455 32.0151H38.0563V19.8606C38.0563 19.7185 37.9406 19.6028 37.7985 19.6028H37.4033C37.2612 19.6028 37.1455 19.7185 37.1455 19.8606V32.0151Z" fill="#3762CC"/>
<path d="M27.3691 18.0547H11.2129C11.023 18.0547 10.8691 17.9009 10.8691 17.7109V17.0234C10.8691 16.8335 11.023 16.6797 11.2129 16.6797H27.3691C27.5591 16.6797 27.7129 16.8335 27.7129 17.0234V17.7109C27.7129 17.9009 27.5589 18.0547 27.3691 18.0547Z" fill="#EAA97D"/>
<path d="M28.4004 27.646H10.1816C9.99172 27.646 9.83789 27.4922 9.83789 27.3022V26.6147C9.83789 26.4248 9.99172 26.271 10.1816 26.271H28.4004C28.5903 26.271 28.7441 26.4248 28.7441 26.6147V27.3022C28.7441 27.492 28.5901 27.646 28.4004 27.646Z" fill="#EAA97D"/>
<path d="M27.3691 18.3984H11.2129C10.8337 18.3984 10.5254 18.0901 10.5254 17.7109V17.0234C10.5254 16.6443 10.8337 16.3359 11.2129 16.3359H27.3691C27.7483 16.3359 28.0566 16.6443 28.0566 17.0234V17.7109C28.0566 18.0901 27.7483 18.3984 27.3691 18.3984ZM11.2129 17.0234V17.7109H27.3697L27.3691 17.0234H11.2129Z" fill="#3762CC"/>
<path d="M28.4004 27.9897H10.1816C9.80248 27.9897 9.49414 27.6814 9.49414 27.3022V26.6147C9.49414 26.2356 9.80248 25.9272 10.1816 25.9272H28.4004C28.7795 25.9272 29.0879 26.2356 29.0879 26.6147V27.3022C29.0879 27.6812 28.7795 27.9897 28.4004 27.9897ZM10.1816 26.6147V27.3022H28.4009L28.4004 26.6147H10.1816Z" fill="#3762CC"/>
</svg>
