<svg width="44" height="44" viewBox="0 0 44 44" fill="none" xmlns="http://www.w3.org/2000/svg">
<g clip-path="url(#clip0)">
<path d="M25.793 34.1375L30.3447 34.1316L30.3465 35.6488L25.7948 35.6548L25.793 34.1375Z" fill="#1A6FB0"/>
<path d="M28.826 24.2759V29.5862H3.03287C2.19609 29.5836 1.51822 28.9058 1.51562 28.069V24.2759H28.826Z" fill="#898890"/>
<path d="M8.34375 26.5518H43.9989V44H8.34375V26.5518Z" fill="#FFBCAB"/>
<path d="M22 13.6553H26.5517V21.2415H22V13.6553Z" fill="#898890"/>
<path d="M12.8984 13.6553H17.4502V21.2415H12.8984V13.6553Z" fill="#898890"/>
<path d="M3.79297 13.6553H8.34469V21.2415H3.79297V13.6553Z" fill="#898890"/>
<path d="M28.826 8.34473V10.6206H1.51562V8.34473H28.826Z" fill="#898890"/>
<path d="M9.10412 10.6206V13.6551H3.03516V10.6206H9.10412Z" fill="#E0E0E2"/>
<path d="M18.2057 10.6206V13.6551H12.1367V10.6206H18.2057Z" fill="#E0E0E2"/>
<path d="M27.3112 10.6206V13.6551H21.2422V10.6206H27.3112Z" fill="#E0E0E2"/>
<path d="M27.3112 21.2412V24.2757H21.2422V21.2412H27.3112Z" fill="#E0E0E2"/>
<path d="M18.2057 21.2412V24.2757H12.1367V21.2412H18.2057Z" fill="#E0E0E2"/>
<path d="M9.10412 21.2412V24.2757H3.03516V21.2412H9.10412Z" fill="#E0E0E2"/>
<path d="M36.4126 15.9312H38.6884V37.1725H34.1367V15.9312H36.4126Z" fill="#57A4FF"/>
<path d="M38.6884 13.6553V15.9311H34.1367V13.6553C34.1367 12.3984 35.1557 11.3794 36.4126 11.3794C37.6694 11.3794 38.6884 12.3984 38.6884 13.6553Z" fill="#BDDBFF"/>
<path d="M38.6884 37.1724L36.4126 41.7241L34.1367 37.1724H38.6884Z" fill="#EBE5DD"/>
<path d="M30.3448 5.31034V8.34483H0V5.31034L15.1724 0L30.3448 5.31034Z" fill="#E0E0E2"/>
<path d="M16.6907 4.55167C16.6907 5.38956 16.0114 6.06891 15.1735 6.06891C14.3356 6.06891 13.6562 5.38956 13.6562 4.55167C13.6562 3.71377 14.3356 3.03442 15.1735 3.03442C16.0114 3.03442 16.6907 3.71377 16.6907 4.55167Z" fill="#D80027"/>
<path d="M42.4815 17.4438C42.4815 16.1866 41.4625 15.168 40.2057 15.168H34.1367V16.6852H35.654V18.2069H37.1712V16.6897H40.2057C40.6246 16.6897 40.9643 17.0293 40.9643 17.4483V20.4828H42.4815V17.4438Z" fill="#B39A7C"/>
<path d="M34.137 42.1796C33.5151 42.1867 32.9105 41.9748 32.4286 41.5818C31.9597 41.165 31.2533 41.165 30.7847 41.5818C29.7864 42.3789 28.3692 42.3789 27.3709 41.5818C27.1479 41.3758 26.8542 41.2636 26.5508 41.2691V39.7519C27.172 39.7448 27.7761 39.9564 28.2569 40.3497C28.7248 40.7665 29.4308 40.7665 29.8986 40.3497C30.8973 39.5541 32.3134 39.5541 33.3124 40.3497C33.5365 40.5564 33.8321 40.6683 34.137 40.6624V42.1796Z" fill="#1A6FB0"/>
<path d="M1.51562 8.34473H28.826V9.10335H1.51562V8.34473Z" fill="#787680"/>
<path d="M16.6884 33.3792H18.2057C18.2057 32.1224 17.1867 31.1033 15.9298 31.1033V30.3447H14.4126V31.1033C13.1557 31.1033 12.1367 32.1224 12.1367 33.3792C12.1367 34.636 13.1557 35.6551 14.4126 35.6551V37.1723C13.9936 37.1723 13.654 36.8326 13.654 36.4137H12.1367C12.1367 37.6705 13.1557 38.6896 14.4126 38.6896V39.4482H15.9298V38.6896C17.1867 38.6896 18.2057 37.6705 18.2057 36.4137C18.2057 35.1569 17.1867 34.1378 15.9298 34.1378V32.6206C16.3488 32.6206 16.6884 32.9603 16.6884 33.3792ZM16.6884 36.4137C16.6884 36.8326 16.3488 37.1723 15.9298 37.1723V35.6551C16.3488 35.6551 16.6884 35.9947 16.6884 36.4137ZM14.4126 34.1378C13.9936 34.1378 13.654 33.7982 13.654 33.3792C13.654 32.9603 13.9936 32.6206 14.4126 32.6206V34.1378Z" fill="white"/>
<path d="M19.7227 31.1097L22.7572 31.106L22.759 32.6232L19.7245 32.6269L19.7227 31.1097Z" fill="#1A6FB0"/>
<path d="M24.2734 31.1006H30.3424V32.6178H24.2734V31.1006Z" fill="#1A6FB0"/>
<path d="M19.7227 34.135H24.2744V35.6522H19.7227V34.135Z" fill="#1A6FB0"/>
<path d="M19.7227 37.1724H24.2744V38.6896H19.7227V37.1724Z" fill="#1A6FB0"/>
</g>
<defs>
<clipPath id="clip0">
<rect width="44" height="44" fill="white"/>
</clipPath>
</defs>
</svg>
