<svg width="48" height="48" viewBox="0 0 48 48" fill="none" xmlns="http://www.w3.org/2000/svg">
<g clip-path="url(#clip0)">
<path d="M41.3273 18.018C41.9179 16.4606 41.7056 14.7125 40.7594 13.3417L40.0918 12.3743C39.8312 11.997 39.6643 11.5568 39.609 11.1013L39.4674 9.93459C39.2665 8.28098 38.2662 6.83174 36.7912 6.05774L35.7508 5.51162C35.3446 5.2985 34.9922 4.98614 34.7314 4.60866L34.064 3.64156C33.1178 2.27077 31.5585 1.4523 29.8929 1.4523H28.7177C28.2589 1.4523 27.8017 1.33955 27.3955 1.12644L26.3551 0.580318C24.8804 -0.193686 23.1193 -0.193844 21.6443 0.580318L20.6039 1.12644C20.1975 1.33955 19.7403 1.4523 19.2817 1.4523H18.1065C16.441 1.4523 14.8816 2.27077 13.9354 3.64156L13.268 4.60851C13.0072 4.98614 12.6548 5.29835 12.2486 5.51162L11.2081 6.05774C9.73334 6.83174 8.73289 8.28098 8.532 9.93475L8.39035 11.1012C8.33509 11.5566 8.16818 11.9968 7.90743 12.3744L7.23998 13.3415C6.29384 14.7123 6.08152 16.4606 6.6721 18.018L7.0888 19.1164C7.25142 19.5455 7.30827 20.0128 7.25285 20.4684L7.11119 21.6348C6.91031 23.2883 7.53488 24.9349 8.7818 26.0394L9.6614 26.8186C10.0047 27.1227 10.2722 27.5102 10.4349 27.9393L10.8516 29.0379C11.2898 30.1935 12.1292 31.1338 13.1937 31.7053L8.60283 42.9039C8.43386 43.3162 8.52724 43.7896 8.84039 44.1067C9.15371 44.424 9.62583 44.5232 10.04 44.3593L15.1033 42.3578L17.3046 47.3374C17.4828 47.7404 17.8817 47.9996 18.3211 47.9996C18.3262 47.9996 18.3312 47.9996 18.3363 47.9996C18.7819 47.9935 19.1807 47.722 19.3498 47.3097L23.9995 35.9674L28.6493 47.3097C28.8182 47.722 29.2172 47.9935 29.6628 47.9996C29.6677 47.9996 29.6728 47.9996 29.678 47.9996C30.1176 47.9996 30.5163 47.7402 30.6945 47.3374L32.8958 42.3578L37.9591 44.3593C38.3731 44.5231 38.8457 44.4238 39.1587 44.1067C39.4718 43.7896 39.5654 43.3162 39.3962 42.9039L34.8054 31.7053C35.8699 31.1338 36.7093 30.1935 37.1474 29.0379L37.5641 27.9393C37.7269 27.5102 37.9943 27.1226 38.3377 26.8185L39.2173 26.0392C40.4642 24.9346 41.0886 23.2881 40.8879 21.6348L40.7462 20.4681C40.6908 20.0127 40.7477 19.5452 40.9101 19.1164L41.3273 18.018ZM37.7434 24.3755L36.8638 25.1547C36.2521 25.6965 35.7755 26.3869 35.4857 27.1512L35.069 28.2499C34.7375 29.1241 33.9976 29.7797 33.0896 30.0034L31.9486 30.2847C31.1552 30.4802 30.4125 30.87 29.8008 31.412L28.9211 32.1913C28.2211 32.8112 27.261 33.0478 26.3536 32.8239L25.2126 32.5428C24.4193 32.3472 23.5803 32.3474 22.7869 32.5428L21.6458 32.8241C20.7379 33.048 19.7782 32.8112 19.0784 32.1913L18.1988 31.412C17.5869 30.87 16.8444 30.4803 16.051 30.2847L14.9098 30.0034C14.002 29.7797 13.2621 29.1241 12.9305 28.2499L12.5138 27.1512C12.224 26.3869 11.7474 25.6965 11.1357 25.1549L10.2561 24.3756C9.55628 23.7557 9.2058 22.8313 9.31855 21.9032L9.4602 20.7367C9.55866 19.9255 9.4575 19.0927 9.16785 18.3284L8.75099 17.2298C8.41957 16.3556 8.53867 15.3742 9.07002 14.6047L9.73715 13.6377C10.2017 12.9652 10.4991 12.1809 10.5977 11.3692L10.7394 10.2028C10.8521 9.27445 11.4136 8.4609 12.2415 8.02641L13.2819 7.48029C14.0055 7.1006 14.6334 6.54447 15.0979 5.87162L15.7653 4.90467C16.2965 4.13512 17.1717 3.6757 18.1067 3.6757H19.2818C20.099 3.6757 20.9134 3.47497 21.6372 3.09512L22.6777 2.54899C23.5055 2.11451 24.494 2.11467 25.322 2.54899L26.3625 3.09512C27.0863 3.47497 27.9008 3.6757 28.7179 3.6757H29.893C30.828 3.6757 31.7032 4.13512 32.2344 4.90451L32.9019 5.87178C33.3664 6.54447 33.9943 7.1006 34.7178 7.48029L35.7582 8.02641C36.5861 8.4609 37.1476 9.27445 37.2603 10.2026L37.402 11.3692C37.5006 12.1807 37.7981 12.965 38.2624 13.6374L38.9298 14.6047C39.461 15.3742 39.5801 16.3555 39.2487 17.2295L38.8317 18.3284C38.5422 19.0926 38.441 19.9253 38.5395 20.7363L38.6812 21.9031C38.7937 22.8313 38.4433 23.7555 37.7434 24.3755ZM32.72 39.8979C32.1652 39.6785 31.536 39.9364 31.2946 40.4823L29.7166 44.0519L26.0157 35.0243C27.5753 35.3448 29.1986 34.9158 30.3953 33.8553L31.2749 33.0761C31.6182 32.7718 32.0353 32.553 32.4809 32.4433L32.6848 32.3929L36.3496 41.3326L32.72 39.8979ZM16.7049 40.4823C16.4636 39.9364 15.8339 39.6785 15.2795 39.8979L11.6501 41.3327L15.3149 32.3931L15.5188 32.4433C15.9644 32.553 16.3815 32.772 16.7248 33.0761L17.6044 33.8552C18.5416 34.6857 19.7406 35.1301 20.9653 35.1299C21.3047 35.1299 21.6458 35.0937 21.984 35.0241L18.283 44.0519L16.7049 40.4823Z" fill="#3CB7C6"/>
<path d="M23.9994 29.7559C30.7214 29.7559 36.1902 24.287 36.1902 17.5651C36.1902 10.8431 30.7214 5.37427 23.9994 5.37427C17.2774 5.37427 11.8086 10.8431 11.8086 17.5651C11.8086 24.287 17.2774 29.7559 23.9994 29.7559ZM23.9994 7.59766C29.4954 7.59766 33.967 12.0691 33.967 17.5652C33.967 23.0614 29.4956 27.5328 23.9994 27.5328C18.5032 27.5328 14.0318 23.0614 14.0318 17.5652C14.0318 12.0691 18.5034 7.59766 23.9994 7.59766Z" fill="#3CB7C6"/>
<path d="M18.8136 23.9241H29.1852C29.7991 23.9241 30.2968 23.4264 30.2968 22.8125V16.2285C30.2968 15.8796 30.1331 15.5511 29.8545 15.341L24.6688 11.4304C24.2724 11.1316 23.7265 11.1316 23.3301 11.4304L18.1444 15.341C17.8659 15.5511 17.7021 15.8796 17.7021 16.2285V22.8125C17.702 23.4264 18.1995 23.9241 18.8136 23.9241ZM19.9252 16.7824L23.9993 13.7101L28.0734 16.7824V21.7007H25.1851V19.4897C25.1851 19.1996 24.9499 18.9644 24.6598 18.9644H23.3388C23.0487 18.9644 22.8135 19.1996 22.8135 19.4897V21.7007H19.9252V16.7824Z" fill="#3CB7C6"/>
</g>
<defs>
<clipPath id="clip0">
<rect width="48" height="48" fill="white"/>
</clipPath>
</defs>
</svg>
