<svg width="44" height="44" viewBox="0 0 44 44" fill="none" xmlns="http://www.w3.org/2000/svg">
<path d="M21.1423 41.025H0.885312C0.396354 41.025 0 40.6287 0 40.1397V7.90143C0 7.41247 0.396354 7.01611 0.885312 7.01611H21.1423C21.6313 7.01611 22.0276 7.41247 22.0276 7.90143V40.1396C22.0276 40.6286 21.6313 41.025 21.1423 41.025Z" fill="#E1EBF0"/>
<path d="M22.0272 7.90143V37.9595C22.0272 38.4485 21.6308 38.8448 21.1419 38.8448H3.0523C2.56335 38.8448 2.16699 38.4485 2.16699 37.9595V7.90143C2.16699 7.41247 2.56335 7.01611 3.0523 7.01611H21.1419C21.6308 7.01611 22.0272 7.41247 22.0272 7.90143Z" fill="#D2E4E7"/>
<path d="M28.1827 37.5171H4.37945C3.89049 37.5171 3.49414 37.1208 3.49414 36.6318V4.39361C3.49414 3.90465 3.89049 3.5083 4.37945 3.5083H28.1828C28.6718 3.5083 29.0681 3.90465 29.0681 4.39361V36.6318C29.0681 37.1208 28.6717 37.5171 28.1827 37.5171Z" fill="#E1EBF0"/>
<path d="M29.0707 4.39361V34.4517C29.0707 34.9407 28.6744 35.337 28.1854 35.337H6.5484C6.05944 35.337 5.66309 34.9407 5.66309 34.4517V4.39361C5.66309 3.90465 6.05944 3.5083 6.5484 3.5083H28.1854C28.6744 3.5083 29.0707 3.90465 29.0707 4.39361Z" fill="#D2E4E7"/>
<path d="M6.99023 33.1239V0.885312C6.99023 0.396354 7.38659 0 7.87555 0H31.6789C32.1679 0 32.5642 0.396354 32.5642 0.885312V33.1239C32.5642 33.6129 32.1679 34.0093 31.6789 34.0093H7.87555C7.38659 34.0093 6.99023 33.6129 6.99023 33.1239Z" fill="#E1EBF0"/>
<path d="M22.2356 11.9693H29.2445C29.489 11.9693 29.6872 11.7711 29.6872 11.5267V4.48758C29.6872 4.24314 29.489 4.04492 29.2445 4.04492H22.2356C21.9912 4.04492 21.793 4.24314 21.793 4.48758V11.5267C21.793 11.7711 21.9911 11.9693 22.2356 11.9693Z" fill="#F3D332"/>
<path d="M24.0033 11.9693H22.2327C21.9883 11.9693 21.79 11.771 21.79 11.5267V4.48758C21.79 4.24323 21.9883 4.04492 22.2327 4.04492H24.0033C23.759 4.04492 23.5607 4.24323 23.5607 4.48758V11.5267C23.5607 11.771 23.759 11.9693 24.0033 11.9693Z" fill="#ECC52E"/>
<path d="M18.9146 11.5599H9.86906C9.50228 11.5599 9.20508 11.2627 9.20508 10.8959C9.20508 10.5291 9.50228 10.2319 9.86906 10.2319H18.9146C19.2813 10.2319 19.5785 10.5291 19.5785 10.8959C19.5785 11.2627 19.2813 11.5599 18.9146 11.5599Z" fill="#B4D2D7"/>
<path d="M24.3395 17.1732H15.2118C14.8451 17.1732 14.5479 16.876 14.5479 16.5092C14.5479 16.1424 14.8451 15.8452 15.2118 15.8452H24.3395C24.7063 15.8452 25.0035 16.1424 25.0035 16.5092C25.0035 16.876 24.7062 17.1732 24.3395 17.1732Z" fill="#B4D2D7"/>
<path d="M18.9146 8.67074H9.86906C9.50228 8.67074 9.20508 8.37354 9.20508 8.00676C9.20508 7.63997 9.50228 7.34277 9.86906 7.34277H18.9146C19.2813 7.34277 19.5785 7.63997 19.5785 8.00676C19.5785 8.37354 19.2813 8.67074 18.9146 8.67074Z" fill="#B4D2D7"/>
<path d="M18.9146 5.78207H9.86906C9.50228 5.78207 9.20508 5.48487 9.20508 5.11809C9.20508 4.7513 9.50228 4.4541 9.86906 4.4541H18.9146C19.2813 4.4541 19.5785 4.7513 19.5785 5.11809C19.5785 5.48487 19.2813 5.78207 18.9146 5.78207Z" fill="#B4D2D7"/>
<path d="M23.49 24.5199H9.86906C9.50228 24.5199 9.20508 24.2227 9.20508 23.8559C9.20508 23.4891 9.50228 23.1919 9.86906 23.1919H23.49C23.8568 23.1919 24.154 23.4891 24.154 23.8559C24.154 24.2227 23.8568 24.5199 23.49 24.5199Z" fill="#B4D2D7"/>
<path d="M20.6414 20.805H9.86906C9.50228 20.805 9.20508 20.5078 9.20508 20.141C9.20508 19.7742 9.50228 19.4771 9.86906 19.4771H20.6414C21.0081 19.4771 21.3053 19.7742 21.3053 20.141C21.3053 20.5078 21.0081 20.805 20.6414 20.805Z" fill="#B4D2D7"/>
<path d="M29.728 20.805H23.5195C23.1527 20.805 22.8555 20.5078 22.8555 20.141C22.8555 19.7742 23.1527 19.4771 23.5195 19.4771H29.728C30.0948 19.4771 30.392 19.7742 30.392 20.141C30.392 20.5078 30.0948 20.805 29.728 20.805Z" fill="#B4D2D7"/>
<path d="M34.9681 28.3955C35.4571 28.3955 35.8534 28.7919 35.8534 29.2808V29.8819C35.8534 32.1607 34.0129 34.0093 31.742 34.0093L18.3184 34.4519L11.0195 34.0093C13.2904 34.0093 15.1318 32.1607 15.1318 29.8819V29.2808C15.1318 28.7919 15.5282 28.3955 16.0171 28.3955H34.9681Z" fill="#D2E4E7"/>
<path d="M32.5646 22.7765V28.3956H23.3379C24.9341 24.9933 28.3744 22.7686 32.183 22.7686C32.3105 22.7686 32.438 22.7712 32.5646 22.7765Z" fill="#D2E4E7"/>
<path d="M29.0695 28.3955V34.4519C29.0695 34.9406 28.6728 35.3372 28.1841 35.3372H22.8085C22.7094 35.0026 22.6288 34.6609 22.566 34.312C22.4633 33.7454 22.4102 33.1611 22.4102 32.5653C22.4102 31.4507 22.5952 30.3565 22.9617 29.3127C23.0724 28.9984 23.1972 28.693 23.3371 28.3955H29.0695Z" fill="#B4D2D7"/>
<path d="M38.9288 36.8813L43.423 40.8804C44.1679 41.6149 44.1953 42.7858 43.4841 43.4906C42.7739 44.1943 41.5975 44.165 40.8601 43.4251L36.3711 39.4046L38.9288 36.8813Z" fill="#F3D332"/>
<path d="M40.2611 38.0686C39.582 39.0681 38.7224 39.9357 37.7308 40.6236L36.3701 39.4054L38.9278 36.8813L40.2611 38.0686Z" fill="#ECC52E"/>
<path d="M29.0686 34.4517V36.6313C29.0686 37.12 28.6719 37.5166 28.1832 37.5166H23.7522C23.353 36.8385 23.0343 36.1072 22.8076 35.337H28.1832C28.6719 35.337 29.0686 34.9404 29.0686 34.4517Z" fill="#D2E4E7"/>
<path d="M24.1787 32.5652C24.1787 31.6305 24.338 30.7331 24.6308 29.8988C25.7267 26.7768 28.6929 24.5391 32.1801 24.5391C36.5991 24.5391 40.1814 28.1325 40.1814 32.5651C40.1814 36.9978 36.5991 40.5913 32.1801 40.5913C27.761 40.5913 24.1787 36.9979 24.1787 32.5652Z" fill="#30579D"/>
<path d="M38.3092 37.7229C36.8431 39.4767 34.6413 40.5913 32.1802 40.5913C27.7607 40.5913 24.1787 36.9978 24.1787 32.5651C24.1787 31.6302 24.3381 30.7334 24.6302 29.8985C25.172 28.3554 26.1715 27.0283 27.465 26.0811C26.8532 26.8114 26.369 27.6525 26.0467 28.5706C25.7546 29.4054 25.5952 30.3022 25.5952 31.2371C25.5952 35.6699 29.1772 39.2633 33.5967 39.2633C35.3584 39.2633 36.9874 38.6914 38.3092 37.7229Z" fill="#30569F"/>
<path d="M27.1865 32.5653C27.1865 31.9817 27.2859 31.4214 27.4688 30.9006C28.1531 28.9513 30.005 27.5542 32.1823 27.5542C34.9413 27.5542 37.178 29.7978 37.178 32.5653C37.178 35.3329 34.9413 37.5765 32.1823 37.5765C29.4232 37.5765 27.1865 35.3329 27.1865 32.5653Z" fill="#E1EBF0"/>
<path d="M36.4823 35.1159C35.6129 36.5891 34.0123 37.5762 32.1823 37.5762C29.4228 37.5762 27.1865 35.3328 27.1865 32.5653C27.1865 31.9819 27.2857 31.4215 27.4689 30.901C27.8629 29.7784 28.6437 28.8391 29.6521 28.2441C29.4866 28.523 29.3485 28.8196 29.2396 29.1303C29.0563 29.6509 28.9571 30.2113 28.9571 30.7947C28.9571 33.5622 31.1934 35.8056 33.953 35.8056C34.8763 35.8056 35.7404 35.5542 36.4823 35.1159Z" fill="#D2E4E7"/>
</svg>
