<svg width="44" height="44" viewBox="0 0 44 44" fill="none" xmlns="http://www.w3.org/2000/svg">
<g clip-path="url(#clip0)">
<path d="M22.9453 43.0547C34.5735 43.0547 44 33.6282 44 22C44 10.3718 34.5735 0.945312 22.9453 0.945312C11.3171 0.945312 1.89062 10.3718 1.89062 22C1.89062 33.6282 11.3171 43.0547 22.9453 43.0547Z" fill="#69CDFF"/>
<path d="M22.7261 30.8113H15.9619V34.3545H22.7261V30.8113Z" fill="#445EA0"/>
<path d="M17.6671 30.8113H15.9619V34.3545H17.6671V30.8113Z" fill="#2E4C89"/>
<path d="M27.2285 34.2686H10.9608C10.7197 34.2686 10.5225 34.4659 10.5225 34.707V36.9045C10.5225 37.1457 10.7198 37.343 10.9608 37.343H27.2285V34.2686Z" fill="#293D7C"/>
<path d="M12.2276 36.9043V34.7068C12.2276 34.4656 12.4249 34.2683 12.6661 34.2683H10.9608C10.7197 34.2683 10.5225 34.4656 10.5225 34.7068V36.9043C10.5225 37.1454 10.7198 37.3427 10.9608 37.3427H12.666C12.4249 37.3427 12.2276 37.1454 12.2276 36.9043Z" fill="#1A2B63"/>
<path d="M38.2468 5.06738H0.438453C0.197313 5.06738 0 5.2647 0 5.50584V30.459C0 30.7002 0.197313 30.8974 0.438453 30.8974H27.2298V17.7693C27.2298 17.4377 27.4997 17.1677 27.8314 17.1677H38.6853V5.50584C38.6853 5.2647 38.488 5.06738 38.2468 5.06738Z" fill="#293D7C"/>
<path d="M1.92578 26.5129C1.92578 26.6576 2.04412 26.7758 2.18884 26.7758H27.2309V17.7691C27.2309 17.4374 27.5008 17.1675 27.8325 17.1675H36.7617V9.36694H1.92578V26.5129Z" fill="white"/>
<path d="M3.63104 26.5129V9.36694H1.92578V26.5129C1.92578 26.6576 2.04412 26.7758 2.18884 26.7758H3.89409C3.74937 26.7758 3.63104 26.6575 3.63104 26.5129Z" fill="#D9EAFC"/>
<path d="M19.3439 30.0122C19.9976 30.0122 20.5276 29.4822 20.5276 28.8285C20.5276 28.1747 19.9976 27.6448 19.3439 27.6448C18.6901 27.6448 18.1602 28.1747 18.1602 28.8285C18.1602 29.4822 18.6901 30.0122 19.3439 30.0122Z" fill="#445EA0"/>
<path d="M27.2288 19.1765H22.6377C22.4959 19.1765 22.3799 19.2925 22.3799 19.4343V24.5596C22.3799 24.7014 22.4959 24.8174 22.6377 24.8174H27.2288V19.1765Z" fill="#C3DDF4"/>
<path d="M24.0851 24.5596V19.4343C24.0851 19.2925 24.2011 19.1765 24.3429 19.1765H22.6377C22.4959 19.1765 22.3799 19.2925 22.3799 19.4343V24.5596C22.3799 24.7014 22.4959 24.8174 22.6377 24.8174H24.3429C24.2011 24.8174 24.0851 24.7014 24.0851 24.5596Z" fill="#AEC1ED"/>
<path d="M27.8304 17.1673H31.8366V11.5486C31.8366 11.3123 31.6433 11.1189 31.4069 11.1189H7.27637C7.04004 11.1189 6.84668 11.3123 6.84668 11.5486V17.2656C6.84668 17.5019 7.04004 17.6953 7.27637 17.6953H27.2339C27.2703 17.3983 27.5238 17.1673 27.8304 17.1673Z" fill="#C3DDF4"/>
<path d="M8.55185 17.2658V11.5488C8.55185 11.3125 8.74521 11.1191 8.98154 11.1191H7.27637C7.04004 11.1191 6.84668 11.3125 6.84668 11.5488V17.2658C6.84668 17.5021 7.04004 17.6955 7.27637 17.6955H8.98154C8.74521 17.6955 8.55185 17.5021 8.55185 17.2658Z" fill="#AEC1ED"/>
<path d="M36.4987 7.30322H2.18884C2.04412 7.30322 1.92578 7.42156 1.92578 7.56636V9.45295H36.7617V7.56636C36.7617 7.42156 36.6433 7.30322 36.4987 7.30322Z" fill="#FFAF10"/>
<path d="M3.89409 7.30322H2.18884C2.04412 7.30322 1.92578 7.42156 1.92578 7.56636V9.45295H3.63095V7.56636C3.63104 7.42156 3.74937 7.30322 3.89409 7.30322Z" fill="#FF9518"/>
<path d="M14.7373 20.5374H7.50391C7.14795 20.5374 6.85938 20.2489 6.85938 19.8928C6.85938 19.5368 7.14795 19.2483 7.50391 19.2483H14.7373C15.0932 19.2483 15.3818 19.5368 15.3818 19.8928C15.3818 20.2489 15.0932 20.5374 14.7373 20.5374Z" fill="#5DC1D8"/>
<path d="M14.7373 22.6418H7.50391C7.14795 22.6418 6.85938 22.3534 6.85938 21.9973C6.85938 21.6413 7.14795 21.3528 7.50391 21.3528H14.7373C15.0932 21.3528 15.3818 21.6413 15.3818 21.9973C15.3818 22.3533 15.0932 22.6418 14.7373 22.6418Z" fill="#5DC1D8"/>
<path d="M14.7373 24.7458H7.50391C7.14795 24.7458 6.85938 24.4574 6.85938 24.1013C6.85938 23.7453 7.14795 23.4568 7.50391 23.4568H14.7373C15.0932 23.4568 15.3818 23.7453 15.3818 24.1013C15.3818 24.4574 15.0932 24.7458 14.7373 24.7458Z" fill="#5DC1D8"/>
<path d="M20.4157 20.5374H16.6924C16.3364 20.5374 16.0479 20.2489 16.0479 19.8928C16.0479 19.5368 16.3364 19.2483 16.6924 19.2483H20.4157C20.7717 19.2483 21.0602 19.5368 21.0602 19.8928C21.0602 20.2489 20.7717 20.5374 20.4157 20.5374Z" fill="#5DC1D8"/>
<path d="M20.4157 22.6418H16.6924C16.3364 22.6418 16.0479 22.3534 16.0479 21.9973C16.0479 21.6413 16.3364 21.3528 16.6924 21.3528H20.4157C20.7717 21.3528 21.0602 21.6413 21.0602 21.9973C21.0602 22.3533 20.7717 22.6418 20.4157 22.6418Z" fill="#5DC1D8"/>
<path d="M20.4157 24.7458H16.6924C16.3364 24.7458 16.0479 24.4574 16.0479 24.1013C16.0479 23.7453 16.3364 23.4568 16.6924 23.4568H20.4157C20.7717 23.4568 21.0602 23.7453 21.0602 24.1013C21.0602 24.4574 20.7717 24.7458 20.4157 24.7458Z" fill="#5DC1D8"/>
<path d="M43.3132 17.0815C43.6913 17.0815 44.0007 17.3909 44.0007 17.769V38.5462C44.0007 38.9243 43.6913 39.2337 43.3132 39.2337H27.832C27.4539 39.2337 27.1445 38.9243 27.1445 38.5462V17.769C27.1445 17.3909 27.4539 17.0815 27.832 17.0815H43.3132Z" fill="#445EA0"/>
<path d="M29.0098 36.5341C28.7734 36.5341 28.5801 36.3407 28.5801 36.1044V18.8357C28.5801 18.5994 28.7734 18.406 29.0098 18.406H42.1344C42.3707 18.406 42.5641 18.5994 42.5641 18.8357V36.1044C42.5641 36.3407 42.3707 36.5341 42.1344 36.5341H29.0098Z" fill="white"/>
<path d="M30.2853 36.1044V18.8357C30.2853 18.5994 30.4786 18.406 30.7149 18.406H29.0098C28.7734 18.406 28.5801 18.5994 28.5801 18.8357V36.1044C28.5801 36.3407 28.7734 36.5341 29.0098 36.5341H30.7149C30.4786 36.5341 30.2853 36.3407 30.2853 36.1044Z" fill="#D9EAFC"/>
<path d="M34.7676 38.2528C34.5312 38.2528 34.3379 38.0595 34.3379 37.8232V37.656C34.3379 37.4197 34.5312 37.2263 34.7676 37.2263H36.3766C36.6129 37.2263 36.8063 37.4197 36.8063 37.656V37.8232C36.8063 38.0595 36.6129 38.2528 36.3766 38.2528H34.7676Z" fill="#445EA0"/>
<path d="M42.5641 20.064V18.8357C42.5641 18.5994 42.3707 18.406 42.1344 18.406H29.0098C28.7734 18.406 28.5801 18.5994 28.5801 18.8357V20.064H42.5641Z" fill="#FFAF10"/>
<path d="M30.7149 18.406H29.0098C28.7734 18.406 28.5801 18.5994 28.5801 18.8357V20.064H30.2853V18.8357C30.2853 18.5994 30.4786 18.406 30.7149 18.406Z" fill="#FF9518"/>
<path d="M38.5009 27.9238H32.6426C32.2866 27.9238 31.998 27.6353 31.998 27.2793C31.998 26.9233 32.2866 26.6348 32.6426 26.6348H38.5009C38.8568 26.6348 39.1454 26.9233 39.1454 27.2793C39.1454 27.6352 38.8568 27.9238 38.5009 27.9238Z" fill="#5DC1D8"/>
<path d="M38.5009 29.9114H32.6426C32.2866 29.9114 31.998 29.6229 31.998 29.2668C31.998 28.9109 32.2866 28.6223 32.6426 28.6223H38.5009C38.8568 28.6223 39.1454 28.9109 39.1454 29.2668C39.1454 29.6229 38.8568 29.9114 38.5009 29.9114Z" fill="#5DC1D8"/>
<path d="M38.5009 31.8987H32.6426C32.2866 31.8987 31.998 31.6102 31.998 31.2542C31.998 30.8982 32.2866 30.6096 32.6426 30.6096H38.5009C38.8568 30.6096 39.1454 30.8982 39.1454 31.2542C39.1454 31.6102 38.8568 31.8987 38.5009 31.8987Z" fill="#5DC1D8"/>
<path d="M41.2282 25.1157C41.2282 25.352 41.0348 25.5454 40.7985 25.5454H30.3438C30.1074 25.5454 29.9141 25.352 29.9141 25.1157V21.5713C29.9141 21.335 30.1074 21.1416 30.3438 21.1416H40.7985C41.0348 21.1416 41.2282 21.335 41.2282 21.5713V25.1157Z" fill="#C3DDF4"/>
<path d="M31.6192 25.1157V21.5713C31.6192 21.335 31.8126 21.1416 32.0489 21.1416H30.3437C30.1074 21.1416 29.9141 21.335 29.9141 21.5713V25.1157C29.9141 25.352 30.1074 25.5454 30.3437 25.5454H32.0489C31.8126 25.5454 31.6192 25.352 31.6192 25.1157Z" fill="#AEC1ED"/>
<path d="M39.6805 35.1844C39.6805 35.4207 39.4871 35.6141 39.2508 35.6141H31.8896C31.6533 35.6141 31.46 35.4207 31.46 35.1844V33.7312C31.46 33.4949 31.6533 33.3015 31.8896 33.3015H39.2508C39.4871 33.3015 39.6805 33.4949 39.6805 33.7312V35.1844Z" fill="#C3DDF4"/>
<path d="M33.1651 35.1844V33.7312C33.1651 33.4949 33.3585 33.3015 33.5948 33.3015H31.8896C31.6533 33.3015 31.46 33.4949 31.46 33.7312V35.1844C31.46 35.4207 31.6533 35.6141 31.8896 35.6141H33.5948C33.3585 35.6141 33.1651 35.4207 33.1651 35.1844Z" fill="#AEC1ED"/>
</g>
<defs>
<clipPath id="clip0">
<rect width="44" height="44" fill="white"/>
</clipPath>
</defs>
</svg>
