<svg width="24" height="24" viewBox="0 0 24 24" fill="none" xmlns="http://www.w3.org/2000/svg">
<g clip-path="url(#clip0)">
<path d="M5.625 1.25H6.375V2H7.125V1.25H7.875V2H8.625V1.25H9.375V2H10.125V1.25H10.875V2H11.625V1.25H12.375V2H13.125V1.25H13.875V2H14.625V1.25H15.375V2H16.125V1.25H16.875V2H17.625V1.25H18.375V15.5H19.125V-0.625C19.125 -0.724456 19.0855 -0.819839 19.0152 -0.890165C18.9448 -0.960491 18.8495 -1 18.75 -1H5.25C5.15054 -1 5.05516 -0.960491 4.98484 -0.890165C4.91451 -0.819839 4.875 -0.724456 4.875 -0.625V2H5.625V1.25ZM5.625 -0.25H18.375V0.5H5.625V-0.25Z" fill="#3CB7C6"/>
<path d="M14.625 3.125C14.625 3.02554 14.5855 2.93016 14.5152 2.85984C14.4448 2.78951 14.3495 2.75 14.25 2.75H12.75C12.6505 2.75 12.5552 2.78951 12.4848 2.85984C12.4145 2.93016 12.375 3.02554 12.375 3.125V6.125C12.375 6.22446 12.4145 6.31984 12.4848 6.39017C12.5552 6.46049 12.6505 6.5 12.75 6.5H14.25C14.3495 6.5 14.4448 6.46049 14.5152 6.39017C14.5855 6.31984 14.625 6.22446 14.625 6.125V3.125ZM13.875 3.5V4.25H13.125V3.5H13.875ZM13.125 5.75V5H13.875V5.75H13.125Z" fill="#3CB7C6"/>
<path d="M17.625 3.125C17.625 3.02554 17.5855 2.93016 17.5152 2.85984C17.4448 2.78951 17.3495 2.75 17.25 2.75H15.75C15.6505 2.75 15.5552 2.78951 15.4848 2.85984C15.4145 2.93016 15.375 3.02554 15.375 3.125V6.125C15.375 6.22446 15.4145 6.31984 15.4848 6.39017C15.5552 6.46049 15.6505 6.5 15.75 6.5H17.25C17.3495 6.5 17.4448 6.46049 17.5152 6.39017C17.5855 6.31984 17.625 6.22446 17.625 6.125V3.125ZM16.875 3.5V4.25H16.125V3.5H16.875ZM16.125 5.75V5H16.875V5.75H16.125Z" fill="#3CB7C6"/>
<path d="M11.625 3.125C11.625 3.02554 11.5855 2.93016 11.5152 2.85984C11.4448 2.78951 11.3495 2.75 11.25 2.75H9.75C9.65054 2.75 9.55516 2.78951 9.48483 2.85984C9.41451 2.93016 9.375 3.02554 9.375 3.125V6.125C9.375 6.22446 9.41451 6.31984 9.48483 6.39017C9.55516 6.46049 9.65054 6.5 9.75 6.5H11.25C11.3495 6.5 11.4448 6.46049 11.5152 6.39017C11.5855 6.31984 11.625 6.22446 11.625 6.125V3.125ZM10.875 3.5V4.25H10.125V3.5H10.875ZM10.125 5.75V5H10.875V5.75H10.125Z" fill="#3CB7C6"/>
<path d="M8.625 3.125C8.625 3.02554 8.58549 2.93016 8.51517 2.85984C8.44484 2.78951 8.34946 2.75 8.25 2.75H6.75C6.65054 2.75 6.55516 2.78951 6.48483 2.85984C6.41451 2.93016 6.375 3.02554 6.375 3.125V6.125C6.375 6.22446 6.41451 6.31984 6.48483 6.39017C6.55516 6.46049 6.65054 6.5 6.75 6.5H8.25C8.34946 6.5 8.44484 6.46049 8.51517 6.39017C8.58549 6.31984 8.625 6.22446 8.625 6.125V3.125ZM7.875 3.5V4.25H7.125V3.5H7.875ZM7.125 5.75V5H7.875V5.75H7.125Z" fill="#3CB7C6"/>
<path d="M14.625 7.625C14.625 7.52554 14.5855 7.43016 14.5152 7.35983C14.4448 7.28951 14.3495 7.25 14.25 7.25H12.75C12.6505 7.25 12.5552 7.28951 12.4848 7.35983C12.4145 7.43016 12.375 7.52554 12.375 7.625V10.625C12.375 10.7245 12.4145 10.8198 12.4848 10.8902C12.5552 10.9605 12.6505 11 12.75 11H14.25C14.3495 11 14.4448 10.9605 14.5152 10.8902C14.5855 10.8198 14.625 10.7245 14.625 10.625V7.625ZM13.875 8V8.75H13.125V8H13.875ZM13.125 10.25V9.5H13.875V10.25H13.125Z" fill="#3CB7C6"/>
<path d="M17.625 7.625C17.625 7.52554 17.5855 7.43016 17.5152 7.35983C17.4448 7.28951 17.3495 7.25 17.25 7.25H15.75C15.6505 7.25 15.5552 7.28951 15.4848 7.35983C15.4145 7.43016 15.375 7.52554 15.375 7.625V10.625C15.375 10.7245 15.4145 10.8198 15.4848 10.8902C15.5552 10.9605 15.6505 11 15.75 11H17.25C17.3495 11 17.4448 10.9605 17.5152 10.8902C17.5855 10.8198 17.625 10.7245 17.625 10.625V7.625ZM16.875 8V8.75H16.125V8H16.875ZM16.125 10.25V9.5H16.875V10.25H16.125Z" fill="#3CB7C6"/>
<path d="M11.625 7.625C11.625 7.52554 11.5855 7.43016 11.5152 7.35983C11.4448 7.28951 11.3495 7.25 11.25 7.25H9.75C9.65054 7.25 9.55516 7.28951 9.48483 7.35983C9.41451 7.43016 9.375 7.52554 9.375 7.625V10.625C9.375 10.7245 9.41451 10.8198 9.48483 10.8902C9.55516 10.9605 9.65054 11 9.75 11H11.25C11.3495 11 11.4448 10.9605 11.5152 10.8902C11.5855 10.8198 11.625 10.7245 11.625 10.625V7.625ZM10.875 8V8.75H10.125V8H10.875ZM10.125 10.25V9.5H10.875V10.25H10.125Z" fill="#3CB7C6"/>
<path d="M8.625 7.625C8.625 7.52554 8.58549 7.43016 8.51517 7.35983C8.44484 7.28951 8.34946 7.25 8.25 7.25H6.75C6.65054 7.25 6.55516 7.28951 6.48483 7.35983C6.41451 7.43016 6.375 7.52554 6.375 7.625V10.625C6.375 10.7245 6.41451 10.8198 6.48483 10.8902C6.55516 10.9605 6.65054 11 6.75 11H8.25C8.34946 11 8.44484 10.9605 8.51517 10.8902C8.58549 10.8198 8.625 10.7245 8.625 10.625V7.625ZM7.875 8V8.75H7.125V8H7.875ZM7.125 10.25V9.5H7.875V10.25H7.125Z" fill="#3CB7C6"/>
<path d="M14.25 11.75H12.75C12.6505 11.75 12.5552 11.7895 12.4848 11.8598C12.4145 11.9302 12.375 12.0255 12.375 12.125V15.125C12.375 15.2245 12.4145 15.3198 12.4848 15.3902C12.5552 15.4605 12.6505 15.5 12.75 15.5H14.25C14.3495 15.5 14.4448 15.4605 14.5152 15.3902C14.5855 15.3198 14.625 15.2245 14.625 15.125V12.125C14.625 12.0255 14.5855 11.9302 14.5152 11.8598C14.4448 11.7895 14.3495 11.75 14.25 11.75ZM13.875 12.5V13.25H13.125V12.5H13.875ZM13.125 14.75V14H13.875V14.75H13.125Z" fill="#3CB7C6"/>
<path d="M17.25 11.75H15.75C15.6505 11.75 15.5552 11.7895 15.4848 11.8598C15.4145 11.9302 15.375 12.0255 15.375 12.125V15.125C15.375 15.2245 15.4145 15.3198 15.4848 15.3902C15.5552 15.4605 15.6505 15.5 15.75 15.5H17.25C17.3495 15.5 17.4448 15.4605 17.5152 15.3902C17.5855 15.3198 17.625 15.2245 17.625 15.125V12.125C17.625 12.0255 17.5855 11.9302 17.5152 11.8598C17.4448 11.7895 17.3495 11.75 17.25 11.75ZM16.875 12.5V13.25H16.125V12.5H16.875ZM16.125 14.75V14H16.875V14.75H16.125Z" fill="#3CB7C6"/>
<path d="M11.25 11.75H9.75C9.65054 11.75 9.55516 11.7895 9.48483 11.8598C9.41451 11.9302 9.375 12.0255 9.375 12.125V15.125C9.375 15.2245 9.41451 15.3198 9.48483 15.3902C9.55516 15.4605 9.65054 15.5 9.75 15.5H11.25C11.3495 15.5 11.4448 15.4605 11.5152 15.3902C11.5855 15.3198 11.625 15.2245 11.625 15.125V12.125C11.625 12.0255 11.5855 11.9302 11.5152 11.8598C11.4448 11.7895 11.3495 11.75 11.25 11.75ZM10.875 12.5V13.25H10.125V12.5H10.875ZM10.125 14.75V14H10.875V14.75H10.125Z" fill="#3CB7C6"/>
<path d="M8.25 11.75H6.75C6.65054 11.75 6.55516 11.7895 6.48483 11.8598C6.41451 11.9302 6.375 12.0255 6.375 12.125V15.125C6.375 15.2245 6.41451 15.3198 6.48483 15.3902C6.55516 15.4605 6.65054 15.5 6.75 15.5H8.25C8.34946 15.5 8.44484 15.4605 8.51517 15.3902C8.58549 15.3198 8.625 15.2245 8.625 15.125V12.125C8.625 12.0255 8.58549 11.9302 8.51517 11.8598C8.44484 11.7895 8.34946 11.75 8.25 11.75ZM7.875 12.5V13.25H7.125V12.5H7.875ZM7.125 14.75V14H7.875V14.75H7.125Z" fill="#3CB7C6"/>
<path d="M21.9388 19.8196C22.2252 19.7534 22.4889 19.6125 22.7032 19.4113C22.9792 19.1517 23.163 18.8092 23.2266 18.4357C23.2902 18.0622 23.2302 17.6781 23.0556 17.3418C22.8989 17.0529 22.8435 16.7198 22.8983 16.3957C22.9252 16.2536 22.9303 16.1082 22.9134 15.9645C22.8776 15.6588 22.7404 15.374 22.5238 15.1554C22.3071 14.9368 22.0234 14.7972 21.7181 14.7588C21.5291 14.7376 21.3378 14.7565 21.1567 14.8142C20.9755 14.8719 20.8086 14.9671 20.6667 15.0937C20.521 15.2245 20.4045 15.3845 20.3248 15.5633C20.2452 15.7422 20.2041 15.9358 20.2044 16.1316C20.2044 16.2296 20.2146 16.3273 20.2348 16.4232C20.2948 16.7065 20.2399 17.0271 20.0801 17.326C19.9207 17.6256 19.8523 17.9652 19.8833 18.3032C19.9157 18.6603 20.059 18.9984 20.2931 19.2701C20.5272 19.5418 20.8403 19.7336 21.1888 19.8185V20.75H19.8763V19.625C19.8763 19.5255 19.8368 19.4302 19.7664 19.3598C19.6961 19.2895 19.6007 19.25 19.5013 19.25H19.1263V16.25H18.3763V19.25H17.6263V16.625C17.6263 16.5255 17.5868 16.4302 17.5164 16.3598C17.4461 16.2895 17.3507 16.25 17.2513 16.25H15.7513C15.6518 16.25 15.5564 16.2895 15.4861 16.3598C15.4158 16.4302 15.3763 16.5255 15.3763 16.625V19.25H14.6263V16.625C14.6263 16.5255 14.5868 16.4302 14.5164 16.3598C14.4461 16.2895 14.3507 16.25 14.2513 16.25H9.75127C9.65181 16.25 9.55643 16.2895 9.4861 16.3598C9.41578 16.4302 9.37627 16.5255 9.37627 16.625V19.25H8.62627V16.625C8.62627 16.5255 8.58676 16.4302 8.51643 16.3598C8.44611 16.2895 8.35073 16.25 8.25127 16.25H6.75127C6.65181 16.25 6.55643 16.2895 6.4861 16.3598C6.41578 16.4302 6.37627 16.5255 6.37627 16.625V19.25H5.62627V2.75H4.87627V19.25H4.50127C4.40181 19.25 4.30643 19.2895 4.2361 19.3598C4.16578 19.4302 4.12627 19.5255 4.12627 19.625V20.75H2.81377V19.8196C3.10017 19.7534 3.36392 19.6125 3.57821 19.4113C3.85421 19.1517 4.03797 18.8092 4.10158 18.4357C4.16518 18.0622 4.10515 17.6781 3.93061 17.3418C3.77388 17.0529 3.71847 16.7198 3.77325 16.3957C3.80024 16.2536 3.80535 16.1082 3.78839 15.9645C3.75261 15.6588 3.61543 15.374 3.39876 15.1554C3.18209 14.9368 2.89843 14.7972 2.59308 14.7588C2.26247 14.721 1.92957 14.807 1.65863 15.0002L2.09419 15.6108C2.21414 15.5244 2.36216 15.4863 2.50889 15.504C2.64635 15.5224 2.7737 15.5863 2.87059 15.6855C2.96749 15.7847 3.02835 15.9135 3.04346 16.0513C3.05156 16.1192 3.04925 16.1879 3.03661 16.2551C2.95035 16.745 3.03095 17.2497 3.2655 17.6883C3.36424 17.8791 3.39825 18.0968 3.36243 18.3087C3.3266 18.5205 3.22288 18.7149 3.06689 18.8626C2.99229 18.9321 2.90678 18.9889 2.81377 19.0307V16.8027H2.06377V19.0303C1.90919 18.9588 1.77619 18.8478 1.67816 18.7085C1.58013 18.5692 1.52052 18.4066 1.50535 18.2369C1.4874 18.0442 1.52612 17.8504 1.61677 17.6794C1.85958 17.2247 1.94021 16.7236 1.84355 16.2678C1.8209 16.1601 1.82549 16.0485 1.85691 15.943L1.13878 15.7268C1.07103 15.9528 1.06107 16.1923 1.10982 16.4232C1.16982 16.7065 1.11493 17.0271 0.955129 17.326C0.795692 17.6256 0.727264 17.9652 0.758254 18.3032C0.790707 18.6603 0.934 18.9984 1.16808 19.2701C1.40217 19.5418 1.71534 19.7336 2.06377 19.8185V20.75H0.751269V21.5H23.2513V20.75H21.9388V19.8196ZM20.6303 18.2369C20.6124 18.0442 20.6511 17.8504 20.7418 17.6794C20.9846 17.2247 21.0652 16.7236 20.9686 16.2678C20.9592 16.223 20.9544 16.1773 20.9545 16.1316C20.9542 16.0414 20.9729 15.9522 21.0094 15.8697C21.0459 15.7872 21.0993 15.7134 21.1663 15.653C21.2753 15.5544 21.4171 15.4999 21.5641 15.5C21.5874 15.5 21.6106 15.5013 21.6338 15.504C21.7712 15.5223 21.8986 15.5862 21.9956 15.6854C22.0925 15.7846 22.1534 15.9135 22.1685 16.0513C22.1766 16.1192 22.1743 16.1879 22.1616 16.2551C22.0753 16.745 22.1559 17.2497 22.3905 17.6883C22.4892 17.8791 22.5233 18.0968 22.4875 18.3086C22.4516 18.5205 22.3479 18.7149 22.1919 18.8626C22.1173 18.9321 22.0318 18.9889 21.9388 19.0307V16.8027H21.1888V19.0303C21.0342 18.9588 20.9012 18.8478 20.8032 18.7085C20.7051 18.5692 20.6455 18.4066 20.6303 18.2369ZM16.8763 17V17.75H16.1263V17H16.8763ZM16.1263 18.5H16.8763V19.25H16.1263V18.5ZM13.8763 19.25H12.3763V17H13.8763V19.25ZM10.1263 17H11.6263V19.25H10.1263V17ZM7.87627 17V17.75H7.12627V17H7.87627ZM7.12627 18.5H7.87627V19.25H7.12627V18.5ZM4.87627 20.75V20H9.37627V20.75H4.87627ZM10.1263 20.75V20H13.8763V20.75H10.1263ZM14.6263 20.75V20H19.1263V20.75H14.6263Z" fill="#3CB7C6"/>
</g>
<defs>
<clipPath id="clip0">
<rect width="24" height="24" fill="white"/>
</clipPath>
</defs>
</svg>
