<svg width="48" height="48" viewBox="0 0 48 48" fill="none" xmlns="http://www.w3.org/2000/svg">
<path d="M10.7673 13.3765L11.2297 13.1283V20.2192C11.2297 20.3932 11.2989 20.5601 11.4219 20.6832C11.545 20.8063 11.7119 20.8754 11.886 20.8754H15.2827C15.4568 20.8754 15.6237 20.8063 15.7468 20.6832C15.8698 20.5601 15.939 20.3932 15.939 20.2192V17.2102H18.1556V20.2192C18.1556 20.3932 18.2247 20.5601 18.3478 20.6832C18.4709 20.8063 18.6378 20.8754 18.8118 20.8754H22.2086C22.3826 20.8754 22.5496 20.8063 22.6726 20.6832C22.7957 20.5601 22.8648 20.3932 22.8648 20.2192V13.1294L23.3373 13.3795C23.4136 13.4215 23.4975 13.448 23.5841 13.4573C23.6706 13.4665 23.7582 13.4585 23.8416 13.4336C23.9251 13.4087 24.0027 13.3675 24.0701 13.3123C24.1374 13.2571 24.1931 13.189 24.2339 13.1121C24.2747 13.0352 24.2997 12.9509 24.3076 12.8642C24.3155 12.7775 24.306 12.69 24.2798 12.607C24.2536 12.524 24.2111 12.447 24.1548 12.3806C24.0985 12.3141 24.0296 12.2596 23.952 12.22L17.3145 8.70328C17.2195 8.65253 17.1134 8.62598 17.0057 8.62598C16.8979 8.62598 16.7919 8.65253 16.6968 8.70328L10.1467 12.22C9.99336 12.3023 9.87897 12.4422 9.82873 12.6088C9.77848 12.7755 9.79648 12.9552 9.87878 13.1086C9.96108 13.262 10.1009 13.3763 10.2676 13.4266C10.4342 13.4768 10.614 13.4588 10.7673 13.3765ZM17.0092 10.027L21.5523 12.4342V19.5629H19.4681V16.5539C19.4681 16.3799 19.399 16.2129 19.2759 16.0899C19.1528 15.9668 18.9859 15.8977 18.8118 15.8977H15.2827C15.1964 15.8975 15.111 15.9144 15.0312 15.9473C14.9515 15.9802 14.879 16.0285 14.818 16.0895C14.7569 16.1504 14.7085 16.2228 14.6754 16.3025C14.6424 16.3822 14.6253 16.4676 14.6253 16.5539V19.5629H12.5422V12.424L17.0092 10.027Z" fill="#3CB7C6"/>
<path d="M10.4053 24.3149H24.5251C24.6992 24.3149 24.8661 24.2458 24.9892 24.1227C25.1123 23.9997 25.1814 23.8327 25.1814 23.6587C25.1814 23.4846 25.1123 23.3177 24.9892 23.1947C24.8661 23.0716 24.6992 23.0024 24.5251 23.0024H10.4053C10.2312 23.0024 10.0643 23.0716 9.94123 23.1947C9.81816 23.3177 9.74902 23.4846 9.74902 23.6587C9.74902 23.8327 9.81816 23.9997 9.94123 24.1227C10.0643 24.2458 10.2312 24.3149 10.4053 24.3149Z" fill="#3CB7C6"/>
<path d="M10.4053 27.4062H17.1242C17.2982 27.4062 17.4651 27.3371 17.5882 27.214C17.7113 27.091 17.7804 26.924 17.7804 26.75C17.7804 26.576 17.7113 26.409 17.5882 26.286C17.4651 26.1629 17.2982 26.0938 17.1242 26.0938H10.4053C10.2312 26.0938 10.0643 26.1629 9.94123 26.286C9.81816 26.409 9.74902 26.576 9.74902 26.75C9.74902 26.924 9.81816 27.091 9.94123 27.214C10.0643 27.3371 10.2312 27.4062 10.4053 27.4062Z" fill="#3CB7C6"/>
<path d="M22.2084 29.1851H10.4053C10.2312 29.1851 10.0643 29.2542 9.94123 29.3773C9.81816 29.5003 9.74902 29.6673 9.74902 29.8413C9.74902 30.0154 9.81816 30.1823 9.94123 30.3053C10.0643 30.4284 10.2312 30.4976 10.4053 30.4976H22.2084C22.3824 30.4976 22.5494 30.4284 22.6724 30.3053C22.7955 30.1823 22.8646 30.0154 22.8646 29.8413C22.8646 29.6673 22.7955 29.5003 22.6724 29.3773C22.5494 29.2542 22.3824 29.1851 22.2084 29.1851Z" fill="#3CB7C6"/>
<path d="M10.4053 33.5889H17.1242C17.2982 33.5889 17.4651 33.5197 17.5882 33.3967C17.7113 33.2736 17.7804 33.1067 17.7804 32.9326C17.7804 32.7586 17.7113 32.5917 17.5882 32.4686C17.4651 32.3455 17.2982 32.2764 17.1242 32.2764H10.4053C10.2312 32.2764 10.0643 32.3455 9.94123 32.4686C9.81816 32.5917 9.74902 32.7586 9.74902 32.9326C9.74902 33.1067 9.81816 33.2736 9.94123 33.3967C10.0643 33.5197 10.2312 33.5889 10.4053 33.5889Z" fill="#3CB7C6"/>
<path d="M22.2084 35.3672H10.4053C10.2312 35.3672 10.0643 35.4363 9.94123 35.5594C9.81816 35.6825 9.74902 35.8494 9.74902 36.0234C9.74902 36.1975 9.81816 36.3644 9.94123 36.4875C10.0643 36.6105 10.2312 36.6797 10.4053 36.6797H22.2084C22.3824 36.6797 22.5494 36.6105 22.6724 36.4875C22.7955 36.3644 22.8646 36.1975 22.8646 36.0234C22.8646 35.8494 22.7955 35.6825 22.6724 35.5594C22.5494 35.4363 22.3824 35.3672 22.2084 35.3672Z" fill="#3CB7C6"/>
<path d="M17.1245 38.4595H10.457C10.283 38.4595 10.1161 38.5286 9.99299 38.6517C9.86992 38.7748 9.80078 38.9417 9.80078 39.1157C9.80078 39.2898 9.86992 39.4567 9.99299 39.5798C10.1161 39.7028 10.283 39.772 10.457 39.772H17.1245C17.2986 39.772 17.4655 39.7028 17.5886 39.5798C17.7116 39.4567 17.7808 39.2898 17.7808 39.1157C17.7808 38.9417 17.7116 38.7748 17.5886 38.6517C17.4655 38.5286 17.2986 38.4595 17.1245 38.4595Z" fill="#3CB7C6"/>
<path d="M41.5217 32.31C41.519 30.1339 40.6959 28.0389 39.2166 26.4429C37.7373 24.847 35.7106 23.8675 33.541 23.7V11.25C33.5409 11.076 33.4717 10.9091 33.3486 10.7861L27.9111 5.34862C27.7881 5.22553 27.6213 5.15634 27.4472 5.15625H7.13574C6.96169 5.15625 6.79477 5.22539 6.6717 5.34846C6.54863 5.47153 6.47949 5.63845 6.47949 5.8125V42.1875C6.47949 42.3615 6.54863 42.5285 6.6717 42.6515C6.79477 42.7746 6.96169 42.8438 7.13574 42.8438H32.8847C33.0588 42.8438 33.2257 42.7746 33.3488 42.6515C33.4719 42.5285 33.541 42.3615 33.541 42.1875V40.9193C35.7105 40.7517 37.7371 39.7724 39.2164 38.1766C40.6956 36.5808 41.5189 34.486 41.5217 32.31ZM28.1039 7.39688L31.3004 10.5934H28.1039V7.39688ZM7.79199 41.5312V6.46875H26.7914V11.25C26.7914 11.424 26.8605 11.591 26.9836 11.714C27.1066 11.8371 27.2736 11.9062 27.4476 11.9062H32.2285V23.7C30.0583 23.8653 28.0306 24.8441 26.5512 26.4404C25.0718 28.0368 24.2499 30.133 24.2499 32.3094C24.2499 34.4859 25.0718 36.5821 26.5512 38.1784C28.0306 39.7748 30.0583 40.7536 32.2285 40.9189V41.5309L7.79199 41.5312ZM32.8847 39.6341C31.4361 39.6341 30.0199 39.2045 28.8154 38.3997C27.6109 37.5949 26.6721 36.4509 26.1178 35.1125C25.5634 33.7741 25.4184 32.3014 25.701 30.8805C25.9837 29.4597 26.6813 28.1546 27.7057 27.1303C28.7301 26.106 30.0352 25.4084 31.456 25.1258C32.8769 24.8432 34.3496 24.9883 35.688 25.5428C37.0263 26.0972 38.1702 27.0361 38.975 28.2406C39.7798 29.4452 40.2093 30.8613 40.2092 32.31C40.207 34.2518 39.4345 36.1135 38.0614 37.4865C36.6883 38.8596 34.8266 39.6319 32.8847 39.6341Z" fill="#3CB7C6"/>
<path d="M34.3022 30.2364C34.3022 30.4104 34.3714 30.5774 34.4945 30.7004C34.6175 30.8235 34.7844 30.8927 34.9585 30.8927C35.1325 30.8927 35.2995 30.8235 35.4225 30.7004C35.5456 30.5774 35.6147 30.4104 35.6147 30.2364C35.6137 29.6271 35.409 29.0357 35.0333 28.5561C34.6575 28.0765 34.1323 27.7362 33.541 27.5893V27.1187C33.541 26.9446 33.4719 26.7777 33.3488 26.6546C33.2257 26.5315 33.0588 26.4624 32.8847 26.4624C32.7107 26.4624 32.5438 26.5315 32.4207 26.6546C32.2976 26.7777 32.2285 26.9446 32.2285 27.1187V27.5893C31.6366 27.7351 31.1106 28.0751 30.7346 28.5549C30.3586 29.0348 30.1543 29.6268 30.1543 30.2364C30.1543 30.846 30.3586 31.438 30.7346 31.9179C31.1106 32.3977 31.6366 32.7377 32.2285 32.8835V35.633C31.9998 35.514 31.8079 35.3347 31.6738 35.1146C31.5396 34.8944 31.4682 34.6417 31.4672 34.3839C31.4672 34.2099 31.3981 34.0429 31.275 33.9199C31.152 33.7968 30.985 33.7277 30.811 33.7277C30.637 33.7277 30.47 33.7968 30.347 33.9199C30.2239 34.0429 30.1547 34.2099 30.1547 34.3839C30.1558 34.9932 30.3605 35.5846 30.7362 36.0642C31.112 36.5438 31.6372 36.8841 32.2285 37.031V37.511C32.2285 37.6851 32.2976 37.852 32.4207 37.9751C32.5438 38.0981 32.7107 38.1673 32.8847 38.1673C33.0588 38.1673 33.2257 38.0981 33.3488 37.9751C33.4719 37.852 33.541 37.6851 33.541 37.511V37.031C34.1329 36.8852 34.6589 36.5452 35.0349 36.0654C35.4109 35.5855 35.6152 34.9935 35.6152 34.3839C35.6152 33.7743 35.4109 33.1823 35.0349 32.7024C34.6589 32.2226 34.1329 31.8826 33.541 31.7368V28.9877C33.7697 29.1066 33.9615 29.2858 34.0956 29.5059C34.2298 29.726 34.3013 29.9786 34.3022 30.2364ZM31.4669 30.2364C31.4678 29.9786 31.5392 29.7259 31.6734 29.5057C31.8076 29.2856 31.9994 29.1063 32.2281 28.9873V31.4852C31.9994 31.3662 31.8077 31.187 31.6735 30.9669C31.5393 30.7468 31.4679 30.4942 31.4669 30.2364ZM34.3022 34.3839C34.3013 34.6417 34.2299 34.8944 34.0957 35.1146C33.9616 35.3347 33.7697 35.514 33.541 35.633V33.1352C33.7697 33.2541 33.9615 33.4333 34.0956 33.6534C34.2298 33.8735 34.3013 34.1261 34.3022 34.3839Z" fill="#3CB7C6"/>
</svg>
