<svg width="24" height="24" viewBox="0 0 24 24" fill="none" xmlns="http://www.w3.org/2000/svg">
<g clip-path="url(#clip0)">
<path d="M23.6484 14.3844H22.3225V12.0644C22.3225 11.6655 21.9979 11.3409 21.5989 11.3409H20.325C19.926 11.3409 19.6014 11.6654 19.6014 12.0644V14.3844H18.627V11.988C18.627 10.7685 17.6348 9.77637 16.4153 9.77637H14.7094C14.5152 9.77637 14.3579 9.93377 14.3579 10.1279C14.3579 10.3221 14.5152 10.4795 14.7094 10.4795H16.4153C17.2471 10.4795 17.9239 11.1562 17.9239 11.988V16.1626H16.7433V15.2259C16.7433 14.649 16.2739 14.1797 15.6971 14.1797H13.7011C13.1242 14.1797 12.6549 14.649 12.6549 15.2259V16.1626H11.3452V15.2259C11.3452 14.649 10.8758 14.1797 10.299 14.1797H8.30297C7.72608 14.1797 7.25677 14.649 7.25677 15.2259V16.1626H6.07612V11.988C6.07612 11.1562 6.75291 10.4795 7.5847 10.4795H13.3039C13.4981 10.4795 13.6555 10.3221 13.6555 10.1279C13.6555 9.93377 13.4981 9.77637 13.3039 9.77637H7.5847C6.36516 9.77637 5.373 10.7685 5.373 11.988V14.3844H4.39856V12.0644C4.39856 11.6655 4.07395 11.3409 3.675 11.3409H2.40112C2.00213 11.3409 1.67752 11.6654 1.67752 12.0644V14.3844H0.351562C0.157359 14.3844 0 14.5417 0 14.7359V19.0714C0 19.2656 0.157359 19.423 0.351562 19.423H3.73462V19.9594H3.01167C2.81747 19.9594 2.66011 20.1168 2.66011 20.311V22.1975C2.66011 22.3917 2.81747 22.5491 3.01167 22.5491H16.0457C16.2399 22.5491 16.3973 22.3917 16.3973 22.1975C16.3973 22.0033 16.2399 21.8459 16.0457 21.8459H3.36323V20.6626H20.6368V21.8459H17.4513C17.2571 21.8459 17.0998 22.0033 17.0998 22.1975C17.0998 22.3917 17.2571 22.5491 17.4513 22.5491H20.9884C21.1826 22.5491 21.3399 22.3917 21.3399 22.1975V20.311C21.3399 20.1168 21.1826 19.9594 20.9884 19.9594H20.2654V19.423H23.6484C23.8426 19.423 24 19.2656 24 19.0714V14.7359C24 14.5418 23.8426 14.3844 23.6484 14.3844ZM20.3046 12.0644C20.3046 12.0532 20.3138 12.044 20.325 12.044H21.599C21.6102 12.044 21.6194 12.0531 21.6194 12.0644V14.3844H20.3047V12.0644H20.3046ZM13.358 15.2259C13.358 15.0367 13.5119 14.8828 13.7011 14.8828H15.6971C15.8863 14.8828 16.0402 15.0367 16.0402 15.2259V16.1626H13.358V15.2259H13.358ZM7.95984 15.2259C7.95984 15.0367 8.11373 14.8828 8.30292 14.8828H10.2989C10.4881 14.8828 10.642 15.0367 10.642 15.2259V16.1626H7.9598V15.2259H7.95984ZM2.38064 12.0644C2.38064 12.0532 2.38983 12.044 2.40112 12.044H3.675C3.68625 12.044 3.69544 12.0531 3.69544 12.0644V14.3844H2.38064V12.0644ZM0.703125 18.7199V15.0875H5.37295V16.1626H5.35294C4.46058 16.1626 3.73462 16.8886 3.73462 17.7809V18.7199H0.703125V18.7199ZM4.43775 19.9595V17.7809C4.43775 17.2763 4.84833 16.8657 5.35294 16.8657H18.6471C19.1517 16.8657 19.5623 17.2763 19.5623 17.7809V19.9595H4.43775ZM23.2969 18.7199H20.2654V17.7809C20.2654 16.8886 19.5395 16.1626 18.6471 16.1626H18.627V15.0875H23.2969V18.7199Z" fill="#3CB7C6"/>
<path d="M15.5479 3.93707V7.3589C15.5479 7.70095 15.8261 7.9792 16.1681 7.9792H19.4494C19.7914 7.9792 20.0696 7.7009 20.0696 7.3589V2.07098C20.0696 1.72893 19.7914 1.45068 19.4494 1.45068H16.1681C15.8261 1.45068 15.5479 1.72898 15.5479 2.07098V3.93248V3.93707ZM16.251 7.27607V4.37545C17.2621 4.63936 18.0586 5.08317 18.6761 5.72592C18.893 5.95167 19.1251 6.16739 19.3665 6.3705V7.27607H16.251ZM19.3666 2.15381V5.42353C19.3043 5.36278 19.2431 5.30118 19.1831 5.23879C18.4362 4.46137 17.4746 3.94059 16.251 3.65104V2.15381H19.3666Z" fill="#3CB7C6"/>
<path d="M9.74123 3.93717V7.3589C9.74123 7.70095 10.0195 7.9792 10.3615 7.9792H13.6427C13.9848 7.9792 14.263 7.7009 14.263 7.3589V2.07098C14.263 1.72893 13.9847 1.45068 13.6427 1.45068H10.3615C10.0195 1.45068 9.74123 1.72898 9.74123 2.07098V3.93379C9.74118 3.93492 9.74123 3.93604 9.74123 3.93717ZM10.4444 7.27607V4.20389C11.3055 3.96853 12.0648 3.88551 12.7034 3.95817C12.9662 3.98803 13.2551 4.00687 13.5599 4.02431V7.27612H10.4444V7.27607ZM13.5599 2.15381V3.32001C13.2803 3.30384 13.0168 3.28612 12.7828 3.25954C12.0923 3.18107 11.3236 3.25237 10.4443 3.47643V2.15381H13.5599Z" fill="#3CB7C6"/>
<path d="M13.304 12.2617H10.6963C10.5021 12.2617 10.3447 12.4191 10.3447 12.6133C10.3447 12.8075 10.5021 12.9648 10.6963 12.9648H13.304C13.4982 12.9648 13.6556 12.8075 13.6556 12.6133C13.6556 12.4191 13.4982 12.2617 13.304 12.2617Z" fill="#3CB7C6"/>
<path d="M4.54998 7.9792H7.83119C8.17323 7.9792 8.45148 7.7009 8.45148 7.3589V2.07098C8.45148 1.72893 8.17319 1.45068 7.83119 1.45068H4.54998C4.20794 1.45068 3.92969 1.72898 3.92969 2.07098V3.43968C3.92969 3.63384 4.08705 3.79125 4.28125 3.79125C4.47545 3.79125 4.63281 3.63384 4.63281 3.43968V2.15381H7.74841V4.58826C7.47016 4.72125 7.18173 4.86473 6.88717 5.01722C6.00681 5.47307 5.2173 5.62172 4.63281 5.65354V4.84537C4.63281 4.65122 4.47545 4.49381 4.28125 4.49381C4.08705 4.49381 3.92969 4.65122 3.92969 4.84537V7.3589C3.92969 7.70095 4.20794 7.9792 4.54998 7.9792ZM7.21052 5.64159C7.39253 5.54732 7.5722 5.45653 7.74841 5.36967V7.27612H4.63281V6.35798C5.29919 6.32625 6.20594 6.16181 7.21052 5.64159Z" fill="#3CB7C6"/>
<path d="M3.3841 16.1621H2.69434C2.50013 16.1621 2.34277 16.3195 2.34277 16.5137C2.34277 16.7079 2.50013 16.8652 2.69434 16.8652H3.3841C3.57831 16.8652 3.73567 16.7079 3.73567 16.5137C3.73567 16.3195 3.57831 16.1621 3.3841 16.1621Z" fill="#3CB7C6"/>
<path d="M21.306 16.1621H20.6162C20.422 16.1621 20.2646 16.3195 20.2646 16.5137C20.2646 16.7079 20.422 16.8652 20.6162 16.8652H21.306C21.5002 16.8652 21.6576 16.7079 21.6576 16.5137C21.6576 16.3195 21.5002 16.1621 21.306 16.1621Z" fill="#3CB7C6"/>
</g>
<defs>
<clipPath id="clip0">
<rect width="24" height="24" fill="white"/>
</clipPath>
</defs>
</svg>
