<svg width="48" height="48" viewBox="0 0 48 48" fill="none" xmlns="http://www.w3.org/2000/svg">
<path d="M46.4165 27.9494L25.7537 0.868019C25.3389 0.324521 24.6831 0 23.9994 0C23.3157 0 22.6598 0.324521 22.245 0.868112L19.8954 3.94759C19.6594 4.2568 19.7189 4.69879 20.0281 4.93467C20.3375 5.17074 20.7792 5.11111 21.0153 4.80199L23.3647 1.72261C23.5149 1.52598 23.7521 1.40851 23.9994 1.40851C24.2468 1.40851 24.4839 1.52589 24.634 1.72252L44.4334 27.6724H42.4255L24.5594 4.25633C24.4261 4.08177 24.2191 3.97923 23.9994 3.97923C23.7798 3.97923 23.5727 4.08168 23.4395 4.25633L22.4133 5.60118C22.1774 5.91039 22.2368 6.35239 22.5461 6.58826C22.8555 6.82414 23.2971 6.7647 23.5332 6.45549L23.9994 5.84438L41.3728 28.6145V34.8221C41.3728 35.211 41.6881 35.5263 42.0771 35.5263C42.4661 35.5263 42.7814 35.211 42.7814 34.8221V29.0807H45.8567C46.1245 29.0807 46.3691 28.9288 46.4879 28.6887C46.6067 28.4488 46.579 28.1622 46.4165 27.9494Z" fill="#3CB7C6"/>
<path d="M43.0482 43.565H42.7818V37.8236C42.7818 37.4347 42.4666 37.1194 42.0776 37.1194C41.6886 37.1194 41.3733 37.4347 41.3733 37.8236V40.1624H28.4805V38.722C28.4805 36.2255 26.4495 34.1945 23.9531 34.1945C21.4566 34.1945 19.4256 36.2255 19.4256 38.722V40.1625H14.3319C13.9429 40.1625 13.6276 40.4778 13.6276 40.8668C13.6276 41.2557 13.9429 41.571 14.3319 41.571H19.4256V43.5651H6.62658V41.5709H11.3306C11.7197 41.5709 12.0349 41.2556 12.0349 40.8667C12.0349 40.4777 11.7197 40.1624 11.3306 40.1624H6.62658V28.6147L7.7025 27.2045C7.93847 26.8953 7.87903 26.4533 7.56981 26.2174C7.26032 25.9814 6.81861 26.041 6.58264 26.3502L5.57386 27.6725H3.56598L5.44616 25.2082C5.68213 24.899 5.62269 24.457 5.31347 24.2212C5.00388 23.985 4.56227 24.0446 4.3263 24.3538L1.5828 27.9495C1.42044 28.1624 1.39274 28.4489 1.51153 28.689C1.63031 28.929 1.87492 29.0809 2.14273 29.0809H5.21807V43.565H4.95167C4.09624 43.565 3.40025 44.261 3.40025 45.1164V47.2958C3.40025 47.6847 3.71547 48 4.1045 48H43.8955C44.2845 48 44.5998 47.6847 44.5998 47.2958V45.1164C44.5998 44.261 43.9038 43.565 43.0482 43.565V43.565ZM41.3733 41.5709V43.565H28.4805V41.5709H41.3733ZM20.8341 38.722C20.8341 37.0022 22.2333 35.6031 23.9531 35.6031C25.6728 35.6031 27.072 37.0022 27.072 38.722V43.5651H20.8341V38.722ZM43.1913 46.5916H4.80876V45.1165C4.80876 45.0377 4.87289 44.9736 4.95167 44.9736H43.0482C43.1271 44.9736 43.1912 45.0377 43.1912 45.1165V46.5916H43.1913Z" fill="#3CB7C6"/>
<path d="M13.4421 26.9507V28.3162C13.0898 28.355 12.8157 28.6534 12.8157 29.016C12.8157 29.4049 13.131 29.7203 13.52 29.7203H17.9469C18.3359 29.7203 18.6511 29.4049 18.6511 29.016C18.6511 28.6828 18.4196 28.4044 18.1088 28.3312V26.4388C19.3433 26.0213 20.4792 25.3889 21.4732 24.5871L34.0737 34.2936C34.5273 34.643 35.0717 34.8274 35.6348 34.8274C35.7461 34.8274 35.8581 34.8202 35.9703 34.8057C36.6502 34.7176 37.2551 34.3698 37.6734 33.8267C38.0919 33.2836 38.2737 32.6101 38.1855 31.9301C38.0972 31.2502 37.7496 30.6454 37.2065 30.227L34.4637 28.1143V24.2535C34.4637 22.9669 33.417 21.9201 32.1303 21.9201C30.8436 21.9201 29.7968 22.9668 29.7968 24.2535V24.5194L24.6095 20.5234C25.221 19.159 25.5616 17.6477 25.5616 16.0583C25.5616 10.0178 20.6474 5.10352 14.607 5.10352C12.1066 5.10352 9.75195 5.9243 7.7974 7.47714C7.49298 7.71912 7.44218 8.16205 7.68416 8.46666C7.92605 8.77119 8.36907 8.82199 8.67369 8.58C10.3764 7.22718 12.428 6.51212 14.607 6.51212C19.8708 6.51212 24.1531 10.7945 24.1531 16.0584C24.1531 21.3222 19.8708 25.6042 14.6071 25.6042C9.3432 25.6042 5.06085 21.3219 5.06085 16.058C5.06085 14.1016 5.64886 12.2211 6.76121 10.6195C6.983 10.3001 6.90403 9.86128 6.58449 9.63939C6.26504 9.4175 5.82615 9.49657 5.60435 9.81611C4.3273 11.6547 3.65234 13.8131 3.65234 16.0581C3.65225 21.705 7.94727 26.3672 13.4421 26.9507V26.9507ZM16.7003 28.3116H14.8507V27.0096C15.4818 26.9958 16.0996 26.9279 16.7003 26.8112V28.3116ZM31.2055 25.4812V24.2534C31.2055 23.7434 31.6204 23.3284 32.1304 23.3284C32.6403 23.3284 33.0553 23.7433 33.0553 24.2534V27.0291L31.1953 25.5963C31.2014 25.5588 31.2055 25.5205 31.2055 25.4812V25.4812ZM36.3469 31.3428C36.592 31.5316 36.7489 31.8045 36.7887 32.1112C36.8285 32.4181 36.7464 32.722 36.5576 32.9671C36.3688 33.2121 36.0959 33.369 35.789 33.4089C35.4825 33.4488 35.1783 33.3666 34.9333 33.1779L22.5258 23.6201C23.0593 23.0618 23.534 22.447 23.941 21.7862L36.3469 31.3428Z" fill="#3CB7C6"/>
<path d="M14.6074 24.1959C19.0946 24.1959 22.7451 20.5454 22.7451 16.0581C22.7451 11.5709 19.0946 7.92041 14.6074 7.92041C10.1203 7.92041 6.46973 11.5709 6.46973 16.0581C6.46973 20.5454 10.1202 24.1959 14.6074 24.1959ZM14.6074 9.32902C18.3179 9.32902 21.3366 12.3477 21.3366 16.0582C21.3366 19.7687 18.3179 22.7874 14.6074 22.7874C10.8969 22.7874 7.87824 19.7687 7.87824 16.0582C7.87824 12.3477 10.8969 9.32902 14.6074 9.32902V9.32902Z" fill="#3CB7C6"/>
</svg>
