<svg width="48" height="48" viewBox="0 0 48 48" fill="none" xmlns="http://www.w3.org/2000/svg">
<g clip-path="url(#clip0)">
<path d="M42.3419 33.6871H40.9314C41.0113 32.8387 40.7272 31.962 40.079 31.3138L33.6235 24.8583L34.5002 23.9817C34.775 23.7069 34.775 23.2613 34.5002 22.9866C34.2254 22.7118 33.7798 22.7118 33.5051 22.9866L30.9862 25.5055C30.2675 26.2243 29.3118 26.6201 28.2954 26.6201H26.5879C25.5715 26.6201 24.6158 26.2243 23.8971 25.5055C23.6223 25.2307 23.1767 25.2307 22.902 25.5055L20.1027 28.3048C19.3306 29.077 18.074 29.0771 17.3018 28.3048C16.9277 27.9308 16.7217 27.4333 16.7217 26.9044C16.7217 26.3754 16.9276 25.8781 17.3018 25.5039L23.7241 19.0816C24.2956 18.5101 25.0554 18.1954 25.8636 18.1954H30.1579C30.5465 18.1954 30.8616 17.8803 30.8616 17.4917C30.8616 17.1031 30.5465 16.7881 30.1579 16.7881H25.8636C24.6795 16.7881 23.5664 17.2492 22.729 18.0865L16.3067 24.5088C15.6669 25.1486 15.3145 25.9994 15.3145 26.9043C15.3145 27.8093 15.6669 28.6599 16.3067 29.2999C16.9672 29.9604 17.8348 30.2906 18.7023 30.2906C19.5699 30.2906 20.4375 29.9604 21.0979 29.2999L23.4328 26.965C24.3354 27.6542 25.433 28.0273 26.588 28.0273H28.2955C29.6879 28.0273 30.9968 27.4851 31.9814 26.5006L32.6285 25.8535L39.084 32.309C39.6895 32.9145 39.6895 33.8998 39.084 34.5053C38.4785 35.1108 37.4931 35.1108 36.8876 34.5053L32.9227 30.5403C32.6479 30.2654 32.2023 30.2655 31.9276 30.5403C31.6528 30.8151 31.6528 31.2606 31.9276 31.5353L36.4604 36.0683C36.7537 36.3615 36.9153 36.7516 36.9153 37.1664C36.9153 37.5813 36.7537 37.9713 36.4604 38.2646C36.167 38.5579 35.7771 38.7194 35.3622 38.7194C34.9473 38.7194 34.5573 38.5579 34.264 38.2646L28.4964 32.497C28.2216 32.2222 27.7761 32.2222 27.5014 32.497C27.2266 32.7718 27.2266 33.2173 27.5014 33.4921L31.7611 37.7518C32.3657 38.3574 32.3655 39.3419 31.7603 39.9472C31.1547 40.5528 30.1694 40.5527 29.5639 39.9472L25.328 35.7113C25.0533 35.4365 24.6078 35.4365 24.333 35.7113C24.0582 35.9861 24.0582 36.4316 24.333 36.7063L27.9557 40.3291C28.5612 40.9346 28.5612 41.9199 27.9557 42.5254C27.3501 43.131 26.3649 43.131 25.7593 42.5254L24.6278 41.394C24.7493 40.5073 24.4704 39.5757 23.7902 38.8955C23.1513 38.2566 22.2908 37.9721 21.4539 38.0405C21.5223 37.2036 21.2377 36.343 20.5988 35.7041C19.9603 35.0656 19.1003 34.781 18.2639 34.849C18.2704 34.7686 18.2745 34.6876 18.2745 34.606C18.2745 33.8153 17.9666 33.0718 17.4074 32.5128C16.8484 31.9536 16.1049 31.6457 15.3142 31.6457C15.2326 31.6457 15.1516 31.6498 15.0712 31.6563C15.1391 30.8199 14.8546 29.9599 14.216 29.3214C13.0618 28.1671 11.1837 28.1671 10.0295 29.3214L9.95575 29.3951C9.68095 29.6699 9.68095 30.1155 9.95575 30.3902C10.2305 30.665 10.6761 30.665 10.9508 30.3902L11.0245 30.3164C11.6301 29.7109 12.6154 29.7109 13.2209 30.3164C13.5142 30.6097 13.6758 30.9998 13.6758 31.4146C13.6758 31.8294 13.5143 32.2195 13.2209 32.5128L10.9531 34.7806C10.3475 35.3861 9.36243 35.3861 8.75672 34.7806C8.15121 34.1751 8.15121 33.1898 8.75672 32.5842L8.83037 32.5106C9.10517 32.2358 9.10517 31.7902 8.83037 31.5155C8.55557 31.2407 8.11002 31.2407 7.83531 31.5155L7.76166 31.5892C6.85142 32.4994 6.65965 33.8596 7.18504 34.9602H0.703653C0.315049 34.9602 0 35.2753 0 35.6639C0 36.0525 0.315049 36.3675 0.703653 36.3675H8.60792C9.00206 36.5501 9.42848 36.6413 9.8548 36.6413C9.93595 36.6413 10.017 36.6373 10.0979 36.6307C10.0295 37.4676 10.314 38.3282 10.953 38.9671C11.5301 39.5442 12.2881 39.8328 13.0463 39.8328C13.1269 39.8328 13.2076 39.8289 13.288 39.8223C13.2815 39.9027 13.2774 39.9837 13.2774 40.0653C13.2774 40.856 13.5853 41.5994 14.1445 42.1585C14.7035 42.7177 15.447 43.0256 16.2377 43.0256C16.3193 43.0256 16.4003 43.0215 16.4807 43.015C16.4127 43.8514 16.6973 44.7114 17.3358 45.3499C17.9129 45.927 18.671 46.2156 19.4291 46.2156C20.1871 46.2156 20.9452 45.927 21.5224 45.3499L23.7902 43.0821C23.8809 42.9914 23.9638 42.8957 24.0402 42.7966L24.7643 43.5206C25.3414 44.0977 26.0994 44.3863 26.8575 44.3863C27.6156 44.3863 28.3736 44.0978 28.9508 43.5206C29.4627 43.0087 29.7471 42.3543 29.8049 41.684C30.0793 41.7665 30.3674 41.8095 30.6621 41.8095C31.4528 41.8095 32.1962 41.5016 32.7554 40.9424C33.165 40.5328 33.4285 40.032 33.5473 39.5047C34.0643 39.9077 34.6963 40.1268 35.3622 40.1268C36.1529 40.1268 36.8964 39.8189 37.4554 39.2598C38.0146 38.7007 38.3225 37.9572 38.3225 37.1664C38.3225 36.8886 38.2837 36.6169 38.2101 36.3568C38.8917 36.3053 39.5589 36.0205 40.079 35.5004C40.2061 35.3733 40.3183 35.2371 40.4173 35.0944H42.3419C42.7305 35.0944 43.0455 34.7794 43.0455 34.3908C43.0455 34.0022 42.7305 33.6871 42.3419 33.6871ZM11.9481 37.9719C11.3426 37.3664 11.3426 36.3811 11.9481 35.7755L14.2159 33.5077C14.5092 33.2144 14.8993 33.0528 15.3141 33.0528C15.7289 33.0528 16.1189 33.2143 16.4123 33.5077C16.7057 33.8011 16.8672 34.191 16.8672 34.6059C16.8672 35.0208 16.7057 35.4108 16.4123 35.7041L14.1445 37.9719C13.5389 38.5775 12.5537 38.5774 11.9481 37.9719ZM16.2377 41.6182C15.8229 41.6182 15.4329 41.4566 15.1395 41.1633C14.8461 40.8699 14.6846 40.48 14.6846 40.0651C14.6846 39.6502 14.8461 39.2602 15.1395 38.9669L17.4072 36.6991C18.0129 36.0936 18.9982 36.0936 19.6036 36.6991C20.2091 37.3046 20.2091 38.2899 19.6036 38.8954L17.3358 41.1633C17.0425 41.4566 16.6525 41.6182 16.2377 41.6182ZM22.7951 42.0869L20.5272 44.3548C19.9216 44.9604 18.9364 44.9603 18.3309 44.3548C17.7254 43.7492 17.7254 42.7639 18.3309 42.1584L20.5987 39.8906C20.892 39.5973 21.282 39.4358 21.6969 39.4358C22.1118 39.4358 22.5018 39.5973 22.7951 39.8907C23.4006 40.4961 23.4006 41.4814 22.7951 42.0869Z" fill="#3CB7C6"/>
<path d="M32.4576 17.4345C32.4097 17.8201 32.6834 18.1716 33.0691 18.2196C33.7351 18.3023 34.3624 18.6085 34.8355 19.0816L37.0996 21.3458C37.2316 21.4778 37.4106 21.5519 37.5972 21.5519H47.2957C47.6843 21.5519 47.9993 21.2368 47.9993 20.8482C47.9993 20.4596 47.6843 20.1446 47.2957 20.1446H37.8887L35.8305 18.0865C35.137 17.393 34.2179 16.9443 33.2426 16.8231C32.8576 16.7752 32.5055 17.0488 32.4576 17.4345Z" fill="#3CB7C6"/>
<path d="M47.2961 33.687H45.3404C44.9518 33.687 44.6367 34.0021 44.6367 34.3907C44.6367 34.7793 44.9518 35.0943 45.3404 35.0943H47.2961C47.6847 35.0943 47.9998 34.7793 47.9998 34.3907C47.9998 34.0021 47.6847 33.687 47.2961 33.687Z" fill="#3CB7C6"/>
<path d="M0.772989 21.8687H9.76895C9.93642 21.8687 10.0984 21.8089 10.2258 21.7003L12.0145 20.1737C12.5419 19.7237 13.214 19.4759 13.9073 19.4759H19.2923C19.6809 19.4759 19.9959 19.1609 19.9959 18.7723C19.9959 18.3837 19.6809 18.0686 19.2923 18.0686H13.9073C12.8794 18.0686 11.8828 18.4361 11.101 19.1033L9.50963 20.4615H0.772989C0.384385 20.4615 0.0693359 20.7765 0.0693359 21.1651C0.0693359 21.5537 0.384385 21.8687 0.772989 21.8687Z" fill="#3CB7C6"/>
<path d="M27.2625 11.9413H19.9917C19.6031 11.9413 19.2881 12.2563 19.2881 12.6449C19.2881 13.0335 19.6031 13.3486 19.9917 13.3486H23.3159V14.4948C23.3159 14.8834 23.6309 15.1984 24.0195 15.1984C24.4081 15.1984 24.7232 14.8834 24.7232 14.4948V13.3486H27.2625C28.0833 13.3486 28.751 12.6808 28.751 11.8601V9.46318C28.751 8.64244 28.0833 7.97472 27.2625 7.97472H20.7765C20.7318 7.97472 20.6954 7.93831 20.6954 7.89366V5.90785C20.6954 5.8631 20.7318 5.8267 20.7765 5.8267H28.0473C28.436 5.8267 28.751 5.51165 28.751 5.12305C28.751 4.73444 28.436 4.41939 28.0473 4.41939H24.7701V3.33427C24.7701 2.94566 24.4551 2.63062 24.0665 2.63062C23.6778 2.63062 23.3628 2.94566 23.3628 3.33427V4.41939H20.7765C19.9558 4.41939 19.2881 5.08711 19.2881 5.90785V7.89375C19.2881 8.71449 19.9558 9.38212 20.7765 9.38212H27.2625C27.3073 9.38212 27.3437 9.41852 27.3437 9.46327V11.8602C27.3437 11.9049 27.3073 11.9413 27.2625 11.9413Z" fill="#3CB7C6"/>
<path d="M14.3602 7.88122C14.4 7.88122 14.4405 7.87775 14.4811 7.8708L15.361 7.71835C15.744 7.65192 16.0006 7.2878 15.9343 6.90492C15.8679 6.52204 15.504 6.26554 15.1209 6.33168L14.2409 6.48414C13.8579 6.55056 13.6013 6.91468 13.6677 7.29756C13.727 7.63982 14.0242 7.88122 14.3602 7.88122Z" fill="#3CB7C6"/>
<path d="M15.4308 3.07165L16.4147 3.73656C16.5355 3.81818 16.6725 3.85731 16.8081 3.85731C17.0339 3.85731 17.2557 3.74875 17.3918 3.5476C17.6093 3.22561 17.5247 2.78822 17.2028 2.57056L16.2189 1.90565C15.8968 1.68799 15.4594 1.77271 15.2419 2.09461C15.0242 2.4166 15.1088 2.85399 15.4308 3.07165Z" fill="#3CB7C6"/>
<path d="M32.1979 6.90468C32.1316 7.28756 32.3882 7.65177 32.7712 7.7181L33.6511 7.87056C33.6917 7.8776 33.7322 7.88098 33.7721 7.88098C34.108 7.88098 34.4052 7.63958 34.4645 7.29732C34.5309 6.91444 34.2743 6.55023 33.8913 6.4839L33.0114 6.33144C32.6286 6.2653 32.2643 6.52171 32.1979 6.90468Z" fill="#3CB7C6"/>
<path d="M31.3255 3.85709C31.461 3.85709 31.598 3.81796 31.7189 3.73634L32.7028 3.07143C33.0247 2.85386 33.1093 2.41647 32.8917 2.09439C32.6741 1.7724 32.2368 1.68777 31.9147 1.90543L30.9308 2.57034C30.6088 2.78791 30.5242 3.2253 30.7418 3.54738C30.8779 3.74854 31.0996 3.85709 31.3255 3.85709Z" fill="#3CB7C6"/>
</g>
<defs>
<clipPath id="clip0">
<rect width="48" height="48" fill="white"/>
</clipPath>
</defs>
</svg>
