<svg width="48" height="48" viewBox="0 0 48 48" fill="none" xmlns="http://www.w3.org/2000/svg">
<g clip-path="url(#clip0)">
<path d="M46.1247 31.5716L31.9401 12.9807C31.7045 12.672 31.2632 12.6127 30.9546 12.8483C30.6459 13.0838 30.5866 13.525 30.8221 13.8337L44.4002 31.6297H42.3956L29.724 15.0218C29.4884 14.7131 29.0472 14.6538 28.7386 14.8893C28.4299 15.1248 28.3705 15.5661 28.6061 15.8748L41.3447 32.5702V35.4902C41.3447 35.8785 41.6595 36.1933 42.0478 36.1933C42.436 36.1933 42.7508 35.8785 42.7508 35.4902V33.0357H45.4003C45.7493 33.0357 46.0623 32.8413 46.2171 32.5285C46.3718 32.2158 46.3365 31.8491 46.1247 31.5716Z" fill="#3CB7C6"/>
<path d="M18.8255 15.4606C18.517 15.2251 18.0756 15.2842 17.84 15.593L11.7623 23.5587C11.5268 23.8674 11.5861 24.3086 11.8948 24.5441C12.0221 24.6413 12.172 24.6883 12.3208 24.6883C12.5325 24.6883 12.7419 24.593 12.8803 24.4117L18.9579 16.446C19.1934 16.1373 19.1342 15.6962 18.8255 15.4606V15.4606Z" fill="#3CB7C6"/>
<path d="M43.0166 43.572H42.7506V38.4865C42.7506 38.0982 42.4359 37.7834 42.0476 37.7834C41.6593 37.7834 41.3445 38.0982 41.3445 38.4865V40.175H28.473V38.7369C28.473 36.2446 26.4454 34.217 23.953 34.217C21.4607 34.217 19.4331 36.2446 19.4331 38.7369V40.175H6.65527V32.5702L11.0608 26.7961C11.2964 26.4874 11.2371 26.0462 10.9284 25.8107C10.6198 25.5751 10.1785 25.6344 9.94291 25.9431L5.60419 31.6295H3.59973L16.3231 14.9539C16.5587 14.6451 16.4994 14.2039 16.1907 13.9684C15.882 13.7328 15.4407 13.7922 15.2052 14.1009L1.8752 31.5716C1.66352 31.8491 1.62818 32.2158 1.78295 32.5286C1.93773 32.8415 2.25074 33.0358 2.59975 33.0358H5.24918V43.5721H4.98323C4.12921 43.5721 3.43437 44.267 3.43437 45.121V47.2967C3.43437 47.685 3.74916 47.9998 4.13746 47.9998H43.8626C44.2509 47.9998 44.5657 47.685 44.5657 47.2967V45.121C44.5656 44.267 43.8707 43.572 43.0166 43.572V43.572ZM41.3446 41.5812V43.572H28.473V41.5812H41.3446ZM20.8393 38.737C20.8393 37.0201 22.2361 35.6233 23.953 35.6233C25.67 35.6233 27.0668 37.0201 27.0668 38.737V43.5721H20.8393V38.737ZM6.65527 41.5812H19.4331V43.572H6.65527V41.5812ZM43.1594 46.5936H4.84045V45.121C4.84045 45.0423 4.90448 44.9783 4.98313 44.9783H43.0166C43.0953 44.9783 43.1593 45.0423 43.1593 45.121V46.5936H43.1594Z" fill="#3CB7C6"/>
<path d="M32.117 25.8872C30.8325 25.8872 29.7875 26.9322 29.7875 28.2167V32.2877C29.4773 32.3609 29.2461 32.6387 29.2461 32.9713C29.2461 33.3596 29.5609 33.6744 29.9492 33.6744H34.3686C34.7569 33.6744 35.0717 33.3596 35.0717 32.9713C35.0717 32.6094 34.7981 32.3116 34.4465 32.2729V28.2168C34.4466 26.9323 33.4016 25.8872 32.117 25.8872V25.8872ZM31.1937 32.2683V28.2167C31.1937 27.7076 31.6079 27.2934 32.1171 27.2934C32.6264 27.2934 33.0405 27.7076 33.0405 28.2167V32.2683H31.1937Z" fill="#3CB7C6"/>
<path d="M15.7887 25.8872C14.5042 25.8872 13.4592 26.9322 13.4592 28.2167V32.2728C13.1075 32.3116 12.834 32.6094 12.834 32.9713C12.834 33.3595 13.1488 33.6743 13.5371 33.6743H17.9565C18.3448 33.6743 18.6596 33.3595 18.6596 32.9713C18.6596 32.6387 18.4284 32.3608 18.1182 32.2876V28.2166C18.1182 26.9323 17.0732 25.8872 15.7887 25.8872ZM14.8654 32.2683V28.2167C14.8654 27.7076 15.2795 27.2934 15.7887 27.2934C16.298 27.2934 16.7121 27.7076 16.7121 28.2167V32.2683H14.8654Z" fill="#3CB7C6"/>
<path d="M21.5328 19.3315C20.763 19.3315 20.1367 19.9579 20.1367 20.7276V25.8129C20.1367 26.5826 20.763 27.209 21.5328 27.209H26.3736C27.1433 27.209 27.7696 26.5826 27.7696 25.8129V20.7276C27.7696 19.9579 27.1433 19.3315 26.3736 19.3315H21.5328ZM26.3635 22.5673H24.6987V20.7378H26.3635V22.5673ZM23.2926 20.7377V22.5672H21.5429V20.7377H23.2926ZM21.5429 23.9734H23.2926V25.8029H21.5429V23.9734ZM24.6987 25.8029V23.9734H26.3635V25.8029H24.6987Z" fill="#3CB7C6"/>
<path d="M17.1633 12.5348C17.2099 13.0761 17.5725 13.5387 18.0871 13.7131C19.0369 14.0351 21.3252 14.7137 23.7214 14.7136C24.1161 14.7136 24.5136 14.6941 24.9086 14.6525C24.9126 14.6526 24.9164 14.6535 24.9203 14.6535C24.9767 14.6535 25.0339 14.6466 25.091 14.6324C25.0923 14.6321 25.0934 14.6315 25.0947 14.6313C26.3526 14.4754 27.5754 14.0785 28.5837 13.2882C29.9271 12.235 30.832 10.547 31.2736 8.27092C31.3475 7.88975 31.0984 7.52077 30.7172 7.44681C30.3357 7.37247 29.967 7.62192 29.8931 8.00318C29.75 8.74077 29.5545 9.40102 29.3087 9.9828L28.2174 5.71374L30.154 4.19563C30.1644 4.47583 30.17 4.79157 30.1662 5.13299C30.1619 5.52128 30.4732 5.83954 30.8615 5.84386C31.252 5.8507 31.568 5.53693 31.5723 5.14864C31.582 4.27494 31.535 3.56125 31.4975 3.1424L33.9033 1.25643C34.2089 1.01691 34.2624 0.574905 34.0228 0.26939C33.7833 -0.0362197 33.3412 -0.089842 33.0358 0.149865L30.6309 2.03508C29.0994 1.5057 23.4346 -0.185181 20.0819 2.44315C19.0481 3.25349 18.3615 4.38096 17.9102 5.59956C17.9095 5.60087 17.9087 5.60199 17.9081 5.60321C17.8811 5.65627 17.8624 5.7113 17.8498 5.7668C16.9299 8.38998 17.0641 11.3829 17.1633 12.5348V12.5348ZM18.5135 11.5342C18.4767 10.4264 18.5116 8.62275 18.9641 6.92896L22.2541 8.60184L18.5135 11.5342ZM19.381 12.6408L23.1359 9.69725L24.0344 13.3011C22.2573 13.3491 20.4629 12.9452 19.381 12.6408V12.6408ZM28.2833 11.6489C28.1062 11.8464 27.9171 12.0241 27.7161 12.1817C27.0667 12.6907 26.2822 12.9936 25.447 13.1544L24.3482 8.74696L27.0083 6.66169L28.2833 11.6489ZM29.2847 3.09037L27.3488 4.60792L23.444 2.53062C25.5365 2.18835 27.8925 2.69402 29.2847 3.09037V3.09037ZM20.9494 3.54972C21.1504 3.39223 21.3649 3.2563 21.5883 3.13603L26.1385 5.55681L23.4748 7.64489L19.4323 5.58943C19.7907 4.78913 20.281 4.07376 20.9494 3.54972V3.54972Z" fill="#3CB7C6"/>
</g>
<defs>
<clipPath id="clip0">
<rect width="48" height="48" fill="white"/>
</clipPath>
</defs>
</svg>
