<svg width="48" height="48" viewBox="0 0 48 48" fill="none" xmlns="http://www.w3.org/2000/svg">
<path d="M29.5358 19.2134C30.4415 19.2135 31.3269 18.945 32.0799 18.4419C32.833 17.9387 33.42 17.2236 33.7666 16.3868C34.1133 15.5501 34.204 14.6294 34.0273 13.7411C33.8506 12.8528 33.4145 12.0368 32.7741 11.3964C32.1337 10.7559 31.3177 10.3198 30.4294 10.1431C29.5411 9.96647 28.6204 10.0572 27.7836 10.4038C26.9469 10.7504 26.2317 11.3374 25.7286 12.0905C25.2255 12.8436 24.957 13.729 24.957 14.6347C24.9584 15.8486 25.4413 17.0124 26.2996 17.8708C27.158 18.7292 28.3218 19.212 29.5358 19.2134ZM29.5358 11.3681C30.1819 11.368 30.8135 11.5595 31.3507 11.9184C31.888 12.2773 32.3067 12.7874 32.554 13.3843C32.8013 13.9812 32.8661 14.638 32.7401 15.2717C32.6141 15.9054 32.303 16.4875 31.8461 16.9444C31.3893 17.4013 30.8073 17.7124 30.1736 17.8385C29.5399 17.9646 28.8831 17.8999 28.2862 17.6527C27.6892 17.4055 27.179 16.9868 26.8201 16.4496C26.4611 15.9124 26.2695 15.2808 26.2695 14.6347C26.2703 13.7686 26.6147 12.9382 27.227 12.3257C27.8394 11.7132 28.6697 11.3687 29.5358 11.3677V11.3681Z" fill="#3CB7C6"/>
<path d="M42.1875 41.5312H35.025V26.8365L36.9476 27.855C37.1014 27.9365 37.2813 27.9536 37.4477 27.9024C37.6141 27.8513 37.7534 27.7362 37.8349 27.5824C37.9164 27.4286 37.9334 27.2487 37.8823 27.0823C37.8312 26.9159 37.7161 26.7766 37.5622 26.6951L33.3315 24.4549C35.9063 21.6776 39.0135 17.6933 39.0135 14.6344C39.0135 12.1206 38.0149 9.70982 36.2374 7.93233C34.4599 6.15484 32.0491 5.15625 29.5354 5.15625C27.0216 5.15625 24.6108 6.15484 22.8333 7.93233C21.0558 9.70982 20.0573 12.1206 20.0573 14.6344C20.0573 16.3545 21.042 18.3679 22.3605 20.295L10.4355 26.6936C10.3596 26.7344 10.2924 26.7897 10.2378 26.8564C10.1833 26.9231 10.1424 26.9999 10.1175 27.0824C10.0926 27.1649 10.0842 27.2515 10.0928 27.3373C10.1014 27.423 10.1268 27.5063 10.1676 27.5822C10.2083 27.6581 10.2636 27.7253 10.3303 27.7799C10.397 27.8344 10.4738 27.8753 10.5564 27.9002C10.6389 27.9251 10.7255 27.9334 10.8112 27.9249C10.897 27.9163 10.9802 27.8909 11.0561 27.8501L12.9619 26.8275V41.5312H5.8125C5.63845 41.5312 5.47153 41.6004 5.34846 41.7235C5.22539 41.8465 5.15625 42.0135 5.15625 42.1875C5.15625 42.3615 5.22539 42.5285 5.34846 42.6515C5.47153 42.7746 5.63845 42.8438 5.8125 42.8438H42.1875C42.3615 42.8438 42.5285 42.7746 42.6515 42.6515C42.7746 42.5285 42.8438 42.3615 42.8438 42.1875C42.8438 42.0135 42.7746 41.8465 42.6515 41.7235C42.5285 41.6004 42.3615 41.5312 42.1875 41.5312ZM29.5354 6.46875C31.7003 6.47123 33.7758 7.33233 35.3066 8.86315C36.8374 10.394 37.6985 12.4695 37.701 14.6344C37.701 16.4644 36.2344 19.1295 33.459 22.3417C32.2243 23.7597 30.9146 25.1105 29.5354 26.3884C28.1565 25.1104 26.847 23.7596 25.6125 22.3417C22.8375 19.1299 21.3709 16.4644 21.3709 14.6344C21.3734 12.4697 22.2343 10.3943 23.7649 8.86354C25.2954 7.33276 27.3707 6.47153 29.5354 6.46875ZM14.2755 26.1229L23.1345 21.3694C24.9289 23.6753 26.9253 25.8167 29.1 27.768C29.2198 27.8735 29.374 27.9317 29.5337 27.9317C29.6934 27.9317 29.8475 27.8735 29.9674 27.768C30.0878 27.6619 31.0924 26.7698 32.3899 25.443L33.7125 26.1413V41.5312H28.1959V34.8187C28.1959 34.6447 28.1267 34.4778 28.0037 34.3547C27.8806 34.2316 27.7137 34.1625 27.5396 34.1625H20.4465C20.2725 34.1625 20.1055 34.2316 19.9825 34.3547C19.8594 34.4778 19.7902 34.6447 19.7902 34.8187V41.5312H14.2755V26.1229ZM26.8834 41.5312H21.1027V35.475H26.8834V41.5312Z" fill="#3CB7C6"/>
</svg>
