<svg width="48" height="48" viewBox="0 0 48 48" fill="none" xmlns="http://www.w3.org/2000/svg">
<g clip-path="url(#clip0)">
<path d="M32.1156 23.8853C30.8301 23.8853 29.7841 24.9312 29.7841 26.2168V30.2915C29.4735 30.3647 29.2422 30.6429 29.2422 30.9758C29.2422 31.3644 29.5572 31.6795 29.9459 31.6795H34.3693C34.7581 31.6795 35.0731 31.3644 35.0731 30.9758C35.0731 30.6135 34.7993 30.3154 34.4473 30.2766V26.2168C34.4473 24.9312 33.4014 23.8853 32.1156 23.8853ZM32.1156 25.2927C32.6252 25.2927 33.0399 25.7072 33.0399 26.2168V30.2721H31.1916V26.2168C31.1916 25.7072 31.6061 25.2927 32.1156 25.2927Z" fill="#3CB7C6"/>
<path d="M15.7729 23.8853C14.4873 23.8853 13.4413 24.9312 13.4413 26.2168V30.2766C13.0893 30.3153 12.8154 30.6134 12.8154 30.9758C12.8154 31.3644 13.1304 31.6795 13.5192 31.6795H17.9427C18.3314 31.6795 18.6464 31.3644 18.6464 30.9758C18.6464 30.6429 18.415 30.3647 18.1045 30.2915V26.2168C18.1044 24.9312 17.0585 23.8853 15.7729 23.8853ZM15.773 25.2927C16.2825 25.2927 16.6971 25.7072 16.6971 26.2168V30.2721H14.8487V26.2168C14.8487 25.7072 15.2634 25.2927 15.773 25.2927Z" fill="#3CB7C6"/>
<path d="M26.3665 25.2083C27.1371 25.2083 27.764 24.5814 27.764 23.8109V18.721C27.764 17.9506 27.1371 17.3237 26.3665 17.3237H21.5214C20.7509 17.3237 20.124 17.9506 20.124 18.721V23.8109C20.124 24.5814 20.7509 25.2083 21.5214 25.2083H26.3665ZM21.5316 21.9697H23.2828V23.8008H21.5316V21.9697ZM24.6903 23.8008V21.9697H26.3565V23.8008H24.6903ZM26.3564 20.5623H24.6902V18.7312H26.3564V20.5623ZM23.2828 18.7312V20.5623H21.5316V18.7312H23.2828Z" fill="#3CB7C6"/>
<path d="M38.9035 20.0967C38.6677 19.7878 38.2262 19.7283 37.9171 19.9641C37.6081 20.1999 37.5487 20.6415 37.7845 20.9505L44.4094 29.6331H42.4029L24.5503 6.23482C24.4171 6.06039 24.2102 5.95793 23.9907 5.95793C23.7713 5.95793 23.5644 6.06029 23.4312 6.23482L15.3951 16.7672C15.1593 17.0762 15.2187 17.5179 15.5276 17.7536C15.8368 17.9895 16.2782 17.9299 16.5141 17.621L19.9999 13.0525H22.6912L24.0171 14.3783C24.1545 14.5158 24.3346 14.5845 24.5147 14.5845C24.6948 14.5845 24.8749 14.5158 25.0124 14.3783C25.2872 14.1035 25.2872 13.6579 25.0123 13.3832L23.4803 11.8512C23.3484 11.7192 23.1695 11.6451 22.9827 11.6451H21.0738L23.9907 7.82195L32.9466 19.5599H31.8853C31.6987 19.5599 31.5198 19.634 31.3877 19.7661L30.4936 20.6602C30.2187 20.935 30.2187 21.3805 30.4935 21.6553C30.631 21.7928 30.8111 21.8615 30.9912 21.8615C31.1713 21.8615 31.3514 21.7928 31.4888 21.6553L32.1769 20.9674H34.0205L41.351 30.5749V33.8047H39.5085L38.0345 32.3307C37.7596 32.0559 37.3141 32.0559 37.0392 32.3307C36.7644 32.6056 36.7644 33.0512 37.0392 33.3259L37.518 33.8047H36.0749C35.8883 33.8047 35.7094 33.8788 35.5773 34.0109L34.1352 35.453C33.8603 35.7279 33.8603 36.1734 34.1351 36.4482C34.2726 36.5857 34.4526 36.6543 34.6328 36.6543C34.8128 36.6543 34.993 36.5857 35.1304 36.4482L36.3665 35.2122H41.3512V38.1865H28.4677V36.7471C28.4677 34.2526 26.4382 32.2231 23.9436 32.2231C21.4491 32.2231 19.4196 34.2526 19.4196 36.7471V38.1865H6.63049V35.9331H12.4359L13.2955 36.7928C13.433 36.9302 13.613 36.9989 13.7931 36.9989C13.9733 36.9989 14.1534 36.9301 14.2908 36.7926C14.5656 36.5178 14.5655 36.0722 14.2907 35.7975L13.2251 34.7319C13.093 34.5998 12.9141 34.5257 12.7274 34.5257H10.7606L11.4254 33.8609C11.7002 33.5861 11.7002 33.1405 11.4254 32.8658C11.1506 32.591 10.7051 32.5908 10.4301 32.8658L8.77 34.5256H6.63049V30.5747L14.6948 20.0053C14.9306 19.6963 14.8712 19.2547 14.5622 19.019C14.2529 18.783 13.8116 18.8426 13.5758 19.1516L5.57856 29.6331H3.5721L23.3566 3.703C23.5067 3.50652 23.7437 3.38914 23.9908 3.38914C24.238 3.38914 24.475 3.50643 24.6249 3.70291L35.9654 18.5662C36.2012 18.875 36.6428 18.9346 36.9519 18.6987C37.2609 18.463 37.3202 18.0214 37.0845 17.7124L25.7438 2.84905C25.3293 2.30597 24.674 1.98169 23.9907 1.98169C23.3075 1.98169 22.6522 2.30597 22.2376 2.84915L1.5905 29.91C1.42827 30.1227 1.40059 30.4091 1.51928 30.6489C1.63798 30.8888 1.88241 31.0406 2.15001 31.0406H5.22304V41.5864H4.95684C4.10205 41.5864 3.40658 42.2819 3.40658 43.1367V45.3144C3.40658 45.703 3.72157 46.0181 4.11031 46.0181H43.8714C44.2601 46.0181 44.5751 45.703 44.5751 45.3144V43.1367C44.5751 42.2819 43.8796 41.5864 43.0248 41.5864H42.7586V31.0406H45.8317C46.0993 31.0406 46.3437 30.8888 46.4624 30.6489C46.5812 30.4091 46.5535 30.1227 46.3912 29.91L38.9035 20.0967ZM23.9437 33.6304C25.6621 33.6304 27.0603 35.0285 27.0603 36.747V41.5864H20.8272V36.747C20.8272 35.0285 22.2252 33.6304 23.9437 33.6304ZM43.1675 43.1367V44.6107H4.81403V43.1367C4.81403 43.058 4.87812 42.9939 4.95684 42.9939H12.0194C12.4082 42.9939 12.7232 42.6788 12.7232 42.2901C12.7232 41.9015 12.4082 41.5864 12.0194 41.5864H6.63049V39.5938H19.4197V41.5864H15.0184C14.6297 41.5864 14.3147 41.9015 14.3147 42.2901C14.3147 42.6788 14.6297 42.9939 15.0184 42.9939H43.0247C43.1036 42.9939 43.1675 43.058 43.1675 43.1367ZM28.4677 41.5864V39.5938H41.3511V41.5864H28.4677Z" fill="#3CB7C6"/>
<path d="M45.4245 6.42261H31.6637C31.2749 6.42261 30.96 6.73769 30.96 7.12633C30.96 7.51498 31.2749 7.83006 31.6637 7.83006H45.4245C46.0689 7.83006 46.5933 8.35438 46.5933 8.9989C46.5933 9.64342 46.0689 10.1677 45.4245 10.1677H34.5212C34.1324 10.1677 33.8175 10.4828 33.8175 10.8715C33.8175 11.2601 34.1324 11.5752 34.5212 11.5752H45.4245C46.8451 11.5752 48.0007 10.4195 48.0007 8.9989C48.0007 7.57831 46.8451 6.42261 45.4245 6.42261Z" fill="#3CB7C6"/>
<path d="M11.2433 11.575H13.4616C13.8503 11.575 14.1653 11.2599 14.1653 10.8713C14.1653 10.4827 13.8503 10.1676 13.4616 10.1676H10.7735C10.4783 10.1676 10.2144 10.3519 10.1128 10.6291C9.4314 12.4885 7.64253 13.7378 5.6614 13.7378C4.0495 13.7378 2.54934 12.9064 1.68338 11.575H4.97926C6.39985 11.575 7.55555 10.4193 7.55555 8.99873C7.55555 7.57814 6.39966 6.42253 4.97907 6.42253H1.68319C2.54915 5.09117 4.0494 4.25975 5.66121 4.25975C7.64234 4.25975 9.43131 5.509 10.1126 7.36843C10.2142 7.6457 10.4781 7.82998 10.7734 7.82998H16.319C16.7077 7.82998 17.0227 7.5149 17.0227 7.12625C17.0227 6.73761 16.7077 6.42253 16.319 6.42253H11.2432C10.2467 4.2681 8.0628 2.85229 5.66121 2.85229C3.29069 2.85229 1.10661 4.23882 0.096903 6.38472C-0.0514424 6.69998 -0.0283602 7.06405 0.158549 7.35858C0.345834 7.65377 0.666264 7.82998 1.01569 7.82998H4.97898C5.62349 7.82998 6.14782 8.3543 6.14782 8.99882C6.14782 9.64334 5.62349 10.1677 4.97898 10.1677H1.01578C0.666358 10.1677 0.345928 10.3439 0.158549 10.6391C-0.0283602 10.9336 -0.0513485 11.2978 0.0969968 11.6129C1.1067 13.7587 3.29079 15.1453 5.66131 15.1453C8.06298 15.1453 10.2468 13.7295 11.2433 11.575Z" fill="#3CB7C6"/>
</g>
<defs>
<clipPath id="clip0">
<rect width="48" height="48" fill="white"/>
</clipPath>
</defs>
</svg>
