<svg width="48" height="48" viewBox="0 0 48 48" fill="none" xmlns="http://www.w3.org/2000/svg">
<g clip-path="url(#clip0)">
<path d="M8.16318 13.7835C8.11227 14.1409 8.20359 14.4965 8.42019 14.7852L9.44354 16.1489C9.70871 16.5021 10.1148 16.6883 10.5258 16.6883C10.808 16.6883 11.0926 16.6003 11.3352 16.4183L11.9308 15.9713V31.4567H10.9364C10.5479 31.4567 10.2331 31.7715 10.2331 32.16C10.2331 32.5484 10.5479 32.8632 10.9364 32.8632H37.042C37.4305 32.8632 37.7452 32.5484 37.7452 32.16C37.7452 31.7715 37.4305 31.4567 37.042 31.4567H36.2566V28.3822C36.2566 27.9937 35.9419 27.6789 35.5534 27.6789C35.1649 27.6789 34.8502 27.9937 34.8502 28.3822V31.4567H28.2103V29.3028C28.2103 26.9603 26.3044 25.0544 23.9618 25.0544C21.6192 25.0544 19.7133 26.9602 19.7133 29.3028V31.4567H13.3373V14.9157L24.0936 6.84289L34.8501 14.9157V25.3853C34.8501 25.7737 35.1648 26.0885 35.5533 26.0885C35.9418 26.0885 36.2565 25.7737 36.2565 25.3853V15.9713L36.8521 16.4182V16.4183C37.4479 16.8654 38.2965 16.7445 38.7437 16.1488L39.7672 14.7852C40.2143 14.1895 40.0934 13.3409 39.4975 12.8936L25.4163 2.32549C24.6374 1.74114 23.5498 1.74105 22.7709 2.32558L8.68967 12.8936C8.40116 13.1102 8.2141 13.4263 8.16318 13.7835ZM21.1197 29.3029C21.1197 27.7358 22.3946 26.4609 23.9617 26.4609C25.5288 26.4609 26.8037 27.7358 26.8037 29.3029V31.4568H21.1198V29.3029H21.1197ZM37.6963 15.2934L37.6959 15.2931C37.696 15.2932 37.6961 15.2933 37.6963 15.2934ZM23.6152 3.45048C23.8968 3.23904 24.2904 3.23894 24.572 3.45048L38.609 13.9852L37.6521 15.2602L24.5158 5.40126C24.3907 5.3074 24.2422 5.26042 24.0936 5.26042C23.9451 5.26042 23.7966 5.3074 23.6715 5.40126L10.5351 15.2603L9.57819 13.9853L23.6152 3.45048Z" fill="#3CB7C6"/>
<path d="M16.463 20.5694C16.0745 20.5694 15.7598 20.8842 15.7598 21.2727V23.1347C15.7598 23.8249 16.3211 24.3864 17.0113 24.3864H19.3385C20.0286 24.3864 20.5902 23.8249 20.5902 23.1347V17.176C20.5902 16.4859 20.0287 15.9243 19.3385 15.9243H17.0113C16.3212 15.9243 15.7598 16.4858 15.7598 17.176V18.2758C15.7598 18.6642 16.0745 18.979 16.463 18.979C16.8515 18.979 17.1662 18.6642 17.1662 18.2758V17.3309H19.1837V22.9799H17.1662V21.2727C17.1662 20.8843 16.8515 20.5694 16.463 20.5694Z" fill="#3CB7C6"/>
<path d="M28.5857 15.9243C27.8955 15.9243 27.334 16.4858 27.334 17.176V23.1347C27.334 23.8248 27.8954 24.3864 28.5857 24.3864H30.9128C31.6029 24.3864 32.1644 23.8249 32.1644 23.1347V17.176C32.1644 16.4859 31.603 15.9243 30.9128 15.9243H28.5857ZM30.7579 22.9798H28.7405V17.3308H30.7579V22.9798Z" fill="#3CB7C6"/>
<path d="M46.9093 18.6631H38.3666C37.9781 18.6631 37.6633 18.9779 37.6633 19.3663C37.6633 19.7548 37.9781 20.0696 38.3666 20.0696H46.5937V45.5168H9.17589C8.78742 45.5168 8.47266 45.8315 8.47266 46.22C8.47266 46.6085 8.78742 46.9232 9.17589 46.9232H46.9093C47.5108 46.9232 48.0002 46.4339 48.0002 45.8324V19.754C48.0002 19.1525 47.5108 18.6631 46.9093 18.6631Z" fill="#3CB7C6"/>
<path d="M6.17882 45.5168H2.10755C1.72096 45.5168 1.40647 45.2023 1.40647 44.8156V20.7707C1.40647 20.3841 1.72096 20.0696 2.10765 20.0696H9.8213C10.2098 20.0696 10.5245 19.7548 10.5245 19.3663C10.5245 18.9779 10.2098 18.6631 9.8213 18.6631H2.10765C0.945431 18.6631 0 19.6085 0 20.7707V44.8156C0 45.9778 0.945431 46.9232 2.10755 46.9232H6.17892C6.56738 46.9232 6.88215 46.6085 6.88215 46.22C6.88215 45.8315 6.56729 45.5168 6.17882 45.5168Z" fill="#3CB7C6"/>
<path d="M30.1424 34.7588C29.2851 37.4402 26.8167 39.2417 24 39.2417C21.1834 39.2417 18.715 37.4402 17.8576 34.7588C17.7393 34.3888 17.3436 34.1847 16.9736 34.3032C16.6037 34.4216 16.3997 34.8172 16.518 35.1872C17.5624 38.4536 20.5691 40.6482 24 40.6482C27.4309 40.6482 30.4377 38.4536 31.482 35.1872C31.6004 34.8173 31.3963 34.4215 31.0264 34.3032C30.6561 34.1847 30.2606 34.3889 30.1424 34.7588Z" fill="#3CB7C6"/>
<path d="M41.084 43.4071C41.084 41.5306 42.6107 39.9976 44.4873 39.9898C44.8745 39.9881 45.1876 39.6738 45.1876 39.2865V26.2998C45.1876 25.9126 44.8745 25.5983 44.4873 25.5966C42.6107 25.5888 41.084 24.0557 41.084 22.1793C41.084 21.7908 40.7692 21.4761 40.3807 21.4761H38.3669C37.9784 21.4761 37.6636 21.7908 37.6636 22.1793C37.6636 22.5678 37.9784 22.8825 38.3669 22.8825H39.7287C40.0362 24.9719 41.6924 26.6343 43.781 26.9492V38.637C41.6925 38.9521 40.0362 40.6144 39.7287 42.7038H8.28991C7.98208 40.6055 6.31831 38.9418 4.21995 38.6339V26.9524C6.31831 26.6446 7.98208 24.9809 8.28991 22.8825H9.82174C10.2102 22.8825 10.525 22.5678 10.525 22.1793C10.525 21.7908 10.2102 21.4761 9.82174 21.4761H7.63777C7.2493 21.4761 6.93453 21.7908 6.93453 22.1793C6.93453 24.0639 5.40129 25.597 3.51671 25.597C3.12825 25.597 2.81348 25.9118 2.81348 26.3003V39.286C2.81348 39.6745 3.12825 39.9893 3.51671 39.9893C5.40139 39.9893 6.93453 41.5225 6.93453 43.407C6.93453 43.7955 7.2493 44.1102 7.63777 44.1102H40.3807C40.7692 44.1103 41.084 43.7955 41.084 43.4071Z" fill="#3CB7C6"/>
<path d="M3.31456 7.88485C2.9261 7.88485 2.61133 8.19962 2.61133 8.58809C2.61133 8.97655 2.9261 9.29132 3.31456 9.29132H5.47528V9.90351C5.47528 10.292 5.79005 10.6067 6.17852 10.6067C6.56699 10.6067 6.88175 10.292 6.88175 9.90351V9.29132H8.48438C9.17984 9.29132 9.74561 8.72554 9.74561 8.03018V6.32582C9.74561 5.63037 9.17984 5.06459 8.48438 5.06459H4.0178V3.75545H9.04247C9.43094 3.75545 9.74571 3.44068 9.74571 3.05221C9.74571 2.66374 9.43094 2.34897 9.04247 2.34897H6.91504V1.78038C6.91504 1.39192 6.60027 1.07715 6.2118 1.07715C5.82334 1.07715 5.50857 1.39192 5.50857 1.78038V2.34897H3.87256C3.17711 2.34897 2.61133 2.91475 2.61133 3.6102V5.20983C2.61133 5.90529 3.17711 6.47106 3.87256 6.47106H8.33923V7.88485H3.31456Z" fill="#3CB7C6"/>
<path d="M42.4708 13.9455C42.0823 13.9455 41.7676 14.2603 41.7676 14.6487C41.7676 15.0372 42.0823 15.352 42.4708 15.352H43.6939V15.9641C43.6939 16.3525 44.0087 16.6673 44.3971 16.6673C44.7856 16.6673 45.1004 16.3525 45.1004 15.9641V15.352H45.7654C46.4609 15.352 47.0267 14.7862 47.0267 14.0907V12.3864C47.0267 11.6909 46.4609 11.1251 45.7654 11.1251H43.174V9.81599H46.3234C46.7119 9.81599 47.0267 9.50123 47.0267 9.11276C47.0267 8.72429 46.7119 8.40952 46.3234 8.40952H45.1337V7.84093C45.1337 7.45246 44.819 7.1377 44.4305 7.1377C44.042 7.1377 43.7273 7.45246 43.7273 7.84093V8.40952H43.0289C42.3335 8.40952 41.7677 8.9753 41.7677 9.67075V11.2704C41.7677 11.9658 42.3335 12.5316 43.0289 12.5316H45.6203V13.9455H42.4708Z" fill="#3CB7C6"/>
</g>
<defs>
<clipPath id="clip0">
<rect width="48" height="48" fill="white"/>
</clipPath>
</defs>
</svg>
