<svg width="64" height="64" viewBox="0 0 64 64" fill="none" xmlns="http://www.w3.org/2000/svg">
<mask id="path-1-outside-1" maskUnits="userSpaceOnUse" x="0" y="9" width="64" height="46" fill="black">
<rect fill="white" y="9" width="64" height="46"/>
<path d="M62 43H61V35C60.9986 33.9396 60.5767 32.923 59.8269 32.1731C59.077 31.4233 58.0604 31.0014 57 31V14C56.9986 12.9396 56.5767 11.923 55.8269 11.1731C55.077 10.4233 54.0604 10.0014 53 10H11C9.93956 10.0014 8.92295 10.4233 8.17311 11.1731C7.42326 11.923 7.00139 12.9396 7 14V31C5.93956 31.0014 4.92295 31.4233 4.17311 32.1731C3.42326 32.923 3.00139 33.9396 3 35V43H2C1.73478 43 1.48043 43.1054 1.29289 43.2929C1.10536 43.4804 1 43.7348 1 44V48C1 48.2652 1.10536 48.5196 1.29289 48.7071C1.48043 48.8946 1.73478 49 2 49H3V53C3 53.2652 3.10536 53.5196 3.29289 53.7071C3.48043 53.8946 3.73478 54 4 54H7C7.23112 54.0001 7.45512 53.9201 7.63383 53.7735C7.81253 53.6269 7.93488 53.4229 7.98 53.1963L8.82 49H55.18L56.02 53.1963C56.0651 53.4229 56.1875 53.6269 56.3662 53.7735C56.5449 53.9201 56.7689 54.0001 57 54H60C60.2652 54 60.5196 53.8946 60.7071 53.7071C60.8946 53.5196 61 53.2652 61 53V49H62C62.2652 49 62.5196 48.8946 62.7071 48.7071C62.8946 48.5196 63 48.2652 63 48V44C63 43.7348 62.8946 43.4804 62.7071 43.2929C62.5196 43.1054 62.2652 43 62 43ZM9 14C9.00069 13.4698 9.21163 12.9615 9.58655 12.5866C9.96148 12.2116 10.4698 12.0007 11 12H53C53.5302 12.0007 54.0385 12.2116 54.4134 12.5866C54.7884 12.9615 54.9993 13.4698 55 14V31H53V27C52.9986 25.9396 52.5767 24.923 51.8269 24.1731C51.077 23.4233 50.0604 23.0014 49 23H37C35.9396 23.0014 34.923 23.4233 34.1731 24.1731C33.4233 24.923 33.0014 25.9396 33 27V31H31V27C30.9986 25.9396 30.5767 24.923 29.8269 24.1731C29.077 23.4233 28.0604 23.0014 27 23H15C13.9396 23.0014 12.923 23.4233 12.1731 24.1731C11.4233 24.923 11.0014 25.9396 11 27V31H9V14ZM51 27V31H35V27C35.0007 26.4698 35.2116 25.9615 35.5866 25.5866C35.9615 25.2116 36.4698 25.0007 37 25H49C49.5302 25.0007 50.0385 25.2116 50.4134 25.5866C50.7884 25.9615 50.9993 26.4698 51 27ZM29 27V31H13V27C13.0007 26.4698 13.2116 25.9615 13.5866 25.5866C13.9615 25.2116 14.4698 25.0007 15 25H27C27.5302 25.0007 28.0385 25.2116 28.4134 25.5866C28.7884 25.9615 28.9993 26.4698 29 27ZM5 35C5.00069 34.4698 5.21163 33.9615 5.58655 33.5866C5.96148 33.2116 6.46978 33.0007 7 33H57C57.5302 33.0007 58.0385 33.2116 58.4134 33.5866C58.7884 33.9615 58.9993 34.4698 59 35V43H5V35ZM6.18 52H5V49H6.78L6.18 52ZM59 52H57.82L57.22 49H59V52ZM61 47H3V45H61V47Z"/>
</mask>
<path d="M62 43H61V35C60.9986 33.9396 60.5767 32.923 59.8269 32.1731C59.077 31.4233 58.0604 31.0014 57 31V14C56.9986 12.9396 56.5767 11.923 55.8269 11.1731C55.077 10.4233 54.0604 10.0014 53 10H11C9.93956 10.0014 8.92295 10.4233 8.17311 11.1731C7.42326 11.923 7.00139 12.9396 7 14V31C5.93956 31.0014 4.92295 31.4233 4.17311 32.1731C3.42326 32.923 3.00139 33.9396 3 35V43H2C1.73478 43 1.48043 43.1054 1.29289 43.2929C1.10536 43.4804 1 43.7348 1 44V48C1 48.2652 1.10536 48.5196 1.29289 48.7071C1.48043 48.8946 1.73478 49 2 49H3V53C3 53.2652 3.10536 53.5196 3.29289 53.7071C3.48043 53.8946 3.73478 54 4 54H7C7.23112 54.0001 7.45512 53.9201 7.63383 53.7735C7.81253 53.6269 7.93488 53.4229 7.98 53.1963L8.82 49H55.18L56.02 53.1963C56.0651 53.4229 56.1875 53.6269 56.3662 53.7735C56.5449 53.9201 56.7689 54.0001 57 54H60C60.2652 54 60.5196 53.8946 60.7071 53.7071C60.8946 53.5196 61 53.2652 61 53V49H62C62.2652 49 62.5196 48.8946 62.7071 48.7071C62.8946 48.5196 63 48.2652 63 48V44C63 43.7348 62.8946 43.4804 62.7071 43.2929C62.5196 43.1054 62.2652 43 62 43ZM9 14C9.00069 13.4698 9.21163 12.9615 9.58655 12.5866C9.96148 12.2116 10.4698 12.0007 11 12H53C53.5302 12.0007 54.0385 12.2116 54.4134 12.5866C54.7884 12.9615 54.9993 13.4698 55 14V31H53V27C52.9986 25.9396 52.5767 24.923 51.8269 24.1731C51.077 23.4233 50.0604 23.0014 49 23H37C35.9396 23.0014 34.923 23.4233 34.1731 24.1731C33.4233 24.923 33.0014 25.9396 33 27V31H31V27C30.9986 25.9396 30.5767 24.923 29.8269 24.1731C29.077 23.4233 28.0604 23.0014 27 23H15C13.9396 23.0014 12.923 23.4233 12.1731 24.1731C11.4233 24.923 11.0014 25.9396 11 27V31H9V14ZM51 27V31H35V27C35.0007 26.4698 35.2116 25.9615 35.5866 25.5866C35.9615 25.2116 36.4698 25.0007 37 25H49C49.5302 25.0007 50.0385 25.2116 50.4134 25.5866C50.7884 25.9615 50.9993 26.4698 51 27ZM29 27V31H13V27C13.0007 26.4698 13.2116 25.9615 13.5866 25.5866C13.9615 25.2116 14.4698 25.0007 15 25H27C27.5302 25.0007 28.0385 25.2116 28.4134 25.5866C28.7884 25.9615 28.9993 26.4698 29 27ZM5 35C5.00069 34.4698 5.21163 33.9615 5.58655 33.5866C5.96148 33.2116 6.46978 33.0007 7 33H57C57.5302 33.0007 58.0385 33.2116 58.4134 33.5866C58.7884 33.9615 58.9993 34.4698 59 35V43H5V35ZM6.18 52H5V49H6.78L6.18 52ZM59 52H57.82L57.22 49H59V52ZM61 47H3V45H61V47Z" fill="#3CB7C6"/>
<path d="M62 43H61V35C60.9986 33.9396 60.5767 32.923 59.8269 32.1731C59.077 31.4233 58.0604 31.0014 57 31V14C56.9986 12.9396 56.5767 11.923 55.8269 11.1731C55.077 10.4233 54.0604 10.0014 53 10H11C9.93956 10.0014 8.92295 10.4233 8.17311 11.1731C7.42326 11.923 7.00139 12.9396 7 14V31C5.93956 31.0014 4.92295 31.4233 4.17311 32.1731C3.42326 32.923 3.00139 33.9396 3 35V43H2C1.73478 43 1.48043 43.1054 1.29289 43.2929C1.10536 43.4804 1 43.7348 1 44V48C1 48.2652 1.10536 48.5196 1.29289 48.7071C1.48043 48.8946 1.73478 49 2 49H3V53C3 53.2652 3.10536 53.5196 3.29289 53.7071C3.48043 53.8946 3.73478 54 4 54H7C7.23112 54.0001 7.45512 53.9201 7.63383 53.7735C7.81253 53.6269 7.93488 53.4229 7.98 53.1963L8.82 49H55.18L56.02 53.1963C56.0651 53.4229 56.1875 53.6269 56.3662 53.7735C56.5449 53.9201 56.7689 54.0001 57 54H60C60.2652 54 60.5196 53.8946 60.7071 53.7071C60.8946 53.5196 61 53.2652 61 53V49H62C62.2652 49 62.5196 48.8946 62.7071 48.7071C62.8946 48.5196 63 48.2652 63 48V44C63 43.7348 62.8946 43.4804 62.7071 43.2929C62.5196 43.1054 62.2652 43 62 43ZM9 14C9.00069 13.4698 9.21163 12.9615 9.58655 12.5866C9.96148 12.2116 10.4698 12.0007 11 12H53C53.5302 12.0007 54.0385 12.2116 54.4134 12.5866C54.7884 12.9615 54.9993 13.4698 55 14V31H53V27C52.9986 25.9396 52.5767 24.923 51.8269 24.1731C51.077 23.4233 50.0604 23.0014 49 23H37C35.9396 23.0014 34.923 23.4233 34.1731 24.1731C33.4233 24.923 33.0014 25.9396 33 27V31H31V27C30.9986 25.9396 30.5767 24.923 29.8269 24.1731C29.077 23.4233 28.0604 23.0014 27 23H15C13.9396 23.0014 12.923 23.4233 12.1731 24.1731C11.4233 24.923 11.0014 25.9396 11 27V31H9V14ZM51 27V31H35V27C35.0007 26.4698 35.2116 25.9615 35.5866 25.5866C35.9615 25.2116 36.4698 25.0007 37 25H49C49.5302 25.0007 50.0385 25.2116 50.4134 25.5866C50.7884 25.9615 50.9993 26.4698 51 27ZM29 27V31H13V27C13.0007 26.4698 13.2116 25.9615 13.5866 25.5866C13.9615 25.2116 14.4698 25.0007 15 25H27C27.5302 25.0007 28.0385 25.2116 28.4134 25.5866C28.7884 25.9615 28.9993 26.4698 29 27ZM5 35C5.00069 34.4698 5.21163 33.9615 5.58655 33.5866C5.96148 33.2116 6.46978 33.0007 7 33H57C57.5302 33.0007 58.0385 33.2116 58.4134 33.5866C58.7884 33.9615 58.9993 34.4698 59 35V43H5V35ZM6.18 52H5V49H6.78L6.18 52ZM59 52H57.82L57.22 49H59V52ZM61 47H3V45H61V47Z" stroke="#3CB7C6" mask="url(#path-1-outside-1)"/>
</svg>
