<svg width="64" height="64" viewBox="0 0 64 64" fill="none" xmlns="http://www.w3.org/2000/svg">
<path d="M17.7676 18.1289C17.7676 20.4848 19.8899 22.3946 22.5079 22.3946C25.1259 22.3946 27.2483 20.4848 27.2483 18.1289C27.2483 15.7731 25.1259 13.8633 22.5079 13.8633C19.8899 13.8633 17.7676 15.7731 17.7676 18.1289ZM24.8781 18.1289C24.8781 19.3068 23.8169 20.2617 22.5079 20.2617C21.1989 20.2617 20.1377 19.3068 20.1377 18.1289C20.1377 16.951 21.1989 15.9961 22.5079 15.9961C23.8169 15.9961 24.8781 16.951 24.8781 18.1289Z" fill="#3CB7C6"/>
<path d="M1.50846 27.2894L0.690747 28.0253C0.186391 28.481 -0.0624847 29.1172 0.0134164 29.7568C0.0893176 30.3963 0.481889 30.9709 1.08182 31.3205L3.28608 32.6855C2.61451 32.8868 2.07807 33.3476 1.82351 33.942C1.56895 34.5363 1.62291 35.2019 1.97064 35.7567C2.9695 36.9475 4.39155 37.7943 5.99993 38.1562C6.89221 38.516 7.91312 38.5141 8.80379 38.1511C9.69447 37.7881 10.3694 37.0988 10.6573 36.258L11.0958 36.6525C11.0958 38.668 11.4395 45.5464 13.5845 49.4495C15.9546 53.6298 19.3914 57.8528 19.3914 60.6788C19.2929 61.5533 19.6246 62.4229 20.2993 63.0587C20.9739 63.6944 21.9238 64.0328 22.8992 63.9846C23.9373 64.0944 24.9409 63.6087 25.4116 62.7689C26.253 61.116 27.687 62.2677 28.8839 60.8281C29.2484 60.3884 29.3943 59.8324 29.2868 59.2924C29.303 58.2438 29.5826 57.2121 30.1046 56.2745C31.4556 53.0753 31.8585 51.3477 30.1046 47.37C34.0864 44.9812 37.4165 41.75 43.6619 36.1407C44.7641 35.1596 44.0056 34.0078 45.1314 33.0267C45.5217 32.9485 45.9263 32.9485 46.3165 33.0267C47.1615 33.05 47.9678 32.7081 48.4858 32.107C49.0038 31.5059 49.171 30.7181 48.9356 29.9875C48.1882 28.3637 47.1201 26.8751 45.7832 25.5939L45.4159 25.3486L46.5061 24.5061C46.5061 24.5061 46.5061 24.4208 46.5061 24.3995L48.0467 25.2633C48.633 25.5286 49.3152 25.5634 49.931 25.3592L50.9739 24.89L50.3221 26.5643C50.0644 27.5107 50.5522 28.4939 51.5072 28.953L54.1973 30.5313C54.8044 30.8467 55.5356 30.9041 56.1942 30.688C56.8528 30.4719 57.3713 30.0046 57.6104 29.4116C58.2503 27.8013 59.7435 23.781 59.7435 21.2429C59.7435 19.8779 61.296 19.334 62.2204 19.1101C63.2551 18.8645 63.9787 18.0255 63.9861 17.0626V15.143C64.0859 14.163 63.6426 13.2016 62.801 12.573C61.6752 11.7518 58.8547 10.8987 55.4417 12.9356C51.6968 15.1857 51.8864 18.2143 48.9237 19.0994C48.7963 19.1348 48.66 19.1348 48.5326 19.0994C47.9993 18.8541 47.5609 17.0946 47.1579 16.1988C46.8661 15.5497 46.2388 15.0709 45.4795 14.9176C44.7203 14.7644 43.9258 14.9562 43.3538 15.431L41.6473 16.7533C40.923 17.4014 40.7415 18.394 41.1969 19.2167C41.2681 19.334 41.3036 19.366 41.8487 20.0485L40.4029 21.3282L38.5305 20.827C37.4307 20.5217 36.2462 20.9715 35.7219 21.8934C35.6434 22.0225 35.4665 22.074 35.3189 22.0107L32.5103 20.635C32.9119 19.7199 33.1363 18.7497 33.1739 17.7664C33.1014 13.3103 29.5372 9.52239 24.665 8.72324C25.1908 7.96959 25.8287 7.28427 26.5612 6.68639C27.4089 5.97415 27.5593 4.81451 26.9167 3.94572L25.7316 2.32478C25.0686 1.42875 23.7675 1.11775 22.6978 1.59962L19.6403 2.95396L17.0331 0.618518C16.5975 0.229618 16.0112 0.00789878 15.3977 0H11.2973C10.5066 0.00131723 9.76881 0.357288 9.33002 0.949106L7.96717 2.77267C7.61463 3.24524 7.48663 3.825 7.61164 4.38295C7.84866 5.44936 8.4649 5.63065 10.3255 6.78237L10.1833 7.02765C9.67007 7.95386 9.96987 9.07795 10.8943 9.69367L14.2955 11.9331C13.4569 12.8141 12.8133 13.8312 12.3994 14.9297L8.3464 19.8672L7.6472 19.462C6.56673 18.9019 5.18879 19.1909 4.49487 20.1232C4.42376 20.2085 4.40006 20.2725 3.17943 22.4266C2.67905 23.1284 2.67905 24.0283 3.17943 24.7301L5.19407 27.0975L3.71271 26.7029C2.91472 26.5433 2.08164 26.765 1.50846 27.2894ZM30.8038 17.7664C30.8038 19.8992 27.924 24.7407 23.1126 30.67C22.9741 30.8398 22.7541 30.9402 22.52 30.9402C22.2859 30.9402 22.0659 30.8398 21.9275 30.67C17.1397 24.7407 14.2126 19.9099 14.2126 17.7664C14.2653 15.8345 15.1691 14.0006 16.725 12.6686C18.2809 11.3365 20.3613 10.6154 22.5082 10.6641C24.655 10.6154 26.7354 11.3365 28.2913 12.6686C29.8472 14.0006 30.751 15.8345 30.8038 17.7664ZM22.5082 36.258C20.8176 36.2526 19.2581 35.4375 18.4154 34.1186C17.5727 32.7998 17.5743 31.177 18.4196 29.8595C18.9648 30.5633 19.5099 31.2458 20.0432 31.8963C20.6288 32.6074 21.5542 33.0268 22.5378 33.0268C23.5214 33.0268 24.4468 32.6074 25.0324 31.8963C25.542 31.2565 26.0871 30.5847 26.6204 29.8915C27.4497 31.2102 27.4394 32.8259 26.5932 34.1359C25.747 35.4459 24.192 36.2537 22.5082 36.258ZM11.6528 5.01213L9.93441 3.94572L11.2973 2.13282H15.3977L18.0048 4.46826C18.7278 5.1164 19.8306 5.27536 20.7424 4.86283L23.7881 3.50849L24.9731 5.10811C23.7695 6.06271 22.7938 7.2273 22.1052 8.53129C19.9221 8.59222 17.8124 9.25481 16.0613 10.4295L12.3164 7.97675L12.4468 7.73148C12.9775 6.77412 12.6379 5.61108 11.6528 5.01213ZM7.10206 28.3772C7.69467 27.6527 7.71838 26.6714 7.16131 25.9244C4.95705 23.3011 5.18222 23.6103 5.26517 23.461L6.45026 21.3282L7.13761 21.7334C8.19824 22.2819 9.54851 22.014 10.2544 21.1149L12.0202 18.9821C12.589 21.4455 14.651 24.8047 16.9738 27.9933C14.6259 30.6054 14.9229 34.4067 17.6539 36.6975C20.3849 38.9883 24.6196 38.9883 27.3506 36.6975C30.0816 34.4067 30.3786 30.6054 28.0307 27.9933C29.3452 26.233 30.5328 24.3986 31.5859 22.5013L34.1812 23.7703C35.495 24.3967 37.1241 23.9602 37.8432 22.7892L39.7393 23.3011C40.5429 23.5065 41.4074 23.3161 42.0147 22.7999L43.5908 21.5628C44.3598 20.8668 44.5016 19.7884 43.9345 18.9501L43.3894 18.2676L45.0248 17.0626C45.5462 18.2356 45.8662 20.3151 47.5135 21.0723C48.2242 21.3698 49.0411 21.3853 49.7651 21.1149C53.8655 19.8992 53.5574 16.6893 56.8756 14.7165C59.1391 13.3621 60.8338 13.81 61.4145 14.2259C61.7345 14.4605 61.6634 14.5032 61.6989 17.0946C59.0088 17.6704 57.4089 19.2274 57.4089 21.2749C57.4089 23.5357 55.8801 27.5347 55.4061 28.7398L52.7871 27.2041C52.6686 27.1188 52.396 27.8653 53.2848 25.5725C53.4939 24.809 53.2191 24.0039 52.5698 23.4776C51.9205 22.9513 51.002 22.7892 50.1799 23.0558L49.1607 23.4184L47.7149 22.5972C46.8336 22.2014 45.7722 22.3372 45.0485 22.9385L43.8634 23.8449C43.014 24.6009 42.9225 25.8076 43.6501 26.6603C44.8869 27.8205 45.9074 29.1529 46.672 30.606C46.6641 30.7163 46.6089 30.8195 46.518 30.8939C45.4489 30.6635 44.3214 30.879 43.4486 31.4804C42.5502 32.3355 42.0206 33.4511 41.9554 34.6264C36.1011 39.8731 32.4747 43.3603 28.7536 45.5891C27.8649 46.1298 27.4907 47.1401 27.841 48.0525C28.4758 49.3306 28.8338 50.706 28.8958 52.1048C28.8958 54.4936 26.5256 57.117 26.9404 59.5697C25.3453 59.6492 23.9369 60.5326 23.3022 61.8518C22.1171 61.9905 21.7853 61.6279 21.7853 60.6468C21.7853 57.085 18.1352 52.7873 15.7295 48.4684C13.7622 44.9279 13.5134 37.9855 13.4897 36.6312C13.4687 36.0887 13.2186 35.5739 12.7905 35.1916L12.352 34.797C11.7792 34.2834 10.955 34.0681 10.1657 34.2257C9.37632 34.3833 8.73071 34.8921 8.45305 35.5755C8.18048 36.2153 7.83681 36.5032 6.74653 36.1726C5.70592 35.9519 4.76147 35.4583 4.03269 34.7543C4.90482 34.4979 5.53413 33.8115 5.64825 32.9923C5.76236 32.173 5.34079 31.3681 4.56597 30.9259L2.36172 29.5289L3.13202 28.7824L4.62523 29.177C5.55458 29.3852 6.53184 29.0696 7.10206 28.3772Z" fill="#3CB7C6"/>
</svg>
