<svg width="64" height="64" viewBox="0 0 64 64" fill="none" xmlns="http://www.w3.org/2000/svg">
<g clip-path="url(#clip0)">
<path d="M31.9992 0C18.401 0 7.33789 11.0649 7.33789 24.6654C7.33789 34.3834 11.4064 44.2135 19.1034 53.0934C24.8523 59.7257 30.5498 63.4833 30.7897 63.6398C31.157 63.8803 31.5782 64.0003 31.9995 64.0003C32.4207 64.0003 32.8417 63.8803 33.2093 63.6401C33.4489 63.4833 39.1473 59.7257 44.8964 53.0934C52.5943 44.2138 56.6632 34.3834 56.6632 24.6654C56.6629 11.0649 45.5989 0 31.9992 0ZM31.9971 59.076C27.4616 55.7061 11.7596 42.731 11.7596 24.6654C11.7596 13.503 20.8388 4.4217 31.9992 4.4217C43.1605 4.4217 52.2412 13.503 52.2412 24.6654C52.2412 42.6889 36.5311 55.6981 31.9971 59.076Z" fill="#3CB7C6"/>
<path d="M33.5641 14.7616C32.7013 13.8988 31.3011 13.8982 30.438 14.7616L20.6722 24.5262C19.8085 25.3896 19.8085 26.7895 20.6719 27.6526C21.1038 28.0845 21.6695 28.3003 22.2355 28.3003C22.4548 28.3003 22.6738 28.2669 22.8854 28.2021V32.9949C22.8854 34.2162 23.875 35.2058 25.0963 35.2058H38.9073C40.1286 35.2058 41.1182 34.2162 41.1182 32.9949V28.203C41.8746 28.4341 42.7312 28.2516 43.3299 27.6529C44.1933 26.7895 44.1933 25.3896 43.3296 24.5265L33.5641 14.7616ZM27.3071 30.7844V24.145L32.0012 19.4515L36.6965 24.1465V30.7844H27.3071Z" fill="#3CB7C6"/>
</g>
<defs>
<clipPath id="clip0">
<rect width="64" height="64" fill="white"/>
</clipPath>
</defs>
</svg>
