<svg width="64" height="64" viewBox="0 0 64 64" fill="none" xmlns="http://www.w3.org/2000/svg">
<g clip-path="url(#clip0)">
<path d="M61.998 31.5735C59.8581 29.8098 56.4759 29.6586 54.256 32.041L48.7451 37.9568C48.0326 35.667 45.894 33.9996 43.373 33.9996H33.5386C32.7924 33.9996 32.5425 33.7146 31.2463 32.716C26.304 28.4075 18.8808 28.4212 13.9535 32.7572L10.3388 35.9395C8.71388 35.0795 6.8165 35.0582 5.18275 35.8745L1.03675 37.9468C0.110501 38.4106 -0.264374 39.5367 0.198001 40.463L11.4474 62.9616C11.9111 63.8878 13.0373 64.2627 13.9635 63.8003L18.1095 61.7267C20.1531 60.7056 21.2905 58.6206 21.2167 56.4983H43.3729C47.4814 56.4983 51.4074 54.536 53.8722 51.2487L62.873 39.247C64.6191 36.9207 64.3429 33.5096 61.998 31.5735ZM16.432 58.3731L13.9634 59.608L4.39025 40.463L6.86013 39.2281C7.78638 38.7656 8.91125 39.1393 9.375 40.0668L17.2708 55.8583C17.7332 56.7845 17.3582 57.9093 16.432 58.3731ZM59.8731 36.997L50.8725 48.9987C49.1114 51.3473 46.3078 52.7485 43.373 52.7485H19.9081L12.8823 38.6956L16.4307 35.5721C19.9618 32.466 25.2865 32.466 28.8175 35.5721C30.8974 37.4032 32.191 37.7495 33.5385 37.7495H43.3729C44.4066 37.7495 45.2477 38.5907 45.2477 39.6243C45.2477 40.658 44.4065 41.4992 43.3729 41.4992H33.7972C32.7622 41.4992 31.9224 42.3392 31.9224 43.3741C31.9224 44.409 32.7624 45.249 33.7972 45.249H44.6291C46.1852 45.249 47.6852 44.5965 48.7451 43.4578L56.9996 34.5971C57.7546 33.7871 58.912 33.8546 59.622 34.4758C60.3644 35.1257 60.4445 36.237 59.8731 36.997Z" fill="#3CB7C6"/>
<path d="M39.4229 12.796C40.7065 11.4498 41.4978 9.62996 41.4978 7.62621C41.4978 3.49896 38.163 0.00170898 33.9983 0.00170898C29.8648 0.00170898 26.3738 3.49271 26.3738 7.62621C26.3738 9.56858 27.135 11.4022 28.5174 12.811C25.0889 14.7333 22.624 18.4231 22.624 22.7503V24.6252C22.624 25.6601 23.464 26.5001 24.4989 26.5001H43.3728C44.4076 26.5001 45.2476 25.6601 45.2476 24.6252V22.7503C45.2475 18.5081 42.9141 14.7608 39.4229 12.796ZM33.9983 3.75158C36.0306 3.75158 37.748 5.52646 37.748 7.62633C37.748 9.69371 36.0656 11.3761 33.9983 11.3761C31.8984 11.3761 30.1235 9.65871 30.1235 7.62633C30.1235 5.56271 31.9346 3.75158 33.9983 3.75158ZM26.3738 22.7503C26.3738 18.6168 29.8648 15.1258 33.9983 15.1258C38.133 15.1258 41.4978 18.5456 41.4978 22.7503H26.3738Z" fill="#3CB7C6"/>
</g>
<defs>
<clipPath id="clip0">
<rect width="64" height="64" fill="white"/>
</clipPath>
</defs>
</svg>
