<svg width="300" height="300" viewBox="0 0 300 300" fill="none" xmlns="http://www.w3.org/2000/svg">
<path d="M300 229.44H0V229.59H300V229.44Z" fill="#EBEBEB"/>
<path d="M269.94 239.094H250.068V239.244H269.94V239.094Z" fill="#EBEBEB"/>
<path d="M198.732 240.726H193.518V240.876H198.732V240.726Z" fill="#EBEBEB"/>
<path d="M249.468 233.526H237.954V233.676H249.468V233.526Z" fill="#EBEBEB"/>
<path d="M57.3896 234.534H31.4756V234.684H57.3896V234.534Z" fill="#EBEBEB"/>
<path d="M66.5343 234.534H62.7363V234.684H66.5343V234.534Z" fill="#EBEBEB"/>
<path d="M135.09 237.066H78.8818V237.216H135.09V237.066Z" fill="#EBEBEB"/>
<path d="M142.2 202.68H26.3458C25.4382 202.678 24.5683 202.317 23.9271 201.674C23.2859 201.032 22.9258 200.162 22.9258 199.254V36.396C22.9337 35.4936 23.2973 34.6308 23.9376 33.9949C24.578 33.3591 25.4434 33.0015 26.3458 33H142.2C143.108 33 143.98 33.361 144.622 34.0035C145.265 34.646 145.626 35.5174 145.626 36.426V199.254C145.626 200.163 145.265 201.034 144.622 201.677C143.98 202.319 143.108 202.68 142.2 202.68ZM26.3458 33.12C25.478 33.1216 24.6463 33.4674 24.0332 34.0816C23.4201 34.6958 23.0758 35.5282 23.0758 36.396V199.254C23.0758 200.122 23.4201 200.954 24.0332 201.568C24.6463 202.183 25.478 202.528 26.3458 202.53H142.2C143.068 202.528 143.901 202.183 144.515 201.569C145.129 200.955 145.474 200.122 145.476 199.254V36.396C145.474 35.5276 145.129 34.6953 144.515 34.0813C143.901 33.4672 143.068 33.1216 142.2 33.12H26.3458Z" fill="#EBEBEB"/>
<path d="M271.986 202.68H156.126C155.218 202.678 154.348 202.317 153.705 201.675C153.063 201.033 152.702 200.162 152.7 199.254V36.396C152.71 35.4931 153.075 34.6302 153.716 33.9946C154.357 33.3589 155.223 33.0015 156.126 33H271.986C272.888 33.0031 273.751 33.3613 274.39 33.997C275.03 34.6327 275.392 35.4947 275.4 36.396V199.254C275.4 200.161 275.041 201.03 274.401 201.672C273.761 202.314 272.893 202.677 271.986 202.68ZM156.126 33.12C155.258 33.1216 154.425 33.4672 153.811 34.0813C153.197 34.6953 152.852 35.5276 152.85 36.396V199.254C152.852 200.122 153.197 200.955 153.811 201.569C154.425 202.183 155.258 202.528 156.126 202.53H271.986C272.855 202.528 273.687 202.183 274.301 201.569C274.915 200.955 275.261 200.122 275.262 199.254V36.396C275.261 35.5276 274.915 34.6953 274.301 34.0813C273.687 33.4672 272.855 33.1216 271.986 33.12H156.126Z" fill="#EBEBEB"/>
<path d="M107.484 145.614L246.498 145.614V53.172L107.484 53.172V145.614Z" fill="#E6E6E6"/>
<path d="M105.33 145.614L244.344 145.614V53.172L105.33 53.172V145.614Z" fill="#F5F5F5"/>
<path d="M240.48 141.27V57.504L109.188 57.504V141.27H240.48Z" fill="white"/>
<path d="M110.82 141.276V57.5099H109.194V141.276H110.82Z" fill="#E6E6E6"/>
<path d="M106.926 121.056L242.748 121.056V115.23L106.926 115.23V121.056Z" fill="#F5F5F5"/>
<g opacity="0.4">
<path opacity="0.4" d="M114.138 48.606H101.016V126.81H114.138V48.606Z" fill="#E6E6E6"/>
<path opacity="0.4" d="M114.143 120.528H120.647L120.647 48.606H114.143L114.143 120.528Z" fill="#F5F5F5"/>
<path opacity="0.4" d="M133.769 48.606H120.647V126.81H133.769V48.606Z" fill="#E6E6E6"/>
<path opacity="0.4" d="M133.775 120.528H140.279V48.606H133.775V120.528Z" fill="#F5F5F5"/>
<path opacity="0.4" d="M153.401 48.606H140.279V126.81H153.401V48.606Z" fill="#E6E6E6"/>
<path opacity="0.4" d="M153.407 120.528H159.911V48.606H153.407V120.528Z" fill="#F5F5F5"/>
<path opacity="0.4" d="M173.033 48.606H159.911V126.81H173.033V48.606Z" fill="#E6E6E6"/>
<path opacity="0.4" d="M173.04 120.528H179.544V48.606H173.04V120.528Z" fill="#F5F5F5"/>
<path opacity="0.4" d="M192.666 48.606H179.544V126.81H192.666V48.606Z" fill="#E6E6E6"/>
<path opacity="0.4" d="M192.666 120.528H199.17V48.606H192.666V120.528Z" fill="#F5F5F5"/>
<path opacity="0.4" d="M212.292 48.606H199.17V126.81H212.292V48.606Z" fill="#E6E6E6"/>
<path opacity="0.4" d="M212.298 120.528H218.802V48.606H212.298V120.528Z" fill="#F5F5F5"/>
<path opacity="0.4" d="M231.924 48.606H218.802V126.81H231.924V48.606Z" fill="#E6E6E6"/>
<path opacity="0.4" d="M231.93 120.528H238.434V48.606H231.93V120.528Z" fill="#F5F5F5"/>
<path opacity="0.4" d="M251.556 48.606H238.434V126.81H251.556V48.606Z" fill="#E6E6E6"/>
</g>
<path d="M49.6742 229.44H80.4482L80.4482 166.2H49.6742L49.6742 229.44Z" fill="#EBEBEB"/>
<path d="M55.5178 229.44H49.6738V216.558H61.6498L55.5178 229.44Z" fill="#F5F5F5"/>
<path d="M225.258 229.44H256.032V166.2H225.258V229.44Z" fill="#EBEBEB"/>
<path d="M49.6744 221.538L230.358 221.538V166.2L49.6744 166.2V221.538Z" fill="#F5F5F5"/>
<path d="M224.352 205.926H170.79C170.659 205.926 170.534 205.874 170.442 205.782C170.35 205.69 170.298 205.565 170.298 205.434V170.4C170.298 170.27 170.35 170.144 170.442 170.052C170.534 169.96 170.659 169.908 170.79 169.908H180.678C180.784 169.906 180.888 169.94 180.972 170.004C182.442 171.079 184.072 171.915 185.802 172.482C187.888 173.173 190.072 173.521 192.27 173.514H202.866C206.919 173.585 210.889 172.362 214.2 170.022C214.282 169.959 214.384 169.925 214.488 169.926H224.382C224.512 169.926 224.637 169.978 224.73 170.07C224.822 170.162 224.874 170.288 224.874 170.418V205.434C224.874 205.501 224.86 205.568 224.834 205.63C224.807 205.691 224.768 205.747 224.719 205.793C224.67 205.839 224.613 205.875 224.549 205.898C224.486 205.92 224.419 205.93 224.352 205.926ZM171.282 204.942H223.86V170.91H214.62C211.175 173.311 207.064 174.57 202.866 174.51H192.27C189.966 174.517 187.676 174.151 185.49 173.424C183.715 172.842 182.04 171.992 180.522 170.904H171.282V204.942Z" fill="#E6E6E6"/>
<path d="M166.8 205.926H113.232C113.102 205.926 112.977 205.874 112.884 205.782C112.792 205.69 112.74 205.565 112.74 205.434V170.4C112.74 170.27 112.792 170.144 112.884 170.052C112.977 169.96 113.102 169.908 113.232 169.908H122.586C122.692 169.906 122.796 169.94 122.88 170.004C124.34 171.078 125.96 171.914 127.68 172.482C129.766 173.173 131.951 173.521 134.148 173.514H144.744C148.784 173.574 152.737 172.344 156.03 170.004C156.115 169.941 156.218 169.908 156.324 169.908H166.8C166.865 169.907 166.929 169.919 166.989 169.944C167.05 169.968 167.104 170.005 167.15 170.05C167.196 170.096 167.232 170.151 167.256 170.211C167.281 170.271 167.293 170.335 167.292 170.4V205.416C167.295 205.482 167.284 205.548 167.26 205.61C167.236 205.672 167.201 205.728 167.155 205.776C167.109 205.823 167.054 205.861 166.993 205.887C166.932 205.913 166.866 205.926 166.8 205.926ZM113.73 204.942H166.308V170.91H156.516C153.076 173.31 148.969 174.569 144.774 174.51H134.178C131.874 174.517 129.585 174.151 127.398 173.424C125.62 172.845 123.942 171.995 122.424 170.904H113.724L113.73 204.942Z" fill="#E6E6E6"/>
<path d="M109.243 205.926H55.6805C55.55 205.926 55.4249 205.874 55.3326 205.782C55.2403 205.69 55.1885 205.565 55.1885 205.434V170.4C55.1877 170.335 55.1999 170.271 55.2243 170.211C55.2488 170.151 55.285 170.096 55.3308 170.05C55.3767 170.005 55.4312 169.968 55.4913 169.944C55.5513 169.919 55.6157 169.907 55.6805 169.908H65.0345C65.1386 169.907 65.2401 169.941 65.3225 170.004C66.7832 171.076 68.4029 171.912 70.1225 172.482C72.2108 173.173 74.397 173.521 76.5965 173.514H87.1925C91.2356 173.573 95.1925 172.343 98.4905 170.004C98.5748 169.94 98.6785 169.906 98.7845 169.908H109.213C109.343 169.908 109.468 169.96 109.56 170.052C109.653 170.144 109.705 170.27 109.705 170.4V205.416C109.709 205.545 109.664 205.67 109.578 205.765C109.491 205.861 109.371 205.918 109.243 205.926ZM56.1725 204.942H108.751V170.91H99.0005C95.5577 173.31 91.4487 174.569 87.2525 174.51H76.6265C74.3226 174.518 72.0326 174.152 69.8465 173.424C68.0685 172.846 66.3907 171.995 64.8725 170.904H56.1725V204.942Z" fill="#E6E6E6"/>
<path d="M224.514 229.44H230.358V216.558H218.388L224.514 229.44Z" fill="#F5F5F5"/>
<path d="M86.3643 155.604H81.5103C81.5463 152.244 81.5103 143.712 81.1683 124.17C80.5683 88.77 79.4463 86.586 79.4463 86.586L85.2003 104.07C86.5666 108.182 87.362 112.462 87.5643 116.79C88.2003 130.422 85.8003 141.306 86.3643 155.604Z" fill="#E6E6E6"/>
<path d="M90.0538 98.796C96.5278 88.998 109.452 83.886 122.664 79.074C127.848 77.184 113.292 100.626 102.708 111.258C94.4878 119.514 86.5078 119.328 84.1498 127.458C83.6938 118.014 84.4738 107.238 90.0538 98.796Z" fill="#E6E6E6"/>
<path d="M82.6377 92.508C77.5617 81.048 64.7397 66.186 50.3277 55.716C44.6697 51.606 58.6317 86.916 68.4777 101.352C76.1457 112.608 83.2977 119.46 84.4137 127.488C89.2497 117.444 87.7077 103.962 82.6377 92.508Z" fill="#E6E6E6"/>
<path d="M83.1185 166.2C85.8625 166.2 88.5025 165.15 90.4972 163.266C92.4919 161.382 93.6903 158.806 93.8465 156.066L94.8005 146.352H71.4365L72.3845 156.066C72.5423 158.806 73.7419 161.382 75.7376 163.266C77.7333 165.15 80.3739 166.2 83.1185 166.2Z" fill="#F0F0F0"/>
<path d="M69.924 146.406H96.312L97.068 142.956H69.168L69.924 146.406Z" fill="#F0F0F0"/>
<path d="M71.226 152.322H95.01L95.694 148.872H70.542L71.226 152.322Z" fill="#F0F0F0"/>
<path d="M150 256.536C214.249 256.536 266.334 253.495 266.334 249.744C266.334 245.993 214.249 242.952 150 242.952C85.7505 242.952 33.666 245.993 33.666 249.744C33.666 253.495 85.7505 256.536 150 256.536Z" fill="#F5F5F5"/>
<path d="M243.168 190.998H56.8262V212.094H243.168V190.998Z" fill="#3CB7C6"/>
<path opacity="0.3" d="M243.174 190.998H203.202V212.094H243.174V190.998Z" fill="black"/>
<path d="M77.4002 212.094H56.8262V249.744H77.4002V212.094Z" fill="#3CB7C6"/>
<path opacity="0.3" d="M56.832 212.094V214.2L71.4 218.598V249.744H77.4V212.094H56.832Z" fill="black"/>
<path d="M243.175 212.094H222.601V249.744H243.175V212.094Z" fill="#3CB7C6"/>
<path opacity="0.2" d="M243.175 212.094H222.601V249.744H243.175V212.094Z" fill="black"/>
<path opacity="0.3" d="M222.601 212.094V214.2L237.175 218.598V249.744H243.175V212.094H222.601Z" fill="black"/>
<path d="M203.202 212.094H182.628V249.744H203.202V212.094Z" fill="#3CB7C6"/>
<path opacity="0.3" d="M182.628 212.094V214.2L197.202 218.598V249.744H203.202V212.094H182.628Z" fill="black"/>
<path d="M117.372 212.094H96.7979V249.744H117.372V212.094Z" fill="#3CB7C6"/>
<path opacity="0.2" d="M117.372 212.094H96.7979V249.744H117.372V212.094Z" fill="black"/>
<path opacity="0.3" d="M96.7979 212.094V214.2L111.372 218.598V249.744H117.372V212.094H96.7979Z" fill="black"/>
<path d="M217.488 186.852H103.56C103.205 186.855 102.853 186.784 102.527 186.644C102.201 186.503 101.907 186.297 101.665 186.038C101.422 185.778 101.236 185.472 101.118 185.137C101 184.802 100.953 184.446 100.98 184.092L105.672 109.638C105.731 108.896 106.064 108.202 106.607 107.692C107.149 107.182 107.862 106.892 108.606 106.878H222.528C222.883 106.875 223.235 106.946 223.561 107.086C223.887 107.227 224.181 107.433 224.423 107.692C224.665 107.952 224.852 108.258 224.969 108.593C225.087 108.928 225.134 109.284 225.108 109.638L220.416 184.092C220.357 184.833 220.024 185.526 219.483 186.036C218.942 186.546 218.231 186.837 217.488 186.852Z" fill="#263238"/>
<path opacity="0.6" d="M217.488 186.852H103.56C103.205 186.855 102.853 186.784 102.527 186.644C102.201 186.503 101.907 186.297 101.665 186.038C101.422 185.778 101.236 185.472 101.118 185.137C101 184.802 100.953 184.446 100.98 184.092L105.672 109.638C105.731 108.896 106.064 108.202 106.607 107.692C107.149 107.182 107.862 106.892 108.606 106.878H222.528C222.883 106.875 223.235 106.946 223.561 107.086C223.887 107.227 224.181 107.433 224.423 107.692C224.665 107.952 224.852 108.258 224.969 108.593C225.087 108.928 225.134 109.284 225.108 109.638L220.416 184.092C220.357 184.833 220.024 185.526 219.483 186.036C218.942 186.546 218.231 186.837 217.488 186.852Z" fill="black"/>
<path d="M216.636 186.852H102.714C102.359 186.856 102.006 186.785 101.679 186.645C101.353 186.506 101.058 186.299 100.815 186.04C100.572 185.781 100.385 185.473 100.267 185.138C100.149 184.803 100.102 184.447 100.128 184.092L104.82 109.638C104.88 108.896 105.213 108.202 105.755 107.692C106.297 107.182 107.01 106.892 107.754 106.878H221.676C222.032 106.874 222.384 106.945 222.71 107.085C223.037 107.225 223.331 107.431 223.574 107.69C223.816 107.95 224.002 108.257 224.12 108.592C224.237 108.928 224.284 109.284 224.256 109.638L219.564 184.092C219.505 184.833 219.173 185.526 218.632 186.036C218.091 186.546 217.38 186.837 216.636 186.852Z" fill="#263238"/>
<path d="M216.492 187.8H80.9341C80.3101 187.794 79.6972 187.966 79.1663 188.294C78.6354 188.622 78.2082 189.093 77.9341 189.654C77.8647 189.8 77.8336 189.961 77.8437 190.122C77.8538 190.283 77.9048 190.438 77.9919 190.574C78.079 190.71 78.1993 190.821 78.3415 190.897C78.4836 190.974 78.6428 191.012 78.8041 191.01H218.592C218.753 191.012 218.913 190.974 219.055 190.897C219.197 190.821 219.317 190.71 219.404 190.574C219.491 190.438 219.543 190.283 219.553 190.122C219.563 189.961 219.532 189.8 219.462 189.654C219.191 189.097 218.769 188.628 218.244 188.3C217.719 187.972 217.111 187.799 216.492 187.8Z" fill="#263238"/>
<path opacity="0.6" d="M216.493 187.8H197.215C196.595 187.798 195.988 187.971 195.462 188.299C194.937 188.627 194.515 189.097 194.245 189.654C194.175 189.799 194.144 189.96 194.154 190.12C194.164 190.281 194.214 190.436 194.301 190.571C194.387 190.707 194.507 190.818 194.648 190.895C194.789 190.972 194.948 191.011 195.109 191.01H218.593C218.754 191.012 218.913 190.974 219.055 190.897C219.197 190.821 219.318 190.71 219.405 190.574C219.492 190.438 219.543 190.283 219.553 190.122C219.563 189.961 219.532 189.8 219.463 189.654C219.192 189.097 218.77 188.628 218.244 188.3C217.719 187.972 217.112 187.799 216.493 187.8Z" fill="black"/>
<path d="M204.54 190.14H199.56C199.445 190.138 199.335 190.092 199.254 190.01C199.173 189.928 199.128 189.817 199.128 189.702C199.128 189.587 199.173 189.476 199.254 189.394C199.335 189.312 199.445 189.266 199.56 189.264H204.54C204.597 189.264 204.654 189.275 204.708 189.297C204.761 189.319 204.809 189.352 204.85 189.392C204.89 189.433 204.923 189.481 204.945 189.534C204.967 189.588 204.978 189.645 204.978 189.702C204.978 189.76 204.967 189.817 204.945 189.87C204.923 189.923 204.89 189.971 204.85 190.012C204.809 190.052 204.761 190.085 204.708 190.107C204.654 190.129 204.597 190.14 204.54 190.14Z" fill="#3CB7C6"/>
<path opacity="0.7" d="M140.502 190.14H135.528C135.412 190.14 135.3 190.094 135.218 190.012C135.136 189.93 135.09 189.818 135.09 189.702C135.09 189.645 135.101 189.588 135.123 189.534C135.145 189.481 135.177 189.433 135.218 189.392C135.259 189.352 135.307 189.319 135.36 189.297C135.413 189.275 135.47 189.264 135.528 189.264H140.502C140.559 189.264 140.616 189.275 140.669 189.297C140.723 189.319 140.771 189.352 140.812 189.392C140.852 189.433 140.884 189.481 140.907 189.534C140.929 189.588 140.94 189.645 140.94 189.702C140.94 189.818 140.894 189.93 140.812 190.012C140.729 190.094 140.618 190.14 140.502 190.14Z" fill="white"/>
<path d="M209.694 189.264H206.436C206.237 189.264 206.076 189.425 206.076 189.624V189.78C206.076 189.979 206.237 190.14 206.436 190.14H209.694C209.893 190.14 210.054 189.979 210.054 189.78V189.624C210.054 189.425 209.893 189.264 209.694 189.264Z" fill="#3CB7C6"/>
<path d="M102.697 181.404L107.053 112.326C107.075 112.038 107.204 111.769 107.415 111.571C107.626 111.373 107.903 111.262 108.193 111.258H220.687C220.824 111.256 220.961 111.283 221.088 111.336C221.215 111.39 221.329 111.47 221.424 111.571C221.518 111.671 221.59 111.79 221.636 111.92C221.681 112.05 221.699 112.189 221.689 112.326L217.339 181.404C217.315 181.693 217.184 181.962 216.972 182.16C216.76 182.357 216.482 182.469 216.193 182.472H103.705C103.567 182.473 103.43 182.446 103.303 182.392C103.177 182.338 103.062 182.258 102.968 182.158C102.873 182.058 102.8 181.939 102.753 181.809C102.707 181.68 102.687 181.542 102.697 181.404Z" fill="white"/>
<path opacity="0.1" d="M166.692 109.128L129.222 180.348H101.58C101.442 180.35 101.304 180.323 101.177 180.269C101.049 180.215 100.934 180.135 100.839 180.034C100.744 179.933 100.671 179.813 100.626 179.682C100.58 179.551 100.562 179.412 100.572 179.274L104.928 110.202C104.951 109.913 105.08 109.643 105.291 109.445C105.502 109.246 105.779 109.133 106.068 109.128H166.692Z" fill="#3CB7C6"/>
<path opacity="0.1" d="M199.506 109.128L162.036 180.348H153.3L190.77 109.128H199.506Z" fill="#3CB7C6"/>
<path opacity="0.1" d="M219.564 110.202L215.208 179.274C215.187 179.563 215.058 179.834 214.847 180.033C214.636 180.232 214.358 180.344 214.068 180.348H171.468L208.938 109.128H218.538C218.678 109.124 218.817 109.15 218.946 109.203C219.076 109.257 219.192 109.336 219.289 109.438C219.386 109.539 219.46 109.659 219.507 109.791C219.555 109.922 219.574 110.062 219.564 110.202Z" fill="#3CB7C6"/>
<path opacity="0.4" d="M165.378 109.2C165.362 109.418 165.265 109.621 165.106 109.771C164.947 109.921 164.738 110.006 164.52 110.01C164.416 110.011 164.313 109.991 164.217 109.95C164.121 109.909 164.035 109.848 163.963 109.772C163.892 109.696 163.838 109.605 163.804 109.507C163.769 109.408 163.756 109.304 163.764 109.2C163.779 108.982 163.876 108.777 164.035 108.627C164.194 108.477 164.403 108.392 164.622 108.39C164.726 108.389 164.83 108.409 164.926 108.45C165.021 108.491 165.108 108.552 165.179 108.628C165.25 108.704 165.304 108.795 165.339 108.893C165.373 108.992 165.386 109.096 165.378 109.2Z" fill="white"/>
<path d="M146.79 92.634C143.508 96.39 141.612 107.904 144.042 113.568C146.472 119.232 118.278 124.902 141.54 134.106C164.802 143.31 183.408 132.636 176.676 123.102C169.944 113.568 177.402 97.692 169.608 93.702C162.564 90.066 153.366 85.104 146.79 92.634Z" fill="#263238"/>
<path d="M139.837 138.996C138.607 143.196 137.299 147.396 135.943 151.596C134.587 155.796 133.177 159.948 131.683 164.118L131.113 165.69L130.825 166.476L130.735 166.71L130.591 167.064C130.501 167.292 130.363 167.538 130.243 167.772C129.656 168.843 128.781 169.729 127.717 170.328C126.75 170.853 125.672 171.137 124.573 171.156C123.031 171.164 121.503 170.864 120.079 170.274C118.913 169.801 117.783 169.241 116.701 168.6C112.767 166.181 109.161 163.265 105.973 159.924L108.559 156.876C109.429 157.434 110.359 158.028 111.259 158.586C112.159 159.144 113.101 159.684 114.013 160.218C115.8 161.264 117.645 162.207 119.539 163.044C120.402 163.425 121.292 163.74 122.203 163.986C122.832 164.195 123.498 164.272 124.159 164.214C124.327 164.214 124.297 164.118 124.159 164.172C124.021 164.226 123.871 164.382 123.865 164.364C123.859 164.346 123.865 164.364 123.865 164.328C123.867 164.316 123.867 164.304 123.865 164.292L123.913 164.142L124.141 163.368L124.603 161.808L128.269 149.208C129.517 145.008 130.801 140.808 132.121 136.608L139.837 138.996Z" fill="#B65B52"/>
<path d="M108.372 156.78L101.4 154.2L104.166 161.568C104.166 161.568 109.086 162.276 110.994 159.69L109.44 157.608C109.171 157.235 108.8 156.948 108.372 156.78Z" fill="#B55B52"/>
<path d="M95.25 156.342L97.902 162.384L104.196 161.556L101.424 154.188L95.25 156.342Z" fill="#B55B52"/>
<path d="M134.749 128.13C131.557 128.94 129.349 142.062 129.349 142.062L138.139 148.062C138.139 148.062 146.539 134.826 144.109 131.322C141.529 127.644 139.399 126.948 134.749 128.13Z" fill="#3CB7C6"/>
<path opacity="0.5" d="M134.749 128.13C131.557 128.94 129.349 142.062 129.349 142.062L138.139 148.062C138.139 148.062 146.539 134.826 144.109 131.322C141.529 127.644 139.399 126.948 134.749 128.13Z" fill="white"/>
<path opacity="0.2" d="M134.46 132.9L141.282 134.478L141.936 141.156C140.78 143.514 139.505 145.811 138.114 148.038L132.78 144.438C133.014 141.348 133.59 135 134.46 132.9Z" fill="black"/>
<path d="M134.748 128.13C134.748 128.13 131.058 129.426 138.444 174.822H169.86C169.332 162.036 169.32 154.146 175.428 127.908C171.031 126.999 166.573 126.411 162.09 126.15C156.804 125.892 152.49 125.724 147.822 126.15C141.696 126.708 134.748 128.13 134.748 128.13Z" fill="#3CB7C6"/>
<path opacity="0.5" d="M134.748 128.13C134.748 128.13 131.058 129.426 138.444 174.822H169.86C169.332 162.036 169.32 154.146 175.428 127.908C171.031 126.999 166.573 126.411 162.09 126.15C156.804 125.892 152.49 125.724 147.822 126.15C141.696 126.708 134.748 128.13 134.748 128.13Z" fill="white"/>
<path opacity="0.2" d="M168.036 140.088L172.092 143.544C171.228 148.134 170.646 151.944 170.292 155.358C169.518 151.95 167.586 142.698 168.036 140.088Z" fill="black"/>
<path d="M160.674 110.082C159.774 114.672 158.874 123.084 162.09 126.15C162.09 126.15 159.09 133.026 151.14 133.026C143.19 133.026 147.822 126.15 147.822 126.15C152.94 124.95 152.808 121.128 151.92 117.564L160.674 110.082Z" fill="#B55B52"/>
<path d="M161.07 124.434C160.314 125.964 157.878 129.462 151.074 130.71C150.885 130.745 150.69 130.706 150.528 130.602C149.256 129.714 148.464 127.836 149.022 125.658C149.059 125.524 149.058 125.383 149.019 125.249C148.98 125.116 148.904 124.997 148.8 124.904C148.697 124.812 148.569 124.75 148.433 124.727C148.296 124.703 148.155 124.718 148.026 124.77C147.504 124.989 147.002 125.254 146.526 125.562C146.422 125.631 146.337 125.726 146.28 125.838C145.782 126.774 143.766 131.358 149.85 134.184C149.948 134.226 150.051 134.25 150.156 134.256C153.756 134.328 160.05 133.62 164.028 126.456C164.1 126.327 164.131 126.179 164.119 126.032C164.108 125.885 164.053 125.744 163.962 125.628C163.428 125.043 162.807 124.543 162.12 124.146C162.034 124.09 161.937 124.054 161.835 124.038C161.734 124.023 161.63 124.029 161.531 124.056C161.432 124.083 161.34 124.131 161.261 124.196C161.181 124.261 161.116 124.342 161.07 124.434Z" fill="#FAFAFA"/>
<path d="M162.738 143.322L154.638 143.088C154.553 143.089 154.469 143.071 154.392 143.037C154.314 143.003 154.245 142.953 154.188 142.89C154.132 142.827 154.089 142.753 154.063 142.672C154.037 142.591 154.029 142.506 154.038 142.422L154.116 141.42C154.139 141.251 154.224 141.097 154.353 140.987C154.482 140.876 154.648 140.817 154.818 140.82L162.918 141.054C163.003 141.053 163.087 141.071 163.165 141.106C163.243 141.14 163.313 141.191 163.37 141.254C163.427 141.318 163.469 141.393 163.495 141.474C163.52 141.556 163.528 141.641 163.518 141.726L163.44 142.722C163.416 142.891 163.332 143.045 163.203 143.155C163.073 143.266 162.908 143.325 162.738 143.322Z" fill="#FAFAFA"/>
<path opacity="0.2" d="M157.104 113.136L151.92 117.558C152.142 118.387 152.291 119.235 152.364 120.09C154.314 119.808 157.002 117.66 157.212 115.614C157.327 114.788 157.29 113.949 157.104 113.136Z" fill="black"/>
<path d="M166.722 101.4C165.276 108.942 164.826 112.164 160.482 115.566C153.948 120.69 145.002 117.258 144.174 109.44C143.424 102.402 145.914 91.254 153.774 89.19C155.496 88.7323 157.307 88.7218 159.035 89.1596C160.762 89.5973 162.349 90.4688 163.646 91.6915C164.943 92.9142 165.906 94.4476 166.444 96.1466C166.982 97.8455 167.078 99.6537 166.722 101.4Z" fill="#B55B52"/>
<path d="M162.432 95.8201C161.496 100.542 161.274 106.8 165.6 106.8C169.926 106.8 173.316 99.4381 169.584 93.6721C165.852 87.9061 162.978 93.0361 162.432 95.8201Z" fill="#263238"/>
<path d="M169.908 96.402C169.908 101.538 163.44 99 160.578 96.786C157.716 94.572 157.578 94.812 152.274 94.806C146.97 94.8 145.908 94.434 144.342 91.902C142.776 89.37 142.92 87.702 146.448 88.236C149.976 88.77 147.012 85.17 149.64 83.172C152.268 81.174 155.382 81.678 158.976 86.238C162.57 90.798 169.908 87.504 169.908 96.402Z" fill="#263238"/>
<path d="M168.009 108.111C168.69 105.789 168.022 103.55 166.518 103.109C165.014 102.668 163.243 104.192 162.562 106.514C161.882 108.835 162.549 111.074 164.053 111.515C165.558 111.956 167.329 110.432 168.009 108.111Z" fill="white"/>
<path d="M156 113.916C154.607 113.916 153.229 113.632 151.95 113.082C151.922 113.071 151.898 113.054 151.877 113.034C151.856 113.013 151.839 112.988 151.828 112.96C151.817 112.933 151.811 112.904 151.812 112.874C151.812 112.844 151.818 112.815 151.83 112.788C151.855 112.733 151.9 112.69 151.956 112.668C152.012 112.646 152.074 112.646 152.13 112.668C153.336 113.185 154.633 113.456 155.945 113.463C157.257 113.47 158.557 113.214 159.768 112.71C160.946 112.228 162.016 111.515 162.914 110.614C163.813 109.712 164.522 108.64 165 107.46C166.8 102.306 168.636 95.8741 166.512 91.8601C166.085 91.0788 165.493 90.3993 164.779 89.868C164.064 89.3367 163.243 88.9662 162.372 88.7821C162.314 88.7666 162.265 88.7289 162.234 88.6773C162.204 88.6256 162.195 88.5641 162.21 88.5061C162.225 88.4482 162.263 88.3988 162.315 88.3685C162.366 88.3382 162.428 88.3294 162.486 88.3441C163.417 88.5444 164.293 88.9428 165.056 89.5122C165.82 90.0817 166.451 90.8088 166.908 91.6441C169.116 95.7901 167.274 102.348 165.42 107.598C164.917 108.837 164.171 109.963 163.226 110.909C162.281 111.855 161.156 112.602 159.918 113.106C158.677 113.628 157.346 113.903 156 113.916Z" fill="white"/>
<path opacity="0.6" d="M167.79 108.132C167.256 109.932 166.032 111.198 165.054 110.916C164.076 110.634 163.716 108.918 164.25 107.094C164.784 105.27 166.008 104.022 166.986 104.31C167.964 104.598 168.324 106.308 167.79 108.132Z" fill="#3CB7C6"/>
<path d="M152.572 112.089L150.222 111.636C149.809 111.556 149.409 111.826 149.329 112.24L149.303 112.375C149.223 112.788 149.494 113.188 149.907 113.268L152.258 113.721C152.671 113.801 153.07 113.531 153.15 113.117L153.176 112.982C153.256 112.569 152.986 112.169 152.572 112.089Z" fill="white"/>
<path d="M149.502 102.03C149.502 102.03 148.11 104.556 146.79 105.69C147.504 106.56 148.944 106.392 148.944 106.392L149.502 102.03Z" fill="#A02724"/>
<path d="M150.829 109.62H150.883C152.243 109.727 153.593 109.316 154.663 108.468C154.685 108.446 154.697 108.415 154.697 108.384C154.697 108.353 154.685 108.322 154.663 108.3C154.652 108.289 154.639 108.281 154.625 108.275C154.612 108.269 154.597 108.266 154.582 108.266C154.567 108.266 154.552 108.269 154.538 108.275C154.524 108.281 154.511 108.289 154.501 108.3C153.48 109.103 152.196 109.494 150.901 109.398C150.885 109.396 150.869 109.396 150.854 109.4C150.839 109.404 150.825 109.411 150.812 109.42C150.8 109.43 150.79 109.442 150.782 109.456C150.775 109.469 150.77 109.484 150.769 109.5C150.765 109.524 150.77 109.548 150.78 109.569C150.791 109.591 150.808 109.608 150.829 109.62Z" fill="#263238"/>
<path d="M157.692 99.06C157.726 99.079 157.764 99.0889 157.803 99.0889C157.841 99.0889 157.88 99.079 157.914 99.06C157.965 99.0257 158.001 98.9728 158.015 98.9125C158.028 98.8521 158.018 98.7889 157.986 98.736C157.699 98.2555 157.301 97.8503 156.827 97.554C156.352 97.2577 155.813 97.0787 155.256 97.032C155.193 97.032 155.133 97.0565 155.088 97.1002C155.043 97.1439 155.017 97.2034 155.016 97.266C155.016 97.3271 155.039 97.3857 155.082 97.4294C155.125 97.4731 155.183 97.4985 155.244 97.5C155.724 97.5459 156.187 97.7045 156.595 97.9631C157.002 98.2217 157.343 98.5728 157.59 98.988C157.616 99.0208 157.652 99.0457 157.692 99.06Z" fill="#263238"/>
<path d="M154.254 102.132C154.152 102.732 153.738 103.194 153.33 103.128C152.922 103.062 152.688 102.528 152.79 101.88C152.892 101.232 153.312 100.818 153.714 100.884C154.116 100.95 154.362 101.514 154.254 102.132Z" fill="#263238"/>
<path d="M147.258 100.944C147.156 101.544 146.742 102.006 146.334 101.94C145.926 101.874 145.692 101.31 145.794 100.692C145.896 100.074 146.316 99.6241 146.718 99.6961C147.12 99.7681 147.366 100.32 147.258 100.944Z" fill="#263238"/>
<path d="M146.893 99.7621L145.477 99.0781C145.477 99.0781 146.041 100.368 146.893 99.7621Z" fill="#263238"/>
<path d="M153.889 100.95L152.473 100.272C152.473 100.272 153.037 101.562 153.889 100.95Z" fill="#263238"/>
<path d="M144.882 96.762C144.918 96.7837 144.96 96.7951 145.002 96.7951C145.044 96.7951 145.086 96.7837 145.122 96.762C145.492 96.4508 145.932 96.2337 146.404 96.1293C146.877 96.0248 147.367 96.036 147.834 96.162C147.893 96.1827 147.958 96.1792 148.014 96.1522C148.07 96.1252 148.113 96.0769 148.134 96.018C148.155 95.9592 148.151 95.8945 148.124 95.8382C148.097 95.782 148.049 95.7387 147.99 95.718C147.452 95.5647 146.884 95.5435 146.336 95.6563C145.787 95.7691 145.274 96.0126 144.84 96.366C144.815 96.3837 144.794 96.4065 144.778 96.4328C144.762 96.4591 144.752 96.4884 144.748 96.5188C144.744 96.5493 144.746 96.5802 144.755 96.6097C144.764 96.6391 144.778 96.6665 144.798 96.69C144.818 96.722 144.847 96.7471 144.882 96.762Z" fill="#263238"/>
<path d="M137.25 182.472C137.25 182.472 137.166 178.176 138.45 174.822H169.86C169.86 174.822 172.686 179.382 173.418 182.472H137.25Z" fill="#3CB7C6"/>
<path d="M170.334 172.98L170.58 175.788C170.694 176.01 170.436 176.232 170.07 176.232H138.27C137.988 176.232 137.754 176.094 137.736 175.914L137.448 173.1C137.448 172.908 137.676 172.74 137.988 172.74H169.788C169.892 172.729 169.997 172.745 170.093 172.787C170.189 172.829 170.272 172.896 170.334 172.98Z" fill="#3CB7C6"/>
<path opacity="0.3" d="M170.334 172.98L170.58 175.788C170.694 176.01 170.436 176.232 170.07 176.232H138.27C137.988 176.232 137.754 176.094 137.736 175.914L137.448 173.1C137.448 172.908 137.676 172.74 137.988 172.74H169.788C169.892 172.729 169.997 172.745 170.093 172.787C170.189 172.829 170.272 172.896 170.334 172.98Z" fill="#FAFAFA"/>
<path d="M166.056 176.532H166.908C167.082 176.532 167.208 176.448 167.196 176.34L166.8 172.686C166.8 172.578 166.638 172.494 166.47 172.494H165.6C165.426 172.494 165.3 172.578 165.312 172.686L165.708 176.34C165.738 176.448 165.888 176.532 166.056 176.532Z" fill="#3CB7C6"/>
<path d="M140.682 176.532H141.534C141.702 176.532 141.834 176.448 141.822 176.34L141.42 172.686C141.42 172.578 141.264 172.494 141.09 172.494H140.238C140.07 172.494 139.938 172.578 139.95 172.686L140.352 176.34C140.364 176.448 140.514 176.532 140.682 176.532Z" fill="#3CB7C6"/>
<path d="M153.372 176.532H154.2C154.368 176.532 154.5 176.448 154.488 176.34L154.086 172.686C154.086 172.578 153.924 172.494 153.756 172.494H152.904C152.736 172.494 152.604 172.578 152.616 172.686L153.018 176.34C153.054 176.448 153.198 176.532 153.372 176.532Z" fill="#3CB7C6"/>
<path d="M178.116 136.8C179.496 141.28 180.822 145.784 182.094 150.312L184.008 157.068L184.962 160.428L185.202 161.256L185.322 161.67L185.352 161.766L185.256 161.616C185.104 161.399 184.918 161.208 184.704 161.052C184.235 160.71 183.676 160.512 183.096 160.482C182.658 160.461 182.221 160.548 181.824 160.734C181.392 160.968 181.434 161.022 181.47 160.98C181.572 160.892 181.664 160.793 181.746 160.686C182.029 160.333 182.289 159.962 182.526 159.576C183.054 158.712 183.576 157.74 184.068 156.744C185.088 154.752 186.006 152.64 186.936 150.516C187.866 148.392 188.736 146.244 189.636 144.078C190.536 141.912 191.394 139.734 192.282 137.586L196.116 138.726C195.12 143.406 193.956 148.002 192.516 152.58C191.808 154.878 191.022 157.152 190.116 159.456C189.648 160.608 189.15 161.76 188.532 162.954C188.203 163.6 187.834 164.225 187.428 164.826C187.176 165.203 186.895 165.56 186.588 165.894C186.101 166.446 185.51 166.897 184.848 167.22C184.188 167.541 183.458 167.694 182.724 167.664C181.854 167.616 181.018 167.308 180.324 166.782C179.882 166.448 179.498 166.043 179.19 165.582C178.995 165.286 178.825 164.975 178.68 164.652C178.626 164.52 178.566 164.382 178.524 164.262L178.41 163.968L178.254 163.542L177.942 162.696C177.534 161.574 177.12 160.452 176.742 159.33C175.974 157.086 175.206 154.848 174.486 152.598C173.014 148.102 171.642 143.584 170.37 139.044L178.116 136.8Z" fill="#B65B52"/>
<path d="M175.428 127.908C178.578 128.862 183.396 141.216 183.396 141.216L171.186 149.946C171.186 149.946 165.696 139.386 167.016 135.318C168.396 131.082 171.84 126.816 175.428 127.908Z" fill="#3CB7C6"/>
<path opacity="0.5" d="M175.428 127.908C178.578 128.862 183.396 141.216 183.396 141.216L171.186 149.946C171.186 149.946 165.696 139.386 167.016 135.318C168.396 131.082 171.84 126.816 175.428 127.908Z" fill="white"/>
<path d="M192.42 139.23L190.746 131.85L197.706 135.522C197.706 135.522 197.79 140.49 194.982 142.056L192.42 139.23Z" fill="#B55B52"/>
<path d="M193.662 125.994L198.102 129.144L197.706 135.522L190.746 131.85L193.662 125.994Z" fill="#B55B52"/>
<path d="M69.0001 88.8539H117.6C118.528 88.8448 119.448 89.0283 120.301 89.3928C121.154 89.7573 121.923 90.2949 122.558 90.9716C123.193 91.6483 123.681 92.4493 123.99 93.3242C124.3 94.199 124.424 95.1285 124.356 96.0539L123 118.05C122.851 119.986 121.985 121.797 120.571 123.129C119.157 124.461 117.298 125.217 115.356 125.25H109.728L112.026 132.804L101.034 125.25H66.7741C65.8462 125.259 64.9265 125.076 64.0731 124.711C63.2197 124.347 62.4513 123.809 61.8163 123.132C61.1813 122.456 60.6937 121.655 60.3842 120.78C60.0746 119.905 59.95 118.975 60.0181 118.05L61.3621 96.0539C61.5111 94.1186 62.3763 92.3084 63.7888 90.9769C65.2012 89.6455 67.0593 88.8885 69.0001 88.8539Z" fill="#3CB7C6"/>
<path d="M113.148 100.374H72.0481C71.8736 100.373 71.7012 100.336 71.5418 100.265C71.3824 100.194 71.2396 100.09 71.1222 99.9612C71.0049 99.832 70.9157 99.6799 70.8602 99.5144C70.8048 99.349 70.7843 99.1738 70.8001 99C70.827 98.6359 70.9889 98.2949 71.2542 98.0441C71.5195 97.7932 71.869 97.6505 72.2341 97.644H113.34C113.514 97.6444 113.685 97.6805 113.844 97.75C114.003 97.8196 114.147 97.9211 114.265 98.0482C114.383 98.1754 114.474 98.3255 114.531 98.4893C114.589 98.653 114.612 98.8268 114.6 99C114.579 99.3709 114.416 99.7197 114.147 99.975C113.877 100.23 113.52 100.373 113.148 100.374Z" fill="white"/>
<path d="M88.8005 108.408H71.5565C71.3818 108.409 71.2089 108.374 71.0484 108.306C70.8879 108.237 70.7434 108.135 70.6239 108.008C70.5044 107.881 70.4126 107.73 70.3542 107.566C70.2958 107.401 70.272 107.226 70.2845 107.052C70.3114 106.687 70.4743 106.345 70.7408 106.094C71.0074 105.843 71.3583 105.701 71.7245 105.696H88.9865C89.1616 105.694 89.3352 105.728 89.4964 105.797C89.6576 105.865 89.8028 105.966 89.923 106.094C90.0431 106.221 90.1354 106.372 90.1942 106.537C90.253 106.702 90.2769 106.877 90.2645 107.052C90.2358 107.421 90.0691 107.765 89.7978 108.016C89.5264 108.268 89.1703 108.408 88.8005 108.408Z" fill="white"/>
<path d="M103.578 116.442H71.0643C70.8897 116.443 70.7167 116.408 70.5562 116.34C70.3957 116.271 70.2512 116.17 70.1317 116.042C70.0123 115.915 69.9204 115.764 69.862 115.6C69.8036 115.435 69.7799 115.26 69.7923 115.086C69.8179 114.72 69.9803 114.378 70.2472 114.126C70.514 113.875 70.8657 113.734 71.2323 113.73H103.746C103.921 113.728 104.095 113.762 104.255 113.831C104.416 113.899 104.561 114 104.681 114.128C104.801 114.255 104.892 114.406 104.95 114.571C105.009 114.736 105.032 114.912 105.018 115.086C104.991 115.451 104.828 115.793 104.562 116.044C104.295 116.295 103.944 116.437 103.578 116.442Z" fill="white"/>
<path d="M101.466 108.408H94.6678C94.4932 108.409 94.3202 108.374 94.1597 108.306C93.9992 108.237 93.8547 108.135 93.7352 108.008C93.6158 107.881 93.5239 107.73 93.4655 107.566C93.4071 107.401 93.3834 107.226 93.3958 107.052C93.4241 106.687 93.5873 106.346 93.8536 106.096C94.1199 105.845 94.4701 105.702 94.8358 105.696H101.628C101.803 105.694 101.976 105.728 102.137 105.797C102.298 105.865 102.443 105.966 102.562 106.094C102.682 106.221 102.774 106.372 102.832 106.537C102.89 106.702 102.913 106.878 102.9 107.052C102.873 107.416 102.711 107.757 102.446 108.008C102.18 108.259 101.831 108.401 101.466 108.408Z" fill="white"/>
<path d="M136.674 49.314H110.178C108.667 49.3366 107.219 49.9236 106.119 50.9594C105.019 51.9952 104.345 53.4051 104.232 54.9119L103.2 72.0359C103.148 72.7559 103.247 73.4787 103.488 74.1588C103.73 74.8389 104.11 75.4615 104.605 75.9875C105.099 76.5134 105.697 76.9312 106.361 77.2146C107.025 77.498 107.74 77.6408 108.462 77.6339H112.8L110.292 83.514L119.568 77.6339H134.94C136.451 77.6113 137.899 77.0243 138.999 75.9885C140.099 74.9527 140.772 73.5428 140.886 72.0359L141.936 54.9119C141.987 54.192 141.889 53.4692 141.647 52.7891C141.405 52.109 141.025 51.4864 140.531 50.9604C140.037 50.4345 139.439 50.0167 138.775 49.7333C138.111 49.4499 137.396 49.3071 136.674 49.314Z" fill="#3CB7C6"/>
<g opacity="0.5">
<path opacity="0.5" d="M136.674 49.314H110.178C108.667 49.3366 107.219 49.9236 106.119 50.9594C105.019 51.9952 104.345 53.4051 104.232 54.9119L103.2 72.0359C103.148 72.7559 103.247 73.4787 103.488 74.1588C103.73 74.8389 104.11 75.4615 104.605 75.9875C105.099 76.5134 105.697 76.9312 106.361 77.2146C107.025 77.498 107.74 77.6408 108.462 77.6339H112.8L110.292 83.514L119.568 77.6339H134.94C136.451 77.6113 137.899 77.0243 138.999 75.9885C140.099 74.9527 140.772 73.5428 140.886 72.0359L141.936 54.9119C141.987 54.192 141.889 53.4692 141.647 52.7891C141.405 52.109 141.025 51.4864 140.531 50.9604C140.037 50.4345 139.439 50.0167 138.775 49.7333C138.111 49.4499 137.396 49.3071 136.674 49.314Z" fill="#FAFAFA"/>
</g>
<path d="M123.9 66.276C123.809 66.6531 123.594 66.9887 123.289 67.2291C122.985 67.4695 122.608 67.6008 122.22 67.602H120.654C120.654 67.158 120.69 66.888 120.696 66.792C120.719 65.9272 120.941 65.0792 121.344 64.314C121.911 63.461 122.631 62.7205 123.468 62.13C124.136 61.6464 124.766 61.1128 125.352 60.534C125.664 60.1657 125.849 59.7072 125.88 59.226C125.904 58.9072 125.854 58.5872 125.734 58.2907C125.615 57.9942 125.429 57.7292 125.19 57.516C124.608 57.0174 123.856 56.7636 123.09 56.808C122.286 56.7861 121.499 57.0496 120.87 57.552C120.497 57.8604 120.19 58.2423 119.97 58.674C119.808 58.9894 119.557 59.2499 119.247 59.4228C118.938 59.5957 118.584 59.6734 118.23 59.646C117.976 59.6145 117.734 59.5194 117.526 59.3694C117.318 59.2194 117.151 59.0194 117.041 58.788C116.931 58.5565 116.881 58.301 116.896 58.0451C116.911 57.7892 116.99 57.5412 117.126 57.324C117.488 56.7164 117.953 56.1764 118.5 55.728C119.801 54.6828 121.435 54.1435 123.102 54.21C125.064 54.21 126.588 54.72 127.686 55.746C128.2 56.188 128.605 56.743 128.868 57.3677C129.132 57.9923 129.247 58.6695 129.204 59.346C129.149 60.115 128.884 60.854 128.436 61.482C127.594 62.5198 126.619 63.4435 125.538 64.23C124.978 64.6211 124.494 65.1111 124.11 65.676C124.013 65.8653 123.942 66.0672 123.9 66.276ZM120.474 70.584V70.392C120.506 69.9584 120.699 69.5525 121.016 69.2547C121.333 68.9569 121.75 68.7889 122.184 68.784H122.4C122.608 68.781 122.815 68.8212 123.006 68.9021C123.198 68.9831 123.37 69.103 123.513 69.2542C123.656 69.4054 123.765 69.5846 123.835 69.7805C123.905 69.9764 123.933 70.1846 123.918 70.392V70.584C123.887 71.0182 123.694 71.4248 123.377 71.7236C123.061 72.0224 122.644 72.1917 122.208 72.198H122.016C121.806 72.2045 121.596 72.1667 121.402 72.0869C121.207 72.0071 121.031 71.8872 120.885 71.7349C120.74 71.5827 120.628 71.4015 120.557 71.2032C120.487 71.0049 120.458 70.794 120.474 70.584Z" fill="white"/>
</svg>
