<svg width="300" height="300" viewBox="0 0 300 300" fill="none" xmlns="http://www.w3.org/2000/svg">
<path d="M48.247 57.33C49.5085 57.0447 50.8145 57.0172 52.0868 57.2492C53.3591 57.4812 54.5715 57.9679 55.651 58.68C57.8076 60.1157 59.6041 62.0293 60.901 64.272C63.529 68.514 64.417 74.19 64.501 79.176C58.963 78.9 54.301 74.502 52.033 72.126C48.481 68.358 44.401 59.4 48.247 57.33Z" fill="#F5F5F5"/>
<path d="M73.3673 82.6019C72.2648 81.6654 71.4299 80.4538 70.9472 79.0901C70.4646 77.7265 70.3514 76.2594 70.6193 74.8379C70.9124 73.4238 71.4834 72.082 72.2991 70.8904C73.1148 69.6987 74.1591 68.6809 75.3713 67.8959C76.4813 67.1579 77.8433 66.5699 79.1213 66.9599C79.7061 67.1784 80.2223 67.5486 80.6167 68.0327C81.011 68.5167 81.2694 69.097 81.3653 69.7139C81.5328 70.9553 81.3735 72.2189 80.9033 73.3799C79.4633 77.3999 77.3393 81.0299 73.3673 82.6019Z" fill="#F5F5F5"/>
<path d="M76.5849 94.6682C75.9661 93.7556 75.4414 92.7826 75.0189 91.7642C74.5142 90.6687 74.1436 89.5164 73.9149 88.3322C73.5818 86.9054 73.3433 85.4583 73.2009 84.0002C72.9668 81.3116 73.3954 78.6067 74.4489 76.1222C74.778 75.384 75.18 74.6805 75.6489 74.0222C76.0089 73.5722 76.2489 73.3442 76.2489 73.3682C76.2489 73.3922 75.5289 74.4122 74.7789 76.2782C73.8612 78.728 73.5004 81.3515 73.7229 83.9582C73.8552 85.3969 74.0676 86.8271 74.3589 88.2422C74.5603 89.3985 74.8821 90.5307 75.3189 91.6202C76.1529 93.4742 76.6689 94.6322 76.5849 94.6682Z" fill="#E0E0E0"/>
<path d="M51.9785 63.8701C52.4017 64.2345 52.7912 64.6361 53.1425 65.0701C53.8565 65.8681 54.8825 67.0381 56.1425 68.4901C58.6445 71.4001 62.0585 75.4561 65.7425 80.0221C69.4265 84.5881 72.6005 88.8301 74.8205 91.9381C75.9425 93.4981 76.8365 94.7641 77.4365 95.6521C77.7743 96.0978 78.0734 96.5715 78.3305 97.0681C77.9391 96.6708 77.5819 96.2413 77.2625 95.7841L74.5025 92.1841C72.1745 89.1361 68.9345 84.9481 65.2745 80.3821L55.8305 68.7421L52.9745 65.2141C52.6074 64.7933 52.2743 64.3438 51.9785 63.8701Z" fill="#E0E0E0"/>
<path d="M69.6004 87.9962C67.083 86.2745 64.1916 85.1773 61.1658 84.7954C58.1399 84.4135 55.0666 84.758 52.2004 85.8002C50.7484 86.3402 49.2004 87.3542 49.1284 88.9022C49.0564 90.4502 50.6044 91.5542 52.0384 92.1542C55.0472 93.3425 58.3404 93.6138 61.503 92.9336C64.6656 92.2535 67.5562 90.6524 69.8104 88.3322" fill="#F5F5F5"/>
<path d="M56.083 88.2C56.344 88.0605 56.6255 87.9633 56.917 87.912C57.457 87.762 58.255 87.588 59.245 87.402C61.849 86.8996 64.5229 86.8772 67.135 87.336C68.5746 87.6336 69.9565 88.1624 71.227 88.902C72.9472 89.9317 74.4086 91.3417 75.499 93.024C75.6812 93.2555 75.8251 93.5149 75.925 93.7921C75.835 93.8581 75.151 92.8081 73.735 91.3921C71.8875 89.5862 69.5548 88.3563 67.021 87.852C64.47 87.4132 61.8655 87.3828 59.305 87.762C57.325 88.02 56.101 88.26 56.083 88.2Z" fill="#E0E0E0"/>
<path d="M77.7184 209.802C95.6104 201.114 102.588 180.816 104.934 161.946C105.33 158.796 106.2 155.55 105.144 152.562C104.088 149.574 100.914 147.162 97.8964 148.02C95.4004 148.74 93.9544 151.29 92.2984 153.318C90.0827 156.025 87.1484 158.053 83.8324 159.168C81.6724 159.882 79.1044 160.122 77.3044 158.724C74.8384 156.804 75.1144 153.018 75.6304 149.904L78.5104 132.504C79.0264 129.39 79.5424 126.21 79.0444 123.096C78.5464 119.982 76.8424 116.898 74.0104 115.596C71.1784 114.294 67.2424 115.422 66.1324 118.368C65.6644 119.598 65.7184 120.954 65.4244 122.238C65.1304 123.522 64.3024 124.848 63.0244 125.016C61.7464 125.184 60.6244 124.104 59.8324 123.042C57.1204 119.382 55.5784 114.984 54.1804 110.628C52.7824 106.272 51.4624 101.832 49.0864 97.938C46.7104 94.044 43.0864 90.678 38.6884 89.712C34.2904 88.746 29.0884 90.75 27.2524 94.95C25.4164 99.15 27.2524 104.028 29.4964 108.03C32.7948 113.962 36.9336 119.386 41.7844 124.134C42.6544 124.992 43.5844 125.934 43.7884 127.134C44.1364 129.318 41.8384 131.07 39.6784 131.424C37.2364 131.826 34.7524 131.184 32.2744 131.088C29.7964 130.992 27.0004 131.64 25.7164 133.788C23.9164 136.788 26.0644 140.532 28.3384 143.136C32.8874 148.349 38.3006 152.739 44.3404 156.114C46.4944 157.314 48.7924 158.436 50.3824 160.344C51.9724 162.252 52.6444 165.228 51.1804 167.244C49.7164 169.26 46.7344 169.506 44.4064 168.678C42.0784 167.85 40.1344 166.2 37.9804 165C33.9604 162.702 28.3804 162.114 25.0504 165.378C22.8604 167.526 22.1644 170.886 22.6144 173.934C23.0644 176.982 24.5164 179.766 26.1124 182.382C31.6924 191.526 39.4444 199.41 48.8344 204.432C58.2244 209.454 67.2724 211.86 77.7184 209.832" fill="#EBEBEB"/>
<path d="M75.18 210.798C75.684 203.256 76.02 207.168 74.748 197.262C73.476 187.356 71.214 176.604 68.448 165.462L66.366 157.2C65.676 154.494 64.998 151.8 64.164 149.22C62.5618 144.258 60.6849 139.388 58.542 134.634C56.532 130.08 54.456 125.832 52.482 121.878C50.508 117.924 48.6 114.252 46.704 111C43.7512 105.85 40.3947 100.943 36.666 96.3241C35.352 94.6921 34.266 93.4621 33.558 92.6341L32.718 91.6981C32.6289 91.5859 32.5283 91.4834 32.418 91.3921C32.4928 91.516 32.5791 91.6325 32.676 91.7401C32.874 91.9801 33.138 92.2981 33.468 92.7121C34.17 93.5581 35.202 94.8181 36.468 96.4681C40.1167 101.13 43.4118 106.057 46.326 111.21C48.186 114.468 50.07 118.122 52.032 122.076C53.994 126.03 56.034 130.29 58.032 134.838C60.1545 139.586 62.0134 144.447 63.6 149.4C64.422 151.974 65.094 154.638 65.784 157.356C66.474 160.074 67.158 162.822 67.86 165.606C70.626 176.76 72.912 187.482 74.196 197.358C75.48 207.234 75.198 203.28 74.748 210.798" fill="#E0E0E0"/>
<path d="M64.0078 149.154C64.2233 148.745 64.3962 148.314 64.5238 147.87C64.8238 147.036 65.2198 145.818 65.6818 144.3C66.6178 141.264 67.7638 137.034 69.0118 132.366C70.2598 127.698 71.4658 123.486 72.4438 120.48C72.9238 118.974 73.3318 117.756 73.6438 116.922C73.8224 116.496 73.9532 116.051 74.0338 115.596C73.791 115.988 73.5899 116.404 73.4338 116.838C73.0798 117.654 72.6118 118.848 72.0778 120.348C70.9978 123.348 69.7258 127.548 68.4778 132.21C67.2298 136.872 66.1558 140.994 65.3098 144.21C64.9258 145.644 64.5958 146.856 64.3318 147.81C64.17 148.243 64.0612 148.695 64.0078 149.154Z" fill="#E0E0E0"/>
<path d="M25.1338 135.288C25.6422 135.488 26.1686 135.639 26.7058 135.738C27.7138 135.99 29.1838 136.338 30.9838 136.854C34.5838 137.838 39.5218 139.362 44.8918 141.288C50.2618 143.214 55.0438 145.182 58.4638 146.688C60.1798 147.438 61.5538 148.08 62.5018 148.488C62.9818 148.749 63.4862 148.962 64.0078 149.124C63.5671 148.801 63.097 148.52 62.6038 148.284C61.6798 147.786 60.3298 147.084 58.6318 146.286C55.2478 144.672 50.4718 142.644 45.0898 140.706C40.498 139.04 35.8239 137.61 31.0858 136.422C29.2858 135.972 27.7798 135.666 26.7478 135.48C26.2166 135.368 25.6764 135.304 25.1338 135.288Z" fill="#E0E0E0"/>
<path d="M74.4004 196.446C74.4004 196.446 74.5384 196.308 74.7544 196.002L75.6724 194.664C76.4584 193.494 77.5564 191.778 78.8884 189.636C81.5524 185.352 85.0444 179.322 88.8064 172.614C92.5684 165.906 96.0064 159.852 98.5744 155.52C99.8344 153.42 100.866 151.686 101.634 150.402C101.964 149.844 102.234 149.382 102.462 149.004C102.569 148.846 102.654 148.675 102.714 148.494C102.714 148.494 102.576 148.632 102.36 148.938L101.4 150.276C100.608 151.446 99.5104 153.162 98.1784 155.304C95.5324 159.6 92.0404 165.6 88.2784 172.326C84.5164 179.052 81.0784 185.088 78.5104 189.42C77.2504 191.52 76.2184 193.254 75.4504 194.538L74.6284 195.936C74.5293 196.095 74.4526 196.266 74.4004 196.446Z" fill="#E0E0E0"/>
<path d="M23.8672 170.82C24.0168 170.942 24.1824 171.043 24.3592 171.12L25.7992 171.882L31.1992 174.636C35.7652 176.964 42.0352 180.252 48.9532 183.894C55.8712 187.536 62.1532 190.764 66.7972 193.002C69.1012 194.118 70.9972 195 72.2872 195.588L73.7992 196.254C73.97 196.341 74.1516 196.406 74.3392 196.446C74.1895 196.324 74.024 196.223 73.8472 196.146L72.3832 195.384L66.9832 192.63C62.4172 190.302 56.1472 187.014 49.2292 183.372C42.3112 179.73 36.0292 176.496 31.3912 174.264C29.0812 173.148 27.1912 172.266 25.8952 171.678L24.4072 171C24.2358 170.917 24.0543 170.856 23.8672 170.82Z" fill="#E0E0E0"/>
<path d="M279.216 261C279.216 261.084 222.414 261.156 152.364 261.156C82.314 261.156 25.5 261.09 25.5 261C25.5 260.91 82.29 260.844 152.364 260.844C222.438 260.844 279.216 260.916 279.216 261Z" fill="#263238"/>
<path d="M39.4385 161.634C39.4385 161.634 43.5785 158.838 48.7505 168.756C53.9225 178.674 55.9025 184.404 55.9025 184.404C55.9025 184.404 57.2645 186.48 58.6865 185.1C60.1085 183.72 62.0345 179.832 64.4825 180.51C66.9305 181.188 67.8785 184.02 67.4345 188.172C66.9905 192.324 66.3545 201.456 66.3005 202.278C66.2465 203.1 66.7205 204.276 67.8365 203.478C68.9525 202.68 75.3665 195.42 78.6365 198.678C81.9065 201.936 78.7745 213.288 78.4565 214.536C78.1385 215.784 78.3845 216.336 78.9785 216.618C79.5725 216.9 81.4985 214.272 83.4064 212.28C85.3144 210.288 87.8764 208.302 89.6045 210.336C91.3325 212.37 91.9625 220.866 84.0005 234.75L79.8904 240.942L72.4325 240.6C56.5145 238.89 50.0045 233.4 49.3805 230.802C48.7565 228.204 51.8525 227.298 54.5885 226.926C57.3245 226.554 60.5885 226.548 60.7025 225.888C60.8165 225.228 60.5225 224.718 59.3225 224.244C58.1225 223.77 47.0885 219.636 46.3805 215.082C45.6725 210.528 55.3205 209.61 56.6165 209.16C57.9125 208.71 57.2165 207.636 56.5325 207.204C55.8485 206.772 48.0665 201.918 44.4485 199.836C40.8305 197.754 39.0485 195.414 39.9785 192.948C40.8665 190.548 45.1445 191.298 47.1005 190.956C49.0565 190.614 48.1685 188.292 48.1685 188.292C48.1685 188.292 44.6885 183.33 39.7025 173.292C34.7165 163.254 39.5285 161.55 39.5285 161.55" fill="#3CB7C6"/>
<path d="M44.0889 170.508C44.1261 170.564 44.1601 170.622 44.1909 170.682L44.4729 171.216L45.5229 173.262L49.3629 180.81C52.6329 187.182 57.1629 195.96 62.1129 205.662C67.0629 215.364 71.6049 224.16 74.7969 230.556C76.3809 233.748 77.6589 236.34 78.5529 238.146L79.5549 240.216L79.8129 240.762C79.8669 240.882 79.8909 240.948 79.8909 240.948C79.8909 240.948 79.8489 240.894 79.7829 240.774L79.5069 240.246C79.2549 239.76 78.9069 239.046 78.4569 238.194C77.5389 236.394 76.2309 233.826 74.6169 230.646C71.4009 224.274 66.8589 215.49 61.8609 205.8C56.8629 196.11 52.3749 187.296 49.2009 180.9L45.4209 173.31C44.9949 172.422 44.6589 171.726 44.4189 171.24C44.3109 171.012 44.2269 170.832 44.1669 170.694C44.132 170.636 44.1058 170.573 44.0889 170.508Z" fill="#263238"/>
<path d="M62.0049 186.06C61.9112 186.72 61.7729 187.374 61.5909 188.016C61.3029 189.294 60.9309 190.914 60.5169 192.714C60.1029 194.514 59.7129 196.2 59.4009 197.4C59.2389 198 59.1009 198.474 58.9929 198.804C58.9521 198.979 58.8854 199.147 58.7949 199.302C58.8968 198.643 59.033 197.99 59.2029 197.346L60.2409 192.642C60.6609 190.806 61.0689 189.15 61.3989 187.956C61.5669 187.356 61.7109 186.882 61.8189 186.558C61.8564 186.384 61.919 186.216 62.0049 186.06Z" fill="#263238"/>
<path d="M58.1102 199.452C58.1102 199.524 54.6782 198.648 50.4902 197.484C46.3022 196.32 42.9302 195.324 42.9542 195.246C42.9782 195.168 46.3802 196.05 50.5682 197.208C54.7562 198.366 58.1282 199.374 58.1102 199.452Z" fill="#263238"/>
<path d="M67.734 216.144C67.5564 216.194 67.3727 216.221 67.188 216.222C66.84 216.258 66.33 216.294 65.7 216.324C64.44 216.384 62.7 216.426 60.768 216.372C58.836 216.318 57.108 216.18 55.854 216.048C55.254 215.982 54.72 215.916 54.366 215.862C54.1836 215.849 54.0039 215.811 53.832 215.748C54.5114 215.738 55.1907 215.77 55.866 215.844C57.126 215.928 58.866 216.03 60.78 216.084C62.694 216.138 64.434 216.132 65.694 216.12C66.3738 216.084 67.0552 216.092 67.734 216.144Z" fill="#263238"/>
<path d="M73.9272 204.804C73.6932 205.389 73.4143 205.954 73.0932 206.496C72.5412 207.522 71.7672 208.932 70.8972 210.48C70.0272 212.028 69.2232 213.426 68.6292 214.428C68.3335 214.984 67.9944 215.515 67.6152 216.018C67.8493 215.433 68.1281 214.868 68.4492 214.326C69.0012 213.3 69.7752 211.89 70.6452 210.342C71.5152 208.794 72.3192 207.396 72.9132 206.4C73.2101 205.843 73.5491 205.309 73.9272 204.804Z" fill="#263238"/>
<path d="M84.2942 218.46C84.2299 218.671 84.1392 218.872 84.0242 219.06L83.1782 220.614C82.4582 221.916 81.4442 223.71 80.3102 225.684C79.1762 227.658 78.1322 229.44 77.3642 230.718C77.0042 231.318 76.6922 231.816 76.4462 232.23C76.3441 232.42 76.2192 232.598 76.0742 232.758C76.1403 232.548 76.231 232.347 76.3442 232.158L77.1902 230.604C77.9102 229.296 78.9242 227.502 80.0582 225.528C81.1922 223.554 82.2362 221.778 83.0042 220.5L83.9222 218.988C84.0285 218.8 84.1531 218.623 84.2942 218.46Z" fill="#263238"/>
<path d="M76.2001 232.356C75.9735 232.405 75.7417 232.425 75.5101 232.416C75.0601 232.416 74.4121 232.446 73.6141 232.452C72.0181 232.452 69.8041 232.452 67.3681 232.29C64.9321 232.128 62.7241 231.948 61.1401 231.762C60.3421 231.672 59.7001 231.582 59.2621 231.516C59.0295 231.497 58.8 231.45 58.5781 231.378C58.8096 231.357 59.0426 231.357 59.2741 231.378L61.1581 231.534C62.7481 231.672 64.9501 231.846 67.3801 231.978C69.8101 232.11 72.0181 232.182 73.6141 232.224L75.5101 232.278C75.7421 232.281 75.9732 232.308 76.2001 232.356Z" fill="#263238"/>
<path d="M271.271 158.334L251.189 177.888L232.685 213.198L211.877 253.128L186.311 241.128L158.675 226.98L176.351 193.212L187.337 155.412C179.573 160.56 165.137 167.574 147.917 163.914C129.233 159.954 138.203 89.5141 138.203 89.5141L158.735 88.9861L160.799 138.648L183.989 128.4L184.025 128.484C185.423 127.884 186.647 127.284 187.295 126.954C200.129 119.952 208.553 119.106 222.323 124.02L242.189 130.62C247.295 133.02 266.117 142.29 271.271 158.334Z" fill="#3CB7C6"/>
<path d="M201 122.544C201 122.544 200.538 122.808 199.758 123.366C198.664 124.161 197.694 125.114 196.878 126.192C195.679 127.801 194.725 129.578 194.046 131.466C193.219 133.786 192.512 136.147 191.928 138.54L188.4 151.518C187.938 153.144 187.566 154.476 187.29 155.436C187.164 155.874 187.056 156.228 186.978 156.498C186.949 156.625 186.904 156.748 186.846 156.864C186.854 156.735 186.878 156.608 186.918 156.486C186.984 156.204 187.068 155.85 187.176 155.406C187.422 154.434 187.776 153.096 188.184 151.458C189.072 148.098 190.284 143.52 191.628 138.456C192.216 136.055 192.933 133.688 193.776 131.364C194.477 129.458 195.465 127.669 196.704 126.06C197.549 124.975 198.562 124.031 199.704 123.264C200.011 123.056 200.332 122.867 200.664 122.7C200.772 122.64 200.884 122.588 201 122.544Z" fill="#263238"/>
<g opacity="0.3">
<path opacity="0.3" d="M193.506 132.498C187.764 148.044 177.438 156.732 162.816 164.52C171.449 163.564 179.722 160.534 186.93 155.688" fill="black"/>
</g>
<g opacity="0.3">
<path opacity="0.3" d="M211.8 121.434C214.232 160.386 216.664 199.336 219.096 238.284L211.896 253.128L211.8 121.434Z" fill="black"/>
</g>
<path d="M234.407 161.844C234.323 161.88 233.591 160.044 232.565 157.83C231.539 155.616 230.627 153.858 230.705 153.816C230.988 154.147 231.228 154.512 231.419 154.902C231.821 155.598 232.337 156.582 232.847 157.698C233.357 158.814 233.777 159.84 234.047 160.596C234.223 160.994 234.345 161.414 234.407 161.844Z" fill="#FAFAFA"/>
<path d="M250.751 153.63C249.514 154.592 248.211 155.466 246.851 156.246C245.549 157.12 244.19 157.905 242.783 158.598C244.028 157.643 245.333 156.769 246.689 155.982C247.99 155.109 249.347 154.323 250.751 153.63Z" fill="#FAFAFA"/>
<path d="M243.66 147.714C243.452 146.664 243.344 145.598 243.336 144.528C243.236 143.46 243.236 142.386 243.336 141.318C243.552 142.368 243.66 143.438 243.66 144.51C243.765 145.575 243.765 146.648 243.66 147.714Z" fill="#FAFAFA"/>
<path d="M259.974 146.574C257.961 145.575 256.045 144.392 254.25 143.04C255.28 143.493 256.266 144.039 257.196 144.672C258.179 145.218 259.109 145.855 259.974 146.574Z" fill="#FAFAFA"/>
<path d="M235.031 178.938C235.475 177.518 236.016 176.131 236.651 174.786C237.195 173.402 237.832 172.057 238.559 170.76C238.118 172.181 237.577 173.568 236.939 174.912C236.397 176.297 235.76 177.642 235.031 178.938Z" fill="#FAFAFA"/>
<path d="M227.766 186.294C227.189 185.487 226.699 184.623 226.302 183.714C225.809 182.85 225.407 181.937 225.102 180.99C225.679 181.798 226.171 182.662 226.572 183.57C227.065 184.433 227.465 185.346 227.766 186.294Z" fill="#FAFAFA"/>
<path d="M233.844 196.2C232.864 196.624 231.823 196.889 230.76 196.986C229.712 197.189 228.638 197.221 227.58 197.082C227.58 196.992 228.99 196.926 230.718 196.68C232.446 196.434 233.82 196.104 233.844 196.2Z" fill="#FAFAFA"/>
<path d="M241.638 185.364C241.898 184.362 242.256 183.387 242.706 182.454C243.06 181.481 243.513 180.546 244.056 179.664C243.799 180.667 243.443 181.642 242.994 182.574C242.642 183.549 242.187 184.485 241.638 185.364Z" fill="#FAFAFA"/>
<path d="M222.684 208.248C222.606 208.296 221.724 207.078 220.512 205.68C219.3 204.282 218.22 203.232 218.286 203.166C220.088 204.538 221.585 206.268 222.684 208.248Z" fill="#FAFAFA"/>
<path d="M219.246 183.642C218.821 184.69 218.296 185.694 217.68 186.642C217.156 187.649 216.539 188.605 215.838 189.498C216.271 188.453 216.797 187.449 217.41 186.498C217.933 185.492 218.548 184.536 219.246 183.642Z" fill="#FAFAFA"/>
<path d="M221.693 175.2C220.557 175.063 219.435 174.826 218.339 174.492C217.219 174.256 216.123 173.919 215.063 173.484C216.201 173.618 217.323 173.855 218.417 174.192C219.538 174.426 220.635 174.763 221.693 175.2Z" fill="#FAFAFA"/>
<path d="M221.55 157.8C222.209 158.57 222.811 159.389 223.35 160.248C223.968 161.045 224.525 161.888 225.018 162.768C224.279 162.072 223.634 161.283 223.098 160.422C222.468 159.621 221.947 158.739 221.55 157.8Z" fill="#FAFAFA"/>
<path d="M215.999 156.93C214.689 158.349 213.228 159.62 211.643 160.722C212.259 159.976 212.955 159.3 213.719 158.706C214.414 158.035 215.178 157.44 215.999 156.93Z" fill="#FAFAFA"/>
<path d="M220.385 147.828C218.359 146.23 216.67 144.246 215.417 141.99C215.495 141.942 216.479 143.346 217.853 144.954C219.227 146.562 220.451 147.762 220.385 147.828Z" fill="#FAFAFA"/>
<path d="M235.734 145.026C234.65 145.524 233.523 145.926 232.368 146.226C231.245 146.624 230.088 146.922 228.912 147.114C229.999 146.621 231.125 146.219 232.278 145.914C233.402 145.517 234.558 145.22 235.734 145.026Z" fill="#FAFAFA"/>
<path d="M214.127 130.41C214.037 130.41 214.079 129.036 213.863 127.368C213.647 125.7 213.263 124.368 213.371 124.368C214.186 126.277 214.448 128.377 214.127 130.428V130.41Z" fill="#FAFAFA"/>
<path d="M200.471 173.916C200.029 174.3 199.558 174.649 199.061 174.96C198.173 175.56 196.961 176.454 195.665 177.474C194.369 178.494 193.229 179.46 192.413 180.168C191.991 180.576 191.54 180.953 191.063 181.296C191.417 180.825 191.819 180.392 192.263 180.006C193.285 179.025 194.356 178.098 195.473 177.228C196.586 176.353 197.741 175.534 198.935 174.774C199.419 174.44 199.934 174.153 200.471 173.916Z" fill="#FAFAFA"/>
<path d="M199.685 169.104C199.607 169.146 198.599 167.58 197.201 165.75C195.803 163.92 194.567 162.528 194.633 162.462C194.975 162.694 195.28 162.975 195.539 163.296C196.215 164.017 196.854 164.772 197.453 165.558C198.149 166.482 198.731 167.358 199.121 168.006C199.36 168.344 199.55 168.714 199.685 169.104Z" fill="#FAFAFA"/>
<path d="M203.339 150.138C201.484 151.4 199.515 152.486 197.459 153.384C198.359 152.712 199.319 152.123 200.327 151.626C201.282 151.037 202.29 150.538 203.339 150.138Z" fill="#FAFAFA"/>
<path d="M199.722 141.858C199.344 141.637 198.998 141.364 198.696 141.048C197.918 140.338 197.194 139.572 196.53 138.756C195.858 137.941 195.247 137.079 194.7 136.176C194.447 135.818 194.245 135.426 194.1 135.012C194.184 134.964 195.21 136.668 196.764 138.558C198.318 140.448 199.8 141.786 199.722 141.858Z" fill="#FAFAFA"/>
<path d="M205.95 141.684C206.223 140.773 206.593 139.894 207.054 139.062C207.425 138.184 207.889 137.349 208.44 136.572C208.17 137.484 207.8 138.364 207.336 139.194C206.969 140.073 206.504 140.908 205.95 141.684Z" fill="#FAFAFA"/>
<path d="M204.287 132.21C204.191 132.21 204.287 130.344 203.939 128.094C203.591 125.844 202.925 124.104 203.015 124.068C203.242 124.411 203.414 124.788 203.525 125.184C203.856 126.113 204.099 127.071 204.251 128.046C204.4 129.02 204.463 130.006 204.437 130.992C204.453 131.403 204.402 131.815 204.287 132.21Z" fill="#FAFAFA"/>
<path d="M205.799 180C205.759 179.415 205.759 178.827 205.799 178.242C205.841 177.162 205.871 175.668 205.829 174.042C205.787 172.416 205.679 170.904 205.589 169.842C205.508 169.262 205.471 168.676 205.481 168.09C205.647 168.654 205.758 169.233 205.811 169.818C205.998 171.223 206.108 172.637 206.141 174.054C206.179 175.469 206.139 176.885 206.021 178.296C206.006 178.87 205.932 179.441 205.799 180Z" fill="#FAFAFA"/>
<path d="M204.912 194.934C204.074 194.163 203.186 193.447 202.254 192.792C201.27 192.223 200.25 191.718 199.2 191.28C200.35 191.475 201.449 191.899 202.433 192.527C203.416 193.154 204.263 193.973 204.924 194.934H204.912Z" fill="#FAFAFA"/>
<path d="M212.4 204.174C211.079 205.035 209.702 205.806 208.278 206.484C206.903 207.256 205.478 207.934 204.012 208.512C205.335 207.656 206.712 206.887 208.134 206.208C209.509 205.436 210.934 204.756 212.4 204.174Z" fill="#FAFAFA"/>
<path d="M191.292 208.272C190.197 207.053 189.183 205.765 188.256 204.414C187.243 203.124 186.313 201.772 185.472 200.364C186.564 201.587 187.578 202.878 188.508 204.228C189.518 205.517 190.448 206.868 191.292 208.272Z" fill="#FAFAFA"/>
<path d="M184.799 191.208C184.695 190.807 184.649 190.393 184.661 189.978C184.631 189.216 184.619 188.178 184.661 186.978C184.703 185.778 184.823 184.764 184.925 183.978C184.954 183.569 185.036 183.165 185.171 182.778C185.261 182.778 185.081 184.662 184.973 186.978C184.865 189.294 184.859 191.208 184.799 191.208Z" fill="#FAFAFA"/>
<path d="M177.732 220.338C176.503 219.516 175.332 218.61 174.228 217.626C173.058 216.721 171.953 215.734 170.922 214.674C172.151 215.496 173.322 216.402 174.426 217.386C175.596 218.291 176.7 219.278 177.732 220.338Z" fill="#FAFAFA"/>
<path d="M181.956 219.444C181.762 217.884 181.672 216.312 181.686 214.74C181.599 213.171 181.615 211.597 181.734 210.03C181.928 211.59 182.018 213.162 182.004 214.734C182.09 216.303 182.074 217.877 181.956 219.444Z" fill="#FAFAFA"/>
<path d="M190.296 237.51C190.296 237.558 189.546 237.264 188.34 236.874C185.199 235.863 181.904 235.414 178.608 235.548C177.342 235.596 176.562 235.686 176.556 235.632C176.729 235.564 176.911 235.522 177.096 235.506C177.444 235.44 177.96 235.38 178.596 235.326C181.922 235.075 185.264 235.533 188.4 236.67C188.877 236.843 189.344 237.043 189.798 237.27C189.975 237.324 190.143 237.405 190.296 237.51Z" fill="#FAFAFA"/>
<path d="M197.166 240.81C197.654 241.065 198.109 241.377 198.522 241.74C200.598 243.384 202.476 245.262 204.12 247.338C204.483 247.751 204.795 248.207 205.05 248.694C204.653 248.322 204.284 247.92 203.946 247.494C203.286 246.732 202.35 245.694 201.264 244.608C200.178 243.522 199.14 242.592 198.378 241.926C197.947 241.584 197.542 241.211 197.166 240.81Z" fill="#FAFAFA"/>
<path d="M200.159 209.55C199.55 208.427 199.03 207.257 198.605 206.052C198.087 204.888 197.663 203.684 197.339 202.452C197.948 203.575 198.468 204.745 198.893 205.95C199.411 207.114 199.834 208.318 200.159 209.55Z" fill="#FAFAFA"/>
<path d="M176.057 148.74C175.802 149.117 175.493 149.455 175.139 149.742C174.339 150.486 173.48 151.164 172.571 151.77C171.661 152.38 170.702 152.914 169.703 153.366C169.301 153.58 168.871 153.736 168.425 153.828C168.389 153.738 170.291 152.922 172.397 151.512C174.503 150.102 175.991 148.668 176.057 148.74Z" fill="#FAFAFA"/>
<path d="M177.598 142.38C177.474 140.596 177.559 138.804 177.85 137.04C177.975 138.824 177.89 140.616 177.598 142.38Z" fill="#FAFAFA"/>
<path d="M165.631 147.72C164.556 147.4 163.513 146.98 162.517 146.466C161.471 146.045 160.467 145.529 159.517 144.924C160.59 145.247 161.633 145.667 162.631 146.178C163.676 146.599 164.68 147.115 165.631 147.72Z" fill="#FAFAFA"/>
<path d="M186.984 139.584C186.915 138.477 186.949 137.366 187.086 136.266C187.115 135.157 187.251 134.054 187.494 132.972C187.564 134.079 187.532 135.189 187.398 136.29C187.365 137.399 187.226 138.502 186.984 139.584Z" fill="#FAFAFA"/>
<path d="M159.27 160.44C158.055 160.134 156.899 159.627 155.85 158.94C154.747 158.342 153.754 157.558 152.916 156.624C152.976 156.552 154.254 157.626 156.006 158.676C157.758 159.726 159.306 160.35 159.27 160.44Z" fill="#FAFAFA"/>
<path d="M150.371 148.23C149.598 149.295 148.744 150.298 147.815 151.23C146.961 152.24 146.03 153.183 145.031 154.05C146.656 151.964 148.441 150.008 150.371 148.2V148.23Z" fill="#FAFAFA"/>
<path d="M149.609 137.292C148.587 136.946 147.637 136.416 146.807 135.726C145.918 135.119 145.144 134.36 144.521 133.482C144.587 133.416 145.595 134.43 146.999 135.474C148.403 136.518 149.651 137.214 149.609 137.292Z" fill="#FAFAFA"/>
<path d="M144 139.584C143.66 140.226 143.23 140.816 142.722 141.336C142.291 141.922 141.78 142.445 141.204 142.89C141.973 141.66 142.915 140.546 144 139.584Z" fill="#FAFAFA"/>
<path d="M155.999 119.28C155.301 120.376 154.516 121.416 153.653 122.388C152.873 123.429 152.008 124.405 151.067 125.304C151.767 124.206 152.551 123.165 153.413 122.19C154.197 121.153 155.062 120.18 155.999 119.28Z" fill="#FAFAFA"/>
<path d="M145.722 121.59C144.796 120.769 143.941 119.872 143.166 118.908C142.315 118.014 141.54 117.051 140.85 116.028C141.776 116.846 142.631 117.741 143.406 118.704C144.257 119.6 145.031 120.565 145.722 121.59Z" fill="#FAFAFA"/>
<path d="M150.869 108.558C150.181 107.669 149.578 106.717 149.069 105.714C148.474 104.761 147.966 103.757 147.551 102.714C148.238 103.606 148.841 104.56 149.351 105.564C149.946 106.514 150.454 107.516 150.869 108.558Z" fill="#FAFAFA"/>
<path d="M150.599 100.152C150.527 100.092 151.427 98.9521 152.141 97.3381C152.855 95.7241 153.113 94.3021 153.209 94.3381C153.059 96.5305 152.134 98.598 150.599 100.17V100.152Z" fill="#FAFAFA"/>
<path d="M140.705 99.6542C140.612 98.3858 140.867 97.116 141.443 95.9822C141.816 95.1685 142.309 94.4159 142.907 93.7502C143.136 93.457 143.419 93.2105 143.741 93.0242C142.962 93.9782 142.287 95.0119 141.725 96.1082C141.259 97.2501 140.917 98.439 140.705 99.6542Z" fill="#FAFAFA"/>
<path d="M227.214 85.3802C226.938 82.8932 226.908 80.3851 227.124 77.8922C227.348 75.3841 228.308 72.9982 229.884 71.0342C231.522 69.1382 234.042 67.9202 236.52 68.2382C238.056 68.4362 239.52 69.1922 241.05 69.1502C242.85 69.0962 244.392 67.9922 246.018 67.2542C248.581 66.0905 251.453 65.7895 254.202 66.3962C255.651 66.6693 256.992 67.3475 258.072 68.3522C258.603 68.8591 258.997 69.4929 259.217 70.194C259.436 70.8952 259.474 71.6406 259.326 72.3602C261.139 72.2806 262.954 72.4399 264.726 72.8342C266.5 73.2339 268.047 74.3103 269.04 75.8342C269.934 77.4002 269.874 79.5782 268.59 80.8442C269.435 80.7309 270.292 80.9341 270.997 81.4149C271.701 81.8956 272.203 82.6198 272.406 83.4482C272.565 84.2865 272.48 85.153 272.161 85.9444C271.842 86.7358 271.302 87.4188 270.606 87.9122C268.928 88.9395 266.94 89.3391 264.996 89.0402C263.328 88.7222 261.396 88.2542 260.058 87.2402" fill="#263238"/>
<path d="M225.912 141.9C229.222 142.75 232.734 142.257 235.682 140.529C238.63 138.8 240.776 135.976 241.65 132.672C242.664 128.826 243.492 125.604 243.492 125.604C243.492 125.604 253.518 127.326 256.836 117.804C260.154 108.282 265.836 85.878 265.836 85.878C261.199 81.7318 255.54 78.898 249.443 77.6692C243.345 76.4405 237.031 76.8612 231.15 78.888L229.35 79.488L216.612 125.886C216.151 127.548 216.026 129.286 216.246 130.997C216.466 132.708 217.025 134.358 217.892 135.85C218.758 137.342 219.914 138.646 221.291 139.685C222.669 140.724 224.24 141.477 225.912 141.9Z" fill="#B78876"/>
<path d="M243.551 125.472C239.125 124.077 235.213 121.398 232.313 117.774C232.313 117.774 232.949 125.616 242.747 127.974L243.551 125.472Z" fill="#AA6550"/>
<path d="M227.243 89.7962C227.105 89.6702 221.345 85.6622 219.371 92.2502C217.397 98.8382 224.411 99.4502 224.477 99.2762C224.543 99.1022 227.243 89.7962 227.243 89.7962Z" fill="#B78876"/>
<path d="M223.199 96.174C223.199 96.174 223.061 96.222 222.839 96.252C222.538 96.277 222.238 96.187 221.999 96C221.399 95.538 221.129 94.254 221.453 93.06C221.604 92.4898 221.881 91.9607 222.263 91.512C222.39 91.3292 222.558 91.1794 222.755 91.075C222.951 90.9706 223.169 90.9147 223.391 90.912C223.537 90.9106 223.678 90.9622 223.789 91.0571C223.899 91.152 223.971 91.2839 223.991 91.428C224.027 91.638 223.943 91.758 223.991 91.782C224.039 91.806 224.165 91.71 224.189 91.422C224.202 91.2497 224.156 91.0782 224.057 90.936C223.987 90.8388 223.897 90.7568 223.794 90.6949C223.691 90.633 223.577 90.5926 223.457 90.576C223.171 90.5472 222.882 90.5928 222.618 90.7084C222.354 90.824 222.125 91.0058 221.951 91.236C221.499 91.721 221.173 92.3106 221.003 92.952C220.643 94.29 220.95 95.736 221.819 96.3C221.982 96.404 222.165 96.4703 222.356 96.4942C222.547 96.5181 222.741 96.4989 222.923 96.438C223.157 96.33 223.235 96.198 223.199 96.174Z" fill="#AA6550"/>
<path d="M257.765 99.6299C257.648 99.9908 257.394 100.291 257.056 100.465C256.719 100.639 256.327 100.673 255.965 100.56C255.788 100.515 255.621 100.436 255.474 100.326C255.328 100.216 255.205 100.078 255.113 99.9193C255.021 99.7611 254.961 99.5861 254.937 99.4045C254.914 99.2229 254.927 99.0384 254.975 98.8619C255.091 98.5068 255.341 98.2106 255.671 98.0359C256.001 97.8613 256.386 97.8218 256.745 97.9259C256.926 97.9678 257.096 98.0457 257.246 98.1549C257.396 98.2641 257.522 98.4023 257.617 98.5613C257.712 98.7204 257.774 98.8969 257.8 99.0805C257.825 99.2641 257.814 99.451 257.765 99.6299Z" fill="#263238"/>
<path d="M259.541 98.706C259.313 98.826 258.539 97.722 257.075 97.23C255.611 96.738 254.285 97.116 254.189 96.882C254.135 96.78 254.417 96.516 254.999 96.33C255.786 96.098 256.625 96.119 257.399 96.39C258.162 96.6426 258.824 97.1324 259.289 97.788C259.607 98.286 259.649 98.658 259.541 98.706Z" fill="#263238"/>
<path d="M243.365 94.8001C243.249 95.1553 243 95.4514 242.669 95.6261C242.339 95.8007 241.954 95.8402 241.595 95.7361C241.418 95.6915 241.251 95.6119 241.104 95.5019C240.958 95.3919 240.835 95.2537 240.743 95.0955C240.65 94.9373 240.591 94.7623 240.567 94.5807C240.544 94.3991 240.556 94.2146 240.605 94.0381C240.72 93.6821 240.969 93.3849 241.3 93.21C241.63 93.0352 242.016 92.9964 242.375 93.1021C242.553 93.1467 242.72 93.2263 242.866 93.3363C243.012 93.4463 243.135 93.5845 243.228 93.7427C243.32 93.9009 243.379 94.0759 243.403 94.2575C243.427 94.4391 243.414 94.6236 243.365 94.8001Z" fill="#263238"/>
<path d="M245.058 94.1462C244.83 94.2722 244.05 93.1622 242.586 92.6702C241.122 92.1782 239.802 92.5562 239.7 92.3222C239.652 92.2202 239.928 91.9562 240.516 91.7762C241.302 91.5438 242.141 91.5627 242.916 91.8302C243.679 92.0846 244.343 92.5739 244.812 93.2282C245.118 93.7262 245.166 94.0982 245.058 94.1462Z" fill="#263238"/>
<path d="M246.725 106.8C246.725 106.716 247.709 106.86 249.245 107.166C249.635 107.256 250.013 107.298 250.163 107.064C250.324 106.685 250.365 106.267 250.283 105.864C250.235 104.838 250.187 103.764 250.133 102.642C249.959 98.0761 249.965 94.3681 250.133 94.3621C250.301 94.3561 250.607 98.0581 250.781 102.624C250.817 103.746 250.847 104.82 250.877 105.846C250.963 106.375 250.859 106.917 250.583 107.376C250.485 107.49 250.362 107.58 250.224 107.639C250.085 107.698 249.935 107.725 249.785 107.718C249.558 107.707 249.334 107.664 249.119 107.592C247.625 107.178 246.701 106.878 246.725 106.8Z" fill="#263238"/>
<path d="M242.076 106.362C242.316 106.428 241.788 108.018 242.772 109.602C243.756 111.186 245.502 111.582 245.442 111.804C245.442 111.912 244.956 111.99 244.242 111.768C243.306 111.469 242.507 110.848 241.986 110.016C241.48 109.219 241.308 108.256 241.506 107.334C241.662 106.65 241.968 106.314 242.076 106.362Z" fill="#263238"/>
<path d="M259.865 95.952C259.499 96.198 258.605 95.514 257.399 95.088C256.193 94.662 255.083 94.56 254.963 94.134C254.915 93.93 255.191 93.648 255.743 93.486C256.473 93.3105 257.239 93.356 257.943 93.6167C258.647 93.8773 259.258 94.3415 259.697 94.95C260.009 95.436 260.033 95.826 259.865 95.952Z" fill="#263238"/>
<path d="M244.925 88.2C244.703 88.32 244.325 88.122 243.899 87.864C243.347 87.5347 242.769 87.2518 242.171 87.018C241.565 86.7997 240.94 86.635 240.305 86.526C239.795 86.424 239.399 86.346 239.309 86.106C239.219 85.866 239.507 85.506 240.155 85.266C241.018 84.9936 241.946 85.0168 242.794 85.332C243.642 85.6472 244.36 86.2363 244.835 87.006C245.165 87.636 245.135 88.104 244.925 88.2Z" fill="#263238"/>
<path d="M265.337 88.9921C260.326 88.7005 255.538 86.8195 251.669 83.6221C247.361 80.0941 241.967 77.6221 240.497 78.3181C239.027 79.0141 237.629 83.9581 232.481 84.3181C232.481 84.3181 230.645 93.9481 226.913 92.7181C223.181 91.4881 228.923 77.2561 228.923 77.2561L239.273 74.8201L249.875 75.2101L259.397 77.3701L267.635 82.1041L265.337 88.9921Z" fill="#263238"/>
<path d="M211.877 51.2222H77.1592V261.006H211.877V51.2222Z" fill="#FAFAFA"/>
<path d="M211.878 261C211.878 259.71 211.818 174.51 211.734 51.2161L211.878 51.3601H77.1775L77.3395 51.2041C77.3395 130.572 77.3395 203.652 77.3035 260.988L77.1775 260.862L211.895 260.988L77.1775 261.108H77.0575V261C77.0575 203.664 77.0575 130.584 77.0215 51.2161V51.0601H77.1955H211.895H212.039V51.2041C211.937 174.516 211.878 259.716 211.878 261Z" fill="#263238"/>
<path d="M113.268 97.9381H96.0301C95.4583 97.9381 94.9098 97.7113 94.5049 97.3075C94.1 96.9038 93.8717 96.3559 93.8701 95.7841V71.9221C93.8717 71.3502 94.1 70.8024 94.5049 70.3986C94.9098 69.9948 95.4583 69.7681 96.0301 69.7681H106.962L115.422 78.4861V95.7841C115.422 96.3553 115.195 96.9032 114.791 97.3072C114.387 97.7111 113.839 97.9381 113.268 97.9381Z" fill="#3CB7C6"/>
<path d="M106.962 69.7681V76.4821C106.963 77.0131 107.175 77.5219 107.551 77.8974C107.926 78.2728 108.435 78.4845 108.966 78.4861H115.422L106.962 69.7681Z" fill="#3CB7C6"/>
<g opacity="0.2">
<path opacity="0.2" d="M107.051 77.0701C107.053 77.5782 107.23 78.0702 107.551 78.4642C107.872 78.8582 108.318 79.1306 108.815 79.2361L109.031 79.2841C109.871 79.4341 115.421 80.4181 115.421 80.2921V78.4921H108.965C108.965 78.4921 107.357 78.4321 107.051 77.0701Z" fill="black"/>
</g>
<g opacity="0.3">
<path opacity="0.3" d="M106.962 69.7681V76.4821C106.963 77.0131 107.175 77.5219 107.551 77.8974C107.926 78.2728 108.435 78.4845 108.966 78.4861H115.422L106.962 69.7681Z" fill="white"/>
</g>
<path d="M105.516 76.2C104.192 76.3543 102.858 76.4064 101.526 76.356C100.196 76.4066 98.864 76.3544 97.542 76.2C98.864 76.0457 100.196 75.9935 101.526 76.044C102.858 75.9937 104.192 76.0458 105.516 76.2Z" fill="#FAFAFA"/>
<path d="M110.664 80.0041C110.664 80.0881 107.73 80.1601 104.106 80.1601C100.482 80.1601 97.542 80.0881 97.542 80.0041C97.542 79.9201 100.482 79.8481 104.106 79.8481C107.73 79.8481 110.664 79.9141 110.664 80.0041Z" fill="#FAFAFA"/>
<path d="M111.846 83.1721C111.846 83.2621 108.648 83.3281 104.694 83.3281C100.74 83.3281 97.542 83.2621 97.542 83.1721C97.542 83.0821 100.746 83.0161 104.694 83.0161C108.642 83.0161 111.846 83.0881 111.846 83.1721Z" fill="#FAFAFA"/>
<path d="M111.846 86.166C111.846 86.25 108.648 86.322 104.694 86.322C100.74 86.322 97.542 86.25 97.542 86.166C97.542 86.082 100.746 86.01 104.694 86.01C108.642 86.01 111.846 86.076 111.846 86.166Z" fill="#FAFAFA"/>
<path d="M111.846 89.154C111.846 89.244 108.648 89.3101 104.694 89.3101C100.74 89.3101 97.542 89.244 97.542 89.154C97.542 89.064 100.746 88.998 104.694 88.998C108.642 88.998 111.846 89.07 111.846 89.154Z" fill="#FAFAFA"/>
<path d="M111.846 92.1479C111.846 92.2319 108.648 92.3039 104.694 92.3039C100.74 92.3039 97.542 92.2319 97.542 92.1479C97.542 92.0639 100.746 91.9919 104.694 91.9919C108.642 91.9919 111.846 92.0579 111.846 92.1479Z" fill="#FAFAFA"/>
<path d="M121.451 82.0262H119.651V81.3662H124.037V82.0262H122.237V86.6702H121.487L121.451 82.0262Z" fill="#263238"/>
<path d="M128.693 86.0102V86.6702H124.847V81.3662H128.585V82.0262H125.585V83.6522H128.243V84.3002H125.585V86.0102H128.693Z" fill="#263238"/>
<path d="M133.463 86.6701L132.317 85.0381C132.207 85.0444 132.097 85.0444 131.987 85.0381H130.679V86.6521H129.917V81.3481H131.999C133.379 81.3481 134.207 82.0441 134.207 83.1961C134.225 83.5646 134.121 83.9288 133.911 84.2317C133.7 84.5346 133.395 84.7591 133.043 84.8701L134.303 86.6701H133.463ZM133.463 83.2141C133.463 82.4581 132.959 82.0141 131.987 82.0141H130.679V84.4141H131.963C132.935 84.4141 133.439 84.0001 133.439 83.2141H133.463Z" fill="#263238"/>
<path d="M140.339 86.6701V82.8001L138.419 86.0161H138.071L136.157 82.8241V86.6641H135.431V81.3601H136.031L138.239 85.0861L140.417 81.3601H141.017V86.6641L140.339 86.6701Z" fill="#263238"/>
<path d="M142.2 86.0641L142.476 85.4641C142.972 85.863 143.592 86.0753 144.228 86.0641C145.146 86.0641 145.536 85.7041 145.536 85.2421C145.536 83.9461 142.326 84.7681 142.326 82.8001C142.326 81.9781 142.962 81.2821 144.354 81.2821C144.956 81.2703 145.549 81.4351 146.058 81.7561L145.812 82.3561C145.376 82.0796 144.871 81.932 144.354 81.9301C143.454 81.9301 143.07 82.3081 143.07 82.7701C143.07 84.0601 146.28 83.2501 146.28 85.1701C146.28 85.9801 145.626 86.6761 144.228 86.6761C143.502 86.7118 142.785 86.4956 142.2 86.0641Z" fill="#263238"/>
<path d="M148.968 84C148.946 83.4382 149.093 82.8827 149.39 82.405C149.686 81.9273 150.119 81.5491 150.632 81.319C151.145 81.0889 151.715 81.0174 152.269 81.1137C152.823 81.21 153.335 81.4697 153.741 81.8594C154.146 82.2492 154.425 82.7512 154.543 83.3009C154.661 83.8507 154.612 84.4231 154.402 84.9447C154.192 85.4664 153.831 85.9133 153.365 86.2282C152.899 86.5431 152.35 86.7116 151.788 86.712C151.422 86.7292 151.057 86.6715 150.714 86.5427C150.371 86.4139 150.058 86.2165 149.794 85.9627C149.53 85.7089 149.321 85.404 149.179 85.0665C149.037 84.7291 148.965 84.3662 148.968 84ZM153.84 84C153.843 83.592 153.726 83.1921 153.501 82.8512C153.277 82.5102 152.957 82.2437 152.581 82.0853C152.205 81.927 151.79 81.884 151.389 81.9618C150.989 82.0397 150.62 82.2349 150.331 82.5225C150.042 82.8102 149.844 83.1775 149.764 83.5775C149.684 83.9776 149.724 84.3925 149.881 84.7695C150.037 85.1465 150.301 85.4686 150.641 85.6948C150.981 85.921 151.38 86.0412 151.788 86.04C152.059 86.0491 152.329 86.0027 152.581 85.9035C152.833 85.8044 153.063 85.6547 153.255 85.4636C153.447 85.2725 153.598 85.044 153.699 84.7923C153.799 84.5406 153.847 84.271 153.84 84Z" fill="#263238"/>
<path d="M156.516 82.0262V83.8742H159.174V84.5282H156.516V86.6702H155.76V81.3662H159.498V82.0262H156.516Z" fill="#263238"/>
<path d="M162.12 86.064L162.402 85.464C162.896 85.862 163.514 86.0743 164.148 86.064C165.066 86.064 165.462 85.704 165.462 85.242C165.462 83.946 162.252 84.768 162.252 82.8C162.252 81.978 162.888 81.282 164.28 81.282C164.882 81.2713 165.474 81.436 165.984 81.756L165.732 82.356C165.298 82.0803 164.795 81.9327 164.28 81.93C163.38 81.93 162.99 82.308 162.99 82.77C162.99 84.06 166.2 83.25 166.2 85.17C166.2 85.98 165.552 86.676 164.148 86.676C163.422 86.7107 162.706 86.4946 162.12 86.064Z" fill="#263238"/>
<path d="M171.156 86.0102V86.6702H167.31V81.3662H171.048V82.0262H168.048V83.6522H170.706V84.3002H168.048V86.0102H171.156Z" fill="#263238"/>
<path d="M175.925 86.6701L174.785 85.0381C174.673 85.0443 174.561 85.0443 174.449 85.0381H173.141V86.6521H172.385V81.3481H174.449C175.829 81.3481 176.663 82.0441 176.663 83.1961C176.681 83.5654 176.576 83.9301 176.364 84.2331C176.152 84.5361 175.846 84.7602 175.493 84.8701L176.753 86.6701H175.925ZM175.925 83.2141C175.925 82.4581 175.421 82.0141 174.449 82.0141H173.165V84.4141H174.449C175.397 84.4141 175.901 84.0001 175.901 83.2141H175.925Z" fill="#263238"/>
<path d="M182.49 81.3662L180.168 86.6702H179.4L177.066 81.3662H177.888L179.796 85.7222L181.716 81.3662H182.49Z" fill="#263238"/>
<path d="M183.167 81.3662H183.923V86.6702H183.167V81.3662Z" fill="#263238"/>
<path d="M185.082 84.0001C185.077 83.6345 185.147 83.2719 185.288 82.9345C185.429 82.5971 185.637 82.292 185.9 82.038C186.163 81.784 186.475 81.5865 186.817 81.4575C187.16 81.3286 187.524 81.2709 187.89 81.2881C188.265 81.2731 188.64 81.3393 188.988 81.4822C189.336 81.6251 189.649 81.8413 189.906 82.1161L189.414 82.5901C189.221 82.3898 188.989 82.2327 188.731 82.1293C188.474 82.0258 188.197 81.9784 187.92 81.9901C187.582 81.9915 187.25 82.0767 186.953 82.2381C186.656 82.3995 186.404 82.6321 186.22 82.9149C186.035 83.1977 185.924 83.5219 185.895 83.8585C185.867 84.195 185.922 84.5334 186.057 84.8432C186.192 85.1529 186.401 85.4244 186.666 85.6333C186.932 85.8421 187.245 85.9818 187.578 86.0398C187.91 86.0978 188.252 86.0723 188.573 85.9655C188.893 85.8587 189.182 85.6741 189.414 85.4281L189.906 85.9021C189.648 86.1782 189.334 86.3956 188.986 86.5395C188.637 86.6834 188.261 86.7505 187.884 86.7361C187.517 86.7526 187.151 86.6937 186.808 86.5629C186.465 86.4321 186.152 86.2323 185.889 85.9758C185.627 85.7193 185.419 85.4116 185.281 85.0718C185.142 84.7319 185.074 84.3672 185.082 84.0001Z" fill="#263238"/>
<path d="M194.838 86.0102V86.6702H190.992V81.3662H194.73V82.0262H191.73V83.6522H194.4V84.3002H191.742V86.0102H194.838Z" fill="#263238"/>
<path d="M126.209 92.1121L124.793 96.3121H124.163L122.999 92.9641L121.841 96.3361H121.199L119.789 92.1361H120.389L121.529 95.5741L122.729 92.1361H123.287L124.451 95.5921L125.615 92.1361L126.209 92.1121Z" fill="#E0E0E0"/>
<path d="M129.498 94.9322H126.9C126.939 95.2069 127.08 95.4565 127.297 95.6303C127.513 95.8041 127.787 95.8892 128.064 95.8682C128.235 95.8735 128.406 95.8421 128.564 95.7758C128.723 95.7096 128.865 95.6101 128.982 95.4842L129.306 95.8562C129.145 96.0293 128.948 96.1651 128.73 96.2543C128.511 96.3434 128.276 96.3836 128.04 96.3722C127.817 96.389 127.594 96.359 127.383 96.2841C127.173 96.2092 126.981 96.091 126.819 95.9372C126.658 95.7834 126.53 95.5974 126.445 95.3912C126.359 95.1851 126.318 94.9633 126.324 94.7402C126.315 94.526 126.35 94.3122 126.426 94.1121C126.503 93.9119 126.621 93.7297 126.771 93.5767C126.921 93.4237 127.101 93.3032 127.3 93.2226C127.498 93.142 127.711 93.103 127.926 93.1082C128.141 93.1027 128.355 93.1422 128.554 93.224C128.753 93.3059 128.933 93.4284 129.082 93.5836C129.231 93.7389 129.346 93.9235 129.42 94.1258C129.493 94.328 129.524 94.5434 129.51 94.7582C129.51 94.8002 129.504 94.8782 129.498 94.9322ZM126.9 94.5182H128.952C128.924 94.2652 128.804 94.0312 128.615 93.8613C128.426 93.6913 128.18 93.5973 127.926 93.5973C127.671 93.5973 127.426 93.6913 127.236 93.8613C127.047 94.0312 126.927 94.2652 126.9 94.5182Z" fill="#E0E0E0"/>
<path d="M130.313 91.8601H130.913V96.3361H130.313V91.8601Z" fill="#E0E0E0"/>
<path d="M131.7 94.74C131.695 94.5193 131.736 94.3001 131.82 94.0961C131.905 93.8921 132.03 93.7077 132.189 93.5544C132.348 93.4012 132.537 93.2824 132.744 93.2056C132.951 93.1288 133.171 93.0956 133.392 93.108C133.65 93.0939 133.908 93.15 134.137 93.2704C134.366 93.3908 134.559 93.5711 134.694 93.792L134.25 94.074C134.157 93.9298 134.029 93.8119 133.878 93.732C133.726 93.6521 133.557 93.6128 133.386 93.618C133.101 93.6388 132.836 93.7663 132.642 93.975C132.448 94.1837 132.34 94.4581 132.34 94.743C132.34 95.028 132.448 95.3023 132.642 95.511C132.836 95.7197 133.101 95.8473 133.386 95.868C133.557 95.8732 133.726 95.8339 133.878 95.754C134.029 95.6741 134.157 95.5563 134.25 95.412L134.694 95.688C134.559 95.909 134.366 96.0892 134.137 96.2096C133.908 96.3301 133.65 96.3862 133.392 96.372C133.171 96.3845 132.951 96.3512 132.744 96.2744C132.537 96.1976 132.348 96.0788 132.189 95.9256C132.03 95.7724 131.905 95.588 131.82 95.3839C131.736 95.1799 131.695 94.9607 131.7 94.74Z" fill="#E0E0E0"/>
<path d="M135.095 94.7401C135.089 94.4104 135.181 94.0864 135.36 93.8093C135.539 93.5322 135.796 93.3146 136.099 93.184C136.401 93.0534 136.736 93.0158 137.06 93.076C137.385 93.1363 137.684 93.2915 137.919 93.5221C138.155 93.7527 138.317 94.0482 138.384 94.371C138.451 94.6938 138.421 95.0293 138.297 95.3348C138.173 95.6404 137.961 95.9021 137.688 96.0868C137.415 96.2716 137.093 96.3708 136.763 96.3721C136.545 96.382 136.326 96.3469 136.122 96.2689C135.917 96.1908 135.731 96.0716 135.575 95.9185C135.418 95.7655 135.295 95.5819 135.212 95.3791C135.13 95.1764 135.09 94.9589 135.095 94.7401ZM137.837 94.7401C137.828 94.5285 137.756 94.3244 137.632 94.1531C137.507 93.9818 137.335 93.8509 137.137 93.7766C136.939 93.7024 136.723 93.6881 136.516 93.7355C136.31 93.783 136.122 93.89 135.976 94.0434C135.83 94.1967 135.732 94.3897 135.695 94.5981C135.658 94.8066 135.683 95.0214 135.767 95.2159C135.85 95.4103 135.99 95.5758 136.167 95.6918C136.344 95.8077 136.551 95.8691 136.763 95.8681C136.91 95.8718 137.056 95.8448 137.191 95.7887C137.327 95.7326 137.449 95.6488 137.551 95.5425C137.652 95.4362 137.73 95.3099 137.779 95.1717C137.828 95.0335 137.848 94.8864 137.837 94.7401Z" fill="#E0E0E0"/>
<path d="M144.534 94.5V96.336H143.934V94.566C143.934 93.936 143.628 93.63 143.106 93.63C142.584 93.63 142.146 93.996 142.146 94.692V96.336H141.546V94.566C141.546 93.936 141.24 93.63 140.718 93.63C140.196 93.63 139.758 93.996 139.758 94.692V96.336H139.158V93.138H139.8V93.618C139.929 93.4495 140.097 93.3151 140.289 93.2262C140.481 93.1373 140.693 93.0967 140.904 93.108C141.127 93.0951 141.348 93.1443 141.544 93.2503C141.74 93.3563 141.903 93.5148 142.014 93.708C142.154 93.5142 142.339 93.358 142.554 93.2533C142.768 93.1486 143.006 93.0986 143.244 93.108C143.427 93.0918 143.61 93.1175 143.781 93.1833C143.952 93.2492 144.106 93.3532 144.231 93.4876C144.355 93.622 144.447 93.7831 144.5 93.9586C144.552 94.1341 144.564 94.3193 144.534 94.5Z" fill="#E0E0E0"/>
<path d="M148.499 94.9322H145.907C145.943 95.207 146.083 95.4574 146.299 95.6316C146.514 95.8059 146.789 95.8905 147.065 95.8682C147.237 95.8744 147.409 95.8434 147.569 95.7771C147.728 95.7108 147.872 95.6109 147.989 95.4842L148.307 95.8562C148.071 96.1007 147.769 96.2712 147.437 96.3465C147.106 96.4219 146.76 96.3989 146.441 96.2804C146.123 96.162 145.846 95.9531 145.644 95.6795C145.443 95.4059 145.326 95.0795 145.307 94.7402C145.299 94.5257 145.334 94.3118 145.412 94.1116C145.489 93.9115 145.607 93.7293 145.758 93.5764C145.909 93.4235 146.089 93.3031 146.288 93.2226C146.487 93.142 146.7 93.1031 146.915 93.1082C147.13 93.1026 147.343 93.1421 147.542 93.224C147.741 93.3059 147.92 93.4285 148.069 93.5839C148.218 93.7393 148.332 93.924 148.405 94.1262C148.478 94.3285 148.508 94.5437 148.493 94.7582C148.511 94.8002 148.505 94.8782 148.499 94.9322ZM145.907 94.5182H147.959C147.931 94.2652 147.812 94.0313 147.622 93.8613C147.433 93.6913 147.187 93.5973 146.933 93.5973C146.678 93.5973 146.433 93.6913 146.243 93.8613C146.054 94.0313 145.934 94.2652 145.907 94.5182Z" fill="#E0E0E0"/>
<path d="M149.184 96C149.184 95.9486 149.194 95.8976 149.214 95.8502C149.234 95.8029 149.263 95.76 149.3 95.7242C149.337 95.6884 149.381 95.6603 149.429 95.6417C149.477 95.6232 149.528 95.6144 149.58 95.616C149.681 95.616 149.779 95.6565 149.851 95.7285C149.923 95.8005 149.964 95.8982 149.964 96C149.964 96.1019 149.923 96.1995 149.851 96.2716C149.779 96.3436 149.681 96.384 149.58 96.384C149.528 96.3856 149.477 96.3769 149.429 96.3583C149.381 96.3397 149.337 96.3117 149.3 96.2759C149.263 96.2401 149.234 96.1972 149.214 96.1498C149.194 96.1024 149.184 96.0515 149.184 96ZM149.238 92.124H149.922L149.808 95.016H149.346L149.238 92.124Z" fill="#E0E0E0"/>
<path d="M203.232 64.134H202.524C202.083 64.134 201.726 64.4913 201.726 64.932V239.478C201.726 239.919 202.083 240.276 202.524 240.276H203.232C203.672 240.276 204.03 239.919 204.03 239.478V64.932C204.03 64.4913 203.672 64.134 203.232 64.134Z" fill="#E0E0E0"/>
<path d="M203.232 64.134H202.524C202.083 64.134 201.726 64.4913 201.726 64.932V154.146C201.726 154.587 202.083 154.944 202.524 154.944H203.232C203.672 154.944 204.03 154.587 204.03 154.146V64.932C204.03 64.4913 203.672 64.134 203.232 64.134Z" fill="#3CB7C6"/>
<path d="M98.2503 116.712V120.912H97.6503V117.24H96.6963V116.712H98.2503Z" fill="#263238"/>
<path d="M99.1623 120.558C99.1635 120.478 99.1884 120.399 99.2339 120.333C99.2795 120.267 99.3436 120.215 99.4183 120.185C99.4929 120.155 99.5748 120.148 99.6535 120.165C99.7322 120.181 99.8044 120.22 99.8608 120.278C99.9173 120.335 99.9556 120.408 99.9708 120.487C99.9861 120.566 99.9777 120.647 99.9466 120.721C99.9156 120.796 99.8633 120.859 99.7963 120.904C99.7294 120.948 99.6507 120.972 99.5703 120.972C99.516 120.973 99.462 120.963 99.4118 120.942C99.3615 120.921 99.3159 120.891 99.2778 120.852C99.2397 120.814 99.2098 120.768 99.1899 120.717C99.1701 120.666 99.1607 120.612 99.1623 120.558Z" fill="#263238"/>
<path d="M103.349 117.24H101.897V116.712H105.395V117.24H103.943V120.936H103.343L103.349 117.24Z" fill="#263238"/>
<path d="M108.516 119.532H105.918C105.955 119.806 106.096 120.056 106.311 120.23C106.526 120.404 106.8 120.489 107.076 120.468C107.249 120.474 107.421 120.441 107.581 120.374C107.74 120.307 107.883 120.206 108 120.078L108.318 120.456C108.083 120.703 107.781 120.876 107.449 120.953C107.116 121.03 106.769 121.008 106.449 120.889C106.13 120.77 105.852 120.56 105.651 120.284C105.45 120.009 105.334 119.681 105.318 119.34C105.309 119.126 105.344 118.912 105.421 118.712C105.497 118.512 105.615 118.33 105.765 118.177C105.915 118.024 106.095 117.903 106.294 117.822C106.492 117.742 106.705 117.703 106.92 117.708C107.135 117.703 107.349 117.742 107.548 117.824C107.747 117.906 107.927 118.028 108.076 118.183C108.225 118.339 108.34 118.523 108.414 118.726C108.487 118.928 108.518 119.143 108.504 119.358C108.528 119.4 108.522 119.478 108.516 119.532ZM105.918 119.112H108C107.972 118.859 107.853 118.625 107.663 118.455C107.474 118.285 107.228 118.191 106.974 118.191C106.719 118.191 106.474 118.285 106.284 118.455C106.095 118.625 105.975 118.859 105.948 119.112H105.918Z" fill="#263238"/>
<path d="M111.048 117.708V118.272H110.916C110.775 118.263 110.633 118.285 110.502 118.337C110.37 118.389 110.252 118.47 110.156 118.573C110.059 118.676 109.987 118.8 109.944 118.935C109.901 119.069 109.889 119.212 109.908 119.352V120.942H109.308V117.744H109.86V118.284C109.98 118.082 110.156 117.92 110.367 117.818C110.578 117.716 110.815 117.677 111.048 117.708Z" fill="#263238"/>
<path d="M117.071 119.094V120.936H116.471V119.136C116.471 118.536 116.171 118.206 115.643 118.206C115.115 118.206 114.689 118.572 114.689 119.268V120.912H114.089V119.112C114.089 118.512 113.789 118.182 113.261 118.182C113.125 118.176 112.988 118.201 112.862 118.253C112.736 118.306 112.623 118.386 112.532 118.488C112.44 118.589 112.372 118.709 112.332 118.84C112.292 118.971 112.282 119.109 112.301 119.244V120.888H111.701V117.69H112.253V118.17C112.381 118.001 112.549 117.867 112.742 117.778C112.934 117.689 113.145 117.648 113.357 117.66C113.58 117.647 113.801 117.696 113.997 117.802C114.193 117.908 114.356 118.067 114.467 118.26C114.607 118.065 114.794 117.909 115.009 117.804C115.225 117.699 115.464 117.65 115.703 117.66C115.896 117.629 116.093 117.644 116.279 117.706C116.464 117.768 116.631 117.875 116.766 118.016C116.901 118.157 116.999 118.329 117.052 118.517C117.105 118.705 117.112 118.903 117.071 119.094Z" fill="#263238"/>
<path d="M99.9057 185.952V186.474H96.9057V186.066L98.6217 184.404C99.0717 183.972 99.1557 183.708 99.1557 183.438C99.1557 183.006 98.8437 182.742 98.2557 182.742C98.0528 182.73 97.8499 182.765 97.6626 182.844C97.4753 182.923 97.3087 183.044 97.1757 183.198L96.7617 182.844C96.9558 182.629 97.1954 182.459 97.4632 182.348C97.731 182.237 98.0202 182.187 98.3097 182.202C99.1917 182.202 99.7557 182.658 99.7557 183.402C99.749 183.661 99.6834 183.915 99.5639 184.145C99.4443 184.374 99.2739 184.574 99.0657 184.728L97.7697 185.976L99.9057 185.952Z" fill="#263238"/>
<path d="M100.451 186.096C100.45 186.042 100.459 185.988 100.479 185.937C100.499 185.886 100.529 185.84 100.567 185.802C100.605 185.763 100.651 185.732 100.701 185.712C100.751 185.691 100.805 185.681 100.859 185.682C100.969 185.682 101.074 185.726 101.152 185.803C101.23 185.881 101.273 185.986 101.273 186.096C101.273 186.206 101.23 186.311 101.152 186.389C101.074 186.466 100.969 186.51 100.859 186.51C100.805 186.51 100.752 186.499 100.702 186.478C100.652 186.457 100.607 186.427 100.569 186.388C100.531 186.35 100.501 186.304 100.481 186.254C100.461 186.204 100.451 186.15 100.451 186.096Z" fill="#263238"/>
<path d="M103.8 182.25H104.4V185.952H106.686V186.474H103.8V182.25Z" fill="#263238"/>
<path d="M107.201 182.286C107.201 182.235 107.211 182.185 107.231 182.139C107.251 182.092 107.28 182.05 107.316 182.015C107.352 181.979 107.396 181.952 107.443 181.933C107.49 181.915 107.541 181.907 107.591 181.908C107.665 181.911 107.737 181.935 107.798 181.978C107.858 182.021 107.905 182.08 107.932 182.15C107.958 182.219 107.964 182.294 107.948 182.367C107.932 182.439 107.896 182.506 107.842 182.557C107.789 182.609 107.722 182.644 107.649 182.658C107.576 182.671 107.5 182.663 107.432 182.634C107.364 182.605 107.305 182.557 107.264 182.495C107.223 182.433 107.201 182.36 107.201 182.286ZM107.303 183.276H107.903V186.474H107.303V183.276Z" fill="#263238"/>
<path d="M108.689 184.878C108.684 184.658 108.725 184.439 108.809 184.236C108.893 184.032 109.018 183.848 109.176 183.695C109.334 183.542 109.523 183.423 109.729 183.346C109.935 183.268 110.155 183.235 110.375 183.246C110.634 183.23 110.894 183.285 111.124 183.406C111.355 183.527 111.548 183.708 111.683 183.93L111.239 184.212C111.147 184.068 111.018 183.95 110.867 183.87C110.716 183.79 110.546 183.751 110.375 183.756C110.091 183.777 109.825 183.904 109.631 184.113C109.437 184.322 109.329 184.596 109.329 184.881C109.329 185.166 109.437 185.44 109.631 185.649C109.825 185.858 110.091 185.985 110.375 186.006C110.546 186.01 110.716 185.97 110.868 185.889C111.019 185.808 111.147 185.689 111.239 185.544L111.683 185.82C111.548 186.043 111.355 186.225 111.125 186.347C110.894 186.468 110.635 186.525 110.375 186.51C110.155 186.522 109.935 186.488 109.729 186.411C109.523 186.333 109.334 186.215 109.176 186.061C109.018 185.908 108.893 185.724 108.809 185.521C108.725 185.317 108.684 185.098 108.689 184.878Z" fill="#263238"/>
<path d="M115.261 185.07H112.669C112.706 185.344 112.847 185.594 113.062 185.768C113.277 185.942 113.551 186.027 113.827 186.006C114 186.012 114.172 185.98 114.331 185.912C114.491 185.845 114.634 185.744 114.751 185.616L115.069 185.994C114.833 186.239 114.53 186.409 114.199 186.484C113.868 186.56 113.522 186.537 113.203 186.418C112.885 186.3 112.608 186.091 112.406 185.817C112.205 185.544 112.087 185.217 112.069 184.878C112.06 184.664 112.096 184.45 112.174 184.25C112.251 184.049 112.369 183.867 112.52 183.714C112.67 183.561 112.851 183.441 113.05 183.361C113.249 183.28 113.462 183.241 113.677 183.246C113.891 183.241 114.105 183.28 114.304 183.362C114.503 183.444 114.682 183.566 114.831 183.722C114.979 183.877 115.094 184.062 115.167 184.264C115.24 184.466 115.27 184.682 115.255 184.896C115.273 184.944 115.267 185.016 115.261 185.07ZM112.669 184.65H114.721C114.693 184.397 114.573 184.163 114.384 183.993C114.195 183.823 113.949 183.729 113.695 183.729C113.44 183.729 113.195 183.823 113.005 183.993C112.816 184.163 112.696 184.397 112.669 184.65Z" fill="#263238"/>
<path d="M119.111 184.632V186.474H118.511V184.674C118.511 184.074 118.199 183.744 117.653 183.744C117.513 183.733 117.372 183.754 117.241 183.804C117.11 183.854 116.991 183.933 116.894 184.035C116.797 184.136 116.724 184.258 116.68 184.392C116.636 184.525 116.622 184.667 116.639 184.806V186.45H116.039V183.252H116.597V183.732C116.734 183.561 116.91 183.425 117.111 183.336C117.311 183.248 117.53 183.208 117.749 183.222C117.937 183.201 118.128 183.223 118.306 183.287C118.485 183.351 118.646 183.455 118.777 183.591C118.909 183.728 119.008 183.892 119.066 184.073C119.123 184.253 119.139 184.445 119.111 184.632Z" fill="#263238"/>
<path d="M119.909 184.878C119.903 184.658 119.944 184.439 120.027 184.235C120.111 184.031 120.236 183.846 120.394 183.693C120.553 183.539 120.741 183.421 120.948 183.344C121.154 183.267 121.375 183.234 121.595 183.246C121.854 183.23 122.113 183.285 122.344 183.406C122.574 183.527 122.768 183.708 122.903 183.93L122.459 184.212C122.365 184.067 122.236 183.949 122.084 183.869C121.931 183.789 121.761 183.75 121.589 183.756C121.304 183.777 121.039 183.904 120.845 184.113C120.651 184.322 120.543 184.596 120.543 184.881C120.543 185.166 120.651 185.44 120.845 185.649C121.039 185.858 121.304 185.985 121.589 186.006C121.761 186.011 121.932 185.97 122.084 185.889C122.237 185.808 122.366 185.69 122.459 185.544L122.903 185.82C122.768 186.043 122.575 186.225 122.344 186.347C122.114 186.468 121.855 186.525 121.595 186.51C121.375 186.522 121.155 186.488 120.949 186.411C120.742 186.333 120.554 186.215 120.396 186.061C120.238 185.908 120.113 185.724 120.029 185.521C119.945 185.317 119.904 185.098 119.909 184.878Z" fill="#263238"/>
<path d="M126.479 185.07H123.887C123.925 185.344 124.065 185.594 124.281 185.768C124.496 185.942 124.769 186.027 125.045 186.006C125.218 186.012 125.39 185.98 125.55 185.912C125.709 185.845 125.853 185.744 125.969 185.616L126.287 185.994C126.051 186.239 125.749 186.409 125.418 186.484C125.087 186.56 124.74 186.537 124.422 186.418C124.103 186.3 123.826 186.091 123.625 185.817C123.423 185.544 123.306 185.217 123.287 184.878C123.279 184.664 123.315 184.45 123.392 184.25C123.47 184.049 123.588 183.867 123.738 183.714C123.889 183.561 124.069 183.441 124.268 183.361C124.467 183.28 124.681 183.241 124.895 183.246C125.11 183.241 125.324 183.28 125.523 183.362C125.721 183.444 125.901 183.566 126.05 183.722C126.198 183.877 126.313 184.062 126.386 184.264C126.459 184.466 126.488 184.682 126.473 184.896C126.491 184.944 126.485 185.016 126.479 185.07ZM123.887 184.65H125.939C125.912 184.397 125.792 184.163 125.603 183.993C125.413 183.823 125.168 183.729 124.913 183.729C124.659 183.729 124.413 183.823 124.224 183.993C124.035 184.163 123.915 184.397 123.887 184.65Z" fill="#263238"/>
<path d="M189.137 130.434C189.137 130.524 168.431 130.59 142.895 130.59C117.359 130.59 96.6475 130.524 96.6475 130.434C96.6475 130.344 117.353 130.278 142.895 130.278C168.437 130.278 189.137 130.35 189.137 130.434Z" fill="#263238"/>
<path d="M189.137 137.436C189.137 137.52 168.431 137.592 142.895 137.592C117.359 137.592 96.6475 137.52 96.6475 137.436C96.6475 137.352 117.353 137.28 142.895 137.28C168.437 137.28 189.137 137.346 189.137 137.436Z" fill="#263238"/>
<path d="M189.137 144.432C189.137 144.522 168.431 144.588 142.895 144.588C117.359 144.588 96.6475 144.522 96.6475 144.432C96.6475 144.342 117.353 144.276 142.895 144.276C168.437 144.276 189.137 144.348 189.137 144.432Z" fill="#263238"/>
<path d="M189.137 151.434C189.137 151.518 168.431 151.59 142.895 151.59C117.359 151.59 96.6475 151.518 96.6475 151.434C96.6475 151.35 117.353 151.278 142.895 151.278C168.437 151.278 189.137 151.344 189.137 151.434Z" fill="#263238"/>
<path d="M189.137 158.43C189.137 158.52 168.431 158.586 142.895 158.586C117.359 158.586 96.6475 158.52 96.6475 158.43C96.6475 158.34 117.353 158.274 142.895 158.274C168.437 158.274 189.137 158.346 189.137 158.43Z" fill="#263238"/>
<path d="M189.137 165.432C189.137 165.516 168.431 165.588 142.895 165.588C117.359 165.588 96.6475 165.516 96.6475 165.432C96.6475 165.348 117.353 165.276 142.895 165.276C168.437 165.276 189.137 165.342 189.137 165.432Z" fill="#263238"/>
<path d="M189.137 192C189.137 192.084 168.431 192.156 142.895 192.156C117.359 192.156 96.6475 192.084 96.6475 192C96.6475 191.916 117.353 191.844 142.895 191.844C168.437 191.844 189.137 191.928 189.137 192Z" fill="#263238"/>
<path d="M189.137 198C189.137 198.09 168.431 198.156 142.895 198.156C117.359 198.156 96.6475 198.09 96.6475 198C96.6475 197.91 117.353 197.844 142.895 197.844C168.437 197.844 189.137 197.916 189.137 198Z" fill="#E0E0E0"/>
<path d="M189.137 204C189.137 204.084 168.431 204.156 142.895 204.156C117.359 204.156 96.6475 204.084 96.6475 204C96.6475 203.916 117.353 203.844 142.895 203.844C168.437 203.844 189.137 203.904 189.137 204Z" fill="#EBEBEB"/>
<path d="M195.887 221.898H146.963V240.126H195.887V221.898Z" fill="#3CB7C6"/>
<path d="M163.26 231.954H160.86L160.362 233.088H159.696L161.748 228.558H162.384L164.442 233.088H163.764L163.26 231.954ZM163.032 231.438L162.054 229.218L161.082 231.438H163.032Z" fill="white"/>
<path d="M164.67 231.372C164.666 231.137 164.71 230.903 164.799 230.686C164.889 230.469 165.022 230.272 165.191 230.108C165.36 229.944 165.561 229.817 165.781 229.734C166.001 229.651 166.235 229.614 166.47 229.626C166.748 229.609 167.025 229.669 167.271 229.798C167.517 229.927 167.724 230.12 167.868 230.358L167.394 230.658C167.295 230.503 167.157 230.376 166.994 230.29C166.831 230.203 166.649 230.161 166.464 230.166C166.146 230.166 165.841 230.292 165.616 230.517C165.391 230.743 165.264 231.048 165.264 231.366C165.264 231.684 165.391 231.989 165.616 232.215C165.841 232.44 166.146 232.566 166.464 232.566C166.649 232.571 166.831 232.529 166.994 232.442C167.157 232.356 167.295 232.229 167.394 232.074L167.868 232.368C167.724 232.606 167.518 232.801 167.271 232.931C167.025 233.061 166.748 233.121 166.47 233.106C166.236 233.118 166.003 233.081 165.783 232.999C165.564 232.917 165.364 232.79 165.196 232.628C165.027 232.465 164.893 232.27 164.803 232.054C164.713 231.838 164.667 231.606 164.67 231.372Z" fill="white"/>
<path d="M168.312 231.372C168.307 231.137 168.351 230.904 168.441 230.686C168.531 230.469 168.664 230.272 168.833 230.108C169.002 229.945 169.202 229.817 169.422 229.734C169.642 229.652 169.877 229.615 170.112 229.626C170.389 229.609 170.667 229.668 170.913 229.797C171.159 229.926 171.366 230.12 171.51 230.358L171.036 230.658C170.936 230.503 170.799 230.376 170.636 230.29C170.473 230.204 170.29 230.161 170.106 230.166C169.788 230.166 169.482 230.293 169.257 230.518C169.032 230.743 168.906 231.048 168.906 231.366C168.906 231.684 169.032 231.99 169.257 232.215C169.482 232.44 169.788 232.566 170.106 232.566C170.29 232.571 170.473 232.529 170.636 232.443C170.799 232.356 170.936 232.23 171.036 232.074L171.51 232.368C171.366 232.607 171.16 232.802 170.914 232.932C170.667 233.062 170.39 233.122 170.112 233.106C169.878 233.118 169.644 233.081 169.425 232.999C169.206 232.917 169.006 232.791 168.837 232.628C168.669 232.466 168.535 232.27 168.445 232.054C168.354 231.839 168.309 231.606 168.312 231.372Z" fill="white"/>
<path d="M175.361 231.6H172.577C172.618 231.894 172.769 232.161 173 232.347C173.231 232.533 173.524 232.625 173.819 232.602C174.005 232.608 174.189 232.575 174.36 232.503C174.531 232.432 174.684 232.324 174.809 232.188L175.151 232.59C174.979 232.775 174.769 232.921 174.535 233.016C174.3 233.111 174.048 233.154 173.795 233.142C173.557 233.16 173.317 233.127 173.091 233.046C172.866 232.966 172.66 232.839 172.486 232.674C172.313 232.509 172.176 232.309 172.084 232.088C171.992 231.867 171.948 231.629 171.953 231.39C171.944 231.16 171.982 230.931 172.065 230.717C172.148 230.502 172.275 230.307 172.436 230.144C172.597 229.98 172.791 229.851 173.004 229.765C173.217 229.679 173.446 229.638 173.675 229.644C173.906 229.637 174.136 229.678 174.349 229.765C174.563 229.852 174.756 229.983 174.916 230.149C175.076 230.315 175.2 230.513 175.278 230.73C175.357 230.947 175.39 231.178 175.373 231.408C175.373 231.444 175.367 231.522 175.361 231.6ZM172.577 231.15H174.773C174.745 230.878 174.617 230.627 174.414 230.445C174.212 230.262 173.948 230.161 173.675 230.161C173.403 230.161 173.139 230.262 172.937 230.445C172.734 230.627 172.606 230.878 172.577 231.15Z" fill="white"/>
<path d="M179.784 231.372C179.797 231.604 179.761 231.836 179.678 232.053C179.596 232.27 179.469 232.468 179.306 232.633C179.142 232.798 178.946 232.927 178.73 233.012C178.514 233.096 178.282 233.134 178.05 233.124C177.821 233.132 177.593 233.086 177.385 232.99C177.177 232.894 176.993 232.751 176.85 232.572V234.342H176.25V229.656H176.85V230.202C176.987 230.013 177.168 229.86 177.377 229.755C177.585 229.651 177.816 229.598 178.05 229.602C178.284 229.591 178.517 229.63 178.734 229.716C178.952 229.802 179.149 229.932 179.313 230.099C179.477 230.266 179.603 230.466 179.684 230.685C179.765 230.905 179.799 231.139 179.784 231.372ZM179.154 231.372C179.146 231.145 179.071 230.925 178.939 230.741C178.807 230.556 178.623 230.414 178.411 230.333C178.199 230.251 177.967 230.234 177.745 230.284C177.524 230.333 177.321 230.446 177.163 230.61C177.006 230.773 176.9 230.98 176.858 231.203C176.817 231.427 176.842 231.657 176.931 231.866C177.019 232.076 177.168 232.254 177.357 232.379C177.547 232.505 177.769 232.572 177.996 232.572C178.153 232.576 178.308 232.547 178.453 232.487C178.598 232.428 178.729 232.339 178.838 232.226C178.947 232.113 179.031 231.979 179.085 231.832C179.14 231.685 179.163 231.528 179.154 231.372Z" fill="white"/>
<path d="M182.573 232.884C182.355 233.047 182.089 233.132 181.817 233.124C181.671 233.141 181.524 233.125 181.385 233.077C181.246 233.029 181.12 232.951 181.016 232.848C180.911 232.745 180.832 232.62 180.782 232.481C180.733 232.343 180.715 232.196 180.731 232.05V230.166H180.131V229.656H180.731V228.906H181.331V229.656H182.315V230.166H181.331V232.026C181.316 232.102 181.319 232.181 181.339 232.256C181.36 232.331 181.397 232.4 181.449 232.459C181.501 232.517 181.565 232.562 181.637 232.591C181.709 232.62 181.787 232.632 181.865 232.626C182.041 232.629 182.212 232.572 182.351 232.464L182.573 232.884Z" fill="white"/>
<path d="M94.3609 240.27C94.3609 240.27 94.3189 240.27 94.2409 240.192L93.8929 239.922L92.4349 238.8L92.3809 238.758L92.4469 238.728C98.3509 236.466 117.605 229.242 141.335 220.398L141.419 220.368L141.485 220.422L143.381 221.946L143.441 221.994V240.45H143.285L108.305 240.39L98.0509 240.348H95.3029H94.5949C94.5169 240.352 94.4388 240.352 94.3609 240.348H94.6069H95.3209H98.0869L108.353 240.306L143.285 240.246L143.135 240.396C143.135 236.166 143.135 231.738 143.135 227.196V222.168L143.195 222.288L141.299 220.758H141.449C117.713 229.59 98.4289 236.73 92.4829 238.878V238.812L93.8989 239.982L94.2469 240.27H94.3609Z" fill="#3CB7C6"/>
<path d="M141.383 220.518H92.459V238.746H141.383V220.518Z" fill="white"/>
<path d="M141.389 238.746C141.389 238.746 141.389 238.632 141.389 238.416C141.389 238.2 141.389 237.882 141.389 237.474C141.389 236.64 141.389 235.422 141.389 233.874C141.389 230.736 141.353 226.194 141.329 220.536L141.437 220.644L92.5133 220.692L92.6693 220.536C92.6693 226.896 92.6693 233.052 92.6693 238.764L92.5193 238.614L127.541 238.686L137.741 238.728H140.483H141.197H141.443H141.215H140.519H137.813L127.643 238.77L92.5133 238.842H92.3633V238.692C92.3633 232.98 92.3633 226.824 92.3633 220.464V220.308H92.5253L141.449 220.356H141.557V220.464C141.557 226.146 141.509 230.712 141.497 233.868C141.497 235.422 141.497 236.628 141.497 237.468C141.497 237.864 141.497 238.17 141.497 238.392C141.497 238.614 141.389 238.746 141.389 238.746Z" fill="#3CB7C6"/>
<path d="M105.87 228.342H107.778C108.09 228.319 108.403 228.361 108.698 228.465C108.993 228.568 109.263 228.732 109.492 228.945C109.721 229.157 109.903 229.415 110.028 229.702C110.153 229.988 110.217 230.297 110.217 230.61C110.217 230.922 110.153 231.232 110.028 231.518C109.903 231.805 109.721 232.062 109.492 232.275C109.263 232.488 108.993 232.651 108.698 232.755C108.403 232.859 108.09 232.901 107.778 232.878H105.87V228.342ZM107.742 232.314C107.978 232.334 108.215 232.304 108.439 232.228C108.663 232.151 108.868 232.029 109.043 231.869C109.217 231.709 109.356 231.514 109.451 231.297C109.546 231.081 109.595 230.847 109.595 230.61C109.595 230.373 109.546 230.139 109.451 229.923C109.356 229.706 109.217 229.511 109.043 229.351C108.868 229.191 108.663 229.069 108.439 228.992C108.215 228.915 107.978 228.886 107.742 228.906H106.542V232.314H107.742Z" fill="#3CB7C6"/>
<path d="M114.209 231.366H111.425C111.466 231.661 111.618 231.929 111.85 232.116C112.082 232.302 112.377 232.392 112.673 232.368C112.858 232.376 113.043 232.343 113.214 232.271C113.385 232.2 113.539 232.091 113.663 231.954L114.005 232.356C113.751 232.613 113.428 232.79 113.076 232.867C112.723 232.944 112.356 232.918 112.018 232.791C111.68 232.664 111.386 232.443 111.171 232.153C110.956 231.862 110.83 231.516 110.807 231.156C110.797 230.926 110.835 230.696 110.917 230.481C111 230.266 111.126 230.07 111.288 229.906C111.449 229.742 111.643 229.612 111.856 229.526C112.07 229.44 112.299 229.398 112.529 229.404C112.76 229.398 112.99 229.44 113.204 229.527C113.417 229.615 113.61 229.746 113.77 229.913C113.93 230.08 114.053 230.278 114.132 230.495C114.211 230.713 114.243 230.944 114.227 231.174C114.227 231.234 114.215 231.306 114.209 231.366ZM111.425 230.922H113.627C113.593 230.654 113.462 230.408 113.26 230.23C113.057 230.052 112.796 229.953 112.526 229.953C112.256 229.953 111.996 230.052 111.793 230.23C111.59 230.408 111.46 230.654 111.425 230.922Z" fill="#3CB7C6"/>
<path d="M114.767 231.162C114.762 230.926 114.805 230.692 114.894 230.474C114.984 230.256 115.117 230.059 115.286 229.894C115.455 229.73 115.656 229.602 115.876 229.519C116.096 229.435 116.332 229.398 116.567 229.41C116.845 229.393 117.121 229.453 117.368 229.582C117.614 229.711 117.821 229.904 117.965 230.142L117.491 230.448C117.391 230.293 117.253 230.166 117.09 230.08C116.928 229.994 116.745 229.951 116.561 229.956C116.243 229.956 115.938 230.082 115.712 230.307C115.487 230.532 115.361 230.838 115.361 231.156C115.361 231.474 115.487 231.779 115.712 232.004C115.938 232.23 116.243 232.356 116.561 232.356C116.745 232.361 116.928 232.318 117.09 232.232C117.253 232.145 117.391 232.019 117.491 231.864L117.965 232.164C117.821 232.402 117.615 232.597 117.368 232.727C117.122 232.857 116.845 232.917 116.567 232.902C116.333 232.913 116.098 232.877 115.879 232.794C115.659 232.712 115.459 232.585 115.29 232.422C115.121 232.259 114.988 232.063 114.898 231.846C114.808 231.629 114.763 231.397 114.767 231.162Z" fill="#3CB7C6"/>
<path d="M118.733 228.072H119.333V232.872H118.733V228.072Z" fill="#3CB7C6"/>
<path d="M120.426 228.384C120.427 228.33 120.438 228.276 120.46 228.226C120.481 228.176 120.512 228.131 120.551 228.093C120.59 228.055 120.636 228.025 120.687 228.005C120.737 227.985 120.791 227.975 120.846 227.976C120.926 227.978 121.004 228.004 121.069 228.051C121.135 228.097 121.185 228.161 121.214 228.236C121.243 228.311 121.249 228.392 121.232 228.471C121.215 228.549 121.176 228.621 121.118 228.677C121.061 228.732 120.988 228.77 120.909 228.785C120.83 228.8 120.749 228.791 120.675 228.76C120.601 228.729 120.538 228.676 120.494 228.609C120.449 228.543 120.426 228.464 120.426 228.384ZM120.54 229.446H121.14V232.878H120.54V229.446Z" fill="#3CB7C6"/>
<path d="M125.597 230.904V232.878H124.997V231C124.997 230.328 124.655 229.998 124.067 229.998C123.917 229.987 123.766 230.01 123.626 230.064C123.485 230.118 123.359 230.203 123.255 230.312C123.151 230.421 123.073 230.551 123.025 230.694C122.978 230.837 122.963 230.989 122.981 231.138V232.908H122.381V229.476H122.981V229.992C123.128 229.808 123.316 229.661 123.532 229.565C123.747 229.469 123.982 229.426 124.217 229.44C124.407 229.432 124.598 229.465 124.774 229.537C124.951 229.609 125.11 229.718 125.241 229.857C125.372 229.996 125.471 230.161 125.533 230.342C125.594 230.523 125.616 230.714 125.597 230.904Z" fill="#3CB7C6"/>
<path d="M129.857 231.366H127.073C127.113 231.66 127.264 231.927 127.495 232.114C127.726 232.3 128.019 232.391 128.315 232.368C128.5 232.376 128.685 232.343 128.856 232.271C129.027 232.2 129.18 232.091 129.305 231.954L129.647 232.356C129.393 232.613 129.07 232.79 128.717 232.867C128.365 232.944 127.997 232.918 127.659 232.791C127.322 232.664 127.027 232.443 126.813 232.153C126.598 231.862 126.472 231.516 126.449 231.156C126.439 230.926 126.476 230.696 126.559 230.481C126.642 230.266 126.768 230.07 126.929 229.906C127.091 229.742 127.284 229.612 127.498 229.526C127.711 229.44 127.941 229.398 128.171 229.404C128.402 229.398 128.631 229.44 128.845 229.527C129.059 229.615 129.252 229.746 129.412 229.913C129.572 230.08 129.695 230.278 129.774 230.495C129.852 230.713 129.885 230.944 129.869 231.174C129.869 231.234 129.863 231.306 129.857 231.366ZM127.073 230.922H129.269C129.24 230.651 129.112 230.4 128.91 230.217C128.707 230.034 128.444 229.933 128.171 229.933C127.898 229.933 127.635 230.034 127.432 230.217C127.229 230.4 127.101 230.651 127.073 230.922Z" fill="#3CB7C6"/>
<path d="M143.285 240.27C143.225 240.336 142.751 239.976 142.229 239.472C141.707 238.968 141.329 238.512 141.389 238.446C141.449 238.38 141.923 238.746 142.445 239.25C142.967 239.754 143.345 240.21 143.285 240.27Z" fill="#3CB7C6"/>
<path d="M213.179 235.716L220.163 232.356L216.323 221.004L207.887 219.054C207.101 218.874 206.225 218.664 205.253 218.394C204.11 218.075 203.028 217.566 202.055 216.888C200.814 216.1 199.687 215.145 198.707 214.05C197.909 212.964 196.217 213.372 196.217 214.578C196.217 215.784 198.347 218.826 202.133 220.98C205.919 223.134 199.223 224.172 196.799 224.58C194.375 224.988 186.923 226.662 186.479 227.508C185.831 228.744 187.079 229.692 189.479 229.218C191.879 228.744 199.253 227.808 199.445 229.092V229.128C198.853 230.054 198.565 231.142 198.622 232.239C198.679 233.336 199.078 234.389 199.763 235.248C201.119 236.946 203.153 239.076 204.647 238.752C207.455 238.158 213.179 235.716 213.179 235.716Z" fill="#B78876"/>
<path d="M212.754 215.742L219.3 237.876L270.126 222.432C272.72 221.639 275.131 220.337 277.216 218.602C279.301 216.866 281.019 214.732 282.269 212.325C283.52 209.917 284.277 207.285 284.498 204.581C284.719 201.877 284.398 199.156 283.554 196.578L271.092 157.8L244.026 164.52L258.882 200.4L212.754 215.742Z" fill="#3CB7C6"/>
<path d="M271.27 222.042L271.024 222.132L270.292 222.366L267.448 223.248L256.798 226.512L219.802 237.738L219.664 237.774L219.616 237.642C217.354 230.874 215.158 223.434 212.62 215.79L212.572 215.646L212.722 215.592L214 215.172L258.856 200.274L258.784 200.436C255.184 191.736 252.268 184.608 250.228 179.64C249.22 177.168 248.428 175.236 247.888 173.91C247.63 173.256 247.426 172.752 247.288 172.404C247.15 172.056 247.096 171.888 247.096 171.888C247.096 171.888 247.18 172.056 247.324 172.392L247.96 173.88C248.512 175.2 249.322 177.126 250.36 179.586C252.424 184.542 255.388 191.658 259.012 200.346L259.06 200.466L258.934 200.508L214.078 215.466L212.8 215.892L212.896 215.694C215.44 223.344 217.624 230.784 219.88 237.546L219.7 237.45L256.726 226.338L267.418 223.152L270.274 222.318L271.018 222.108L271.27 222.042Z" fill="#263238"/>
<path d="M268.277 206.85C268.229 206.85 267.893 206.292 267.215 205.446C265.435 203.235 263.014 201.63 260.285 200.85C259.241 200.55 258.569 200.466 258.575 200.412C258.734 200.383 258.897 200.383 259.055 200.412C259.488 200.452 259.917 200.525 260.339 200.628C261.741 200.968 263.073 201.548 264.275 202.344C265.479 203.14 266.533 204.141 267.389 205.302C267.649 205.652 267.881 206.021 268.085 206.406C268.176 206.541 268.241 206.692 268.277 206.85Z" fill="#263238"/>
<path d="M255.959 166.404C255.801 165.318 255.749 164.219 255.803 163.122C255.749 162.026 255.801 160.927 255.959 159.84C256.167 162.023 256.167 164.221 255.959 166.404Z" fill="#FAFAFA"/>
<path d="M266.166 166.926C265.699 165.916 265.329 164.863 265.062 163.782C264.693 162.732 264.423 161.649 264.258 160.548C265.092 162.61 265.731 164.745 266.166 166.926Z" fill="#FAFAFA"/>
<path d="M259.835 176.136C257.734 176.12 255.679 175.517 253.901 174.396C253.943 174.312 255.197 174.906 256.835 175.38C258.473 175.854 259.841 176.046 259.835 176.136Z" fill="#FAFAFA"/>
<path d="M271.38 181.2C271.404 180.146 271.532 179.097 271.764 178.068C271.892 177.02 272.123 175.987 272.454 174.984C272.427 176.04 272.298 177.091 272.07 178.122C271.943 179.169 271.712 180.2 271.38 181.2Z" fill="#FAFAFA"/>
<path d="M267.252 189.468C266.163 187.597 265.261 185.623 264.558 183.576C265.642 185.449 266.544 187.422 267.252 189.468Z" fill="#FAFAFA"/>
<path d="M265.56 196.704C264.572 196.402 263.617 196 262.71 195.504C261.759 195.103 260.852 194.604 260.004 194.016C260.988 194.325 261.94 194.727 262.848 195.216C263.8 195.618 264.709 196.117 265.56 196.704Z" fill="#FAFAFA"/>
<path d="M278.543 194.778C278.22 195.719 277.837 196.639 277.397 197.532C277.054 198.464 276.654 199.374 276.197 200.256C276.625 198.298 277.421 196.439 278.543 194.778Z" fill="#FAFAFA"/>
<path d="M274.933 212.208C274.499 209.988 274.276 207.732 274.267 205.47C274.528 206.571 274.69 207.694 274.753 208.824C274.915 209.944 274.976 211.077 274.933 212.208Z" fill="#FAFAFA"/>
<path d="M265.763 217.71C264.898 217.134 264.093 216.471 263.363 215.73C262.568 215.068 261.84 214.328 261.191 213.522C262.057 214.098 262.861 214.761 263.591 215.502C264.387 216.164 265.115 216.903 265.763 217.71Z" fill="#FAFAFA"/>
<path d="M249.924 219.288C248.789 221.193 247.475 222.985 246 224.64C246.521 223.661 247.136 222.735 247.836 221.874C248.449 220.949 249.149 220.083 249.924 219.288Z" fill="#FAFAFA"/>
<path d="M254.945 211.866C254.035 211.278 253.216 210.558 252.515 209.73C251.74 208.974 251.085 208.104 250.571 207.15C250.643 207.096 251.537 208.224 252.743 209.52C253.949 210.816 254.999 211.8 254.945 211.866Z" fill="#FAFAFA"/>
<path d="M242.999 213.552C242.239 213.858 241.411 213.96 240.599 213.846C239.782 213.836 238.981 213.617 238.271 213.21C238.307 213.12 239.321 213.444 240.617 213.534C241.913 213.624 242.999 213.462 242.999 213.552Z" fill="#FAFAFA"/>
<path d="M235.432 226.68C235.133 225.846 234.932 224.98 234.832 224.1C234.63 223.237 234.531 222.353 234.538 221.466C235.04 223.163 235.34 224.913 235.432 226.68Z" fill="#FAFAFA"/>
<path d="M226.506 231.204C224.436 230.146 222.466 228.903 220.62 227.49C221.679 227.975 222.693 228.553 223.65 229.218C224.658 229.795 225.614 230.46 226.506 231.204Z" fill="#FAFAFA"/>
<path d="M229.692 215.232C229.758 215.292 228.888 216.324 227.922 217.668C226.956 219.012 226.236 220.158 226.158 220.116C226.52 219.165 227.029 218.276 227.664 217.482C228.217 216.629 228.901 215.87 229.692 215.232Z" fill="#FAFAFA"/>
<path d="M222.792 218.262C222.172 218.125 221.578 217.888 221.034 217.56C220.447 217.324 219.903 216.991 219.426 216.576C220.634 216.947 221.771 217.517 222.792 218.262Z" fill="#FAFAFA"/>
<g opacity="0.2">
<path opacity="0.2" d="M258.455 199.482C261.167 199.758 263.885 200.04 266.591 200.382C267.535 200.451 268.464 200.653 269.351 200.982C269.792 201.154 270.194 201.413 270.532 201.744C270.87 202.075 271.138 202.471 271.319 202.908C271.488 203.351 271.507 203.838 271.371 204.292C271.235 204.747 270.953 205.144 270.569 205.422C270.185 205.619 269.756 205.712 269.325 205.693C268.894 205.675 268.475 205.544 268.109 205.314C267.383 204.852 266.703 204.319 266.081 203.724C264.861 202.715 263.442 201.973 261.917 201.546C261.222 201.414 260.551 201.179 259.925 200.85C259.613 200.676 259.362 200.41 259.207 200.087C259.052 199.765 259.001 199.403 259.061 199.05" fill="black"/>
</g>
</svg>
