<svg width="263" height="203" viewBox="0 0 263 203" fill="none" xmlns="http://www.w3.org/2000/svg">
<path d="M131.5 194.812C203.665 194.812 262.166 171.09 262.166 141.827C262.166 112.564 203.665 88.8417 131.5 88.8417C59.3345 88.8417 0.833008 112.564 0.833008 141.827C0.833008 171.09 59.3345 194.812 131.5 194.812Z" fill="#3CB7C6"/>
<path d="M56.9539 159.63C60.5145 157.572 60.5145 154.224 56.9539 152.182L40.8819 142.889C40.1305 142.464 40.1305 141.386 40.8819 140.961L48.2809 136.682L36.1779 129.691L21.4452 138.201C17.9009 140.243 17.9009 143.591 21.4452 145.633L37.5825 154.91C38.3339 155.335 38.3339 156.413 37.5825 156.837L18.0479 168.352L21.9515 172.991L30.2162 175.31L56.9539 159.63Z" fill="#F4F4F4"/>
<path d="M99.7314 106.988L139.062 84.2683V126.196L99.7314 148.916V106.988Z" fill="#FCD789"/>
<path d="M126.158 102.235L112.634 110.01C112.193 110.271 111.834 110.908 111.834 111.414V127.029C111.834 127.535 112.193 127.748 112.634 127.486L126.158 119.712C126.599 119.45 126.959 118.83 126.959 118.307V102.709C126.959 102.186 126.599 101.974 126.158 102.235Z" fill="#3F5E69"/>
<path d="M125.407 118.421L125.472 118.274V104.358L113.386 111.3L113.32 111.463V125.379L125.407 118.421Z" fill="#F4F4F4"/>
<path d="M126.959 109.634L111.834 118.34V120.087L126.959 111.382V109.634Z" fill="#3F5E69"/>
<path d="M120.148 105.698V123.207L118.646 124.04V106.563L120.148 105.698Z" fill="#3F5E69"/>
<path d="M99.7314 148.916V152.411L139.062 129.691V126.196L99.7314 148.916Z" fill="#29383E"/>
<path d="M178.409 106.988L139.062 84.2683V126.196L178.409 148.916V106.988Z" fill="#FEBE3D"/>
<path d="M151.982 102.235L165.489 110.01C165.947 110.271 166.306 110.908 166.306 111.414V127.029C166.306 127.535 165.947 127.748 165.489 127.486L151.982 119.712C151.524 119.45 151.165 118.83 151.165 118.307V102.709C151.165 102.186 151.524 101.974 151.982 102.235Z" fill="#3F5E69"/>
<path d="M152.717 118.421L152.651 118.274V104.358L164.754 111.3L164.82 111.463L164.803 125.379L152.717 118.421Z" fill="#F4F4F4"/>
<path d="M151.165 109.634L166.306 118.34V120.087L151.165 111.382V109.634Z" fill="#3F5E69"/>
<path d="M157.976 105.698V123.207L159.495 124.04V106.563L157.976 105.698Z" fill="#3F5E69"/>
<path d="M178.409 148.916V152.411L139.062 129.691V126.196L178.409 148.916Z" fill="#3F5E69"/>
<path d="M178.409 106.988L211.697 42.3407L235.902 73.7824V115.726L178.409 148.916V106.988Z" fill="#FCD789"/>
<path d="M201.064 104.358L187.556 112.133C187.099 112.394 186.739 113.015 186.739 113.538V129.136C186.739 129.659 187.099 129.871 187.556 129.61L201.064 121.835C201.521 121.574 201.88 120.953 201.88 120.43V104.816C201.88 104.309 201.521 104.097 201.064 104.358Z" fill="#3F5E69"/>
<path d="M200.329 120.545L200.394 120.381L200.378 106.465L188.291 113.423L188.226 113.57V127.486L200.329 120.545Z" fill="#F4F4F4"/>
<path d="M201.88 111.757L186.739 120.463V122.211L201.88 113.505V111.757Z" fill="#3F5E69"/>
<path d="M195.069 107.805V125.314L193.55 126.147V108.687L195.069 107.805Z" fill="#3F5E69"/>
<path d="M228.308 88.6293L214.784 96.404C214.343 96.6653 213.983 97.286 213.983 97.8087V113.407C213.983 113.93 214.343 114.126 214.784 113.881L228.308 106.09C228.749 105.845 229.108 105.208 229.108 104.701V89.0867C229.108 88.5803 228.749 88.368 228.308 88.6293Z" fill="#3F5E69"/>
<path d="M227.556 104.799L227.622 104.652V90.7363L215.535 97.6943L215.47 97.8413V111.757L227.556 104.799Z" fill="#F4F4F4"/>
<path d="M229.108 96.012L213.983 104.734V106.482L229.108 97.776V96.012Z" fill="#3F5E69"/>
<path d="M222.297 92.0757V109.585L220.794 110.418V92.9577L222.297 92.0757Z" fill="#3F5E69"/>
<path d="M204.934 65.4849L212.398 61.1729C212.839 60.9116 213.199 61.1239 213.199 61.6302V77.2449C213.199 77.7676 212.839 78.3883 212.398 78.6496L204.934 82.9616C204.493 83.2066 204.134 83.0106 204.134 82.4879V66.8896C204.134 66.3669 204.493 65.7462 204.934 65.4849Z" fill="#3F5E69"/>
<path d="M205.62 66.8896L205.718 66.7589L211.712 63.2963V77.2449L211.614 77.3756L205.62 80.8383V66.8896Z" fill="#F4F4F4"/>
<path d="M211.712 69.4213L205.62 72.9493V74.6969L211.712 71.1689V69.4213Z" fill="#3F5E69"/>
<path d="M178.409 148.916L235.902 115.726V119.222L178.409 152.411V148.916Z" fill="#29383E"/>
<path d="M99.7313 106.988L66.444 42.3407L42.2217 73.7824L42.238 115.726L99.7313 148.916V106.988Z" fill="#FFB650"/>
<path d="M48.2812 119.222V87.7637L60.3843 94.7543V126.196L48.2812 119.222Z" fill="#29383E"/>
<path d="M73.304 102.235L86.8116 110.01C87.2526 110.271 87.6283 110.908 87.6283 111.414V127.029C87.6283 127.535 87.2526 127.748 86.8116 127.486L73.304 119.712C72.8466 119.45 72.4873 118.83 72.4873 118.307V102.709C72.4873 102.186 72.8466 101.974 73.304 102.235Z" fill="#3F5E69"/>
<path d="M74.039 118.421L73.9736 118.274V104.358L86.0766 111.3L86.142 111.463L86.1256 125.379L74.039 118.421Z" fill="#F4F4F4"/>
<path d="M72.4873 109.634L87.6283 118.34V120.087L72.4873 111.382V109.634Z" fill="#3F5E69"/>
<path d="M79.2979 105.698V123.207L80.8169 124.04V106.563L79.2979 105.698Z" fill="#3F5E69"/>
<path d="M73.1895 65.4849L65.7251 61.1729C65.2841 60.9116 64.9248 61.1239 64.9248 61.6302V77.2449C64.9248 77.7676 65.2841 78.3883 65.7251 78.6496L73.1895 82.9616C73.6468 83.2066 74.0061 83.0106 74.0061 82.4879V66.8896C74.0061 66.3669 73.6468 65.7462 73.1895 65.4849Z" fill="#3F5E69"/>
<path d="M72.5198 66.8896L72.4218 66.7589L66.4111 63.2963V77.2449L66.5091 77.3756L72.5035 80.8383L72.5198 66.8896Z" fill="#F4F4F4"/>
<path d="M66.4111 69.4213L72.5198 72.9493V74.6969L66.4111 71.1689V69.4213Z" fill="#3F5E69"/>
<path d="M179.062 109.111L139.062 86.016V2.16064L212.349 44.4803L179.062 109.111Z" fill="#3F5E69"/>
<path d="M211.696 42.3407L210.994 43.68L237.536 72.835L238.924 72.0347L211.696 42.3407Z" fill="#3F5E69"/>
<path d="M237.536 72.8349L235.903 73.7823L211.125 46.8323L212.121 44.9213L237.536 72.8349Z" fill="#29383E"/>
<path d="M178.409 106.988L139.062 84.2683V0.412964L211.696 42.3406L178.409 106.988Z" fill="#354A53"/>
<path d="M99.0774 109.111L139.061 86.016V2.16064L65.79 44.4803L99.0774 109.111Z" fill="#3F5E69"/>
<path d="M66.4442 42.3407L67.1302 43.68L40.5885 72.835L39.2002 72.0347L66.4442 42.3407Z" fill="#3F5E69"/>
<path d="M40.5879 72.8349L42.2212 73.7823L66.9989 46.8323L66.0189 44.9213L40.5879 72.8349Z" fill="#29383E"/>
<path d="M99.7317 106.988L139.062 84.2683V0.412964L66.4443 42.3406L99.7317 106.988Z" fill="#29383E"/>
<path d="M100.482 64.6193L108.796 80.7729V63.3126L100.482 58.4943V64.6193Z" fill="#FEBE3D"/>
<path d="M108.796 63.3126L117.877 47.5836L123.937 54.5743V72.0346L108.796 80.7729V63.3126Z" fill="#FCD789"/>
<path d="M113.566 61.3853L119.169 58.1513C119.495 57.9553 119.773 58.1186 119.773 58.4943V70.2053C119.773 70.581 119.495 71.0547 119.169 71.2507L113.566 74.4847C113.24 74.6807 112.962 74.5173 112.962 74.1417V62.4307C112.962 62.0387 113.24 61.5813 113.566 61.3853Z" fill="#3F5E69"/>
<path d="M114.088 62.4306L114.153 62.3326L118.661 59.7356V70.2052L118.58 70.3032L114.088 72.9002V62.4306Z" fill="#F4F4F4"/>
<path d="M118.661 64.3417L114.088 66.9877V68.2943L118.661 65.6483V64.3417Z" fill="#3F5E69"/>
<path d="M117.878 47.5836L120.916 49.3313L126.959 56.322L123.938 54.5743L117.878 47.5836Z" fill="#29383E"/>
<path d="M117.878 46.8323L120.916 48.5799L126.959 55.5706L123.938 53.8229L117.878 46.8323Z" fill="#29383E"/>
<path d="M120.916 49.3314L108.796 66.808L96.6934 59.8174L108.796 42.3407L120.916 49.3314Z" fill="#354A53"/>
<path d="M120.916 48.5799L108.796 66.0565L96.6934 59.0659L108.796 41.5892L120.916 48.5799Z" fill="#354A53"/>
<path d="M120.916 48.58V49.3313L126.959 56.322V55.5706L120.916 48.58Z" fill="#3F5E69"/>
<path d="M120.915 48.58L108.796 66.0566V66.808L120.915 49.3313V48.58Z" fill="#3F5E69"/>
<path d="M96.6934 59.066V59.8174L108.796 66.808V66.0567L96.6934 59.066Z" fill="#29383E"/>
<path d="M177.642 64.6193L169.328 80.7729V63.3126L177.642 58.4943V64.6193Z" fill="#FCD789"/>
<path d="M169.328 63.3126L160.246 47.5836L154.203 54.5743V72.0346L169.328 80.7729V63.3126Z" fill="#FEBE3D"/>
<path d="M164.558 61.3853L158.956 58.1513C158.629 57.9553 158.352 58.1186 158.352 58.4943V70.2053C158.352 70.581 158.629 71.0547 158.956 71.2507L164.558 74.4847C164.901 74.6807 165.163 74.5173 165.163 74.1417V62.4307C165.163 62.0387 164.901 61.5813 164.558 61.3853Z" fill="#3F5E69"/>
<path d="M164.052 62.4306L163.97 62.3326L159.479 59.7356V70.2052L159.544 70.3032L164.052 72.9002V62.4306Z" fill="#FAFAFA"/>
<path d="M159.479 64.3417L164.052 66.9877V68.2943L159.479 65.6483V64.3417Z" fill="#3F5E69"/>
<path d="M160.246 47.5836L157.225 49.3313L151.165 56.322L154.203 54.5743L160.246 47.5836Z" fill="#29383E"/>
<path d="M160.246 46.8323L157.225 48.5799L151.165 55.5706L154.203 53.8229L160.246 46.8323Z" fill="#29383E"/>
<path d="M157.225 49.3314L169.328 66.808L181.431 59.8174L169.328 42.3407L157.225 49.3314Z" fill="#354A53"/>
<path d="M157.225 48.5799L169.328 66.0565L181.431 59.0659L169.328 41.5892L157.225 48.5799Z" fill="#3F5E69"/>
<path d="M157.225 48.58V49.3313L151.165 56.322V55.5706L157.225 48.58Z" fill="#3F5E69"/>
<path d="M157.225 48.58L169.328 66.0566V66.808L157.225 49.3313V48.58Z" fill="#3F5E69"/>
<path d="M181.431 59.066V59.8174L169.328 66.808V66.0567L181.431 59.066Z" fill="#29383E"/>
<path d="M99.7309 148.916L87.6279 155.906V159.402L99.7309 152.411V148.916Z" fill="#29383E"/>
<path d="M87.6278 155.906L30.1182 122.701V126.196L87.6278 159.402V155.906Z" fill="#3F5E69"/>
<path d="M42.2375 115.726L30.1182 122.701L87.6278 155.906L99.7308 148.916L42.2375 115.726Z" fill="#354A53"/>
<path d="M86.0771 151.529C86.0935 151.758 86.2405 151.986 86.5345 152.15C87.1388 152.493 88.1025 152.493 88.7068 152.15C89.0008 151.986 89.1478 151.758 89.1642 151.529V108.36H86.0771V151.529Z" fill="#29383E"/>
<path d="M36.2432 122.897C36.2432 123.109 36.3902 123.338 36.6842 123.501C37.2885 123.86 38.2685 123.86 38.8728 123.501C39.1668 123.338 39.3138 123.109 39.3138 122.897H39.3302V79.7113H36.2432V122.897Z" fill="#29383E"/>
<path d="M99.731 106.988L39.1997 72.0347L27.0967 79.0253L87.628 113.979L99.731 106.988Z" fill="#3F5E69"/>
<path d="M87.6279 113.979V115.726L99.7309 108.736V106.988L87.6279 113.979Z" fill="#29383E"/>
<path d="M87.628 113.979L27.0967 79.0253V80.7729L87.628 115.726V113.979Z" fill="#354A53"/>
<path d="M154.709 178.234C154.709 178.234 153.419 180.668 153.566 182.105C153.696 183.542 154.137 184.963 154.137 184.963C154.137 184.963 153.272 185.992 153.696 186.711C154.137 187.43 155.705 187.56 156.212 187.854C156.718 188.148 157.437 189.651 158.433 189.929C159.446 190.223 160.377 190.794 160.589 189.929C160.818 189.079 159.952 187.642 159.021 187.283C158.466 187.07 157.682 186.613 157.11 186.205C156.718 185.911 156.424 185.633 156.408 185.453C156.31 184.686 157.437 179.459 157.437 179.459C157.437 179.459 157.861 179.312 157.861 178.299C157.861 177.303 157.584 172.419 156.93 170.77C156.293 169.104 156.212 164.939 154.35 165.298C153.419 165.478 152.667 166.866 152.145 168.369C151.622 169.871 151.328 171.488 151.328 172.125L154.709 178.234Z" fill="#F5A776"/>
<path d="M148.176 186.123C148.176 186.123 148.176 186.842 148.094 187.495C148.029 188.148 148.6 188.638 149.107 188.998C149.613 189.357 149.123 190.631 150.56 191.464C151.981 192.281 152.765 192.738 153.419 192.166C154.056 191.595 153.843 191.235 153.419 190.745C153.125 190.419 152.047 189.161 151.328 188.132C150.969 187.626 150.691 187.168 150.658 186.923C150.544 186.205 149.972 180.145 149.972 180.145C149.972 180.145 151.573 177.924 151.573 176.094C151.573 174.82 151.834 172.632 151.9 171.848C151.981 171.047 152.765 169.545 152.978 166.507C153.19 163.485 148.029 165.723 148.029 165.723C148.029 165.723 146.167 168.826 145.726 170.77C145.301 172.697 147.016 177.238 147.016 177.238C147.016 177.238 146.526 178.446 146.444 180.325C146.379 182.219 148.176 186.123 148.176 186.123Z" fill="#F5A776"/>
<path d="M155.51 166.915L156.326 168.287C156.326 168.287 157.257 170.949 157.551 171.799C157.829 172.664 158.074 175.898 158.074 175.898C158.074 175.898 158.058 177.434 155.51 177.385C152.945 177.336 153.141 177.238 153.141 177.238L151.737 173.481C151.737 173.481 150.12 172.779 150.659 171.129C151.181 169.463 153.958 165.2 155.51 166.915Z" fill="#663333"/>
<path d="M151.802 168.124C151.802 168.124 152.553 169.871 152.521 172.338C152.488 174.82 151.59 177.548 151.59 177.548C151.59 177.548 150.838 178.953 149.352 178.332C147.882 177.728 146.445 176.797 146.445 176.797C146.445 176.797 145.595 172.305 145.481 171.423C145.367 170.541 145.808 167.634 147.196 167.536C148.601 167.421 151.802 168.124 151.802 168.124Z" fill="#663333"/>
<path d="M153.011 154.551C153.011 154.551 153.419 153.93 155.722 156.249C156.8 157.327 157.143 157.85 157.143 157.85C157.143 157.85 161.341 155.645 161.39 155.09C161.422 154.551 163.758 153.342 164.248 154.208C164.754 155.09 165.048 156.805 164.591 157.523C162.86 160.251 162.484 154.992 161.798 157.213C161.128 159.418 157.976 162.146 156.245 161.705C154.611 161.28 152.782 156.87 152.717 155.89C152.668 154.91 153.011 154.551 153.011 154.551Z" fill="#F5A776"/>
<path d="M151.051 153.603C151.051 153.603 151.475 152.297 152.08 152.28C152.7 152.248 152.896 151.888 154.317 153.309C155.706 154.698 156.522 156.641 156.522 156.641C156.522 156.641 154.987 159.255 154.105 159.483C153.207 159.712 152.374 159.483 152.374 159.483L151.051 153.603Z" fill="#FDCA76"/>
<path d="M150.968 153.244C150.968 153.244 152.259 152.084 152.912 153.75C153.565 155.4 154.562 158.846 154.562 159.353C154.562 159.843 156.309 168.124 156.309 168.124C156.309 168.124 153.418 171.194 151.328 171.407C149.253 171.619 146.215 169.283 146.215 169.283C146.215 169.283 145.872 164.873 145.301 163.289C144.729 161.721 142.589 160.235 142.949 158.585C143.308 156.935 145.725 155.4 147.244 154.959C148.747 154.534 150.968 153.244 150.968 153.244Z" fill="#FDBE55"/>
<path d="M146.804 153.309L146.102 155.694C146.102 155.694 148.356 157.458 149.238 157.507C150.12 157.556 151.263 157.572 151.149 156.952C151.051 156.331 151.051 153.603 151.051 153.603L146.804 153.309Z" fill="#F5A776"/>
<path d="M153.582 187.315C154.007 188.034 155.591 188.165 156.098 188.459C156.604 188.753 157.437 189.929 158.433 190.223C159.446 190.517 160.377 190.794 160.589 189.929C160.818 189.079 159.952 187.92 159.021 187.56C158.466 187.348 157.682 186.907 157.11 186.482C157.061 186.466 156.359 186.237 156.539 186.76C156.718 187.283 156.718 187.56 156.718 187.56C156.718 187.56 155.493 187.152 154.856 186.417C154.203 185.698 154.138 185.257 154.138 185.257C154.138 185.257 153.158 186.597 153.582 187.315Z" fill="#F9C4C0"/>
<path d="M148.992 189.569C149.499 189.929 149.123 190.925 150.56 191.742C151.981 192.575 152.765 193.032 153.419 192.46C154.056 191.872 153.843 191.513 153.419 191.023C153.125 190.696 152.047 189.439 151.328 188.426C151.328 188.426 150.315 188.41 150.283 188.736C150.25 189.047 150.528 189.667 150.25 189.439C149.989 189.21 149.384 188.41 148.992 187.969C148.6 187.528 148.176 186.417 148.176 186.417C148.176 186.417 148.061 187.413 147.98 188.05C147.914 188.704 148.486 189.21 148.992 189.569Z" fill="#F9C4C0"/>
<path d="M153.696 186.711C154.137 187.43 155.705 187.56 156.212 187.854C156.718 188.148 157.437 189.651 158.433 189.929C159.446 190.223 160.377 190.794 160.589 189.929C160.818 189.079 159.952 187.642 159.021 187.283C158.466 187.07 157.682 186.613 157.11 186.205C157.061 186.188 156.359 185.96 156.538 186.466C156.718 186.989 156.718 187.283 156.718 187.283C156.718 187.283 155.493 186.858 154.856 186.139C154.203 185.404 154.137 184.963 154.137 184.963C154.137 184.963 153.272 185.992 153.696 186.711Z" fill="#0F7299"/>
<path d="M149.107 188.998C149.613 189.357 149.123 190.631 150.56 191.464C151.981 192.281 152.765 192.738 153.419 192.166C154.056 191.595 153.843 191.235 153.419 190.745C153.125 190.419 152.047 189.161 151.328 188.132C151.328 188.132 150.315 188.132 150.283 188.442C150.25 188.769 150.528 189.373 150.25 189.145C149.989 188.916 149.384 188.116 148.992 187.675C148.6 187.25 148.176 186.123 148.176 186.123C148.176 186.123 148.176 186.842 148.094 187.495C148.029 188.148 148.6 188.638 149.107 188.998Z" fill="#0F7299"/>
<path d="M144.207 149.014C144.207 146.564 146.183 144.587 148.633 144.587C150.397 144.587 151.933 145.649 152.635 147.152C152.635 147.152 153.435 148.589 153.435 149.357C153.435 150.124 153.109 149.749 153.272 150.484C153.435 151.202 153.942 151.545 153.305 152.787C152.684 154.044 152.504 155.122 152.374 155.237C152.243 155.367 152.521 155.841 150.365 155.433C148.209 155.041 146.722 153.979 146.069 153.326C145.742 152.999 145.432 152.346 145.187 151.774C144.583 151.023 144.207 150.059 144.207 149.014Z" fill="#F5A776"/>
<path d="M150.414 148.916C148.911 148.899 149.205 148.246 148.633 149.144C148.045 150.043 148.829 151.692 148.16 151.888C147.686 152.019 147.408 150.369 146.396 150.974C145.399 151.562 146.706 154.061 146.706 154.061C146.706 154.061 143.211 151.055 143.619 148.148C144.027 145.241 144.926 145.682 146.02 145.061C147.114 144.424 150.038 143.477 151.786 145.224C153.844 147.282 152.831 147.544 152.831 147.544C152.831 147.544 152.161 148.916 150.414 148.916Z" fill="#333333"/>
<path d="M146.771 150.582C146.755 150.565 146.412 149.83 146.069 150.075C145.742 150.304 145.513 150.745 145.644 151.349C145.758 151.954 146.069 152.689 146.493 152.672C146.902 152.672 147.016 152.721 147.245 152.411C147.457 152.084 147.326 151.725 147.326 151.725L146.771 150.582Z" fill="#BA4B47"/>
<path d="M146.935 150.647C146.918 150.614 146.575 149.896 146.232 150.124C145.906 150.353 145.693 150.81 145.808 151.398C145.922 152.003 146.249 152.754 146.657 152.738C147.065 152.721 147.196 152.787 147.408 152.46C147.621 152.133 147.49 151.774 147.49 151.774L146.935 150.647Z" fill="#F5A776"/>
<path d="M146.624 150.827C146.624 150.827 146.493 151.202 146.444 151.349C146.395 151.513 146.363 151.774 146.444 151.888C146.526 152.019 146.608 152.101 146.608 152.101C146.608 152.101 146.575 151.464 146.624 151.219C146.673 150.99 146.689 150.778 146.591 150.598C146.477 150.418 146.395 150.19 146.232 150.402C146.069 150.614 145.938 150.843 145.987 151.235C146.036 151.611 146.15 152.003 146.33 152.182C146.51 152.346 146.738 152.427 146.738 152.427C146.738 152.427 146.281 152.248 146.183 151.807C146.085 151.366 146.036 150.696 146.167 150.582C146.297 150.467 146.314 150.451 146.33 150.614C146.346 150.778 146.248 151.023 146.363 150.941C146.493 150.859 146.493 150.631 146.575 150.712L146.624 150.827Z" fill="#BA4B47"/>
<path d="M146.722 151.562L146.853 151.202C146.918 151.219 146.935 151.219 146.984 151.333C147.033 151.464 147.049 151.496 147.147 151.464C147.261 151.431 147.343 151.333 147.245 151.496C147.147 151.66 147.131 151.496 146.967 151.594C146.804 151.709 146.869 151.872 146.755 151.872C146.641 151.888 146.706 151.643 146.739 151.578L146.722 151.562Z" fill="#BA4B47"/>
<path d="M145.416 158.585C145.416 158.585 143.864 157.344 142.95 158.585C142.035 159.826 142.835 165.282 142.835 165.282L139.797 166.441C139.797 166.441 139.013 165.249 138.523 165.527C138.017 165.821 136.302 166.654 136.302 167.47C136.302 168.287 135.91 168.385 137.364 168.908C138.834 169.43 140.173 168.891 140.173 168.891C140.173 168.891 143.342 169.806 145.073 168.565C146.804 167.323 147.245 159.075 145.416 158.585Z" fill="#F5A776"/>
<path d="M145.464 157.736C145.464 157.736 147.424 159.124 146.983 161.476C146.558 163.828 146.983 165.282 146.983 165.282C146.983 165.282 146.509 167.193 144.533 166.294C142.54 165.396 142.05 163.632 142.05 163.632C142.05 163.632 141.871 155.318 145.464 157.736Z" fill="#FDCA76"/>
<path d="M137.053 166.343C136.645 166.801 136.89 167.307 137.069 167.601C137.87 168.891 137.478 169.904 136.955 169.773C136.187 169.594 136.351 167.977 135.224 167.127C134.734 166.768 134.342 166.327 134.293 164.873C134.26 163.714 135.273 163.044 135.273 163.044L137.086 163.256L139.389 166.294L140.189 170.263C140.189 170.263 139.291 170.165 139.209 169.92C138.572 167.977 137.592 165.788 137.053 166.343Z" fill="#F3CEBD"/>
<path d="M129.442 142.774C129.442 142.774 130.373 141.892 131.5 142.889C132.627 143.901 132.921 153.979 133.264 155.122C133.607 156.249 135.616 160.022 135.616 160.022C135.616 160.022 137.38 163.175 137.461 163.305C137.543 163.436 137.886 165.233 136.416 165.02C134.946 164.808 134.227 164.138 133.639 163.681C133.051 163.224 129.997 156.38 129.654 155.073C129.311 153.767 127.057 144.947 129.442 142.774Z" fill="#C6B4FD"/>
<path d="M130.993 196.838C128.07 197.573 129.425 192.95 129.425 192.95C129.425 192.95 135.714 195.662 130.993 196.838Z" fill="#F4F1FB"/>
<path d="M128.723 195.923L128.69 196.707C128.707 196.707 129.474 197.328 130.079 197.458C130.699 197.605 132.496 199.908 133.525 200.431C136.743 202.081 137.135 200.594 137.102 200.447C137.037 199.908 136.334 199.141 135.861 198.847C135.24 198.455 134.701 197.213 134.407 196.707C134.129 196.217 133.476 195.172 132.986 195.449C132.48 195.711 131.304 196.609 131.304 196.609C131.304 196.609 129.736 195.678 129.491 195.237C129.246 194.78 129.18 194.143 129.18 194.143C129.18 194.143 128.739 195.188 128.723 195.923Z" fill="#7F3A2B"/>
<path d="M128.722 195.547L128.706 196.119C128.722 196.119 129.049 196.282 129.425 196.495C129.768 196.707 130.307 196.576 130.519 196.805C130.666 196.952 130.993 197.409 131.287 197.736C131.989 198.471 132.822 199.484 133.541 199.827C135.974 200.986 136.726 201.28 137.003 200.382C137.15 199.859 136.301 199.108 136.023 198.683C135.795 198.324 134.553 196.544 134.423 196.331C134.243 196.021 133.933 195.498 133.59 195.221C133.394 195.057 133.181 194.976 132.985 195.074L132.773 195.188L132.642 195.286C132.087 195.645 131.319 196.233 131.319 196.233C131.319 196.233 129.751 195.302 129.506 194.861C129.294 194.486 129.229 193.979 129.196 193.816C129.196 193.767 129 194.224 128.869 194.747C128.788 195.008 128.739 195.286 128.722 195.547Z" fill="#463029"/>
<path d="M123.284 166.017L130.487 160.3C130.487 160.3 133.558 176.764 134.064 178.201C134.571 179.655 133.607 192.918 133.689 194.077C133.77 195.09 133.672 196.152 133.672 196.152C133.672 196.152 132.97 196.593 131.451 195.498C129.916 194.42 129.099 193.293 129.099 193.293C129.099 193.293 127.041 186.499 128.021 183.281C129.017 180.047 126.306 173.791 126.306 173.791L123.284 166.017Z" fill="#4D4D4D"/>
<path d="M116.587 196.152C116.587 196.152 116.44 196.544 116.44 197.393C116.44 198.259 117.535 199.19 117.91 199.974C118.302 200.741 119.478 201.868 121.03 202.326C122.598 202.799 123.349 202.603 123.594 202.032C123.937 201.28 123.006 200.17 122.271 199.435C121.177 198.34 119.936 196.919 119.936 196.919L116.587 196.152Z" fill="#7F3A2B"/>
<path d="M116.587 195.58C116.587 195.58 116.44 195.972 116.44 196.838C116.44 197.687 117.535 198.618 117.91 199.402C118.302 200.186 119.478 201.509 121.03 201.966C122.598 202.44 123.251 202.473 123.496 201.917C123.839 201.166 123.268 200.627 122.549 199.892C121.438 198.781 120.638 195.662 120.638 195.662L116.587 195.58Z" fill="#463029"/>
<path d="M120.066 196.674C120.066 196.674 120.099 193.44 120.572 190.37C121.046 187.315 120.866 186.629 121.536 185.339C123.496 181.533 123.251 174.494 123.578 170.884C123.921 167.274 124.443 166.882 124.443 166.882C122.336 163.534 118.661 165.037 117.306 166.409C115.934 167.764 118.253 182.007 118.253 182.35C118.253 182.677 116.62 186.221 116.064 187.658C115.525 189.096 116.816 193.832 116.816 193.832C116.816 193.832 115.574 196.805 119.037 197.948C119.429 198.079 120.899 197.426 120.066 196.674Z" fill="#F4F1FB"/>
<path d="M116.734 165.804C116.734 165.804 115.901 167.16 116.391 172.06C116.898 176.96 117.6 179.181 117.077 181.599C116.8 182.938 115.575 185.127 115.232 186.809C114.889 188.508 115.999 194.159 115.999 194.159C115.999 194.159 116.375 195.825 117.894 196.576C119.397 197.328 120.409 197.556 120.409 197.556C120.409 197.556 121.193 195.172 121.569 189.831C121.765 186.94 123.104 183.052 123.431 182.726C123.741 182.415 127.269 165.772 127.269 164.841C127.269 163.893 116.734 165.804 116.734 165.804Z" fill="#333333"/>
<path d="M130.797 143.493C130.634 143.248 130.438 143.036 130.193 142.856C129.784 142.562 129.278 142.35 128.674 142.203C125.848 141.517 118.514 140.896 115.705 144.996C115.411 148.948 114.709 149.602 115.395 153.734C115.803 156.233 115.885 160.888 116.146 163.224C116.391 165.461 118.4 166.735 117.518 168.597C118.09 168.924 119.168 169.104 121.209 168.614C125.489 167.601 133.231 165.461 131.385 161.656C131.238 160.316 131.14 159.304 131.14 158.912C131.14 158.258 130.585 155.531 131.369 152.15C131.793 150.288 132.773 146.809 130.797 143.493Z" fill="#CBBADB"/>
<path d="M124.443 145.976C124.443 145.976 124.345 146.417 122.973 145.486C121.323 144.342 121.029 142.823 121.029 142.823C121.029 142.823 122.189 142.595 122.173 141.468C122.14 140.324 127.22 143.297 127.22 143.297C127.22 143.297 126.24 144.734 126.24 145.273C126.256 145.796 124.443 145.976 124.443 145.976Z" fill="#F5A776"/>
<path d="M129.686 135.571C129.686 135.571 130.356 138.005 129.964 138.756C129.572 139.524 129.36 138.985 129.376 139.932C129.392 140.88 129.752 141.288 129.147 141.909C128.543 142.546 128.069 142.562 128.102 143.64C128.118 144.734 126.42 144.555 125.244 143.918C124.068 143.281 121.716 141.745 121.209 140.194C120.687 138.642 117.485 132.762 124.345 132.288C127.481 132.076 129.686 135.571 129.686 135.571Z" fill="#F3CEBD"/>
<path d="M129.637 135.31C129.245 135.62 129.457 134.853 127.301 135.669C125.145 136.486 124.851 135.996 124.851 136.943C124.851 137.891 123.43 140.096 123.43 140.096C123.43 140.096 122.058 136.96 121.585 138.43C121.095 139.9 122.271 141.762 122.271 141.762C122.271 141.762 116.848 139.573 119.184 134.248C122.369 126.996 131.989 133.464 129.637 135.31Z" fill="#333333"/>
<path d="M122.075 138.299C122.058 138.266 121.601 137.335 121.176 137.646C120.752 137.956 120.49 138.528 120.654 139.295C120.833 140.063 121.258 140.994 121.781 140.961C122.303 140.945 122.467 141.01 122.728 140.586C123.006 140.177 122.826 139.72 122.826 139.72L122.075 138.299Z" fill="#F5A776"/>
<path d="M122.288 138.364C122.271 138.332 121.814 137.401 121.389 137.711C120.965 138.021 120.703 138.593 120.867 139.361C121.046 140.128 121.471 141.059 121.994 141.027C122.516 141.01 122.68 141.076 122.941 140.651C123.219 140.243 123.039 139.785 123.039 139.785L122.288 138.364Z" fill="#F3CEBD"/>
<path d="M121.895 138.609C121.895 138.609 121.748 139.067 121.683 139.279C121.634 139.475 121.585 139.818 121.699 139.965C121.813 140.112 121.911 140.226 121.911 140.226C121.911 140.226 121.862 139.41 121.911 139.116C121.977 138.805 121.993 138.528 121.846 138.315C121.699 138.087 121.585 137.809 121.389 138.07C121.193 138.348 121.029 138.642 121.095 139.132C121.16 139.622 121.34 140.128 121.568 140.341C121.797 140.553 122.107 140.651 122.107 140.651C122.107 140.651 121.503 140.406 121.356 139.867C121.225 139.312 121.144 138.462 121.307 138.299C121.47 138.152 121.487 138.119 121.519 138.332C121.536 138.528 121.438 138.854 121.585 138.74C121.732 138.642 121.732 138.348 121.83 138.462C121.928 138.577 121.895 138.609 121.895 138.609Z" fill="#F5A776"/>
<path d="M122.043 139.524C122.043 139.524 122.108 139.067 122.19 139.083C122.288 139.083 122.304 139.083 122.386 139.246C122.451 139.393 122.451 139.442 122.598 139.393C122.745 139.344 122.827 139.23 122.713 139.426C122.598 139.638 122.566 139.426 122.353 139.573C122.157 139.72 122.239 139.916 122.092 139.932C121.961 139.965 122.027 139.638 122.059 139.557L122.043 139.524Z" fill="#F5A776" stroke="#F5A776" stroke-width="0.0762"/>
<path d="M117.29 166.899C117.29 166.899 119.021 168.254 119.364 168.81C119.691 169.365 119.593 170.966 119.593 170.966C119.593 170.966 118.646 170.214 117.862 170.051C117.078 169.888 117.47 170.639 117.47 170.639L117.551 171.701C117.551 171.701 117.29 172.958 116.833 172.452C116.392 171.946 116.392 171.946 116.392 171.946L115.836 171.439L115.559 170.655C115.559 170.655 115.167 170.492 114.938 170.263C114.709 170.035 114.709 169.202 114.709 169.202C114.709 169.202 114.481 168.646 114.546 168.369C114.595 168.075 115.379 166.294 115.379 166.294L117.29 166.899Z" fill="#F3CEBD"/>
<path d="M117.698 143.346C117.698 143.346 119.021 143.493 119.184 144.963C119.347 146.449 115.999 156.576 115.999 156.576C115.999 156.576 116.62 160.12 116.571 160.855C116.326 164.563 118.008 166.735 117.387 167.405C115.885 169.038 114.121 166.082 114.121 166.082C114.121 166.082 111.066 158.16 111.066 156.102C111.066 154.061 113.337 142.088 117.698 143.346Z" fill="#C6B4FD"/>
<path d="M125.047 145.894C125.047 145.894 122.564 145.094 122.009 144.277C121.029 142.823 122.27 141.762 122.27 141.762C122.27 141.762 121.437 141.843 120.604 142.056C119.771 142.268 119.428 143.852 120.604 145.241C121.78 146.629 124.769 147.821 124.769 147.821L125.047 145.894Z" fill="#5B519C"/>
<path d="M127.547 146.923L125.048 145.894C125.048 145.894 126.355 145.257 126.306 144.783C126.24 144.31 126.24 144.31 126.24 144.31L127.269 144.424C127.269 144.424 128.527 144.979 127.547 146.923Z" fill="#5B519C"/>
<path d="M181.463 144.163L183.325 145.649C183.325 145.649 183.488 146.172 182.867 146.841C182.247 147.527 181.789 147.985 181.283 147.854C180.777 147.74 180.434 145.208 180.434 145.208L181.495 143.999L181.463 144.163Z" fill="#B40B11"/>
<path d="M184.893 146.564C184.893 146.564 186.037 148.344 186.004 148.622C185.971 148.916 185.726 150.059 184.991 150.075C184.256 150.092 184.256 149.798 184.256 149.798C184.256 149.798 184.158 150.043 183.979 149.798C183.799 149.536 183.587 149.144 183.587 149.144L183.031 149.079L182.933 148.785L182.672 148.638L182.933 147.674L184.893 146.564Z" fill="#F3CEBD"/>
<path d="M178.915 127.209C176.53 126.033 176.383 132.37 177.004 134.216C177.624 136.078 177.314 135.784 177.935 137.646C178.555 139.491 179.225 141.076 179.993 142.97C180.76 144.881 182.23 146.939 182.23 146.939L184.174 146.482C184.174 146.482 181.724 144.228 181.773 142.464C181.855 140.422 180.042 137.352 180.042 137.352C180.042 137.352 180.564 131.031 180.532 130.083C180.483 128.483 180.303 127.895 178.915 127.209Z" fill="#F3CEBD"/>
<path d="M183.865 159.075C183.26 159.369 182.656 159.663 182.052 159.957C181.937 159.859 181.856 159.761 181.758 159.647C180.32 158.062 179.585 155.874 179.798 153.734C179.814 153.571 179.83 153.407 179.863 153.244C179.896 153.032 179.977 152.77 180.206 152.721C180.369 152.689 180.549 152.819 180.614 152.983C180.68 153.146 180.68 153.342 180.68 153.522C180.663 155.759 181.921 157.948 183.865 159.075Z" fill="#EE7635"/>
<path d="M181.692 159.581C180.451 158.177 179.765 156.315 179.765 154.453C179.765 154.208 179.765 153.979 179.797 153.734C180.108 156.102 180.565 158.046 182.378 159.271C182.329 159.287 182.28 159.304 182.231 159.336C182.035 159.402 181.855 159.483 181.692 159.581Z" fill="#8A441F"/>
<path d="M189.27 168.107L188.405 168.614C187.8 168.565 187.343 168.728 186.984 169.071C186.755 169.43 186.771 169.757 186.984 170.067L188.258 170.329L189.728 169.822L189.27 168.107Z" fill="#B05828"/>
<path d="M182.721 164.775C182.721 164.775 183.031 167.438 183.064 167.519C183.227 167.977 183.978 168.434 184.403 168.467C185.22 168.385 185.318 167.781 184.877 167.225L184.452 166.703L184.697 164.302L182.721 164.775Z" fill="#B05828"/>
<path d="M193.322 165.445C193.322 165.494 193.322 165.543 193.322 165.592C193.305 166.196 193.093 166.768 192.766 167.291C192.342 167.928 191.901 168.499 191.46 168.532L191.28 170.868L191.443 173.906C191.95 174.216 192.227 174.624 192.342 175.082C192.26 175.343 192.129 175.572 191.884 175.735L191.868 175.751C191.786 175.817 191.688 175.866 191.574 175.915C191.035 175.882 190.529 175.523 190.039 175.049L189.189 172.648C188.961 171.995 188.846 171.309 188.846 170.623V168.434C186.903 167.356 185.286 166.18 184.6 164.71C184.436 164.563 184.191 164.563 184.012 164.677C182.754 165.576 181.464 166.196 179.879 165.429L178.867 166.752L179.226 167.47C179.324 167.862 179.03 168.189 178.687 168.287C178.491 168.32 178.295 168.303 178.115 168.173L177.331 167.47C176.874 166.67 177.674 165.559 178.099 164.171C178.181 163.893 178.409 163.681 178.703 163.616L179.569 163.403C180.32 162.57 180.075 160.071 182.231 159.336C182.95 158.993 183.652 158.797 184.338 158.748C184.861 158.716 185.384 158.83 185.857 159.075C186.756 159.516 187.556 160.088 188.258 160.774C188.961 160.97 189.63 161.182 190.235 161.427C191.28 161.835 192.129 162.342 192.734 162.93C192.815 163.011 192.897 163.093 192.962 163.175C193.207 163.942 193.322 164.71 193.322 165.445Z" fill="#EE7635"/>
<path d="M197.618 163.763V163.779C197.618 163.877 197.601 163.991 197.569 164.089C197.487 164.383 197.275 164.645 196.997 164.792L196.54 165.004C196.229 165.151 195.87 165.151 195.56 164.988L193.992 164.122L193.322 165.445L193.159 165.772L192.669 165.396L188.553 162.178L190.235 161.427L190.382 161.362L191.182 160.431C191.297 159.467 191.656 158.797 192.015 158.209C192.13 158.046 192.375 158.03 192.489 158.177C192.685 158.422 192.783 158.601 192.914 158.765L193.812 158.454C193.926 158.095 194.188 157.768 194.514 157.295C194.629 157.131 194.89 157.148 194.972 157.327C195.184 157.785 195.331 158.324 195.413 158.765C195.429 158.814 195.886 159.565 196.229 160.12C196.409 160.398 196.523 160.708 196.572 161.035L196.801 162.227L197.438 163.175C197.552 163.354 197.618 163.55 197.618 163.763Z" fill="#EE7635"/>
<path d="M191.77 160.578C191.77 159.647 191.802 158.846 192.309 158.454C192.521 158.471 192.848 159.026 193.093 159.516C192.652 159.696 192.162 160.104 191.77 160.578Z" fill="#8A441F"/>
<path d="M194.139 159.01C194.286 158.454 194.416 157.883 194.759 157.605C195.004 157.67 195.119 158.307 195.233 158.863C195.119 158.846 195.021 158.83 194.906 158.83C194.645 158.83 194.4 158.895 194.139 159.01Z" fill="#8A441F"/>
<path d="M197.405 163.648C197.389 163.55 197.307 163.436 197.209 163.42C197.16 163.42 197.111 163.42 197.062 163.436C196.817 163.485 196.605 163.665 196.49 163.893C196.441 163.991 196.425 164.122 196.474 164.22C196.539 164.302 196.654 164.334 196.752 164.318C196.866 164.285 196.948 164.236 197.029 164.171C197.062 164.351 197.062 164.53 197.062 164.71C197.111 164.514 197.144 164.302 197.144 164.089C197.193 164.057 197.242 164.008 197.291 163.959C197.356 163.877 197.405 163.763 197.405 163.648Z" fill="#1D1D1B"/>
<path d="M191.574 175.915C191.035 175.882 190.528 175.523 190.038 175.049L189.189 172.648C188.96 171.995 188.846 171.309 188.846 170.623V168.434C186.951 167.389 185.351 166.229 184.648 164.824C184.632 164.792 184.616 164.743 184.599 164.71C184.501 164.628 184.403 164.596 184.289 164.596C184.191 164.596 184.093 164.628 184.011 164.677C183.603 164.971 183.211 165.216 182.803 165.412C182.313 165.641 181.823 165.772 181.3 165.772C180.843 165.772 180.385 165.674 179.879 165.429L178.866 166.752L179.226 167.47C179.242 167.519 179.242 167.568 179.242 167.634C179.242 167.944 178.981 168.205 178.687 168.287L178.736 168.189C178.964 168.058 179.03 167.813 178.85 167.47L178.54 166.98C178.458 166.866 178.458 166.703 178.54 166.588L179.438 165.151C179.536 165.004 179.683 164.922 179.846 164.922C179.912 164.922 179.961 164.922 180.026 164.939C180.385 165.086 180.761 165.151 181.104 165.151C182.051 165.151 182.917 164.694 183.75 163.942C183.897 163.861 184.044 163.812 184.158 163.812C184.403 163.812 184.583 163.942 184.779 164.106C186.151 165.853 187.801 167.144 189.728 167.993C189.418 169.136 189.45 170.427 189.728 171.831L190.365 174.412C190.61 175.212 191.198 175.555 191.884 175.735L191.868 175.751C191.786 175.817 191.688 175.866 191.574 175.915Z" fill="#8A441F"/>
<path d="M191.459 168.532C191.9 168.499 192.341 167.928 192.766 167.291C193.092 166.768 193.305 166.196 193.321 165.592C193.321 165.543 193.321 165.494 193.321 165.445L193.991 164.122L195.559 164.988C195.722 165.069 195.902 165.118 196.065 165.118C196.228 165.118 196.392 165.086 196.539 165.004L196.996 164.792C197.274 164.645 197.486 164.383 197.568 164.089C197.486 164.383 197.274 164.645 196.996 164.792L196.539 165.004C196.392 165.086 196.228 165.118 196.065 165.118C195.902 165.118 195.722 165.069 195.559 164.988L193.991 164.122L193.321 165.445C193.321 165.494 193.321 165.543 193.321 165.592C193.305 166.196 193.092 166.768 192.766 167.291C192.341 167.928 191.9 168.499 191.459 168.532Z" fill="#947D59"/>
<path d="M191.459 168.532V167.781C192.21 167.438 192.994 166.637 192.668 165.396L193.158 165.772L193.321 165.445C193.321 165.494 193.321 165.543 193.321 165.592C193.305 166.196 193.092 166.768 192.766 167.291C192.341 167.928 191.9 168.499 191.459 168.532Z" fill="#8A441F"/>
<path d="M193.158 165.772L192.668 165.396C192.994 164.971 192.962 163.893 192.733 162.93C192.684 162.685 192.619 162.456 192.537 162.244C193.272 163.158 194.056 163.681 195.363 164.302L195.657 164.498C195.82 164.612 196 164.661 196.179 164.661C196.326 164.661 196.457 164.628 196.588 164.563L197.045 164.334C197.061 164.465 197.061 164.596 197.061 164.71C197.094 164.579 197.127 164.449 197.127 164.302L197.568 164.089C197.486 164.383 197.274 164.645 196.996 164.792L196.539 165.004C196.392 165.086 196.228 165.118 196.065 165.118C195.902 165.118 195.722 165.069 195.559 164.988L193.991 164.122L193.321 165.445L193.158 165.772Z" fill="#8A441F"/>
<path d="M197.061 164.71C197.061 164.596 197.061 164.465 197.045 164.334L197.127 164.302C197.127 164.449 197.094 164.579 197.061 164.71Z" fill="#111110"/>
<path d="M190.823 160.855C190.202 162.244 191.999 164.873 193.844 164.4L193.518 165.053C191.77 165.772 189.516 162.783 190.235 161.427L190.823 160.855Z" fill="#1D1D1B"/>
<path d="M182.753 145.649C182.753 145.649 183.799 145.469 184.517 146.09C185.252 146.711 185.236 147.952 185.236 147.952C185.236 147.952 184.795 148.899 183.276 148.769C183.015 148.752 182.329 147.152 182.067 146.711C181.675 146.025 182.753 145.649 182.753 145.649Z" fill="#F3CEBD"/>
<path d="M178.212 126.67C178.212 126.67 180.907 125.951 180.907 130.263C180.907 134.542 180.581 136.437 180.581 136.437C180.581 136.437 181.446 140.439 182.149 142.676C182.851 144.914 183.292 145.437 183.292 145.437C183.292 145.437 182.312 144.734 181.463 145.682C180.875 146.351 180.924 147.609 180.924 147.609C180.924 147.609 179.062 141.876 177.722 139.671C176.383 137.466 175.093 127.503 178.212 126.67Z" fill="#CE2932"/>
<path d="M179.552 154.322C179.552 154.469 179.454 154.518 179.339 154.453C179.209 154.371 179.127 154.208 179.127 154.077C179.127 153.93 179.225 153.881 179.339 153.946C179.454 154.028 179.552 154.191 179.552 154.322Z" fill="#A687ED"/>
<path d="M179.552 154.322C179.552 154.469 179.454 154.518 179.339 154.453C179.209 154.371 179.127 154.208 179.127 154.077C179.127 153.93 179.225 153.881 179.339 153.946C179.454 154.028 179.552 154.191 179.552 154.322Z" fill="#A687ED"/>
<path d="M179.666 151.104L179.487 151.121L179.454 150.794L179.634 150.778L179.666 151.104Z" fill="#F78CBD"/>
<path d="M179.666 151.104L179.487 151.121L179.454 150.794L179.634 150.778L179.666 151.104Z" fill="#F78CBD"/>
<path d="M184.256 146.645C184.256 146.645 184.909 147.364 184.893 147.74C184.877 148.132 184.534 149.308 184.632 149.373C184.73 149.422 184.86 150.451 184.256 149.798C183.635 149.128 183.668 147.674 183.668 147.674L182.949 146.988C182.949 146.988 182.802 145.633 184.256 146.645Z" fill="#F3CEBD"/>
<path d="M178.393 144.391C178.393 144.391 180.222 144.93 180.598 148.295C180.957 151.66 179.569 157.229 178.393 159.5C177.217 161.77 177.87 162.636 177.364 163.142C176.841 163.665 176.841 163.616 176.841 166.18C176.841 168.744 176.841 175.719 176.841 175.719L179.634 177.009C179.634 177.009 180.239 176.633 180.81 177.205C181.382 177.793 182.199 177.858 182.199 178.544C182.199 179.247 179.928 179.1 179.52 179.1C179.128 179.1 178.017 178.087 176.335 178.087C174.653 178.087 174.179 178.593 173.901 177.711C173.624 176.813 174.326 176.013 173.901 174.33C173.477 172.632 171.647 168.009 172.219 166.621C172.807 165.233 173.428 163.044 173.428 161.754C173.428 160.463 172.987 158.111 173.313 155.906C173.624 153.701 174.506 143.722 178.393 144.391Z" fill="#F3CEBD"/>
<path d="M174.995 157.997C174.848 157.964 174.718 157.948 174.587 157.948C174.407 157.376 173.917 156.935 173.101 156.935C172.905 156.935 172.725 156.968 172.562 157.017C172.545 152.427 174.995 142.644 177.217 142.987C177.217 142.987 180.826 143.493 180.826 149.014C180.826 151.513 180.287 153.848 179.699 155.776C178.703 157.409 176.923 158.389 174.995 157.997Z" fill="#CE2932"/>
<path d="M170.977 167.862C170.977 167.862 169.441 169.12 168.919 170.296C168.412 171.456 166.207 179.916 166.795 181.272C167.383 182.611 169.507 185.617 169.507 186.499C169.507 187.381 169.768 187.462 167.873 187.087C165.995 186.727 165.913 186.646 165.619 185.845C165.325 185.045 164.296 182.432 164.296 182.432L164.149 180.178C164.149 180.178 164.672 179.459 164.672 178.806C164.672 178.136 164.182 171.929 164.623 170.541C165.064 169.153 166.681 166.082 166.681 166.082C166.681 166.082 167.922 152.117 168.265 150.761C169.066 147.593 170.748 146.956 170.748 146.956L175.86 146.466C175.86 146.466 176.35 152.313 175.583 154.436C174.815 156.576 171.646 167.209 170.977 167.862Z" fill="#F3CEBD"/>
<path d="M175.272 157.703C174.227 158.16 173.198 158.683 172.153 158.993C170.585 158.83 169.098 158.373 168.053 157.148C167.612 156.609 167.171 156.102 166.697 155.645C166.942 149.912 168.559 143.313 175.044 144.44C175.044 144.44 177.363 145.665 176.285 153.064C176.04 154.681 175.681 156.233 175.272 157.703Z" fill="#CE2932"/>
<path d="M168.886 130.198C168.853 130.23 167.171 132.125 168.233 135.163C169.327 138.299 169.931 139.9 170.258 142.088C170.585 144.293 170.078 145.045 170.536 145.861C171.189 147.037 173.378 147.446 175.86 146.466C178.327 145.469 179.503 144.849 179.503 144.849L179.405 143.362C179.405 143.362 181.234 139.426 180.842 136.96C180.483 134.64 178.964 133.513 178.686 132.354C178.408 131.194 179.323 129.659 178.131 128.466C178.131 128.466 174.113 123.958 168.886 130.198Z" fill="#CE2932"/>
<path d="M176.515 128.042C176.515 128.042 175.486 128.94 175.486 129.659C175.486 130.377 176.204 130.688 176.008 130.982C175.257 132.109 171.843 129.12 171.402 128.434C170.961 127.748 172.186 127.682 172.186 126.392C172.186 125.085 172.415 123.893 172.415 123.893L176.515 128.042Z" fill="#F5A776"/>
<path d="M173.689 124.367C173.689 124.35 173.346 123.648 173.035 123.877C172.725 124.105 172.513 124.514 172.627 125.085C172.741 125.657 173.035 126.343 173.427 126.343C173.803 126.327 173.934 126.376 174.13 126.082C174.342 125.771 174.211 125.428 174.211 125.428L173.689 124.367Z" fill="#F3C6B8"/>
<path d="M173.851 124.416C173.835 124.399 173.508 123.713 173.198 123.926C172.871 124.154 172.675 124.563 172.79 125.134C172.888 125.706 173.198 126.392 173.574 126.392C173.966 126.376 174.08 126.425 174.292 126.131C174.505 125.82 174.374 125.477 174.374 125.477L173.851 124.416Z" fill="#F3C6B8"/>
<path d="M173.542 124.595C173.542 124.595 173.427 124.938 173.395 125.085C173.346 125.232 173.297 125.477 173.378 125.592C173.46 125.706 173.542 125.788 173.542 125.788C173.542 125.788 173.509 125.2 173.558 124.971C173.607 124.742 173.623 124.546 173.525 124.383C173.411 124.203 173.329 123.991 173.182 124.203C173.036 124.399 172.905 124.612 172.954 124.971C172.987 125.33 173.117 125.706 173.28 125.869C173.444 126.033 173.672 126.098 173.672 126.098C173.672 126.098 173.231 125.918 173.134 125.51C173.052 125.102 173.003 124.481 173.117 124.367C173.248 124.252 173.264 124.236 173.28 124.383C173.297 124.53 173.215 124.775 173.313 124.693C173.427 124.612 173.427 124.399 173.509 124.481L173.542 124.595Z" fill="#F3C6B8"/>
<path d="M173.639 125.281L173.77 124.955C173.835 124.955 173.852 124.955 173.901 125.069C173.95 125.183 173.95 125.232 174.048 125.2C174.162 125.167 174.228 125.069 174.146 125.216C174.048 125.379 174.032 125.216 173.868 125.314C173.721 125.428 173.77 125.575 173.672 125.575C173.574 125.592 173.623 125.363 173.656 125.298L173.639 125.281Z" fill="#F3C6B8"/>
<path d="M176.04 118.438C176.203 118.47 179.062 119.254 179.78 121.018C180.499 122.782 179.78 123.713 179.78 124.203C179.78 124.71 180.107 124.595 180.107 125.363C180.107 126.131 179.568 126.588 179.568 126.996C179.568 127.405 178.964 127.715 178.964 128.499C178.964 129.267 178.016 129.365 177.134 129.12C176.269 128.891 172.79 126.31 172.022 124.481C171.254 122.668 171.026 117.507 176.04 118.438Z" fill="#F3CEBD"/>
<path d="M178.801 176.633C178.801 176.633 179.47 177.074 178.964 177.581C178.458 178.087 176.024 177.434 174.897 177.009C173.786 176.584 174.031 175.523 174.031 175.523C174.031 175.523 173.688 176.535 173.688 177.172C173.688 177.826 173.737 178.169 174.178 178.43C174.636 178.691 176.302 178.25 176.726 178.43C177.151 178.61 178.801 179.802 180.009 179.622C181.234 179.443 182.655 178.642 182.655 178.642C182.655 178.642 180.891 176.813 180.14 176.813C179.389 176.813 178.801 176.633 178.801 176.633Z" fill="#BDA8FD"/>
<path d="M167.923 183.297C167.923 183.297 168.92 184.441 167.923 184.767C166.927 185.11 165.816 184.065 165.326 183.232C164.836 182.399 164.428 179.704 164.428 179.704C164.428 179.704 164.314 179.867 164.15 180.374C164.003 180.864 164.15 181.648 164.15 181.648C164.15 181.648 164.493 184.669 165.49 185.976C166.486 187.299 169.344 187.691 169.344 187.691C169.344 187.691 170.226 187.201 169.785 185.976C169.344 184.767 167.923 183.297 167.923 183.297Z" fill="#BDA8FD"/>
<path d="M179.666 120.332C179.666 120.332 176.955 120.692 175.86 121.819C172.626 125.085 175.664 133.448 175.011 133.448C174.668 133.448 170.323 129.969 169.768 127.339C169.229 124.873 170.242 120.773 171.401 119.597C173.835 117.18 176.579 117.621 179.666 120.332Z" fill="#333333"/>
<path d="M178.31 120.087C178.31 120.087 178.964 120.79 177.494 121.917C176.007 123.06 174.864 123.06 175.272 124.448C175.681 125.853 175.681 125.853 175.681 125.853C175.681 125.853 174.292 124.465 174.619 123.338C174.946 122.227 176.416 119.842 178.31 120.087Z" fill="#333333"/>
<path d="M178.638 120.251C178.638 120.251 180.336 119.973 180.336 120.724C180.336 121.492 180.108 122.472 180.108 122.472C180.108 122.472 180.222 120.969 179.487 120.969C178.768 120.969 178.638 120.251 178.638 120.251Z" fill="#333333"/>
<path d="M161.34 155.318C161.291 155.384 161.732 156.837 161.617 157.164C161.503 157.491 162.124 157.523 162.124 157.523C162.124 157.523 162.042 157.703 162.156 157.981C162.271 158.242 162.744 158.16 162.744 158.16C162.744 158.16 162.891 158.618 163.038 158.83C163.185 159.059 163.283 159.01 163.381 159.189C163.463 159.353 163.92 159.091 164.329 159.173C164.753 159.255 165.652 158.438 165.652 158.438C165.652 158.438 165.684 158.242 165.554 157.997C165.407 157.736 164.508 158.324 164.508 158.324L164.149 157.654L164.263 155.612L164.737 156.478L164.312 157.768L164.917 158.242C164.917 158.242 165.815 156.658 165.864 156.315C165.897 155.955 166.142 151.758 166.142 151.758L164.133 150.876C164.133 150.876 163.937 151.888 163.561 152.427C162.891 153.375 161.405 155.269 161.34 155.318Z" fill="#F3CEBD"/>
<path d="M170.34 130.1C170.34 130.1 171.598 130.23 171.761 131.619C171.925 133.023 172.202 133.268 171.059 134.412C169.916 135.555 169.769 140.994 169.769 140.994L169.083 143.362C169.083 143.362 166.42 151.758 166.094 152.574C165.783 153.375 163.954 151.66 163.954 151.66C163.954 151.66 164.771 143.542 164.771 141.598C164.771 139.671 166.224 128.891 170.34 130.1Z" fill="#CE2932"/>
<path d="M161.782 153.195C161.896 153.081 162.843 152.983 163.121 153.015C163.399 153.064 164.591 154.028 164.248 154.208C163.921 154.404 162.451 153.897 162.451 153.897C162.451 153.897 161.994 155.008 161.684 154.747C161.39 154.469 161.782 153.195 161.782 153.195Z" fill="#F5A776"/>
<path d="M140.189 166.654L138.621 165.282C138.572 165.216 137.477 165.135 137.232 165.053C137.004 164.971 136.514 165.739 137.559 166.082C138.588 166.425 139.666 167.699 139.715 167.895C139.748 168.091 140.613 168.173 140.189 166.654Z" fill="#F5A776"/>
</svg>
