<svg width="500" height="500" viewBox="0 0 500 500" fill="none" xmlns="http://www.w3.org/2000/svg">
<path d="M500 382.4H0V382.65H500V382.4Z" fill="#E6E6E6"/>
<path d="M78.2204 393.56H51.6504V393.81H78.2204V393.56Z" fill="#E6E6E6"/>
<path d="M87.8297 388.56H64.9297V388.81H87.8297V388.56Z" fill="#E6E6E6"/>
<path d="M325.41 389.3H263.96V389.55H325.41V389.3Z" fill="#E6E6E6"/>
<path d="M345.91 389.3H331.17V389.55H345.91V389.3Z" fill="#E6E6E6"/>
<path d="M429.72 391.01H381.06V391.26H429.72V391.01Z" fill="#E6E6E6"/>
<path d="M193.17 395H106.54V395.25H193.17V395Z" fill="#E6E6E6"/>
<path d="M445.59 391.01H438.5V391.26H445.59V391.01Z" fill="#E6E6E6"/>
<path d="M237 337.8H43.91C42.3973 337.797 40.9475 337.195 39.8788 336.124C38.8102 335.053 38.21 333.603 38.21 332.09V60.66C38.2231 59.156 38.8292 57.718 39.8964 56.6582C40.9637 55.5985 42.4059 55.0026 43.91 55H237C238.514 55 239.967 55.6016 241.038 56.6724C242.108 57.7433 242.71 59.1956 242.71 60.71V332.09C242.71 333.604 242.108 335.057 241.038 336.128C239.967 337.198 238.514 337.8 237 337.8ZM43.91 55.2C42.4636 55.2026 41.0774 55.7791 40.0556 56.8027C39.0338 57.8264 38.46 59.2136 38.46 60.66V332.09C38.46 333.536 39.0338 334.924 40.0556 335.947C41.0774 336.971 42.4636 337.547 43.91 337.55H237C238.447 337.547 239.834 336.971 240.858 335.948C241.881 334.924 242.457 333.537 242.46 332.09V60.66C242.457 59.2127 241.881 57.8255 240.858 56.8021C239.834 55.7787 238.447 55.2026 237 55.2H43.91Z" fill="#E6E6E6"/>
<path d="M453.31 337.8H260.21C258.696 337.797 257.246 337.195 256.175 336.125C255.105 335.054 254.503 333.604 254.5 332.09V60.66C254.516 59.1551 255.124 57.7171 256.193 56.6576C257.262 55.5981 258.705 55.0025 260.21 55H453.31C454.812 55.0052 456.252 55.6022 457.317 56.6617C458.382 57.7212 458.987 59.1578 459 60.66V332.09C459 333.601 458.401 335.05 457.335 336.121C456.268 337.191 454.821 337.795 453.31 337.8ZM260.21 55.2C258.763 55.2026 257.375 55.7787 256.352 56.8021C255.329 57.8255 254.753 59.2127 254.75 60.66V332.09C254.753 333.537 255.329 334.924 256.352 335.948C257.375 336.971 258.763 337.547 260.21 337.55H453.31C454.757 337.547 456.145 336.971 457.168 335.948C458.191 334.924 458.767 333.537 458.77 332.09V60.66C458.767 59.2127 458.191 57.8255 457.168 56.8021C456.145 55.7787 454.757 55.2026 453.31 55.2H260.21Z" fill="#E6E6E6"/>
<path d="M153.429 210.422C156.212 198.346 148.679 186.299 136.602 183.516C124.526 180.732 112.479 188.265 109.696 200.342C106.912 212.418 114.445 224.465 126.522 227.249C138.599 230.032 150.645 222.499 153.429 210.422Z" fill="#F0F0F0"/>
<path d="M284.58 200.74C281.79 194.74 284.01 190.39 290.85 190.39C295.13 190.39 300.45 192.09 305.63 194.84C306.22 193.27 307.86 192.33 310.51 192.33C315.18 192.33 321.61 195.24 326.65 199.33C328.205 198.289 330.039 197.742 331.91 197.76C336.38 197.58 341.78 199.25 346.48 201.97C346.756 201.709 347.081 201.505 347.436 201.371C347.792 201.237 348.17 201.176 348.55 201.19C350.04 201.24 351.502 201.601 352.844 202.251C354.186 202.9 355.376 203.823 356.34 204.96C356.45 205.09 356.54 205.23 356.64 205.36H281.11C278.72 203.23 281.36 200.85 284.58 200.74Z" fill="#F5F5F5"/>
<path d="M137.44 247.17L199.32 233V382.4H137.44V247.17Z" fill="#FAFAFA"/>
<path d="M231.43 233H199.32V382.4H231.43V233Z" fill="#EBEBEB"/>
<path d="M220.94 382.4H273.61V197.27H220.94L220.94 382.4Z" fill="#FAFAFA"/>
<path d="M300.94 197.27H273.61V382.4H300.94V197.27Z" fill="#EBEBEB"/>
<path d="M228.03 197.27H273.61V183.51H228.03V197.27Z" fill="#FAFAFA"/>
<path d="M228.03 197.27H273.61V194.18H228.03V197.27Z" fill="#EBEBEB"/>
<path d="M293.86 183.51H273.61V197.27H293.86V183.51Z" fill="#EBEBEB"/>
<path d="M235.11 183.51H273.6V169.75H235.11V183.51Z" fill="#FAFAFA"/>
<path d="M235.11 183.51H273.6V180.42H235.11V183.51Z" fill="#EBEBEB"/>
<path d="M286.77 169.76H273.61V183.52H286.77V169.76Z" fill="#EBEBEB"/>
<path d="M262.22 150.54H259.66V169.76H262.22V150.54Z" fill="#EBEBEB"/>
<path d="M292.21 382.4H330.67V221.33H292.21V382.4Z" fill="#FAFAFA"/>
<path d="M350.64 221.33H330.68V382.4H350.64V221.33Z" fill="#EBEBEB"/>
<path d="M340.66 254L369.82 279V382.4H340.66V254Z" fill="#FAFAFA"/>
<path d="M384.96 279H369.82V382.4H384.96V279Z" fill="#EBEBEB"/>
<path d="M384.96 279H369.82L340.66 254H355.79L384.96 279Z" fill="#EBEBEB"/>
<path d="M439.9 382.4C440.329 379.998 441.35 377.741 442.871 375.832C444.392 373.924 446.365 372.425 448.61 371.47C446.639 374.758 445.744 378.579 446.05 382.4H439.9Z" fill="#EBEBEB"/>
<path d="M186.3 382.4C185.871 379.998 184.85 377.741 183.329 375.832C181.808 373.924 179.836 372.425 177.59 371.47C179.561 374.758 180.457 378.579 180.15 382.4H186.3Z" fill="#EBEBEB"/>
<path d="M58.8703 382.4C58.8703 382.4 58.3803 369.6 53.0303 365.88C55.2203 371.11 54.7503 382.4 54.7503 382.4H58.8703Z" fill="#EBEBEB"/>
<path d="M56.8604 382.4C56.8604 382.4 57.3604 375.05 62.7104 372.92C60.5103 375.92 60.9904 382.4 60.9904 382.4H56.8604Z" fill="#EBEBEB"/>
<path d="M190.88 382.4C190.88 382.4 190.34 370.28 180.64 365.88C184.98 372.1 184.73 382.4 184.73 382.4H190.88Z" fill="#EBEBEB"/>
<path d="M93.6797 300.81L100.74 350.61L101.44 355.59H105.97L105.26 350.61L98.1997 300.81H93.6797Z" fill="#E0E0E0"/>
<path d="M287.67 300.81L294.73 350.61L295.43 355.59H299.96L299.25 350.61L292.19 300.81H287.67Z" fill="#E0E0E0"/>
<path d="M122.67 350.61L123.38 355.59L127.19 382.44H131.72L127.91 355.59L127.21 350.61H122.67Z" fill="#E6E6E6"/>
<path d="M316.67 350.61L317.38 355.59L321.18 382.44H325.7L321.9 355.59L321.2 350.61H316.67Z" fill="#E6E6E6"/>
<path d="M293.81 350.61L293.1 355.59L289.29 382.44H284.76L288.57 355.59L289.27 350.61H293.81Z" fill="#E6E6E6"/>
<path d="M99.8103 350.61L99.1003 355.59L95.3003 382.44H90.7803L94.5803 355.59L95.2903 350.61H99.8103Z" fill="#E6E6E6"/>
<path d="M87.1703 307.74H294.5L290.65 293.87H83.3203L87.1703 307.74Z" fill="#F5F5F5"/>
<path d="M91.8998 307.74H299.24L295.39 293.87H88.0498L91.8998 307.74Z" fill="#E6E6E6"/>
<path d="M90.0602 325.03H297.39L293.54 311.17H86.2002L90.0602 325.03Z" fill="#F5F5F5"/>
<path d="M94.7904 325.03H302.12L298.27 311.17H90.9404L94.7904 325.03Z" fill="#E6E6E6"/>
<path d="M92.9398 342.35H300.28L296.43 328.49H89.0898L92.9398 342.35Z" fill="#F5F5F5"/>
<path d="M97.6801 342.35H305.01L301.16 328.49H93.8301L97.6801 342.35Z" fill="#E6E6E6"/>
<path d="M323.88 350.61H117.46V355.59H323.88V350.61Z" fill="#E6E6E6"/>
<path d="M117.46 350.61H89.0898V355.59H117.46V350.61Z" fill="#F5F5F5"/>
<path d="M73.4999 147.47C69.6299 139.11 72.7099 133.16 82.1699 133.16C88.0999 133.16 95.4499 135.5 102.62 139.31C103.43 137.14 105.71 135.84 109.37 135.84C115.83 135.84 124.72 139.84 131.7 145.55C133.848 144.109 136.383 143.352 138.97 143.38C145.15 143.12 152.63 145.44 159.13 149.2C159.903 148.476 160.931 148.087 161.99 148.12C165.55 147.97 170.37 150.31 172.76 153.33C172.91 153.52 173.04 153.7 173.17 153.89H68.6999C65.3999 150.92 69.0499 147.62 73.4999 147.47Z" fill="#F5F5F5"/>
<path d="M347.91 164.71C348.173 164.695 348.437 164.695 348.7 164.71C348.46 161.98 349.87 160.23 352.9 160.23C355.593 160.412 358.199 161.254 360.49 162.68C359.71 157.38 362.22 153.93 367.88 153.93C372.45 153.93 378.24 156.17 383.96 159.83C384.46 157.75 386.14 156.5 388.96 156.5C393.96 156.5 400.96 160.36 406.66 165.8C408.158 164.439 410.116 163.695 412.14 163.72C416.87 163.47 422.75 165.72 427.96 169.3C428.211 168.972 428.537 168.709 428.912 168.535C429.286 168.361 429.697 168.28 430.11 168.3C432.7 168.17 436.26 170.16 438.34 172.82H343.75C341.52 168.7 343.29 165.17 347.91 164.71Z" fill="#F5F5F5"/>
<path d="M188.78 104.23C189.04 104.215 189.3 104.215 189.56 104.23C189.32 101.49 190.74 99.7499 193.76 99.7499C196.456 99.9304 199.066 100.772 201.36 102.2C200.58 96.8899 203.08 93.4399 208.74 93.4399C213.32 93.4399 219.1 95.6899 224.82 99.3499C225.32 97.2699 227 96.0199 229.82 96.0199C234.82 96.0199 241.82 99.8699 247.52 105.32C249.021 103.962 250.976 103.217 253 103.23C257.73 102.99 263.61 105.23 268.82 108.81C269.071 108.482 269.398 108.22 269.772 108.046C270.146 107.872 270.557 107.791 270.97 107.81C273.56 107.67 277.13 109.66 279.2 112.33H184.61C182.39 108.22 184.16 104.69 188.78 104.23Z" fill="#F5F5F5"/>
<path d="M424.77 365.1L407 347.33H393.16L408.52 362.69H404.3V382.4H420.55V365.1H424.77Z" fill="#EBEBEB"/>
<path d="M410.93 365.1L393.16 347.33L375.39 365.1H382.02V382.4H404.3V365.1H410.93Z" fill="#FAFAFA"/>
<path d="M250 427.56C357.083 427.56 443.89 422.492 443.89 416.24C443.89 409.988 357.083 404.92 250 404.92C142.918 404.92 56.1104 409.988 56.1104 416.24C56.1104 422.492 142.918 427.56 250 427.56Z" fill="#F5F5F5"/>
<path d="M401.16 107.72L374.51 81.0698H353.75L376.79 104.11H370.45V133.66H394.82V107.72H401.16Z" fill="#3CB7C6"/>
<path opacity="0.4" d="M401.16 107.72L374.51 81.0698H353.75L376.79 104.11H370.45V133.66H394.82V107.72H401.16Z" fill="white"/>
<path d="M380.401 107.72L353.751 81.0698L327.101 107.72H337.051V133.66H370.451V107.72H380.401Z" fill="#3CB7C6"/>
<path opacity="0.7" d="M380.401 107.72L353.751 81.0698L327.101 107.72H337.051V133.66H370.451V107.72H380.401Z" fill="white"/>
<path d="M418.32 214.1L391.67 187.44H370.91L393.95 210.48H387.61V240.03H411.98V214.1H418.32Z" fill="#3CB7C6"/>
<path opacity="0.4" d="M418.32 214.1L391.67 187.44H370.91L393.95 210.48H387.61V240.03H411.98V214.1H418.32Z" fill="white"/>
<path d="M397.561 214.1L370.911 187.44L344.261 214.1H354.201V240.03H387.611V214.1H397.561Z" fill="#3CB7C6"/>
<path opacity="0.7" d="M397.561 214.1L370.911 187.44L344.261 214.1H354.201V240.03H387.611V214.1H397.561Z" fill="white"/>
<path d="M298.381 241.81L271.721 215.16H250.971L274.011 238.19H267.671V267.75H292.041V241.81H298.381Z" fill="#3CB7C6"/>
<path opacity="0.4" d="M298.381 241.81L271.721 215.16H250.971L274.011 238.19H267.671V267.75H292.041V241.81H298.381Z" fill="white"/>
<path d="M277.62 241.81L250.97 215.16L224.32 241.81H234.26V267.74H267.67V241.81H277.62Z" fill="#3CB7C6"/>
<path opacity="0.7" d="M277.62 241.81L250.97 215.16L224.32 241.81H234.26V267.74H267.67V241.81H277.62Z" fill="white"/>
<path d="M296.79 152.26H282.45L280.4 150.22L263.75 119.22L296.79 152.26Z" fill="#2F54C6"/>
<path d="M282.4 182.37H312.61V145.73H282.4V182.37Z" fill="#3CB7C6"/>
<path opacity="0.3" d="M282.4 182.37H312.61V145.73H282.4V182.37Z" fill="black"/>
<path d="M294.74 150.22H320.48L287.43 117.17H261.7L294.74 150.22Z" fill="#3CB7C6"/>
<path opacity="0.3" d="M294.74 150.22H320.48L287.43 117.17H261.7L294.74 150.22Z" fill="black"/>
<path d="M282.4 140.95V182.37H240.99V140.95L261.7 120.84L261.91 121.05L263.75 122.83L282.4 140.95Z" fill="#3CB7C6"/>
<path opacity="0.3" d="M263.75 119.22V133.56L245.04 152.26H240.99V141.98L261.91 121.05L263.75 119.22Z" fill="black"/>
<path d="M294.74 150.22H280.4L261.7 131.51V117.17L294.74 150.22Z" fill="#3CB7C6"/>
<path d="M228.65 150.22H242.99L261.7 131.51V117.17L228.65 150.22Z" fill="#3CB7C6"/>
<path d="M224 192.38C215.47 199.3 206.67 205.81 197.82 212.21C188.97 218.61 180 224.83 171 231C162 237.17 152.85 243.11 143.66 249C139.09 252 134.45 254.84 129.84 257.76C127.567 259.327 125.054 260.516 122.4 261.28C120.962 261.668 119.488 261.909 118 262C116.329 262.138 114.647 262.048 113 261.73C111.711 261.468 110.487 260.954 109.396 260.217C108.306 259.481 107.372 258.537 106.648 257.439C105.923 256.341 105.422 255.111 105.174 253.819C104.926 252.527 104.935 251.199 105.2 249.91C105.2 249.76 105.27 249.57 105.31 249.41C105.759 247.791 106.432 246.243 107.31 244.81C108.049 243.535 108.917 242.338 109.9 241.24C111.753 239.192 113.924 237.456 116.33 236.1C120.98 233.24 125.59 230.33 130.26 227.53C139.57 221.84 148.97 216.31 158.42 210.85C167.87 205.39 177.42 200.1 187.05 194.94C196.68 189.78 206.39 184.75 216.35 180.11C217.957 179.413 219.761 179.317 221.433 179.838C223.106 180.359 224.535 181.463 225.462 182.949C226.388 184.436 226.751 186.205 226.482 187.936C226.214 189.667 225.333 191.244 224 192.38Z" fill="#3CB7C6"/>
<path d="M224 192.38C215.47 199.3 206.67 205.81 197.82 212.21C188.97 218.61 180 224.83 171 231C162 237.17 152.85 243.11 143.66 249C139.09 252 134.45 254.84 129.84 257.76C127.567 259.327 125.054 260.516 122.4 261.28C120.962 261.668 119.488 261.909 118 262C116.329 262.138 114.647 262.048 113 261.73C111.711 261.468 110.487 260.954 109.396 260.217C108.306 259.481 107.372 258.537 106.648 257.439C105.923 256.341 105.422 255.111 105.174 253.819C104.926 252.527 104.935 251.199 105.2 249.91C105.2 249.76 105.27 249.57 105.31 249.41C105.759 247.791 106.432 246.243 107.31 244.81C108.049 243.535 108.917 242.338 109.9 241.24C111.753 239.192 113.924 237.456 116.33 236.1C120.98 233.24 125.59 230.33 130.26 227.53C139.57 221.84 148.97 216.31 158.42 210.85C167.87 205.39 177.42 200.1 187.05 194.94C196.68 189.78 206.39 184.75 216.35 180.11C217.957 179.413 219.761 179.317 221.433 179.838C223.106 180.359 224.535 181.463 225.462 182.949C226.388 184.436 226.751 186.205 226.482 187.936C226.214 189.667 225.333 191.244 224 192.38Z" fill="#3CB7C6"/>
<path opacity="0.5" d="M224 192.38C215.47 199.3 206.67 205.81 197.82 212.21C188.97 218.61 180 224.83 171 231C162 237.17 152.85 243.11 143.66 249C139.09 252 134.45 254.84 129.84 257.76C127.567 259.327 125.054 260.516 122.4 261.28C120.962 261.668 119.488 261.909 118 262C116.329 262.138 114.647 262.048 113 261.73C111.711 261.468 110.487 260.954 109.396 260.217C108.306 259.481 107.372 258.537 106.648 257.439C105.923 256.341 105.422 255.111 105.174 253.819C104.926 252.527 104.935 251.199 105.2 249.91C105.2 249.76 105.27 249.57 105.31 249.41C105.759 247.791 106.432 246.243 107.31 244.81C108.049 243.535 108.917 242.338 109.9 241.24C111.753 239.192 113.924 237.456 116.33 236.1C120.98 233.24 125.59 230.33 130.26 227.53C139.57 221.84 148.97 216.31 158.42 210.85C167.87 205.39 177.42 200.1 187.05 194.94C196.68 189.78 206.39 184.75 216.35 180.11C217.957 179.413 219.761 179.317 221.433 179.838C223.106 180.359 224.535 181.463 225.462 182.949C226.388 184.436 226.751 186.205 226.482 187.936C226.214 189.667 225.333 191.244 224 192.38Z" fill="white"/>
<path d="M187.1 407.63L195.26 405.74L191.44 386.71L183.28 388.6L187.1 407.63Z" fill="#EBB376"/>
<path d="M132.081 180.23C130.951 184.23 129.861 188.44 128.821 192.56C127.781 196.68 126.821 200.86 126.021 205.02C125.581 207.09 125.201 209.21 124.871 211.16C124.541 213.11 124.351 215.16 124.231 217.21C124.126 219.249 124.126 221.292 124.231 223.33C124.231 224.33 124.361 225.33 124.461 226.39C124.561 227.45 124.741 228.46 124.881 229.33L120.881 230.84C120.356 229.766 119.905 228.656 119.531 227.52C119.139 226.428 118.806 225.317 118.531 224.19C117.983 221.942 117.609 219.655 117.411 217.35C117.225 215.022 117.192 212.683 117.311 210.35C117.471 207.99 117.751 205.82 118.061 203.62C118.691 199.23 119.501 194.88 120.461 190.62C121.421 186.36 122.461 182.07 123.811 177.76L132.081 180.23Z" fill="#EBB376"/>
<path d="M120.311 181.61L128.721 188.31L133.771 192.31C133.771 192.31 134.301 190.9 134.941 188.88C136.161 184.98 137.751 178.8 136.651 175.96C134.921 171.46 131.651 167.4 127.511 168.3C124.001 169.09 120.311 181.61 120.311 181.61Z" fill="#263238"/>
<path d="M131.93 407.69H140.301L139.65 388.29H131.271L131.93 407.69Z" fill="#EBB376"/>
<path d="M191.441 386.72L193.491 396.91L185.251 398.41L183.271 388.61L191.441 386.72Z" fill="#DA9D62"/>
<path d="M131.271 388.29H139.65L139.98 398.29H131.601L131.271 388.29Z" fill="#DA9D62"/>
<path d="M158.57 219.12C158.57 219.12 153.71 276.61 148.67 309.01C144.6 335.18 141.38 396.36 141.38 396.36H130C130 396.36 124.56 337.28 126.63 311.36C131.86 245.87 122.63 234.27 133.58 219.09L158.57 219.12Z" fill="#3CB7C6"/>
<path opacity="0.6" d="M158.57 219.12C158.57 219.12 153.71 276.61 148.67 309.01C144.6 335.18 141.38 396.36 141.38 396.36H130C130 396.36 124.56 337.28 126.63 311.36C131.86 245.87 122.63 234.27 133.58 219.09L158.57 219.12Z" fill="black"/>
<path d="M121.43 230.19L116.49 233.55L117.19 236.42C117.19 236.42 127.48 231.08 124.73 228.94L121.43 230.19Z" fill="#EBB376"/>
<path d="M143.83 408.18C143.085 408.162 142.344 408.061 141.62 407.88C141.583 407.869 141.55 407.848 141.524 407.82C141.498 407.792 141.479 407.758 141.47 407.72C141.464 407.682 141.469 407.642 141.485 407.607C141.501 407.571 141.527 407.541 141.56 407.52C141.85 407.33 144.38 405.69 145.36 406.13C145.471 406.179 145.567 406.256 145.638 406.355C145.708 406.454 145.75 406.57 145.76 406.69C145.799 406.879 145.789 407.074 145.732 407.258C145.674 407.442 145.57 407.608 145.43 407.74C144.967 408.074 144.399 408.23 143.83 408.18ZM142.18 407.59C143.64 407.89 144.74 407.83 145.18 407.45C145.272 407.359 145.339 407.246 145.376 407.122C145.413 406.998 145.418 406.867 145.39 406.74C145.387 406.687 145.369 406.636 145.339 406.592C145.309 406.548 145.268 406.513 145.22 406.49C144.69 406.26 143.22 407 142.18 407.59Z" fill="#3CB7C6"/>
<path d="M141.671 407.88C141.638 407.891 141.603 407.891 141.571 407.88C141.541 407.862 141.517 407.838 141.499 407.808C141.482 407.778 141.472 407.745 141.471 407.71C141.471 407.6 141.471 405.19 142.391 404.38C142.502 404.276 142.635 404.198 142.781 404.153C142.926 404.108 143.08 404.097 143.231 404.12C143.388 404.122 143.541 404.177 143.663 404.277C143.785 404.377 143.869 404.516 143.901 404.67C144.091 405.67 142.561 407.43 141.771 407.88C141.738 407.89 141.703 407.89 141.671 407.88ZM143.091 404.49C142.929 404.494 142.773 404.555 142.651 404.66C142.126 405.439 141.857 406.362 141.881 407.3C142.671 406.66 143.631 405.3 143.511 404.73C143.511 404.64 143.441 404.52 143.181 404.49H143.091Z" fill="#3CB7C6"/>
<path d="M196.001 404.48C195.963 404.478 195.927 404.466 195.896 404.445C195.865 404.425 195.84 404.396 195.824 404.362C195.807 404.329 195.8 404.291 195.803 404.254C195.806 404.217 195.819 404.181 195.841 404.15C196.111 403.83 198.441 401.09 199.631 401.09H199.711C199.819 401.098 199.924 401.134 200.013 401.196C200.103 401.257 200.175 401.342 200.221 401.44C200.301 401.595 200.343 401.766 200.343 401.94C200.343 402.114 200.301 402.286 200.221 402.44C199.701 403.54 197.351 404.16 195.991 404.44L196.001 404.48ZM199.621 401.48C198.971 401.48 197.531 402.84 196.541 403.95C198.371 403.52 199.611 402.95 199.901 402.3C199.959 402.198 199.99 402.083 199.99 401.965C199.99 401.848 199.959 401.732 199.901 401.63C199.883 401.59 199.856 401.555 199.821 401.529C199.786 401.502 199.744 401.486 199.701 401.48H199.621Z" fill="#3CB7C6"/>
<path d="M196.001 404.48C195.967 404.475 195.936 404.46 195.911 404.437C195.886 404.413 195.868 404.383 195.861 404.35C195.861 404.26 195.141 402.1 195.781 400.89C195.869 400.713 195.992 400.556 196.144 400.428C196.295 400.301 196.471 400.206 196.661 400.15C197.191 399.99 197.451 400.15 197.561 400.38C198.071 401.2 196.941 403.62 196.191 404.38C196.171 404.412 196.143 404.439 196.109 404.456C196.076 404.474 196.038 404.482 196.001 404.48ZM197.001 400.48C196.925 400.468 196.847 400.468 196.771 400.48C196.631 400.52 196.501 400.589 196.389 400.682C196.277 400.775 196.186 400.89 196.121 401.02C195.83 401.931 195.83 402.909 196.121 403.82C196.831 402.82 197.521 401.03 197.221 400.54C197.188 400.5 197.142 400.472 197.091 400.461C197.04 400.45 196.987 400.457 196.941 400.48H197.001Z" fill="#3CB7C6"/>
<path d="M142.4 148.07C143.4 153.07 145.4 163.07 141.95 166.42C141.95 166.42 143.31 171.42 152.55 171.42C162.7 171.42 157.4 166.42 157.4 166.42C151.86 165.1 152 160.99 152.97 157.12L142.4 148.07Z" fill="#EBB376"/>
<path d="M162.58 137.41C162.498 137.412 162.417 137.387 162.35 137.34C162.307 137.309 162.271 137.27 162.243 137.226C162.216 137.181 162.197 137.131 162.189 137.079C162.18 137.027 162.182 136.974 162.195 136.922C162.207 136.871 162.229 136.823 162.26 136.78C162.621 136.266 163.098 135.845 163.652 135.549C164.206 135.254 164.822 135.093 165.45 135.08C165.544 135.095 165.63 135.143 165.691 135.215C165.753 135.288 165.787 135.38 165.787 135.475C165.787 135.57 165.753 135.662 165.691 135.735C165.63 135.807 165.544 135.855 165.45 135.87C164.951 135.884 164.462 136.016 164.024 136.256C163.585 136.496 163.211 136.837 162.93 137.25C162.891 137.305 162.838 137.348 162.776 137.376C162.715 137.404 162.647 137.416 162.58 137.41Z" fill="#263238"/>
<path d="M164.8 142.18C165.339 143.747 166.093 145.231 167.04 146.59C166.685 146.821 166.283 146.972 165.864 147.032C165.444 147.092 165.017 147.061 164.61 146.94L164.8 142.18Z" fill="#DE5753"/>
<path d="M164.24 141C164.24 141.68 164.55 142.24 164.99 142.25C165.43 142.26 165.81 141.74 165.84 141.06C165.87 140.38 165.53 139.83 165.09 139.81C164.65 139.79 164.27 140.33 164.24 141Z" fill="#263238"/>
<path d="M164.891 139.84L166.531 139.44C166.531 139.44 165.651 140.67 164.891 139.84Z" fill="#263238"/>
<path d="M141 406.72H131.59C131.428 406.714 131.269 406.769 131.144 406.875C131.02 406.98 130.94 407.129 130.92 407.29L129.85 414.73C129.828 414.919 129.845 415.11 129.903 415.291C129.96 415.472 130.055 415.639 130.182 415.78C130.309 415.921 130.465 416.033 130.638 416.109C130.812 416.185 131.001 416.223 131.19 416.22C134.47 416.17 136.05 415.97 140.19 415.97C142.74 415.97 146.45 416.24 149.97 416.24C153.49 416.24 153.67 412.76 152.21 412.45C145.65 411.03 144.61 409.09 142.4 407.23C142.007 406.903 141.512 406.723 141 406.72Z" fill="#263238"/>
<path d="M195.1 403.59L186.41 407.2C186.26 407.259 186.136 407.371 186.062 407.514C185.988 407.658 185.97 407.824 186.01 407.98L187.87 415.27C187.923 415.452 188.014 415.621 188.136 415.765C188.259 415.909 188.411 416.026 188.582 416.107C188.753 416.188 188.939 416.232 189.129 416.236C189.318 416.24 189.506 416.204 189.68 416.13C192.68 414.82 194.08 414.04 197.9 412.45C200.25 411.45 205.22 409.7 208.47 408.35C211.72 407 210.55 403.72 209.08 403.99C202.48 405.21 199.34 404.4 196.59 403.53C196.102 403.375 195.574 403.396 195.1 403.59Z" fill="#263238"/>
<path d="M176.18 176.79C177.81 180.63 179.57 184.56 181.35 188.38C182.25 190.3 183.187 192.187 184.16 194.04C185.16 195.9 186.16 197.72 187.16 199.46C187.69 200.32 188.22 201.18 188.77 201.97L189.59 203.11C189.759 203.348 189.95 203.569 190.16 203.77C191.251 204.718 192.612 205.298 194.05 205.43C197.46 205.92 201.74 205.23 205.57 204.2L207.35 208.05C206.339 208.658 205.29 209.202 204.21 209.68C203.148 210.175 202.056 210.602 200.94 210.96C198.589 211.761 196.125 212.183 193.64 212.21C192.255 212.222 190.875 212.041 189.54 211.67C188.059 211.262 186.666 210.584 185.43 209.67C184.798 209.189 184.212 208.65 183.68 208.06C183.23 207.55 182.9 207.12 182.5 206.64C181.75 205.7 181.08 204.75 180.41 203.8C177.919 200.05 175.674 196.142 173.69 192.1C171.69 188.1 169.89 184.1 168.23 179.96L176.18 176.79Z" fill="#EBB376"/>
<path d="M204.71 208.52L213.85 207.08L211.42 201.9C211.42 201.9 204.34 203.13 202.98 206.33L204.71 208.52Z" fill="#EBB376"/>
<path d="M213.841 203.04L212.841 200.83L211.421 201.9L213.841 207.08V203.04Z" fill="#EBB376"/>
<path d="M141.64 137.79C141.82 146.1 141.72 149.62 145.74 154.04C151.74 160.69 161.96 158.65 164.26 150.45C166.33 143.07 165.68 130.72 157.7 127.1C155.943 126.295 154.009 125.952 152.082 126.103C150.155 126.255 148.299 126.897 146.69 127.968C145.081 129.039 143.773 130.504 142.889 132.223C142.005 133.942 141.575 135.858 141.64 137.79Z" fill="#EBB376"/>
<path d="M134.94 122.78C143.48 116.59 153.02 120.1 158.24 124.38C163.7 128.86 162.83 137.47 159.49 141.03C159.837 141.557 160.066 142.151 160.163 142.774C160.259 143.397 160.221 144.033 160.05 144.64C160.472 147.304 159.886 150.03 158.407 152.285C156.928 154.541 154.661 156.165 152.05 156.84L151.58 156.96C140.91 159.5 128.58 152.28 126.72 141.48C125.59 134.89 127.39 128.24 134.94 122.78Z" fill="#263238"/>
<path d="M157.58 141.64C157.717 143.207 158.388 144.679 159.48 145.81C160.96 147.34 162.48 146.46 162.75 144.65C162.98 143.02 162.49 140.26 160.69 139.39C158.89 138.52 157.45 139.79 157.58 141.64Z" fill="#EBB376"/>
<path opacity="0.3" d="M147 246C146.05 263.18 150.19 276.15 152.08 283.74C153.42 272.52 154.65 260.81 155.68 250.48C152.15 238.78 147.69 233.07 147 246Z" fill="black"/>
<path d="M142.951 396.58H128.401L127.631 391.48L143.031 390.96L142.951 396.58Z" fill="#3CB7C6"/>
<path opacity="0.3" d="M128.721 188.31L133.771 192.31C133.771 192.31 134.301 190.9 134.941 188.88L131.941 174.03L128.721 188.31Z" fill="black"/>
<path d="M139.7 124.17C142.31 121.28 151.18 116.87 158.79 120.33C160.961 121.319 162.8 122.913 164.088 124.921C165.376 126.928 166.057 129.265 166.05 131.65L159.19 136.25L139.7 124.17Z" fill="#263238"/>
<path d="M132.701 131.76C136.471 128.67 140.701 117.47 132.701 121.37C124.701 125.27 122.271 140.31 132.701 131.76Z" fill="#3CB7C6"/>
<path d="M133.55 124.58C135.18 119.82 124.43 110.35 117.18 119.35C109.93 128.35 128.86 138.28 133.55 124.58Z" fill="#263238"/>
<path d="M150.371 131.22C144.121 128.56 141.011 118.48 151.741 118.77C162.471 119.06 162.161 136.25 150.371 131.22Z" fill="#3CB7C6"/>
<path d="M148.35 126C144.56 121.27 148.75 109.11 159.62 113C170.49 116.89 157.05 136.81 148.35 126Z" fill="#263238"/>
<path d="M167.561 219.12C167.561 219.12 177.001 283.62 180.321 309C183.771 335.35 193.851 394.43 193.851 394.43L182.65 396.14C182.65 396.14 164.951 339.79 160.021 314.14C154.641 286.19 144.021 219.14 144.021 219.14L167.561 219.12Z" fill="#3CB7C6"/>
<path opacity="0.6" d="M167.561 219.12C167.561 219.12 177.001 283.62 180.321 309C183.771 335.35 193.851 394.43 193.851 394.43L182.65 396.14C182.65 396.14 164.951 339.79 160.021 314.14C154.641 286.19 144.021 219.14 144.021 219.14L167.561 219.12Z" fill="black"/>
<path d="M171.56 168.57C175.72 169.57 180.85 181.01 180.85 181.01L170.94 193.71C170.94 193.71 160.7 179.22 162.07 174.8C163.49 170.19 166.51 167.34 171.56 168.57Z" fill="#263238"/>
<path d="M158 168.05C159.37 168.25 158.1 165.12 157.53 164.79C156.22 164.01 139.53 162.44 139.72 164.2C139.821 165.25 140.272 166.236 141 167C141.75 167.5 146 166.12 158 168.05Z" fill="#3CB7C6"/>
<path opacity="0.6" d="M158 168.05C159.37 168.25 158.1 165.12 157.53 164.79C156.22 164.01 139.53 162.44 139.72 164.2C139.821 165.25 140.272 166.236 141 167C141.75 167.5 146 166.12 158 168.05Z" fill="white"/>
<path d="M171.561 168.57C171.561 168.57 175.561 169.97 167.561 219.12H133.561C134.131 205.28 134.151 196.74 127.561 168.32C132.321 167.338 137.148 166.703 142.001 166.42C147.144 166.05 152.307 166.05 157.451 166.42C164.001 167 171.561 168.57 171.561 168.57Z" fill="#263238"/>
<path d="M133 217.13L131.47 220.13C131.35 220.37 131.63 220.61 132.02 220.61H167.7C168 220.61 168.26 220.46 168.28 220.26L168.58 217.26C168.58 217.05 168.34 216.87 168 216.87H133.58C133.469 216.855 133.356 216.871 133.253 216.917C133.151 216.963 133.063 217.037 133 217.13Z" fill="#3CB7C6"/>
<path opacity="0.6" d="M133 217.13L131.47 220.13C131.35 220.37 131.63 220.61 132.02 220.61H167.7C168 220.61 168.26 220.46 168.28 220.26L168.58 217.26C168.58 217.05 168.34 216.87 168 216.87H133.58C133.469 216.855 133.356 216.871 133.253 216.917C133.151 216.963 133.063 217.037 133 217.13Z" fill="white"/>
<path d="M137.66 221H136.73C136.55 221 136.41 220.9 136.42 220.79L136.86 216.79C136.86 216.67 137.03 216.58 137.21 216.58H138.14C138.32 216.58 138.46 216.67 138.45 216.79L138.01 220.79C138 220.88 137.84 221 137.66 221Z" fill="#3CB7C6"/>
<path d="M160 221H159.08C158.89 221 158.75 220.9 158.77 220.79L159.2 216.79C159.2 216.67 159.37 216.58 159.56 216.58H160.48C160.66 216.58 160.8 216.67 160.79 216.79L160.36 220.79C160.36 220.88 160.2 221 160 221Z" fill="#3CB7C6"/>
<path opacity="0.6" d="M137.66 221H136.73C136.55 221 136.41 220.9 136.42 220.79L136.86 216.79C136.86 216.67 137.03 216.58 137.21 216.58H138.14C138.32 216.58 138.46 216.67 138.45 216.79L138.01 220.79C138 220.88 137.84 221 137.66 221Z" fill="black"/>
<path opacity="0.6" d="M160 221H159.08C158.89 221 158.75 220.9 158.77 220.79L159.2 216.79C159.2 216.67 159.37 216.58 159.56 216.58H160.48C160.66 216.58 160.8 216.67 160.79 216.79L160.36 220.79C160.36 220.88 160.2 221 160 221Z" fill="black"/>
<path d="M195.5 394.43L181.16 396.87L179.53 391.46L194.88 388.83L195.5 394.43Z" fill="#3CB7C6"/>
<path d="M338.41 115.26C330.783 103.046 319.705 93.3685 306.577 87.4504C293.45 81.5322 278.862 79.6397 264.659 82.012C250.456 84.3843 237.275 90.9149 226.783 100.778C216.291 110.641 208.96 123.394 205.716 137.424C202.471 151.453 203.46 166.13 208.557 179.598C213.654 193.066 222.63 204.72 234.35 213.086C246.07 221.453 260.007 226.157 274.4 226.602C288.793 227.048 302.995 223.216 315.21 215.59C323.322 210.526 330.357 203.914 335.913 196.131C341.469 188.348 345.438 179.547 347.592 170.231C349.746 160.914 350.044 151.264 348.469 141.832C346.894 132.4 343.476 123.371 338.41 115.26ZM227.92 184.26C221.904 174.622 218.88 163.415 219.232 152.059C219.584 140.702 223.296 129.704 229.898 120.457C236.5 111.209 245.696 104.127 256.323 100.106C266.95 96.0853 278.531 95.3058 289.601 97.8663C300.671 100.427 310.734 106.213 318.515 114.492C326.297 122.771 331.45 133.172 333.32 144.379C335.191 155.586 333.697 167.096 329.026 177.454C324.356 187.812 316.718 196.553 307.08 202.57C300.68 206.566 293.555 209.261 286.113 210.503C278.671 211.744 271.057 211.508 263.706 209.806C256.355 208.105 249.411 204.973 243.271 200.588C237.131 196.203 231.915 190.651 227.92 184.25V184.26Z" fill="#3CB7C6"/>
<path d="M338.41 115.26C330.783 103.046 319.705 93.3685 306.577 87.4504C293.45 81.5322 278.862 79.6397 264.659 82.012C250.456 84.3843 237.275 90.9149 226.783 100.778C216.291 110.641 208.96 123.394 205.716 137.424C202.471 151.453 203.46 166.13 208.557 179.598C213.654 193.066 222.63 204.72 234.35 213.086C246.07 221.453 260.007 226.157 274.4 226.602C288.793 227.048 302.995 223.216 315.21 215.59C323.322 210.526 330.357 203.914 335.913 196.131C341.469 188.348 345.438 179.547 347.592 170.231C349.746 160.914 350.044 151.264 348.469 141.832C346.894 132.4 343.476 123.371 338.41 115.26ZM227.92 184.26C221.904 174.622 218.88 163.415 219.232 152.059C219.584 140.702 223.296 129.704 229.898 120.457C236.5 111.209 245.696 104.127 256.323 100.106C266.95 96.0853 278.531 95.3058 289.601 97.8663C300.671 100.427 310.734 106.213 318.515 114.492C326.297 122.771 331.45 133.172 333.32 144.379C335.191 155.586 333.697 167.096 329.026 177.454C324.356 187.812 316.718 196.553 307.08 202.57C300.68 206.566 293.555 209.261 286.113 210.503C278.671 211.744 271.057 211.508 263.706 209.806C256.355 208.105 249.411 204.973 243.271 200.588C237.131 196.203 231.915 190.651 227.92 184.25V184.26Z" fill="#3CB7C6"/>
<path opacity="0.5" d="M338.41 115.26C330.783 103.046 319.705 93.3685 306.577 87.4504C293.45 81.5322 278.862 79.6397 264.659 82.012C250.456 84.3843 237.275 90.9149 226.783 100.778C216.291 110.641 208.96 123.394 205.716 137.424C202.471 151.453 203.46 166.13 208.557 179.598C213.654 193.066 222.63 204.72 234.35 213.086C246.07 221.453 260.007 226.157 274.4 226.602C288.793 227.048 302.995 223.216 315.21 215.59C323.322 210.526 330.357 203.914 335.913 196.131C341.469 188.348 345.438 179.547 347.592 170.231C349.746 160.914 350.044 151.264 348.469 141.832C346.894 132.4 343.476 123.371 338.41 115.26ZM227.92 184.26C221.904 174.622 218.88 163.415 219.232 152.059C219.584 140.702 223.296 129.704 229.898 120.457C236.5 111.209 245.696 104.127 256.323 100.106C266.95 96.0853 278.531 95.3058 289.601 97.8663C300.671 100.427 310.734 106.213 318.515 114.492C326.297 122.771 331.45 133.172 333.32 144.379C335.191 155.586 333.697 167.096 329.026 177.454C324.356 187.812 316.718 196.553 307.08 202.57C300.68 206.566 293.555 209.261 286.113 210.503C278.671 211.744 271.057 211.508 263.706 209.806C256.355 208.105 249.411 204.973 243.271 200.588C237.131 196.203 231.915 190.651 227.92 184.25V184.26Z" fill="white"/>
<path opacity="0.2" d="M330.201 120.39C336.811 130.982 340.132 143.295 339.744 155.774C339.356 168.253 335.277 180.337 328.023 190.498C320.768 200.658 310.663 208.44 298.986 212.858C287.309 217.276 274.584 218.133 262.42 215.32C250.257 212.507 239.2 206.151 230.648 197.054C222.097 187.958 216.435 176.53 214.378 164.216C212.32 151.901 213.961 139.254 219.091 127.871C224.222 116.489 232.612 106.884 243.201 100.27C250.234 95.8771 258.064 92.9128 266.243 91.5465C274.422 90.1801 282.79 90.4385 290.869 92.307C298.948 94.1754 306.58 97.6172 313.329 102.436C320.077 107.254 325.811 113.355 330.201 120.39Z" fill="#FAFAFA"/>
<path opacity="0.1" d="M339.171 144.89L241.171 206.07C233.179 200.648 226.539 193.463 221.761 185.07L328.761 118.26C334.221 126.224 337.782 135.335 339.171 144.89Z" fill="#E6E6E6"/>
</svg>
