<svg width="263" height="185" viewBox="0 0 263 185" fill="none" xmlns="http://www.w3.org/2000/svg">
<path d="M131.5 184.862C203.665 184.862 262.166 161.68 262.166 133.084C262.166 104.488 203.665 81.3066 131.5 81.3066C59.3345 81.3066 0.833008 104.488 0.833008 133.084C0.833008 161.68 59.3345 184.862 131.5 184.862Z" fill="#3CB7C6"/>
<path d="M102.671 71.9854L103.651 71.5544L104.157 72.4164L102.671 71.9854Z" fill="#7B302F"/>
<path d="M59.4691 130.499L59.4201 130.531C59.2731 130.467 59.1098 130.403 58.8975 130.355L59.4691 130.499Z" fill="#7B302F"/>
<path d="M135.158 122.47C134.717 119.709 134.063 116.325 133.41 113.213L146.558 106.477L146.526 106.302C151.54 107.722 155.035 108.712 155.035 108.712L159.527 106.414C159.756 106.605 159.984 106.797 160.246 106.988C160.866 107.451 161.356 107.93 161.667 108.488C161.667 108.473 161.65 108.457 161.634 108.425C161.503 108.026 161.242 107.627 160.981 107.244C160.703 106.86 160.36 106.509 159.984 106.19L160.605 105.871C160.736 105.999 160.883 106.126 161.046 106.254C161.912 106.988 162.271 107.786 162.32 108.632L135.158 122.47Z" fill="#7B302F"/>
<path d="M122.092 27.4861L123.006 31.1092C131.875 36.3924 163.84 55.3381 163.84 55.3381H163.856C164.166 54.4603 164.085 52.8482 163.562 52.0821L122.092 27.4861Z" fill="#6C3D26"/>
<path d="M163.839 52.2575L163.562 52.0819C164.084 52.848 164.166 54.4601 163.856 55.338L173.607 49.576C173.607 49.576 175.354 47.8682 173.558 46.5115L163.839 52.2575Z" fill="#EB6532"/>
<path d="M60.9561 109.765L60.6621 109.574C61.2011 110.324 61.2828 111.952 60.9724 112.862L64.5658 110.723L61.9034 109.207L60.9561 109.765Z" fill="#EB6532"/>
<path d="M61.9033 109.207L64.5657 110.723L70.7233 107.084C70.7233 107.084 72.4547 105.376 70.6743 104.019L61.9033 109.207Z" fill="#EB6532"/>
<path d="M25.9863 89.0159L26.852 92.639L60.956 112.862H60.9723C61.2827 111.952 61.201 110.324 60.662 109.574L25.9863 89.0159Z" fill="#6C3D26"/>
<path d="M17.9339 84.2437C16.9703 85.2332 17.8523 87.2922 17.8523 87.2922L19.8286 88.4574L26.8519 92.6392L25.9863 89.016L17.9339 84.2437Z" fill="#6C3D26"/>
<path d="M163.84 55.3381V55.37L164.036 85.329L173.607 79.9341V49.5762L163.856 55.3381H163.84Z" fill="#E39640"/>
<path d="M163.562 52.082L163.839 52.2576L173.558 46.5116C173.443 46.3999 173.296 46.3041 173.117 46.2084C173.1 46.2084 173.1 46.1924 173.1 46.1924L129.768 22.1072L121.765 26.1772L122.091 27.4861L163.562 52.082Z" fill="#C64927"/>
<path d="M17.9336 84.2436L25.9859 89.0159L24.0586 81.0354L18.3256 83.9563C18.3093 83.9563 18.3093 83.9722 18.2929 83.9722C18.1459 84.052 18.0316 84.1318 17.9336 84.2436Z" fill="#C64927"/>
<path d="M34.5781 83.8923L37.5018 95.4482L46.3708 90.4523L34.5781 83.8923Z" fill="#C64927"/>
<path d="M37.502 95.4482L61.904 109.207L70.675 104.019C70.5606 103.908 70.4136 103.812 70.234 103.716C70.2176 103.716 70.2176 103.7 70.2176 103.7L46.371 90.4524L37.502 95.4482Z" fill="#C64927" stroke="#C64927" stroke-width="0.0762"/>
<path d="M60.6616 109.574L60.9556 109.765L61.9029 109.207L37.5009 95.4484L34.5773 83.8926L26.8843 79.615L24.0586 81.0355L25.9859 89.0161L60.6616 109.574Z" fill="#C64927" stroke="#C64927" stroke-width="0.0762"/>
<path d="M123.006 31.1091L126.567 45.2028L159.952 64.0528V74.5232L156.31 76.5982V80.8757C160.867 83.5093 164.035 85.3289 164.035 85.3289L163.839 55.3699V55.338C163.839 55.338 131.875 36.3922 123.006 31.1091Z" fill="#BF7F39"/>
<path d="M16.709 50.5497L24.059 81.0353L26.8847 79.6148L34.5777 83.8923L26.4927 51.9542L17.64 50.0229L16.709 50.5497Z" fill="#DBAC8A"/>
<path d="M17.6396 50.0231L26.4923 51.9544L26.378 51.4915L115.346 1.21413L115.215 0.990677L110.168 0.320312L17.6396 50.0231Z" fill="#C1987A"/>
<path d="M26.8515 92.6391L19.8281 88.4573V118.975L61.1515 142.837L60.9555 112.878V112.862L26.8515 92.6391Z" fill="#BF7F39"/>
<path d="M26.4923 51.9542L34.5773 83.8923L46.3699 90.4523L126.567 45.2027L123.006 31.1091L122.091 27.4859L120.752 26.6879L121.765 26.1771L115.427 1.10229L114.431 1.66093L26.3779 51.4914L26.4923 51.9542Z" fill="#EFBA96"/>
<path d="M46.3701 90.4525L70.2168 103.7C70.2168 103.7 70.2168 103.716 70.2331 103.716L70.7231 103.987L70.6741 104.019C72.4545 105.376 70.7231 107.084 70.7231 107.084V114.203L70.9028 114.298L159.952 64.0529L126.567 45.2029L46.3701 90.4525Z" fill="#DBAC8A"/>
<path d="M60.9561 112.862V112.878L61.1521 142.837L70.7234 137.442V114.202L64.5657 110.723L60.9724 112.862H60.9561Z" fill="#E39640"/>
<path d="M70.7231 107.084L64.5654 110.723L70.7231 114.203V107.084Z" fill="#E39640"/>
<path d="M156.31 76.5984L159.953 74.5234V64.053L70.9033 114.298L70.7236 114.203V124.992L156.31 76.5984Z" fill="#F9C5A1"/>
<path d="M67.9792 91.1866C67.8812 91.6175 67.7342 91.8889 67.6035 92.1762L77.3382 98.0818C77.5505 97.5072 77.7629 96.757 77.8445 95.943C77.9425 94.9534 77.7629 94.0596 77.5832 93.453L77.6159 93.4052L67.7995 87.6592C67.9465 88.2657 68.1425 88.7605 68.1588 89.383C68.1588 90.2289 68.0935 90.7875 67.9792 91.1866Z" fill="white"/>
<path d="M77.9269 92.9105L66.1833 86.0312C66.0689 86.4143 66.2649 86.7655 66.2649 86.7655L67.8003 87.6593L77.6166 93.4053L78.0086 93.6447L78.1883 93.5808C78.0413 93.1499 77.9269 92.9105 77.9269 92.9105Z" fill="#FFEDC0"/>
<path d="M77.1099 98.6884C74.5456 97.188 66.1012 92.2241 66.1012 92.2241C65.9869 92.6231 66.1829 92.9583 66.1829 92.9583L77.4856 99.5981L77.5019 99.5503C77.5019 99.5503 78.3022 98.0659 78.4819 96.2304C78.5962 95.145 78.3676 94.1873 78.1879 93.5808L78.0082 93.6447L77.6162 93.4052L77.5836 93.4531C77.7632 94.0596 77.9429 94.9535 77.8449 95.9431C77.7632 96.7571 77.5509 97.5072 77.3386 98.0818C77.2569 98.3053 77.1752 98.5128 77.1099 98.6884Z" fill="#FFEDC0"/>
<path d="M67.9789 91.1868C66.8193 91.8252 66.1006 92.2242 66.1006 92.2242C66.1006 92.2242 74.5449 97.1881 77.1093 98.6885C77.1746 98.5129 77.2563 98.3054 77.3379 98.082L67.6033 92.1764C67.7339 91.8891 67.8809 91.6177 67.9789 91.1868Z" fill="#FF8D00"/>
<path d="M78.482 96.2303C78.3023 98.0658 77.502 99.5502 77.502 99.5502C77.6653 99.8534 94.9296 89.9895 94.9296 89.9895C94.9296 89.9895 95.6809 88.8882 95.6809 87.0686C95.6646 85.2491 94.6683 83.7168 94.6683 83.7168L77.9266 92.9104C77.9266 92.9104 78.041 93.1498 78.188 93.5807C78.3676 94.1873 78.5963 95.1449 78.482 96.2303Z" fill="#FF8D00"/>
<path d="M77.9263 92.9105L94.668 83.7169L82.8753 76.8696L66.1826 86.0313L77.9263 92.9105Z" fill="#FEBE3D"/>
<path d="M63.2758 85.8716C63.1615 86.2866 63.0145 86.5739 62.8838 86.8612L72.6348 92.7668C72.8308 92.1922 73.0431 91.442 73.1248 90.628C73.2228 89.6384 73.0431 88.7446 72.8635 88.1381L72.8961 88.0902L63.0798 82.3442C63.2431 82.9508 63.4228 83.4456 63.4391 84.068C63.4391 84.914 63.3738 85.4726 63.2758 85.8716Z" fill="white"/>
<path d="M73.2053 87.5953L61.4616 80.7161C61.3473 81.0991 61.5433 81.4503 61.5433 81.4503L63.0786 82.3441L72.8949 88.0901L73.2869 88.3295L73.4666 88.2657C73.3359 87.8347 73.2053 87.5953 73.2053 87.5953Z" fill="#F5A993"/>
<path d="M72.3892 93.3734C69.8249 91.8731 61.3805 86.9092 61.3805 86.9092C61.2662 87.3082 61.4622 87.6434 61.4622 87.6434L72.7649 94.2832L72.7812 94.2353C72.7812 94.2353 73.5979 92.7509 73.7612 90.9154C73.8755 89.8301 73.6632 88.8724 73.4672 88.2659L73.2875 88.3297L72.8955 88.0903L72.8629 88.1382C73.0425 88.7447 73.2222 89.6385 73.1242 90.6281C73.0425 91.4421 72.8302 92.1923 72.6342 92.7669C72.5525 92.9904 72.4709 93.1978 72.3892 93.3734Z" fill="#F5A993"/>
<path d="M63.2755 85.8716C62.1159 86.51 61.3809 86.9091 61.3809 86.9091C61.3809 86.9091 69.8252 91.8729 72.3895 93.3733C72.4712 93.1977 72.5528 92.9902 72.6345 92.7668L62.8835 86.8612C63.0142 86.5739 63.1612 86.2866 63.2755 85.8716Z" fill="#D93931"/>
<path d="M73.7613 90.9153C73.5979 92.7509 72.7812 94.2352 72.7812 94.2352C72.9446 94.5225 90.2089 84.6746 90.2089 84.6746C90.2089 84.6746 90.9603 83.5732 90.9603 81.7537C90.9603 79.9341 89.9476 78.4019 89.9476 78.4019L73.2059 87.5954C73.2059 87.5954 73.3366 87.8348 73.4673 88.2658C73.6633 88.8723 73.8756 89.83 73.7613 90.9153Z" fill="#D9373D"/>
<path d="M73.2066 87.5953L89.9482 78.4017L78.1556 71.5544L61.4629 80.7161L73.2066 87.5953Z" fill="#EA5150"/>
<path d="M128.021 71.9376L120.328 76.4067L101.692 66.1917C101.692 66.1917 101.561 65.7607 101.626 65.2819C101.675 65.0265 101.757 64.7711 101.937 64.5636L101.724 64.4359L102.786 63.8294C102.623 63.7496 102.459 63.6698 102.296 63.606C102.035 63.4783 101.757 63.3665 101.496 63.2229C100.973 63.59 100.189 63.9571 99.2252 64.3083C96.8406 65.1542 93.5412 65.8086 91.5322 65.7926C91.7772 66.3034 92.0222 66.8301 92.2672 67.3568L92.3489 67.3249C92.6919 68.0751 93.1492 68.7773 93.7046 69.4477C95.3706 69.4956 96.4649 67.8197 98.4249 67.3887C100.516 66.9578 102.9 69.0008 104.534 70.166C109.744 73.6614 116.163 75.8481 121.373 79.4872C121.373 79.4553 121.39 79.4234 121.39 79.3755C121.896 75.9439 127.351 74.7149 130.618 74.5552C129.703 73.5657 128.789 72.624 128.021 71.9376Z" fill="#393431"/>
<path d="M128.021 71.9376C128.788 72.6239 129.703 73.5656 130.618 74.5552C130.781 74.5393 130.944 74.5393 131.075 74.5393V74.3797C131.843 72.5122 135.224 69.7988 137.772 69.0487C137.233 68.3943 136.694 67.7718 136.171 67.2131L128.021 71.9376Z" fill="#252424"/>
<path d="M121.389 79.3754C122.45 80.349 124.508 80.9715 125.848 81.2269C126.599 81.6738 127.497 81.8175 128.396 81.8175C127.938 82.6794 127.04 83.1263 126.158 83.7009C127.497 84.1478 128.526 84.866 129.425 85.8875C129.131 85.8875 128.526 85.8875 128.232 85.8875C127.644 88.2338 130.029 92.0166 130.617 94.3469C131.515 97.5391 132.103 100.907 133.149 103.955C134.194 106.717 135.239 110.069 138.375 110.659C139.6 110.867 141.332 110.771 142.802 110.579C142.589 109.829 142.361 109.015 142.148 108.185C140.074 100.029 138.686 88.3934 134.586 79.2637C133.769 78.1624 132.201 76.263 130.617 74.5552C127.35 74.7148 121.895 75.9438 121.389 79.3754Z" fill="#473F3B" stroke="#473F3B" stroke-width="0.0762"/>
<path d="M142.802 110.579C141.332 110.771 139.601 110.867 138.376 110.659C135.24 110.069 134.194 106.717 133.149 103.956C132.104 100.907 131.516 97.5393 130.617 94.347C130.029 92.0167 127.645 88.234 128.233 85.8877C128.527 85.8877 129.131 85.8877 129.425 85.8877C128.527 84.8662 127.498 84.1479 126.158 83.701C127.04 83.1264 127.939 82.6795 128.396 81.8176C127.498 81.8176 126.599 81.674 125.848 81.2271C124.509 80.9717 122.451 80.3492 121.389 79.3756C121.389 79.4235 121.373 79.4554 121.373 79.4873C116.162 75.8482 109.743 73.6615 104.533 70.166C102.9 69.0009 100.515 66.9579 98.4244 67.3888C96.4644 67.8198 95.3701 69.4957 93.7041 69.4478C99.1268 76.0078 113.778 79.184 121.552 84.0681C124.411 93.0861 126.24 100.029 131.516 109.925C131.516 111.393 132.953 113.133 132.349 114.586C132.496 114.65 132.659 114.729 132.839 114.777C133.41 114.985 134.145 115.144 134.913 115.24C136.383 115.432 138 115.432 139.062 115.176C140.581 114.825 141.74 113.309 143.112 112.75C143.243 112.686 143.374 112.654 143.504 112.622C143.259 111.984 143.031 111.298 142.802 110.579Z" fill="#393431" stroke="#393431" stroke-width="0.0762"/>
<path d="M131.075 74.5394C130.944 74.5394 130.781 74.5394 130.617 74.5554C132.202 76.2632 133.77 78.1626 134.586 79.2639C138.686 88.3936 140.074 100.029 142.148 108.185C142.704 101.881 142.524 82.0411 142.116 77.0772C142.459 75.6407 140.172 72.0176 137.771 69.0488C135.223 69.799 131.842 72.5124 131.075 74.3798V74.5394Z" fill="#322E2C" stroke="#322E2C" stroke-width="0.0762"/>
<path d="M108.061 67.7079C107.816 67.4844 107.179 66.4948 107.375 66.0799C106.509 65.7447 105.644 65.3137 104.827 64.8987C104.108 64.5157 103.422 64.1486 102.785 63.8293L101.724 64.4359L101.936 64.5636L102.589 64.9147L104.01 65.6808C104.5 65.9362 104.958 66.1916 105.448 66.431L105.644 66.5268L108.061 67.7079Z" fill="#394041"/>
<path d="M108.061 67.708L105.644 66.5269C106.036 66.7343 106.591 67.0536 107.146 67.3888C107.473 67.5005 107.783 67.5962 108.061 67.708Z" fill="#394041"/>
<path d="M107.849 67.7878L108.6 68.2027L118.857 73.837L120.05 70.5809C117.387 69.3998 114.317 67.9154 111.377 66.7024C111.344 66.7024 111.328 66.6864 111.311 66.6864C110.593 66.7822 109.874 66.8141 109.155 66.6226C109.09 66.6066 109.041 66.5907 108.976 66.5747C109.025 66.7982 109.106 67.0057 109.221 67.1493C108.633 67.0216 108.061 66.7982 107.538 66.5747C107.653 67.0216 107.832 67.4047 108.061 67.7079C107.783 67.5962 107.473 67.5005 107.146 67.3887C107.375 67.5164 107.62 67.6601 107.849 67.7878Z" fill="#394041"/>
<path d="M101.692 66.1917L120.328 76.4067L128.021 71.9376L136.172 67.2132L145.351 61.8822C145.351 61.8822 145.58 60.9564 145.155 60.2542L126.943 70.8044L120.345 74.651L118.858 73.837L108.601 68.2028L107.85 67.7878L107.017 67.3409C107.066 67.3568 107.098 67.3568 107.147 67.3887C106.592 67.0536 106.037 66.7343 105.645 66.5268L105.449 66.4311L104.893 66.1597L104.011 65.6809L102.59 64.9148L101.937 64.5636C101.757 64.7711 101.676 65.0265 101.627 65.2819C101.561 65.7607 101.692 66.1917 101.692 66.1917Z" fill="#525D5E"/>
<path d="M107.016 67.3408L107.849 67.7877C107.62 67.66 107.375 67.5164 107.146 67.3887C107.097 67.3568 107.065 67.3568 107.016 67.3408Z" fill="#394041"/>
<path d="M105.448 66.4311C104.958 66.1917 104.501 65.9363 104.011 65.6809L104.893 66.1597L105.448 66.4311Z" fill="#394041"/>
<path d="M82.7122 41.4201C82.9409 42.681 83.2186 43.9579 83.3492 45.2029C84.2312 45.2348 85.3092 44.9315 85.9789 44.8198C87.3836 44.5964 88.5922 44.3091 89.8499 43.7185C91.0586 43.1599 93.7536 42.1383 94.4886 40.8295C93.7862 39.5686 93.3779 38.18 92.9206 36.8233C92.3326 35.0516 91.6792 33.3438 90.2256 32.0669C89.1802 31.1252 87.6939 30.0239 86.1259 30.1835C84.8846 30.3272 83.8556 31.3167 83.1859 32.4021C83.1206 32.4979 83.0552 32.5936 83.0062 32.6894C82.8266 32.9927 82.6796 33.3119 82.5489 33.5992C81.8956 35.0516 81.7649 36.7116 81.9119 38.4035C81.9609 38.5631 81.9936 38.7067 82.0589 38.8504C82.1569 39.1855 82.2876 39.5048 82.4672 39.84C82.5326 40.3667 82.6142 40.8774 82.7122 41.4201Z" fill="#00AE7D"/>
<path d="M93.459 43.5749C93.655 43.3993 93.8183 43.2078 93.9816 43.0003C93.998 42.9843 94.0143 42.9843 94.0143 42.9684C94.0306 43.0003 94.047 43.0482 94.0633 43.0961C94.5043 42.729 94.929 42.3299 95.223 41.899C94.9453 41.5638 94.7003 41.1967 94.488 40.8296C93.753 42.1384 91.058 43.1599 89.8493 43.7185C88.5916 44.3091 87.383 44.5964 85.9783 44.8199C85.3086 44.9316 84.2306 45.2348 83.3486 45.2029C83.4303 45.8414 83.463 46.4638 83.4466 47.0704C83.9366 47.0704 84.4756 47.0384 85.0473 46.9746C84.9983 46.799 84.9656 46.6075 84.9166 46.416C85.0146 46.5915 85.0963 46.7831 85.1943 46.9586C85.4066 46.9267 85.619 46.8948 85.8476 46.8629C88.3466 46.4638 91.2376 45.4902 93.116 43.8941C93.2303 43.7983 93.3446 43.6866 93.459 43.5749Z" fill="white"/>
<path d="M81.9931 34.3175C81.5521 35.355 81.4214 36.7595 81.9114 38.4035C81.7644 36.7116 81.8951 35.0517 82.5484 33.5992C82.6791 33.3119 82.8261 32.9927 83.0057 32.6895C82.5811 32.881 82.2707 33.2481 82.1237 33.8546H82.0911C82.0584 33.9983 82.0094 34.1579 81.9931 34.3175Z" fill="#52B2CE"/>
<path d="M106.069 43.3512C106.069 43.3033 106.069 43.2554 106.069 43.2235C106.085 43.1916 106.118 43.1756 106.134 43.1437C106.118 43.2235 106.085 43.2714 106.069 43.3512ZM94.4882 40.8293C94.7005 41.1965 94.9455 41.5636 95.2232 41.8987C94.9292 42.3297 94.5045 42.7287 94.0635 43.0958C94.1125 43.2075 94.1615 43.3193 94.1942 43.431C94.2759 43.6385 94.3575 43.8619 94.4229 44.0854C94.5209 44.3887 94.6189 44.7079 94.7005 45.0271C94.9129 46.0167 95.3375 47.134 95.7295 48.2193C96.1705 49.4004 96.5625 50.5816 96.6442 51.5233L96.5299 51.6509C99.3229 53.8376 102.818 55.4178 105.726 57.4927C105.824 57.5565 105.938 57.6363 106.036 57.7161V57.7321C106.167 57.8279 106.297 57.9236 106.428 58.0513C109.597 56.6787 113.223 55.2103 114.921 52.1457C113.974 49.975 113.01 47.9959 112.177 45.9209C112.112 43.6385 112.047 41.3561 112.03 39.0736C111.998 37.8606 111.998 36.6475 111.998 35.4345C111.998 34.9716 111.998 34.5088 111.998 34.0459C112.03 34.0459 112.047 34.0459 112.079 34.0299C112.03 33.3915 111.965 32.7371 111.851 32.0986C111.606 30.4706 111.214 28.8585 110.642 27.3422C109.744 24.996 108.78 22.7455 107.375 20.7184C106.771 19.8405 105.415 17.606 104.272 17.0474C104.239 17.2229 104.19 17.4145 104.158 17.622C104.092 17.9731 104.043 18.2923 104.011 18.5956C103.929 19.4894 103.962 20.1917 103.815 20.9419C103.798 21.1334 103.749 21.3409 103.7 21.5484C103.684 21.7399 103.57 21.9155 103.39 22.0751C104.158 22.953 104.158 24.7246 104.092 25.81C104.011 27.5497 102.9 28.9384 101.038 29.2257C98.9472 29.5928 96.6442 28.9384 94.7659 27.9967C93.4755 27.2944 91.3359 26.3207 90.6662 24.8044C90.4865 24.9481 90.3069 25.0917 90.1435 25.2354C89.6372 25.6344 89.1472 26.0494 88.6899 26.4644C87.8895 27.2305 87.0239 28.0286 86.2725 28.8266C85.9132 29.2257 85.6519 29.6726 85.1945 29.9599C85.0149 30.1035 84.8189 30.1993 84.6229 30.311L84.6392 30.327C84.0675 30.9973 83.5775 31.6837 83.1855 32.4019C83.8552 31.3166 84.8842 30.327 86.1255 30.1833C87.6935 30.0237 89.1799 31.125 90.2252 32.0667C91.6789 33.3436 92.3322 35.0514 92.9202 36.8231C93.3775 38.1798 93.7859 39.5684 94.4882 40.8293Z" fill="#00AE7D"/>
<path d="M85.1949 46.9585C85.1459 46.9585 85.0969 46.9585 85.0479 46.9745C85.3745 48.5865 85.7012 50.0549 85.9789 51.1563C86.9752 55.7531 88.6249 59.6156 90.5195 63.6698C92.2672 63.7496 94.4069 63.2228 95.8932 62.8877C96.7752 62.6642 97.6735 62.1535 98.6045 61.914C97.6245 61.4671 96.6445 61.0043 95.7135 60.5095C94.6682 59.9349 93.6555 59.3124 92.7409 58.6101C92.3815 58.3388 92.0385 58.0674 91.7119 57.7801C91.4015 57.5088 91.1075 57.2534 90.8462 56.9661C88.6412 54.0771 87.1875 51.0924 85.6032 47.8044C85.4725 47.5331 85.3419 47.2458 85.1949 46.9585Z" fill="#00694B"/>
<path d="M117.323 65.3936C117.405 65.3936 117.47 65.4095 117.552 65.4255C116.833 64.8668 116.18 64.9626 114.889 64.9147C113.485 64.9147 111.541 63.973 110.953 62.7281C109.075 66.016 103.799 62.8877 101.708 61.4831C97.3146 58.658 92.6106 56.5511 91.353 50.9967C90.9773 49.3367 90.4546 47.9481 91.647 46.5595C92.4636 45.6976 93.8683 45.0272 94.4073 44.0855H94.4236C94.3583 43.8621 94.2766 43.6386 94.195 43.4311C94.1623 43.3194 94.1133 43.2077 94.0643 43.0959C93.8683 43.2556 93.6723 43.4152 93.46 43.5748C93.3456 43.6865 93.2313 43.7982 93.117 43.894C91.2386 45.4901 88.3476 46.4637 85.8486 46.8628C85.62 46.8947 85.4076 46.9266 85.1953 46.9585C85.3423 47.2458 85.473 47.5331 85.6036 47.8045C87.188 51.0924 88.6416 54.0772 90.8466 56.9661C91.108 57.2534 91.402 57.5088 91.7123 57.7801C92.039 58.0674 92.382 58.3388 92.7413 58.6101C93.656 59.3124 94.6686 59.9349 95.714 60.5095C96.645 61.0043 97.625 61.4671 98.605 61.914C99.5686 62.3769 100.549 62.8079 101.496 63.2229C101.757 63.3665 102.035 63.4782 102.296 63.6059C102.46 63.6698 102.623 63.7496 102.786 63.8294C103.423 64.1486 104.109 64.5157 104.828 64.8988C105.645 65.3138 106.51 65.7447 107.376 66.0799C107.915 66.3033 108.454 66.4789 108.977 66.5747C109.042 66.5906 109.091 66.6066 109.156 66.6226C109.875 66.8141 110.594 66.7822 111.312 66.6864C111.329 66.6864 111.361 66.6704 111.394 66.6704C112.521 66.4789 113.648 66.0958 114.791 66.016C115.069 66.1597 115.396 66.3033 115.706 66.4629C116 66.6066 116.294 66.7662 116.572 66.9418C116.947 67.1652 117.323 67.4206 117.617 67.7239C118.123 67.9792 118.499 68.0271 118.924 67.8994C119.103 67.8516 119.299 67.7718 119.495 67.676C119.25 67.3568 119.005 66.9897 118.711 66.7183C118.287 66.3193 117.862 65.9203 117.437 65.5053C117.405 65.4574 117.356 65.4255 117.307 65.3936C117.323 65.3936 117.323 65.3936 117.323 65.3936Z" fill="#F39B6E"/>
<path d="M91.7441 4.15091C89.3758 5.65125 87.4158 8.26886 88.2161 10.5513C89.1145 13.137 89.9638 15.3077 91.0091 17.5422C91.0581 18.1966 90.7968 18.7553 90.8621 19.4416C90.8948 19.9045 91.2868 20.4152 91.7931 20.7344C91.8585 20.6227 91.9401 20.5269 92.0218 20.4312C92.0545 20.5908 92.0708 20.7504 92.1198 20.91C92.4138 21.0377 92.7241 21.1015 93.0181 21.0377H93.0345C93.0671 20.7185 93.0998 20.3673 93.0998 20.0481C92.9528 19.9045 92.8385 19.7449 92.7241 19.6172C92.7568 19.3937 92.7568 19.1703 92.7731 18.9628C91.8911 18.7233 91.7931 16.7921 91.5645 15.9142C91.2541 14.7969 92.6098 14.6533 93.0181 15.0683C93.0998 15.5631 93.1651 16.409 93.2305 17.239C93.6225 17.5901 94.0308 17.9253 94.4718 18.2445C94.4065 17.638 94.4228 17.1432 94.4718 16.7282C94.6025 15.7227 94.9781 15.18 95.1741 14.4937C95.3538 13.8552 95.5498 13.3445 95.6805 12.7858C96.0561 12.8497 96.4481 12.8656 96.8238 12.8497C97.6731 12.7699 98.5061 12.4028 99.3228 12.1155C99.0941 12.5464 98.5715 13.1689 98.6205 13.6477C99.2411 13.6477 100.401 12.8816 100.891 12.4826C101.299 12.0995 101.952 11.5728 102.41 10.9503C102.263 11.2695 102.099 11.7484 102.001 12.0835C102.753 11.3813 104.092 10.5832 104.19 9.41805C104.533 10.9184 104.582 12.2591 104.582 12.2591C104.108 13.4402 104.337 13.4881 104.5 14.9725C104.484 15.0363 104.5 15.0683 104.517 15.1161C105.219 12.8337 105.023 9.72131 105.023 9.72131C105.333 3.89553 96.5461 1.16619 91.7605 4.18283L91.7441 4.15091Z" fill="#3A2522"/>
<path d="M95.8932 62.8877C94.4069 63.2229 92.2672 63.7496 90.5195 63.6698C90.8462 64.3721 91.1892 65.0743 91.5322 65.7926C93.5412 65.8086 96.8405 65.1542 99.2252 64.3082C100.189 63.9571 100.973 63.59 101.496 63.2229C100.548 62.8079 99.5682 62.3769 98.6045 61.9141C97.6735 62.1535 96.7752 62.6642 95.8932 62.8877Z" fill="white"/>
<path d="M102.426 26.9114V26.8954H102.442C102.442 26.9114 102.426 26.9114 102.426 26.9114ZM91.4663 24.1342C91.205 24.3576 90.9437 24.5811 90.666 24.8045C91.3357 26.3208 93.4753 27.2945 94.7657 27.9967C96.644 28.9384 98.947 29.5929 101.038 29.2257C102.9 28.9384 104.01 27.5498 104.092 25.8101C104.157 24.7247 104.157 22.9531 103.39 22.0752C103.226 22.2188 103.014 22.3625 102.753 22.4902C102.687 22.5221 102.606 22.554 102.524 22.5859C102.491 22.6019 102.442 22.6338 102.393 22.6498C102.508 22.7934 102.606 22.9531 102.687 23.1127C102.867 23.4798 102.949 23.8469 102.965 24.214C102.965 24.2299 102.965 24.2619 102.965 24.2778C102.965 24.2778 102.965 24.2778 102.965 24.2938C102.949 24.8045 102.785 25.3153 102.508 25.7462C102.312 26.0655 102.034 26.3528 101.724 26.5922C101.07 27.071 100.221 27.3423 99.2737 27.2306C99.2573 27.2306 99.2247 27.2306 99.2083 27.2306C99.2083 27.2306 99.2083 27.2306 99.192 27.2306C98.7837 27.1668 98.359 27.1029 97.967 27.0072C95.811 26.5283 93.9653 25.5387 92.3647 24.5172C92.283 24.1661 92.283 23.8309 92.3973 23.4638C92.43 23.4159 92.4627 23.368 92.4953 23.3202C92.528 23.2723 92.5443 23.2244 92.577 23.1925C92.6913 22.9531 92.773 22.6977 92.8383 22.4423C92.7403 22.6019 92.626 22.7615 92.5117 22.9052C92.234 23.2882 91.9237 23.6553 91.6133 23.9746C91.5643 24.0224 91.5153 24.0703 91.4663 24.1342Z" fill="white"/>
<path d="M115.248 62.5207L115.215 62.4409C115.395 62.1855 115.575 61.7705 115.656 61.4354V61.4194C116.359 61.4354 116.865 61.7227 117.437 61.994C117.371 61.978 117.322 61.994 117.257 61.994C117.224 61.994 117.192 61.994 117.159 62.01C117.094 62.01 117.045 62.01 116.979 62.0259C116.898 62.0578 116.8 62.0578 116.718 62.0738C116.587 62.1057 116.473 62.1376 116.326 62.1696C116.228 62.2015 116.13 62.2334 116.032 62.2653C115.754 62.3611 115.493 62.4409 115.248 62.5207ZM109.646 62.9038C109.662 62.9038 109.662 62.9038 109.662 62.9038C109.662 62.9038 109.662 62.9038 109.646 62.9038ZM106.428 58.0516C106.297 57.9239 106.167 57.8282 106.036 57.7324V57.7164C105.938 57.6366 105.824 57.5568 105.726 57.493C102.818 55.418 99.3229 53.8379 96.5299 51.6512L96.6442 51.5235C96.5626 50.5818 96.1706 49.4007 95.7296 48.2196C95.3376 47.1343 94.9129 46.017 94.7006 45.0274C94.6189 44.7082 94.5209 44.389 94.4229 44.0857H94.4066C93.8676 45.0274 92.4629 45.6978 91.6462 46.5597C90.4539 47.9483 90.9766 49.3369 91.3522 50.9968C92.6099 56.5513 97.3139 58.6581 101.708 61.4832C103.798 62.8878 109.074 66.0162 110.952 62.7282C111.54 63.9732 113.484 64.9149 114.889 64.9149C116.179 64.9628 116.832 64.867 117.551 65.4256C117.551 65.4256 117.551 65.4416 117.567 65.4416C117.731 65.4735 117.91 65.5214 118.106 65.5693C118.123 65.5693 118.123 65.5852 118.155 65.5852C118.286 65.6172 118.417 65.665 118.564 65.7289C118.662 65.7608 118.743 65.7768 118.841 65.8247H118.858C118.939 65.8566 119.005 65.8725 119.086 65.9204C119.103 65.9204 119.103 65.9204 119.103 65.9204C119.201 65.9523 119.299 66.0162 119.38 66.0641C120.181 66.511 120.638 66.6387 121.193 65.8247L121.21 65.7768C121.259 65.7927 121.291 65.8087 121.324 65.8247C121.52 65.7927 121.683 65.8247 121.847 65.7449L122.026 65.2181C121.814 65.0266 121.569 64.8351 121.357 64.6595C121.259 64.5478 121.128 64.436 121.014 64.3084C121.03 64.3722 121.046 64.452 121.063 64.4999C120.997 64.4041 120.916 64.2764 120.85 64.1328C120.605 63.7018 120.311 63.0953 120.083 62.808C119.903 62.6005 119.691 62.4249 119.511 62.2175C119.511 62.1536 119.511 62.0898 119.511 62.0259C119.184 61.6588 118.841 61.2917 118.482 60.9246C118.041 60.4937 117.584 60.0627 117.061 59.6796C115.248 59.7275 113.843 60.366 112.243 60.9086C112.096 60.9725 111.932 61.0204 111.769 61.0683C111.622 61.0683 111.508 61.0683 111.377 61.0523C111.328 61.0363 111.263 61.0363 111.23 61.0204C110.658 60.9246 110.103 60.7171 109.58 60.4139C109.466 60.35 109.352 60.2862 109.237 60.2223C108.862 59.9829 108.502 59.7275 108.143 59.4562C107.555 58.9774 106.967 58.4826 106.428 58.0516Z" fill="#F5A776"/>
<path d="M93.0189 15.0683C92.6106 14.6533 91.2549 14.797 91.5653 15.9143C91.7939 16.7921 91.8919 18.7234 92.7739 18.9628C92.9536 19.0107 93.1659 18.9947 93.3946 18.883C93.5416 19.4416 93.8029 20.1918 94.4726 20.8622C94.4726 20.8781 94.4726 20.8781 94.4726 20.8941C95.0279 21.2133 95.6323 21.5485 96.2856 21.8358C96.3346 21.6443 96.3673 21.4687 96.3836 21.2931C96.4979 20.527 96.4326 19.8247 96.6613 18.7713C96.8246 17.9413 97.0859 17.3507 96.9716 16.6006C96.7919 15.3716 96.5796 15.3237 97.0369 14.366C97.0369 14.366 97.0043 13.7276 96.8246 12.8497C96.4489 12.8657 96.0569 12.8497 95.6813 12.7859C95.5506 13.3445 95.3546 13.8553 95.1749 14.4937C94.9789 15.18 94.6033 15.7227 94.4726 16.7283C94.4236 17.1433 94.4073 17.638 94.4726 18.2446C94.0316 17.9253 93.6233 17.5902 93.2313 17.239C93.1659 16.409 93.1006 15.5631 93.0189 15.0683Z" fill="#F5A776"/>
<path d="M92.0226 20.4312C91.9409 20.5269 91.8593 20.6227 91.7939 20.7344C91.8919 20.7983 92.0063 20.8621 92.1206 20.91C92.0716 20.7504 92.0553 20.5908 92.0226 20.4312Z" fill="#37344D"/>
<path d="M92.398 23.4639C92.2836 23.831 92.2836 24.1662 92.3653 24.5173C93.966 25.5388 95.8116 26.5284 97.9676 27.0072C98.3596 27.103 98.7843 27.1669 99.1926 27.2307C99.209 27.2307 99.209 27.2307 99.209 27.2307C99.2253 27.2307 99.258 27.2307 99.2743 27.2307C100.222 27.3424 101.071 27.0711 101.724 26.5923C102.035 26.3528 102.312 26.0655 102.508 25.7463C102.786 25.3154 102.949 24.8046 102.966 24.2939C102.966 24.2779 102.966 24.2779 102.966 24.2779C102.949 24.246 102.949 24.23 102.933 24.1981C102.949 24.2141 102.949 24.2141 102.966 24.2141C102.949 23.847 102.868 23.4798 102.688 23.1127C102.606 22.9531 102.508 22.7935 102.394 22.6499C101.904 22.8574 101.332 23.017 100.875 23.0968C100.81 23.1127 100.744 23.1127 100.679 23.1127C100.663 23.1287 100.663 23.1287 100.646 23.1287C100.597 23.1287 100.565 23.1447 100.516 23.1447C100.401 23.1447 100.303 23.1606 100.222 23.1447C99.748 23.1287 97.9676 22.586 96.2853 21.8359C95.632 21.5486 95.0276 21.2134 94.4723 20.8942C94.4723 20.8782 94.4723 20.8782 94.4723 20.8622C93.8026 20.1919 93.5413 19.4417 93.3943 18.8831C93.1656 18.9948 92.9533 19.0107 92.7736 18.9629C92.7573 19.1704 92.7573 19.3938 92.7246 19.6173C92.839 19.745 92.9533 19.9046 93.1003 20.0482C93.1003 20.3674 93.0676 20.7186 93.035 21.0378C93.0023 21.3251 92.9696 21.6284 92.9533 21.8678C92.9206 22.0593 92.888 22.2349 92.839 22.4424C92.7736 22.6978 92.692 22.9531 92.5776 23.1925C92.545 23.2245 92.5286 23.2724 92.496 23.3202C92.4633 23.3681 92.4306 23.416 92.398 23.4639Z" fill="#F39B6E"/>
<path d="M93.9817 43.0002C93.8183 43.2077 93.655 43.3992 93.459 43.5748C93.6713 43.4152 93.8673 43.2556 94.0633 43.096C94.047 43.0481 94.0307 43.0002 94.0143 42.9683C94.0143 42.9842 93.998 42.9842 93.9817 43.0002Z" fill="#F39B6E"/>
<path d="M103.39 22.0751C103.57 21.9155 103.684 21.7399 103.7 21.5484C103.749 21.3409 103.798 21.1334 103.815 20.9419C103.962 20.1917 103.929 19.4894 104.011 18.5956C104.043 18.2923 104.092 17.9731 104.158 17.622C104.19 17.4145 104.239 17.2229 104.272 17.0474C104.288 16.9676 104.305 16.8877 104.321 16.8239C104.386 16.4568 104.468 16.1376 104.484 15.7864C104.517 15.563 104.533 15.3395 104.517 15.1161C104.501 15.0682 104.484 15.0363 104.501 14.9724C104.337 13.488 104.109 13.4402 104.582 12.259C104.582 12.259 104.533 10.9183 104.19 9.41797C104.092 10.5831 102.753 11.3812 102.002 12.0835C102.1 11.7483 102.263 11.2695 102.41 10.9502C101.953 11.5727 101.299 12.0994 100.891 12.4825C100.401 12.8815 99.2415 13.6477 98.6208 13.6477C98.5718 13.1688 99.0945 12.5463 99.3232 12.1154C98.5065 12.4027 97.6735 12.7698 96.8242 12.8496C97.0038 13.7275 97.0365 14.3659 97.0365 14.3659C96.5792 15.3236 96.7915 15.3714 96.9712 16.6004C97.0855 17.3506 96.8242 17.9412 96.6608 18.7712C96.4322 19.8246 96.4975 20.5269 96.3832 21.293C96.3668 21.4686 96.3342 21.6441 96.2852 21.8357C97.9675 22.5858 99.7478 23.1285 100.221 23.1445C100.303 23.1604 100.401 23.1445 100.515 23.1445C100.564 23.1445 100.597 23.1285 100.646 23.1285C100.662 23.1285 100.662 23.1285 100.679 23.1126C100.744 23.1126 100.809 23.1126 100.875 23.0966C101.332 23.0168 101.904 22.8572 102.394 22.6497C102.443 22.6337 102.492 22.6018 102.524 22.5858C102.606 22.5539 102.688 22.522 102.753 22.4901C103.014 22.3624 103.227 22.2187 103.39 22.0751Z" fill="#F7B687"/>
<path d="M102.933 24.198C102.949 24.2299 102.949 24.2459 102.965 24.2778C102.965 24.2618 102.965 24.2299 102.965 24.214C102.949 24.214 102.949 24.214 102.933 24.198Z" fill="#CBE6F2"/>
<path d="M104.321 16.8241C104.305 16.888 104.289 16.9678 104.272 17.0476C105.416 17.6062 106.771 19.8408 107.376 20.7186C108.78 22.7457 109.744 24.9962 110.642 27.3425C111.214 28.8588 111.606 30.4709 111.851 32.0989C114.154 31.3806 116.702 28.9067 116.62 26.4966C115.967 25.8262 115.297 25.1718 114.742 24.4216C113.697 23.1128 112.733 21.804 111.688 20.559L111.671 20.575C111.149 19.7929 110.593 18.9948 110.054 18.2287C109.989 18.133 109.907 18.0212 109.826 17.9414C109.597 17.6382 109.336 17.3509 109.058 17.0955C108.568 16.6326 108.013 16.2655 107.376 16.074C106.526 16.1059 105.138 16.489 104.321 16.8241Z" fill="#00694B"/>
<path d="M106.068 43.2236C106.068 43.2555 106.068 43.3034 106.068 43.3513C106.085 43.2715 106.117 43.2236 106.134 43.1438C106.117 43.1757 106.085 43.1917 106.068 43.2236Z" fill="#82283B"/>
<path d="M107.375 66.0798C107.179 66.4948 107.816 67.4844 108.061 67.7079C107.832 67.4046 107.652 67.0215 107.538 66.5746C108.061 66.7981 108.632 67.0215 109.22 67.1492C109.106 67.0056 109.024 66.7981 108.975 66.5746C108.453 66.4789 107.914 66.3033 107.375 66.0798Z" fill="#394041"/>
<path d="M106.429 58.0516C106.968 58.4825 107.556 58.9773 108.144 59.4562C108.454 59.3125 108.764 59.1689 109.091 59.0093C111.574 57.8122 114.367 56.1682 115.575 53.8538C115.592 53.8379 115.608 53.8059 115.624 53.774V53.7581C115.396 53.1994 115.167 52.6727 114.922 52.146C113.223 55.2105 109.597 56.6789 106.429 58.0516Z" fill="#E6E6E6"/>
<path d="M109.091 59.0092C108.764 59.1688 108.454 59.3124 108.144 59.4561C108.503 59.7274 108.862 59.9828 109.238 60.2222L110.398 59.5678L118.27 55.1626C117.372 54.8593 116.506 54.4124 115.69 53.9176C115.657 53.9016 115.624 53.8857 115.575 53.8538C114.367 56.1681 111.574 57.8121 109.091 59.0092Z" fill="#252424"/>
<path d="M110.952 59.7912C110.92 59.7912 110.887 59.7752 110.854 59.7593C110.871 59.7593 110.903 59.7433 110.936 59.7273C110.936 59.7593 110.952 59.7912 110.952 59.7912ZM120.85 55.2104C120.867 55.1944 120.883 55.1784 120.916 55.1625L120.948 55.1306C120.736 54.7634 120.524 54.3644 120.328 53.9973L118.27 55.1625L110.397 59.5677L109.237 60.2221C109.352 60.286 109.466 60.3498 109.58 60.4137C110.103 60.7169 110.658 60.9244 111.23 61.0202C111.263 60.9883 111.312 60.9723 111.344 60.9563C111.589 60.8127 111.851 60.7488 112.079 60.7808C112.014 60.7648 111.949 60.7329 111.867 60.701C111.949 60.6531 112.03 60.6212 112.096 60.5733C114.791 59.057 118.106 57.1257 120.85 55.2104Z" fill="#394041"/>
<path d="M110.854 59.7592C110.887 59.7752 110.92 59.7911 110.952 59.7911C110.952 59.7911 110.936 59.7592 110.936 59.7273C110.903 59.7433 110.871 59.7592 110.854 59.7592Z" fill="#839095"/>
<path d="M111.229 61.0203C111.262 61.0363 111.327 61.0363 111.376 61.0523C111.507 61.0682 111.621 61.0682 111.768 61.0682C111.932 61.0203 112.095 60.9725 112.242 60.9086C113.843 60.3659 115.247 59.7275 117.06 59.6796C117.583 60.0627 118.04 60.4936 118.481 60.9246C119.886 60.0467 121.47 58.9454 122.973 57.892C122.973 57.892 122.973 57.9239 122.989 57.9239C123.3 57.7004 123.855 57.461 124.116 57.1418C123.937 56.6949 123.79 56.232 123.643 55.7532C123.626 55.7213 123.626 55.7053 123.61 55.6734C123.365 55.0669 123.071 54.5242 122.712 54.0134C122.369 54.2369 122.058 54.4763 121.699 54.6998C121.438 54.8594 121.176 55.003 120.915 55.1626C120.882 55.1786 120.866 55.1945 120.85 55.2105C118.106 57.1258 114.79 59.0571 112.095 60.5734C112.03 60.6213 111.948 60.6532 111.866 60.7011C111.948 60.733 112.013 60.765 112.079 60.7809C111.85 60.749 111.589 60.8128 111.344 60.9565C111.311 60.9725 111.262 60.9884 111.229 61.0203Z" fill="#687371"/>
<path d="M111.393 66.6704C111.361 66.6704 111.328 66.6867 111.312 66.6867C111.328 66.6867 111.344 66.7031 111.377 66.7031C111.377 66.6867 111.393 66.6867 111.393 66.6704Z" fill="#1F1F22"/>
<path d="M117.567 65.4414C117.551 65.4414 117.551 65.4255 117.551 65.4255C117.469 65.4095 117.404 65.3936 117.322 65.3936C117.355 65.4255 117.404 65.4734 117.437 65.5053C117.894 65.8724 118.302 66.3033 118.727 66.7024C118.939 66.8939 119.152 67.1014 119.38 67.261C119.364 67.3568 119.364 67.4046 119.364 67.4206C119.364 67.4206 119.413 67.5164 119.511 67.66C119.511 67.66 119.495 67.66 119.495 67.676C119.299 67.7718 119.103 67.8516 118.923 67.8994C118.498 68.0271 118.123 67.9792 117.616 67.7239C117.322 67.4206 116.947 67.1652 116.571 66.9418C116.293 66.7662 115.999 66.6066 115.705 66.4629C115.395 66.3033 115.068 66.1597 114.791 66.016C113.647 66.0958 112.52 66.4789 111.393 66.6704C111.393 66.6864 111.377 66.6864 111.377 66.7024C114.317 67.9154 117.388 69.3998 120.05 70.5809L121.847 65.7447C121.683 65.8245 121.52 65.7926 121.324 65.8245C121.291 65.8085 121.259 65.7926 121.21 65.7766L121.193 65.8245C120.638 66.6385 120.181 66.5108 119.38 66.0639C119.299 66.016 119.201 65.9522 119.103 65.9203C119.103 65.9203 119.103 65.9203 119.086 65.9203C119.005 65.8724 118.939 65.8564 118.858 65.8245H118.841C118.613 65.7447 118.384 65.6809 118.155 65.5851C118.123 65.5851 118.123 65.5691 118.106 65.5691C117.91 65.5212 117.731 65.4734 117.567 65.4414Z" fill="#343331"/>
<path d="M111.997 34.046C111.997 34.5089 111.997 34.9717 111.997 35.4346C112.046 35.5463 112.095 35.6581 112.16 35.7698C112.16 35.1952 112.128 34.6206 112.079 34.03C112.046 34.046 112.03 34.046 111.997 34.046Z" fill="#F39B6E"/>
<path d="M111.851 32.0989C111.965 32.7374 112.03 33.3918 112.079 34.0302C112.553 33.9983 113.01 33.8387 113.451 33.5992C114.154 33.2162 114.791 32.6575 115.346 32.1468C115.82 31.6839 116.653 30.7901 117.241 29.8963C117.257 29.8803 117.257 29.8803 117.257 29.8644C117.682 29.21 117.976 28.5556 117.878 28.0608L117.959 27.9969C117.551 27.4702 117.094 26.9754 116.62 26.4966C116.702 28.9067 114.154 31.3807 111.851 32.0989Z" fill="#E6E6E6"/>
<path d="M122.712 54.0134C123.071 54.5241 123.365 55.0668 123.61 55.6733C123.627 55.7053 123.627 55.7212 123.643 55.7531C123.79 56.232 123.937 56.6948 124.117 57.1418C124.149 57.2216 124.182 57.2854 124.198 57.3652C124.313 57.6685 124.46 57.9717 124.59 58.291L125.048 57.046L125.783 55.0668L125.864 54.8593C124.852 53.1515 123.627 51.3958 122.581 49.6879C121.373 47.7247 119.886 45.3944 119.217 43.2237C118.923 42.4097 119.364 40.5901 119.004 40.0155C118.776 39.6484 117.877 39.3611 117.502 39.0579C116.767 38.4035 114.594 35.8657 114.823 34.7644C115.019 33.7748 117.093 32.3383 118.139 31.5402C117.877 31.0454 117.616 30.5666 117.355 30.0718C117.355 30.0559 117.338 30.0399 117.322 30.0239C117.306 29.976 117.273 29.9282 117.24 29.8962C116.652 30.7901 115.819 31.6839 115.346 32.1467C114.79 32.6575 114.153 33.2161 113.451 33.5992C113.01 33.8386 112.553 33.9982 112.079 34.0302C112.128 34.6207 112.161 35.1953 112.161 35.7699C112.357 36.1849 112.536 36.6158 112.749 37.0149C113.026 37.5416 113.32 38.0683 113.696 38.5471C114.447 39.5048 115.721 40.3028 116.228 41.3244L116.326 41.3084C116.424 41.4999 116.489 41.6915 116.603 41.899C117.306 43.7983 117.91 45.9531 118.759 47.9482C119.282 49.1612 119.87 50.3104 120.638 51.3C121.095 51.9065 121.569 52.4652 122.026 53.0557C122.255 53.359 122.5 53.6782 122.712 54.0134Z" fill="#F39B6E"/>
<path d="M122.255 39.457C122.255 39.441 122.255 39.425 122.255 39.425C122.255 39.425 122.255 39.441 122.255 39.457ZM114.823 34.7644C114.595 35.8657 116.767 38.4035 117.502 39.0579C117.878 39.3612 118.776 39.6485 119.005 40.0156C119.364 40.5902 118.923 42.4098 119.217 43.2238C119.887 45.3945 121.373 47.7248 122.582 49.688C123.627 51.3958 124.852 53.1516 125.865 54.8594L125.881 54.8275L128.364 53.4389C127.988 52.5131 127.71 51.5714 127.482 50.6138C127.057 49.0176 126.73 47.4056 126.077 45.9052C125.146 43.5909 123.79 41.1488 122.304 38.9462C121.994 38.5632 121.683 38.1801 121.406 37.7811L121.471 37.7491C121.242 37.4299 120.997 37.1107 120.769 36.8074C119.936 35.0358 119.054 33.28 118.139 31.5403C117.094 32.3383 115.019 33.7748 114.823 34.7644Z" fill="#F5A776"/>
<path d="M115.216 62.4407L115.248 62.5205C115.493 62.4407 115.755 62.3609 116.032 62.2651C116.13 62.2332 116.228 62.2013 116.326 62.1693C116.473 62.1374 116.588 62.1055 116.718 62.0736C116.8 62.0576 116.898 62.0576 116.98 62.0257C117.045 62.0097 117.094 62.0097 117.159 62.0097C117.192 61.9938 117.225 61.9938 117.257 61.9938C117.323 61.9938 117.372 61.9778 117.437 61.9938C116.865 61.7224 116.359 61.4352 115.657 61.4192V61.4352C115.575 61.7703 115.395 62.1853 115.216 62.4407Z" fill="#687371"/>
<path d="M117.306 65.3936C117.355 65.4255 117.404 65.4574 117.436 65.5053C117.404 65.4734 117.355 65.4255 117.322 65.3936C117.322 65.3936 117.322 65.3936 117.306 65.3936Z" fill="#343331"/>
<path d="M117.437 65.5054C117.861 65.9204 118.286 66.3194 118.711 66.7184C119.005 66.9897 119.25 67.3569 119.495 67.6761C119.495 67.6601 119.511 67.6601 119.511 67.6601C119.413 67.5165 119.364 67.4207 119.364 67.4207C119.364 67.4047 119.364 67.3569 119.38 67.2611C119.152 67.1015 118.939 66.894 118.727 66.7024C118.302 66.3034 117.894 65.8725 117.437 65.5054Z" fill="#F39B6E"/>
<path d="M118.564 65.7289C118.417 65.665 118.286 65.6171 118.155 65.5852C118.384 65.681 118.613 65.7448 118.841 65.8246C118.743 65.7767 118.662 65.7608 118.564 65.7289Z" fill="#F7B687"/>
<path d="M125.864 54.8593L125.783 55.0668L125.048 57.046L124.59 58.291L124.492 58.5783L122.026 65.2181L121.846 65.7448L120.05 70.581L118.857 73.837L120.344 74.651L127.514 55.2424L152.651 41.3084C153.027 40.3827 151.279 40.7338 151.279 40.7338L130.536 52.2417L129.392 52.8642L128.363 53.4388L125.881 54.8274L125.864 54.8593Z" fill="#6D7E7C"/>
<path d="M122.99 57.9239C122.974 57.9239 122.974 57.8919 122.974 57.8919C121.471 58.9454 119.887 60.0467 118.482 60.9246C118.842 61.2917 119.185 61.6588 119.511 62.0259C119.511 62.0897 119.511 62.1536 119.511 62.2174C119.691 62.4249 119.903 62.6005 120.083 62.808C120.312 63.0953 120.606 63.7018 120.851 64.1327C120.9 64.1966 120.965 64.2604 121.014 64.3083C121.128 64.436 121.259 64.5477 121.357 64.6594C121.569 64.835 121.814 65.0265 122.027 65.2181L124.493 58.5783L124.591 58.291C124.46 57.9718 124.313 57.6685 124.199 57.3652C124.134 57.3972 124.085 57.4291 124.019 57.477C123.905 57.5568 123.791 57.6366 123.676 57.7004C123.448 57.876 123.235 58.0516 123.072 58.1952V58.0835C123.039 58.0356 123.007 57.9877 122.99 57.9239Z" fill="#343331"/>
<path d="M122.027 53.0557L120.328 53.9974C120.524 54.3645 120.736 54.7635 120.949 55.1306L120.916 55.1625C121.177 55.0029 121.439 54.8593 121.7 54.6997C122.059 54.4762 122.37 54.2368 122.713 54.0133C122.5 53.6781 122.255 53.3589 122.027 53.0557Z" fill="#394041"/>
<path d="M127.514 55.2423L120.344 74.651L126.942 70.8043L145.154 60.2541V60.2381L152.912 41.1487L152.651 41.3083L127.514 55.2423Z" fill="#979898"/>
<path d="M121.014 64.3081C120.965 64.2603 120.9 64.1964 120.851 64.1326C120.916 64.2762 120.998 64.4039 121.063 64.4997C121.047 64.4518 121.03 64.372 121.014 64.3081Z" fill="#F7B687"/>
<path d="M122.99 57.9237C123.007 57.9875 123.039 58.0354 123.072 58.0833V58.195C123.235 58.0514 123.448 57.8758 123.676 57.7002C123.791 57.6364 123.905 57.5566 124.019 57.4768C124.085 57.4289 124.134 57.397 124.199 57.3651C124.183 57.2852 124.15 57.2214 124.117 57.1416C123.856 57.4608 123.301 57.7002 122.99 57.9237Z" fill="#343331"/>
<path d="M127.481 50.6135C127.71 51.5712 127.988 52.5129 128.363 53.4386L129.392 52.864L130.536 52.2416C129.948 51.9383 129.409 51.635 128.935 51.3956C128.331 51.0604 127.841 50.7891 127.481 50.6135Z" fill="#394041"/>
<path d="M132.055 115.894C132.071 115.894 132.071 115.91 132.071 115.91C137.853 119.134 140.826 122.295 146.167 123.907C147.31 123.907 149.466 122.742 150.511 122.311C150.511 122.279 150.511 122.263 150.528 122.247C150.413 121.736 150.364 121.002 150.25 120.3C150.168 119.725 150.038 119.15 149.809 118.704C149.58 118.273 149.237 117.969 148.747 117.937C147.816 117.427 147.016 116.788 146.265 116.086C144.713 116.134 142.541 117.475 142.214 118.975C140.924 118.368 139.519 118.001 138.229 117.363C137.085 116.82 135.877 116.038 134.913 115.24C134.145 115.144 133.41 114.985 132.839 114.777L132.79 114.873C132.496 115.176 132.349 115.607 132.055 115.894Z" fill="#348DA2"/>
<path d="M132.072 115.91C132.072 116.357 132.039 116.772 132.137 117.203H132.153C134.456 119.039 136.988 120.571 139.422 122.231C141.235 123.476 143.407 124.785 145.612 125.327C147.131 125.726 148.748 125.136 150.038 124.21L149.989 124.162C150.234 123.652 150.463 122.885 150.512 122.311C149.467 122.742 147.311 123.907 146.167 123.907C140.826 122.295 137.854 119.135 132.072 115.91Z" fill="#22363C"/>
<path d="M139.062 115.176C138 115.431 136.383 115.431 134.913 115.24C135.877 116.038 137.085 116.82 138.229 117.363C139.519 118.001 140.924 118.368 142.214 118.975C142.541 117.474 144.713 116.134 146.265 116.086C145.432 115.304 144.664 114.442 143.913 113.612C143.651 113.325 143.374 113.021 143.112 112.75C141.74 113.309 140.581 114.825 139.062 115.176Z" fill="#F39B6E"/>
<path d="M143.685 113.069C143.75 113.261 143.832 113.436 143.913 113.612C144.665 114.442 145.432 115.304 146.265 116.086C147.017 116.788 147.817 117.427 148.748 117.937C149.238 117.969 149.581 118.272 149.81 118.703C150.283 118.448 150.839 118.017 151.247 117.65C151.116 116.996 150.757 116.437 150.234 116.182C147.703 114.729 145.677 115.24 143.734 113.053L143.685 113.069Z" fill="#2C6D7D"/>
<path d="M149.81 118.704C150.038 119.15 150.169 119.725 150.251 120.3C151.165 119.565 151.427 118.512 151.247 117.65C150.839 118.017 150.283 118.448 149.81 118.704Z" fill="#22363C"/>
<path d="M88.1836 132.925L89.7679 133.819L114.121 147.561L117.453 149.445L136.236 160.043L138.817 158.59L142.165 156.691L215.927 115.08L219.275 113.181L238.728 102.216L240.312 101.322L192.26 74.1882L88.1836 132.925Z" fill="#F59E24"/>
<path d="M114.121 154.121C114.121 154.728 114.872 155.207 115.787 155.207C116.702 155.207 117.453 154.728 117.453 154.121V151.232L116.816 150.881L115.885 150.338L114.121 149.349V154.121Z" fill="#6C3D26"/>
<path d="M117.452 151.232V151.408C117.632 151.424 117.795 151.472 117.942 151.504L117.452 151.232Z" fill="#95BFC0"/>
<path d="M122.532 154.105L122.467 154.057L120.458 152.924C121.34 154.009 120.997 155.318 119.429 156.196C117.42 157.329 114.153 157.329 112.144 156.196C110.135 155.079 110.135 153.227 112.144 152.094C112.716 151.775 113.402 151.535 114.121 151.408V150.466C112.977 150.626 111.916 150.945 111.017 151.456C109.613 152.254 108.943 153.339 109.057 154.392C109.155 155.27 109.809 156.148 111.017 156.835C113.647 158.319 117.926 158.319 120.556 156.835C121.765 156.148 122.418 155.27 122.516 154.392C122.532 154.281 122.532 154.185 122.532 154.105Z" fill="#F5C96D"/>
<path d="M120.556 157.313C121.977 156.515 122.63 155.446 122.516 154.393C122.418 155.27 121.765 156.148 120.556 156.835C117.926 158.319 113.647 158.319 111.017 156.835C109.809 156.148 109.155 155.27 109.057 154.393C108.943 155.446 109.613 156.515 111.017 157.313C113.647 158.798 117.926 158.798 120.556 157.313Z" fill="#C9A55A"/>
<path d="M138.816 166.475V169.204C138.816 169.795 139.568 170.29 140.499 170.29C141.413 170.29 142.165 169.795 142.165 169.204V158.494L138.816 160.378V166.475Z" fill="#6C3D26"/>
<path d="M138.817 166.475C138.098 166.619 137.412 166.842 136.841 167.177C134.832 168.294 134.832 170.146 136.841 171.279C138.866 172.412 142.116 172.412 144.142 171.279C146.151 170.146 146.151 168.294 144.125 167.177C143.554 166.842 142.884 166.619 142.165 166.475V169.204C142.165 169.795 141.414 170.29 140.499 170.29C139.568 170.29 138.817 169.795 138.817 169.204V166.475Z" fill="#BD6028"/>
<path d="M144.142 171.279C142.116 172.413 138.866 172.413 136.841 171.279C134.832 170.146 134.832 168.295 136.841 167.177C137.412 166.842 138.098 166.619 138.817 166.475V165.549C137.69 165.709 136.612 166.028 135.73 166.539C134.309 167.337 133.639 168.406 133.77 169.46C133.868 170.354 134.521 171.231 135.73 171.918C138.36 173.402 142.639 173.402 145.269 171.918C146.461 171.231 147.131 170.354 147.229 169.46C147.343 168.406 146.69 167.337 145.269 166.539C144.37 166.028 143.292 165.709 142.165 165.549V166.475C142.884 166.619 143.554 166.842 144.125 167.177C146.151 168.295 146.151 170.146 144.142 171.279Z" fill="#F5C96D"/>
<path d="M135.73 172.397C138.36 173.881 142.639 173.881 145.269 172.397C146.69 171.598 147.343 170.529 147.229 169.46C147.131 170.354 146.461 171.231 145.269 171.918C142.639 173.402 138.36 173.402 135.73 171.918C134.521 171.231 133.868 170.354 133.77 169.46C133.639 170.529 134.309 171.598 135.73 172.397Z" fill="#C9A55A"/>
<path d="M215.927 120.683V123.412C215.927 124.003 216.678 124.481 217.593 124.481C218.524 124.481 219.275 124.003 219.275 123.412V114.985L215.927 116.868V120.683Z" fill="#6C3D26"/>
<path d="M221.235 121.369C220.663 121.034 219.993 120.81 219.275 120.683V123.412C219.275 124.003 218.523 124.481 217.592 124.481C216.678 124.481 215.926 124.003 215.926 123.412V120.683C215.208 120.81 214.522 121.034 213.95 121.369C211.941 122.502 211.941 124.354 213.95 125.471C215.959 126.62 219.226 126.62 221.235 125.471C223.244 124.354 223.244 122.502 221.235 121.369Z" fill="#BD6028"/>
<path d="M219.275 120.683C219.994 120.81 220.663 121.034 221.235 121.369C223.244 122.502 223.244 124.354 221.235 125.471C219.226 126.62 215.959 126.62 213.95 125.471C211.941 124.354 211.941 122.502 213.95 121.369C214.522 121.034 215.208 120.81 215.927 120.683V119.741C214.8 119.901 213.722 120.236 212.823 120.731C211.402 121.545 210.749 122.614 210.863 123.667C210.978 124.561 211.631 125.423 212.823 126.109C215.469 127.61 219.732 127.61 222.362 126.109C223.571 125.423 224.224 124.561 224.322 123.667C224.436 122.614 223.783 121.545 222.362 120.731C221.48 120.236 220.402 119.901 219.275 119.741V120.683Z" fill="#F5C96D"/>
<path d="M224.322 123.667C224.224 124.561 223.571 125.423 222.362 126.11C219.732 127.61 215.469 127.61 212.823 126.11C211.631 125.423 210.978 124.561 210.863 123.667C210.749 124.721 211.402 125.79 212.823 126.588C215.469 128.089 219.732 128.089 222.362 126.588C223.783 125.79 224.436 124.721 224.322 123.667Z" fill="#C9A55A"/>
<path d="M138.817 158.59L136.236 160.043L117.453 149.445L114.121 147.561L89.7679 133.819L88.1836 132.925V134.713L114.121 149.349L115.885 150.338L116.816 150.881L117.453 151.232L117.943 151.504C117.796 151.472 117.633 151.424 117.453 151.408V154.121C117.453 154.728 116.702 155.207 115.787 155.207C114.872 155.207 114.121 154.728 114.121 154.121V151.408C113.402 151.536 112.716 151.775 112.145 152.094C110.136 153.227 110.136 155.079 112.145 156.196C114.154 157.329 117.42 157.329 119.429 156.196C120.997 155.318 121.34 154.01 120.458 152.924L122.467 154.057L122.533 154.105L136.236 161.83L138.817 160.378L142.165 158.495L215.927 116.868L219.275 114.985L240.312 103.11V101.322L238.728 102.216L219.275 113.181L215.927 115.08L142.165 156.691L138.817 158.59Z" fill="#BD6028"/>
<path d="M192.211 63.127L182.28 68.7453L192.211 74.3476L202.158 68.7453L192.211 63.127Z" fill="#999FAD"/>
<path d="M192.211 95.0492L202.158 89.4309V68.7454L192.211 74.3477V95.0492Z" fill="#797F8A"/>
<path d="M182.28 89.4309L192.211 95.0492V74.3477L182.28 68.7454V89.4309Z" fill="#ADB3C2"/>
<path d="M184.077 75.4809C184.077 77.4441 185.498 79.8383 187.246 80.8279C188.993 81.8174 190.414 81.0194 190.414 79.0402C190.414 77.077 188.993 74.6669 187.246 73.6933C185.498 72.7037 184.077 73.5017 184.077 75.4809Z" fill="#EEECE6"/>
<path d="M184.828 75.8961C184.828 77.3964 185.906 79.2319 187.245 79.998C188.585 80.7482 189.663 80.1417 189.663 78.6254C189.663 77.1091 188.585 75.2895 187.245 74.5234C185.906 73.7732 184.828 74.3798 184.828 75.8961Z" fill="#7F8591"/>
<path d="M185.399 76.2153C185.399 77.3645 186.232 78.7691 187.245 79.3437C188.258 79.9183 189.091 79.4394 189.091 78.3062C189.091 77.157 188.258 75.7525 187.245 75.1779C186.232 74.6033 185.399 75.0661 185.399 76.2153Z" fill="#5B5D65"/>
<path d="M183.08 84.4192C183.08 87.0048 184.942 90.1651 187.245 91.4739C189.548 92.7668 191.41 91.7134 191.41 89.1117C191.41 86.526 189.548 83.3657 187.245 82.0569C184.942 80.7641 183.08 81.8175 183.08 84.4192Z" fill="#EEECE6"/>
<path d="M183.619 84.7224C183.619 86.9729 185.252 89.7183 187.245 90.8515C189.238 91.9688 190.871 91.059 190.871 88.8085C190.871 86.558 189.238 83.8127 187.245 82.6794C185.252 81.5462 183.619 82.4719 183.619 84.7224Z" fill="#7F8591"/>
<path d="M184.845 85.4088C184.845 86.9092 185.923 88.7287 187.246 89.4789C188.569 90.2291 189.647 89.6225 189.647 88.1222C189.647 86.6219 188.569 84.8023 187.246 84.0521C185.923 83.3019 184.845 83.9085 184.845 85.4088Z" fill="#5B5D65"/>
<path d="M187.082 97.8585L202.697 106.669V90.9633L187.082 82.1528V97.8585Z" fill="#ADB3C2"/>
<path d="M202.697 73.3423L187.082 82.1528L202.697 90.9633L218.295 82.1528L202.697 73.3423Z" fill="#7F8591"/>
<path d="M202.696 106.669L218.295 97.8585V82.1528L202.696 90.9633V106.669Z" fill="#5B5D65"/>
<path d="M187.932 91.4899C187.932 91.8092 188.177 92.2242 188.471 92.3838L201.586 99.7897C201.88 99.9493 202.125 99.8216 202.125 99.4864C202.125 99.1513 201.88 98.7522 201.586 98.5767L188.471 91.1867C188.177 91.0111 187.932 91.1388 187.932 91.4899Z" fill="#5B5D65"/>
<path d="M187.653 91.5698C187.653 91.905 187.898 92.304 188.192 92.4796L201.308 99.8696C201.602 100.045 201.847 99.9015 201.847 99.5823C201.847 99.2471 201.602 98.8321 201.308 98.6725L188.192 91.2666C187.898 91.107 187.653 91.2346 187.653 91.5698Z" fill="#7F8591"/>
<path d="M195.118 100.636C195.281 100.444 195.379 100.157 195.379 99.7897C195.379 98.8001 194.677 97.603 193.795 97.1082C193.468 96.9327 193.158 96.8688 192.913 96.9167C192.864 96.9327 192.831 96.9327 192.782 96.9646L193.011 96.8209L193.027 96.805L193.158 96.7252H193.174C193.452 96.5975 193.828 96.6294 194.236 96.8688C195.102 97.3636 195.82 98.5607 195.82 99.5503C195.82 100.029 195.657 100.364 195.379 100.54C195.347 100.556 195.33 100.572 195.298 100.588L194.987 100.747C195.036 100.715 195.069 100.684 195.118 100.636Z" fill="#7F8591"/>
<path d="M192.554 97.0923C192.619 97.0285 192.701 96.9806 192.783 96.9646C192.832 96.9327 192.864 96.9327 192.913 96.9168C193.158 96.8689 193.469 96.9327 193.795 97.1083C194.677 97.6031 195.38 98.8002 195.38 99.7897C195.38 100.157 195.282 100.444 195.118 100.636C195.069 100.684 195.037 100.715 194.988 100.747C194.939 100.779 194.89 100.811 194.824 100.843C194.547 100.955 194.187 100.907 193.795 100.684C192.93 100.189 192.211 98.9917 192.211 98.0021C192.211 97.5871 192.342 97.2679 192.554 97.0923Z" fill="#C4CCDD"/>
<path d="M198.303 101.641C198.384 101.561 198.433 101.418 198.433 101.242C198.433 100.763 198.09 100.173 197.666 99.9334C197.502 99.8536 197.355 99.8216 197.241 99.8536C197.208 99.8536 197.192 99.8536 197.176 99.8695L197.29 99.8057V99.7897L197.355 99.7578C197.502 99.694 197.682 99.7099 197.878 99.8216C198.303 100.061 198.646 100.636 198.646 101.114C198.646 101.354 198.564 101.514 198.433 101.593C198.417 101.609 198.401 101.609 198.384 101.625L198.254 101.705C198.27 101.689 198.286 101.673 198.303 101.641Z" fill="#7F8591"/>
<path d="M197.062 99.9333C197.094 99.9014 197.127 99.8855 197.176 99.8695C197.192 99.8535 197.209 99.8535 197.241 99.8535C197.356 99.8216 197.503 99.8535 197.666 99.9333C198.091 100.173 198.434 100.763 198.434 101.242C198.434 101.418 198.385 101.561 198.303 101.641C198.287 101.673 198.27 101.689 198.254 101.705C198.221 101.721 198.189 101.737 198.156 101.753C198.025 101.801 197.862 101.785 197.666 101.673C197.241 101.434 196.898 100.859 196.898 100.38C196.898 100.173 196.964 100.013 197.062 99.9333Z" fill="#C4CCDD"/>
<path d="M200.867 103.189C200.949 103.094 200.998 102.95 200.998 102.774C200.998 102.296 200.655 101.721 200.23 101.482C200.067 101.386 199.92 101.354 199.806 101.386C199.789 101.386 199.757 101.386 199.74 101.402L199.855 101.338L199.92 101.29H199.936C200.067 101.226 200.247 101.242 200.443 101.354C200.867 101.593 201.21 102.184 201.21 102.663C201.21 102.886 201.129 103.046 200.998 103.141C200.982 103.141 200.965 103.141 200.949 103.157L200.818 103.237C200.835 103.221 200.851 103.205 200.867 103.189Z" fill="#7F8591"/>
<path d="M199.626 101.466C199.659 101.434 199.708 101.418 199.741 101.402C199.757 101.386 199.79 101.386 199.806 101.386C199.92 101.354 200.067 101.386 200.231 101.482C200.655 101.721 200.998 102.296 200.998 102.774C200.998 102.95 200.949 103.094 200.868 103.189C200.851 103.205 200.835 103.221 200.819 103.237C200.786 103.253 200.753 103.269 200.737 103.285C200.59 103.333 200.427 103.317 200.231 103.205C199.806 102.966 199.463 102.391 199.463 101.912C199.463 101.705 199.528 101.561 199.626 101.466Z" fill="#C4CCDD"/>
<path d="M190.724 97.3317C190.773 97.2838 190.79 97.204 190.79 97.0923C190.79 96.821 190.594 96.4858 190.349 96.3421C190.251 96.2942 190.169 96.2783 190.104 96.2942C190.087 96.2942 190.071 96.2942 190.055 96.2942L190.12 96.2623H190.136L190.169 96.2304C190.251 96.1985 190.365 96.1985 190.479 96.2783C190.724 96.406 190.92 96.7571 190.92 97.0284C190.92 97.1561 190.871 97.2519 190.79 97.2998C190.79 97.3157 190.773 97.3157 190.773 97.3157L190.692 97.3636C190.692 97.3636 190.708 97.3477 190.724 97.3317Z" fill="#7F8591"/>
<path d="M190.005 96.326C190.022 96.31 190.038 96.31 190.054 96.2941C190.071 96.2941 190.087 96.2941 190.103 96.2941C190.169 96.2781 190.25 96.2941 190.348 96.342C190.593 96.4856 190.789 96.8208 190.789 97.0921C190.789 97.2039 190.773 97.2837 190.724 97.3315C190.708 97.3475 190.691 97.3635 190.691 97.3635C190.675 97.3794 190.659 97.3794 190.642 97.3954C190.561 97.4273 190.463 97.4113 190.348 97.3475C190.103 97.2039 189.907 96.8687 189.907 96.5973C189.907 96.4696 189.94 96.3898 190.005 96.326Z" fill="#C4CCDD"/>
<path d="M189.287 96.4379C189.336 96.3741 189.369 96.2943 189.369 96.1985C189.369 95.9112 189.156 95.576 188.911 95.4324C188.83 95.3845 188.732 95.3685 188.666 95.3845C188.65 95.3845 188.634 95.3845 188.634 95.3845L188.699 95.3526L188.732 95.3206C188.813 95.2887 188.928 95.3047 189.042 95.3685C189.287 95.5122 189.483 95.8474 189.483 96.1187C189.483 96.2623 189.434 96.3581 189.369 96.406C189.352 96.406 189.352 96.406 189.336 96.422L189.254 96.4539C189.271 96.4539 189.271 96.4379 189.287 96.4379Z" fill="#7F8591"/>
<path d="M188.569 95.4323C188.585 95.4163 188.601 95.4004 188.634 95.3844C188.634 95.3844 188.65 95.3844 188.667 95.3844C188.732 95.3684 188.83 95.3844 188.912 95.4323C189.157 95.5759 189.369 95.9111 189.369 96.1984C189.369 96.2942 189.336 96.374 189.287 96.4378C189.271 96.4378 189.271 96.4538 189.255 96.4538C189.238 96.4697 189.222 96.4857 189.206 96.4857C189.124 96.5176 189.026 96.5017 188.912 96.4378C188.667 96.3101 188.471 95.959 188.471 95.6877C188.471 95.5759 188.503 95.4802 188.569 95.4323Z" fill="#C4CCDD"/>
<path d="M189.842 90.8833L199.658 96.4218V91.3302L189.842 85.7917V90.8833Z" fill="#E9F5F8"/>
<path d="M198.009 95.0332L199.152 95.6717V95.4323L198.009 94.7778V95.0332Z" fill="#95BFC0"/>
<path d="M198.009 94.6023L199.152 95.2408V95.0013L198.009 94.3469V94.6023Z" fill="#95BFC0"/>
<path d="M198.009 94.1714L199.152 94.8258V94.5704L198.009 93.916V94.1714Z" fill="#95BFC0"/>
<path d="M198.009 93.7883L199.152 94.4268V94.1873L198.009 93.533V93.7883Z" fill="#95BFC0"/>
<path d="M198.009 93.3413L199.152 93.9957V93.7403L198.009 93.0859V93.3413Z" fill="#FDD646"/>
<path d="M198.009 92.9743L199.152 93.6287V93.3893L198.009 92.7349V92.9743Z" fill="#FDD646"/>
<path d="M198.009 92.5754L199.152 93.2298V92.9744L198.009 92.3359V92.5754Z" fill="#FDD646"/>
<path d="M198.009 92.1762L199.152 92.8306V92.5752L198.009 91.9368V92.1762Z" fill="#FDD646"/>
<path d="M198.009 91.8252L199.152 92.4796V92.2242L198.009 91.5698V91.8252Z" fill="#FDD646"/>
<path d="M196.311 94.0119L197.47 94.6663V94.4109L196.311 93.7725V94.0119Z" fill="#95BFC0"/>
<path d="M196.311 93.5807L197.47 94.2352V93.9957L196.311 93.3413V93.5807Z" fill="#95BFC0"/>
<path d="M196.311 93.1658L197.47 93.8042V93.5648L196.311 92.9104V93.1658Z" fill="#95BFC0"/>
<path d="M196.311 92.7827L197.47 93.4212V93.1818L196.311 92.5273V92.7827Z" fill="#95BFC0"/>
<path d="M196.311 92.3359L197.47 92.9744V92.735L196.311 92.0806V92.3359Z" fill="#FDD646"/>
<path d="M196.311 91.9687L197.47 92.6231V92.3677L196.311 91.7292V91.9687Z" fill="#FDD646"/>
<path d="M196.311 91.5697L197.47 92.2241V91.9688L196.311 91.3303V91.5697Z" fill="#FDD646"/>
<path d="M194.48 93.0221L195.64 93.6765V93.4212L194.48 92.7827V93.0221Z" fill="#95BFC0"/>
<path d="M194.48 92.5913L195.64 93.2457V92.9903L194.48 92.3359V92.5913Z" fill="#95BFC0"/>
<path d="M194.48 92.1603L195.64 92.8147V92.5753L194.48 91.9209V92.1603Z" fill="#95BFC0"/>
<path d="M194.48 91.7773L195.64 92.4317V92.1763L194.48 91.5378V91.7773Z" fill="#95BFC0"/>
<path d="M194.48 91.3462L195.64 91.9846V91.7452L194.48 91.0908V91.3462Z" fill="#FDD646"/>
<path d="M194.48 90.9793L195.64 91.6337V91.3783L194.48 90.7239V90.9793Z" fill="#FDD646"/>
<path d="M194.48 90.5801L195.64 91.2345V90.9791L194.48 90.3247V90.5801Z" fill="#FDD646"/>
<path d="M194.48 90.1812L195.64 90.8356V90.5802L194.48 89.9258V90.1812Z" fill="#FDD646"/>
<path d="M192.587 91.9529L193.747 92.6073V92.3519L192.587 91.6975V91.9529Z" fill="#95BFC0"/>
<path d="M192.587 91.5217L193.747 92.1761V91.9208L192.587 91.2664V91.5217Z" fill="#95BFC0"/>
<path d="M192.587 91.0908L193.747 91.7452V91.4899L192.587 90.8354V91.0908Z" fill="#95BFC0"/>
<path d="M192.587 90.7078L193.747 91.3622V91.1068L192.587 90.4524V90.7078Z" fill="#95BFC0"/>
<path d="M192.587 90.2607L193.747 90.9151V90.6598L192.587 90.0054V90.2607Z" fill="#FDD646"/>
<path d="M192.587 89.9097L193.747 90.5641V90.3087L192.587 89.6543V89.9097Z" fill="#FDD646"/>
<path d="M190.74 90.9153L191.9 91.5697V91.3143L190.74 90.6599V90.9153Z" fill="#95BFC0"/>
<path d="M190.74 90.4844L191.9 91.1388V90.8834L190.74 90.229V90.4844Z" fill="#95BFC0"/>
<path d="M190.74 90.0535L191.9 90.7079V90.4525L190.74 89.7981V90.0535Z" fill="#95BFC0"/>
<path d="M190.74 89.6704L191.9 90.3248V90.0694L190.74 89.415V89.6704Z" fill="#95BFC0"/>
<path d="M190.74 89.2235L191.9 89.8779V89.6226L190.74 88.9841V89.2235Z" fill="#FDD646"/>
<path d="M190.74 88.8723L191.9 89.5267V89.2714L190.74 88.6169V88.8723Z" fill="#FDD646"/>
<path d="M190.74 88.4731L191.9 89.1275V88.8722L190.74 88.2178V88.4731Z" fill="#FDD646"/>
<path d="M190.74 88.0742L191.9 88.7287V88.4733L190.74 87.8188V88.0742Z" fill="#FDD646"/>
<path d="M190.74 87.7232L191.9 88.3776V88.1222L190.74 87.4678V87.7232Z" fill="#FDD646"/>
<path d="M220.483 79.4233L210.536 85.0257L220.483 90.628L230.414 85.0257L220.483 79.4233Z" fill="#999FAD"/>
<path d="M220.484 111.329L230.415 105.727V85.0256L220.484 90.628V111.329Z" fill="#797F8A"/>
<path d="M210.536 105.727L220.483 111.329V90.628L210.536 85.0256V105.727Z" fill="#ADB3C2"/>
<path d="M212.35 91.7612C212.35 93.7404 213.754 96.1345 215.502 97.1241C217.266 98.0977 218.671 97.2997 218.671 95.3365C218.671 93.3573 217.266 90.9631 215.502 89.9735C213.754 88.984 212.35 89.782 212.35 91.7612Z" fill="#EEECE6"/>
<path d="M213.085 92.1764C213.085 93.6927 214.179 95.5282 215.502 96.2784C216.842 97.0285 217.936 96.422 217.936 94.9057C217.936 93.4054 216.842 91.5699 215.502 90.8197C214.179 90.0695 213.085 90.676 213.085 92.1764Z" fill="#7F8591"/>
<path d="M213.673 92.5115C213.673 93.6607 214.49 95.0493 215.502 95.6239C216.531 96.1985 217.348 95.7356 217.348 94.5864C217.348 93.4372 216.531 92.0486 215.502 91.474C214.49 90.8994 213.673 91.3623 213.673 92.5115Z" fill="#5B5D65"/>
<path d="M211.337 100.699C211.337 103.301 213.199 106.461 215.502 107.754C217.805 109.063 219.683 108.01 219.683 105.408C219.683 102.806 217.805 99.6459 215.502 98.3531C213.199 97.0443 211.337 98.0977 211.337 100.699Z" fill="#EEECE6"/>
<path d="M211.893 101.003C211.893 103.269 213.51 106.014 215.502 107.132C217.511 108.265 219.128 107.355 219.128 105.089C219.128 102.838 217.511 100.093 215.502 98.9756C213.51 97.8424 211.893 98.7522 211.893 101.003Z" fill="#7F8591"/>
<path d="M213.101 101.705C213.101 103.189 214.179 105.009 215.502 105.759C216.841 106.509 217.919 105.903 217.919 104.402C217.919 102.918 216.841 101.098 215.502 100.348C214.179 99.5981 213.101 100.205 213.101 101.705Z" fill="#5B5D65"/>
<path d="M165.212 96.9008C165.179 96.7731 165.179 96.6454 165.179 96.5337C165.179 96.6295 165.163 96.7252 165.163 96.821C165.179 96.8529 165.179 96.8848 165.212 96.9008Z" fill="#C6C2E0"/>
<path d="M165.195 96.4379C165.195 96.4698 165.195 96.4858 165.179 96.5337C165.179 96.6454 165.179 96.7731 165.211 96.9008C165.244 97.1083 165.309 97.3317 165.44 97.5392C165.636 97.1562 165.979 96.805 166.469 96.5018C167.302 95.975 168.429 95.6877 169.605 95.6239C169.376 95.0174 169.246 94.4268 169.213 93.8682C168.168 93.9799 167.204 94.2672 166.453 94.7301C165.734 95.1929 165.326 95.7356 165.211 96.3102V96.3262C165.211 96.3581 165.211 96.39 165.211 96.4219C165.211 96.4219 165.211 96.4379 165.195 96.4379Z" fill="#6CC8F1"/>
<path d="M165.44 97.5391C165.718 98.0658 166.257 98.5606 167.041 98.9756C167.155 99.0394 167.286 99.0873 167.417 99.1512C166.861 98.8479 166.518 98.4648 166.518 98.0339C166.518 97.1241 167.988 96.4059 169.916 96.2782C169.801 96.0547 169.687 95.8313 169.605 95.6238C168.429 95.6876 167.302 95.9749 166.469 96.5016C165.979 96.8049 165.636 97.156 165.44 97.5391Z" fill="#753936"/>
<path d="M170.471 85.76C170.422 85.1534 170.243 84.5469 170.063 83.9883C169.802 83.1423 169.41 82.4241 168.92 81.7059C168.528 81.1472 168.168 80.5088 168.005 79.8703C167.564 78.0667 167.695 76.2791 168.413 74.6191C167.923 75.481 167.564 76.3589 167.384 77.2527C167.139 78.6094 167.776 80.6365 167.989 81.0993C168.397 81.9932 168.871 82.7114 169.41 83.5254C169.932 84.2596 170.308 85.0098 170.488 85.8398C170.488 85.8078 170.488 85.7759 170.471 85.76Z" fill="#E5D2D6"/>
<path d="M170.487 99.4864C172.202 99.4864 173.59 98.8958 173.59 98.1616C173.59 97.4433 172.202 96.8528 170.487 96.8528C170.471 96.8528 170.454 96.8528 170.454 96.8528C170.667 97.2518 170.895 97.6508 171.14 98.0499C170.781 97.6508 170.487 97.2518 170.242 96.8528C168.641 96.9007 167.367 97.4753 167.367 98.1616C167.367 98.8958 168.772 99.4864 170.487 99.4864Z" fill="#974946"/>
<path d="M171.321 90.2928C170.749 91.3941 170.259 92.671 170.439 93.8361C170.455 93.9798 170.504 94.1554 170.553 94.315C170.537 94.1554 170.537 93.9958 170.553 93.8361C170.635 92.4156 171.664 90.7876 172.187 89.7501C172.644 88.8403 173.248 87.771 173.248 86.7175C173.248 86.2387 173.199 85.7279 173.101 85.2331C173.036 84.9139 172.938 84.5787 172.693 84.0042C172.775 84.2116 172.775 84.4511 172.775 84.6745C172.938 86.6377 172.187 88.553 171.321 90.2928Z" fill="#E5D2D6"/>
<path d="M167.465 101.928C168.315 102.535 169.36 102.886 170.487 102.886C171.794 102.886 172.97 102.407 173.901 101.625C174.391 101.226 174.799 100.731 175.109 100.189C174.946 100.348 174.734 100.508 174.505 100.668C172.594 101.865 169.278 101.897 167.057 100.747C166.485 100.444 166.044 100.109 165.734 99.7418C165.636 99.63 165.554 99.5024 165.473 99.3906C165.554 99.5822 165.636 99.7737 165.734 99.9652C165.914 100.3 166.126 100.62 166.355 100.907C166.632 101.258 166.959 101.561 167.318 101.833C167.351 101.865 167.416 101.897 167.465 101.928Z" fill="#2CA6DE"/>
<path d="M170.504 99.8056C172.709 99.8056 174.489 99.0076 174.489 98.034C174.489 97.0444 172.709 96.2463 170.504 96.2463C170.39 96.2463 170.292 96.2623 170.177 96.2623C170.259 96.4538 170.357 96.6454 170.455 96.8529C170.455 96.8529 170.471 96.8529 170.488 96.8529C172.203 96.8529 173.591 97.4434 173.591 98.1617C173.591 98.8959 172.203 99.4864 170.488 99.4864C168.773 99.4864 167.368 98.8959 167.368 98.1617C167.368 97.4753 168.642 96.9007 170.243 96.8529C170.112 96.6613 169.998 96.4698 169.916 96.2783C167.989 96.4059 166.519 97.1242 166.519 98.034C166.519 98.4649 166.862 98.848 167.417 99.1512C167.417 99.1512 167.417 99.1512 167.433 99.1512C168.152 99.5503 169.246 99.8056 170.471 99.8056C170.488 99.8056 170.488 99.8056 170.504 99.8056Z" fill="#83403C" stroke="#974946" stroke-width="0.0762"/>
<path d="M170.683 103.333C171.729 103.301 173.787 102.631 173.917 101.641L173.901 101.625C172.97 102.407 171.794 102.886 170.487 102.886C169.36 102.886 168.315 102.535 167.466 101.929C167.482 102.902 169.638 103.381 170.683 103.333Z" fill="#6CC8F1"/>
<path d="M174.49 98.0339C174.49 99.0076 172.709 99.8056 170.504 99.8056C171.974 99.8535 173.444 99.5503 174.49 98.8958C174.98 98.5766 175.323 98.2414 175.519 97.8584C175.241 97.3316 174.702 96.8209 173.918 96.4219C172.758 95.8313 171.321 95.56 169.933 95.5919C169.998 95.8153 170.08 96.0388 170.178 96.2622C170.292 96.2622 170.39 96.2463 170.504 96.2463C172.709 96.2463 174.49 97.0443 174.49 98.0339Z" fill="#753936"/>
<path d="M170.439 93.8362C170.128 93.8202 169.851 93.8362 169.557 93.8522C169.606 94.4427 169.736 95.0333 169.932 95.5919C171.321 95.56 172.758 95.8313 173.918 96.4219C174.702 96.8209 175.241 97.3317 175.518 97.8584C175.714 97.5232 175.78 97.1561 175.747 96.805C175.731 96.6773 175.698 96.5655 175.665 96.4379C175.453 95.7675 174.849 95.145 173.901 94.6502C172.921 94.1395 171.729 93.8841 170.553 93.8362C170.537 93.9958 170.537 94.1554 170.553 94.315C170.504 94.1554 170.455 93.9799 170.439 93.8362Z" fill="#6CC8F1"/>
<path d="M170.503 99.8057C170.487 99.8057 170.487 99.8057 170.471 99.8057C169.246 99.8057 168.151 99.5503 167.433 99.1513C167.416 99.1513 167.416 99.1513 167.416 99.1513C167.286 99.0874 167.155 99.0395 167.041 98.9757C166.257 98.5607 165.718 98.0659 165.44 97.5392C165.309 97.3317 165.244 97.1082 165.211 96.9007C165.179 96.8848 165.179 96.8529 165.162 96.8209C164.999 96.6454 163.496 96.9486 163.186 97.7786C162.794 98.8001 163.317 100.221 164.019 100.843C164.117 100.955 164.215 101.035 164.329 101.099C164.607 101.29 164.917 101.434 165.26 101.561C165.946 101.785 166.714 101.865 167.318 101.833C166.959 101.561 166.632 101.258 166.355 100.907C166.061 100.811 165.75 100.731 165.44 100.604C164.917 100.396 164.46 100.061 164.231 99.3747C163.921 98.6245 164.28 97.4275 165.015 97.8265H165.13C165.13 97.9223 165.146 98.0499 165.162 98.1617C165.179 98.2255 165.179 98.3053 165.195 98.3851C165.26 98.7043 165.342 99.0076 165.44 99.2789C165.456 99.3109 165.456 99.3428 165.473 99.3587C165.473 99.3747 165.473 99.3747 165.473 99.3907C165.554 99.5024 165.636 99.6301 165.734 99.7418C166.044 100.109 166.485 100.444 167.057 100.747C169.278 101.897 172.594 101.865 174.505 100.668C174.734 100.508 174.946 100.348 175.109 100.189C175.403 99.678 175.632 99.1034 175.746 98.4969C175.828 98.1457 175.844 97.7786 175.844 97.4115C175.844 97.2678 175.795 97.0284 175.746 96.805C175.779 97.1561 175.714 97.5232 175.518 97.8584C175.322 98.2415 174.979 98.5767 174.489 98.8959C173.443 99.5503 171.973 99.8535 170.503 99.8057Z" fill="#6CC8F1"/>
<path d="M169.017 77.4602C168.495 79.4873 169.132 80.6045 170.324 82.5677C171.467 84.4831 171.255 86.4942 170.536 88.5053C169.916 90.0694 169.05 91.8571 169.213 93.8682C169.246 94.4268 169.377 95.0174 169.605 95.6239C169.687 95.8314 169.801 96.0548 169.916 96.2783C169.997 96.4698 170.112 96.6614 170.242 96.8529C170.487 97.2519 170.781 97.6509 171.141 98.05C170.896 97.6509 170.667 97.2519 170.455 96.8529C170.357 96.6454 170.259 96.4539 170.177 96.2623C170.079 96.0389 169.997 95.8154 169.932 95.592C169.736 95.0333 169.605 94.4428 169.556 93.8522C169.475 92.6232 169.72 91.3304 170.471 89.8779C171.516 87.9626 172.104 85.9196 171.68 83.8127C171.255 81.8016 169.622 80.7961 169.213 78.785C169.115 78.3859 169.05 77.9231 169.017 77.4602Z" fill="#E5D2D6"/>
<path d="M140.598 120.715V120.731C140.63 120.715 140.663 120.699 140.696 120.683V120.667C140.663 120.699 140.63 120.699 140.598 120.715Z" fill="#31315A"/>
<path d="M149.336 105.999C149.352 105.967 149.369 105.919 149.385 105.871H149.369C149.369 105.919 149.336 105.967 149.336 105.999Z" fill="#31315A"/>
<path d="M138.751 111.33C138.751 111.33 138.768 111.33 138.768 111.314L138.719 111.298C138.735 111.314 138.735 111.314 138.751 111.33Z" fill="#2F2D4D"/>
<path d="M138.67 111.25C138.67 111.25 138.67 111.25 138.67 111.266L138.719 111.282C138.703 111.282 138.686 111.266 138.67 111.25Z" fill="#2F2D4D"/>
<path d="M126.061 123.651C126.061 123.667 126.077 123.683 126.077 123.699L126.093 123.683C126.077 123.667 126.077 123.667 126.061 123.651Z" fill="#CBE6F2"/>
<path d="M124.476 119.23C124.476 119.23 124.46 119.262 124.46 119.278C124.493 119.262 124.525 119.262 124.542 119.23C124.525 119.23 124.509 119.23 124.476 119.23Z" fill="#839095"/>
<path d="M131.435 122.183C131.843 122.486 132.186 122.822 132.349 123.173C132.072 122.838 131.761 122.502 131.435 122.183Z" fill="#8FB62F"/>
<path d="M140.597 129.685C140.548 129.701 140.499 129.701 140.45 129.717C140.303 129.749 140.14 129.749 139.96 129.781C140.189 129.733 140.401 129.701 140.597 129.685Z" fill="#8FB62F"/>
<path d="M136.334 129.158C136.367 129.27 136.416 129.381 136.448 129.493C136.448 129.525 136.432 129.573 136.416 129.605C136.399 129.461 136.367 129.318 136.334 129.158Z" fill="#8FB62F"/>
<path d="M136.335 129.126C136.171 128.695 136.057 128.248 135.959 127.769C136.122 128.248 136.237 128.711 136.335 129.126Z" fill="#8FB62F"/>
<path d="M136.025 134.601C136.041 134.744 136.074 134.888 136.09 135.032C136.074 134.888 136.025 134.744 135.976 134.617C135.992 134.617 136.008 134.601 136.025 134.601Z" fill="#19833E"/>
<path d="M136.024 134.601C136.007 134.601 135.991 134.617 135.975 134.617C135.926 134.409 135.844 134.218 135.746 134.042C135.811 134.026 135.86 134.01 135.942 134.01C135.975 134.202 135.991 134.409 136.024 134.601Z" fill="#19833E"/>
<path d="M135.942 134.01C136.285 133.978 136.645 133.946 137.004 133.946C137.004 134.138 137.02 134.345 137.02 134.553C136.694 134.553 136.367 134.569 136.024 134.601C135.991 134.409 135.975 134.202 135.942 134.01Z" fill="#19833E"/>
<path d="M136.089 135.048C136.187 135.75 136.285 136.452 136.318 137.155C135.534 137.218 134.766 137.362 134.015 137.601C132.267 138.176 131.059 139.134 130.552 140.187C129.425 138.288 130.83 136.069 133.917 135.064C134.587 134.84 135.273 134.697 135.975 134.617C136.024 134.744 136.073 134.888 136.089 135.032C136.089 135.032 136.089 135.032 136.089 135.048Z" fill="#D64932"/>
<path d="M136.35 138.671C136.35 139.07 136.056 139.532 136.17 139.836C136.334 140.315 137.199 140.49 137.493 139.963C137.591 139.708 137.461 139.453 137.379 139.181C137.346 138.495 137.281 137.793 137.232 137.106C139.682 137.074 142.034 137.857 143.226 139.261C143.373 139.421 143.488 139.596 143.586 139.756C143.063 140.825 141.871 141.783 140.123 142.358C136.742 143.459 132.61 142.725 130.911 140.698C130.764 140.538 130.65 140.362 130.552 140.187C131.058 139.133 132.267 138.176 134.014 137.601C134.766 137.362 135.533 137.218 136.317 137.154C136.366 137.649 136.366 138.176 136.35 138.671Z" fill="#7D5A4F"/>
<path d="M143.128 136.691C143.961 137.681 144.076 138.766 143.586 139.756C143.488 139.596 143.373 139.421 143.226 139.261C142.034 137.857 139.682 137.074 137.232 137.106C137.15 136.244 137.069 135.383 137.02 134.553C139.519 134.505 141.92 135.287 143.128 136.691Z" fill="#D64932"/>
<path d="M143.128 136.691C141.92 135.287 139.519 134.505 137.02 134.553C137.02 134.345 137.003 134.138 137.003 133.946C139.943 133.866 142.785 134.792 144.223 136.452C144.974 137.362 145.219 138.335 145.007 139.293C144.664 140.825 143.128 142.262 140.695 143.044C136.758 144.337 131.94 143.475 129.931 141.129C129.49 140.618 129.229 140.059 129.114 139.517C128.755 137.553 130.388 135.542 133.459 134.537C134.194 134.297 134.962 134.138 135.746 134.042C135.844 134.218 135.925 134.409 135.974 134.617C135.272 134.696 134.586 134.84 133.916 135.063C130.829 136.069 129.425 138.288 130.552 140.187C130.65 140.363 130.764 140.538 130.911 140.698C132.61 142.725 136.742 143.459 140.123 142.358C141.871 141.783 143.063 140.825 143.586 139.756C144.076 138.766 143.961 137.681 143.128 136.691Z" fill="#F18A6B"/>
<path d="M142.965 148.742C142.704 149.875 141.577 150.929 139.764 151.535C136.84 152.477 133.263 151.839 131.777 150.099C131.548 149.828 131.385 149.556 131.287 149.285L129.114 139.517C129.229 140.059 129.49 140.618 129.931 141.129C131.94 143.475 136.758 144.337 140.695 143.044C143.128 142.262 144.664 140.825 145.007 139.293L142.965 148.742Z" fill="#ED7250"/>
<path d="M137.38 139.181C137.461 139.453 137.592 139.708 137.494 139.963C137.2 140.49 136.334 140.315 136.171 139.836C136.057 139.533 136.351 139.07 136.351 138.671C136.367 138.176 136.367 137.649 136.318 137.154C136.628 137.106 136.922 137.106 137.233 137.106C137.282 137.793 137.347 138.495 137.38 139.181Z" fill="#19833E"/>
<path d="M137.02 134.553C137.069 135.383 137.15 136.245 137.232 137.107C136.922 137.107 136.628 137.107 136.317 137.154C136.285 136.452 136.187 135.75 136.089 135.048C136.089 135.032 136.089 135.032 136.089 135.032C136.072 134.888 136.04 134.744 136.023 134.601C136.366 134.569 136.693 134.553 137.02 134.553Z" fill="#19833E"/>
<path d="M134.015 123.603C133.77 123.252 133.508 122.933 133.231 122.646L133.247 122.63C132.349 121.481 130.732 120.603 129.507 119.773C128.151 118.831 125.979 117.794 124.117 117.794C123.774 117.794 123.447 117.826 123.137 117.905C123.137 117.905 124.476 118.225 124.607 118.256C125.26 118.496 125.995 118.655 126.648 118.943C127.792 119.422 128.69 120.347 129.719 121.05C130.111 121.321 130.83 121.72 131.434 122.167V122.183C131.761 122.502 132.071 122.837 132.349 123.172C133.149 124.114 133.786 125.136 134.26 126.221C132.969 124.721 131.663 123.939 129.637 123.699C127.008 123.38 124.231 123.22 122.189 121.385C120.801 120.092 119.396 117.299 121.699 116.182C123.496 115.304 126.289 116.102 128.086 116.501C130.209 117.059 132.332 117.778 133.312 119.853C133.868 121.018 133.949 122.342 134.015 123.603Z" fill="#21A046"/>
<path d="M122.107 134.968C120.801 133.691 121.454 131.361 122.679 130.164C124.737 128.232 130.192 128.025 132.169 130.419C131.548 130.291 130.895 130.211 130.209 130.196V130.211C129.065 130.243 128.085 130.211 126.975 130.61C125.407 131.121 122.973 131.855 122.189 133.452C122.957 132.574 125.505 131.696 126.599 131.44C127.383 131.297 128.151 131.089 128.935 130.962C129.474 130.898 129.996 130.994 130.503 130.914C130.503 130.914 130.503 130.914 130.519 130.914C131.189 130.962 131.875 131.121 132.544 131.393C131.123 131.281 129.457 132.207 128.396 132.893C126.762 134.01 124.231 137.043 122.107 134.968Z" fill="#21A046"/>
<path d="M148.682 130.339C149.678 132.813 147.636 135.048 145.007 134.17C143.373 133.611 142.475 131.6 141.005 131.041C140.433 130.898 139.437 130.658 138.865 130.882C139.241 130.674 139.6 130.515 139.943 130.403H139.927C141.103 130.052 142.557 130.084 143.733 130.243C144.582 130.355 145.415 130.595 146.215 130.994C146.64 131.233 147.375 131.664 147.685 132.095C147.571 131.824 147.375 131.552 147.195 131.345C145.987 129.988 143.896 129.685 142.181 129.557C141.626 129.509 141.087 129.589 140.597 129.685C140.401 129.701 140.188 129.733 139.96 129.78C139.878 129.796 139.813 129.796 139.747 129.828H139.731C139.519 129.876 139.323 129.94 139.127 130.004C140.891 126.812 147.244 126.796 148.682 130.339Z" fill="#21A046"/>
<path d="M142.705 122.582C142.051 122.901 141.006 123.651 140.434 123.939C139.797 124.338 139.242 124.801 138.752 125.311C138.948 124.833 139.307 124.545 139.52 124.178C139.944 123.3 139.944 122.343 140.271 121.465C141.251 118.975 143.456 117.937 145.988 117.299C147.866 116.9 149.761 116.82 151.476 117.778C153.436 118.895 154.987 120.348 153.027 122.343C152.047 123.38 150.251 123.859 148.944 124.338C147.294 124.896 145.498 125.535 143.864 125.854C141.904 126.157 140.206 125.758 138.687 126.971C139.111 126.365 139.65 125.806 140.304 125.28C140.304 125.28 140.32 125.28 140.32 125.264C140.941 124.833 141.48 124.29 142.149 123.939C143.129 123.412 144.077 122.821 145.138 122.407C147.098 121.688 149.467 120.938 151.231 119.741C150.202 119.741 149.238 120.188 148.258 120.395C147.327 120.555 146.559 121.002 145.661 121.321C144.681 121.64 143.603 122.103 142.705 122.582Z" fill="#21A046"/>
<path d="M136.71 122.47C136.791 121.353 137.004 120.268 137.314 119.23L137.265 119.198C137.886 117.458 138.049 115.655 137.967 113.74C137.886 114.953 137.396 116.309 137.118 117.458C136.955 118.081 136.595 118.751 136.465 119.39C136.122 120.443 135.877 121.64 135.762 122.885C135.027 121.736 134.439 120.954 134.211 119.533C133.884 117.458 134.047 114.665 135.517 112.91C136.824 111.393 139.617 111.633 140.76 113.388C142.72 116.293 137.428 119.677 136.71 122.47Z" fill="#21A046"/>
<path d="M135.746 134.042C135.125 132.829 133.9 131.903 132.561 131.392H132.545C131.875 131.121 131.189 130.961 130.519 130.914C130.503 130.914 130.503 130.914 130.503 130.914C129.997 130.993 129.474 130.898 128.935 130.961C128.151 131.089 127.383 131.297 126.599 131.44C125.505 131.696 122.957 132.573 122.189 133.451C122.973 131.855 125.407 131.121 126.975 130.61C128.086 130.211 129.066 130.243 130.209 130.211V130.195C130.895 130.211 131.548 130.291 132.169 130.419C133.606 130.738 134.815 131.408 135.746 132.749C135.795 133.18 135.86 133.595 135.942 134.01C135.86 134.01 135.811 134.026 135.746 134.042Z" fill="#19833E"/>
<path d="M147.196 131.345C147.375 131.552 147.571 131.824 147.686 132.095C147.375 131.664 146.64 131.233 146.216 130.994C145.415 130.595 144.582 130.355 143.733 130.243C142.557 130.084 141.103 130.052 139.927 130.403H139.944C139.601 130.515 139.241 130.674 138.866 130.882L138.849 130.898C138.098 131.313 137.347 131.903 136.987 132.622C136.987 132.302 137.004 131.999 137.036 131.696C137.036 131.68 137.036 131.68 137.036 131.68C137.363 130.914 138.229 130.339 139.127 130.004C139.323 129.94 139.519 129.876 139.731 129.828H139.748C139.829 129.812 139.895 129.796 139.96 129.78C140.14 129.749 140.303 129.749 140.45 129.717C140.499 129.701 140.548 129.701 140.597 129.685C141.087 129.589 141.626 129.509 142.181 129.557C143.896 129.685 145.987 129.988 147.196 131.345Z" fill="#19833E"/>
<path d="M151.23 119.741C149.466 120.938 147.098 121.688 145.138 122.406C144.076 122.821 143.129 123.412 142.149 123.939C141.479 124.29 140.94 124.833 140.319 125.263C140.319 125.279 140.303 125.279 140.303 125.279C139.65 125.806 139.111 126.365 138.686 126.971C137.624 128.392 137.183 130.004 137.036 131.68C137.036 131.68 137.036 131.68 137.036 131.696C137.004 131.999 136.987 132.302 136.987 132.622C136.971 133.052 136.987 133.499 137.004 133.946C136.644 133.946 136.285 133.978 135.942 134.01C135.86 133.595 135.795 133.18 135.746 132.749C135.648 132.191 135.583 131.616 135.517 131.041C135.321 129.302 134.929 127.69 134.26 126.221C133.786 125.136 133.149 124.114 132.349 123.173C132.185 122.821 131.842 122.486 131.434 122.183V122.167C130.83 121.72 130.111 121.321 129.719 121.05C128.69 120.347 127.792 119.422 126.648 118.943C125.995 118.656 125.26 118.496 124.607 118.257C124.476 118.225 123.137 117.905 123.137 117.905C123.447 117.826 123.774 117.794 124.117 117.794C125.979 117.794 128.151 118.831 129.507 119.773C130.732 120.603 132.349 121.481 133.247 122.63L133.231 122.646C133.508 122.933 133.77 123.252 134.015 123.604C134.864 124.833 135.534 126.381 135.958 127.753C135.958 127.769 135.958 127.769 135.958 127.769C136.056 128.248 136.171 128.695 136.334 129.126C136.334 129.142 136.334 129.158 136.334 129.158C136.367 129.318 136.399 129.461 136.416 129.605C136.432 129.573 136.448 129.525 136.448 129.493C136.628 128.95 136.824 128.408 137.069 127.913C137.494 126.955 138.049 126.078 138.751 125.311C139.241 124.801 139.797 124.338 140.434 123.939C141.005 123.651 142.051 122.901 142.704 122.582C143.602 122.103 144.68 121.64 145.66 121.321C146.559 121.002 147.326 120.555 148.257 120.395C149.237 120.188 150.201 119.741 151.23 119.741Z" fill="#19833E"/>
<path d="M137.314 119.23C137.004 120.268 136.792 121.353 136.71 122.47C136.547 124.29 136.677 126.141 137.069 127.913C136.824 128.408 136.628 128.95 136.449 129.493C136.416 129.381 136.367 129.27 136.334 129.158C136.334 129.158 136.334 129.142 136.334 129.126C136.236 128.711 136.122 128.248 135.959 127.769C135.959 127.769 135.959 127.769 135.959 127.753C135.648 126.237 135.599 124.529 135.763 122.885C135.877 121.64 136.122 120.443 136.465 119.39C136.596 118.751 136.955 118.081 137.118 117.458C137.396 116.309 137.886 114.953 137.968 113.74C138.049 115.655 137.886 117.458 137.265 119.198L137.314 119.23Z" fill="#19833E"/>
<path fill-rule="evenodd" clip-rule="evenodd" d="M203.399 81.1313C203.415 80.9078 203.529 79.6948 203.595 79.5831L205.62 80.6525C205.604 80.7642 205.604 81.0036 205.555 81.0834C205.587 81.2909 205.342 82.9668 205.293 83.318C204.983 83.3339 204.673 83.318 204.346 83.6531C203.693 84.3075 204.248 85.1375 205.097 84.8662C205.408 84.7704 205.702 84.531 205.816 84.2597C205.914 84.0043 206.208 81.2909 206.273 80.8121C206.306 80.5407 206.42 79.8704 206.404 79.631C206.192 79.5033 205.081 78.9766 204.754 78.8169C204.526 78.7052 203.235 78.0349 203.105 78.0029L202.598 82.1688C202.076 82.1368 201.602 82.3763 201.406 82.8391C201.177 83.4137 201.667 83.8447 202.255 83.7489C202.745 83.6531 203.137 83.302 203.186 82.7912C203.252 82.2805 203.301 81.6101 203.399 81.1313Z" fill="#1A1A1A"/>
<path fill-rule="evenodd" clip-rule="evenodd" d="M208.887 78.8487C208.25 78.9764 207.825 79.567 207.939 80.0937C208.103 80.796 208.985 80.6523 209.328 80.2214C209.491 80.0298 209.671 79.7745 209.622 79.4074L209.197 77.5719C209.132 77.3005 209.034 76.9334 209.001 76.6621C209.393 76.7579 209.736 76.9973 209.867 77.3005C209.981 77.5399 209.948 77.6836 209.932 77.9549C209.899 78.2103 210.21 78.2582 210.291 78.0347C210.455 77.6197 210.373 77.1409 210.177 76.7898C209.769 76.1035 209.115 76.1513 208.919 75.7842C208.821 75.6087 208.756 75.4012 208.544 75.3852C208.331 75.3692 208.168 75.5608 208.184 75.7842C208.201 76.0077 208.805 78.322 208.887 78.8487Z" fill="#1A1A1A"/>
<path fill-rule="evenodd" clip-rule="evenodd" d="M204.085 74.9224C203.514 74.9543 203.383 74.9064 202.942 75.2097C202.697 75.3693 202.387 75.6406 202.321 76.0716C202.158 77.0612 203.318 77.2846 204.02 76.8856C204.804 76.4546 204.771 75.912 204.886 74.8426C204.984 73.9966 205.049 73.023 205.18 72.209C205.49 72.3527 205.98 72.8474 206.029 73.3582C206.045 73.6934 205.964 73.9168 205.833 74.1722C205.67 74.5393 205.947 74.7468 206.209 74.5393C206.486 74.3159 206.715 73.5497 206.666 73.0549C206.568 72.0015 205.735 71.6504 205.539 71.2354C205.425 70.996 205.49 70.6608 205.327 70.4693C205.147 70.2618 204.771 70.3256 204.641 70.5012C204.51 70.6767 204.494 71.0758 204.461 71.3311C204.347 72.5123 204.167 73.7253 204.085 74.9224Z" fill="#1A1A1A"/>
</svg>
