<svg width="281" height="171" viewBox="0 0 281 171" fill="none" xmlns="http://www.w3.org/2000/svg">
<path d="M143.663 169.054C219.131 169.054 280.309 144.243 280.309 113.637C280.309 83.0308 219.131 58.2197 143.663 58.2197C68.1952 58.2197 7.0166 83.0308 7.0166 113.637C7.0166 144.243 68.1952 169.054 143.663 169.054Z" fill="#3CB7C6"/>
<path d="M205.04 3.58917L205.704 3.18722V1.42212L205.04 1.8066V3.58917Z" fill="#825531"/>
<path d="M198.452 16.0321C197.997 15.1234 196.075 13.0787 195.865 12.5369C198.906 9.82809 199.238 8.91933 201.388 7.04938C201.789 6.69986 204.813 6.40276 205.669 5.54643C206.281 4.91729 207.12 2.925 206.176 1.63177C204.289 -0.919756 203.747 1.94634 203.135 2.13858C199.692 3.23957 199.395 4.89981 199.395 4.89981C199.395 4.89981 191.146 9.04167 191.146 12.7816C191.146 13.6903 193.331 16.8186 194.816 18.7759C195.061 19.1079 196.966 19.3351 196.966 19.3351L198.731 17.3778C198.731 17.3778 198.888 16.9584 198.452 16.0321Z" fill="#F3CEBD"/>
<path d="M198.591 31.4461C198.591 31.4461 197.158 24.3507 193.995 19.6497C195.55 16.9234 198.696 15.9447 198.696 15.9447L205.197 24.4032L198.591 31.4461Z" fill="#D9373D"/>
<path d="M198.521 31.0967L198.241 29.9957C198.241 29.9957 199.325 28.9995 200.461 26.6752C200.268 28.5976 200.111 30.4151 200.111 30.4151L198.521 31.0967Z" fill="#CB272D"/>
<path d="M190.343 96.6672C189.154 97.2439 188.001 98.0653 188.228 99.3411C188.42 100.477 191.514 99.9528 192.894 99.6906C194.275 99.4285 195.463 98.8518 196.634 98.677C197.788 98.5022 200.601 98.8168 201.143 98.1178C201.562 97.576 201.562 96.9643 201.388 96.3527L190.343 96.6672Z" fill="#2C2A2A"/>
<path d="M201.387 96.3527C201.125 95.4265 200.548 94.5002 200.391 93.8012C198.748 86.4262 201.841 82.5116 197.665 77.4609C197.944 76.7794 199.832 72.3404 199.832 72.3404L198.119 68.8976L195.655 67.7092L193.33 68.0937C193.33 68.0937 191.81 76.4997 192.037 78.0726C192.264 79.6629 196.808 88.6457 194.921 94.6925C194.711 95.3915 192.229 95.741 190.342 96.6673C190.342 96.6673 189.468 98.2576 191.093 98.2052C196.214 98.0304 201.387 96.3527 201.387 96.3527Z" fill="#F3CEBD"/>
<path d="M206.84 99.4459C206.421 100.127 206.089 100.739 205.984 101.159C205.634 102.627 209.2 103.168 211.087 100.809C212.992 98.4323 214.407 95.3565 214.635 94.0283C214.739 93.4341 214.512 92.9623 214.198 92.5603L206.84 99.4459Z" fill="#2C2A2A"/>
<path d="M214.198 92.5604C213.813 92.0711 213.289 91.6516 213.114 91.1623C212.275 88.838 212.572 84.1194 211.873 82.6864C210.72 80.2921 208.902 79.7853 208.745 79.261C208.588 78.7542 210.231 72.7948 210.231 72.7948L202.209 72.7599C202.209 72.7599 202.593 80.9213 203.747 82.1621C209.776 88.6108 210.038 93.7663 209.776 94.7974C209.601 95.5314 207.924 97.7334 206.84 99.446C206.84 99.446 207.557 100.53 209.007 99.8829C212.887 98.1528 214.198 92.5604 214.198 92.5604Z" fill="#F3CEBD"/>
<path d="M197.63 48.8C197.211 50.9845 197.42 51.8758 196.931 53.6584C196.459 55.4584 194.502 60.8585 193.331 68.0937C193.698 68.2859 199.762 73.3715 204.236 73.8084C208.693 74.2628 210.231 72.7948 210.231 72.7948C210.231 72.7948 213.586 62.8159 213.586 57.8526C213.586 53.571 210.475 51.0194 210.475 51.0194C210.475 51.0194 198.172 48.4155 197.63 48.8Z" fill="#D9373D"/>
<path d="M202.332 32.8967H209.934V23.5994H202.332V32.8967Z" fill="#C9A897"/>
<path d="M198.346 45.3571C198.189 46.9125 197.63 48.7999 197.63 48.7999C197.63 48.7999 202.611 54.4447 210.475 51.0194C210.562 50.6524 209.933 48.7824 210.824 47.297C208.028 47.1047 198.906 44.8503 198.346 45.3571Z" fill="#663333"/>
<path d="M203.765 26.8848C203.765 26.8848 202.891 30.8694 203.904 31.4461C204.953 32.0403 208.955 30.4849 209.899 29.4014C210.58 28.6149 211.157 27.0071 211.157 27.0071C211.157 27.0071 212.415 30.4674 214.617 32.5995C215.054 34.2597 214.984 38.8909 214.215 40.6735C213.446 42.491 210.825 47.297 210.825 47.297C210.825 47.297 209.532 48.8174 206.194 48.7999C202.314 48.7999 198.592 45.9863 198.347 45.3571C197.071 42.1415 196.075 40.2716 195.691 37.3006C195.341 34.6967 199.728 31.2364 201.038 24.4207C202.104 25.8712 203.765 26.8848 203.765 26.8848Z" fill="#D9373D"/>
<path d="M201.405 42.5261C204.901 45.4795 208.396 41.8445 208.396 41.8445C208.396 41.8445 205.198 47.1572 201.405 42.5261Z" fill="#CB272D"/>
<path d="M214.145 40.8483V39.1356L211.716 38.6113L213.673 41.8444L214.145 40.8483Z" fill="#CB272D"/>
<path d="M200.13 18.1118C199.483 22.0614 200.427 25.5392 200.427 25.5392C200.427 25.5392 201.039 24.1935 201.703 23.9314C201.021 21.9216 200.811 17.7972 200.811 17.7972C200.811 17.7972 200.357 17.8497 200.13 18.1118Z" fill="#6B4526"/>
<path d="M200.444 18.4788C200.304 19.7895 200.741 21.2051 200.671 21.4847C200.496 24.945 201.859 28.3179 202.558 28.4227C205.879 28.9121 209.217 26.1159 209.217 26.1159L205.844 16.8011L201.405 16.4515C201.405 16.4515 200.549 18.0593 200.444 18.4788Z" fill="#F3CEBD"/>
<path d="M202.209 17.9545C203.153 19.8594 205.844 20.0866 206.333 25.1896C206.333 25.1896 206.456 24.8226 206.718 23.9313C208.029 26.1857 207.364 31.114 207.364 31.114C209.182 30.6596 209.287 29.3489 209.287 29.3489C209.287 29.3489 209.933 30.3101 209.741 31.4461C213.167 30.0305 213.271 27.3217 213.271 27.3217L213.621 28.3528C213.621 28.3528 218.06 24.4906 210.44 13.4456C209.462 12.03 206.596 12.7466 206.089 12.6417C202.401 11.663 199.675 18.2865 200.164 18.4787C200.898 18.5836 201.056 18.0069 202.209 17.9545Z" fill="#6B4526"/>
<path d="M205.39 13.1486C203.241 15.2632 202.332 17.3778 202.332 17.3778C202.332 17.3778 202.804 14.7564 205.39 13.1486Z" fill="#49352A"/>
<path d="M219.353 44.5883C219.353 44.5883 220.804 46.2485 221.153 46.5107C219.581 47.4194 216.61 50.2855 213.412 51.9458C212.66 52.3302 211.402 51.9982 210.144 52.2603C209.217 52.4351 206.124 54.375 207.155 56.0002C208.186 57.6255 210.878 57.3983 212.782 56.3672C214.006 55.6857 213.796 54.9517 214.862 54.4449C217.973 52.9943 224.282 50.1632 224.282 50.1632C224.282 50.1632 227.952 48.5379 226.396 45.8641C225.68 44.6582 222.464 40.9532 222.464 40.9532H220.227L218.812 42.4562L219.353 44.5883Z" fill="#F3CEBD"/>
<path d="M211.698 33.3686C210.37 34.522 209.601 36.6716 212.152 39.0483C214.721 41.4426 215.892 42.2814 218.356 44.8504C219.283 45.8116 223.459 41.8969 222.253 40.5163C220.051 37.9823 218.776 36.5667 216.434 33.8928C214.337 31.4811 212.397 32.7569 211.698 33.3686Z" fill="#D9373D"/>
<path d="M208.448 14.1972C209.182 14.8438 209.934 17.5875 209.934 17.5875C209.934 17.5875 209.969 15.5953 208.675 13.97L208.448 14.1972Z" fill="#2F3F53"/>
<path d="M202.139 14.5292L202.908 4.84741L208.605 12.7117H208.588C209.042 13.2709 208.955 14.0399 208.238 14.7739C207.137 15.8924 205.04 16.4866 203.537 16.1021C202.541 15.8399 202.051 15.2283 202.139 14.5292Z" fill="#DC2127"/>
<path d="M202.82 11.8553C202.855 12.3621 203.135 12.7641 203.449 12.7466C203.746 12.7117 203.974 12.2747 203.939 11.7679C203.886 11.2611 203.607 10.8767 203.31 10.8941C202.995 10.9116 202.785 11.3485 202.82 11.8553Z" fill="#F0811A"/>
<path d="M207.435 12.7292C207.609 12.9739 207.854 13.0787 208.011 12.9739C208.151 12.8865 208.134 12.6069 207.976 12.3622C207.802 12.1175 207.557 12.0127 207.417 12.1175C207.26 12.2049 207.277 12.4845 207.435 12.7292Z" fill="#F0811A"/>
<path d="M202.523 13.97C202.506 14.1972 202.611 14.3894 202.751 14.4069C202.908 14.4069 203.013 14.2146 203.03 13.9874C203.03 13.7428 202.925 13.5505 202.786 13.5505C202.646 13.5505 202.523 13.7253 202.523 13.97Z" fill="#F0811A"/>
<path d="M203.45 9.23385C203.485 9.44356 203.608 9.58337 203.73 9.5659C203.852 9.54842 203.922 9.37366 203.887 9.16394C203.852 8.9717 203.73 8.81442 203.608 8.8319C203.485 8.84937 203.415 9.04161 203.45 9.23385Z" fill="#F0811A"/>
<path d="M207.049 14.5642C207.154 14.7389 207.329 14.8263 207.434 14.7564C207.539 14.704 207.539 14.5118 207.434 14.337C207.329 14.1622 207.154 14.0749 207.049 14.1273C206.944 14.1972 206.944 14.3894 207.049 14.5642Z" fill="#F0811A"/>
<path d="M202.873 7.45129C202.856 7.73091 202.96 7.97557 203.1 7.99305C203.24 7.99305 203.38 7.76586 203.397 7.48624C203.415 7.18914 203.31 6.94448 203.153 6.927C203.013 6.927 202.89 7.15419 202.873 7.45129Z" fill="#F0811A"/>
<path d="M205.25 11.7154C205.372 11.9951 205.617 12.1524 205.809 12.065C206.001 11.9951 206.036 11.698 205.914 11.4184C205.792 11.1387 205.53 10.9815 205.355 11.0688C205.163 11.1562 205.11 11.4533 205.25 11.7154Z" fill="#F0811A"/>
<path d="M204.743 9.09418C204.935 9.49613 205.232 9.72332 205.442 9.61846C205.634 9.53108 205.634 9.12913 205.442 8.74466C205.25 8.36018 204.935 8.13299 204.743 8.23785C204.551 8.32523 204.551 8.7097 204.743 9.09418Z" fill="#F0811A"/>
<path d="M204.132 15.0535C204.202 15.4729 204.499 15.7875 204.814 15.7525C205.128 15.7001 205.32 15.3156 205.268 14.8962C205.198 14.4593 204.901 14.1622 204.586 14.1971C204.289 14.2496 204.08 14.634 204.132 15.0535Z" fill="#F0811A"/>
<path d="M101.301 85.8146L104.237 87.5273V83.5253L101.301 81.8301V85.8146Z" fill="#6B4526"/>
<path d="M104.236 87.5273L107.172 85.8146V81.8301L104.236 83.5253V87.5273Z" fill="#49352A"/>
<path d="M101.301 81.8301L104.237 83.5253L107.173 81.8301L104.237 80.1349L101.301 81.8301Z" fill="#824B27"/>
<path d="M107.085 78.4397L96.3896 72.2706V43.6796L107.085 49.8487V78.4397Z" fill="#403D3E"/>
<path d="M117.763 72.2706L107.085 78.4397V49.8487L117.763 43.6796V72.2706Z" fill="#2C2A2A"/>
<path d="M112.486 50.0059C114.845 48.6602 116.75 49.7437 116.75 52.47C116.75 55.1963 114.845 58.4993 112.486 59.8624C110.127 61.2256 108.222 60.1246 108.222 57.3983C108.222 54.672 110.127 51.369 112.486 50.0059Z" fill="#252422"/>
<path d="M112.485 50.7574C114.477 49.604 116.102 50.5477 116.102 52.8546C116.102 55.1614 114.477 57.9576 112.485 59.111C110.492 60.2819 108.867 59.3382 108.867 57.0314C108.867 54.7245 110.492 51.9108 112.485 50.7574Z" fill="#403D3E"/>
<path d="M112.485 53.938C112.957 53.6584 113.341 53.8856 113.341 54.4448C113.341 54.9866 112.957 55.6682 112.485 55.9303C112.013 56.2099 111.611 55.9827 111.611 55.441C111.611 54.8817 112.013 54.2176 112.485 53.938Z" fill="#2C2A2A"/>
<path d="M112.486 63.3752C114.845 62.0121 116.75 63.1131 116.75 65.8394C116.75 68.5657 114.845 71.8687 112.486 73.2318C110.127 74.5949 108.222 73.4765 108.222 70.7677C108.222 68.0414 110.127 64.7384 112.486 63.3752Z" fill="#252422"/>
<path d="M112.485 67.3074C112.957 67.0277 113.341 67.2549 113.341 67.7967C113.341 68.3559 112.957 69.02 112.485 69.2996C112.013 69.5618 111.611 69.3521 111.611 68.7928C111.611 68.2511 112.013 67.5695 112.485 67.3074Z" fill="#2C2A2A"/>
<path d="M116.976 46.9301L114.04 48.6253V47.1049L116.976 45.4097V46.9301Z" fill="#F8F8F9"/>
<path d="M117.763 43.6795L107.085 49.8486L96.3896 43.6795L107.085 37.5104L117.763 43.6795Z" fill="#5D595E"/>
<path d="M54.1494 113.2L57.0854 114.895V110.893L54.1494 109.198V113.2Z" fill="#6B4526"/>
<path d="M57.085 114.895L60.021 113.2V109.198L57.085 110.893V114.895Z" fill="#49352A"/>
<path d="M54.1494 109.198L57.0854 110.893L60.0214 109.198L57.0854 107.503L54.1494 109.198Z" fill="#824B27"/>
<path d="M34.2617 101.7L37.1977 103.413V99.411L34.2617 97.7158V101.7Z" fill="#6B4526"/>
<path d="M37.1973 103.413L40.1333 101.7V97.7158L37.1973 99.411V103.413Z" fill="#49352A"/>
<path d="M34.2617 97.7158L37.1977 99.411L40.1337 97.7158L37.1977 96.0206L34.2617 97.7158Z" fill="#824B27"/>
<path d="M57.0856 74.4026L34.2617 61.2256L84.3485 32.3025L107.172 45.4795L57.0856 74.4026Z" fill="#E5DEC1"/>
<path d="M57.085 110.893V74.4026L107.172 45.4795V81.9698L57.085 110.893Z" fill="#49352A"/>
<path d="M60.7031 88.6632V77.059L103.555 52.3127V63.9169L60.7031 88.6632Z" fill="#6B4526"/>
<path d="M60.7031 106.769V90.6555L103.555 65.9092V82.0222L60.7031 106.769Z" fill="#6B4526"/>
<path d="M57.0856 110.893L34.2617 97.7159V61.2256L57.0856 74.4026V110.893Z" fill="#6B4526"/>
<path d="M55.3734 76.0279L29.6484 61.1732L86.0616 28.5975L111.787 43.4523L55.3734 76.0279Z" fill="#825531"/>
<path d="M55.373 78.0901V76.0279L111.786 43.4523V45.5319L55.373 78.0901Z" fill="#6D4228"/>
<path d="M55.3734 78.0902L29.6484 63.2529V61.1732L55.3734 76.028V78.0902Z" fill="#6B4526"/>
<path d="M82.7409 81.5504L88.4207 78.2824L86.009 76.9891L80.3467 80.2572L82.7409 81.5504Z" fill="#EBDFB7"/>
<path d="M82.7409 83.9096V81.5503L80.3467 80.2571V82.6164L82.7409 83.9096Z" fill="#DDCF99"/>
<path d="M82.7412 83.9097L88.421 80.6241V78.2823L82.7412 81.5504V83.9097Z" fill="#C6B686"/>
<path d="M97.9798 25.8188L86.4455 32.4773L74.9287 25.8188L86.4455 19.1604L97.9798 25.8188Z" fill="#8C8786"/>
<path d="M82.7409 68.1287L88.4207 64.8606L86.009 63.5674L80.3467 66.8354L82.7409 68.1287Z" fill="#EBDFB7"/>
<path d="M82.7409 70.488V68.1287L80.3467 66.8354V69.1947L82.7409 70.488Z" fill="#DDCF99"/>
<path d="M82.7412 70.4879L88.421 67.2024V64.8606L82.7412 68.1286V70.4879Z" fill="#C6B686"/>
<path d="M54.6732 68.1985L80.87 53.0642C81.9011 51.8933 79.5418 52.7321 79.9962 51.9981L79.1574 52.47C79.437 52.0331 78.668 52.1554 78.7379 52.0505L66.19 59.2682V44.0989L86.375 32.4597L85.6061 32.0228L38.665 59.1459L54.6732 68.1985ZM78.7554 54.2875L101.614 41.0755L86.4624 32.5122V47.5766L77.6369 52.6797L78.668 53.3612L78.7554 54.2875Z" fill="#60422D"/>
<path d="M86.4631 47.5767L74.9463 40.9182V25.7489L86.4631 32.4073V47.5767Z" fill="#595554"/>
<path d="M97.9972 40.9182L86.4629 47.5767V32.4073L97.9972 25.7489V40.9182Z" fill="#6B6967"/>
<path d="M66.1906 59.2682L54.6738 52.6098V37.4404L66.1906 44.0989V59.2682Z" fill="#3B3937"/>
<path d="M86.4628 47.5767L66.1904 59.2682V44.0989L86.4628 32.4073V47.5767Z" fill="#565252"/>
<path d="M79.4375 42.7358L72.5693 46.7029V42.8057L79.4375 38.8561V42.7358Z" fill="#C5C2C1"/>
<path d="M84.7148 46.5981L77.8467 50.5477V45.8466L84.7148 41.897V46.5981Z" fill="#383533"/>
<path d="M74.9981 47.4893V52.1904L68.1475 56.1575V51.4564L74.9981 47.4893Z" fill="#383533"/>
<path d="M86.463 32.4073L66.1906 44.0989L54.6738 37.4405L74.9462 25.7489L86.463 32.4073Z" fill="#787473"/>
<path d="M54.674 65.9267L43.1572 59.2682V44.0989L54.674 50.7573V65.9267Z" fill="#595554"/>
<path d="M66.1906 59.2682L54.6738 65.9267V50.7573L66.1906 44.0989V59.2682Z" fill="#6B6967"/>
<path d="M66.1908 44.0989L54.674 50.7573L43.1572 44.0989L54.674 37.4404L66.1908 44.0989Z" fill="#8C8786"/>
<path d="M92.23 31.3587C94.7815 29.8907 96.8437 31.0791 96.8437 34.0151C96.8437 36.9511 94.7815 40.5163 92.23 41.9843C89.696 43.4523 87.6338 42.2639 87.6338 39.3279C87.6338 36.3919 89.696 32.8267 92.23 31.3587Z" fill="#2C2A28"/>
<path d="M92.2302 32.1627C94.3798 30.9044 96.1449 31.918 96.1449 34.4171C96.1449 36.8987 94.3798 39.9221 92.2302 41.1804C90.0806 42.4212 88.333 41.4075 88.333 38.9259C88.333 36.4268 90.0806 33.4035 92.2302 32.1627Z" fill="#3A3735"/>
<path d="M92.23 35.588C92.7542 35.2909 93.1562 35.5356 93.1562 36.1298C93.1562 36.724 92.7542 37.4405 92.23 37.7376C91.7231 38.0347 91.3037 37.8075 91.3037 37.2133C91.3037 36.6016 91.7231 35.8851 92.23 35.588Z" fill="#272624"/>
<path d="M60.5112 49.6738C63.0452 48.2058 65.1074 49.3942 65.1074 52.3302C65.1074 55.2662 63.0452 58.8313 60.5112 60.2993C57.9597 61.7673 55.8975 60.5789 55.8975 57.6429C55.8975 54.7069 57.9597 51.1418 60.5112 49.6738Z" fill="#2C2A28"/>
<path d="M60.5113 50.4777C62.6609 49.2194 64.4085 50.233 64.4085 52.7321C64.4085 55.2138 62.6609 58.2546 60.5113 59.4954C58.3443 60.7362 56.5967 59.7226 56.5967 57.241C56.5967 54.7419 58.3443 51.7185 60.5113 50.4777Z" fill="#3A3735"/>
<path d="M60.5111 53.9031C61.0179 53.606 61.4373 53.8507 61.4373 54.4449C61.4373 55.039 61.0179 55.773 60.5111 56.0701C59.9868 56.3498 59.5674 56.1226 59.5674 55.5284C59.5674 54.9342 59.9868 54.2002 60.5111 53.9031Z" fill="#272624"/>
<path d="M75.5398 25.9061L74.9106 33.0189L74.0193 32.4947V27.3741L66.5046 31.114V37.8598L65.6133 37.3356V30.5723L74.631 25.3818L75.5398 25.9061Z" fill="#72706E"/>
<path d="M75.541 32.6695L74.9119 33.0191V27.916L67.135 32.4074V37.5104L66.5059 37.86V31.1142L75.541 25.9062V32.6695Z" fill="#565252"/>
<path d="M43.5244 78.7542C44.5206 79.2085 45.5691 79.7503 46.6352 80.3969C45.5517 79.7678 44.5206 79.2435 43.5244 78.7542Z" fill="#108075"/>
<path d="M27.0615 66.6257C27.6732 66.2063 28.3722 65.8393 29.1761 65.4897C28.3897 65.8567 27.6907 66.2237 27.0615 66.6257Z" fill="#108075"/>
<path d="M33.458 91.774C33.9823 92.578 34.4716 93.4692 34.926 94.4479C34.4542 93.4867 33.9648 92.5954 33.458 91.774Z" fill="#108075"/>
<path d="M39.9062 69.5967C41.0073 69.422 42.1782 69.3521 43.4364 69.3695C42.1782 69.387 41.0073 69.4569 39.9062 69.5967Z" fill="#108075"/>
<path d="M246.056 100.005C246.056 101.054 245.305 101.491 244.396 100.966C243.487 100.425 242.736 99.1489 242.736 98.0828C242.736 97.0343 243.487 96.5974 244.396 97.1216C245.305 97.6634 246.056 98.9392 246.056 100.005ZM246.476 100.25C246.476 98.9217 245.55 97.3139 244.396 96.6498C243.26 95.9857 242.316 96.5274 242.316 97.8382C242.316 99.1663 243.26 100.774 244.396 101.438C245.55 102.102 246.476 101.561 246.476 100.25Z" fill="#C6B686"/>
<path d="M245.218 99.5158C245.218 100.023 244.851 100.232 244.396 99.9877C243.959 99.7256 243.592 99.0964 243.592 98.5721C243.592 98.0653 243.959 97.8556 244.396 98.1178C244.851 98.3624 245.218 98.9916 245.218 99.5158ZM245.62 99.7605C245.62 98.9741 245.078 98.0129 244.396 97.6284C243.715 97.2265 243.173 97.5585 243.173 98.3275C243.173 99.1139 243.715 100.075 244.396 100.46C245.078 100.861 245.62 100.547 245.62 99.7605Z" fill="#C6B686"/>
<path d="M250.548 94.2906C250.548 95.3566 249.796 95.776 248.887 95.2518C247.979 94.7275 247.227 93.4342 247.227 92.3856C247.227 91.3196 247.979 90.9002 248.887 91.4245C249.796 91.9487 250.548 93.242 250.548 94.2906ZM250.967 94.5352C250.967 93.2245 250.041 91.5992 248.887 90.9351C247.734 90.271 246.808 90.8128 246.808 92.141C246.808 93.4692 247.734 95.077 248.887 95.7411C250.041 96.4052 250.967 95.8634 250.967 94.5352Z" fill="#C6B686"/>
<path d="M229.437 98.9741L230.957 98.0828L229.437 97.209V98.9741Z" fill="#A6996F"/>
<path d="M215.577 109.337C215.56 107.345 215.595 105.423 215.804 103.885C215.997 103.098 218.216 101.106 220.156 98.3799C222.725 94.7623 225.224 90.2709 226.308 89.4845C228.212 88.1214 229.523 89.4845 229.523 89.4845L229.96 92.5778L224.175 101.421C224.175 101.421 221.589 104.042 219.439 105.842C219.544 106.873 219.544 108.132 219.474 109.442L215.577 109.337Z" fill="#D1D706"/>
<path d="M219.475 109.442C219.248 113.777 218.426 118.495 218.356 119.002C219.003 119.666 218.986 125.975 218.304 126.045C217.622 126.132 217.378 123.336 217.378 123.336C217.378 123.336 215.648 124.699 215.508 125.188C215.368 125.695 215.875 128.352 215.508 128.352C214.11 128.352 213.428 125.206 213.655 124.402C213.9 123.441 216.224 119.421 216.224 119.421C216.224 119.421 215.665 114.248 215.578 109.338C215.578 109.338 216.05 108.009 217.518 108.062C219.003 108.114 219.475 109.442 219.475 109.442Z" fill="#F3CEBD"/>
<path d="M236.059 115.052C236.094 116.31 237.632 117.219 237.632 117.219L237.16 119.578L232.372 122.707L227.024 121.466L223.599 118.67C223.599 118.67 221.956 116.503 221.903 115.664C222.078 114.266 222.515 113.602 222.637 112.99C223.511 112.693 228.404 113.899 228.404 113.899L232.581 115.349C232.581 115.349 235.849 114.475 236.059 115.052Z" fill="#F3CEBD"/>
<path d="M224.613 159.424C222.358 162.098 220.087 162.692 219.405 163.391C218.356 164.492 218.514 165.366 219.16 165.978C219.807 166.572 221.327 166.03 222.953 165.226C224.578 164.405 226.867 162.535 226.867 162.535C226.867 162.535 229.663 162.587 230.904 161.382C232.337 159.949 229.908 157.38 229.908 157.38C229.908 157.38 225.329 158.865 224.613 159.424Z" fill="#4D4D4D"/>
<path d="M230.712 125.87C230.276 130.571 226.833 143.591 226.833 143.591C226.833 143.591 228.615 145.268 229.332 147.348C230.048 149.445 229.909 157.135 229.909 157.135C229.909 157.135 230.328 160.717 224.613 159.424C226.099 147.575 221.066 147.855 221.048 143.923C221.38 139.362 220.069 128.614 221.904 117.761C222.604 117.219 231.132 121.186 230.712 125.87Z" fill="#9D9C9E"/>
<path d="M237.999 163.094C235.955 164.982 231.184 167.254 231.079 168.477C230.974 169.7 233.193 170.696 235.588 170.347C236.689 170.172 238.157 169.193 239.642 168.302C241.407 167.254 243.137 166.257 243.504 165.646C244.186 164.545 243.225 161.923 243.225 161.923L241.32 161.434C241.32 161.434 238.716 162.116 237.999 163.094Z" fill="#4D4D4D"/>
<path d="M238.768 118.53C242.036 121.728 241.424 127.757 241.424 127.757C241.424 127.757 243.486 133.769 243.993 140.428C243.993 140.428 246.667 144.971 246.807 148.187C246.929 151.385 243.382 159.616 243.224 161.923C241.774 164.807 238.506 164.073 237.999 163.094C241.931 149.935 240.446 146.282 240.358 145.321C233.333 136.356 230.659 127.443 230.414 126.656C224.385 125.223 221.903 117.761 221.903 117.761L223.599 118.32L228.474 121.536L234.346 121.116C234.346 121.116 238.488 118.355 238.768 118.53Z" fill="#B2B1B3"/>
<path d="M240.796 92.5778L237.581 96.9294L234.627 99.079L231.936 98.4848L229.961 94.5002L231.936 89.3622L236.287 87.4224L240.796 92.5778Z" fill="#CFAD9C"/>
<path d="M243.645 103.203C242.963 105.79 237.284 111.015 236.06 115.052C233.02 121.938 222.813 113.619 222.639 112.99C222.953 110.334 222.726 107.782 223.6 104.706C223.6 104.706 222.813 103.186 222.988 101.63C223.32 98.8343 224.526 98.8343 226.676 93.6264C227.619 91.3545 229.909 89.9913 229.909 89.9913L232.687 90.6729C232.687 90.6729 232.373 93.9759 233.317 97.2964C236.62 95.741 239.486 91.8788 239.486 91.8788L242.929 96.0556C242.929 96.0556 244.327 100.634 243.645 103.203Z" fill="#D1D706"/>
<path d="M226.326 84.1194C226.203 85.7796 227.322 87.6496 227.322 87.6496C227.322 87.6496 227.549 88.7855 227.322 90.673C227.969 91.0225 228.44 90.673 228.44 90.673C228.44 90.673 229.524 93.1895 230.45 93.5915C233.264 93.9235 235.71 90.4283 235.71 90.4283L234.312 85.6224L229.873 84.1194C229.873 84.1194 226.308 82.9485 226.326 84.1194Z" fill="#F3CEBD"/>
<path d="M224.526 81.9872C225.347 83.2805 225.557 85.3776 225.662 83.7698C225.941 84.0494 226.57 84.364 226.623 86.2864C227.304 85.6747 227.06 84.9407 227.06 84.9407C227.06 84.9407 228.178 86.1815 228.231 88.5408C229.174 87.4223 228.72 86.6708 228.72 86.6708C228.72 86.6708 229.908 87.9291 229.419 90.2709C230.572 89.1699 230.485 87.7369 230.485 87.7369C230.485 87.7369 231.691 88.9078 231.341 91.1622C232.705 90.6729 232.53 88.9777 232.53 88.9777C232.53 88.9777 233.928 90.6729 233.718 94.0283C235.186 93.3992 235.064 89.8865 235.064 89.8865C235.064 89.8865 236.235 92.9798 235.064 96.0206C237.074 95.2691 236.829 93.3293 236.829 93.3293C236.829 93.3293 238.017 95.9857 236.077 99.079C239.066 97.7508 239.241 94.1856 239.241 94.1856C239.241 94.1856 240.01 95.5313 239.52 96.9818C239.52 96.9818 240.918 96.7896 241.338 94.1856C241.338 94.1856 242.474 95.4089 242.928 96.0556C240.744 87.6146 243.977 80.7289 237.039 77.4259C231.761 73.2841 224.473 80.9736 224.526 81.9872Z" fill="#F0811A"/>
<path d="M235.71 77.4783C230.712 76.0802 226.675 81.3056 226.675 81.3056C226.675 81.3056 231.306 77.3735 235.71 77.4783Z" fill="#BD6028"/>
<path d="M251.124 82.0572C251.439 78.7367 251.876 75.0667 251.876 75.0667C251.876 75.0667 250.688 73.3715 250.32 72.0608C249.726 70.7151 251.526 66.1189 251.526 66.1189C251.526 66.1189 252.26 64.9829 253.466 65.2625C254.655 65.5422 255.528 67.4645 255.826 68.7578C256.14 70.051 254.759 74.4201 254.55 74.9444C254.672 77.4959 254.987 79.8377 255.266 81.8474L251.124 82.0572Z" fill="#F3CEBD"/>
<path d="M255.266 81.8475C255.685 84.7311 256.035 86.968 255.615 88.2962C255.301 89.2574 252.435 92.7526 250.757 95.409C248.555 98.9392 247.227 101.543 246.371 102.277C244.903 103.535 243.295 104.427 241.687 104.427C240.988 104.427 240.114 104.042 239.712 103.133C238.681 100.774 241.355 97.8382 241.355 97.8382C241.355 97.8382 247.349 91.005 250.792 87.0379C250.722 86.4088 250.897 84.3116 251.124 82.0572C251.124 82.0572 251.491 80.8688 253.029 80.729C254.567 80.5717 255.266 81.8475 255.266 81.8475Z" fill="#D1D706"/>
<path d="M238.245 107.293C235.781 114.703 223.6 104.706 223.6 104.706C223.6 104.706 234.243 112.623 238.245 107.293Z" fill="#00694B"/>
<path d="M237.684 117.009C237.684 117.009 237.247 119.771 232.476 120.784C227.74 121.815 221.903 115.664 221.903 115.664V117.761C221.903 117.761 228.003 123.79 233.018 122.602C238.034 121.396 238.768 118.53 238.768 118.53L237.684 117.009Z" fill="#4D4D4D"/>
<path d="M233.176 80.2046C233.91 80.8687 234.644 83.6125 234.644 83.6125C234.644 83.6125 234.696 81.6027 233.403 79.9774L233.176 80.2046Z" fill="#2F3F53"/>
<path d="M228.021 79.0687L229.961 69.5616L234.662 78.0376H234.645C235.029 78.6493 234.837 79.4007 234.05 80.0474C232.827 81.026 230.66 81.3581 229.21 80.7988C228.266 80.4144 227.846 79.7503 228.021 79.0687Z" fill="#DC2127"/>
<path d="M229.018 76.4997C229 77.0066 229.227 77.426 229.542 77.4435C229.839 77.4609 230.119 77.059 230.136 76.5522C230.153 76.0454 229.926 75.6085 229.612 75.6085C229.315 75.591 229.052 75.9929 229.018 76.4997Z" fill="#F0811A"/>
<path d="M233.508 77.9154C233.648 78.1775 233.875 78.3173 234.032 78.2474C234.189 78.16 234.207 77.8804 234.067 77.6357C233.927 77.3736 233.7 77.2163 233.543 77.3037C233.386 77.3911 233.368 77.6707 233.508 77.9154Z" fill="#F0811A"/>
<path d="M228.458 78.5619C228.423 78.7891 228.51 78.9989 228.65 79.0163C228.79 79.0338 228.93 78.859 228.965 78.6319C229 78.4047 228.93 78.195 228.79 78.1775C228.65 78.16 228.51 78.3348 228.458 78.5619Z" fill="#F0811A"/>
<path d="M229.961 73.9656C229.961 74.1754 230.083 74.3326 230.206 74.3326C230.328 74.3326 230.415 74.1579 230.415 73.9656C230.398 73.7559 230.293 73.5986 230.171 73.5986C230.048 73.5986 229.961 73.7734 229.961 73.9656Z" fill="#F0811A"/>
<path d="M232.896 79.6979C232.984 79.8726 233.141 79.9775 233.246 79.9425C233.351 79.8901 233.386 79.6979 233.298 79.5056C233.211 79.3309 233.054 79.226 232.949 79.2784C232.827 79.3309 232.809 79.5056 232.896 79.6979Z" fill="#F0811A"/>
<path d="M229.611 72.1307C229.559 72.4103 229.629 72.6725 229.768 72.6899C229.908 72.7249 230.066 72.5152 230.118 72.2181C230.17 71.9385 230.1 71.6763 229.961 71.6588C229.803 71.6239 229.664 71.8511 229.611 72.1307Z" fill="#F0811A"/>
<path d="M231.446 76.657C231.534 76.9541 231.761 77.1288 231.971 77.0764C232.163 77.0065 232.233 76.7269 232.145 76.4298C232.058 76.1502 231.813 75.9579 231.621 76.0279C231.429 76.0803 231.359 76.3599 231.446 76.657Z" fill="#F0811A"/>
<path d="M231.254 74.0006C231.394 74.4026 231.673 74.6647 231.883 74.5948C232.093 74.5249 232.145 74.1404 232.005 73.7385C231.865 73.3365 231.568 73.0569 231.359 73.1268C231.166 73.1967 231.114 73.5987 231.254 74.0006Z" fill="#F0811A"/>
<path d="M229.943 79.8377C229.961 80.2571 230.205 80.6067 230.52 80.6067C230.834 80.5892 231.097 80.2397 231.079 79.8202C231.079 79.3833 230.817 79.0338 230.502 79.0338C230.188 79.0513 229.926 79.4008 229.943 79.8377Z" fill="#F0811A"/>
<path d="M165.002 120.19L163.464 121.082L161.926 120.19V102.085H165.002V120.19Z" fill="#49352A"/>
<path d="M165.002 120.19L163.464 121.082V102.976L165.002 102.085V120.19Z" fill="#6B4526"/>
<path d="M165.002 102.085L163.464 102.976L161.926 102.085L163.464 101.211L165.002 102.085Z" fill="#825531"/>
<path d="M177.864 85.0982L177.2 84.7137V82.9486L177.847 83.3331L177.864 85.0982Z" fill="#825531"/>
<path d="M177.864 91.5818L177.2 91.1973V89.4323L177.847 89.8167L177.864 91.5818Z" fill="#825531"/>
<path d="M177.864 94.8148L177.2 94.4304V92.6653L177.847 93.0498L177.864 94.8148Z" fill="#825531"/>
<path d="M165.911 85.5001C166.418 86.8108 164.059 89.0652 164.059 89.0652L163.762 93.3294L166.89 96.5276H172.447C172.447 96.5276 173.863 95.3042 173.776 95.077C173.688 94.8499 172.64 89.8866 172.64 89.8866L170.403 85.5001C170.403 85.5001 165.597 85.1156 165.911 85.5001Z" fill="#CFAD9C"/>
<path d="M179.944 96.7373C179.944 96.7373 182.53 102.994 183.02 105.458C186.392 106.716 189.381 109.949 192.072 110.841C192.736 111.19 194.414 112.448 195.934 114.633C196.494 115.489 197.001 117.359 197.001 117.359C197.07 117.988 196.826 120.697 195.585 120.68C195.218 120.557 195.463 117.971 195.463 117.971C195.305 117.272 194.624 116.643 194.065 116.363C192.212 115.996 194.152 119.369 192.789 119.142C192.09 119.037 191.216 117.115 190.919 113.742C185.816 112.553 182.181 112.938 178.318 108.534C177.48 108.184 174.491 98.8519 174.491 98.8519L179.944 96.7373Z" fill="#F3CEBD"/>
<path d="M174.265 88.7157C178.11 87.6147 179.281 92.6828 179.281 93.5216C179.246 94.6925 179.91 95.9159 179.997 96.3877C180.434 99.7257 174.667 101.124 173.496 98.2926C173.269 97.7858 172.762 96.8945 172.29 95.846C176.187 94.8673 174.23 92.508 174.265 88.7157Z" fill="#C8C6C6"/>
<path d="M174.963 157.449C176.413 160.455 179.052 160.718 180.538 162.273C180.87 162.622 181.01 164.108 180.503 164.58C179.052 165.174 176.606 164.58 174.928 163.688C173.74 163.077 172.726 161.731 172.079 161.504C171.415 161.294 168.881 161.172 167.955 159.721C167.396 158.83 168.881 155.964 168.881 155.964C168.881 155.964 173.984 157.152 174.963 157.449Z" fill="#2C2A2A"/>
<path d="M176.03 115.035C180.189 126.919 180.119 141.441 180.224 143.224C180.241 146.405 176.012 155.265 176.03 158.673C175.051 158.987 169.406 159.459 168.323 155.684C170.944 150.407 170.997 144.692 173.303 142.577C171.783 138.016 167.729 125.538 167.729 125.538C169.511 123.021 175.453 114.441 176.03 115.035Z" fill="#2B303D"/>
<path d="M149.623 159.652C149.623 159.652 149.5 161.976 149.902 162.588C150.427 163.426 151.58 163.881 151.912 164.545C152.227 165.209 152.104 166.17 151.807 166.467C150.252 168.005 147.403 167.848 146.023 166.485C144.922 165.401 144.397 163.654 143.646 161.714C143.104 160.316 142.283 159.424 142.458 157.537C142.597 155.947 145.97 155.58 145.97 155.58L149.623 159.652Z" fill="#2C2A2A"/>
<path d="M159.48 114.633C155.74 121.606 156.894 144.098 156.894 144.098C152.07 145.653 149.099 153.517 146.058 155.16C142.93 157.397 146.897 163.392 149.868 161.259C157.331 152.521 163.045 150.966 164.129 148.554C165.212 146.143 167.432 133.42 168.201 126.779C176.397 122.218 176.03 115.035 176.03 115.035L174.282 115.157L171.381 116.276L166.768 117.15C166.768 117.15 162.556 116.713 159.48 114.633Z" fill="#2F3F53"/>
<path d="M171.572 95.8984C166.923 94.6052 166.469 90.9002 164.057 89.0652C162.345 91.2148 159.95 91.809 158.657 92.8575C157.347 93.9236 156.263 99.1664 156.403 100.652C156.717 104.13 160.16 107.555 159.793 112.046C159.356 117.709 168.409 117.359 168.007 117.359C176.029 116.223 175.784 112.641 175.784 112.641C175.889 106.646 177.234 105.231 177.759 98.8169C178.318 92.141 172.359 88.2963 172.359 88.2963L171.485 89.0303C171.485 89.0303 173.005 90.9526 171.572 95.8984Z" fill="#FEFEFE"/>
<path d="M159.794 112.046C162.905 117.709 173.705 116.415 175.785 112.641L176.029 115.035C174.02 118.46 162.678 120.348 159.479 114.633C159.479 114.633 159.881 111.697 159.794 112.046Z" fill="#49352A"/>
<path d="M177.217 84.2418C177.112 86.4962 176.448 86.7933 176.221 87.038C176.378 88.0167 174.77 91.6692 174.229 92.508C173.669 93.3644 172.935 93.8887 172.289 93.6964C169.423 92.875 167.36 89.205 167.36 89.205C167.36 89.205 167.221 88.0516 167.273 87.6671C166.312 87.3001 166.12 86.6186 166.12 86.6186C166.12 86.6186 164.372 84.2418 165.683 81.7252C165.962 81.2009 171.153 80.5543 171.153 80.5543C171.153 80.5543 176.955 83.7525 177.217 84.2418Z" fill="#F3CEBD"/>
<path d="M171.87 83.8573C173.565 85.4651 177.235 85.6224 177.812 84.8709C178.197 76.1852 170.297 75.9231 169.389 77.3212C164.985 77.5309 164.827 81.6378 164.845 82.6514C164.95 86.4787 166.121 86.6185 166.121 86.6185C166.121 86.6185 165.509 84.5738 166.295 84.102C166.47 83.9971 167.623 84.434 168.095 86.2865C168.655 85.2903 169.738 86.7933 171.87 83.8573Z" fill="#9B5427"/>
<path d="M169.319 77.8805C168.707 78.1601 171.573 83.001 171.573 83.001C171.573 83.001 169.948 77.6183 169.319 77.8805Z" fill="#834A25"/>
<path d="M153.643 101.456C153.643 101.456 151.878 102.067 150.34 102.539C150.148 106.786 147.456 111.662 147.631 114.406C147.788 114.633 149.484 114.301 149.536 115.07C149.571 115.839 148.872 115.821 148.872 116.311C148.907 117.709 150.567 118.547 150.322 119.142C150.078 119.736 144.241 121.169 143.979 116.555C144.45 112.675 142.982 103.798 146.198 98.9217C146.582 98.1178 151.755 95.8983 151.755 95.8983L153.643 101.456Z" fill="#F3CEBD"/>
<path d="M161.804 95.6712C163.062 99.4461 158.046 100.827 157.207 100.844C156.019 100.879 154.848 101.578 154.376 101.683C151.056 102.26 149.431 96.545 152.192 95.2518C153.922 94.4654 159.951 90.0439 161.804 95.6712Z" fill="#C8C6C6"/>
<path d="M37.0234 144.255L39.0856 145.443V133.857L37.0234 132.668V144.255Z" fill="#F0811A"/>
<path d="M39.085 145.443L41.1471 144.255V132.668L39.085 133.857V145.443Z" fill="#BD6028"/>
<path d="M37.0234 132.668L39.0856 133.857L41.1478 132.668L39.0856 131.48L37.0234 132.668Z" fill="#37516B"/>
<path d="M79.9971 169.054L82.0593 170.242V158.655L79.9971 157.467V169.054Z" fill="#F0811A"/>
<path d="M82.0596 170.242L84.1217 169.054V157.449L82.0596 158.655V170.242Z" fill="#BD6028"/>
<path d="M79.9971 157.467L82.0593 158.655L84.1215 157.449L82.0593 156.279L79.9971 157.467Z" fill="#37516B"/>
<path d="M109.393 154.409L111.455 153.22V141.634L109.393 142.822V154.409Z" fill="#BD6028"/>
<path d="M107.312 141.634L109.392 142.822L111.454 141.634L109.392 140.445L107.312 141.634Z" fill="#37516B"/>
<path d="M37.0234 132.668L82.0596 158.655L111.455 141.633V138.453L37.0234 129.488V132.668Z" fill="#BD6028"/>
<path d="M37.0234 129.488L82.0596 155.475L111.455 138.453L66.4184 112.466L37.0234 129.488Z" fill="#F59E24"/>
<path d="M107.312 153.22L109.392 154.409V142.822L107.312 141.634V153.22Z" fill="#F0811A"/>
<path d="M72.5871 136.985C74.125 136.985 75.6629 136.635 76.8338 135.954C79.1756 134.608 79.1756 132.424 76.8338 131.06C75.6629 130.396 74.125 130.047 72.5871 130.047C71.0492 130.047 69.5112 130.396 68.3403 131.06C65.9985 132.424 65.9985 134.608 68.3403 135.954C69.5112 136.635 71.0492 136.985 72.5871 136.985Z" fill="#B87028"/>
<path d="M72.5346 124C74.2648 124.262 75.0687 124.384 76.0998 125.118C77.0959 126.167 78.3192 128.684 78.3192 130.134C78.3192 133.123 75.7328 135.552 72.5346 135.552C69.3365 135.552 66.75 133.123 66.75 130.134C66.75 128.317 67.484 126.464 69.0743 124.996C70.0355 124.227 71.2763 124 72.5346 124Z" fill="#C8C6C6"/>
<path d="M69.6517 124.594C71.2421 123.668 73.8285 123.668 75.4189 124.594C77.0092 125.503 77.0092 127.006 75.4189 127.915C73.8285 128.841 71.2421 128.841 69.6517 127.915C68.0614 127.006 68.0614 125.503 69.6517 124.594Z" fill="#FEFEFE"/>
<path d="M70.5251 125.765C71.6436 125.118 73.4436 125.118 74.5446 125.765C74.9116 125.975 75.1563 126.219 75.2786 126.499C75.1388 126.761 74.9116 127.006 74.5446 127.216C73.4436 127.862 71.6436 127.862 70.5251 127.216C70.1756 127.006 69.9309 126.761 69.8086 126.499C69.9309 126.219 70.1756 125.975 70.5251 125.765Z" fill="#49352A"/>
<path d="M70.5246 124.891C71.6431 124.262 73.4431 124.262 74.5441 124.891C75.2956 125.328 75.5402 125.94 75.2781 126.499C75.1558 126.219 74.9111 125.975 74.5441 125.765C73.4431 125.118 71.6431 125.118 70.5246 125.765C70.1751 125.975 69.9304 126.219 69.8081 126.499C69.5459 125.94 69.7906 125.328 70.5246 124.891Z" fill="#B2B1B3"/>
<path d="M86.1312 120.05C80.1019 118.478 77.1834 122.567 74.3697 117.831C71.5735 113.095 84.4011 116.8 86.1312 120.05Z" fill="#19833E"/>
<path d="M83.8945 118.705C84.4712 118.967 85.0654 119.264 85.6771 119.631C85.0654 119.281 84.4712 118.984 83.8945 118.705Z" fill="#108075"/>
<path d="M83.8944 118.705C78.9312 116.52 74.999 118.303 74.7543 117.883C74.5097 117.464 78.302 116.101 83.8944 118.705Z" fill="#20743B"/>
<path d="M75.9259 111.068C75.5938 114.545 77.6036 117.831 71.9937 117.377C66.3839 116.922 70.9626 111.242 75.9259 111.068Z" fill="#19833E"/>
<path d="M74.4396 111.732C71.3113 113.829 72.5871 117.202 72.0978 117.167C71.6259 117.114 70.7521 114.021 74.4396 111.732Z" fill="#20743B"/>
<path d="M69.7034 119.806C71.853 125.066 65.7014 118.338 58.5361 117.01C60.7906 115.839 67.5364 114.563 69.7034 119.806Z" fill="#19833E"/>
<path d="M69.5298 120.19C69.722 120.714 67.5025 117.167 59.0615 117.009C67.0307 116.625 69.3201 119.701 69.5298 120.19Z" fill="#20743B"/>
<path d="M72.4822 125.485C72.8842 125.485 73.2162 125.818 73.2162 126.219V127.653C72.4822 127.792 71.7832 127.653 71.7832 127.653V126.219C71.7832 125.818 72.0978 125.485 72.4822 125.485Z" fill="#6B4526"/>
<path d="M72.5171 117.289C74.1773 117.289 75.488 119.579 75.488 122.375C75.488 125.188 74.1773 127.478 72.5171 127.478C70.8918 127.478 69.5811 125.188 69.5811 122.375C69.5811 119.579 70.8918 117.289 72.5171 117.289Z" fill="#F0811A"/>
<path d="M72.0282 121.885C76.4322 119.544 74.3176 126.936 71.9583 130.274C70.3505 128.841 67.6417 124.227 72.0282 121.885Z" fill="#19833E"/>
<path d="M72.4475 121.955C72.8844 121.711 71.8009 124.087 71.8533 129.924C70.962 125.258 72.0281 122.182 72.4475 121.955Z" fill="#20743B"/>
<path d="M71.2763 120.889C77.2532 120.942 69.0743 123.825 66.5927 129.575C65.6315 127.163 65.2645 120.837 71.2763 120.889Z" fill="#19833E"/>
<path d="M71.6614 121.186C72.2556 121.186 68.0788 121.816 66.6807 129.138C67.4321 122.043 71.1021 121.169 71.6614 121.186Z" fill="#20743B"/>
<path d="M79.0886 128.247C75.3487 124.07 71.102 125.66 71.3641 120.732C71.6262 115.769 79.4031 124.926 79.0886 128.247Z" fill="#19833E"/>
<path d="M78.1094 126.167C78.4239 126.639 78.7036 127.146 78.9657 127.705C78.6861 127.163 78.4065 126.639 78.1094 126.167Z" fill="#108075"/>
<path d="M78.1099 126.167C75.471 122.025 71.5913 121.379 71.6262 120.942C71.6437 120.522 75.2088 121.379 78.1099 126.167Z" fill="#20743B"/>
<path d="M84.5237 113.479C78.6691 115.716 79.7352 122.235 73.7758 118.81C67.8164 115.367 80.574 111.015 84.5237 113.479Z" fill="#21A046"/>
<path d="M81.8148 113.444C76.2225 114.266 74.6321 118.897 74.1253 118.6C73.5836 118.303 75.4011 114.213 81.8148 113.444Z" fill="#19833E"/>
<path d="M73.0065 119.981C68.5326 122.899 67.5365 115.489 60.5635 113.934C66.3131 110.281 78.0571 115.681 73.0065 119.981Z" fill="#21A046"/>
<path d="M72.6746 119.771C72.0629 120.103 69.3891 112.798 60.7559 113.829C68.8473 112.291 73.2513 119.421 72.6746 119.771Z" fill="#19833E"/>
<path d="M72.919 119.142C81.5348 115.804 84.4533 123.895 84.4183 127.95C79.857 122.13 65.7712 121.92 72.919 119.142Z" fill="#21A046"/>
<path d="M82.6364 124.367C79.0712 119.701 72.7623 119.666 73.2866 119.369C73.8284 119.054 79.1935 119.439 82.6364 124.367Z" fill="#19833E"/>
<path d="M82.6357 124.367C83.3872 125.346 83.9989 126.534 84.4183 127.95C83.9465 126.551 83.3348 125.363 82.6357 124.367Z" fill="#108075"/>
<path d="M70.9093 119.683C77.3929 123.406 66.7499 121.518 60.5459 126.237C60.9828 123.021 64.4431 115.943 70.9093 119.683Z" fill="#21A046"/>
<path d="M71.19 120.243C71.8191 120.61 66.8908 118.74 60.8965 125.8C66.0694 118.582 70.5608 119.893 71.19 120.243Z" fill="#19833E"/>
<path d="M25.0516 97.873C28.0575 98.31 29.4731 98.5371 31.2732 99.8129C32.9858 101.648 35.1354 106.017 35.1354 108.551C35.1354 113.759 30.644 118.006 25.0516 118.006C19.4942 118.006 14.9854 113.759 14.9854 108.551C14.9854 105.388 16.2611 102.155 19.0398 99.6207C20.7001 98.275 22.8846 97.873 25.0516 97.873Z" fill="#C8C6C6"/>
<path d="M20.0538 98.9042C22.815 97.2964 27.3064 97.2964 30.0851 98.9042C32.8638 100.495 32.8638 103.099 30.0851 104.689C27.3064 106.314 22.815 106.314 20.0538 104.689C17.275 103.099 17.275 100.495 20.0538 98.9042Z" fill="#FEFEFE"/>
<path d="M21.5746 100.949C23.497 99.8305 26.6252 99.8305 28.5651 100.949C29.1942 101.316 29.6311 101.753 29.8408 102.207C29.6136 102.679 29.1942 103.116 28.5651 103.466C26.6252 104.601 23.497 104.601 21.5746 103.466C20.9454 103.116 20.5085 102.679 20.2988 102.207C20.5085 101.753 20.928 101.316 21.5746 100.949Z" fill="#49352A"/>
<path d="M21.5747 99.446C23.4971 98.31 26.6254 98.31 28.5652 99.446C29.8584 100.197 30.2954 101.263 29.841 102.207C29.6313 101.753 29.1944 101.316 28.5652 100.949C26.6254 99.8304 23.4971 99.8304 21.5747 100.949C20.9281 101.316 20.5087 101.753 20.299 102.207C19.8446 101.263 20.264 100.197 21.5747 99.446Z" fill="#B2B1B3"/>
<path d="M44.8352 71.6064C36.1845 67.8141 29.3338 70.9074 28.9144 70.1909C28.495 69.4744 35.101 67.0626 44.8352 71.6064Z" fill="#20743B"/>
<path d="M30.9597 58.3245C30.383 64.3712 33.8783 70.086 24.1091 69.2995C14.3574 68.4956 22.3265 58.639 30.9597 58.3245Z" fill="#19833E"/>
<path d="M28.3899 59.4779C22.9199 63.1304 25.1568 68.9849 24.3005 68.9325C23.4616 68.8451 21.9587 63.4625 28.3899 59.4779Z" fill="#20743B"/>
<path d="M28.3896 59.4779C29.0013 59.0584 29.6829 58.6914 30.5043 58.3419C29.7178 58.6914 29.0188 59.0759 28.3896 59.4779Z" fill="#108075"/>
<path d="M20.124 73.5462C23.8639 82.6862 13.1684 70.9772 0.69043 68.6703C4.6051 66.6081 16.3491 64.3886 20.124 73.5462Z" fill="#19833E"/>
<path d="M19.8097 74.2104C20.1767 75.1192 16.2795 68.9326 1.58203 68.6705C15.4756 68.0064 19.4427 73.3541 19.8097 74.2104Z" fill="#20743B"/>
<path d="M24.983 83.4377C25.6646 83.4377 26.2413 83.997 26.2413 84.696V104.234C24.9655 104.479 23.7422 104.234 23.7422 104.234V84.696C23.7422 83.997 24.2839 83.4377 24.983 83.4377Z" fill="#6B4526"/>
<path d="M24.1782 77.1464C31.8503 73.0745 28.1803 85.9544 24.0559 91.7565C21.2422 89.2749 16.5411 81.2533 24.1782 77.1464Z" fill="#19833E"/>
<path d="M24.9123 77.2861C25.6638 76.8667 23.7763 80.9736 23.8637 91.1447C22.3083 83.0183 24.1783 77.6706 24.9123 77.2861Z" fill="#20743B"/>
<path d="M22.8678 75.4162C33.2661 75.5035 19.0405 80.5192 14.7064 90.5331C13.0462 86.3388 12.3996 75.3288 22.8678 75.4162Z" fill="#19833E"/>
<path d="M23.5488 75.923C24.5625 75.923 17.2924 77.024 14.8457 89.7816C16.1739 77.426 22.5527 75.9055 23.5488 75.923Z" fill="#20743B"/>
<path d="M36.4814 88.2438C29.9627 80.9562 22.5528 83.7349 23.0072 75.1366C23.4616 66.5034 37.0056 82.4766 36.4814 88.2438Z" fill="#19833E"/>
<path d="M34.7861 84.6086C35.2929 85.43 35.7997 86.3213 36.2541 87.3C35.7823 86.3388 35.2755 85.4475 34.7861 84.6086Z" fill="#108075"/>
<path d="M34.7866 84.6086C30.1729 77.3909 23.4271 76.2725 23.462 75.521C23.5145 74.7695 29.701 76.2899 34.7866 84.6086Z" fill="#20743B"/>
<path d="M45.9531 62.5188C35.747 66.416 37.5995 77.758 27.2186 71.7811C16.8553 65.7868 39.05 58.2371 45.9531 62.5188Z" fill="#21A046"/>
<path d="M41.2354 62.4488C42.3189 62.274 43.4898 62.2041 44.7655 62.2216C43.5073 62.2391 42.3364 62.309 41.2354 62.4488Z" fill="#108075"/>
<path d="M41.2358 62.4489C31.4841 63.8994 28.7054 71.9384 27.8141 71.4491C26.9054 70.9073 30.0336 63.812 41.2358 62.4489Z" fill="#19833E"/>
<path d="M25.8912 73.8258C18.0968 78.9289 16.3492 65.9965 4.2207 63.3052C14.2171 56.9613 34.6817 66.3635 25.8912 73.8258Z" fill="#21A046"/>
<path d="M25.297 73.4763C24.2484 74.0705 19.5997 61.3304 4.55273 63.1129C18.6211 60.4391 26.2931 72.8821 25.297 73.4763Z" fill="#19833E"/>
<path d="M25.7158 72.3928C40.7279 66.5732 45.8134 80.659 45.761 87.7194C37.8093 77.5832 13.2728 77.1987 25.7158 72.3928Z" fill="#21A046"/>
<path d="M42.6515 81.4804C36.4475 73.3365 25.4549 73.3015 26.3812 72.7772C27.3074 72.218 36.6747 72.8821 42.6515 81.4804Z" fill="#19833E"/>
<path d="M42.6504 81.4805C43.9436 83.1757 45.0446 85.2378 45.7612 87.7195C44.9398 85.2728 43.8562 83.2281 42.6504 81.4805Z" fill="#108075"/>
<path d="M22.2384 73.319C33.5281 79.8027 14.9858 76.4997 4.18555 84.7135C4.93702 79.1561 10.9838 66.8004 22.2384 73.319Z" fill="#21A046"/>
<path d="M22.7099 74.2976C23.7934 74.9442 15.2301 71.6587 4.7793 83.9619C13.7795 71.3966 21.6089 73.6685 22.7099 74.2976Z" fill="#19833E"/>
<path d="M139.364 71.8686V69.5093L136.952 68.2161V70.5754L139.364 71.8686Z" fill="#DDCF99"/>
<path d="M139.364 58.4468V56.0876L136.952 54.7943V57.1536L139.364 58.4468Z" fill="#DDCF99"/>
<path d="M131.605 35.4481V40.1492L124.754 44.1163V39.4152L131.605 35.4481Z" fill="#383533"/>
<path d="M147.054 50.5826C147.054 50.5826 148.679 50.4253 148.679 47.2621C148.679 45.0951 147.263 44.4485 147.263 44.4485L144.677 45.2699L145.131 49.534L147.054 50.5826Z" fill="#FF8D00"/>
<path d="M144.904 49.5514C148.417 49.7961 152.524 50.1107 152.524 50.1107L151.161 45.6542L145.393 45.5144C145.393 45.5144 144.642 49.3067 144.904 49.5514Z" fill="#C9A897"/>
<path d="M133.597 46.2659C133.317 48.0485 134.68 49.866 138.28 50.0582C141.898 50.233 145.69 50.5825 147.054 50.5825C145.883 49.5165 146.18 45.0426 147.263 44.4484C143.838 43.9066 142.143 43.7144 138.508 43.1377C135.257 42.6309 133.737 45.3222 133.597 46.2659Z" fill="#ECAD0C"/>
<path d="M140.762 50.1981L141.81 50.268L138.28 45.0951L139.836 50.8447L140.762 50.1981Z" fill="#FF8D00"/>
<path d="M119.196 118.722C119.826 119.806 120.28 120.645 120 121.099C119.371 122.113 114.705 122.619 113.464 118.932C112.346 115.629 111.28 113.794 111.175 112.326C111.14 111.732 111.262 111.26 111.472 110.875L119.196 118.722Z" fill="#252422"/>
<path d="M111.471 110.875C111.891 110.054 112.625 109.652 112.625 109.652C112.625 109.652 117.308 113.514 117.378 114.213C117.536 115.874 118.479 117.464 119.196 118.722C119.196 118.722 117.885 119.946 115.631 118.984C114.704 118.6 113.761 116.45 112.922 114.615C112.065 112.78 111.331 111.26 111.471 110.875Z" fill="#49352A"/>
<path d="M139.906 119.614C139.906 119.614 142.212 120.575 141.548 121.816C140.779 123.214 138.875 122.48 137.442 121.973C136.323 121.571 134.61 120.487 133.3 119.998C131.971 119.509 131.517 119.788 129.682 119.142C128.913 118.88 128.721 118.198 128.756 117.481L139.906 119.614Z" fill="#252422"/>
<path d="M128.756 117.481C128.739 116.73 129.315 115.437 129.315 115.437L135.712 116.573C135.712 116.573 137.599 118.268 139.906 119.613C139.906 119.613 139.784 120.487 138.525 120.487C137.494 120.487 135.327 119.561 133.125 118.81C130.958 118.058 129.84 118.233 128.756 117.481Z" fill="#49352A"/>
<path d="M139.975 74.3851C140.08 86.601 136.061 96.7197 135.571 99.778C133.684 111.557 136.026 116.73 136.026 116.73C136.026 116.73 131.29 118.495 128.948 115.629C129.49 109.547 127.165 105.213 129.822 97.3663C130.748 94.6051 128.196 77.0939 128.196 77.0939C128.196 77.0939 139.905 73.0919 139.975 74.3851Z" fill="#2C2A2A"/>
<path d="M121.084 78.6668C119.669 85.6223 118.935 92.7701 117.834 94.0808C113.325 99.446 113.744 104.06 112.346 109.39C111.263 113.567 116.366 116.013 117.641 114.755C117.886 113.025 117.502 105.633 124.405 96.7372C126.799 93.6439 132.374 82.6863 133.125 79.5931C130.015 77.5134 124.719 75.7483 124.719 75.7483C124.719 75.7483 121.748 76.727 121.084 78.6668Z" fill="#403D3E"/>
<path d="M127.899 41.093C128.371 42.3862 128.301 44.0115 128.301 44.0115L127.742 47.2271L128.301 49.7262L131.831 51.1418L135.326 49.4291L135.763 46.1261L135.274 41.3202L130.992 38.489L127.34 40.1493C127.34 40.1493 127.917 40.7085 127.899 41.093Z" fill="#C9A897"/>
<path d="M134.628 44.3261C134.628 44.3261 135.38 48.2408 134.296 48.8524C134.139 48.9398 132.566 49.5689 132.356 49.5864C131.011 49.7262 129.56 48.5029 128.704 47.5242C127.987 46.7028 128.302 44.0115 128.302 44.0115C128.302 44.0115 126.432 47.5941 122.937 50.4428C122.482 52.1729 123.478 58.1498 123.845 60.1595C124.23 62.1693 126.047 65.8568 125.925 68.4083C125.785 70.9598 122.587 71.1346 120.595 79.4358C124.125 76.7619 127.113 78.0202 129.822 79.2785C131.535 80.0824 133.16 80.9038 134.733 80.6766C134.733 80.6766 135.345 79.4707 135.886 77.6532C136.183 79.0338 136.236 80.1173 136.236 80.1173C138.578 78.7192 140.116 75.7133 140.465 73.022C140.937 62.9732 142.492 59.81 142.772 56.6818C143.052 53.5535 140.605 50.3903 138.578 45.6368C138.036 44.361 136.655 43.5047 136.655 43.5047C135.677 43.295 134.628 44.3261 134.628 44.3261Z" fill="#ECAD0C"/>
<path d="M133.404 49.4467C134.663 51.5088 135.746 53.6934 136.34 56.0352C136.952 58.3945 136.987 60.8411 136.865 63.2528C136.725 65.6471 136.463 68.0413 136.288 70.453C136.096 72.8473 135.956 75.259 135.886 77.6532C135.868 75.259 135.956 72.8473 136.113 70.4356C136.27 68.0238 136.515 65.6296 136.655 63.2354C136.795 60.8411 136.742 58.4119 136.183 56.0701C135.624 53.7458 134.593 51.5438 133.404 49.4467Z" fill="#FF8D00"/>
<path d="M124.701 62.9732C124.701 62.9732 124.16 61.8897 124.404 61.1207C125.296 58.5692 126.694 56.8915 126.694 56.8915L125.138 64.249L124.701 62.9732Z" fill="#FF8D00"/>
<path d="M129.228 59.9498C130.363 64.4063 135.03 62.8334 135.03 62.8334C135.03 62.8334 129.612 65.7869 129.228 59.9498Z" fill="#FF8D00"/>
<path d="M124.089 30.6597C123.478 30.3102 119.808 33.5608 120.734 38.2968C121.66 43.0504 124.963 45.2698 125.313 45.6368C126.047 44.3086 127.462 42.5086 127.742 41.128C127.165 37.5104 126.973 32.6345 126.973 32.6345C126.973 32.6345 124.719 31.0093 124.089 30.6597Z" fill="#2C2A2A"/>
<path d="M140.168 43.0504C140.203 43.3649 139.591 43.6795 138.804 43.7494C138.036 43.8193 137.371 43.6096 137.354 43.295C137.319 42.963 137.931 42.6484 138.717 42.5785C139.486 42.5261 140.15 42.7183 140.168 43.0504Z" fill="#F3CEBD"/>
<path d="M132.321 49.4465C132.321 49.4465 131.657 49.3592 131.255 49.2543C130.941 49.2194 130.766 49.2543 130.766 49.2543L130.486 49.6737C130.993 50.1106 132.496 50.1631 132.496 50.1631L132.618 49.8135L132.321 49.4465Z" fill="#2F3F53"/>
<path d="M134.296 48.6427C134.296 48.6427 134.575 46.9475 134.575 46.6504C134.593 46.4932 134.96 46.4932 135.012 46.7029C135.134 48.0311 134.47 49.2544 134.47 49.2544L134.068 49.1495L134.296 48.6427Z" fill="#2F3F53"/>
<path d="M134.313 48.6077C134.348 48.3805 134.576 46.93 134.576 46.6504C134.576 46.5805 134.663 46.5455 134.75 46.5455C134.785 46.5455 134.838 46.5455 134.873 46.563C134.873 46.4057 134.855 46.2659 134.855 46.1261C134.663 46.4407 134.523 46.7028 134.471 46.7203C134.523 47.2446 134.348 48.398 134.313 48.6077Z" fill="#927769"/>
<path d="M134.768 48.5379C135.1 48.468 135.571 48.4156 136.131 48.4156C136.305 48.4156 136.515 48.4156 136.725 48.433C136.812 46.7903 135.641 44.5708 135.641 44.5708C135.641 44.5708 135.187 45.4796 134.855 46.1262C134.855 46.266 134.872 46.4058 134.872 46.5631C134.942 46.5806 134.995 46.633 135.012 46.7029C135.065 47.4019 134.925 48.066 134.768 48.5379Z" fill="#FF8D00"/>
<path d="M134.296 48.6428C134.296 48.6428 134.471 48.5904 134.768 48.5379C134.925 48.0661 135.065 47.402 135.012 46.7029C134.995 46.633 134.943 46.5806 134.873 46.5631C134.838 46.5457 134.785 46.5457 134.75 46.5457C134.663 46.5457 134.576 46.5806 134.576 46.6505C134.576 46.9301 134.348 48.3807 134.313 48.6079C134.313 48.6253 134.296 48.6428 134.296 48.6428Z" fill="#2C3440"/>
<path d="M135.134 46.9126C135.134 46.9126 136.043 47.2796 136.533 48.2058C136.533 46.6854 135.432 44.4659 135.432 44.4659L134.75 44.7281L135.134 46.9126Z" fill="#ECAD0C"/>
<path d="M134.296 48.6427C134.296 48.6427 134.576 46.4931 134.401 44.6756C134.61 44.4309 135.03 44.5358 135.03 44.5358C135.03 44.5358 135.327 45.5144 135.135 46.9125C134.506 47.4892 134.296 48.6427 134.296 48.6427Z" fill="#FF8D00"/>
<path d="M133.492 50.705C134.314 53.5886 135.415 58.5168 135.415 58.5168L137.617 58.9538L138.281 56.8566C138.281 56.8566 135.642 52.8021 134.261 50.3904C133.999 49.5341 133.737 49.9535 133.737 49.9535C133.737 49.9535 133.649 49.9535 133.492 50.705Z" fill="#2F3F53"/>
<path d="M132.321 49.4466L134.296 48.6427L134.471 49.2544L134.261 50.3903L133.492 50.7049L132.496 50.1631L132.321 49.4466Z" fill="#2B303D"/>
<path d="M131.762 48.8524C131.902 49.1495 132.321 49.4466 132.321 49.4466C132.321 49.4466 131.43 49.4117 130.574 49.0097C130.382 48.8874 131.151 48.9573 131.151 48.9573C131.151 48.9573 131.587 48.8874 131.762 48.8524Z" fill="#108075"/>
<path d="M131.238 49.2543C131.028 49.2019 130.801 49.1145 130.573 49.0097C130.486 48.9572 130.608 48.9397 130.766 48.9397C130.94 48.9397 131.15 48.9572 131.15 48.9572C131.15 48.9572 131.587 48.8873 131.762 48.8524C131.762 48.8524 131.325 48.9223 130.766 48.9223C130.661 48.9223 130.556 48.9223 130.434 48.9223C129.438 48.2407 128.704 47.0523 128.267 46.1436C128.319 46.7028 128.441 47.2446 128.704 47.5242C129.228 48.1358 129.997 48.8349 130.818 49.2543C130.871 49.2368 130.923 49.2368 130.975 49.2368C131.045 49.2368 131.133 49.2368 131.238 49.2543Z" fill="#927769"/>
<path d="M130.206 51.6835C130.206 51.6835 130.66 50.8272 131.517 50.0583C131.115 49.9883 130.713 49.866 130.486 49.6738L130.765 49.2543C130.765 49.2543 130.783 49.2543 130.818 49.2543C129.996 48.8349 129.227 48.1359 128.703 47.5242C128.441 47.2446 128.319 46.7028 128.266 46.1436C127.934 45.4795 127.777 44.9727 127.759 44.9377C127.707 45.0776 126.711 48.2932 130.206 51.6835Z" fill="#FF8D00"/>
<path d="M131.517 50.0583C131.745 49.8311 132.024 49.6389 132.321 49.4467C132.321 49.4467 131.832 49.4292 131.238 49.2544C131.133 49.2369 131.046 49.2369 130.976 49.2369C130.923 49.2369 130.871 49.2369 130.818 49.2544C130.783 49.2544 130.766 49.2544 130.766 49.2544L130.486 49.6738C130.714 49.8661 131.115 49.9884 131.517 50.0583Z" fill="#2C3440"/>
<path d="M131.971 49.132C131.832 48.9747 131.762 48.8524 131.762 48.8524C131.814 48.9573 131.884 49.0447 131.971 49.132Z" fill="#927769"/>
<path d="M132.322 49.4466C132.164 49.3592 132.06 49.2369 131.972 49.132C131.885 49.0447 131.815 48.9573 131.762 48.8524C131.588 48.8874 131.151 48.9573 131.151 48.9573C131.151 48.9573 130.941 48.9398 130.766 48.9398C130.609 48.9398 130.487 48.9573 130.574 49.0097C130.801 49.1146 131.028 49.2019 131.238 49.2544C131.832 49.4291 132.322 49.4466 132.322 49.4466Z" fill="#FF8D00"/>
<path d="M131.762 48.8525C131.762 48.8525 130.328 49.8137 130.119 51.3167C126.868 47.437 127.812 44.7107 127.812 44.7107L128.406 43.033C128.406 43.033 128.057 46.9301 131.762 48.8525Z" fill="#ECAD0C"/>
<path d="M137.441 43.33C137.441 43.33 138.997 44.6582 139.993 45.0077C140.989 45.3572 143.278 45.4271 143.82 45.4621C144.362 45.4796 151.527 49.8661 151.527 49.8661C151.527 49.8661 155.075 51.1069 156.543 48.8525C157.224 47.8214 156.106 45.9514 154.883 45.4621C152.611 44.5708 145.498 43.4349 144.012 43.1727C143.541 42.4038 143.121 41.9144 143.121 41.9144L137.441 43.33Z" fill="#F3CEBD"/>
<path d="M136.148 32.3899C136.148 32.3899 137.476 34.3123 137.389 36.6017C138.07 37.7376 137.668 43.4698 137.598 43.9941C137.528 44.4834 136.235 45.0601 135.903 45.0601C134.348 45.0776 132.251 44.3261 131.447 43.8368C130.643 43.3475 129.297 41.2853 129.297 41.2853C129.297 41.2853 128.598 41.3727 128.196 41.0231C127.008 40.6037 125.994 40.2542 125.994 40.2542L125.662 36.7065L131.988 31.5336L136.148 32.3899Z" fill="#F3CEBD"/>
<path d="M127.113 31.9879C127.113 33.0016 126.309 33.823 125.313 33.823C124.317 33.823 123.513 33.0016 123.513 31.9879C123.513 30.9918 124.317 30.1704 125.313 30.1704C126.309 30.1704 127.113 30.9918 127.113 31.9879Z" fill="#F0811A"/>
<path d="M128.196 41.0231C128.196 41.0231 126.239 38.6638 127.183 38.1221C127.619 37.8774 128.109 39.2056 130.066 39.9396C129.979 37.5803 131.254 38.1745 130.992 35.2734C130.94 34.6443 135.536 34.3647 136.148 32.3899C136.655 30.6772 128.284 25.8538 124.753 32.1801C122.237 36.689 124.247 39.4677 124.998 40.1493C126.641 41.6348 128.196 41.0231 128.196 41.0231Z" fill="#403D3E"/>
<path d="M136.498 43.0329L136.445 42.5785L137.756 42.3513L137.808 43.0154L136.498 43.0329Z" fill="#BD6028"/>
<path d="M137.494 43.33L141.409 42.9455L141.287 41.7222L137.39 42.1066C137.285 42.1066 137.197 42.1765 137.145 42.2989C137.04 42.561 137.075 42.9455 137.232 43.1727C137.32 43.2775 137.407 43.33 137.494 43.33Z" fill="#F0811A"/>
<path d="M141.13 42.7883C140.972 42.5611 140.938 42.1766 141.042 41.9145C141.165 41.6698 141.392 41.6523 141.549 41.8795C141.706 42.0892 141.741 42.4912 141.637 42.7358C141.514 42.998 141.305 43.0155 141.13 42.7883Z" fill="#BD6028"/>
<path d="M148.207 40.1843C148.138 39.8523 147.945 39.5552 147.666 39.363C147.386 39.1882 147.054 39.1183 146.722 39.1707C146.582 39.2057 146.46 39.2581 146.337 39.3105L145.936 39.5552L146.704 39.6076L147.438 40.1319L147.491 41.198L147.089 41.7922L147.561 41.5125C147.736 41.4252 147.893 41.2853 147.998 41.1281C148.19 40.8484 148.26 40.5164 148.207 40.1843Z" fill="#A02F26"/>
<path d="M147.7 40.4638C147.648 40.1318 147.456 39.8347 147.176 39.6599C146.896 39.4677 146.564 39.3978 146.232 39.4502C145.9 39.5201 145.621 39.6949 145.428 39.9745L145.481 40.2891L145.778 40.2192C145.918 40.0444 146.092 39.9221 146.32 39.8871C146.529 39.8347 146.756 39.8871 146.931 40.0094C147.316 40.2716 147.403 40.7784 147.141 41.1629C147.001 41.3726 146.826 41.5823 146.564 41.6172C142.597 41.9493 141.391 42.1066 141.391 42.1066C141.321 42.124 141.199 42.124 141.217 42.3163C141.251 42.526 141.409 42.526 141.479 42.526L146.634 41.9318C146.984 41.8969 147.316 41.7046 147.508 41.4075C147.7 41.1279 147.77 40.7959 147.7 40.4638Z" fill="#DC2127"/>
<path d="M137.354 42.3513C137.057 42.0192 137.057 40.5687 138.333 40.3066C139.591 40.0269 141.129 40.324 141.706 40.5862C142.265 40.8483 143.121 41.9144 143.121 41.9144L141.653 42.0891C141.514 41.7046 141.286 41.7221 141.286 41.7221C140.535 42.194 137.704 42.7707 137.354 42.3513Z" fill="#F3CEBD"/>
<path d="M132.321 69.7015C132.321 69.7015 134.244 69.6316 134.925 69.754C135.607 69.8588 136.463 70.2782 136.306 70.6977C136.184 71.0297 135.764 70.9773 135.257 70.9423C134.768 70.8899 134.174 70.8375 133.684 71.1521C133.475 71.2919 132.531 70.6103 132.531 70.6103L132.321 69.7015Z" fill="#F3CEBD"/>
<path d="M136.848 75.1541H136.813C136.778 74.9793 136.621 74.8046 136.376 74.6648C135.764 74.2978 134.768 74.2978 134.139 74.6648C133.912 74.8046 133.754 74.9793 133.702 75.1541H133.685V75.3289C133.685 75.5561 133.842 75.7832 134.139 75.958C134.768 76.3075 135.764 76.3075 136.376 75.958C136.673 75.7832 136.83 75.5561 136.848 75.3289V75.1541Z" fill="#108075"/>
<path d="M136.375 75.8007C135.764 76.1503 134.768 76.1503 134.138 75.8007C133.527 75.4512 133.527 74.8745 134.138 74.5075C134.768 74.158 135.764 74.158 136.375 74.5075C137.005 74.8745 137.005 75.4512 136.375 75.8007Z" fill="#59BDB7"/>
<path d="M135.537 72.4802L135.449 72.3928C135.345 72.3404 135.187 72.3404 135.065 72.3928L134.995 72.4802V75.1366L135.065 75.224C135.187 75.2939 135.345 75.2939 135.449 75.224L135.537 75.1366V72.5152V72.4802Z" fill="#14A39D"/>
<path d="M135.45 72.5851C135.345 72.655 135.188 72.655 135.065 72.5851V72.3754C135.188 72.3055 135.345 72.3055 135.45 72.3754V72.5851Z" fill="#59BDB7"/>
<path d="M136.812 68.7403C137.144 68.5481 137.319 68.2685 137.319 68.0063C137.319 67.6918 137.109 67.4122 136.725 67.185C136.672 67.1675 136.62 67.1325 136.567 67.1151C136.532 67.5869 136.48 68.0588 136.445 68.5481C136.532 68.5831 136.602 68.618 136.69 68.6704C136.742 68.6879 136.777 68.7229 136.812 68.7403ZM133.701 68.7403C133.754 68.7229 133.789 68.6879 133.841 68.6704C134.208 68.4432 134.732 68.3209 135.257 68.3209C135.624 68.3209 135.956 68.3733 136.253 68.4782C136.305 67.9889 136.34 67.517 136.375 67.0277C136.043 66.9054 135.659 66.8354 135.257 66.8354C134.715 66.8354 134.191 66.9753 133.789 67.185C133.422 67.4122 133.212 67.6918 133.212 68.0063C133.212 68.2685 133.387 68.5481 133.701 68.7403Z" fill="#14A39D"/>
<path d="M136.445 68.5481C136.48 68.0588 136.533 67.5869 136.568 67.1151C136.515 67.0801 136.445 67.0452 136.375 67.0277C136.34 67.517 136.305 67.9889 136.253 68.4782C136.323 68.4957 136.375 68.5132 136.445 68.5481Z" fill="#19938A"/>
<path d="M133.265 69.4395V69.7016C133.265 71.2745 134.173 72.4803 135.257 72.4803C136.358 72.4803 137.267 71.2745 137.267 69.7016V69.4395H133.265Z" fill="#A02F26"/>
<path d="M135.257 68.3209C134.733 68.3209 134.208 68.4433 133.841 68.6704C133.474 68.8802 133.265 69.1598 133.265 69.4394C133.265 69.7365 133.474 70.0161 133.841 70.2258C134.208 70.453 134.733 70.5579 135.257 70.5579C135.799 70.5579 136.306 70.453 136.69 70.2258C137.057 70.0161 137.267 69.7365 137.267 69.4394C137.267 69.1598 137.057 68.8802 136.69 68.6704C136.306 68.4433 135.799 68.3209 135.257 68.3209Z" fill="#DC2127"/>
<path d="M134.995 72.6201V72.4803L135.012 72.4628C134.4 72.3579 133.876 71.8686 133.562 71.1696C133.509 71.1696 133.457 71.1521 133.404 71.1171C133.719 71.9385 134.313 72.4978 134.995 72.6201ZM135.536 72.6201C135.694 72.5851 135.851 72.5327 136.008 72.4628C136.008 72.3929 136.008 72.3405 136.008 72.288C135.851 72.3754 135.694 72.4278 135.519 72.4628L135.536 72.4803V72.6201ZM136.148 72.3754C136.882 71.921 137.389 70.8899 137.389 69.6666V68.0063C137.389 68.0063 137.336 68.4258 136.865 68.7753C137.127 68.9675 137.267 69.1947 137.267 69.4394C137.267 69.4569 137.267 69.4744 137.267 69.4918V69.7015C137.267 70.82 136.812 71.7463 136.166 72.2007C136.148 72.2531 136.148 72.3055 136.148 72.3754Z" fill="#1A9388"/>
<path d="M136.009 72.4628C136.061 72.4279 136.096 72.4104 136.149 72.3754C136.149 72.3055 136.149 72.2531 136.166 72.2007C136.114 72.2182 136.061 72.2531 136.009 72.2881C136.009 72.3405 136.009 72.3929 136.009 72.4628Z" fill="#108075"/>
<path d="M133.125 69.6841C133.177 69.6841 133.23 69.6841 133.265 69.6841V69.4394C133.265 69.1947 133.405 68.9675 133.667 68.7753C133.195 68.4258 133.125 68.0063 133.125 68.0063V69.6666C133.125 69.6666 133.125 69.6666 133.125 69.6841Z" fill="#1A9388"/>
<path d="M133.562 71.1696C133.37 70.7501 133.265 70.2433 133.265 69.7016V69.6841C133.23 69.6841 133.177 69.6841 133.125 69.6841C133.125 70.2084 133.23 70.6977 133.405 71.1171C133.457 71.1521 133.509 71.1696 133.562 71.1696Z" fill="#86A797"/>
<path d="M135.257 72.6375C135.345 72.6375 135.449 72.6201 135.537 72.6201V72.4802L135.519 72.4628C135.502 72.4628 135.467 72.4628 135.449 72.4628V72.5851C135.397 72.6201 135.327 72.6375 135.257 72.6375C135.187 72.6375 135.135 72.6201 135.065 72.5851V72.4628C135.048 72.4628 135.03 72.4628 135.013 72.4628L134.995 72.4802V72.6201C135.082 72.6375 135.17 72.6375 135.257 72.6375Z" fill="#1A9388"/>
<path d="M135.258 72.6375C135.328 72.6375 135.397 72.6201 135.45 72.5851V72.4628C135.397 72.4802 135.328 72.4802 135.258 72.4802C135.205 72.4802 135.135 72.4802 135.065 72.4628V72.5851C135.135 72.6201 135.188 72.6375 135.258 72.6375Z" fill="#15A597"/>
<path d="M135.257 72.4803C135.327 72.4803 135.397 72.4803 135.449 72.4628C135.467 72.4628 135.502 72.4628 135.519 72.4628C135.694 72.4279 135.851 72.3755 136.008 72.2881C136.061 72.2531 136.113 72.2182 136.166 72.2007C136.812 71.7463 137.267 70.8201 137.267 69.7016V69.4919C137.249 69.754 137.04 70.0162 136.69 70.2259C136.306 70.4531 135.799 70.5579 135.257 70.5579C134.733 70.5579 134.208 70.4531 133.841 70.2259C133.474 70.0162 133.265 69.7365 133.265 69.4395V69.7016C133.265 70.2434 133.37 70.7502 133.562 71.1696C133.876 71.8686 134.401 72.358 135.012 72.4628C135.03 72.4628 135.047 72.4628 135.065 72.4628C135.135 72.4803 135.205 72.4803 135.257 72.4803Z" fill="#5F5B51"/>
<path d="M135.257 70.5578C135.799 70.5578 136.306 70.453 136.69 70.2258C137.04 70.0161 137.249 69.7539 137.267 69.4918C137.267 69.4743 137.267 69.4568 137.267 69.4394C137.267 69.1947 137.127 68.9675 136.865 68.7753C136.55 69.0199 136.043 69.2122 135.257 69.2122C134.471 69.2122 133.981 69.0199 133.667 68.7753C133.404 68.9675 133.265 69.1947 133.265 69.4394C133.265 69.7365 133.474 70.0161 133.841 70.2258C134.208 70.453 134.733 70.5578 135.257 70.5578Z" fill="#815652"/>
<path d="M135.257 66.7655C135.799 66.7655 136.358 66.8878 136.778 67.1325C137.599 67.6044 137.599 68.3908 136.778 68.8626C136.358 69.1073 135.799 69.2296 135.257 69.2296C134.715 69.2296 134.174 69.1073 133.754 68.8626C132.915 68.3908 132.915 67.6044 133.754 67.1325C134.174 66.8878 134.715 66.7655 135.257 66.7655ZM135.257 66.8354C134.715 66.8354 134.191 66.9752 133.789 67.1849C133.422 67.4121 133.212 67.6917 133.212 68.0063C133.212 68.3034 133.422 68.583 133.789 68.8102C134.191 69.0374 134.715 69.1597 135.257 69.1597C135.816 69.1597 136.341 69.0374 136.725 68.8102C137.11 68.583 137.319 68.3034 137.319 68.0063C137.319 67.6917 137.11 67.4121 136.725 67.1849C136.341 66.9752 135.816 66.8354 135.257 66.8354Z" fill="#59BDB7"/>
<path d="M123.968 64.2664C123.968 64.2664 123.199 66.4859 122.814 67.2024C125.069 68.181 129.158 69.5966 130.521 69.7015C131.867 69.8063 132.321 69.7015 132.321 69.7015C132.321 69.7015 133.667 71.4141 134.995 71.7811C136.341 72.1307 137.057 71.2219 137.057 71.2219C137.721 71.6938 138.123 72.4103 137.616 73.4064C137.092 74.42 134.331 75.6084 133.405 75.4511C132.478 75.2938 130.172 72.952 130.172 72.952C130.172 72.952 122.639 72.3753 121.206 71.9734C119.756 71.5714 117.536 70.8025 117.868 68.7927C118.183 66.8004 118.812 62.9731 118.812 62.9731L123.968 64.2664Z" fill="#F3CEBD"/>
<path d="M124.842 50.3903C123.129 49.8136 121.102 50.8447 120.315 54.3574C119.511 57.8876 118.515 61.5751 118.288 62.9033C118.043 64.2489 123.688 65.9441 124.282 64.1616C125.401 60.876 125.89 59.2507 127.079 55.773C128.145 52.6447 125.75 50.6874 124.842 50.3903Z" fill="#ECAD0C"/>
<path fill-rule="evenodd" clip-rule="evenodd" d="M80.7486 25.8015C80.766 25.5568 80.8884 24.2636 80.9583 24.1412L83.0729 25.2772C83.0554 25.3995 83.0554 25.6442 83.003 25.749C83.0379 25.9588 82.7758 27.7588 82.7408 28.1258C82.4088 28.1608 82.0768 28.1258 81.7272 28.4928C81.0457 29.1744 81.6398 30.0831 82.5311 29.786C82.8632 29.6812 83.1603 29.419 83.2826 29.1394C83.3875 28.8773 83.6846 25.9762 83.7545 25.452C83.7894 25.1549 83.9118 24.4383 83.8943 24.1937C83.6846 24.0539 82.5137 23.4771 82.1641 23.3024C81.9195 23.18 80.5738 22.4635 80.434 22.446L79.9097 26.9025C79.3679 26.8675 78.8611 27.1122 78.6689 27.619C78.4242 28.2307 78.9485 28.7025 79.5602 28.5802C80.067 28.4928 80.4689 28.1083 80.5388 27.5666C80.5913 27.0248 80.6437 26.3083 80.7486 25.8015Z" fill="#1A1A1A"/>
<path fill-rule="evenodd" clip-rule="evenodd" d="M86.4981 23.3373C85.8165 23.4771 85.3796 24.1062 85.5019 24.6829C85.6767 25.4344 86.5855 25.2771 86.9525 24.8227C87.1098 24.613 87.302 24.3334 87.267 23.9489L86.8127 21.9916C86.7602 21.6945 86.6379 21.31 86.6029 21.0129C87.0224 21.1003 87.3894 21.3625 87.5117 21.677C87.634 21.9392 87.5991 22.0965 87.5816 22.3935C87.5467 22.6732 87.8787 22.7256 87.9661 22.4809C88.1234 22.0265 88.0535 21.5197 87.8438 21.1527C87.4069 20.4187 86.7253 20.4712 86.5156 20.0517C86.4282 19.877 86.3583 19.6673 86.1311 19.6498C85.9039 19.6323 85.7291 19.8245 85.7466 20.0692C85.7641 20.3139 86.3932 22.778 86.4981 23.3373Z" fill="#1A1A1A"/>
<path fill-rule="evenodd" clip-rule="evenodd" d="M81.4651 19.143C80.8709 19.1779 80.7311 19.1255 80.2592 19.4401C80.0146 19.6148 79.7 19.9119 79.6126 20.3838C79.4553 21.4323 80.6612 21.677 81.3952 21.2401C82.2166 20.7857 82.1816 20.1915 82.3039 19.0556C82.4088 18.1643 82.4612 17.1157 82.6185 16.2419C82.9331 16.3992 83.4399 16.9235 83.4923 17.4652C83.5273 17.8322 83.4224 18.0769 83.3001 18.3391C83.1079 18.741 83.4224 18.9507 83.6846 18.7235C83.9642 18.4963 84.2088 17.675 84.1564 17.1507C84.0516 16.0147 83.1952 15.6477 82.9855 15.1933C82.8632 14.9487 82.9331 14.5817 82.7583 14.372C82.5661 14.1622 82.1816 14.2322 82.0418 14.4244C81.902 14.5992 81.902 15.0361 81.867 15.2982C81.7272 16.574 81.5525 17.8672 81.4651 19.143Z" fill="#1A1A1A"/>
</svg>
