<svg width="120" height="120" viewBox="0 0 120 120" fill="none" xmlns="http://www.w3.org/2000/svg">
<path d="M59.9989 25.8189C62.5567 25.8189 64.6302 23.7454 64.6302 21.1876C64.6302 18.6299 62.5567 16.5564 59.9989 16.5564C57.4412 16.5564 55.3677 18.6299 55.3677 21.1876C55.3677 23.7454 57.4412 25.8189 59.9989 25.8189Z" fill="#FFA000"/>
<path d="M60.0008 22.3409C61.4919 22.3409 62.7008 21.1321 62.7008 19.6409C62.7008 18.1497 61.4919 16.9409 60.0008 16.9409C58.5096 16.9409 57.3008 18.1497 57.3008 19.6409C57.3008 21.1321 58.5096 22.3409 60.0008 22.3409Z" fill="#FFCA28"/>
<path d="M57.3008 10.3969C57.3008 7.92195 60.0008 3.82507 60.0008 3.82507C60.0008 3.82507 62.7008 7.80945 62.7008 10.3969C62.7008 11.113 62.4163 11.7998 61.91 12.3061C61.4036 12.8125 60.7169 13.0969 60.0008 13.0969C59.2847 13.0969 58.5979 12.8125 58.0916 12.3061C57.5852 11.7998 57.3008 11.113 57.3008 10.3969Z" fill="#FFA000"/>
<path d="M58.2859 9.0936C58.2859 7.11548 60.0015 3.83423 60.0015 3.83423C60.0015 3.83423 61.7171 7.02173 61.7171 9.0936C61.7171 10.2842 60.9484 11.2499 60.0015 11.2499C59.0546 11.2499 58.2859 10.2842 58.2859 9.0936Z" fill="#FFCA28"/>
<path d="M58.1342 12.834H61.7248C62.8029 12.834 63.6748 13.7059 63.6748 14.784C63.6748 15.8621 62.8029 16.734 61.7248 16.734H58.1342C57.056 16.734 56.1842 15.8621 56.1842 14.784C56.1748 13.7059 57.056 12.834 58.1342 12.834Z" fill="#FFCA28"/>
<path d="M56.2024 15C56.2532 15.4774 56.4783 15.9193 56.8346 16.2411C57.191 16.5628 57.6535 16.7418 58.1336 16.7438H61.7243C62.7274 16.7438 63.5524 15.9844 63.6555 15H56.2024Z" fill="#FFA000"/>
<path d="M60.0101 5.55945C60.4882 6.35632 61.0601 7.43445 61.332 8.40945L61.3507 8.4657C61.6226 9.23445 61.7632 9.88132 61.7632 10.3876C61.7632 11.0719 61.3789 11.6813 60.7507 11.9719C60.7507 11.9719 60.4039 12.1032 60.0101 12.1032C59.6164 12.1032 59.2695 11.9719 59.2695 11.9719C58.6414 11.6813 58.257 11.0719 58.257 10.3876C58.257 9.91882 58.3882 9.30007 58.6507 8.55007L58.6601 8.52195L58.6695 8.48445C58.932 7.51882 59.5226 6.39382 60.0101 5.55945ZM61.7257 13.7719C62.2882 13.7719 62.7382 14.2313 62.7382 14.8126L62.7289 14.8969C62.682 15.3469 62.3726 15.8063 61.8007 15.8063H58.1351C57.5726 15.8063 57.1226 15.3469 57.1226 14.7938C57.1226 14.2313 57.582 13.7813 58.1351 13.7813H61.7257V13.7719ZM60.9757 17.6438C62.5789 18.0844 63.6945 19.5469 63.6945 21.1876C63.6945 23.2219 62.0351 24.8813 60.0007 24.8813C57.9664 24.8813 56.307 23.2219 56.307 21.1876C56.307 19.5376 57.4226 18.0844 59.0257 17.6438C59.0257 17.6438 59.532 17.4938 60.0007 17.4938C60.4695 17.4938 60.9757 17.6438 60.9757 17.6438ZM60.0007 3.82507C60.0007 3.82507 58.3039 6.24382 57.7507 8.25007C57.4789 9.00945 57.3007 9.75945 57.3007 10.3969C57.3007 11.4751 57.9382 12.3938 58.8476 12.8251H58.1257C57.0476 12.8251 56.1757 13.6969 56.1757 14.7751C56.1757 15.8532 57.0476 16.7251 58.1257 16.7251H58.7726C56.8132 17.2688 55.3601 19.0407 55.3601 21.1782C55.3601 23.7376 57.432 25.8094 59.9914 25.8094C62.5507 25.8094 64.6226 23.7376 64.6226 21.1782C64.6226 19.0501 63.1789 17.2688 61.2101 16.7251H61.782C62.7851 16.7251 63.5351 15.9657 63.6382 14.9813C63.6476 14.9063 63.657 14.8407 63.657 14.7657C63.657 13.6876 62.7851 12.8157 61.707 12.8157H61.1257C62.0351 12.3844 62.6726 11.4657 62.6726 10.3876C62.6726 9.7032 62.4851 8.92507 62.2039 8.14695C61.6695 6.1407 60.0007 3.82507 60.0007 3.82507Z" fill="url(#paint0_linear)"/>
<path d="M41.2491 67.9125L30.5054 67.6594L31.1522 60.7031H41.6241L41.2491 67.9125Z" fill="#93240A"/>
<path d="M37.7054 116.401H22.5366L22.7241 96.5349H37.7054V116.401Z" fill="#7A230F"/>
<path d="M38.5696 96.5245H24.3384L24.6571 86.587H38.5696V96.5245Z" fill="#93240A"/>
<path d="M41.38 86.5873H26.8582L27.0457 76.6498H41.38V86.5873Z" fill="#93240A"/>
<path d="M43.0207 77.1189L28.7332 76.6408L28.9207 68.5783L43.0207 67.1814V77.1189Z" fill="#93240A"/>
<path d="M39.5154 57.8338C38.9435 57.5806 38.5123 57.1306 38.2591 56.5869C38.0192 56.083 37.6597 55.6453 37.212 55.312C36.7643 54.9787 36.242 54.7598 35.6904 54.6744C36.1216 54.4869 36.431 54.0838 36.431 53.615C36.431 52.9681 35.8685 52.4525 35.1748 52.4525C34.481 52.4525 33.9185 52.9775 33.9185 53.615C33.9185 54.0838 34.2185 54.4869 34.6591 54.6744C33.5154 54.8525 32.5685 55.5838 32.0904 56.5869C31.8279 57.14 31.4247 57.6181 30.8529 57.8994C30.356 58.1431 29.8497 58.5744 29.8216 59.3244C29.7841 60.3463 30.7404 61.19 31.8466 61.19H38.6248C39.6654 61.19 40.5279 60.4306 40.556 59.465C40.556 58.5369 40.031 58.0681 39.5154 57.8338Z" fill="#93240A" stroke="#3E2723" stroke-width="0.125" stroke-miterlimit="10"/>
<path opacity="0.2" d="M35.5689 63.5348C32.5314 78.5911 32.7095 106.847 32.822 114.525H24.3751L24.6001 97.5755V97.3786H26.147L26.2126 95.5692L26.4939 87.6661L26.5033 87.4317H28.7158L28.7533 85.5942L28.8939 78.2723V78.0473H30.6095L30.6658 76.2286L30.872 69.5067L32.222 69.4317L32.372 67.8192L32.7658 63.5348C33.5251 63.5442 34.6033 63.5442 35.5689 63.5348ZM31.0783 61.538L30.5064 67.6598L29.0533 67.7348L28.7908 76.1817H26.8595C26.297 76.1817 25.8376 76.6411 25.8376 77.2036C25.8376 77.7567 26.2126 78.2255 27.0189 78.2442L26.8783 85.5661H24.6564C24.0939 85.5661 23.6345 86.0255 23.6345 86.588C23.6345 87.1036 24.0189 87.5536 24.6283 87.6098L24.347 95.513H22.7345C22.172 95.513 21.7126 95.9723 21.7126 96.5348C21.7126 97.0973 22.1908 97.5098 22.7345 97.5567L22.4908 116.4H34.7439C34.7439 116.4 33.8908 77.7005 37.9314 61.6411C37.9314 61.6411 34.2939 61.6692 32.6251 61.6692C32.2314 61.6692 31.9501 61.6692 31.847 61.6598C31.2845 61.6411 31.0783 61.538 31.0783 61.538Z" fill="#212121"/>
<path d="M22.7236 96.535H40.5924" stroke="#3E2723" stroke-width="0.273125" stroke-miterlimit="10" stroke-linecap="round"/>
<path d="M24.6538 86.5886H41.8007" stroke="#3E2723" stroke-width="0.273125" stroke-miterlimit="10" stroke-linecap="round"/>
<path d="M26.8582 77.2029H42.28" stroke="#3E2723" stroke-width="0.273125" stroke-miterlimit="10" stroke-linecap="round"/>
<path d="M28.9199 68.5785H41.0699" stroke="#3E2723" stroke-width="0.273125" stroke-miterlimit="10" stroke-linecap="round"/>
<path d="M78.7512 67.9125L89.495 67.6594L88.8481 60.7031H78.3762L78.7512 67.9125Z" fill="#93240A"/>
<path d="M82.2947 116.401H97.4634L97.2759 96.5349H82.2947V116.401Z" fill="#7A230F"/>
<path d="M81.4307 96.5245H95.6619L95.3432 86.587H81.4307V96.5245Z" fill="#93240A"/>
<path d="M78.6182 86.5873H93.14L92.9525 76.6498H78.6182V86.5873Z" fill="#93240A"/>
<path d="M76.9775 77.1189L91.265 76.6408L91.0775 68.5783L76.9775 67.1814V77.1189Z" fill="#93240A"/>
<path d="M80.483 57.8338C81.0549 57.5806 81.4861 57.1306 81.7393 56.5869C81.9792 56.083 82.3387 55.6453 82.7864 55.312C83.2341 54.9787 83.7564 54.7598 84.308 54.6744C83.8768 54.4869 83.5674 54.0838 83.5674 53.615C83.5674 52.9681 84.1299 52.4525 84.8236 52.4525C85.5174 52.4525 86.0799 52.9775 86.0799 53.615C86.0799 54.0838 85.7799 54.4869 85.3393 54.6744C86.483 54.8525 87.4299 55.5838 87.908 56.5869C88.1705 57.14 88.5736 57.6181 89.1455 57.8994C89.6424 58.1431 90.1486 58.5744 90.1768 59.3244C90.2143 60.3463 89.258 61.19 88.1518 61.19H81.3736C80.333 61.19 79.4705 60.4306 79.4424 59.465C79.4424 58.5369 79.9674 58.0681 80.483 57.8338Z" fill="#93240A" stroke="#3E2723" stroke-width="0.125" stroke-miterlimit="10"/>
<path opacity="0.2" d="M84.4302 63.5348C85.4052 63.5442 86.4739 63.5442 87.2239 63.5442L87.6177 67.8286L87.7677 69.4411L89.1177 69.5161L89.3239 76.238L89.3802 78.0567H91.0958V78.2817L91.2364 85.6036L91.2739 87.4411H93.4864L93.4958 87.6755L93.7771 95.5786L93.8427 97.388H95.3896V97.5848L95.6145 114.535H87.1677C87.2802 106.847 87.4677 78.5911 84.4302 63.5348ZM88.9208 61.538C88.9208 61.538 88.7146 61.6505 88.1708 61.6692C88.0677 61.6692 87.7864 61.6786 87.3927 61.6786C85.7239 61.6786 82.0864 61.6505 82.0864 61.6505C86.127 77.7098 85.2739 116.41 85.2739 116.41H97.527L97.2833 97.5661C97.8364 97.5192 98.3052 97.1067 98.3052 96.5442C98.3052 95.9817 97.8458 95.5223 97.2833 95.5223H95.6708L95.3896 87.6192C95.9896 87.563 96.3833 87.113 96.3833 86.5973C96.3833 86.0348 95.9239 85.5755 95.3614 85.5755H93.1395L92.9989 78.2536C93.7958 78.2348 94.1802 77.7661 94.1802 77.213C94.1802 76.6505 93.7208 76.1911 93.1583 76.1911H91.227L90.9646 67.7442L89.5114 67.6692L88.9208 61.538Z" fill="#212121"/>
<path d="M97.2745 96.535H79.4058" stroke="#3E2723" stroke-width="0.273125" stroke-miterlimit="10" stroke-linecap="round"/>
<path d="M95.3439 86.5886H78.197" stroke="#3E2723" stroke-width="0.273125" stroke-miterlimit="10" stroke-linecap="round"/>
<path d="M93.1394 77.2029H77.7175" stroke="#3E2723" stroke-width="0.273125" stroke-miterlimit="10" stroke-linecap="round"/>
<path d="M91.076 68.5785H78.926" stroke="#3E2723" stroke-width="0.273125" stroke-miterlimit="10" stroke-linecap="round"/>
<path d="M49.0027 31.641C49.0027 31.641 50.2121 23.5785 59.8308 23.5785C69.4496 23.5785 70.6589 31.641 70.6589 31.641H49.0027Z" fill="#BF360C" stroke="#91240A" stroke-width="0.25" stroke-miterlimit="10"/>
<path d="M47.8967 33.609H72.103V40.0778H47.8967V33.609Z" fill="#3E2723"/>
<path d="M81.1582 47.2412C76.3113 37.2099 75.3175 39.1505 75.3175 39.1505H44.68C44.68 39.1505 43.6863 37.2099 38.8394 47.2412C33.9925 57.2724 32.7175 64.3318 32.7175 74.1943V116.401H87.28V74.1943C87.28 64.3412 86.005 57.2724 81.1582 47.2412Z" fill="url(#paint1_linear)"/>
<path d="M50.0537 58.6588H53.6068L54.6943 56.9807H50.4381L50.0537 58.6588Z" fill="url(#paint2_linear)"/>
<path d="M48.6292 66.4591H52.126L53.0354 64.781H48.8542L48.6292 66.4591Z" fill="url(#paint3_linear)"/>
<path d="M40.2649 80.3707H44.9149V82.0582H40.2649V80.3707Z" fill="url(#paint4_linear)"/>
<path d="M87.282 82.0589V80.3714H83.382V78.9089C83.382 77.3058 83.3539 75.7589 83.307 74.2589H87.1132V72.5714H83.2414C83.1382 70.4339 82.9695 68.3995 82.7445 66.4589H86.4945L86.2695 64.7714H82.5289C82.2382 62.6245 81.8632 60.5902 81.4039 58.6589H85.0695L84.6851 56.9714H80.9726C80.3914 54.8245 79.707 52.7995 78.9101 50.8589H82.7445L82.0414 49.1714H78.1695C78.0663 48.9558 77.9726 48.7308 77.8695 48.5245C76.8945 46.4902 75.9664 44.6714 75.1039 43.0589H79.0695L78.2351 41.3714H74.1757C71.0445 36.5152 69.2164 36.3464 69.1039 36.1964L67.782 37.237C67.8195 37.2839 71.6164 39.337 76.3507 49.237C80.0914 57.0652 81.6851 65.9339 81.6851 78.8902V116.381H83.3726V89.8589H87.2726V88.1714H83.3726V82.0589H87.282Z" fill="url(#paint5_linear)"/>
<path d="M66.9292 49.1812H60.8448V44.9249H59.1667V49.1812H53.0823L52.3792 50.8687H67.6323L66.9292 49.1812Z" fill="url(#paint6_linear)"/>
<path d="M69.572 56.9807H65.3064L66.3939 58.6588H69.9564L69.572 56.9807Z" fill="url(#paint7_linear)"/>
<path d="M66.9761 64.781L67.8761 66.4591H71.3729L71.1479 64.781H66.9761Z" fill="url(#paint8_linear)"/>
<path d="M79.5649 74.2589V72.5714H74.8118V66.4589H78.9555L78.7305 64.7714H74.7743C74.6805 62.6995 74.418 60.6464 74.0336 58.6589H77.5399L77.1555 56.9714H73.6774C73.2013 54.9014 72.6066 52.8606 71.8961 50.8589H75.2149L74.5118 49.1714H71.2774C70.4149 46.9308 69.4868 44.8683 68.5868 43.0589H71.5493L70.7149 41.3714H67.7149C65.118 37.9964 64.0774 38.0808 63.8993 37.837L62.5305 38.812C62.6336 38.9714 73.1243 51.1308 73.1243 66.4964V75.9745L74.8118 78.787V74.2589H79.5649Z" fill="url(#paint9_linear)"/>
<path d="M75.095 80.3707H79.745V82.0582H75.095V80.3707Z" fill="url(#paint10_linear)"/>
<path d="M52.2189 37.2555L50.897 36.2148C50.7845 36.3648 48.8251 36.5242 45.8251 41.3898H41.7658L40.9314 43.0773H44.897C44.0251 44.6898 43.097 46.5086 42.1314 48.543C42.0283 48.7586 41.9345 48.9742 41.8314 49.1898H37.9689L37.2658 50.8773H41.1001C40.3033 52.818 39.6095 54.843 39.0376 56.9898H35.3251L34.9408 58.6773H38.6064C38.147 60.6086 37.7814 62.643 37.4814 64.7898H33.7408L33.5158 66.4773H37.2658C37.0408 68.418 36.8814 70.4523 36.7689 72.5898H32.897V74.2773H36.7033C36.647 75.7773 36.6283 77.3242 36.6283 78.9273V80.3898H32.7283V82.0773H36.6283V88.1898H32.7283V89.8773H36.6283V116.427H38.3158V78.9086C38.3158 65.9523 39.9095 57.0836 43.6501 49.2555C48.3751 39.3555 52.1814 37.3023 52.2189 37.2555Z" fill="url(#paint11_linear)"/>
<path d="M57.1867 37.4617C57.018 37.7054 55.368 37.9304 52.293 41.3804H49.293L48.4586 43.0679H51.4211C50.5211 44.8867 49.5836 46.9398 48.7305 49.1804H45.4961L44.793 50.8679H48.1117C47.4273 52.8085 46.818 54.8617 46.3305 56.9804H42.8523L42.468 58.6679H45.9742C45.5898 60.6648 45.3273 62.7085 45.2336 64.7804H41.2773L41.0523 66.4679H45.1961V72.5804H40.4336V74.2679H45.1961V78.7961L46.8836 75.6648V66.496C46.8836 51.121 57.3742 38.971 57.4867 38.821L57.1867 37.4617Z" fill="url(#paint12_linear)"/>
<path d="M56.0447 43.0593H63.9572L63.1322 41.3812H60.8447V39.1499H59.1666V41.3812H56.8791L56.0447 43.0593Z" fill="url(#paint13_linear)"/>
<g opacity="0.27">
<path opacity="0.27" d="M74.8689 41.3621C75.422 42.0371 76.8283 44.0809 78.8908 48.3465C83.822 58.5559 84.7595 65.3153 84.7595 74.2028V113.887H35.2501V74.1934C35.2501 65.3059 36.1876 58.5559 41.1189 48.3371C43.1814 44.0715 44.372 42.3465 44.9251 41.4184L74.8689 41.3621ZM75.6189 38.9996C75.4033 38.9996 75.3283 39.1496 75.3283 39.1496H44.6814C44.6814 39.1496 44.6064 38.9996 44.3908 38.9996C43.8283 38.9996 42.3376 40.0121 38.8501 47.2403C34.0033 57.2715 32.7283 64.3309 32.7283 74.1934V116.4H87.2814V74.1934C87.2814 64.3403 86.0064 57.2715 81.1595 47.2403C77.672 40.0121 76.1814 38.9996 75.6189 38.9996Z" fill="url(#paint14_linear)"/>
</g>
<path d="M55.7629 60.4213H64.2473V67.5744H55.7629V60.4213Z" fill="#FF7043"/>
<path d="M64.2922 67.5751H55.7047L45.7766 86.9907H74.2204L64.2922 67.5751Z" fill="#F4511E"/>
<path d="M41.4368 91.9225H78.5711V116.41H41.4368V91.9225Z" fill="url(#paint15_linear)"/>
<path d="M55.7812 59.9348C55.7812 58.0973 57.6656 56.6161 60 56.6161C62.3344 56.6161 64.2188 58.1067 64.2188 59.9348H55.7812Z" fill="#FF8A65"/>
<path d="M64.8278 59.015H55.1716C54.3091 59.015 53.606 59.7181 53.606 60.5806C53.606 61.4431 54.3091 62.1463 55.1716 62.1463H64.8278C65.6903 62.1463 66.3935 61.4431 66.3935 60.5806C66.3935 59.7088 65.6997 59.015 64.8278 59.015Z" fill="#FFAB91"/>
<path d="M75.6852 83.709L44.5414 83.2965L39.957 91.9215H80.0445L75.6852 83.709Z" fill="#FFAB91"/>
<path d="M69.742 72.5067L50.317 72.4036L46.417 79.7442H73.5951L69.742 72.5067Z" fill="#FFAB91"/>
<path d="M65.1668 64.041H54.845L52.1262 69.141H67.8762L65.1668 64.041Z" fill="#FFAB91"/>
<path d="M60.0197 56.3339C61.05 56.3339 61.8853 55.4986 61.8853 54.4683C61.8853 53.4379 61.05 52.6027 60.0197 52.6027C58.9893 52.6027 58.1541 53.4379 58.1541 54.4683C58.1541 55.4986 58.9893 56.3339 60.0197 56.3339Z" fill="#FFAB91"/>
<path d="M72.6175 29.3628H47.3894C46.6141 29.3823 45.8771 29.7039 45.3357 30.2591C44.7943 30.8143 44.4912 31.5592 44.4912 32.3347C44.4912 33.1102 44.7943 33.855 45.3357 34.4102C45.8771 34.9654 46.6141 35.2871 47.3894 35.3065H72.6175C73.3928 35.2871 74.1297 34.9654 74.6712 34.4102C75.2126 33.855 75.5157 33.1102 75.5157 32.3347C75.5157 31.5592 75.2126 30.8143 74.6712 30.2591C74.1297 29.7039 73.3928 29.3823 72.6175 29.3628Z" fill="#F4511E"/>
<path opacity="0.2" d="M72.6175 31.0409C73.3206 31.0409 73.9019 31.6128 73.9019 32.3253C73.9019 33.0378 73.33 33.6097 72.6175 33.6097H47.3894C46.6862 33.6097 46.105 33.0378 46.105 32.3253C46.105 31.6128 46.6769 31.0409 47.3894 31.0409H72.6175ZM72.6175 29.3628H47.3894C46.6141 29.3823 45.8771 29.7039 45.3357 30.2591C44.7943 30.8143 44.4912 31.5592 44.4912 32.3347C44.4912 33.1102 44.7943 33.855 45.3357 34.4102C45.8771 34.9654 46.6141 35.2871 47.3894 35.3065H72.6175C73.3928 35.2871 74.1297 34.9654 74.6712 34.4102C75.2126 33.855 75.5157 33.1102 75.5157 32.3347C75.5157 31.5592 75.2126 30.8143 74.6712 30.2591C74.1297 29.7039 73.3928 29.3823 72.6175 29.3628Z" fill="#212121"/>
<path opacity="0.2" d="M41.4368 113.879H78.5711V116.391H41.4368V113.879Z" fill="#212121"/>
<path d="M51.46 99.5527H68.5412V115.462H51.46V99.5527Z" fill="#6D4C41"/>
<path d="M67.6037 100.49V114.525H52.3975V100.49H67.6037ZM69.4787 98.6152H50.5225V116.4H69.4787V98.6152Z" fill="#3E2723"/>
<defs>
<linearGradient id="paint0_linear" x1="60.0007" y1="7.69507" x2="60.0007" y2="23.2041" gradientUnits="userSpaceOnUse">
<stop offset="0.366" stop-color="#F57C00"/>
<stop offset="1" stop-color="#E65100"/>
</linearGradient>
<linearGradient id="paint1_linear" x1="60.0016" y1="108.047" x2="60.0016" y2="47.9537" gradientUnits="userSpaceOnUse">
<stop stop-color="#B33712"/>
<stop offset="0.207" stop-color="#BF360C"/>
<stop offset="1" stop-color="#F4511E"/>
</linearGradient>
<linearGradient id="paint2_linear" x1="52.3759" y1="104.062" x2="52.3759" y2="25.0429" gradientUnits="userSpaceOnUse">
<stop stop-color="#FF7043" stop-opacity="0"/>
<stop offset="0.489" stop-color="#FF7043"/>
<stop offset="1" stop-color="#FFAB91"/>
</linearGradient>
<linearGradient id="paint3_linear" x1="50.8323" y1="104.062" x2="50.8323" y2="25.0432" gradientUnits="userSpaceOnUse">
<stop stop-color="#FF7043" stop-opacity="0"/>
<stop offset="0.489" stop-color="#FF7043"/>
<stop offset="1" stop-color="#FFAB91"/>
</linearGradient>
<linearGradient id="paint4_linear" x1="42.5843" y1="104.061" x2="42.5843" y2="25.0425" gradientUnits="userSpaceOnUse">
<stop stop-color="#FF7043" stop-opacity="0"/>
<stop offset="0.489" stop-color="#FF7043"/>
<stop offset="1" stop-color="#FFAB91"/>
</linearGradient>
<linearGradient id="paint5_linear" x1="77.5348" y1="104.062" x2="77.5348" y2="25.043" gradientUnits="userSpaceOnUse">
<stop stop-color="#FF7043" stop-opacity="0"/>
<stop offset="0.489" stop-color="#FF7043"/>
<stop offset="1" stop-color="#FFAB91"/>
</linearGradient>
<linearGradient id="paint6_linear" x1="60.0038" y1="104.062" x2="60.0038" y2="25.0434" gradientUnits="userSpaceOnUse">
<stop stop-color="#FF7043" stop-opacity="0"/>
<stop offset="0.489" stop-color="#FF7043"/>
<stop offset="1" stop-color="#FFAB91"/>
</linearGradient>
<linearGradient id="paint7_linear" x1="67.6314" y1="104.062" x2="67.6314" y2="25.0429" gradientUnits="userSpaceOnUse">
<stop stop-color="#FF7043" stop-opacity="0"/>
<stop offset="0.489" stop-color="#FF7043"/>
<stop offset="1" stop-color="#FFAB91"/>
</linearGradient>
<linearGradient id="paint8_linear" x1="69.1754" y1="104.062" x2="69.1754" y2="25.0432" gradientUnits="userSpaceOnUse">
<stop stop-color="#FF7043" stop-opacity="0"/>
<stop offset="0.489" stop-color="#FF7043"/>
<stop offset="1" stop-color="#FFAB91"/>
</linearGradient>
<linearGradient id="paint9_linear" x1="71.0468" y1="104.062" x2="71.0468" y2="25.043" gradientUnits="userSpaceOnUse">
<stop stop-color="#FF7043" stop-opacity="0"/>
<stop offset="0.489" stop-color="#FF7043"/>
<stop offset="1" stop-color="#FFAB91"/>
</linearGradient>
<linearGradient id="paint10_linear" x1="77.4218" y1="104.061" x2="77.4218" y2="25.0425" gradientUnits="userSpaceOnUse">
<stop stop-color="#FF7043" stop-opacity="0"/>
<stop offset="0.489" stop-color="#FF7043"/>
<stop offset="1" stop-color="#FFAB91"/>
</linearGradient>
<linearGradient id="paint11_linear" x1="42.4726" y1="104.062" x2="42.4726" y2="25.0427" gradientUnits="userSpaceOnUse">
<stop stop-color="#FF7043" stop-opacity="0"/>
<stop offset="0.489" stop-color="#FF7043"/>
<stop offset="1" stop-color="#FFAB91"/>
</linearGradient>
<linearGradient id="paint12_linear" x1="48.9583" y1="104.062" x2="48.9583" y2="25.0426" gradientUnits="userSpaceOnUse">
<stop stop-color="#FF7043" stop-opacity="0"/>
<stop offset="0.489" stop-color="#FF7043"/>
<stop offset="1" stop-color="#FFAB91"/>
</linearGradient>
<linearGradient id="paint13_linear" x1="60.0037" y1="104.062" x2="60.0037" y2="25.0433" gradientUnits="userSpaceOnUse">
<stop stop-color="#FF7043" stop-opacity="0"/>
<stop offset="0.489" stop-color="#FF7043"/>
<stop offset="1" stop-color="#FFAB91"/>
</linearGradient>
<linearGradient id="paint14_linear" x1="60.003" y1="116.4" x2="60.003" y2="39.0006" gradientUnits="userSpaceOnUse">
<stop stop-color="#212121" stop-opacity="0.3"/>
<stop offset="0.839" stop-color="#212121"/>
</linearGradient>
<linearGradient id="paint15_linear" x1="60.0021" y1="116.401" x2="60.0021" y2="91.9197" gradientUnits="userSpaceOnUse">
<stop offset="0.588" stop-color="#FF7043"/>
<stop offset="1" stop-color="#F4511E"/>
</linearGradient>
</defs>
</svg>
