<svg width="96" height="96" viewBox="0 0 96 96" fill="none" xmlns="http://www.w3.org/2000/svg">
<g clip-path="url(#clip0)">
<path d="M56.2494 69.7512C55.7246 69.7512 55.2078 69.7857 54.6992 69.8459L49.1833 49.2607C48.9637 48.441 48.2209 47.871 47.3722 47.871H42.5925C41.557 47.871 40.7175 48.7104 40.7175 49.746C40.7175 50.7815 41.557 51.621 42.5925 51.621H45.9336L47.5071 57.4929C46.2908 57.0815 44.8892 56.8625 43.3264 56.8625C39.07 56.8625 34.2756 58.5016 31.9268 60.76C30.6136 62.0225 29.7364 63.4814 29.3613 64.9334H15.1871V58.418C15.1871 57.3824 14.3476 56.543 13.3121 56.543C7.65166 56.543 3.04649 61.148 3.04649 66.8084C3.04649 67.844 3.88592 68.6834 4.92148 68.6834H13.3121H18.1749L17.2932 70.4333C15.9826 69.9931 14.582 69.7506 13.1249 69.7506C5.88785 69.7506 0 75.6385 0 82.8758C0 90.1129 5.88785 96.0005 13.1249 96.0005C19.7253 96.0005 25.201 91.1025 26.1138 84.7508H28.9887C29.7781 87.1434 32.0333 88.8756 34.687 88.8756C37.9954 88.8756 40.6868 86.184 40.6868 82.8758C40.6868 79.5673 37.9954 76.8758 34.687 76.8758C32.0333 76.8758 29.7779 78.6081 28.9887 81.0008H26.1138C25.5873 77.3376 23.5428 74.1601 20.6401 72.1248L22.3737 68.6834H29.6211C30.1671 69.8571 31.4586 71.4132 34.5034 71.8506C36.009 72.067 38.0772 72.1677 41.0119 72.1677C46.1066 72.1677 49.0052 71.6118 50.7041 70.3088C50.7712 70.2573 50.8361 70.2048 50.8989 70.1517L51.0767 70.8151C46.4046 72.8268 43.1246 77.4747 43.1246 82.8758C43.1246 90.1129 49.0125 96.0005 56.2496 96.0005C63.4867 96.0005 69.3745 90.1127 69.3745 82.8758C69.3743 75.6389 63.4865 69.7512 56.2494 69.7512ZM11.4371 64.9336H7.07153C7.69984 62.8458 9.34946 61.1964 11.4371 60.568V64.9336V64.9336ZM34.6872 80.6262C35.9277 80.6262 36.937 81.6355 36.937 82.8761C36.937 84.1168 35.9277 85.126 34.6872 85.126C33.4465 85.126 32.4372 84.1166 32.4372 82.8761C32.4372 81.6355 33.4467 80.6262 34.6872 80.6262ZM13.1249 92.2511C7.95559 92.2511 3.74999 88.0455 3.74999 82.8763C3.74999 77.707 7.95559 73.5012 13.1249 73.5012C13.9753 73.5012 14.7986 73.6171 15.5823 73.8302L11.4502 82.0328C11.1573 82.614 11.187 83.3055 11.5282 83.8598C11.8696 84.414 12.4738 84.7513 13.1248 84.7513H22.3113C21.4402 89.0248 17.6523 92.2511 13.1249 92.2511ZM22.3113 81.0012H16.1688L18.929 75.5219C20.6335 76.87 21.8617 78.7948 22.3113 81.0012ZM48.4221 67.3334C47.4836 68.0532 44.9904 68.4181 41.0119 68.4181C38.2602 68.4181 36.3615 68.3294 35.0369 68.1391C34.228 68.0228 33.2132 67.7271 32.9721 66.9786C32.7252 66.2116 33.1793 64.7579 34.5255 63.4638C35.983 62.0624 39.6735 60.6129 43.3262 60.6129C47.0779 60.6129 48.9801 61.9773 48.9801 64.6683C48.9801 66.3743 48.903 66.9646 48.4221 67.3334ZM56.2494 92.2511C51.08 92.2511 46.8744 88.0455 46.8744 82.8763C46.8744 79.2115 48.9894 76.0332 52.0618 74.4923L54.4383 83.3618C54.6628 84.1995 55.4203 84.7519 56.2483 84.7519C56.4088 84.7519 56.5723 84.7311 56.7348 84.6876C57.7351 84.4196 58.3286 83.3914 58.0606 82.3911L55.6835 73.5199C55.871 73.5087 56.0593 73.5014 56.2494 73.5014C61.4188 73.5014 65.6244 77.707 65.6244 82.8765C65.6244 88.0453 61.4188 92.2511 56.2494 92.2511Z" fill="#3CB7C6"/>
<path d="M90.373 0.00195312H67.873C64.7714 0.00195312 62.248 2.52532 62.248 5.62693V28.1268C62.248 31.2285 64.7714 33.7516 67.873 33.7516H77.248V82.0447H74.998C74.0931 82.0447 73.3175 82.691 73.1538 83.5809L71.2786 93.788C71.1781 94.3355 71.3258 94.8993 71.6821 95.3268C72.0383 95.7543 72.5661 96.0018 73.1228 96.0018H85.1232C85.6797 96.0018 86.2077 95.7545 86.5639 95.3268C86.9202 94.8991 87.0679 94.3353 86.9674 93.788L85.0922 83.5809C84.9287 82.691 84.1531 82.0447 83.2482 82.0447H80.9982V33.7514H90.3732C93.4748 33.7514 95.9982 31.2283 95.9982 28.1267V5.62674C95.998 2.52532 93.4746 0.00195312 90.373 0.00195312ZM81.6863 85.7949L82.8724 92.252H75.3738L76.5601 85.7949H81.6863ZM92.248 28.1268C92.248 29.1607 91.4069 30.0016 90.373 30.0016H67.873C66.8392 30.0016 65.998 29.1605 65.998 28.1268V5.62693C65.998 4.59306 66.8392 3.75194 67.873 3.75194H90.373C91.4069 3.75194 92.248 4.59306 92.248 5.62693V28.1268Z" fill="#3CB7C6"/>
<path d="M79.1258 8.04089H74.9316C73.8961 8.04089 73.0566 8.88033 73.0566 9.91589V18.3039V23.8351C73.0566 24.8706 73.8961 25.7101 74.9316 25.7101C75.9672 25.7101 76.8066 24.8706 76.8066 23.8351V20.1788H79.1258C82.4721 20.1788 85.1946 17.4564 85.1946 14.1097C85.1946 10.7632 82.4721 8.04089 79.1258 8.04089ZM79.1258 16.4287H76.8066V11.7909H79.1258C80.4044 11.7909 81.4446 12.8311 81.4446 14.1097C81.4446 15.3886 80.4046 16.4287 79.1258 16.4287Z" fill="#3CB7C6"/>
</g>
<defs>
<clipPath id="clip0">
<rect width="96" height="96" fill="white"/>
</clipPath>
</defs>
</svg>
