<svg width="44" height="44" viewBox="0 0 44 44" fill="none" xmlns="http://www.w3.org/2000/svg">
<g clip-path="url(#clip0)">
<path d="M31.9004 25.8301C31.5444 25.8301 31.2559 26.1187 31.2559 26.4746C31.2559 26.8306 31.5444 27.1191 31.9004 27.1191H35.3504C35.7064 27.1191 35.995 26.8306 35.995 26.4746C35.995 26.1187 35.7064 25.8301 35.3504 25.8301H31.9004Z" fill="#3CB7C6"/>
<path d="M31.9004 36.7227H35.3504C35.7064 36.7227 35.995 36.4341 35.995 36.0781C35.995 35.7222 35.7064 35.4336 35.3504 35.4336H31.9004C31.5444 35.4336 31.2559 35.7222 31.2559 36.0781C31.2559 36.4341 31.5444 36.7227 31.9004 36.7227Z" fill="#3CB7C6"/>
<path d="M42.5142 19.5199H23.6918V19.4452C23.6918 18.7962 23.6067 18.1669 23.4485 17.567H28.055C28.0772 17.567 28.0993 17.5659 28.121 17.5636C28.9056 17.5287 29.5336 16.8814 29.5336 16.0882V2.21888C29.5336 1.40359 28.8703 0.740234 28.055 0.740234H4.58365C3.76836 0.740234 3.10501 1.40359 3.10501 2.21888V16.0883C3.10501 16.8814 3.73304 17.5287 4.51765 17.5637C4.53939 17.5659 4.56139 17.5671 4.58365 17.5671H9.19007C9.03186 18.167 8.94678 18.7963 8.94678 19.4453V19.52H1.48577C0.666531 19.5199 0 20.1864 0 21.0058V22.5695C0 23.3887 0.666531 24.0553 1.48577 24.0553H2.92299V41.904C2.92299 42.6523 3.53177 43.2611 4.28012 43.2611H5.59376C6.3421 43.2611 6.95088 42.6523 6.95088 41.904V24.0553H8.94687V25.1873C8.94687 27.2976 10.6637 29.0144 12.774 29.0144H15.6747V30.9714H9.8719C9.13412 30.9714 8.53385 31.5716 8.53385 32.3095C8.53385 33.8284 9.76963 35.0642 11.2886 35.0642H15.6747V39.8328H13.688C13.1007 39.8328 12.5371 40.0816 12.1415 40.5154L10.6214 42.1822C10.3815 42.4452 10.4002 42.8529 10.6633 43.0927C10.9264 43.3327 11.334 43.3138 11.5738 43.0508L13.094 41.3839C13.2459 41.2173 13.4624 41.1217 13.6879 41.1217H15.6747V42.6147C15.6747 42.9706 15.9632 43.2592 16.3192 43.2592C16.6751 43.2592 16.9637 42.9706 16.9637 42.6147V41.1217H18.9506C19.1761 41.1217 19.3926 41.2173 19.5446 41.3839L21.0647 43.0508C21.3047 43.3141 21.7125 43.3323 21.9752 43.0927C22.2382 42.8529 22.257 42.4452 22.0171 42.1822L20.497 40.5154C20.1014 40.0816 19.5377 39.8328 18.9506 39.8328H16.9637V35.0642H21.3499C22.8688 35.0642 24.1046 33.8284 24.1046 32.3095C24.1046 31.5717 23.5044 30.9714 22.7666 30.9714H16.9637V29.0144H19.8645C21.9748 29.0144 23.6917 27.2976 23.6917 25.1873V24.0553H26.1754V41.904C26.1754 42.6523 26.7842 43.2611 27.5326 43.2611H39.7199C40.4682 43.2611 41.077 42.6523 41.077 41.904V29.7458C41.077 29.3898 40.7884 29.1012 40.4325 29.1012C40.0765 29.1012 39.7879 29.3898 39.7879 29.7458V32.3691H27.4645V24.0553H39.7879V26.738C39.7879 27.0939 40.0764 27.3825 40.4324 27.3825C40.7883 27.3825 41.0769 27.0939 41.0769 26.738V24.0553H42.5141C43.3334 24.0553 43.9999 23.3887 43.9999 22.5695V21.0058C44 20.1864 43.3335 19.5199 42.5142 19.5199ZM22.7666 32.2605C22.7936 32.2605 22.8156 32.2825 22.8156 32.3095C22.8156 33.1176 22.1581 33.7751 21.35 33.7751H11.2886C10.4804 33.7751 9.82291 33.1176 9.82291 32.3095C9.82291 32.2825 9.84491 32.2605 9.8719 32.2605H22.7666ZM39.7879 33.6582V41.904C39.7879 41.9415 39.7574 41.972 39.7199 41.972H27.5326C27.495 41.972 27.4645 41.9415 27.4645 41.904V33.6582H39.7879ZM4.58365 16.2779C4.47915 16.2779 4.39407 16.1928 4.39407 16.0882V14.454H9.65998C10.0159 14.454 10.3045 14.1654 10.3045 13.8094C10.3045 13.4535 10.0159 13.1649 9.65998 13.1649H4.39407V2.21888C4.39407 2.11438 4.47915 2.0293 4.58365 2.0293H28.0549C28.1594 2.0293 28.2445 2.11438 28.2445 2.21888V13.165H23.0055C22.6495 13.165 22.3609 13.4536 22.3609 13.8095C22.3609 14.1655 22.6495 14.4541 23.0055 14.4541H28.2445V16.0883C28.2445 16.1929 28.1594 16.278 28.0549 16.278H22.9755C21.7885 13.7936 19.2514 12.0728 16.3193 12.0728C13.3872 12.0728 10.85 13.7935 9.66307 16.278H4.58365V16.2779ZM5.66173 41.904C5.66173 41.9415 5.63123 41.972 5.59367 41.972H4.28012C4.24256 41.972 4.21205 41.9415 4.21205 41.904V24.0553H5.66173V41.904ZM1.48577 22.7662C1.37732 22.7662 1.28906 22.6779 1.28906 22.5695V21.0058C1.28906 20.8972 1.37732 20.809 1.48577 20.809H8.94678V22.7662H1.48577ZM22.4027 25.1873C22.4027 26.5868 21.2641 27.7254 19.8646 27.7254H12.774C11.3745 27.7254 10.2359 26.5868 10.2359 25.1873V19.4452C10.2359 16.0908 12.965 13.3618 16.3194 13.3618C19.6738 13.3618 22.4028 16.0908 22.4028 19.4452V25.1873H22.4027ZM42.7109 22.5695C42.7109 22.6779 42.6227 22.7662 42.5142 22.7662H23.6918V20.809H42.5142C42.6227 20.809 42.7109 20.8972 42.7109 21.0058V22.5695Z" fill="#3CB7C6"/>
</g>
<defs>
<clipPath id="clip0">
<rect width="44" height="44" fill="white"/>
</clipPath>
</defs>
</svg>
