<svg width="113" height="96" viewBox="0 0 113 96" fill="none" xmlns="http://www.w3.org/2000/svg">
<path fill-rule="evenodd" clip-rule="evenodd" d="M78.0038 0.109091C78.0038 0.169091 77.8565 0.218182 77.6765 0.218182C77.4965 0.218182 77.3492 0.267273 77.3492 0.327273C77.3492 0.387273 77.2745 0.436364 77.1832 0.436364C76.9672 0.436364 75.822 1.5816 75.822 1.7976C75.822 1.88891 75.7729 1.96364 75.7129 1.96364C75.6529 1.96364 75.6038 2.11091 75.6038 2.29091C75.6038 2.47091 75.5547 2.61818 75.4947 2.61818C75.4245 2.61818 75.3856 3.70909 75.3856 5.67273V8.72727H52.3674C37.0947 8.72727 29.3492 8.76393 29.3492 8.83636C29.3492 8.89636 29.2734 8.94545 29.1807 8.94545C28.9624 8.94545 28.4765 9.43135 28.4765 9.64964C28.4765 9.74236 28.4274 9.81818 28.3674 9.81818C28.3068 9.81818 28.2583 10.1091 28.2583 10.4727C28.2583 10.8363 28.3068 11.1273 28.3674 11.1273C28.4274 11.1273 28.4765 11.2031 28.4765 11.2958C28.4765 11.5141 28.9624 12 29.1807 12C29.2734 12 29.3492 12.0491 29.3492 12.1091C29.3492 12.1816 41.5674 12.2182 65.7856 12.2182C90.0038 12.2182 102.222 12.2547 102.222 12.3273C102.222 12.3873 102.298 12.4364 102.391 12.4364C102.609 12.4364 103.095 12.9223 103.095 13.1405C103.095 13.2333 103.144 13.3091 103.204 13.3091C103.274 13.3091 103.313 14.3637 103.313 16.2545V19.2H53.5674H3.82196V16.2545C3.82196 14.3637 3.86102 13.3091 3.93105 13.3091C3.99105 13.3091 4.04015 13.2333 4.04015 13.1405C4.04015 12.9223 4.52604 12.4364 4.74433 12.4364C4.83705 12.4364 4.91287 12.3873 4.91287 12.3273C4.91287 12.2559 6.94927 12.2182 10.8038 12.2182C14.6583 12.2182 16.6947 12.1804 16.6947 12.1091C16.6947 12.0491 16.7705 12 16.8632 12C17.0815 12 17.5674 11.5141 17.5674 11.2958C17.5674 11.2031 17.6165 11.1273 17.6765 11.1273C17.7372 11.1273 17.7856 10.8363 17.7856 10.4727C17.7856 10.1091 17.7372 9.81818 17.6765 9.81818C17.6165 9.81818 17.5674 9.74236 17.5674 9.64964C17.5674 9.43135 17.0815 8.94545 16.8632 8.94545C16.7705 8.94545 16.6947 8.89636 16.6947 8.83636C16.6947 8.76491 14.5856 8.72727 10.5856 8.72727C6.58556 8.72727 4.47651 8.76491 4.47651 8.83636C4.47651 8.89636 4.32924 8.94545 4.14924 8.94545C3.96924 8.94545 3.82196 8.99455 3.82196 9.05455C3.82196 9.11455 3.68549 9.16364 3.5188 9.16364C3.34076 9.16364 3.15073 9.25375 3.05833 9.38182C2.97182 9.50182 2.83731 9.6 2.75953 9.6C2.57505 9.6 1.20378 10.9713 1.20378 11.1557C1.20378 11.2335 1.1056 11.368 0.9856 11.4545C0.857527 11.5469 0.767418 11.737 0.767418 11.915C0.767418 12.0817 0.718327 12.2182 0.658327 12.2182C0.598327 12.2182 0.549237 12.3655 0.549237 12.5455C0.549237 12.7255 0.500146 12.8727 0.440146 12.8727C0.369237 12.8727 0.331055 14.4 0.331055 17.2364C0.331055 20.0727 0.369237 21.6 0.440146 21.6C0.500146 21.6 0.549237 21.6758 0.549237 21.7685C0.549237 21.9868 1.03513 22.4727 1.25342 22.4727C1.34615 22.4727 1.42196 22.5218 1.42196 22.5818C1.42196 22.6479 1.89465 22.6909 2.62196 22.6909H3.82196V51.2727C3.82196 70.2545 3.85862 79.8545 3.93105 79.8545C3.99105 79.8545 4.04015 80.1 4.04015 80.4C4.04015 80.7 4.08924 80.9455 4.14924 80.9455C4.20924 80.9455 4.25833 81.0927 4.25833 81.2727C4.25833 81.4527 4.30742 81.6 4.36742 81.6C4.42742 81.6 4.47651 81.6982 4.47651 81.8182C4.47651 81.9382 4.5256 82.0364 4.5856 82.0364C4.6456 82.0364 4.69469 82.1345 4.69469 82.2545C4.69469 82.3745 4.74378 82.4727 4.80378 82.4727C4.86378 82.4727 4.91287 82.5709 4.91287 82.6909C4.91287 82.8109 4.96196 82.9091 5.02196 82.9091C5.08196 82.9091 5.13105 82.9965 5.13105 83.1032C5.13105 83.21 5.22924 83.368 5.34924 83.4545C5.46924 83.5411 5.56742 83.6753 5.56742 83.7531C5.56742 83.9374 7.15731 85.5273 7.34156 85.5273C7.41935 85.5273 7.55364 85.6255 7.64015 85.7455C7.72665 85.8655 7.88473 85.9636 7.99153 85.9636C8.09822 85.9636 8.1856 86.0127 8.1856 86.0727C8.1856 86.1327 8.28378 86.1818 8.40378 86.1818C8.52378 86.1818 8.62196 86.2309 8.62196 86.2909C8.62196 86.3509 8.72015 86.4 8.84015 86.4C8.96015 86.4 9.05833 86.4491 9.05833 86.5091C9.05833 86.5691 9.15651 86.6182 9.27651 86.6182C9.39651 86.6182 9.49469 86.6673 9.49469 86.7273C9.49469 86.7873 9.64196 86.8364 9.82196 86.8364C10.002 86.8364 10.1492 86.8855 10.1492 86.9455C10.1492 87.0055 10.3947 87.0545 10.6947 87.0545C10.9947 87.0545 11.2401 87.1036 11.2401 87.1636C11.2401 87.2318 11.8947 87.2727 12.9856 87.2727H14.7311V87.8182C14.7311 88.1182 14.7801 88.3636 14.8401 88.3636C14.9001 88.3636 14.9492 88.6091 14.9492 88.9091C14.9492 89.2091 14.9983 89.4545 15.0583 89.4545C15.1183 89.4545 15.1674 89.7 15.1674 90C15.1674 90.3 15.2165 90.5455 15.2765 90.5455C15.3365 90.5455 15.3856 90.7909 15.3856 91.0909C15.3856 91.3909 15.4347 91.6364 15.4947 91.6364C15.5547 91.6364 15.6038 91.8818 15.6038 92.1818C15.6038 92.4818 15.6529 92.7273 15.7129 92.7273C15.7729 92.7273 15.822 92.9236 15.822 93.1636C15.822 93.4036 15.8711 93.6 15.9311 93.6C15.9911 93.6 16.0401 93.7236 16.0401 93.8748C16.0401 94.1834 17.3312 95.5636 17.6199 95.5636C17.7111 95.5636 17.7856 95.6127 17.7856 95.6727C17.7856 95.7327 17.9329 95.7818 18.1129 95.7818C18.2929 95.7818 18.4401 95.8309 18.4401 95.8909C18.4401 95.9624 20.622 96 24.7674 96C28.9129 96 31.0947 95.9624 31.0947 95.8909C31.0947 95.8309 31.242 95.7818 31.422 95.7818C31.602 95.7818 31.7492 95.7327 31.7492 95.6727C31.7492 95.6127 31.824 95.5636 31.9153 95.5636C32.1313 95.5636 33.2765 94.4184 33.2765 94.2024C33.2765 94.1111 33.3256 94.0364 33.3856 94.0364C33.4456 94.0364 33.4947 93.9382 33.4947 93.8182C33.4947 93.6982 33.5438 93.6 33.6038 93.6C33.6638 93.6 33.7129 93.4036 33.7129 93.1636C33.7129 92.9236 33.762 92.7273 33.822 92.7273C33.882 92.7273 33.9311 92.4818 33.9311 92.1818C33.9311 91.8818 33.9801 91.6364 34.0401 91.6364C34.1001 91.6364 34.1492 91.3909 34.1492 91.0909C34.1492 90.7909 34.1983 90.5455 34.2583 90.5455C34.3183 90.5455 34.3674 90.3 34.3674 90C34.3674 89.7 34.4165 89.4545 34.4765 89.4545C34.5365 89.4545 34.5856 89.2091 34.5856 88.9091C34.5856 88.6091 34.6347 88.3636 34.6947 88.3636C34.7547 88.3636 34.8038 88.1182 34.8038 87.8182V87.2727H58.5388C83.8325 87.2727 82.5856 87.2476 82.5856 87.7559C82.5856 87.8501 82.6347 87.9273 82.6947 87.9273C82.7547 87.9273 82.8038 88.0147 82.8038 88.1213C82.8038 88.2281 82.902 88.3862 83.022 88.4727C83.142 88.5592 83.2401 88.7065 83.2401 88.8C83.2401 88.8935 83.3383 89.0408 83.4583 89.1273C83.5783 89.2138 83.6765 89.3511 83.6765 89.4326C83.6765 89.5141 83.8729 89.7694 84.1129 90C84.3529 90.2306 84.5492 90.4732 84.5492 90.5392C84.5492 90.6948 85.7077 91.8545 85.863 91.8545C85.9283 91.8545 86.2206 92.1 86.5129 92.4C86.8051 92.7 87.1101 92.9455 87.1908 92.9455C87.2715 92.9455 87.4082 93.0436 87.4947 93.1636C87.5812 93.2836 87.7285 93.3818 87.822 93.3818C87.9155 93.3818 88.0627 93.48 88.1492 93.6C88.2357 93.72 88.3938 93.8182 88.5006 93.8182C88.6073 93.8182 88.6947 93.8673 88.6947 93.9273C88.6947 93.9873 88.7929 94.0364 88.9129 94.0364C89.0329 94.0364 89.1311 94.0855 89.1311 94.1455C89.1311 94.2055 89.2292 94.2545 89.3492 94.2545C89.4692 94.2545 89.5674 94.3036 89.5674 94.3636C89.5674 94.4236 89.6656 94.4727 89.7856 94.4727C89.9056 94.4727 90.0038 94.5218 90.0038 94.5818C90.0038 94.6418 90.1511 94.6909 90.3311 94.6909C90.5111 94.6909 90.6583 94.74 90.6583 94.8C90.6583 94.86 90.7565 94.9091 90.8765 94.9091C90.9965 94.9091 91.0947 94.9582 91.0947 95.0182C91.0947 95.0782 91.242 95.1273 91.422 95.1273C91.602 95.1273 91.7492 95.1764 91.7492 95.2364C91.7492 95.2964 91.9456 95.3455 92.1856 95.3455C92.4256 95.3455 92.622 95.3945 92.622 95.4545C92.622 95.5145 92.8674 95.5636 93.1674 95.5636C93.4674 95.5636 93.7129 95.6127 93.7129 95.6727C93.7129 95.7382 94.1492 95.7818 94.8038 95.7818C95.4583 95.7818 95.8947 95.8255 95.8947 95.8909C95.8947 95.9509 96.0911 96 96.3311 96C96.5711 96 96.7674 95.9509 96.7674 95.8909C96.7674 95.8255 97.2038 95.7818 97.8583 95.7818C98.5129 95.7818 98.9492 95.7382 98.9492 95.6727C98.9492 95.6127 99.1947 95.5636 99.4947 95.5636C99.7947 95.5636 100.04 95.5145 100.04 95.4545C100.04 95.3945 100.237 95.3455 100.477 95.3455C100.717 95.3455 100.913 95.2964 100.913 95.2364C100.913 95.1764 101.06 95.1273 101.24 95.1273C101.42 95.1273 101.567 95.0782 101.567 95.0182C101.567 94.9582 101.666 94.9091 101.786 94.9091C101.906 94.9091 102.004 94.86 102.004 94.8C102.004 94.74 102.151 94.6909 102.331 94.6909C102.511 94.6909 102.658 94.6418 102.658 94.5818C102.658 94.5218 102.757 94.4727 102.877 94.4727C102.997 94.4727 103.095 94.4236 103.095 94.3636C103.095 94.3036 103.193 94.2545 103.313 94.2545C103.433 94.2545 103.531 94.2055 103.531 94.1455C103.531 94.0855 103.629 94.0364 103.749 94.0364C103.869 94.0364 103.967 93.9873 103.967 93.9273C103.967 93.8673 104.055 93.8182 104.161 93.8182C104.268 93.8182 104.426 93.72 104.513 93.6C104.599 93.48 104.747 93.3818 104.84 93.3818C104.934 93.3818 105.081 93.2836 105.167 93.1636C105.254 93.0436 105.391 92.9455 105.473 92.9455C105.554 92.9455 105.81 92.7491 106.04 92.5091C106.271 92.2691 106.513 92.0727 106.579 92.0727C106.736 92.0727 108.331 90.4755 108.331 90.3182C108.331 90.2513 108.478 90.059 108.658 89.8909C108.838 89.7228 108.986 89.5175 108.986 89.4349C108.986 89.3522 109.084 89.2138 109.204 89.1273C109.324 89.0408 109.422 88.8935 109.422 88.8C109.422 88.7065 109.52 88.5592 109.64 88.4727C109.76 88.3862 109.858 88.2281 109.858 88.1213C109.858 88.0147 109.907 87.9273 109.967 87.9273C110.027 87.9273 110.077 87.8291 110.077 87.7091C110.077 87.5891 110.126 87.4909 110.186 87.4909C110.246 87.4909 110.295 87.3927 110.295 87.2727C110.295 87.1527 110.344 87.0545 110.404 87.0545C110.464 87.0545 110.513 86.9564 110.513 86.8364C110.513 86.7164 110.562 86.6182 110.622 86.6182C110.682 86.6182 110.731 86.52 110.731 86.4C110.731 86.28 110.78 86.1818 110.84 86.1818C110.9 86.1818 110.949 86.0836 110.949 85.9636C110.949 85.8436 110.998 85.7455 111.058 85.7455C111.118 85.7455 111.167 85.5982 111.167 85.4182C111.167 85.2382 111.217 85.0909 111.277 85.0909C111.337 85.0909 111.386 84.8945 111.386 84.6545C111.386 84.4145 111.435 84.2182 111.495 84.2182C111.555 84.2182 111.604 84.0218 111.604 83.7818C111.604 83.5418 111.653 83.3455 111.713 83.3455C111.774 83.3455 111.822 83.0545 111.822 82.6909C111.822 82.3273 111.87 82.0364 111.931 82.0364C111.999 82.0364 112.04 81.3455 112.04 80.1818C112.04 79.0181 111.999 78.3273 111.931 78.3273C111.87 78.3273 111.822 78.0363 111.822 77.6727C111.822 77.3091 111.774 77.0182 111.713 77.0182C111.653 77.0182 111.604 76.8218 111.604 76.5818C111.604 76.3418 111.555 76.1455 111.495 76.1455C111.435 76.1455 111.386 75.9982 111.386 75.8182C111.386 75.6382 111.337 75.4909 111.277 75.4909C111.217 75.4909 111.167 75.3436 111.167 75.1636C111.167 74.9836 111.118 74.8364 111.058 74.8364C110.998 74.8364 110.949 74.6891 110.949 74.5091C110.949 74.3291 110.9 74.1818 110.84 74.1818C110.78 74.1818 110.731 74.0836 110.731 73.9636C110.731 73.8436 110.682 73.7455 110.622 73.7455C110.562 73.7455 110.513 73.6473 110.513 73.5273C110.513 73.4073 110.464 73.3091 110.404 73.3091C110.344 73.3091 110.295 73.2109 110.295 73.0909C110.295 72.9709 110.246 72.8727 110.186 72.8727C110.126 72.8727 110.077 72.7745 110.077 72.6545C110.077 72.5345 110.027 72.4364 109.967 72.4364C109.907 72.4364 109.858 72.349 109.858 72.2423C109.858 72.1355 109.76 71.9774 109.64 71.8909C109.52 71.8044 109.422 71.6571 109.422 71.5636C109.422 71.4701 109.324 71.3229 109.204 71.2364C109.084 71.1499 108.986 71.0132 108.986 70.9324C108.986 70.8518 108.74 70.5468 108.44 70.2545C108.14 69.9623 107.895 69.6697 107.895 69.6043C107.895 69.4484 106.954 68.5091 106.798 68.5091C106.732 68.5091 106.489 68.3127 106.258 68.0727C106.028 67.8327 105.772 67.6364 105.691 67.6364C105.609 67.6364 105.472 67.5382 105.386 67.4182C105.299 67.2982 105.152 67.2 105.058 67.2C104.965 67.2 104.818 67.1018 104.731 66.9818C104.645 66.8618 104.486 66.7636 104.38 66.7636C104.273 66.7636 104.186 66.7145 104.186 66.6545C104.186 66.5945 104.11 66.5455 104.017 66.5455C103.924 66.5455 103.728 66.4249 103.581 66.2776L103.313 66.0099V44.3504V22.6909H104.513C105.24 22.6909 105.713 22.6479 105.713 22.5818C105.713 22.5218 105.789 22.4727 105.881 22.4727C106.1 22.4727 106.586 21.9868 106.586 21.7685C106.586 21.6758 106.635 21.6 106.695 21.6C106.766 21.6 106.804 20.0727 106.804 17.2364C106.804 14.4 106.766 12.8727 106.695 12.8727C106.635 12.8727 106.586 12.7255 106.586 12.5455C106.586 12.3655 106.537 12.2182 106.477 12.2182C106.417 12.2182 106.367 12.0817 106.367 11.915C106.367 11.737 106.277 11.5469 106.149 11.4545C106.029 11.368 105.931 11.2335 105.931 11.1557C105.931 10.9713 104.56 9.6 104.375 9.6C104.298 9.6 104.163 9.50182 104.077 9.38182C103.984 9.25375 103.794 9.16364 103.616 9.16364C103.449 9.16364 103.313 9.11455 103.313 9.05455C103.313 8.99455 103.166 8.94545 102.986 8.94545C102.806 8.94545 102.658 8.89636 102.658 8.83636C102.658 8.76611 101.531 8.72727 99.4947 8.72727H96.3311V5.67273C96.3311 3.70909 96.2921 2.61818 96.222 2.61818C96.162 2.61818 96.1129 2.47091 96.1129 2.29091C96.1129 2.11091 96.0638 1.96364 96.0038 1.96364C95.9438 1.96364 95.8947 1.88891 95.8947 1.7976C95.8947 1.5816 94.7495 0.436364 94.5335 0.436364C94.4421 0.436364 94.3674 0.387273 94.3674 0.327273C94.3674 0.267273 94.2201 0.218182 94.0401 0.218182C93.8601 0.218182 93.7129 0.169091 93.7129 0.109091C93.7129 0.0374182 91.0219 0 85.8583 0C80.6947 0 78.0038 0.0374182 78.0038 0.109091ZM92.8401 6.10909V8.72727H85.8583H78.8765V6.10909V3.49091H85.8583H92.8401V6.10909ZM22.3674 8.83636C22.3674 8.89636 22.2916 8.94545 22.1989 8.94545C22.1061 8.94545 21.9098 9.066 21.7625 9.21327C21.6152 9.36055 21.4947 9.55691 21.4947 9.64964C21.4947 9.74236 21.4456 9.81818 21.3856 9.81818C21.3249 9.81818 21.2765 10.1091 21.2765 10.4727C21.2765 10.8363 21.3249 11.1273 21.3856 11.1273C21.4456 11.1273 21.4947 11.2031 21.4947 11.2958C21.4947 11.5141 21.9806 12 22.1989 12C22.2916 12 22.3674 12.0491 22.3674 12.1091C22.3674 12.1697 22.6584 12.2182 23.022 12.2182C23.3856 12.2182 23.6765 12.1697 23.6765 12.1091C23.6765 12.0491 23.7523 12 23.8451 12C24.0633 12 24.5492 11.5141 24.5492 11.2958C24.5492 11.2031 24.5983 11.1273 24.6583 11.1273C24.719 11.1273 24.7674 10.8363 24.7674 10.4727C24.7674 10.1091 24.719 9.81818 24.6583 9.81818C24.5983 9.81818 24.5492 9.74236 24.5492 9.64964C24.5492 9.55691 24.4287 9.36055 24.2814 9.21327C24.1341 9.066 23.9378 8.94545 23.8451 8.94545C23.7523 8.94545 23.6765 8.89636 23.6765 8.83636C23.6765 8.77571 23.3856 8.72727 23.022 8.72727C22.6584 8.72727 22.3674 8.77571 22.3674 8.83636ZM99.822 35.7818V48.8727H96.8765C94.9856 48.8727 93.9311 48.9118 93.9311 48.9818C93.9311 49.0418 93.8552 49.0909 93.7625 49.0909C93.5442 49.0909 93.0583 49.5768 93.0583 49.7951C93.0583 49.8878 93.0092 49.9636 92.9492 49.9636C92.8886 49.9636 92.8401 50.2546 92.8401 50.6182C92.8401 50.9818 92.8886 51.2727 92.9492 51.2727C93.0092 51.2727 93.0583 51.3485 93.0583 51.4413C93.0583 51.6596 93.5442 52.1455 93.7625 52.1455C93.8552 52.1455 93.9311 52.1945 93.9311 52.2545C93.9311 52.3246 94.9856 52.3636 96.8765 52.3636H99.822V58.5818V64.8H99.2765C98.9765 64.8 98.7311 64.7509 98.7311 64.6909C98.7311 64.6213 97.822 64.5818 96.222 64.5818C94.6219 64.5818 93.7129 64.6213 93.7129 64.6909C93.7129 64.7509 93.4674 64.8 93.1674 64.8C92.8674 64.8 92.622 64.8491 92.622 64.9091C92.622 64.9691 92.4747 65.0182 92.2947 65.0182C92.1147 65.0182 91.9674 65.0673 91.9674 65.1273C91.9674 65.1873 91.8201 65.2364 91.6401 65.2364C91.4601 65.2364 91.3129 65.2855 91.3129 65.3455C91.3129 65.4055 91.1656 65.4545 90.9856 65.4545C90.8056 65.4545 90.6583 65.5036 90.6583 65.5636C90.6583 65.6236 90.5111 65.6727 90.3311 65.6727C90.1511 65.6727 90.0038 65.7218 90.0038 65.7818C90.0038 65.8418 89.9056 65.8909 89.7856 65.8909C89.6656 65.8909 89.5674 65.94 89.5674 66C89.5674 66.06 89.4692 66.1091 89.3492 66.1091C89.2292 66.1091 89.1311 66.1582 89.1311 66.2182C89.1311 66.2782 89.0437 66.3273 88.937 66.3273C88.8302 66.3273 88.6721 66.4255 88.5856 66.5455C88.4991 66.6655 88.341 66.7636 88.2342 66.7636C88.1275 66.7636 88.0401 66.8127 88.0401 66.8727C88.0401 66.9327 87.9528 66.9818 87.8461 66.9818C87.7393 66.9818 87.5812 67.08 87.4947 67.2C87.4082 67.32 87.2715 67.4182 87.1908 67.4182C87.1101 67.4182 86.8051 67.6636 86.5129 67.9636C86.2206 68.2636 85.9283 68.5091 85.863 68.5091C85.7077 68.5091 84.5492 69.6688 84.5492 69.8244C84.5492 69.8904 84.3529 70.133 84.1129 70.3636C83.8729 70.5943 83.6765 70.8495 83.6765 70.931C83.6765 71.0125 83.5783 71.1499 83.4583 71.2364C83.3383 71.3229 83.2401 71.4701 83.2401 71.5636C83.2401 71.6571 83.142 71.8044 83.022 71.8909C82.902 71.9774 82.8038 72.1355 82.8038 72.2423C82.8038 72.349 82.7547 72.4364 82.6947 72.4364C82.6347 72.4364 82.5856 72.5345 82.5856 72.6545C82.5856 72.7745 82.5365 72.8727 82.4765 72.8727C82.4165 72.8727 82.3674 72.9709 82.3674 73.0909C82.3674 73.2109 82.3183 73.3091 82.2583 73.3091C82.1983 73.3091 82.1492 73.4073 82.1492 73.5273C82.1492 73.6473 82.1001 73.7455 82.0401 73.7455C81.9801 73.7455 81.9311 73.8436 81.9311 73.9636C81.9311 74.0836 81.882 74.1818 81.822 74.1818C81.762 74.1818 81.7129 74.28 81.7129 74.4C81.7129 74.52 81.6638 74.6182 81.6038 74.6182C81.5438 74.6182 81.4947 74.7655 81.4947 74.9455C81.4947 75.1255 81.4456 75.2727 81.3856 75.2727C81.3256 75.2727 81.2765 75.4691 81.2765 75.7091C81.2765 75.9491 81.2274 76.1455 81.1674 76.1455C81.1074 76.1455 81.0583 76.3418 81.0583 76.5818C81.0583 76.8218 81.0092 77.0182 80.9492 77.0182C80.8886 77.0182 80.8401 77.3091 80.8401 77.6727C80.8401 78.0363 80.7917 78.3273 80.7311 78.3273C80.6627 78.3273 80.622 79.0181 80.622 80.1818C80.622 81.3455 80.6627 82.0364 80.7311 82.0364C80.7917 82.0364 80.8401 82.3273 80.8401 82.6909C80.8401 83.0545 80.8886 83.3455 80.9492 83.3455C81.0092 83.3455 81.0583 83.4436 81.0583 83.5636C81.0583 83.7814 80.9856 83.7818 46.2583 83.7818C23.1311 83.7818 11.4583 83.7453 11.4583 83.6727C11.4583 83.6127 11.3111 83.5636 11.1311 83.5636C10.9511 83.5636 10.8038 83.5145 10.8038 83.4545C10.8038 83.3945 10.6673 83.3455 10.5006 83.3455C10.3226 83.3455 10.1325 83.2553 10.0401 83.1273C9.95364 83.0073 9.81913 82.9091 9.74135 82.9091C9.55687 82.9091 8.1856 81.5378 8.1856 81.3533C8.1856 81.2756 8.08742 81.1411 7.96742 81.0545C7.83935 80.9621 7.74924 80.7721 7.74924 80.5941C7.74924 80.4274 7.70015 80.2909 7.64015 80.2909C7.58015 80.2909 7.53105 80.1436 7.53105 79.9636C7.53105 79.7836 7.48196 79.6364 7.42196 79.6364C7.34985 79.6364 7.31287 75.0182 7.31287 66V52.3636H11.3492C13.9674 52.3636 15.3856 52.4019 15.3856 52.4727C15.3856 52.5327 15.3365 52.5818 15.2765 52.5818C15.2165 52.5818 15.1674 52.68 15.1674 52.8C15.1674 52.92 15.1183 53.0182 15.0583 53.0182C14.9983 53.0182 14.9492 53.1164 14.9492 53.2364C14.9492 53.3564 14.9001 53.4545 14.8401 53.4545C14.7801 53.4545 14.7311 53.5527 14.7311 53.6727C14.7311 53.7927 14.682 53.8909 14.622 53.8909C14.562 53.8909 14.5129 53.9891 14.5129 54.1091C14.5129 54.2291 14.4638 54.3273 14.4038 54.3273C14.3438 54.3273 14.2947 54.5727 14.2947 54.8727C14.2947 55.1727 14.3438 55.4182 14.4038 55.4182C14.4638 55.4182 14.5129 55.4935 14.5129 55.5854C14.5129 55.6775 14.6831 55.9229 14.8911 56.1309L15.2692 56.5091H19.9716C23.9015 56.5091 24.6996 56.5347 24.8297 56.665C24.96 56.7951 24.9856 57.5932 24.9856 61.5231V66.2255L25.3638 66.6036C25.5717 66.8116 25.8172 66.9818 25.9093 66.9818C26.0012 66.9818 26.0765 67.0309 26.0765 67.0909C26.0765 67.1509 26.322 67.2 26.622 67.2C26.922 67.2 27.1674 67.1509 27.1674 67.0909C27.1674 67.0309 27.2427 66.9818 27.3347 66.9818C27.5389 66.9818 28.2583 66.2811 28.2583 66.0823C28.2583 66.0035 28.3565 65.8683 28.4765 65.7818C28.5965 65.6953 28.6947 65.548 28.6947 65.4545C28.6947 65.3611 28.7929 65.2138 28.9129 65.1273C29.0329 65.0408 29.1311 64.8827 29.1311 64.7759C29.1311 64.6692 29.1801 64.5818 29.2401 64.5818C29.3001 64.5818 29.3492 64.4944 29.3492 64.3877C29.3492 64.2809 29.4474 64.1229 29.5674 64.0364C29.6874 63.9499 29.7856 63.8026 29.7856 63.7091C29.7856 63.6156 29.8838 63.4683 30.0038 63.3818C30.1238 63.2953 30.222 63.1372 30.222 63.0304C30.222 62.9237 30.2711 62.8364 30.3311 62.8364C30.3911 62.8364 30.4401 62.749 30.4401 62.6423C30.4401 62.5355 30.5383 62.3774 30.6583 62.2909C30.7783 62.2044 30.8765 62.0571 30.8765 61.9636C30.8765 61.8701 30.9747 61.7229 31.0947 61.6364C31.2147 61.5499 31.3129 61.3918 31.3129 61.285C31.3129 61.1783 31.362 61.0909 31.422 61.0909C31.482 61.0909 31.5311 61.0035 31.5311 60.8968C31.5311 60.79 31.6292 60.632 31.7492 60.5455C31.8692 60.4589 31.9674 60.3117 31.9674 60.2182C31.9674 60.1247 32.0656 59.9774 32.1856 59.8909C32.3056 59.8044 32.4038 59.6463 32.4038 59.5395C32.4038 59.4328 32.4529 59.3455 32.5129 59.3455C32.5729 59.3455 32.622 59.2581 32.622 59.1514C32.622 59.0446 32.7201 58.8865 32.8401 58.8C32.9601 58.7135 33.0583 58.5662 33.0583 58.4727C33.0583 58.3792 33.1565 58.232 33.2765 58.1455C33.3965 58.0589 33.4947 57.9009 33.4947 57.7941C33.4947 57.6874 33.5438 57.6 33.6038 57.6C33.6638 57.6 33.7129 57.5126 33.7129 57.4059C33.7129 57.2991 33.8111 57.1411 33.9311 57.0545C34.0511 56.968 34.1492 56.8208 34.1492 56.7273C34.1492 56.6338 34.2474 56.4865 34.3674 56.4C34.4874 56.3135 34.5856 56.1554 34.5856 56.0486C34.5856 55.9419 34.6347 55.8545 34.6947 55.8545C34.7547 55.8545 34.8038 55.7672 34.8038 55.6605C34.8038 55.5537 34.902 55.3956 35.022 55.3091C35.142 55.2226 35.2401 55.0753 35.2401 54.9818C35.2401 54.8883 35.3383 54.7411 35.4583 54.6545C35.5783 54.568 35.6765 54.41 35.6765 54.3032C35.6765 54.1965 35.7256 54.1091 35.7856 54.1091C35.8456 54.1091 35.8947 54.0217 35.8947 53.915C35.8947 53.8082 35.9929 53.6501 36.1129 53.5636C36.2329 53.4771 36.3311 53.3299 36.3311 53.2364C36.3311 53.1429 36.4292 52.9956 36.5492 52.9091C36.6692 52.8226 36.7674 52.6645 36.7674 52.5577C36.7674 52.3723 37.7606 52.3636 59.022 52.3636C73.7856 52.3636 81.2765 52.3269 81.2765 52.2545C81.2765 52.1945 81.3523 52.1455 81.4451 52.1455C81.6633 52.1455 82.1492 51.6596 82.1492 51.4413C82.1492 51.3485 82.1983 51.2727 82.2583 51.2727C82.319 51.2727 82.3674 50.9818 82.3674 50.6182C82.3674 50.2546 82.319 49.9636 82.2583 49.9636C82.1983 49.9636 82.1492 49.8878 82.1492 49.7951C82.1492 49.5768 81.6633 49.0909 81.4451 49.0909C81.3523 49.0909 81.2765 49.0418 81.2765 48.9818C81.2765 48.9095 74.1493 48.8727 60.1129 48.8727H38.9492V48.3514C38.9492 47.9552 38.8969 47.7923 38.7311 47.6727C38.6111 47.5862 38.5129 47.4281 38.5129 47.3213C38.5129 47.2 38.4312 47.1273 38.2947 47.1273C38.1747 47.1273 38.0765 47.0782 38.0765 47.0182C38.0765 46.9582 37.9783 46.9091 37.8583 46.9091C37.7383 46.9091 37.6401 46.86 37.6401 46.8C37.6401 46.729 36.0401 46.6909 33.0583 46.6909H28.4765V41.1273C28.4765 37.4909 28.4388 35.5636 28.3674 35.5636C28.3074 35.5636 28.2583 35.4393 28.2583 35.2873C28.2583 34.98 27.6096 34.2545 27.3347 34.2545C27.2427 34.2545 27.1674 34.2055 27.1674 34.1455C27.1674 34.0855 26.922 34.0364 26.622 34.0364C26.322 34.0364 26.0765 34.0855 26.0765 34.1455C26.0765 34.2055 26.0012 34.2545 25.9093 34.2545C25.8172 34.2545 25.5717 34.4247 25.3638 34.6328C25.1558 34.8407 24.9856 35.0861 24.9856 35.1782C24.9856 35.2702 24.9365 35.3455 24.8765 35.3455C24.8165 35.3455 24.7674 35.4436 24.7674 35.5636C24.7674 35.6836 24.7183 35.7818 24.6583 35.7818C24.5983 35.7818 24.5492 35.8692 24.5492 35.9759C24.5492 36.0827 24.4511 36.2408 24.3311 36.3273C24.2111 36.4138 24.1129 36.5719 24.1129 36.6787C24.1129 36.7853 24.0638 36.8727 24.0038 36.8727C23.9438 36.8727 23.8947 36.9709 23.8947 37.0909C23.8947 37.2109 23.8456 37.3091 23.7856 37.3091C23.7256 37.3091 23.6765 37.4073 23.6765 37.5273C23.6765 37.6473 23.6274 37.7455 23.5674 37.7455C23.5074 37.7455 23.4583 37.8328 23.4583 37.9395C23.4583 38.0463 23.3601 38.2044 23.2401 38.2909C23.1201 38.3774 23.022 38.5355 23.022 38.6423C23.022 38.749 22.9729 38.8364 22.9129 38.8364C22.8529 38.8364 22.8038 38.9345 22.8038 39.0545C22.8038 39.1745 22.7547 39.2727 22.6947 39.2727C22.6347 39.2727 22.5856 39.3709 22.5856 39.4909C22.5856 39.6109 22.5365 39.7091 22.4765 39.7091C22.4165 39.7091 22.3674 39.7965 22.3674 39.9032C22.3674 40.01 22.2692 40.168 22.1492 40.2545C22.0292 40.3411 21.9311 40.4991 21.9311 40.6059C21.9311 40.7126 21.882 40.8 21.822 40.8C21.762 40.8 21.7129 40.8982 21.7129 41.0182C21.7129 41.1382 21.6638 41.2364 21.6038 41.2364C21.5438 41.2364 21.4947 41.3345 21.4947 41.4545C21.4947 41.5745 21.4456 41.6727 21.3856 41.6727C21.3256 41.6727 21.2765 41.7601 21.2765 41.8668C21.2765 41.9736 21.1783 42.1317 21.0583 42.2182C20.9383 42.3047 20.8401 42.4628 20.8401 42.5696C20.8401 42.6763 20.7911 42.7636 20.7311 42.7636C20.6711 42.7636 20.622 42.8618 20.622 42.9818C20.622 43.1018 20.5729 43.2 20.5129 43.2C20.4529 43.2 20.4038 43.2982 20.4038 43.4182C20.4038 43.5382 20.3547 43.6364 20.2947 43.6364C20.2347 43.6364 20.1856 43.7237 20.1856 43.8304C20.1856 43.9372 20.0874 44.0953 19.9674 44.1818C19.8474 44.2683 19.7492 44.4264 19.7492 44.5332C19.7492 44.6399 19.7001 44.7273 19.6401 44.7273C19.5801 44.7273 19.5311 44.8255 19.5311 44.9455C19.5311 45.0655 19.482 45.1636 19.422 45.1636C19.362 45.1636 19.3129 45.2618 19.3129 45.3818C19.3129 45.5018 19.2638 45.6 19.2038 45.6C19.1438 45.6 19.0947 45.6874 19.0947 45.7941C19.0947 45.9009 18.9965 46.0589 18.8765 46.1455C18.7565 46.232 18.6583 46.39 18.6583 46.4968C18.6583 46.6035 18.6092 46.6909 18.5492 46.6909C18.4892 46.6909 18.4401 46.7891 18.4401 46.9091C18.4401 47.0291 18.3911 47.1273 18.3311 47.1273C18.2711 47.1273 18.222 47.2255 18.222 47.3455C18.222 47.4655 18.1729 47.5636 18.1129 47.5636C18.0529 47.5636 18.0038 47.651 18.0038 47.7577C18.0038 47.8645 17.9056 48.0226 17.7856 48.1091C17.6656 48.1956 17.5674 48.3326 17.5674 48.4137C17.5674 48.8653 17.4819 48.8727 12.2843 48.8727H7.31287V35.7818V22.6909H53.5674H99.822V35.7818ZM32.8401 26.2909C32.8401 26.3509 32.7643 26.4 32.6716 26.4C32.5789 26.4 32.3825 26.5205 32.2352 26.6678C32.088 26.8151 31.9674 27.0115 31.9674 27.1042C31.9674 27.1969 31.9183 27.2727 31.8583 27.2727C31.787 27.2727 31.7492 29.3091 31.7492 33.1636C31.7492 37.0181 31.787 39.0545 31.8583 39.0545C31.9183 39.0545 31.9674 39.1304 31.9674 39.2231C31.9674 39.4414 32.4533 39.9273 32.6716 39.9273C32.7643 39.9273 32.8401 39.9764 32.8401 40.0364C32.8401 40.1086 37.7856 40.1455 47.4583 40.1455C57.1311 40.1455 62.0765 40.1086 62.0765 40.0364C62.0765 39.9764 62.1523 39.9273 62.2451 39.9273C62.4633 39.9273 62.9492 39.4414 62.9492 39.2231C62.9492 39.1304 62.9983 39.0545 63.0583 39.0545C63.1297 39.0545 63.1674 37.0181 63.1674 33.1636C63.1674 29.3091 63.1297 27.2727 63.0583 27.2727C62.9983 27.2727 62.9492 27.1969 62.9492 27.1042C62.9492 26.8859 62.4633 26.4 62.2451 26.4C62.1523 26.4 62.0765 26.3509 62.0765 26.2909C62.0765 26.2187 57.1311 26.1818 47.4583 26.1818C37.7856 26.1818 32.8401 26.2187 32.8401 26.2909ZM74.2947 28.0364C74.2947 28.0964 74.1474 28.1455 73.9674 28.1455C73.7874 28.1455 73.6401 28.1945 73.6401 28.2545C73.6401 28.3145 73.5037 28.3636 73.337 28.3636C73.1589 28.3636 72.9689 28.4537 72.8765 28.5818C72.79 28.7018 72.6555 28.8 72.5777 28.8C72.3932 28.8 71.022 30.1713 71.022 30.3557C71.022 30.4335 70.9238 30.568 70.8038 30.6545C70.6757 30.7469 70.5856 30.937 70.5856 31.115C70.5856 31.2817 70.5365 31.4182 70.4765 31.4182C70.4165 31.4182 70.3674 31.5655 70.3674 31.7455C70.3674 31.9255 70.3183 32.0727 70.2583 32.0727C70.1929 32.0727 70.1492 32.5091 70.1492 33.1636C70.1492 33.8182 70.1929 34.2545 70.2583 34.2545C70.3183 34.2545 70.3674 34.4018 70.3674 34.5818C70.3674 34.7618 70.4165 34.9091 70.4765 34.9091C70.5365 34.9091 70.5856 35.0456 70.5856 35.2123C70.5856 35.3903 70.6757 35.5803 70.8038 35.6727C70.9238 35.7592 71.022 35.8937 71.022 35.9715C71.022 36.156 72.3932 37.5273 72.5777 37.5273C72.6555 37.5273 72.79 37.6255 72.8765 37.7455C72.9689 37.8735 73.1589 37.9636 73.337 37.9636C73.5037 37.9636 73.6401 38.0127 73.6401 38.0727C73.6401 38.1327 73.7874 38.1818 73.9674 38.1818C74.1474 38.1818 74.2947 38.2309 74.2947 38.2909C74.2947 38.3564 74.7311 38.4 75.3856 38.4C76.0401 38.4 76.4765 38.3564 76.4765 38.2909C76.4765 38.2309 76.6238 38.1818 76.8038 38.1818C76.9838 38.1818 77.1311 38.1327 77.1311 38.0727C77.1311 38.0127 77.2675 37.9636 77.4342 37.9636C77.6123 37.9636 77.8023 37.8735 77.8947 37.7455C77.9812 37.6255 78.1157 37.5273 78.1935 37.5273C78.378 37.5273 79.7492 36.156 79.7492 35.9715C79.7492 35.8937 79.8474 35.7592 79.9674 35.6727C80.0955 35.5803 80.1856 35.3903 80.1856 35.2123C80.1856 35.0456 80.2347 34.9091 80.2947 34.9091C80.3547 34.9091 80.4038 34.7618 80.4038 34.5818C80.4038 34.4018 80.4529 34.2545 80.5129 34.2545C80.5783 34.2545 80.622 33.8182 80.622 33.1636C80.622 32.5091 80.5783 32.0727 80.5129 32.0727C80.4529 32.0727 80.4038 31.9255 80.4038 31.7455C80.4038 31.5655 80.3547 31.4182 80.2947 31.4182C80.2347 31.4182 80.1856 31.2817 80.1856 31.115C80.1856 30.937 80.0955 30.7469 79.9674 30.6545C79.8474 30.568 79.7492 30.4337 79.7492 30.356C79.7492 30.1575 78.1521 28.5818 77.951 28.5818C77.86 28.5818 77.7856 28.5327 77.7856 28.4727C77.7856 28.4127 77.6383 28.3636 77.4583 28.3636C77.2783 28.3636 77.1311 28.3145 77.1311 28.2545C77.1311 28.1945 76.9838 28.1455 76.8038 28.1455C76.6238 28.1455 76.4765 28.0964 76.4765 28.0364C76.4765 27.9709 76.0401 27.9273 75.3856 27.9273C74.7311 27.9273 74.2947 27.9709 74.2947 28.0364ZM88.2583 28.0364C88.2583 28.0964 88.1111 28.1455 87.9311 28.1455C87.7511 28.1455 87.6038 28.1945 87.6038 28.2545C87.6038 28.3145 87.4673 28.3636 87.3006 28.3636C87.1226 28.3636 86.9325 28.4537 86.8401 28.5818C86.7536 28.7018 86.6191 28.8 86.5413 28.8C86.3569 28.8 84.9856 30.1713 84.9856 30.3557C84.9856 30.4335 84.8874 30.568 84.7674 30.6545C84.6393 30.7469 84.5492 30.937 84.5492 31.115C84.5492 31.2817 84.5001 31.4182 84.4401 31.4182C84.3801 31.4182 84.3311 31.5655 84.3311 31.7455C84.3311 31.9255 84.282 32.0727 84.222 32.0727C84.1565 32.0727 84.1129 32.5091 84.1129 33.1636C84.1129 33.8182 84.1565 34.2545 84.222 34.2545C84.282 34.2545 84.3311 34.4018 84.3311 34.5818C84.3311 34.7618 84.3801 34.9091 84.4401 34.9091C84.5001 34.9091 84.5492 35.0456 84.5492 35.2123C84.5492 35.3903 84.6393 35.5803 84.7674 35.6727C84.8874 35.7592 84.9856 35.8937 84.9856 35.9715C84.9856 36.156 86.3569 37.5273 86.5413 37.5273C86.6191 37.5273 86.7536 37.6255 86.8401 37.7455C86.9325 37.8735 87.1226 37.9636 87.3006 37.9636C87.4673 37.9636 87.6038 38.0127 87.6038 38.0727C87.6038 38.1327 87.7511 38.1818 87.9311 38.1818C88.1111 38.1818 88.2583 38.2309 88.2583 38.2909C88.2583 38.3564 88.6947 38.4 89.3492 38.4C90.0038 38.4 90.4401 38.3564 90.4401 38.2909C90.4401 38.2309 90.5874 38.1818 90.7674 38.1818C90.9474 38.1818 91.0947 38.1327 91.0947 38.0727C91.0947 38.0127 91.2312 37.9636 91.3979 37.9636C91.5759 37.9636 91.7659 37.8735 91.8583 37.7455C91.9448 37.6255 92.0793 37.5273 92.1571 37.5273C92.3416 37.5273 93.7129 36.156 93.7129 35.9715C93.7129 35.8937 93.8111 35.7592 93.9311 35.6727C94.0591 35.5803 94.1492 35.3903 94.1492 35.2123C94.1492 35.0456 94.1983 34.9091 94.2583 34.9091C94.3183 34.9091 94.3674 34.7618 94.3674 34.5818C94.3674 34.4018 94.4165 34.2545 94.4765 34.2545C94.542 34.2545 94.5856 33.8182 94.5856 33.1636C94.5856 32.5091 94.542 32.0727 94.4765 32.0727C94.4165 32.0727 94.3674 31.9255 94.3674 31.7455C94.3674 31.5655 94.3183 31.4182 94.2583 31.4182C94.1983 31.4182 94.1492 31.2817 94.1492 31.115C94.1492 30.937 94.0591 30.7469 93.9311 30.6545C93.8111 30.568 93.7129 30.4337 93.7129 30.356C93.7129 30.1575 92.1158 28.5818 91.9146 28.5818C91.8236 28.5818 91.7492 28.5327 91.7492 28.4727C91.7492 28.4127 91.602 28.3636 91.422 28.3636C91.242 28.3636 91.0947 28.3145 91.0947 28.2545C91.0947 28.1945 90.9474 28.1455 90.7674 28.1455C90.5874 28.1455 90.4401 28.0964 90.4401 28.0364C90.4401 27.9709 90.0038 27.9273 89.3492 27.9273C88.6947 27.9273 88.2583 27.9709 88.2583 28.0364ZM59.6765 33.1636V36.6545H47.4583H35.2401V33.1636V29.6727H47.4583H59.6765V33.1636ZM76.0401 31.5273C76.0401 31.5873 76.116 31.6364 76.2087 31.6364C76.427 31.6364 76.9129 32.1223 76.9129 32.3405C76.9129 32.4333 76.962 32.5091 77.022 32.5091C77.0826 32.5091 77.1311 32.8 77.1311 33.1636C77.1311 33.5272 77.0826 33.8182 77.022 33.8182C76.962 33.8182 76.9129 33.894 76.9129 33.9867C76.9129 34.205 76.427 34.6909 76.2087 34.6909C76.116 34.6909 76.0401 34.74 76.0401 34.8C76.0401 34.8607 75.7492 34.9091 75.3856 34.9091C75.022 34.9091 74.7311 34.8607 74.7311 34.8C74.7311 34.74 74.6552 34.6909 74.5625 34.6909C74.3442 34.6909 73.8583 34.205 73.8583 33.9867C73.8583 33.894 73.8092 33.8182 73.7492 33.8182C73.6886 33.8182 73.6401 33.5272 73.6401 33.1636C73.6401 32.8 73.6886 32.5091 73.7492 32.5091C73.8092 32.5091 73.8583 32.4333 73.8583 32.3405C73.8583 32.1223 74.3442 31.6364 74.5625 31.6364C74.6552 31.6364 74.7311 31.5873 74.7311 31.5273C74.7311 31.4666 75.022 31.4182 75.3856 31.4182C75.7492 31.4182 76.0401 31.4666 76.0401 31.5273ZM90.0038 31.5273C90.0038 31.5873 90.0796 31.6364 90.1723 31.6364C90.3906 31.6364 90.8765 32.1223 90.8765 32.3405C90.8765 32.4333 90.9256 32.5091 90.9856 32.5091C91.0463 32.5091 91.0947 32.8 91.0947 33.1636C91.0947 33.5272 91.0463 33.8182 90.9856 33.8182C90.9256 33.8182 90.8765 33.894 90.8765 33.9867C90.8765 34.205 90.3906 34.6909 90.1723 34.6909C90.0796 34.6909 90.0038 34.74 90.0038 34.8C90.0038 34.8607 89.7128 34.9091 89.3492 34.9091C88.9856 34.9091 88.6947 34.8607 88.6947 34.8C88.6947 34.74 88.6189 34.6909 88.5261 34.6909C88.3079 34.6909 87.822 34.205 87.822 33.9867C87.822 33.894 87.7729 33.8182 87.7129 33.8182C87.6522 33.8182 87.6038 33.5272 87.6038 33.1636C87.6038 32.8 87.6522 32.5091 87.7129 32.5091C87.7729 32.5091 87.822 32.4333 87.822 32.3405C87.822 32.1223 88.3079 31.6364 88.5261 31.6364C88.6189 31.6364 88.6947 31.5873 88.6947 31.5273C88.6947 31.4666 88.9856 31.4182 89.3492 31.4182C89.7128 31.4182 90.0038 31.4666 90.0038 31.5273ZM24.9856 45.9847V49.2058L25.4737 49.6937L25.9616 50.1818H29.9464C33.8583 50.1818 33.9311 50.1859 33.9311 50.4C33.9311 50.52 33.882 50.6182 33.822 50.6182C33.762 50.6182 33.7129 50.7056 33.7129 50.8123C33.7129 50.9191 33.6147 51.0771 33.4947 51.1636C33.3747 51.2501 33.2765 51.4082 33.2765 51.515C33.2765 51.6217 33.2274 51.7091 33.1674 51.7091C33.1074 51.7091 33.0583 51.7965 33.0583 51.9032C33.0583 52.01 32.9601 52.168 32.8401 52.2545C32.7201 52.3411 32.622 52.4883 32.622 52.5818C32.622 52.6753 32.5238 52.8226 32.4038 52.9091C32.2838 52.9956 32.1856 53.1537 32.1856 53.2605C32.1856 53.3672 32.1365 53.4545 32.0765 53.4545C32.0165 53.4545 31.9674 53.5419 31.9674 53.6486C31.9674 53.7554 31.8692 53.9135 31.7492 54C31.6292 54.0865 31.5311 54.2338 31.5311 54.3273C31.5311 54.4208 31.4329 54.568 31.3129 54.6545C31.1929 54.7411 31.0947 54.8991 31.0947 55.0059C31.0947 55.1126 31.0456 55.2 30.9856 55.2C30.9256 55.2 30.8765 55.2874 30.8765 55.3941C30.8765 55.5009 30.7783 55.6589 30.6583 55.7455C30.5383 55.832 30.4401 55.9792 30.4401 56.0727C30.4401 56.1662 30.342 56.3135 30.222 56.4C30.102 56.4865 30.0038 56.6446 30.0038 56.7514C30.0038 56.8581 29.9547 56.9455 29.8947 56.9455C29.8347 56.9455 29.7856 57.0328 29.7856 57.1395C29.7856 57.2463 29.6874 57.4044 29.5674 57.4909C29.4474 57.5774 29.3492 57.7247 29.3492 57.8182C29.3492 57.9117 29.2511 58.0589 29.1311 58.1455C29.0111 58.232 28.9129 58.39 28.9129 58.4968C28.9129 58.6035 28.8638 58.6909 28.8038 58.6909C28.7438 58.6909 28.6947 58.7891 28.6947 58.9091C28.6947 59.0291 28.6456 59.1273 28.5856 59.1273C28.5165 59.1273 28.4765 58.3273 28.4765 56.9455C28.4765 55.5636 28.4365 54.7636 28.3674 54.7636C28.3074 54.7636 28.2583 54.6164 28.2583 54.4364C28.2583 54.2564 28.2092 54.1091 28.1492 54.1091C28.0892 54.1091 28.0401 54.032 28.0401 53.9377C28.0401 53.7172 27.7775 53.4545 27.557 53.4545C27.4627 53.4545 27.3856 53.4055 27.3856 53.3455C27.3856 53.2855 27.2383 53.2364 27.0583 53.2364C26.8783 53.2364 26.7311 53.1873 26.7311 53.1273C26.7311 53.0566 25.3856 53.0182 22.9129 53.0182C20.4401 53.0182 19.0947 52.9798 19.0947 52.9091C19.0947 52.8491 19.1438 52.8 19.2038 52.8C19.2638 52.8 19.3129 52.7018 19.3129 52.5818C19.3129 52.4618 19.362 52.3636 19.422 52.3636C19.482 52.3636 19.5311 52.2655 19.5311 52.1455C19.5311 52.0255 19.5801 51.9273 19.6401 51.9273C19.7001 51.9273 19.7492 51.8399 19.7492 51.7332C19.7492 51.6264 19.8474 51.4683 19.9674 51.3818C20.0874 51.2953 20.1856 51.1372 20.1856 51.0304C20.1856 50.9237 20.2347 50.8364 20.2947 50.8364C20.3547 50.8364 20.4038 50.7382 20.4038 50.6182C20.4038 50.4982 20.4529 50.4 20.5129 50.4C20.5729 50.4 20.622 50.3018 20.622 50.1818C20.622 50.0618 20.6711 49.9636 20.7311 49.9636C20.7911 49.9636 20.8401 49.8763 20.8401 49.7696C20.8401 49.6628 20.9383 49.5047 21.0583 49.4182C21.1783 49.3317 21.2765 49.1736 21.2765 49.0668C21.2765 48.9601 21.3256 48.8727 21.3856 48.8727C21.4456 48.8727 21.4947 48.7745 21.4947 48.6545C21.4947 48.5345 21.5438 48.4364 21.6038 48.4364C21.6638 48.4364 21.7129 48.3382 21.7129 48.2182C21.7129 48.0982 21.762 48 21.822 48C21.882 48 21.9311 47.9126 21.9311 47.8059C21.9311 47.6991 22.0292 47.5411 22.1492 47.4545C22.2692 47.368 22.3674 47.21 22.3674 47.1032C22.3674 46.9965 22.4165 46.9091 22.4765 46.9091C22.5365 46.9091 22.5856 46.8109 22.5856 46.6909C22.5856 46.5709 22.6347 46.4727 22.6947 46.4727C22.7547 46.4727 22.8038 46.3745 22.8038 46.2545C22.8038 46.1345 22.8529 46.0364 22.9129 46.0364C22.9729 46.0364 23.022 45.949 23.022 45.8423C23.022 45.7355 23.1201 45.5774 23.2401 45.4909C23.3601 45.4044 23.4583 45.2463 23.4583 45.1395C23.4583 45.0328 23.5074 44.9455 23.5674 44.9455C23.6274 44.9455 23.6765 44.8473 23.6765 44.7273C23.6765 44.6073 23.7256 44.5091 23.7856 44.5091C23.8456 44.5091 23.8947 44.4109 23.8947 44.2909C23.8947 44.1709 23.9438 44.0727 24.0038 44.0727C24.0638 44.0727 24.1129 43.9853 24.1129 43.8787C24.1129 43.7719 24.2111 43.6138 24.3311 43.5273C24.4511 43.4408 24.5492 43.3052 24.5492 43.2259C24.5492 43.0666 24.7755 42.7743 24.9038 42.7678C24.9487 42.7655 24.9856 44.2131 24.9856 45.9847ZM86.9492 48.9818C86.9492 49.0418 86.8734 49.0909 86.7807 49.0909C86.688 49.0909 86.4916 49.2115 86.3443 49.3587C86.1971 49.506 86.0765 49.7024 86.0765 49.7951C86.0765 49.8878 86.0274 49.9636 85.9674 49.9636C85.9068 49.9636 85.8583 50.2546 85.8583 50.6182C85.8583 50.9818 85.9068 51.2727 85.9674 51.2727C86.0274 51.2727 86.0765 51.3485 86.0765 51.4413C86.0765 51.6596 86.5624 52.1455 86.7807 52.1455C86.8734 52.1455 86.9492 52.1945 86.9492 52.2545C86.9492 52.3152 87.2402 52.3636 87.6038 52.3636C87.9674 52.3636 88.2583 52.3152 88.2583 52.2545C88.2583 52.1945 88.3341 52.1455 88.4269 52.1455C88.5196 52.1455 88.716 52.0249 88.8632 51.8776C89.0105 51.7304 89.1311 51.534 89.1311 51.4413C89.1311 51.3485 89.1801 51.2727 89.2401 51.2727C89.3008 51.2727 89.3492 50.9818 89.3492 50.6182C89.3492 50.2546 89.3008 49.9636 89.2401 49.9636C89.1801 49.9636 89.1311 49.8878 89.1311 49.7951C89.1311 49.7024 89.0105 49.506 88.8632 49.3587C88.716 49.2115 88.5196 49.0909 88.4269 49.0909C88.3341 49.0909 88.2583 49.0418 88.2583 48.9818C88.2583 48.9212 87.9674 48.8727 87.6038 48.8727C87.2402 48.8727 86.9492 48.9212 86.9492 48.9818ZM36.3311 59.4545C36.3311 59.5145 36.2552 59.5636 36.1625 59.5636C35.9442 59.5636 35.4583 60.0495 35.4583 60.2678C35.4583 60.3605 35.4092 60.4364 35.3492 60.4364C35.2886 60.4364 35.2401 60.7273 35.2401 61.0909C35.2401 61.4545 35.2886 61.7455 35.3492 61.7455C35.4092 61.7455 35.4583 61.8213 35.4583 61.914C35.4583 62.1323 35.9442 62.6182 36.1625 62.6182C36.2552 62.6182 36.3311 62.6673 36.3311 62.7273C36.3311 62.7993 40.1129 62.8364 47.4583 62.8364C54.8037 62.8364 58.5856 62.7993 58.5856 62.7273C58.5856 62.6673 58.6614 62.6182 58.7541 62.6182C58.9724 62.6182 59.4583 62.1323 59.4583 61.914C59.4583 61.8213 59.5074 61.7455 59.5674 61.7455C59.6281 61.7455 59.6765 61.4545 59.6765 61.0909C59.6765 60.7273 59.6281 60.4364 59.5674 60.4364C59.5074 60.4364 59.4583 60.3605 59.4583 60.2678C59.4583 60.0495 58.9724 59.5636 58.7541 59.5636C58.6614 59.5636 58.5856 59.5145 58.5856 59.4545C58.5856 59.3825 54.8037 59.3455 47.4583 59.3455C40.1129 59.3455 36.3311 59.3825 36.3311 59.4545ZM36.3311 66.4364C36.3311 66.4964 36.2552 66.5455 36.1625 66.5455C35.9442 66.5455 35.4583 67.0313 35.4583 67.2496C35.4583 67.3424 35.4092 67.4182 35.3492 67.4182C35.2886 67.4182 35.2401 67.7091 35.2401 68.0727C35.2401 68.4363 35.2886 68.7273 35.3492 68.7273C35.4092 68.7273 35.4583 68.8031 35.4583 68.8958C35.4583 69.1141 35.9442 69.6 36.1625 69.6C36.2552 69.6 36.3311 69.6491 36.3311 69.7091C36.3311 69.7811 40.1129 69.8182 47.4583 69.8182C54.8037 69.8182 58.5856 69.7811 58.5856 69.7091C58.5856 69.6491 58.6614 69.6 58.7541 69.6C58.9724 69.6 59.4583 69.1141 59.4583 68.8958C59.4583 68.8031 59.5074 68.7273 59.5674 68.7273C59.6281 68.7273 59.6765 68.4363 59.6765 68.0727C59.6765 67.7091 59.6281 67.4182 59.5674 67.4182C59.5074 67.4182 59.4583 67.3424 59.4583 67.2496C59.4583 67.0313 58.9724 66.5455 58.7541 66.5455C58.6614 66.5455 58.5856 66.4964 58.5856 66.4364C58.5856 66.3644 54.8037 66.3273 47.4583 66.3273C40.1129 66.3273 36.3311 66.3644 36.3311 66.4364ZM98.5129 68.1818C98.5129 68.2418 98.7583 68.2909 99.0583 68.2909C99.3583 68.2909 99.6038 68.34 99.6038 68.4C99.6038 68.46 99.7511 68.5091 99.9311 68.5091C100.111 68.5091 100.258 68.5582 100.258 68.6182C100.258 68.6782 100.406 68.7273 100.586 68.7273C100.766 68.7273 100.913 68.7764 100.913 68.8364C100.913 68.8964 101.011 68.9455 101.131 68.9455C101.251 68.9455 101.349 68.9945 101.349 69.0545C101.349 69.1145 101.447 69.1636 101.567 69.1636C101.687 69.1636 101.786 69.2127 101.786 69.2727C101.786 69.3327 101.884 69.3818 102.004 69.3818C102.124 69.3818 102.222 69.4309 102.222 69.4909C102.222 69.5509 102.309 69.6 102.416 69.6C102.523 69.6 102.681 69.6982 102.767 69.8182C102.854 69.9382 102.992 70.0364 103.075 70.0364C103.158 70.0364 103.363 70.1836 103.531 70.3636C103.699 70.5436 103.891 70.6909 103.958 70.6909C104.117 70.6909 105.931 72.5053 105.931 72.6638C105.931 72.7306 106.078 72.9228 106.258 73.0909C106.438 73.259 106.586 73.4751 106.586 73.571C106.586 73.667 106.635 73.7455 106.695 73.7455C106.755 73.7455 106.804 73.8436 106.804 73.9636C106.804 74.0836 106.853 74.1818 106.913 74.1818C106.973 74.1818 107.022 74.28 107.022 74.4C107.022 74.52 107.071 74.6182 107.131 74.6182C107.191 74.6182 107.24 74.7164 107.24 74.8364C107.24 74.9564 107.289 75.0545 107.349 75.0545C107.409 75.0545 107.458 75.1527 107.458 75.2727C107.458 75.3927 107.507 75.4909 107.567 75.4909C107.627 75.4909 107.677 75.5891 107.677 75.7091C107.677 75.8291 107.726 75.9273 107.786 75.9273C107.846 75.9273 107.895 76.0745 107.895 76.2545C107.895 76.4345 107.944 76.5818 108.004 76.5818C108.064 76.5818 108.113 76.7782 108.113 77.0182C108.113 77.2582 108.162 77.4545 108.222 77.4545C108.282 77.4545 108.331 77.7 108.331 78C108.331 78.3 108.38 78.5455 108.44 78.5455C108.508 78.5455 108.549 79.1637 108.549 80.1818C108.549 81.2 108.508 81.8182 108.44 81.8182C108.38 81.8182 108.331 82.0636 108.331 82.3636C108.331 82.6636 108.282 82.9091 108.222 82.9091C108.162 82.9091 108.113 83.1055 108.113 83.3455C108.113 83.5855 108.064 83.7818 108.004 83.7818C107.944 83.7818 107.895 83.9291 107.895 84.1091C107.895 84.2891 107.846 84.4364 107.786 84.4364C107.726 84.4364 107.677 84.5836 107.677 84.7636C107.677 84.9436 107.627 85.0909 107.567 85.0909C107.507 85.0909 107.458 85.1891 107.458 85.3091C107.458 85.4291 107.409 85.5273 107.349 85.5273C107.289 85.5273 107.24 85.6147 107.24 85.7213C107.24 85.8281 107.142 85.9862 107.022 86.0727C106.902 86.1592 106.804 86.3173 106.804 86.4241C106.804 86.5308 106.755 86.6182 106.695 86.6182C106.635 86.6182 106.586 86.6966 106.586 86.7926C106.586 86.8885 106.438 87.1046 106.258 87.2727C106.078 87.4408 105.931 87.6331 105.931 87.6997C105.931 87.87 103.892 89.8909 103.72 89.8909C103.643 89.8909 103.508 89.9891 103.422 90.1091C103.335 90.2291 103.188 90.3273 103.095 90.3273C103.001 90.3273 102.854 90.4255 102.767 90.5455C102.681 90.6655 102.523 90.7636 102.416 90.7636C102.309 90.7636 102.222 90.8127 102.222 90.8727C102.222 90.9327 102.124 90.9818 102.004 90.9818C101.884 90.9818 101.786 91.0309 101.786 91.0909C101.786 91.1509 101.687 91.2 101.567 91.2C101.447 91.2 101.349 91.2491 101.349 91.3091C101.349 91.3691 101.251 91.4182 101.131 91.4182C101.011 91.4182 100.913 91.4673 100.913 91.5273C100.913 91.5873 100.766 91.6364 100.586 91.6364C100.406 91.6364 100.258 91.6855 100.258 91.7455C100.258 91.8055 100.111 91.8545 99.9311 91.8545C99.7511 91.8545 99.6038 91.9036 99.6038 91.9636C99.6038 92.0236 99.4074 92.0727 99.1674 92.0727C98.9274 92.0727 98.7311 92.1218 98.7311 92.1818C98.7311 92.2473 98.2947 92.2909 97.6401 92.2909C96.9856 92.2909 96.5492 92.3345 96.5492 92.4C96.5492 92.46 96.4511 92.5091 96.3311 92.5091C96.2111 92.5091 96.1129 92.46 96.1129 92.4C96.1129 92.3345 95.6765 92.2909 95.022 92.2909C94.3674 92.2909 93.9311 92.2473 93.9311 92.1818C93.9311 92.1218 93.7347 92.0727 93.4947 92.0727C93.2547 92.0727 93.0583 92.0236 93.0583 91.9636C93.0583 91.9036 92.9111 91.8545 92.7311 91.8545C92.5511 91.8545 92.4038 91.8055 92.4038 91.7455C92.4038 91.6855 92.2565 91.6364 92.0765 91.6364C91.8965 91.6364 91.7492 91.5873 91.7492 91.5273C91.7492 91.4673 91.6511 91.4182 91.5311 91.4182C91.4111 91.4182 91.3129 91.3691 91.3129 91.3091C91.3129 91.2491 91.2147 91.2 91.0947 91.2C90.9747 91.2 90.8765 91.1509 90.8765 91.0909C90.8765 91.0309 90.7783 90.9818 90.6583 90.9818C90.5383 90.9818 90.4401 90.9327 90.4401 90.8727C90.4401 90.8127 90.3528 90.7636 90.2461 90.7636C90.1393 90.7636 89.9812 90.6655 89.8947 90.5455C89.8082 90.4255 89.6609 90.3273 89.5674 90.3273C89.4739 90.3273 89.3267 90.2291 89.2401 90.1091C89.1536 89.9891 89.0195 89.8909 88.9419 89.8909C88.7702 89.8909 86.7311 87.87 86.7311 87.6997C86.7311 87.6331 86.5838 87.4408 86.4038 87.2727C86.2238 87.1046 86.0765 86.8885 86.0765 86.7926C86.0765 86.6966 86.0274 86.6182 85.9674 86.6182C85.9074 86.6182 85.8583 86.5308 85.8583 86.4241C85.8583 86.3173 85.7601 86.1592 85.6401 86.0727C85.5201 85.9862 85.422 85.8281 85.422 85.7213C85.422 85.6147 85.3729 85.5273 85.3129 85.5273C85.2529 85.5273 85.2038 85.4291 85.2038 85.3091C85.2038 85.1891 85.1547 85.0909 85.0947 85.0909C85.0347 85.0909 84.9856 84.9436 84.9856 84.7636C84.9856 84.5836 84.9365 84.4364 84.8765 84.4364C84.8165 84.4364 84.7674 84.2891 84.7674 84.1091C84.7674 83.9291 84.7183 83.7818 84.6583 83.7818C84.5983 83.7818 84.5492 83.5855 84.5492 83.3455C84.5492 83.1055 84.5001 82.9091 84.4401 82.9091C84.3801 82.9091 84.3311 82.6636 84.3311 82.3636C84.3311 82.0636 84.282 81.8182 84.222 81.8182C84.1544 81.8182 84.1129 81.2364 84.1129 80.2909C84.1129 79.3454 84.1544 78.7636 84.222 78.7636C84.2826 78.7636 84.3311 78.4727 84.3311 78.1091C84.3311 77.7455 84.3795 77.4545 84.4401 77.4545C84.5001 77.4545 84.5492 77.2582 84.5492 77.0182C84.5492 76.7782 84.5983 76.5818 84.6583 76.5818C84.7183 76.5818 84.7674 76.4345 84.7674 76.2545C84.7674 76.0745 84.8165 75.9273 84.8765 75.9273C84.9365 75.9273 84.9856 75.8291 84.9856 75.7091C84.9856 75.5891 85.0347 75.4909 85.0947 75.4909C85.1547 75.4909 85.2038 75.3436 85.2038 75.1636C85.2038 74.9836 85.2529 74.8364 85.3129 74.8364C85.3729 74.8364 85.422 74.749 85.422 74.6423C85.422 74.5355 85.5201 74.3774 85.6401 74.2909C85.7601 74.2044 85.8583 74.0463 85.8583 73.9395C85.8583 73.8328 85.9074 73.7455 85.9674 73.7455C86.0274 73.7455 86.0765 73.667 86.0765 73.571C86.0765 73.4751 86.2238 73.259 86.4038 73.0909C86.5838 72.9228 86.7311 72.7306 86.7311 72.6638C86.7311 72.5053 88.5455 70.6909 88.704 70.6909C88.7707 70.6909 88.9629 70.5436 89.1311 70.3636C89.2992 70.1836 89.5045 70.0364 89.5871 70.0364C89.6697 70.0364 89.8082 69.9382 89.8947 69.8182C89.9812 69.6982 90.1393 69.6 90.2461 69.6C90.3528 69.6 90.4401 69.5509 90.4401 69.4909C90.4401 69.4309 90.5383 69.3818 90.6583 69.3818C90.7783 69.3818 90.8765 69.3327 90.8765 69.2727C90.8765 69.2127 90.9747 69.1636 91.0947 69.1636C91.2147 69.1636 91.3129 69.1145 91.3129 69.0545C91.3129 68.9945 91.4111 68.9455 91.5311 68.9455C91.6511 68.9455 91.7492 68.8964 91.7492 68.8364C91.7492 68.7764 91.8965 68.7273 92.0765 68.7273C92.2565 68.7273 92.4038 68.6782 92.4038 68.6182C92.4038 68.5582 92.6001 68.5091 92.8401 68.5091C93.0801 68.5091 93.2765 68.46 93.2765 68.4C93.2765 68.34 93.4729 68.2909 93.7129 68.2909C93.9529 68.2909 94.1492 68.2418 94.1492 68.1818C94.1492 68.1128 94.9492 68.0727 96.3311 68.0727C97.7129 68.0727 98.5129 68.1128 98.5129 68.1818ZM36.3311 73.4182C36.3311 73.4782 36.2552 73.5273 36.1625 73.5273C35.9442 73.5273 35.4583 74.0132 35.4583 74.2315C35.4583 74.3242 35.4092 74.4 35.3492 74.4C35.2886 74.4 35.2401 74.6909 35.2401 75.0545C35.2401 75.4181 35.2886 75.7091 35.3492 75.7091C35.4092 75.7091 35.4583 75.7849 35.4583 75.8776C35.4583 76.0959 35.9442 76.5818 36.1625 76.5818C36.2552 76.5818 36.3311 76.6309 36.3311 76.6909C36.3311 76.7629 40.1129 76.8 47.4583 76.8C54.8037 76.8 58.5856 76.7629 58.5856 76.6909C58.5856 76.6309 58.6614 76.5818 58.7541 76.5818C58.9724 76.5818 59.4583 76.0959 59.4583 75.8776C59.4583 75.7849 59.5074 75.7091 59.5674 75.7091C59.6281 75.7091 59.6765 75.4181 59.6765 75.0545C59.6765 74.6909 59.6281 74.4 59.5674 74.4C59.5074 74.4 59.4583 74.3242 59.4583 74.2315C59.4583 74.0132 58.9724 73.5273 58.7541 73.5273C58.6614 73.5273 58.5856 73.4782 58.5856 73.4182C58.5856 73.3462 54.8037 73.3091 47.4583 73.3091C40.1129 73.3091 36.3311 73.3462 36.3311 73.4182ZM95.2401 73.4182C95.2401 73.4782 94.9947 73.5273 94.6947 73.5273C94.3947 73.5273 94.1492 73.5764 94.1492 73.6364C94.1492 73.6964 94.0511 73.7455 93.9311 73.7455C93.8111 73.7455 93.7129 73.7945 93.7129 73.8545C93.7129 73.9145 93.6147 73.9636 93.4947 73.9636C93.3747 73.9636 93.2765 74.0127 93.2765 74.0727C93.2765 74.1327 93.1783 74.1818 93.0583 74.1818C92.9383 74.1818 92.8401 74.2309 92.8401 74.2909C92.8401 74.3509 92.7627 74.4 92.668 74.4C92.5732 74.4 92.3071 74.5964 92.0765 74.8364C91.8459 75.0764 91.5798 75.2727 91.485 75.2727C91.3903 75.2727 91.3129 75.3502 91.3129 75.4449C91.3129 75.5397 91.1165 75.8057 90.8765 76.0364C90.6365 76.267 90.4401 76.5331 90.4401 76.6279C90.4401 76.7225 90.3911 76.8 90.3311 76.8C90.2711 76.8 90.222 76.8982 90.222 77.0182C90.222 77.1382 90.1729 77.2364 90.1129 77.2364C90.0529 77.2364 90.0038 77.3345 90.0038 77.4545C90.0038 77.5745 89.9547 77.6727 89.8947 77.6727C89.8347 77.6727 89.7856 77.8691 89.7856 78.1091C89.7856 78.3491 89.7365 78.5455 89.6765 78.5455C89.6159 78.5455 89.5674 78.8364 89.5674 79.2C89.5674 79.5636 89.519 79.8545 89.4583 79.8545C89.3983 79.8545 89.3492 80.0018 89.3492 80.1818C89.3492 80.3618 89.3983 80.5091 89.4583 80.5091C89.5206 80.5091 89.5674 80.8364 89.5674 81.2727C89.5674 81.7091 89.6142 82.0364 89.6765 82.0364C89.7365 82.0364 89.7856 82.1836 89.7856 82.3636C89.7856 82.5436 89.8347 82.6909 89.8947 82.6909C89.9547 82.6909 90.0038 82.7891 90.0038 82.9091C90.0038 83.0291 90.0529 83.1273 90.1129 83.1273C90.1729 83.1273 90.222 83.2255 90.222 83.3455C90.222 83.4655 90.2711 83.5636 90.3311 83.5636C90.3911 83.5636 90.4401 83.6421 90.4401 83.7381C90.4401 83.834 90.5874 84.0501 90.7674 84.2182C90.9474 84.3863 91.0947 84.5795 91.0947 84.6475C91.0947 84.8187 91.8191 85.5273 91.9943 85.5273C92.073 85.5273 92.2082 85.6255 92.2947 85.7455C92.3812 85.8655 92.5285 85.9636 92.622 85.9636C92.7155 85.9636 92.8627 86.0618 92.9492 86.1818C93.0357 86.3018 93.1938 86.4 93.3006 86.4C93.4073 86.4 93.4947 86.4491 93.4947 86.5091C93.4947 86.5691 93.642 86.6182 93.822 86.6182C94.002 86.6182 94.1492 86.6673 94.1492 86.7273C94.1492 86.7873 94.3456 86.8364 94.5856 86.8364C94.8256 86.8364 95.022 86.8855 95.022 86.9455C95.022 87.0121 95.5311 87.0545 96.3311 87.0545C97.131 87.0545 97.6401 87.0121 97.6401 86.9455C97.6401 86.8855 97.8365 86.8364 98.0765 86.8364C98.3165 86.8364 98.5129 86.7873 98.5129 86.7273C98.5129 86.6673 98.6601 86.6182 98.8401 86.6182C99.0201 86.6182 99.1674 86.5691 99.1674 86.5091C99.1674 86.4491 99.2548 86.4 99.3615 86.4C99.4683 86.4 99.6264 86.3018 99.7129 86.1818C99.7994 86.0618 99.9378 85.9636 100.021 85.9636C100.103 85.9636 100.308 85.8164 100.477 85.6364C100.645 85.4564 100.838 85.3091 100.907 85.3091C101.069 85.3091 101.567 84.8107 101.567 84.6488C101.567 84.58 101.715 84.3863 101.895 84.2182C102.075 84.0501 102.222 83.834 102.222 83.7381C102.222 83.6421 102.271 83.5636 102.331 83.5636C102.391 83.5636 102.44 83.4655 102.44 83.3455C102.44 83.2255 102.489 83.1273 102.549 83.1273C102.609 83.1273 102.658 83.0291 102.658 82.9091C102.658 82.7891 102.707 82.6909 102.767 82.6909C102.827 82.6909 102.877 82.5436 102.877 82.3636C102.877 82.1836 102.926 82.0364 102.986 82.0364C103.048 82.0364 103.095 81.7091 103.095 81.2727C103.095 80.8364 103.141 80.5091 103.204 80.5091C103.264 80.5091 103.313 80.3618 103.313 80.1818C103.313 80.0018 103.264 79.8545 103.204 79.8545C103.143 79.8545 103.095 79.5636 103.095 79.2C103.095 78.8364 103.046 78.5455 102.986 78.5455C102.926 78.5455 102.877 78.3491 102.877 78.1091C102.877 77.8691 102.827 77.6727 102.767 77.6727C102.707 77.6727 102.658 77.5745 102.658 77.4545C102.658 77.3345 102.609 77.2364 102.549 77.2364C102.489 77.2364 102.44 77.1382 102.44 77.0182C102.44 76.8982 102.391 76.8 102.331 76.8C102.271 76.8 102.222 76.7225 102.222 76.6279C102.222 76.5331 102.026 76.267 101.786 76.0364C101.546 75.8057 101.349 75.5606 101.349 75.4917C101.349 75.3287 101.074 75.0545 100.91 75.0545C100.84 75.0545 100.645 74.9073 100.477 74.7273C100.308 74.5473 100.092 74.4 99.9964 74.4C99.9004 74.4 99.822 74.3509 99.822 74.2909C99.822 74.2309 99.7238 74.1818 99.6038 74.1818C99.4838 74.1818 99.3856 74.1327 99.3856 74.0727C99.3856 74.0127 99.2874 73.9636 99.1674 73.9636C99.0474 73.9636 98.9492 73.9145 98.9492 73.8545C98.9492 73.7945 98.8511 73.7455 98.7311 73.7455C98.6111 73.7455 98.5129 73.6964 98.5129 73.6364C98.5129 73.5764 98.2674 73.5273 97.9674 73.5273C97.6674 73.5273 97.422 73.4782 97.422 73.4182C97.422 73.3527 96.9856 73.3091 96.3311 73.3091C95.6765 73.3091 95.2401 73.3527 95.2401 73.4182ZM97.2038 76.9091C97.2038 76.9691 97.3403 77.0182 97.5069 77.0182C97.685 77.0182 97.875 77.1083 97.9674 77.2364C98.0539 77.3564 98.1891 77.4545 98.2679 77.4545C98.4667 77.4545 99.1674 78.174 99.1674 78.3782C99.1674 78.4702 99.2165 78.5455 99.2765 78.5455C99.3365 78.5455 99.3856 78.6436 99.3856 78.7636C99.3856 78.8836 99.4347 78.9818 99.4947 78.9818C99.5547 78.9818 99.6038 79.1782 99.6038 79.4182C99.6038 79.6582 99.6529 79.8545 99.7129 79.8545C99.7729 79.8545 99.822 80.0018 99.822 80.1818C99.822 80.3618 99.7729 80.5091 99.7129 80.5091C99.6529 80.5091 99.6038 80.7055 99.6038 80.9455C99.6038 81.1855 99.5547 81.3818 99.4947 81.3818C99.4347 81.3818 99.3856 81.48 99.3856 81.6C99.3856 81.72 99.3365 81.8182 99.2765 81.8182C99.2165 81.8182 99.1674 81.8931 99.1674 81.9847C99.1674 82.2012 98.2413 83.1273 98.0248 83.1273C97.9333 83.1273 97.8583 83.1764 97.8583 83.2364C97.8583 83.2964 97.7111 83.3455 97.5311 83.3455C97.3511 83.3455 97.2038 83.3945 97.2038 83.4545C97.2038 83.5181 96.8402 83.5636 96.3311 83.5636C95.8219 83.5636 95.4583 83.5181 95.4583 83.4545C95.4583 83.3945 95.3111 83.3455 95.1311 83.3455C94.9511 83.3455 94.8038 83.2964 94.8038 83.2364C94.8038 83.1764 94.7288 83.1273 94.6373 83.1273C94.4208 83.1273 93.4947 82.2012 93.4947 81.9847C93.4947 81.8931 93.4456 81.8182 93.3856 81.8182C93.3256 81.8182 93.2765 81.72 93.2765 81.6C93.2765 81.48 93.2274 81.3818 93.1674 81.3818C93.1074 81.3818 93.0583 81.1855 93.0583 80.9455C93.0583 80.7055 93.0092 80.5091 92.9492 80.5091C92.8892 80.5091 92.8401 80.3618 92.8401 80.1818C92.8401 80.0018 92.8892 79.8545 92.9492 79.8545C93.0092 79.8545 93.0583 79.6582 93.0583 79.4182C93.0583 79.1782 93.1074 78.9818 93.1674 78.9818C93.2274 78.9818 93.2765 78.8836 93.2765 78.7636C93.2765 78.6436 93.3256 78.5455 93.3856 78.5455C93.4456 78.5455 93.4947 78.4702 93.4947 78.3782C93.4947 78.174 94.1954 77.4545 94.3943 77.4545C94.473 77.4545 94.6082 77.3564 94.6947 77.2364C94.7871 77.1083 94.9771 77.0182 95.1552 77.0182C95.3219 77.0182 95.4583 76.9691 95.4583 76.9091C95.4583 76.8455 95.8219 76.8 96.3311 76.8C96.8402 76.8 97.2038 76.8455 97.2038 76.9091ZM31.3129 87.7091C31.3129 87.9491 31.2638 88.1455 31.2038 88.1455C31.1438 88.1455 31.0947 88.3909 31.0947 88.6909C31.0947 88.9909 31.0456 89.2364 30.9856 89.2364C30.9256 89.2364 30.8765 89.4818 30.8765 89.7818C30.8765 90.0818 30.8274 90.3273 30.7674 90.3273C30.7074 90.3273 30.6583 90.5727 30.6583 90.8727C30.6583 91.1727 30.6092 91.4182 30.5492 91.4182C30.4892 91.4182 30.4401 91.6636 30.4401 91.9636V92.5091H24.7674H19.0947V91.9636C19.0947 91.6636 19.0456 91.4182 18.9856 91.4182C18.9256 91.4182 18.8765 91.1727 18.8765 90.8727C18.8765 90.5727 18.8274 90.3273 18.7674 90.3273C18.7074 90.3273 18.6583 90.0818 18.6583 89.7818C18.6583 89.4818 18.6092 89.2364 18.5492 89.2364C18.4892 89.2364 18.4401 88.9909 18.4401 88.6909C18.4401 88.3909 18.3911 88.1455 18.3311 88.1455C18.2711 88.1455 18.222 87.9491 18.222 87.7091V87.2727H24.7674H31.3129V87.7091Z" fill="#3CB7C6"/>
</svg>
