<svg width="96" height="96" viewBox="0 0 96 96" fill="none" xmlns="http://www.w3.org/2000/svg">
<path d="M80.2425 15.2933H75.5567C74.8571 15.2933 74.4143 15.7364 74.4143 16.226H74.4141V31.3795C74.4141 32.0089 75.1601 32.3353 75.9294 32.3353C76.6755 32.3353 77.4448 32.0091 77.4448 31.3795V25.9709H80.0561C83.1333 25.9709 85.5346 24.502 85.5346 20.6787V20.539C85.5346 16.7155 83.2033 15.2933 80.2425 15.2933ZM82.5037 20.9119C82.5037 22.7303 81.5713 23.593 80.0559 23.593H77.4448V17.9511H80.0559C81.5713 17.9511 82.5037 18.8138 82.5037 20.6322V20.9119Z" fill="#3CB7C6"/>
<path d="M54.9483 21.2169C50.5226 16.7912 44.6385 14.3539 38.3795 14.3539C32.1206 14.3539 26.2365 16.7912 21.8108 21.2169C21.2766 21.7509 21.2766 22.6168 21.8108 23.151C22.3448 23.685 23.2107 23.685 23.7447 23.151C27.6538 19.242 32.8511 17.0891 38.3794 17.0891C43.9076 17.0891 49.1051 19.242 53.014 23.151C53.2812 23.418 53.6313 23.5515 53.9812 23.5515C54.331 23.5515 54.6811 23.418 54.9483 23.151C55.4823 22.617 55.4823 21.7509 54.9483 21.2169Z" fill="#3CB7C6"/>
<path d="M49.3087 26.8588C43.2836 20.8337 33.4802 20.8337 27.4553 26.8588C26.9211 27.3928 26.9211 28.2589 27.4553 28.7929C27.9893 29.3269 28.8554 29.3269 29.3894 28.7929C34.348 23.8344 42.4161 23.8344 47.3747 28.7929C47.6417 29.0599 47.9916 29.1934 48.3416 29.1934C48.6915 29.1934 49.0416 29.0599 49.3087 28.7929C49.8427 28.2589 49.8427 27.3928 49.3087 26.8588Z" fill="#3CB7C6"/>
<path d="M43.7561 32.4119C40.7928 29.4486 35.9713 29.4486 33.0081 32.4119C32.4739 32.9459 32.4739 33.8117 33.0081 34.3459C33.5421 34.8801 34.4081 34.8799 34.9421 34.3459C36.839 32.4492 39.9253 32.4492 41.8222 34.3459C42.0892 34.6131 42.4393 34.7464 42.7891 34.7464C43.139 34.7464 43.4891 34.6129 43.7561 34.3459C44.2903 33.8117 44.2903 32.9461 43.7561 32.4119Z" fill="#3CB7C6"/>
<path d="M67.2981 59.0474C66.7064 58.7217 66.1225 58.3651 65.563 57.9871L56.5171 51.8761C53.7718 50.0214 50.5693 49.0411 47.2562 49.0411H30.6529C26.2457 49.0411 22.099 50.7543 18.9764 53.8649C17.3714 55.4641 15.5429 56.8017 13.5417 57.8409C12.3582 58.4555 11.623 59.665 11.623 60.9976C11.623 62.96 13.2194 64.5563 15.1818 64.5563H20.8424C21.5976 64.5563 22.21 63.944 22.21 63.1887C22.21 62.4335 21.5976 61.8211 20.8424 61.8211H15.1818C14.7277 61.8211 14.3581 61.4515 14.3581 60.9974C14.3581 60.6897 14.5282 60.4103 14.8021 60.2682C17.0504 59.1008 19.1045 57.5982 20.9067 55.8026C23.5129 53.2061 26.9742 51.7762 30.6527 51.7762H34.3699V61.8211H29.8264C29.0712 61.8211 28.4588 62.4335 28.4588 63.1887C28.4588 63.944 29.0712 64.5563 29.8264 64.5563H67.3259C68.4501 64.5563 69.3648 63.6417 69.3648 62.5175C69.3648 61.0778 68.5728 59.7481 67.2981 59.0474ZM37.1055 61.8213V51.7764H47.2563C50.0218 51.7764 52.6948 52.5946 54.9862 54.1426L64.0321 60.2536C64.6602 60.6779 65.3155 61.0784 65.9804 61.444C66.1525 61.5387 66.2967 61.6688 66.4051 61.8213H37.1055V61.8213Z" fill="#3CB7C6"/>
<path d="M40.4924 66.6351H36.268C35.5128 66.6351 34.9004 67.2475 34.9004 68.0028C34.9004 68.758 35.5128 69.3704 36.268 69.3704H40.4924C41.2476 69.3704 41.86 68.758 41.86 68.0028C41.86 67.2475 41.2476 66.6351 40.4924 66.6351Z" fill="#3CB7C6"/>
<path d="M94.8201 65.4873L94.3881 64.7703C92.76 62.0686 90.052 60.1662 86.9584 59.5509L83.4276 58.8487V40.9524H92.5648C94.4462 40.9524 95.9766 39.4219 95.9766 37.5407V10.9062C95.9766 9.02488 94.446 7.49451 92.5648 7.49451H65.9304C64.049 7.49451 62.5186 9.02506 62.5186 10.9062V21.0096C62.5186 21.7649 63.1308 22.3773 63.8863 22.3773C64.6417 22.3773 65.2539 21.7649 65.2539 21.0096V10.9062C65.2539 10.5331 65.5574 10.2296 65.9306 10.2296H92.5652C92.9383 10.2296 93.2419 10.5331 93.2419 10.9062V37.5409C93.2419 37.914 92.9383 38.2176 92.5652 38.2176H65.9304C65.5572 38.2176 65.2537 37.914 65.2537 37.5409V29.9005C65.2537 29.1452 64.6415 28.5329 63.8861 28.5329C63.1306 28.5329 62.5184 29.1452 62.5184 29.9005V37.5409C62.5184 39.4223 64.049 40.9526 65.9302 40.9526H76.2916V57.4299L74.4766 57.0689C71.9716 56.5708 69.5294 55.0589 67.9102 53.9649L58.8645 47.8541C55.4229 45.5293 51.4087 44.3004 47.2556 44.3004H30.6526C25.1279 44.3004 19.9299 46.4479 16.0162 50.3469C13.5397 52.8142 10.4223 54.497 7.00104 55.2136L5.03754 55.6248C2.11855 56.2361 0 58.8446 0 61.8269V75.0719C0 76.6517 0.932809 78.0874 2.37674 78.729L7.82397 81.15C8.15341 82.8726 8.98328 84.5175 10.3141 85.8484C12.0828 87.6171 14.4061 88.5015 16.7296 88.5015C19.0531 88.5015 21.3762 87.6171 23.1451 85.8484C24.2827 84.7108 25.0522 83.3434 25.4581 81.8946H70.8772C71.2831 83.3434 72.0528 84.7108 73.1903 85.8484C74.9041 87.5619 77.1822 88.5058 79.6058 88.5058C82.0292 88.5058 84.3077 87.5621 86.0215 85.8484C87.159 84.7108 87.9285 83.3434 88.3345 81.8946H90.9289C93.7251 81.8946 96 79.6197 96 76.8235V69.73C95.9996 68.2349 95.5916 66.7679 94.8201 65.4873ZM79.0268 40.9524H80.6926V58.3047L79.0268 57.9734V40.9524ZM21.2109 83.9145C20.0139 85.1115 18.4224 85.7708 16.7294 85.7708C15.0365 85.7708 13.445 85.1115 12.248 83.9145C10.3278 81.9943 9.90071 79.1389 10.9646 76.8015C10.9732 76.7828 10.9815 76.7639 10.9901 76.7451C11.0225 76.6757 11.0568 76.6071 11.0919 76.5389C11.1084 76.5066 11.1249 76.4745 11.1421 76.4427C11.1738 76.3834 11.2068 76.3245 11.2406 76.266C11.2638 76.2257 11.2876 76.1858 11.3118 76.146C11.3431 76.0945 11.3748 76.0431 11.4078 75.9923C11.4376 75.9464 11.4684 75.901 11.4995 75.8558C11.5303 75.811 11.5608 75.766 11.5927 75.7219C11.6293 75.6715 11.6673 75.622 11.7056 75.5725C11.7354 75.5339 11.7645 75.4949 11.7952 75.4568C11.8402 75.4011 11.8873 75.3467 11.9341 75.2924C11.961 75.2614 11.9866 75.2297 12.014 75.1992C12.0838 75.1217 12.1556 75.0458 12.2295 74.9714C12.2358 74.965 12.2416 74.9582 12.248 74.9519C12.2621 74.9378 12.2769 74.9247 12.2911 74.9108C12.3538 74.8493 12.4168 74.7886 12.4811 74.7302C12.4978 74.7151 12.5154 74.701 12.5323 74.686C12.5964 74.6292 12.6609 74.5727 12.7269 74.5189C12.7331 74.5139 12.7396 74.5092 12.7458 74.5041C15.0639 72.6282 18.4072 72.6304 20.7224 74.5116C20.725 74.5139 20.7279 74.5157 20.7307 74.518C20.8014 74.5756 20.8705 74.6359 20.9394 74.6971C20.9517 74.7079 20.9645 74.7182 20.9767 74.7293C21.0562 74.8011 21.1342 74.8752 21.2107 74.9517C21.2932 75.0342 21.3727 75.1191 21.4499 75.2052C21.4839 75.2431 21.5159 75.2819 21.5487 75.3203C21.5889 75.3672 21.6292 75.4142 21.6678 75.462C21.7111 75.5159 21.7529 75.5706 21.7942 75.6254C21.8174 75.6559 21.8405 75.6867 21.863 75.7176C21.913 75.7866 21.9618 75.8564 22.0089 75.927C22.0169 75.939 22.0248 75.9512 22.0327 75.9632C23.6414 78.4204 23.3677 81.7575 21.2109 83.9145ZM84.087 83.9145C82.8899 85.1115 81.2984 85.7708 79.6054 85.7708C77.9125 85.7708 76.3212 85.1115 75.1242 83.9145C72.967 81.7575 72.6933 78.4198 74.3022 75.9629C74.3099 75.951 74.3176 75.9392 74.3255 75.9276C74.3725 75.8567 74.4215 75.7868 74.4717 75.7174C74.494 75.6867 74.5169 75.6563 74.54 75.6261C74.5814 75.571 74.6234 75.516 74.6671 75.4619C74.7055 75.4144 74.7453 75.3679 74.7852 75.3214C74.8184 75.2826 74.8508 75.2432 74.8851 75.2052C74.9624 75.1191 75.0419 75.0344 75.1244 74.9519C76.3214 73.7549 77.9127 73.0956 79.6056 73.0956C81.2986 73.0956 82.8901 73.7549 84.087 74.9519C84.1695 75.0344 84.249 75.1193 84.3263 75.2054C84.3604 75.2432 84.3925 75.2822 84.4255 75.3209C84.4656 75.3676 84.5057 75.4144 84.5442 75.462C84.5877 75.516 84.6295 75.5708 84.6709 75.6257C84.694 75.6563 84.717 75.6869 84.7395 75.7178C84.7896 75.787 84.8385 75.8566 84.8854 75.9272C84.8935 75.9392 84.9014 75.9512 84.9092 75.9632C86.5176 78.4202 86.2439 81.7577 84.087 83.9145ZM93.265 76.8235H93.2646C93.2646 78.1116 92.2166 79.1595 90.9285 79.1595H88.677C88.6234 77.176 87.9233 75.2836 86.6633 73.732C86.6548 73.7215 86.6468 73.7106 86.6382 73.7001C86.5602 73.6051 86.4793 73.5119 86.3972 73.4192C86.3762 73.3956 86.3564 73.3712 86.3352 73.3476C86.2482 73.2518 86.1582 73.1579 86.0667 73.0652C86.0511 73.0495 86.0369 73.033 86.0211 73.0174C84.8429 71.8394 83.3978 71.0251 81.8222 70.6313C81.106 70.4523 80.3629 70.3602 79.6054 70.3602C78.9996 70.3602 78.4028 70.4193 77.8216 70.5344C76.078 70.8801 74.4753 71.7323 73.19 73.0174C73.1746 73.0328 73.1605 73.0489 73.1453 73.0645C73.0535 73.1577 72.9631 73.2518 72.8759 73.348C72.8553 73.3707 72.8362 73.3943 72.8159 73.4172C72.733 73.5106 72.6513 73.6047 72.5727 73.7007C72.5648 73.7102 72.5575 73.7202 72.5497 73.7299C71.2887 75.2817 70.5879 77.1752 70.534 79.1597H25.8008C25.747 77.1728 25.0447 75.277 23.7805 73.7239C23.7747 73.7166 23.7691 73.7093 23.7633 73.702C23.6808 73.6011 23.5951 73.5023 23.5079 73.4044C23.4918 73.3864 23.4768 73.3679 23.4605 73.3499C23.3583 73.2372 23.2533 73.1262 23.1447 73.0176C22.7026 72.5755 22.2256 72.1885 21.7229 71.8568C20.2143 70.8619 18.4719 70.3645 16.7294 70.3645C14.4061 70.3645 12.0826 71.2489 10.314 73.0176C10.2129 73.1187 10.1152 73.2224 10.0196 73.3274C9.99127 73.3585 9.96409 73.3902 9.93615 73.4215C9.86865 73.4978 9.80227 73.5749 9.73759 73.6529C9.7089 73.6876 9.68021 73.7224 9.65209 73.7577C9.58515 73.8411 9.5199 73.9255 9.45615 74.0108C9.43628 74.0374 9.41584 74.0635 9.39653 74.0903C9.22515 74.3249 9.06615 74.5667 8.91915 74.8148C8.91503 74.8217 8.91109 74.8289 8.90697 74.8358C8.83515 74.9579 8.76634 75.0816 8.70053 75.2067C8.69865 75.2102 8.69678 75.214 8.69472 75.2176C8.21791 76.1249 7.89728 77.1062 7.75028 78.1242L3.48786 76.2297C3.03074 76.0264 2.73543 75.5719 2.73543 75.0719V61.8269C2.73543 60.1317 3.93973 58.6492 5.59892 58.3016L7.56241 57.8904C11.5036 57.0648 15.0946 55.1263 17.9472 52.2843C21.3447 48.8994 25.8571 47.0353 30.6531 47.0353H47.2562C50.8616 47.0353 54.3463 48.1022 57.3339 50.1202L66.3796 56.231C68.1948 57.4574 70.9538 59.1566 73.9435 59.7513L86.4254 62.2334C88.7657 62.699 90.8141 64.138 92.0458 66.1818L92.4778 66.8988C92.9929 67.7532 93.265 68.7323 93.265 69.73V76.8235V76.8235Z" fill="#3CB7C6"/>
<path d="M19.6662 76.4972C18.8817 75.7129 17.8392 75.2811 16.7301 75.2811C15.6211 75.2811 14.5784 75.7131 13.7942 76.4972C13.0101 77.2814 12.5781 78.3241 12.5781 79.4331C12.5781 80.5422 13.0101 81.5849 13.7942 82.369C14.5784 83.1531 15.6211 83.5851 16.7303 83.5851C17.8394 83.5851 18.882 83.1533 19.6662 82.369C21.285 80.7501 21.285 78.1161 19.6662 76.4972ZM17.7319 80.4349C17.4644 80.7025 17.1085 80.8499 16.7301 80.8499C16.3515 80.8499 15.9959 80.7025 15.7283 80.4347C15.4607 80.1672 15.3132 79.8115 15.3132 79.4329C15.3132 79.0544 15.4606 78.6987 15.7283 78.4311C15.9959 78.1636 16.3515 78.016 16.7301 78.016C17.1085 78.016 17.4644 78.1634 17.7319 78.4311C18.2843 78.9837 18.2843 79.8825 17.7319 80.4349Z" fill="#3CB7C6"/>
<path d="M82.5431 76.4974C81.759 75.7131 80.7163 75.2811 79.6071 75.2811C78.498 75.2811 77.4555 75.7129 76.671 76.4972C75.0524 78.1161 75.0524 80.7501 76.671 82.369C77.4554 83.1533 78.498 83.5851 79.6071 83.5851C80.7163 83.5851 81.7588 83.1533 82.543 82.3692C83.3273 81.585 83.7591 80.5424 83.7591 79.4333C83.7591 78.3242 83.3273 77.2816 82.5431 76.4974ZM80.6089 80.4351C80.3413 80.7027 79.9857 80.85 79.6071 80.85C79.2287 80.85 78.8728 80.7027 78.6053 80.4351C78.0529 79.8827 78.0529 78.9839 78.6053 78.4315C78.8728 78.1639 79.2287 78.0164 79.6071 78.0164C79.9857 78.0164 80.3413 78.1637 80.6091 78.4315C80.8766 78.6991 81.024 79.0547 81.024 79.4333C81.024 79.8115 80.8768 80.1674 80.6089 80.4351Z" fill="#3CB7C6"/>
</svg>
