<svg width="44" height="44" viewBox="0 0 44 44" fill="none" xmlns="http://www.w3.org/2000/svg">
<path d="M40.5625 2.75H3.4375C2.89069 2.75064 2.36645 2.96814 1.9798 3.3548C1.59314 3.74145 1.37564 4.26569 1.375 4.8125V14.4375C1.37564 14.9843 1.59314 15.5085 1.9798 15.8952C2.36645 16.2819 2.89069 16.4994 3.4375 16.5H40.5625C41.1093 16.4994 41.6335 16.2819 42.0202 15.8952C42.4069 15.5085 42.6244 14.9843 42.625 14.4375V4.8125C42.6244 4.26569 42.4069 3.74145 42.0202 3.3548C41.6335 2.96814 41.1093 2.75064 40.5625 2.75ZM37.125 12.375H6.875V11H37.125V12.375ZM6.875 15.125V13.75H37.125V15.125H6.875ZM41.25 14.4375C41.2498 14.6198 41.1773 14.7945 41.0484 14.9234C40.9195 15.0523 40.7448 15.1248 40.5625 15.125H38.5V11C38.4996 10.6355 38.3546 10.286 38.0968 10.0282C37.839 9.77044 37.4895 9.62543 37.125 9.625H6.875C6.51046 9.62543 6.16097 9.77044 5.90321 10.0282C5.64544 10.286 5.50043 10.6355 5.5 11V15.125H3.4375C3.25523 15.1248 3.08048 15.0523 2.95159 14.9234C2.8227 14.7945 2.7502 14.6198 2.75 14.4375V4.8125C2.7502 4.63023 2.8227 4.45548 2.95159 4.32659C3.08048 4.1977 3.25523 4.1252 3.4375 4.125H40.5625C40.7448 4.1252 40.9195 4.1977 41.0484 4.32659C41.1773 4.45548 41.2498 4.63023 41.25 4.8125V14.4375Z" fill="#3CB7C6"/>
<path d="M16.5711 36.2879C16.6716 36.44 16.8284 36.546 17.007 36.5826C17.1856 36.6191 17.3715 36.5832 17.5236 36.4828L18.4517 35.8698L19.1656 36.2823V37.9667L18.4517 38.3792L17.5236 37.7662C17.3715 37.6663 17.1859 37.6309 17.0077 37.6677C16.8294 37.7044 16.6731 37.8103 16.5728 37.9622C16.4725 38.1141 16.4365 38.2995 16.4728 38.4778C16.509 38.6562 16.6144 38.8129 16.766 38.9136L17.762 39.5713L17.8336 40.7627C17.8441 40.9375 17.9208 41.1017 18.0482 41.2218C18.1756 41.3419 18.344 41.4089 18.5191 41.4091C18.533 41.4091 18.547 41.4086 18.561 41.4078C18.743 41.3968 18.9132 41.314 19.0342 41.1776C19.1551 41.0412 19.2169 40.8623 19.206 40.6803L19.1393 39.5699L19.8533 39.1574L21.3125 39.9996V40.824L20.3175 41.3215C20.1559 41.4039 20.0334 41.5468 19.9767 41.7191C19.9201 41.8915 19.9338 42.0792 20.0149 42.2415C20.0961 42.4037 20.238 42.5273 20.4099 42.5853C20.5818 42.6434 20.7696 42.6311 20.9325 42.5512L22 42.0181L23.0675 42.5519C23.2304 42.6317 23.4183 42.644 23.5901 42.5859C23.762 42.5279 23.904 42.4043 23.9851 42.2421C24.0663 42.0798 24.08 41.8921 24.0233 41.7197C23.9666 41.5474 23.8441 41.4045 23.6825 41.3221L22.6875 40.8246V40.0002L24.1467 39.158L24.8607 39.5705L24.794 40.6809C24.7831 40.8629 24.8449 41.0418 24.9659 41.1782C25.0869 41.3147 25.2571 41.3974 25.4391 41.4084C25.4531 41.4092 25.467 41.4097 25.4809 41.4097C25.656 41.4095 25.8244 41.3425 25.9518 41.2224C26.0792 41.1023 26.156 40.9381 26.1664 40.7633L26.238 39.5719L27.2341 38.9142C27.3097 38.8646 27.3748 38.8005 27.4256 38.7257C27.4764 38.6509 27.512 38.5668 27.5303 38.4782C27.5485 38.3896 27.5491 38.2983 27.532 38.2094C27.515 38.1206 27.4805 38.036 27.4307 37.9605C27.3808 37.8851 27.3166 37.8202 27.2416 37.7695C27.1666 37.7189 27.0824 37.6836 26.9938 37.6656C26.9051 37.6476 26.8138 37.6473 26.725 37.6646C26.6362 37.682 26.5518 37.7167 26.4764 37.7668L25.5483 38.3798L24.8344 37.9673V36.2823L25.5483 35.8698L26.4764 36.4828C26.5518 36.5328 26.6362 36.5675 26.725 36.5849C26.8138 36.6023 26.9051 36.6019 26.9938 36.5839C27.0824 36.5659 27.1666 36.5306 27.2416 36.48C27.3166 36.4294 27.3808 36.3645 27.4307 36.289C27.4805 36.2135 27.515 36.1289 27.532 36.0401C27.5491 35.9513 27.5485 35.86 27.5303 35.7714C27.512 35.6828 27.4764 35.5987 27.4256 35.5238C27.3748 35.449 27.3097 35.385 27.2341 35.3353L26.238 34.6777L26.1664 33.4862C26.1621 33.3953 26.1398 33.3062 26.1008 33.224C26.0617 33.1418 26.0067 33.0681 25.939 33.0073C25.8713 32.9465 25.7922 32.8998 25.7063 32.8698C25.6204 32.8398 25.5294 32.8272 25.4385 32.8326C25.3477 32.8381 25.2588 32.8615 25.1771 32.9016C25.0954 32.9416 25.0225 32.9975 24.9625 33.066C24.9026 33.1344 24.8568 33.2141 24.8279 33.3004C24.7989 33.3867 24.7874 33.4779 24.794 33.5686L24.8607 34.679L24.1467 35.0915L22.6875 34.2493V33.4249L23.6825 32.9275C23.764 32.8875 23.8367 32.8318 23.8966 32.7636C23.9564 32.6954 24.0022 32.616 24.0312 32.5301C24.0602 32.4441 24.0719 32.3533 24.0657 32.2627C24.0594 32.1722 24.0353 32.0838 23.9947 32.0027C23.9541 31.9215 23.8979 31.8492 23.8292 31.7899C23.7606 31.7306 23.6808 31.6854 23.5946 31.6571C23.5085 31.6287 23.4175 31.6177 23.327 31.6247C23.2366 31.6317 23.1484 31.6565 23.0675 31.6977L22 32.2308L20.9325 31.6971C20.8517 31.6559 20.7635 31.6311 20.673 31.6241C20.5825 31.6171 20.4916 31.6281 20.4054 31.6565C20.3192 31.6848 20.2395 31.73 20.1708 31.7893C20.1022 31.8486 20.0459 31.9209 20.0053 32.0021C19.9647 32.0832 19.9406 32.1716 19.9344 32.2621C19.9281 32.3527 19.9398 32.4435 19.9688 32.5295C19.9979 32.6154 20.0436 32.6948 20.1035 32.763C20.1633 32.8312 20.2361 32.8869 20.3175 32.9268L21.3125 33.4243V34.2487L19.8533 35.0909L19.1393 34.6784L19.206 33.568C19.2126 33.4773 19.2011 33.3861 19.1722 33.2998C19.1433 33.2135 19.0975 33.1338 19.0375 33.0654C18.9776 32.9969 18.9046 32.941 18.8229 32.901C18.7412 32.8609 18.6524 32.8375 18.5615 32.832C18.4707 32.8266 18.3797 32.8392 18.2938 32.8692C18.2078 32.8992 18.1287 32.9459 18.061 33.0067C17.9933 33.0675 17.9383 33.1412 17.8993 33.2234C17.8603 33.3056 17.8379 33.3947 17.8336 33.4856L17.762 34.6771L16.766 35.3347C16.6906 35.3845 16.6257 35.4486 16.5751 35.5235C16.5244 35.5983 16.4891 35.6824 16.471 35.7709C16.4529 35.8594 16.4524 35.9506 16.4696 36.0393C16.4868 36.1281 16.5212 36.2125 16.5711 36.2879ZM20.5408 36.282L22 35.4398L23.4592 36.282V37.9667L22 38.8088L20.5408 37.9667V36.282Z" fill="#3CB7C6"/>
<path d="M8.22984 31.1707L7.82138 31.4064L7.16825 30.9751C7.01609 30.8752 6.83056 30.8398 6.65232 30.8766C6.47408 30.9133 6.31769 31.0192 6.21741 31.1711C6.11714 31.323 6.08117 31.5084 6.11739 31.6867C6.15361 31.8651 6.25906 32.0218 6.41063 32.1225L7.13173 32.5986L7.18329 33.4612C7.19375 33.6359 7.27051 33.8001 7.3979 33.9203C7.52529 34.0404 7.69372 34.1074 7.86882 34.1076C7.88265 34.1076 7.89675 34.1076 7.91075 34.1063C8.09276 34.0954 8.26297 34.0126 8.38394 33.8762C8.50491 33.7397 8.56673 33.5608 8.5558 33.3788L8.50888 32.5968L8.91734 32.361L9.91654 32.9379V33.4095L9.21615 33.7597C9.05453 33.8421 8.93203 33.985 8.87535 34.1574C8.81866 34.3297 8.83238 34.5174 8.91352 34.6797C8.99466 34.8419 9.13664 34.9655 9.30851 35.0236C9.48039 35.0816 9.66824 35.0693 9.83111 34.9895L10.604 34.6028L11.377 34.9895C11.5401 35.071 11.729 35.0844 11.9019 35.0267C11.9876 34.9982 12.0668 34.953 12.135 34.8938C12.2032 34.8347 12.259 34.7627 12.2994 34.6819C12.3398 34.6011 12.3638 34.5132 12.3702 34.4232C12.3766 34.3331 12.3652 34.2427 12.3367 34.157C12.3081 34.0714 12.2629 33.9922 12.2038 33.924C12.1446 33.8558 12.0726 33.7999 11.9918 33.7595L11.2919 33.4099V32.9383L12.2911 32.3614L12.6995 32.5972L12.6526 33.3793C12.6417 33.5613 12.7035 33.7402 12.8245 33.8766C12.9455 34.013 13.1157 34.0958 13.2977 34.1067C13.3117 34.1076 13.3257 34.108 13.3396 34.108C13.5147 34.1078 13.6831 34.0408 13.8105 33.9207C13.9379 33.8006 14.0147 33.6364 14.0251 33.4616L14.0767 32.599L14.7978 32.1229C14.8734 32.0733 14.9385 32.0093 14.9894 31.9344C15.0402 31.8596 15.0758 31.7755 15.094 31.6869C15.1123 31.5983 15.1129 31.507 15.0958 31.4182C15.0787 31.3293 15.0442 31.2448 14.9944 31.1693C14.9446 31.0938 14.8803 31.0289 14.8053 30.9783C14.7304 30.9277 14.6461 30.8924 14.5575 30.8744C14.4689 30.8563 14.3775 30.856 14.2888 30.8734C14.2 30.8907 14.1155 30.9254 14.0402 30.9755L13.387 31.4068L12.9786 31.1711V30.0169L13.387 29.7811L14.0402 30.2125C14.1155 30.2625 14.2 30.2972 14.2888 30.3146C14.3775 30.3319 14.4689 30.3316 14.5575 30.3136C14.6461 30.2956 14.7304 30.2603 14.8053 30.2097C14.8803 30.1591 14.9446 30.0942 14.9944 30.0187C15.0442 29.9432 15.0787 29.8586 15.0958 29.7698C15.1129 29.681 15.1123 29.5896 15.094 29.501C15.0758 29.4125 15.0402 29.3283 14.9894 29.2535C14.9385 29.1787 14.8734 29.1146 14.7978 29.065L14.0767 28.5889L14.0251 27.7264C14.0202 27.6359 13.9975 27.5472 13.9583 27.4655C13.919 27.3839 13.864 27.3107 13.7963 27.2504C13.7287 27.1901 13.6498 27.1437 13.5642 27.1139C13.4786 27.0842 13.3879 27.0717 13.2975 27.0771C13.207 27.0825 13.1185 27.1058 13.037 27.1456C12.9556 27.1853 12.8828 27.2408 12.8229 27.3088C12.7629 27.3768 12.717 27.456 12.6878 27.5417C12.6586 27.6275 12.6466 27.7183 12.6526 27.8087L12.6995 28.5907L12.2911 28.8265L11.2919 28.2492V27.7776L11.9922 27.4275C12.0729 27.3871 12.145 27.3312 12.2041 27.263C12.2633 27.1948 12.3084 27.1157 12.337 27.03C12.3656 26.9444 12.377 26.8539 12.3706 26.7639C12.3642 26.6738 12.3401 26.5859 12.2998 26.5051C12.2594 26.4244 12.2035 26.3523 12.1353 26.2932C12.0671 26.234 11.9879 26.1889 11.9023 26.1603C11.8166 26.1317 11.7262 26.1203 11.6361 26.1267C11.5461 26.1331 11.4581 26.1572 11.3774 26.1975L10.6044 26.5843L9.83146 26.1975C9.66858 26.1177 9.48073 26.1054 9.30886 26.1634C9.13698 26.2215 8.995 26.3451 8.91387 26.5073C8.83273 26.6696 8.81901 26.8573 8.87569 27.0297C8.93238 27.202 9.05487 27.3449 9.21649 27.4273L9.91688 27.7775V28.2491L8.91768 28.826L8.50922 28.5902L8.55614 27.8082C8.56212 27.7178 8.55015 27.627 8.52093 27.5412C8.49172 27.4554 8.44582 27.3763 8.38589 27.3083C8.32596 27.2403 8.25318 27.1848 8.17173 27.1451C8.09028 27.1053 8.00178 27.082 7.9113 27.0766C7.82083 27.0712 7.73018 27.0837 7.64456 27.1134C7.55895 27.1432 7.48006 27.1895 7.41243 27.2499C7.3448 27.3102 7.28977 27.3833 7.2505 27.465C7.21124 27.5467 7.18851 27.6354 7.18364 27.7259L7.13207 28.5884L6.41097 29.0645C6.33534 29.1141 6.27024 29.1782 6.21941 29.253C6.16858 29.3278 6.13301 29.4119 6.11475 29.5005C6.09648 29.5891 6.09588 29.6805 6.11297 29.7693C6.13007 29.8581 6.16452 29.9427 6.21436 30.0182C6.26421 30.0936 6.32845 30.1586 6.40342 30.2092C6.4784 30.2598 6.56262 30.2951 6.65126 30.3131C6.73991 30.3311 6.83123 30.3314 6.92001 30.3141C7.00878 30.2967 7.09326 30.262 7.1686 30.2119L7.82172 29.7806L8.23018 30.0164L8.22984 31.1707ZM9.60484 30.0169L10.604 29.44L11.6032 30.0169V31.1707L10.6044 31.7476L9.60518 31.1707L9.60484 30.0169Z" fill="#3CB7C6"/>
<path d="M30.6826 27.7682C30.5925 27.7628 30.5021 27.7752 30.4168 27.8047C30.3315 27.8342 30.2528 27.8802 30.1852 27.9401C30.1177 28 30.0626 28.0726 30.0231 28.1538C29.9836 28.235 29.9605 28.3232 29.9551 28.4133L29.9036 29.2759L29.1825 29.752C29.1068 29.8016 29.0417 29.8656 28.9909 29.9405C28.9401 30.0153 28.9045 30.0994 28.8862 30.188C28.868 30.2766 28.8674 30.3679 28.8845 30.4567C28.9016 30.5456 28.936 30.6301 28.9858 30.7056C29.0357 30.7811 29.0999 30.846 29.1749 30.8966C29.2499 30.9472 29.3341 30.9826 29.4227 31.0006C29.5114 31.0186 29.6027 31.0189 29.6915 31.0015C29.7803 30.9842 29.8647 30.9495 29.9401 30.8994L30.5932 30.4681L31.0017 30.7038V31.8576L30.5932 32.0933L29.9401 31.662C29.7879 31.5622 29.6024 31.5268 29.4241 31.5635C29.2459 31.6003 29.0895 31.7062 28.9892 31.858C28.889 32.0099 28.853 32.1953 28.8892 32.3737C28.9254 32.552 29.0309 32.7087 29.1825 32.8095L29.9036 33.2856L29.9551 34.1481C29.9656 34.3229 30.0423 34.4871 30.1697 34.6072C30.2971 34.7273 30.4655 34.7943 30.6406 34.7945C30.6546 34.7945 30.6686 34.7945 30.6826 34.7932C30.8646 34.7823 31.0348 34.6995 31.1558 34.5631C31.2767 34.4267 31.3386 34.2478 31.3276 34.0658L31.2807 33.2837L31.6892 33.0479L32.6884 33.6248V34.0965L31.988 34.4467C31.8264 34.5291 31.7039 34.672 31.6472 34.8443C31.5905 35.0166 31.6042 35.2044 31.6854 35.3666C31.7665 35.5289 31.9085 35.6525 32.0803 35.7105C32.2522 35.7685 32.4401 35.7563 32.6029 35.6764L33.3759 35.2897L34.1487 35.6764C34.3116 35.7563 34.4994 35.7685 34.6713 35.7105C34.8432 35.6525 34.9852 35.5289 35.0663 35.3666C35.1474 35.2044 35.1612 35.0166 35.1045 34.8443C35.0478 34.672 34.9253 34.5291 34.7637 34.4467L34.0634 34.0965V33.6248L35.0626 33.0479L35.471 33.2837L35.4241 34.0658C35.4132 34.2477 35.4749 34.4265 35.5958 34.5629C35.7166 34.6993 35.8867 34.7822 36.0686 34.7932C36.0827 34.7941 36.0967 34.7945 36.1106 34.7945C36.2857 34.7943 36.4541 34.7274 36.5815 34.6073C36.7088 34.4871 36.7856 34.323 36.7961 34.1482L36.8477 33.2856L37.5687 32.8095C37.6443 32.7598 37.7094 32.6958 37.7602 32.621C37.8111 32.5461 37.8466 32.462 37.8649 32.3734C37.8832 32.2848 37.8838 32.1935 37.8667 32.1047C37.8496 32.0159 37.8151 31.9313 37.7653 31.8558C37.7154 31.7803 37.6512 31.7154 37.5762 31.6648C37.5013 31.6142 37.417 31.5789 37.3284 31.5609C37.2397 31.5429 37.1484 31.5425 37.0596 31.5599C36.9709 31.5773 36.8864 31.612 36.8111 31.662L36.1579 32.0934L35.7495 31.8576V30.7038L36.1579 30.468L36.8111 30.8994C36.8864 30.9495 36.9709 30.9842 37.0596 31.0015C37.1484 31.0189 37.2397 31.0186 37.3284 31.0006C37.417 30.9826 37.5013 30.9472 37.5762 30.8966C37.6512 30.846 37.7154 30.7811 37.7653 30.7056C37.8151 30.6301 37.8496 30.5456 37.8667 30.4567C37.8838 30.3679 37.8832 30.2766 37.8649 30.188C37.8466 30.0994 37.8111 30.0153 37.7602 29.9405C37.7094 29.8656 37.6443 29.8016 37.5687 29.752L36.8477 29.2759L36.7961 28.4132C36.7918 28.3223 36.7694 28.2332 36.7304 28.151C36.6914 28.0688 36.6364 27.9952 36.5687 27.9344C36.501 27.8736 36.4219 27.8268 36.3359 27.7968C36.25 27.7668 36.159 27.7542 36.0682 27.7597C35.9773 27.7651 35.8885 27.7886 35.8068 27.8286C35.7251 27.8687 35.6521 27.9245 35.5922 27.993C35.5322 28.0615 35.4864 28.1412 35.4575 28.2274C35.4286 28.3137 35.4171 28.4049 35.4237 28.4957L35.4706 29.2777L35.0621 29.5135L34.0629 28.9366V28.4645L34.7632 28.1143C34.8447 28.0744 34.9175 28.0187 34.9773 27.9505C35.0372 27.8823 35.0829 27.8029 35.1119 27.717C35.141 27.631 35.1527 27.5402 35.1464 27.4496C35.1402 27.3591 35.116 27.2707 35.0755 27.1896C35.0349 27.1084 34.9786 27.0361 34.91 26.9768C34.8413 26.9175 34.7616 26.8723 34.6754 26.844C34.5892 26.8156 34.4982 26.8046 34.4078 26.8116C34.3173 26.8186 34.2291 26.8434 34.1483 26.8846L33.3754 27.2713L32.6025 26.8846C32.4396 26.8047 32.2518 26.7925 32.0799 26.8505C31.908 26.9085 31.7661 27.0321 31.6849 27.1944C31.6038 27.3566 31.5901 27.5444 31.6467 27.7167C31.7034 27.889 31.8259 28.0319 31.9875 28.1143L32.6879 28.4645V28.9362L31.6887 29.5131L31.2803 29.2773L31.3272 28.4952C31.338 28.3134 31.2762 28.1346 31.1553 27.9983C31.0345 27.862 30.8644 27.7792 30.6826 27.7682ZM32.3767 30.7038L33.3759 30.1269L34.3751 30.7038V31.8576L33.3759 32.4345L32.3767 31.8576V30.7038Z" fill="#3CB7C6"/>
<path d="M31.1465 8.25C31.5262 8.25 31.834 7.9422 31.834 7.5625C31.834 7.1828 31.5262 6.875 31.1465 6.875C30.7668 6.875 30.459 7.1828 30.459 7.5625C30.459 7.9422 30.7668 8.25 31.1465 8.25Z" fill="#3CB7C6"/>
<path d="M33.6875 8.25C34.0672 8.25 34.375 7.9422 34.375 7.5625C34.375 7.1828 34.0672 6.875 33.6875 6.875C33.3078 6.875 33 7.1828 33 7.5625C33 7.9422 33.3078 8.25 33.6875 8.25Z" fill="#3CB7C6"/>
<path d="M36.4375 8.25C36.8172 8.25 37.125 7.9422 37.125 7.5625C37.125 7.1828 36.8172 6.875 36.4375 6.875C36.0578 6.875 35.75 7.1828 35.75 7.5625C35.75 7.9422 36.0578 8.25 36.4375 8.25Z" fill="#3CB7C6"/>
<path d="M22 19.9375C22.1823 19.9375 22.3572 19.8651 22.4861 19.7361C22.6151 19.6072 22.6875 19.4323 22.6875 19.25V18.5625C22.6875 18.3802 22.6151 18.2053 22.4861 18.0764C22.3572 17.9474 22.1823 17.875 22 17.875C21.8177 17.875 21.6428 17.9474 21.5139 18.0764C21.3849 18.2053 21.3125 18.3802 21.3125 18.5625V19.25C21.3125 19.4323 21.3849 19.6072 21.5139 19.7361C21.6428 19.8651 21.8177 19.9375 22 19.9375Z" fill="#3CB7C6"/>
<path d="M21.3125 25.4375C21.3125 25.6198 21.3849 25.7947 21.5139 25.9236C21.6428 26.0526 21.8177 26.125 22 26.125C22.1823 26.125 22.3572 26.0526 22.4861 25.9236C22.6151 25.7947 22.6875 25.6198 22.6875 25.4375V21.3125C22.6875 21.1302 22.6151 20.9553 22.4861 20.8264C22.3572 20.6974 22.1823 20.625 22 20.625C21.8177 20.625 21.6428 20.6974 21.5139 20.8264C21.3849 20.9553 21.3125 21.1302 21.3125 21.3125V25.4375Z" fill="#3CB7C6"/>
<path d="M15.4189 22.8932C15.1994 23.117 14.9632 23.3238 14.7125 23.512C14.5666 23.6214 14.4702 23.7842 14.4444 23.9647C14.4186 24.1453 14.4656 24.3286 14.575 24.4745C14.6844 24.6203 14.8473 24.7168 15.0278 24.7426C15.2083 24.7684 15.3916 24.7214 15.5375 24.612C15.8439 24.382 16.1325 24.1292 16.4008 23.8557C16.5274 23.7253 16.5972 23.5501 16.5949 23.3684C16.5926 23.1866 16.5185 23.0132 16.3887 22.886C16.2589 22.7588 16.084 22.6881 15.9023 22.6895C15.7206 22.6908 15.5468 22.7641 15.4189 22.8932Z" fill="#3CB7C6"/>
<path d="M17.0267 21.9426C17.1095 21.9788 17.1985 21.9983 17.2888 22.0001C17.3791 22.0018 17.4689 21.9857 17.5529 21.9527C17.637 21.9197 17.7137 21.8705 17.7787 21.8078C17.8438 21.7452 17.8958 21.6703 17.9318 21.5875C18.3495 20.6338 18.5645 19.6037 18.5632 18.5625C18.5632 18.3802 18.4908 18.2053 18.3619 18.0764C18.2329 17.9474 18.0581 17.875 17.8757 17.875C17.6934 17.875 17.5185 17.9474 17.3896 18.0764C17.2607 18.2053 17.1882 18.3802 17.1882 18.5625C17.1893 19.4144 17.0134 20.2572 16.6717 21.0375C16.5987 21.2046 16.5952 21.3939 16.6618 21.5636C16.7283 21.7333 16.8596 21.8697 17.0267 21.9426Z" fill="#3CB7C6"/>
<path d="M29.286 23.5115C28.617 23.0109 28.0569 22.3793 27.64 21.6552C27.5482 21.4986 27.3981 21.3847 27.2226 21.3383C27.0471 21.2919 26.8603 21.3168 26.7031 21.4075C26.5459 21.4983 26.431 21.6476 26.3834 21.8228C26.3358 21.998 26.3595 22.1849 26.4492 22.3427C26.9588 23.2277 27.6433 23.9997 28.461 24.6115C28.6069 24.7209 28.7902 24.7679 28.9708 24.7421C29.1513 24.7163 29.3141 24.6199 29.4235 24.474C29.5329 24.3281 29.5799 24.1448 29.5541 23.9643C29.5283 23.7838 29.4319 23.6209 29.286 23.5115Z" fill="#3CB7C6"/>
<path d="M26.8125 18.5625C26.8125 18.3802 26.7401 18.2053 26.6111 18.0764C26.4822 17.9474 26.3073 17.875 26.125 17.875C25.9427 17.875 25.7678 17.9474 25.6389 18.0764C25.5099 18.2053 25.4375 18.3802 25.4375 18.5625C25.4376 19.0705 25.4887 19.5772 25.5901 20.075C25.6266 20.2537 25.7325 20.4105 25.8847 20.5111C26.0368 20.6116 26.2226 20.6476 26.4013 20.6112C26.58 20.5747 26.7368 20.4687 26.8374 20.3166C26.9379 20.1645 26.9739 19.9787 26.9375 19.8C26.8544 19.3927 26.8126 18.9781 26.8125 18.5625Z" fill="#3CB7C6"/>
</svg>
