<svg width="96" height="96" viewBox="0 0 96 96" fill="none" xmlns="http://www.w3.org/2000/svg">
<path d="M95.9488 79.6016L81.6 23.7984V1.6C81.6 0.7164 80.8836 0 80 0H16C15.1164 0 14.4 0.7164 14.4 1.6V23.7984L0.0512 79.6016C0.0174 79.7318 0.0002 79.8656 0 80V94.4C0 95.2836 0.7164 96 1.6 96H94.4C95.2836 96 96 95.2836 96 94.4V80C95.9998 79.8656 95.9826 79.7318 95.9488 79.6016ZM17.6 3.2H78.4V22.4H75.2V16C75.2 15.1164 74.4836 14.4 73.6 14.4H51.2C50.3164 14.4 49.6 15.1164 49.6 16V22.4H46.4V16C46.4 15.1164 45.6836 14.4 44.8 14.4H22.4C21.5164 14.4 20.8 15.1164 20.8 16V22.4H17.6V3.2ZM72 17.6V28.8H52.8V17.6H72ZM43.2 17.6V28.8H24V17.6H43.2ZM17.24 25.6H20.8V30.4C20.8 31.2836 21.5164 32 22.4 32H44.8C45.6836 32 46.4 31.2836 46.4 30.4V25.6H49.6V30.4C49.6 31.2836 50.3164 32 51.2 32H73.6C74.4836 32 75.2 31.2836 75.2 30.4V25.6H78.76L82.0512 38.4H13.9488L17.24 25.6ZM13.12 41.6H82.88L83.7024 44.8H12.304L13.12 41.6ZM92.8 92.8H3.2V80.2016L11.48 48H84.52L92.8 80.2016V92.8Z" fill="#3CB7C6"/>
<path d="M89.6008 78.4001H52.8008V81.6002H89.6008V78.4001Z" fill="#3CB7C6"/>
<path d="M49.6004 78.4001H46.4004V81.6002H49.6004V78.4001Z" fill="#3CB7C6"/>
<path d="M43.2004 78.4001H6.40039V81.6002H43.2004V78.4001Z" fill="#3CB7C6"/>
</svg>
