<svg width="48" height="48" viewBox="0 0 48 48" fill="none" xmlns="http://www.w3.org/2000/svg">
<path d="M42.8355 17.3687C42.8161 17.2487 42.7637 17.1366 42.6842 17.0447C42.6048 16.9528 42.5014 16.8847 42.3855 16.8482L17.2301 8.88391C17.1479 8.85776 17.0613 8.84807 16.9753 8.8554C16.8893 8.86274 16.8056 8.88695 16.729 8.92665C16.6524 8.96635 16.5843 9.02077 16.5288 9.08679C16.4732 9.15281 16.4312 9.22914 16.4051 9.31141L14.4776 15.404C14.4514 15.4863 14.4416 15.5729 14.4489 15.6589C14.4562 15.7449 14.4804 15.8287 14.5201 15.9053C14.5598 15.9819 14.6143 16.05 14.6803 16.1056C14.7464 16.1611 14.8228 16.2031 14.9051 16.229L16.9961 16.8909L16.0774 19.7927C16.0511 19.8749 16.0414 19.9615 16.0486 20.0475C16.0559 20.1335 16.0801 20.2173 16.1198 20.2939C16.1596 20.3706 16.214 20.4386 16.2801 20.4942C16.3462 20.5497 16.4225 20.5917 16.5049 20.6177L20.7443 21.9598L20.1375 23.8783C20.1112 23.9605 20.1015 24.0471 20.1088 24.1331C20.116 24.2192 20.1402 24.3029 20.18 24.3795C20.2197 24.4562 20.2741 24.5242 20.3402 24.5798C20.4063 24.6354 20.4827 24.6773 20.565 24.7033L21.0855 24.8679L19.3639 30.3054C19.2967 30.5198 19.1627 30.707 18.9815 30.8397C18.8002 30.9725 18.5813 31.0437 18.3566 31.043H9.42788V30.7858C9.42718 29.827 9.0461 28.9077 8.36828 28.2296C7.69046 27.5515 6.77128 27.17 5.8125 27.1689C5.63845 27.1689 5.47153 27.2381 5.34846 27.3611C5.22539 27.4842 5.15625 27.6511 5.15625 27.8252C5.15625 27.9992 5.22539 28.1661 5.34846 28.2892C5.47153 28.4123 5.63845 28.4814 5.8125 28.4814C6.42311 28.4821 7.00851 28.725 7.44024 29.1568C7.87198 29.5886 8.11478 30.1741 8.11538 30.7847V35.5314C8.11478 36.142 7.87198 36.7275 7.44024 37.1593C7.00851 37.5911 6.42311 37.834 5.8125 37.8347C5.63845 37.8347 5.47153 37.9038 5.34846 38.0269C5.22539 38.1499 5.15625 38.3169 5.15625 38.4909C5.15625 38.665 5.22539 38.8319 5.34846 38.955C5.47153 39.078 5.63845 39.1472 5.8125 39.1472C6.77109 39.1461 7.69009 38.7648 8.36788 38.0869C9.04567 37.409 9.42688 36.49 9.42788 35.5314V35.2955L18.753 35.3C19.8275 35.3032 20.8748 34.9624 21.7418 34.3276C22.6087 33.6928 23.2499 32.7973 23.5714 31.772L25.3331 26.2127L25.8536 26.3773C25.9359 26.4035 26.0225 26.4133 26.1085 26.406C26.1945 26.3987 26.2782 26.3745 26.3549 26.3348C26.4315 26.2951 26.4996 26.2407 26.5551 26.1746C26.6107 26.1085 26.6527 26.0321 26.6786 25.9498L27.2865 24.0298L34.449 26.2978C34.5312 26.324 34.6178 26.3338 34.7039 26.3265C34.7899 26.3192 34.8736 26.295 34.9503 26.2553C35.0269 26.2156 35.095 26.1612 35.1505 26.0951C35.2061 26.029 35.248 25.9526 35.274 25.8703L35.6692 24.6212C35.7442 24.6504 35.8193 24.686 35.8972 24.7108C36.6328 24.945 37.4202 24.9628 38.1656 24.762C38.911 24.5612 39.583 24.1504 40.1013 23.5783C40.6197 23.0063 40.9627 22.2973 41.0894 21.5358C41.216 20.7743 41.121 19.9924 40.8158 19.2834L42.5749 18.0047C42.6729 17.9331 42.7492 17.8358 42.7952 17.7235C42.8412 17.6113 42.8551 17.4884 42.8355 17.3687ZM17.4596 10.3333L40.7505 17.7073L39.6296 18.5222L39.6247 18.5259L35.6464 21.4175L15.927 15.1745L17.4596 10.3333ZM22.3215 31.3757C22.0836 32.1347 21.6091 32.7977 20.9673 33.2676C20.3256 33.7376 19.5503 33.9898 18.7549 33.9875L9.42938 33.983V32.354H18.3559C18.8595 32.3554 19.3503 32.1956 19.7566 31.898C20.1629 31.6005 20.4634 31.1808 20.6141 30.7003L22.3358 25.2628L24.0818 25.8155L22.3215 31.3757ZM25.6241 24.9257L25.1036 24.761L21.5858 23.6469L21.9953 22.3532L26.0336 23.6315L25.6241 24.9257ZM34.2195 24.8465L17.5267 19.5632L18.2475 17.2877L34.9406 22.571L34.6819 23.3878C34.6454 23.4566 34.6217 23.5314 34.6117 23.6087L34.2195 24.8465ZM39.7054 21.686C39.4877 22.3734 39.0059 22.9462 38.366 23.2785C37.7261 23.6108 36.9804 23.6753 36.2929 23.4579C36.2145 23.4332 36.1399 23.3998 36.0649 23.3683L36.3251 22.5455L39.7136 20.0825C39.873 20.6062 39.8701 21.1659 39.7054 21.6879V21.686Z" fill="#3CB7C6"/>
<path d="M23.5178 13.2266L19.4622 11.943C19.3796 11.9152 19.2923 11.9041 19.2054 11.9104C19.1184 11.9167 19.0336 11.9403 18.9559 11.9798C18.8782 12.0192 18.8091 12.0737 18.7527 12.1402C18.6963 12.2066 18.6537 12.2836 18.6273 12.3667C18.601 12.4498 18.5915 12.5373 18.5994 12.6241C18.6072 12.7109 18.6323 12.7953 18.6731 12.8723C18.7139 12.9493 18.7697 13.0174 18.8371 13.0726C18.9045 13.1279 18.9823 13.1691 19.0658 13.194L23.1211 14.478C23.2037 14.5058 23.291 14.5168 23.3779 14.5105C23.4649 14.5042 23.5497 14.4806 23.6274 14.4412C23.7051 14.4017 23.7742 14.3472 23.8306 14.2807C23.887 14.2143 23.9296 14.1373 23.956 14.0542C23.9823 13.9711 23.9918 13.8836 23.984 13.7968C23.9761 13.71 23.951 13.6256 23.9102 13.5486C23.8694 13.4716 23.8136 13.4035 23.7462 13.3483C23.6788 13.293 23.601 13.2518 23.5175 13.227L23.5178 13.2266Z" fill="#3CB7C6"/>
<path d="M22.8862 15.221L18.831 13.937C18.7479 13.9072 18.6597 13.8944 18.5716 13.8995C18.4835 13.9046 18.3973 13.9274 18.3182 13.9666C18.2392 14.0057 18.1688 14.0604 18.1113 14.1274C18.0538 14.1944 18.0105 14.2722 17.9838 14.3564C17.9571 14.4405 17.9477 14.5291 17.9561 14.617C17.9645 14.7048 17.9905 14.7901 18.0326 14.8677C18.0746 14.9452 18.1319 15.0135 18.201 15.0684C18.2701 15.1233 18.3496 15.1637 18.4346 15.1872L22.4899 16.4712C22.5725 16.499 22.6598 16.5101 22.7467 16.5038C22.8337 16.4975 22.9185 16.4739 22.9962 16.4344C23.0739 16.395 23.143 16.3405 23.1994 16.274C23.2558 16.2076 23.2984 16.1306 23.3248 16.0475C23.3511 15.9644 23.3606 15.8769 23.3527 15.7901C23.3449 15.7033 23.3198 15.6189 23.279 15.5419C23.2382 15.4649 23.1824 15.3968 23.115 15.3416C23.0475 15.2863 22.9698 15.2451 22.8862 15.2202V15.221Z" fill="#3CB7C6"/>
</svg>
