<svg width="96" height="96" viewBox="0 0 96 96" fill="none" xmlns="http://www.w3.org/2000/svg">
<path d="M71.9884 52.686L77.1454 11.4303C77.2773 10.375 77.1833 9.30381 76.8696 8.28768C76.5559 7.27155 76.0297 6.33376 75.3259 5.53652C74.6221 4.73927 73.7568 4.10081 72.7874 3.6635C71.818 3.22619 70.7668 3.00002 69.7033 3H49.158C47.6324 3.00489 46.1442 3.47276 44.8903 4.34173C43.6364 5.21071 42.6757 6.43984 42.1355 7.86658L32.5762 33.358C31.9499 35.0121 30.8363 36.4371 29.3826 37.4445C27.9288 38.4519 26.2035 38.9944 24.4349 39H15C13.8069 39.0014 12.6631 39.4759 11.8195 40.3195C10.9759 41.1631 10.5014 42.3069 10.5 43.5V52.5C10.5 52.697 10.5388 52.892 10.6142 53.074C10.6895 53.256 10.8 53.4214 10.9393 53.5607C11.0786 53.7 11.244 53.8104 11.426 53.8858C11.608 53.9612 11.803 54 12 54H16.2516L10.9242 88.6284C10.7748 89.599 11.0076 90.5897 11.5735 91.3922C12.1395 92.1948 12.9945 92.7467 13.9589 92.9319C14.9233 93.1171 15.922 92.9212 16.745 92.3854C17.568 91.8496 18.1512 91.0156 18.372 90.0587L26.6932 54H32.3721L27.0447 88.6284C26.8953 89.599 27.1281 90.5897 27.694 91.3923C28.2599 92.1949 29.115 92.7468 30.0794 92.932C31.0439 93.1172 32.0425 92.9213 32.8655 92.3855C33.6885 91.8496 34.2717 91.0156 34.4925 90.0587L42.8137 54H48.6862L57.0075 90.0587C57.2283 91.0156 57.8115 91.8496 58.6345 92.3854C59.4574 92.9212 60.4561 93.1171 61.4205 92.9319C62.3849 92.7467 63.24 92.1949 63.8059 91.3923C64.3719 90.5898 64.6046 89.5991 64.4553 88.6284L59.1279 54H60.6862L69.0075 90.0587C69.2283 91.0156 69.8115 91.8496 70.6345 92.3854C71.4574 92.9212 72.4561 93.1171 73.4205 92.9319C74.3849 92.7467 75.24 92.1949 75.8059 91.3923C76.3719 90.5898 76.6046 89.5991 76.4553 88.6284L71.1078 53.8699C71.3443 53.7653 71.5496 53.6013 71.7039 53.3939C71.8582 53.1864 71.9562 52.9426 71.9884 52.686V52.686ZM21 42H24.4349C26.8138 41.9924 29.1343 41.2629 31.0896 39.9078C33.0449 38.5528 34.5428 36.6362 35.3852 34.4114L44.9445 8.91998C45.2686 8.06393 45.845 7.32644 46.5973 6.80505C47.3497 6.28365 48.2426 6.00293 49.158 6H69.7033C70.3414 6.00001 70.9721 6.1357 71.5538 6.39809C72.1354 6.66047 72.6546 7.04354 73.0768 7.52188C73.4991 8.00022 73.8148 8.56289 74.0031 9.17256C74.1913 9.78223 74.2477 10.425 74.1686 11.0581V11.0581L71.6278 31.3835C71.4071 33.1269 70.6643 34.7628 69.4969 36.0764C68.3296 37.3901 66.7923 38.32 65.0869 38.7441C67.0292 36.8894 68.2718 34.421 68.6046 31.7561L70.4884 16.686L67.5116 16.314L65.6278 31.384C65.3621 33.4857 64.3395 35.4184 62.7513 36.8203C61.1631 38.2223 59.1184 38.9972 57 39C55.8069 39.0014 54.6631 39.4759 53.8195 40.3195C52.9759 41.1631 52.5014 42.3069 52.5 43.5V45.258C52.0184 45.0871 51.5111 44.9998 51 45H21C20.4889 44.9998 19.9816 45.0871 19.5 45.258V43.5C19.5005 43.1023 19.6586 42.721 19.9398 42.4398C20.221 42.1586 20.6023 42.0005 21 42V42ZM61.5 51V43.5C61.5005 43.1023 61.6586 42.721 61.9398 42.4398C62.221 42.1586 62.6023 42.0005 63 42C65.8155 41.9997 68.5358 40.9812 70.6593 39.1325L69.1758 51H61.5ZM58.7571 42C58.5865 42.4817 58.4995 42.989 58.5 43.5V51H55.5V43.5C55.5005 43.1023 55.6586 42.721 55.9398 42.4398C56.221 42.1586 56.6023 42.0005 57 42H58.7571ZM52.5 51H19.5V49.5C19.5005 49.1023 19.6586 48.721 19.9398 48.4398C20.221 48.1586 20.6023 48.0005 21 48H51C51.3977 48.0005 51.7789 48.1586 52.0602 48.4398C52.3414 48.721 52.4995 49.1023 52.5 49.5V51ZM13.5 43.5C13.5005 43.1023 13.6586 42.721 13.9398 42.4398C14.221 42.1586 14.6023 42.0005 15 42H16.7571C16.5865 42.4817 16.4995 42.989 16.5 43.5V51H13.5V43.5ZM15.4489 89.3841C15.4026 89.5845 15.2805 89.7592 15.1082 89.8714C14.9358 89.9836 14.7267 90.0246 14.5247 89.9858C14.3228 89.947 14.1437 89.8314 14.0252 89.6634C13.9067 89.4953 13.858 89.2878 13.8893 89.0846L19.2868 54H23.6145L15.4489 89.3841ZM31.5694 89.3841C31.5232 89.5845 31.401 89.7592 31.2287 89.8714C31.0563 89.9836 30.8472 90.0246 30.6453 89.9858C30.4433 89.947 30.2642 89.8314 30.1457 89.6634C30.0272 89.4953 29.9785 89.2878 30.0098 89.0846L35.4073 54H39.735L31.5694 89.3841ZM61.4903 89.0847C61.5215 89.2879 61.4727 89.4953 61.3542 89.6634C61.2357 89.8314 61.0566 89.9469 60.8547 89.9857C60.6528 90.0245 60.4436 89.9835 60.2713 89.8713C60.099 89.7591 59.9769 89.5845 59.9306 89.3841L51.765 54H56.0927L61.4903 89.0847ZM73.308 89.7228C73.2123 89.8343 73.0875 89.9172 72.9475 89.962C72.8076 90.0069 72.6579 90.0121 72.5152 89.977C72.3724 89.9419 72.2422 89.8679 72.139 89.7633C72.0358 89.6586 71.9637 89.5273 71.9306 89.3841L63.765 54H68.0927L73.4903 89.0847C73.5083 89.1979 73.5013 89.3137 73.4699 89.4239C73.4384 89.5342 73.3831 89.6362 73.308 89.7228H73.308Z" fill="#3CB7C6"/>
</svg>
