<svg width="44" height="42" viewBox="0 0 44 42" fill="none" xmlns="http://www.w3.org/2000/svg">
<path d="M39.875 25.125V23.0625C39.8741 22.1511 39.5116 21.2773 38.8672 20.6328C38.2227 19.9884 37.3489 19.6259 36.4375 19.625H24.75C24.2161 19.6249 23.6895 19.7494 23.2121 19.9886C22.7347 20.2277 22.3197 20.5749 22 21.0026C21.6803 20.5749 21.2653 20.2277 20.7879 19.9886C20.3105 19.7494 19.7839 19.6249 19.25 19.625H7.5625C6.6511 19.6259 5.77728 19.9884 5.13283 20.6328C4.48837 21.2773 4.12591 22.1511 4.125 23.0625V25.125C3.2136 25.1259 2.33978 25.4884 1.69533 26.1328C1.05087 26.7773 0.68841 27.6511 0.6875 28.5625V40.9375C0.6875 41.1198 0.759933 41.2947 0.888864 41.4236C1.0178 41.5526 1.19266 41.625 1.375 41.625H42.625C42.8073 41.625 42.9822 41.5526 43.1111 41.4236C43.2401 41.2947 43.3125 41.1198 43.3125 40.9375V28.5625C43.3116 27.6511 42.9491 26.7773 42.3047 26.1328C41.6602 25.4884 40.7864 25.1259 39.875 25.125ZM7.5625 40.25H2.0625V28.5625C2.06323 28.0157 2.28076 27.4915 2.6674 27.1049C3.05403 26.7183 3.57821 26.5007 4.125 26.5H5.5C6.04679 26.5007 6.57097 26.7183 6.9576 27.1049C7.34424 27.4915 7.56177 28.0157 7.5625 28.5625V40.25ZM5.5 25.125V23.0625C5.50073 22.5157 5.71826 21.9915 6.1049 21.6049C6.49153 21.2183 7.01571 21.0007 7.5625 21H19.25C19.7968 21.0007 20.321 21.2183 20.7076 21.6049C21.0942 21.9915 21.3118 22.5157 21.3125 23.0625V31.3142C20.7183 30.8663 19.9942 30.6243 19.25 30.625H11C10.2558 30.6243 9.53174 30.8663 8.9375 31.3142V28.5625C8.93659 27.6511 8.57413 26.7773 7.92967 26.1328C7.28522 25.4884 6.4114 25.1259 5.5 25.125ZM21.3125 34.0625V36.125H8.9375V34.0625C8.93823 33.5157 9.15576 32.9915 9.5424 32.6049C9.92903 32.2183 10.4532 32.0007 11 32H19.25C19.7968 32.0007 20.321 32.2183 20.7076 32.6049C21.0942 32.9915 21.3118 33.5157 21.3125 34.0625ZM35.0625 40.25H8.9375V37.5H35.0625V40.25ZM35.0625 36.125H22.6875V34.0625C22.6882 33.5157 22.9058 32.9915 23.2924 32.6049C23.679 32.2183 24.2032 32.0007 24.75 32H33C33.5468 32.0007 34.071 32.2183 34.4576 32.6049C34.8442 32.9915 35.0618 33.5157 35.0625 34.0625V36.125ZM35.0625 28.5625V31.3142C34.4683 30.8663 33.7442 30.6243 33 30.625H24.75C24.0058 30.6243 23.2817 30.8663 22.6875 31.3142V23.0625C22.6882 22.5157 22.9058 21.9915 23.2924 21.6049C23.679 21.2183 24.2032 21.0007 24.75 21H36.4375C36.9843 21.0007 37.5085 21.2183 37.8951 21.6049C38.2817 21.9915 38.4993 22.5157 38.5 23.0625V25.125C37.5886 25.1259 36.7148 25.4884 36.0703 26.1328C35.4259 26.7773 35.0634 27.6511 35.0625 28.5625ZM41.9375 40.25H36.4375V28.5625C36.4382 28.0157 36.6558 27.4915 37.0424 27.1049C37.429 26.7183 37.9532 26.5007 38.5 26.5H39.875C40.4218 26.5007 40.946 26.7183 41.3326 27.1049C41.7192 27.4915 41.9368 28.0157 41.9375 28.5625V40.25Z" fill="#3CB7C6"/>
<path d="M32.3125 0.375H11.6875C11.5052 0.375 11.3303 0.447433 11.2014 0.576364C11.0724 0.705295 11 0.880164 11 1.0625V16.1875C11 16.3698 11.0724 16.5447 11.2014 16.6736C11.3303 16.8026 11.5052 16.875 11.6875 16.875H32.3125C32.4948 16.875 32.6697 16.8026 32.7986 16.6736C32.9276 16.5447 33 16.3698 33 16.1875V1.0625C33 0.880164 32.9276 0.705295 32.7986 0.576364C32.6697 0.447433 32.4948 0.375 32.3125 0.375ZM31.625 15.5H12.375V1.75H31.625V15.5Z" fill="#3CB7C6"/>
<path d="M30.25 2.4375H13.75C13.5677 2.4375 13.3928 2.50993 13.2639 2.63886C13.1349 2.7678 13.0625 2.94266 13.0625 3.125V14.125C13.0625 14.3073 13.1349 14.4822 13.2639 14.6111C13.3928 14.7401 13.5677 14.8125 13.75 14.8125H30.25C30.4323 14.8125 30.6072 14.7401 30.7361 14.6111C30.8651 14.4822 30.9375 14.3073 30.9375 14.125V3.125C30.9375 2.94266 30.8651 2.7678 30.7361 2.63886C30.6072 2.50993 30.4323 2.4375 30.25 2.4375ZM16.5928 13.4375L18.5625 11.0742L20.5322 13.4375H16.5928ZM22.3223 13.4375L20.8897 11.7188L23.6904 8.35773L27.5 13.4375H22.3223ZM29.5625 13.4375H29.2188L24.2687 6.8375C24.2065 6.75444 24.1262 6.68655 24.034 6.63893C23.9417 6.59132 23.8399 6.56521 23.7362 6.56256C23.6324 6.55991 23.5294 6.5808 23.4348 6.62366C23.3403 6.66651 23.2566 6.73022 23.1902 6.81L19.9951 10.6445L19.091 9.56C19.0264 9.48253 18.9456 9.4202 18.8543 9.37743C18.763 9.33465 18.6634 9.31248 18.5625 9.31248C18.4616 9.31248 18.362 9.33465 18.2707 9.37743C18.1794 9.4202 18.0986 9.48253 18.034 9.56L14.8027 13.4375H14.4375V3.8125H29.5625V13.4375Z" fill="#3CB7C6"/>
<path d="M18.5625 8.62499C18.9704 8.62499 19.3692 8.50403 19.7084 8.2774C20.0475 8.05077 20.3119 7.72865 20.468 7.35178C20.6241 6.97491 20.6649 6.56021 20.5854 6.16012C20.5058 5.76004 20.3093 5.39254 20.0209 5.10409C19.7325 4.81565 19.365 4.61921 18.9649 4.53963C18.5648 4.46005 18.1501 4.50089 17.7732 4.657C17.3963 4.8131 17.0742 5.07746 16.8476 5.41664C16.621 5.75581 16.5 6.15457 16.5 6.5625C16.5006 7.10932 16.7181 7.63356 17.1048 8.02022C17.4914 8.40688 18.0157 8.62438 18.5625 8.62499ZM18.5625 5.875C18.6985 5.875 18.8314 5.91532 18.9445 5.99086C19.0575 6.06641 19.1456 6.17378 19.1977 6.2994C19.2497 6.42503 19.2633 6.56326 19.2368 6.69662C19.2103 6.82998 19.1448 6.95248 19.0486 7.04863C18.9525 7.14478 18.83 7.21026 18.6966 7.23679C18.5633 7.26331 18.425 7.2497 18.2994 7.19766C18.1738 7.14563 18.0664 7.05751 17.9909 6.94445C17.9153 6.83139 17.875 6.69847 17.875 6.5625C17.8752 6.38022 17.9477 6.20548 18.0766 6.07659C18.2055 5.9477 18.3802 5.8752 18.5625 5.875Z" fill="#3CB7C6"/>
</svg>
