<svg width="96" height="96" viewBox="0 0 96 96" fill="none" xmlns="http://www.w3.org/2000/svg">
<path d="M93.913 0H2.08702C0.935021 0 0 0.935021 0 2.08702V93.913C0 95.065 0.935021 96 2.08702 96H18.7826C19.9346 96 20.8696 95.065 20.8696 93.913V91.826H75.1304V93.913C75.1304 95.065 76.0654 96 77.2174 96H93.913C95.065 96 96 95.065 96 93.913V2.08702C96 0.935021 95.065 0 93.913 0ZM91.826 91.826H79.3042V89.7389C79.3042 88.5869 78.3692 87.6519 77.2172 87.6519H18.7826C17.6306 87.6519 16.6956 88.5869 16.6956 89.7389V91.826H4.17384V4.17384H91.826V91.826V91.826Z" fill="#3CB7C6"/>
<path d="M77.2191 20.8694H18.7843C17.6323 20.8694 16.6973 21.8044 16.6973 22.9564V89.7389C16.6973 90.8909 17.6323 91.8259 18.7843 91.8259H77.2191C78.3711 91.8259 79.3061 90.8909 79.3061 89.7389V22.9562C79.3059 21.8042 78.3711 20.8694 77.2191 20.8694ZM75.1321 87.6519H20.8713V25.0432H75.1321V87.6519Z" fill="#3CB7C6"/>
<path d="M47.9991 20.8694C46.8471 20.8694 45.9121 21.8044 45.9121 22.9564V89.7389C45.9121 90.8909 46.8471 91.8259 47.9991 91.8259C49.1511 91.8259 50.0861 90.8909 50.0861 89.7389V22.9562C50.0861 21.8042 49.1511 20.8694 47.9991 20.8694Z" fill="#3CB7C6"/>
<path d="M85.5655 45.9127C86.7182 45.9127 87.6526 44.9783 87.6526 43.8257C87.6526 42.673 86.7182 41.7386 85.5655 41.7386C84.4129 41.7386 83.4785 42.673 83.4785 43.8257C83.4785 44.9783 84.4129 45.9127 85.5655 45.9127Z" fill="#3CB7C6"/>
<path d="M85.5655 54.2614C86.7182 54.2614 87.6526 53.327 87.6526 52.1744C87.6526 51.0218 86.7182 50.0874 85.5655 50.0874C84.4129 50.0874 83.4785 51.0218 83.4785 52.1744C83.4785 53.327 84.4129 54.2614 85.5655 54.2614Z" fill="#3CB7C6"/>
<path d="M41.1298 13.136L36.956 8.96212C36.1421 8.14821 34.8189 8.14821 34.005 8.96212L29.8311 13.136C29.0172 13.9499 29.0172 15.2731 29.8311 16.087C30.645 16.9009 31.9682 16.9009 32.7822 16.087L35.4784 13.3864L38.1747 16.087C38.5838 16.4918 39.118 16.6964 39.6523 16.6964C40.1866 16.6964 40.7207 16.492 41.1298 16.087C41.9438 15.2731 41.9438 13.9499 41.1298 13.136Z" fill="#3CB7C6"/>
<path d="M66.1711 8.96212C65.3572 8.14821 64.034 8.14821 63.22 8.96212L60.5238 11.6584L57.8232 8.96212C57.0093 8.14821 55.6861 8.14821 54.8722 8.96212C54.0582 9.77603 54.0582 11.0992 54.8722 11.9131L59.046 16.087C59.4551 16.4918 59.9892 16.6964 60.5236 16.6964C61.0579 16.6964 61.592 16.492 61.997 16.087L66.1709 11.9131C66.985 11.099 66.985 9.77603 66.1711 8.96212Z" fill="#3CB7C6"/>
</svg>
