<svg width="96" height="96" viewBox="0 0 96 96" fill="none" xmlns="http://www.w3.org/2000/svg">
<path d="M81.0482 0H14.9518C6.70744 0 0 6.70725 0 14.9518V81.0482C0 89.2927 6.70744 96 14.9518 96H81.048C89.2926 96 96 89.2927 96 81.0482V14.9518C96 6.70725 89.2926 0 81.0482 0ZM93.1875 81.0482C93.1875 87.7419 87.7417 93.1875 81.0482 93.1875H14.9518C8.25825 93.1875 2.8125 87.7419 2.8125 81.0482V14.9518C2.8125 8.25806 8.25825 2.8125 14.9518 2.8125H81.048C87.7418 2.8125 93.1875 8.25806 93.1875 14.9518V81.0482Z" fill="#3CB7C6"/>
<path d="M81.0473 6.67603H14.9509C10.3881 6.67603 6.67578 10.3882 6.67578 14.9512V19.2123C6.67578 19.9889 7.30541 20.6185 8.08203 20.6185C8.85866 20.6185 9.48828 19.9889 9.48828 19.2123V14.9512C9.48828 11.9392 11.9387 9.48853 14.9509 9.48853H81.0471C84.0591 9.48853 86.5097 11.939 86.5097 14.9512V81.0473C86.5097 84.0595 84.0593 86.51 81.0471 86.51H14.9509C11.9389 86.51 9.48828 84.0595 9.48828 81.0473V25.7864C9.48828 25.0098 8.85866 24.3801 8.08203 24.3801C7.30541 24.3801 6.67578 25.0098 6.67578 25.7864V81.0473C6.67578 85.6103 10.3879 89.3225 14.9509 89.3225H81.0471C85.6101 89.3225 89.3222 85.6103 89.3222 81.0473V14.9512C89.3222 10.3882 85.6103 6.67603 81.0473 6.67603V6.67603Z" fill="#3CB7C6"/>
<path d="M70.6179 46.1556C66.6871 43.3817 60.0736 42.3244 54.7771 43.5329C54.2311 42.6964 53.5349 41.9674 52.7262 41.3839C53.7806 39.2078 55.6169 37.6045 58.7937 36.0297C60.4649 35.2009 62.5451 34.1695 62.5451 31.435C62.5451 23.9667 55.028 19.3439 48.0635 19.3439C40.0784 19.3439 33.5821 24.7679 33.5821 31.435C33.5821 34.7462 35.2044 39.1611 37.715 42.6822C38.5214 43.8128 39.3783 44.8081 40.2697 45.6557C40.0951 46.2484 39.9851 46.8685 39.9519 47.5088C37.7283 47.3468 35.6324 46.345 33.0391 44.2506L33.0042 44.2225C31.5689 43.0626 29.7824 41.6187 27.2973 42.7619C20.5121 45.8819 19.4525 54.6428 22.3621 60.9704C25.4379 67.6598 32.885 72.0707 39.3972 69.0758C43.9891 66.9644 48.5148 61.1564 49.8776 55.7854C50.2841 55.6889 50.6786 55.5623 51.0588 55.4067C52.3878 57.3897 53.0041 59.7522 52.3271 64.1054C52.0406 65.9487 51.6839 68.2427 53.9184 69.8198C59.8496 74.0054 67.982 70.861 72.1469 64.9591C74.2314 62.0054 75.3399 58.3652 75.1884 54.9724C75.0222 51.2494 73.3991 48.1182 70.6179 46.1556V46.1556ZM40.0049 41.0491C37.8455 38.0206 36.3948 34.1569 36.3948 31.4348C36.3948 26.3185 41.6294 22.1562 48.0637 22.1562C55.2714 22.1562 59.7327 26.9725 59.7327 31.4348C59.7327 32.3082 59.2927 32.6429 57.5446 33.5097C53.7931 35.3695 51.5186 37.4091 50.1918 40.1603C49.4984 39.9657 48.7685 39.8594 48.0136 39.8594C45.4096 39.8594 43.0908 41.0999 41.6137 43.0199C41.0617 42.4334 40.5234 41.776 40.0049 41.0491ZM38.2224 66.5204C33.1696 68.8444 27.3305 65.0431 24.9176 59.7951C21.9063 53.2465 24.4182 47.1811 28.4726 45.3167C29.2666 44.9519 29.7472 45.2061 31.2367 46.4097L31.2719 46.438C34.5221 49.063 37.2929 50.2714 40.3087 50.3429C41.2302 53.2816 43.7906 55.5004 46.9137 55.9279C45.4302 60.5605 41.4012 65.0586 38.2224 66.5204ZM48.0136 53.1925C45.113 53.1925 42.7533 50.8328 42.7533 47.9322C42.7533 45.0316 45.113 42.6719 48.0136 42.6719C50.9141 42.6719 53.2739 45.0316 53.2739 47.9322C53.2739 50.8613 50.8794 53.1925 48.0136 53.1925ZM69.8493 63.3372C66.5354 68.0331 60.1083 70.7455 55.5404 67.5216C54.8266 67.018 54.8069 66.4656 55.1067 64.5372C55.8131 59.9944 55.3304 56.8024 53.435 53.9087C55.5811 51.9602 56.5278 49.0285 55.8916 46.1749C60.2949 45.3362 65.8854 46.2584 68.9964 48.4536C71.051 49.9036 72.2523 52.2632 72.3791 55.0977C72.5032 57.8798 71.5812 60.883 69.8493 63.3372V63.3372Z" fill="#3CB7C6"/>
<path d="M72.6855 79.4062C72.6855 82.4561 75.1667 84.9375 78.2168 84.9375C81.2669 84.9375 83.748 82.4561 83.748 79.4062C83.748 76.3564 81.2669 73.875 78.2168 73.875C75.1667 73.875 72.6855 76.3564 72.6855 79.4062ZM80.9355 79.4062C80.9355 80.9053 79.7159 82.125 78.2168 82.125C76.7177 82.125 75.498 80.9053 75.498 79.4062C75.498 77.9072 76.7177 76.6875 78.2168 76.6875C79.7159 76.6875 80.9355 77.9072 80.9355 79.4062Z" fill="#3CB7C6"/>
<path d="M73.0041 26.4867C72.3991 26.9738 72.3036 27.859 72.7906 28.4639C77.3791 34.1637 79.8044 41.0524 79.8044 48.3854C79.8044 65.9157 65.5426 80.1777 48.0121 80.1777C40.6793 80.1777 33.7906 77.7522 28.0908 73.1637C27.4861 72.6767 26.6007 72.7724 26.1136 73.3772C25.6266 73.9823 25.7223 74.8675 26.3271 75.3544C32.4436 80.2784 40.1448 82.9902 48.0121 82.9902C67.0932 82.9902 82.6169 67.4665 82.6169 48.3854C82.6169 40.5179 79.9051 32.8167 74.9811 26.7002C74.4944 26.0952 73.6092 25.9997 73.0041 26.4867V26.4867Z" fill="#3CB7C6"/>
<path d="M70.1794 21.813C63.9771 16.6337 56.1041 13.7812 48.0111 13.7812C28.9299 13.7812 13.4062 29.3049 13.4062 48.3863C13.4062 56.4795 16.2587 64.3523 21.438 70.5544C21.7161 70.8874 22.1156 71.0591 22.5182 71.0591C22.836 71.0591 23.1557 70.9519 23.4189 70.7323C24.015 70.2345 24.0947 69.3476 23.5969 68.7516C18.8391 63.0542 16.2188 55.8218 16.2188 48.3863C16.2188 30.8558 30.4807 16.5938 48.0111 16.5938C55.4466 16.5938 62.6792 19.2141 68.3766 23.9719C68.9728 24.4699 69.8595 24.3898 70.3573 23.7939C70.8551 23.1977 70.7753 22.311 70.1794 21.813Z" fill="#3CB7C6"/>
</svg>
