<svg width="96" height="96" viewBox="0 0 96 96" fill="none" xmlns="http://www.w3.org/2000/svg">
<g clip-path="url(#clip0)">
<path d="M94.8897 61.1798L94.41 59.6974L85.2561 57.4049C85.3125 56.5744 85.3382 55.7409 85.3382 54.8993C85.3382 44.2265 80.754 34.0436 72.7618 26.9611L69.0323 31.1688C75.8226 37.1849 79.7154 45.8349 79.7154 54.8993C79.7154 55.2721 79.7103 55.6435 79.6949 56.0126L73.7513 54.5243C73.667 48.6898 71.5906 43.0238 67.878 38.5253L63.5406 42.1054C66.1194 45.2277 67.6883 49.0773 68.0523 53.0976L61.9944 51.5814C61.3404 48.8187 59.8836 46.3615 57.8855 44.4704L67.0957 12.3397L66.0542 11.1832C61.5894 6.2218 55.0145 3.37488 48.0176 3.37488C41.0208 3.37488 34.448 6.2218 29.9832 11.1832L28.941 12.3397L31.5374 21.3998C29.4998 22.4061 27.5428 23.6058 25.6875 24.9945C19.418 29.682 14.691 36.3624 12.3765 43.8017L17.7459 45.4716C20.3006 37.2545 25.9102 30.7001 33.1099 26.8856L34.8077 32.8124C32.5957 34.1359 30.5721 35.7941 28.8216 37.7533L33.014 41.4996C34.0408 40.3505 35.1885 39.3331 36.427 38.463L38.1497 44.4726C36.1626 46.3541 34.7103 48.796 34.0525 51.5419L27.9888 53.0434C28.1968 50.7216 28.8025 48.4833 29.7979 46.3651L24.7068 43.976C23.1592 47.2741 22.344 50.7977 22.284 54.4547L1.61431 59.5714L1.13018 61.0524C-0.946239 67.3966 -0.136181 74.5136 3.35161 80.5802C6.8394 86.6454 12.5823 90.9264 19.1089 92.3246L20.6324 92.6505L27.2022 85.8756C33.3216 89.9911 40.5579 92.2177 48.0176 92.2177C50.5928 92.2177 53.1644 91.9555 55.6626 91.4347L54.5157 85.9298C52.3938 86.3722 50.209 86.5949 48.0176 86.5949C41.8887 86.5949 36.1062 84.8261 31.2034 81.7462L35.4581 77.3583C39.1751 79.4464 43.4598 80.6366 48.0176 80.6366V75.0138C44.9927 75.0138 42.1231 74.3429 39.5479 73.1396L43.8926 68.6564C45.1985 69.0497 46.5835 69.2614 48.0176 69.2614C49.4385 69.2614 50.8104 69.0556 52.1075 68.6674L75.3018 92.7238L76.8252 92.4015C83.3555 91.0224 89.1116 86.756 92.6148 80.7003C96.1194 74.6447 96.9478 67.5299 94.8897 61.1798V61.1798ZM57.2469 65.8952C59.7715 63.7741 61.5594 60.8012 62.1607 57.4196L89.9436 64.3754C90.9573 68.8285 90.1853 73.672 87.7486 77.8849C85.3103 82.0971 81.4981 85.1798 77.1307 86.5202L57.2469 65.8952ZM35.2259 13.8639C38.573 10.7562 43.1521 8.99768 48.0176 8.99768C52.8853 8.99768 57.4644 10.7562 60.8094 13.8639L52.919 41.3971C51.3897 40.8383 49.7381 40.5343 48.0176 40.5343C46.2972 40.5343 44.6456 40.8383 43.1163 41.3971L35.2259 13.8639ZM18.8204 86.4411C14.4566 85.0898 10.6517 81.9953 8.22661 77.7765C5.80156 73.5578 5.04058 68.7128 6.06743 64.2626L33.8709 57.3808C34.4627 60.7653 36.2417 63.744 38.7627 65.871L18.8204 86.4411ZM39.2776 54.8993C39.2776 50.0785 43.199 46.1571 48.0176 46.1571C52.8384 46.1571 56.7591 50.0785 56.7591 54.8993C56.7591 59.7179 52.8384 63.6386 48.0176 63.6386C43.199 63.6393 39.2776 59.7179 39.2776 54.8993V54.8993Z" fill="#3CB7C6"/>
</g>
<defs>
<clipPath id="clip0">
<rect width="96" height="96" fill="white"/>
</clipPath>
</defs>
</svg>
