<svg width="48" height="48" viewBox="0 0 48 48" fill="none" xmlns="http://www.w3.org/2000/svg">
<path d="M30.9536 20.8502L24.2625 17.3053C24.1675 17.2546 24.0615 17.228 23.9539 17.228C23.8462 17.228 23.7402 17.2546 23.6453 17.3053L17.0434 20.8502C16.9645 20.8891 16.8942 20.9436 16.8368 21.0102C16.7794 21.0769 16.7359 21.1544 16.7091 21.2382C16.6822 21.322 16.6725 21.4103 16.6804 21.4979C16.6884 21.5856 16.7139 21.6707 16.7554 21.7483C16.797 21.8259 16.8537 21.8943 16.9222 21.9495C16.9907 22.0047 17.0696 22.0456 17.1542 22.0697C17.2388 22.0938 17.3274 22.1006 17.4148 22.0898C17.5021 22.079 17.5863 22.0507 17.6625 22.0067L18.138 21.7502V28.9085C18.138 29.0826 18.2071 29.2495 18.3302 29.3726C18.4533 29.4956 18.6202 29.5648 18.7942 29.5648H22.218C22.3042 29.5649 22.3897 29.548 22.4694 29.515C22.5491 29.4821 22.6215 29.4338 22.6825 29.3728C22.7435 29.3119 22.7919 29.2395 22.825 29.1598C22.858 29.0802 22.875 28.9948 22.875 28.9085V25.871H25.1198V28.9085C25.1198 29.0826 25.1889 29.2495 25.312 29.3726C25.435 29.4956 25.602 29.5648 25.776 29.5648H29.1998C29.3738 29.5648 29.5407 29.4956 29.6638 29.3726C29.7869 29.2495 29.856 29.0826 29.856 28.9085V21.7535L30.3398 22.0097C30.4929 22.0853 30.6696 22.0982 30.8321 22.0457C30.9947 21.9931 31.1304 21.8793 31.2103 21.7283C31.2902 21.5773 31.3081 21.4011 31.2602 21.2371C31.2123 21.0731 31.1023 20.9343 30.9536 20.8502ZM28.5428 28.2523H26.4315V25.2148C26.4315 25.0407 26.3624 24.8738 26.2393 24.7507C26.1162 24.6277 25.9493 24.5585 25.7753 24.5585H22.218C22.044 24.5585 21.877 24.6277 21.754 24.7507C21.6309 24.8738 21.5617 25.0407 21.5617 25.2148V28.2523H19.4505V21.0478L23.958 18.629L28.5431 21.0583L28.5428 28.2523Z" fill="#3CB7C6"/>
<path d="M39.6782 24.1194L38.5247 11.4219C38.4757 10.8616 38.284 10.3231 37.968 9.85781C37.652 9.39249 37.2222 9.01578 36.7195 8.76354C36.2165 8.51481 35.6594 8.39565 35.0987 8.41687C34.538 8.43809 33.9915 8.59901 33.5087 8.88504C32.7643 9.32658 31.9134 9.55635 31.048 9.54954C29.2435 9.54954 27.6422 8.60791 27.064 7.20616C26.8136 6.59942 26.3887 6.08066 25.8432 5.71564C25.2976 5.35062 24.656 5.15576 23.9997 5.15576C23.3433 5.15576 22.7017 5.35062 22.1561 5.71564C21.6106 6.08066 21.1857 6.59942 20.9353 7.20616C20.3575 8.60754 18.7562 9.54916 16.9517 9.54916C16.0864 9.55602 15.2356 9.32625 14.4913 8.88466C14.0085 8.59864 13.4618 8.43771 12.901 8.4165C12.3402 8.39528 11.7829 8.51444 11.2798 8.76316C10.7772 9.01548 10.3475 9.39222 10.0316 9.85754C9.71563 10.3228 9.52403 10.8613 9.47497 11.4215L8.32072 24.1194C8.06332 27.0139 8.63792 29.9217 9.97694 32.5008C11.316 35.0798 13.3637 37.2228 15.8792 38.6777L22.345 42.4014C22.8481 42.691 23.4185 42.8434 23.9991 42.8434C24.5797 42.8434 25.15 42.691 25.6532 42.4014L32.119 38.6777C34.6346 37.2229 36.6825 35.08 38.0217 32.5009C39.3608 29.9219 39.9355 27.014 39.6782 24.1194ZM31.4657 37.5403L25 41.264C24.6949 41.4358 24.3507 41.526 24.0006 41.526C23.6505 41.526 23.3063 41.4358 23.0012 41.264L16.5355 37.5403C14.2368 36.2111 12.3656 34.2531 11.142 31.8966C9.91837 29.5401 9.39322 26.8831 9.62834 24.2383L10.7818 11.5408C10.8126 11.2027 10.9288 10.8779 11.1195 10.597C11.3103 10.3161 11.5693 10.0884 11.8723 9.9351C12.1753 9.78185 12.5122 9.70815 12.8515 9.72093C13.1908 9.73371 13.5213 9.83255 13.8118 10.0082C14.7609 10.5738 15.8465 10.8692 16.9513 10.8624C19.2816 10.8624 21.37 9.59454 22.1481 7.70754C22.2994 7.34106 22.556 7.02774 22.8856 6.80727C23.2151 6.5868 23.6026 6.46911 23.9991 6.46911C24.3956 6.46911 24.7831 6.5868 25.1126 6.80727C25.4422 7.02774 25.6988 7.34106 25.8501 7.70754C26.6286 9.59491 28.7173 10.8628 31.0472 10.8628C32.152 10.8696 33.2377 10.5742 34.1867 10.0085C34.4783 9.83567 34.8084 9.73828 35.1472 9.72518C35.4859 9.71209 35.8225 9.7837 36.1266 9.93354C36.4302 10.0859 36.6898 10.3135 36.8806 10.5946C37.0714 10.8756 37.1871 11.2009 37.2167 11.5393L38.3702 24.2368C38.6058 26.8817 38.081 29.5389 36.8576 31.8957C35.6343 34.2525 33.7632 36.2108 31.4646 37.5403H31.4657Z" fill="#3CB7C6"/>
<path d="M35.8767 11.6625C35.8666 11.5517 35.8285 11.4453 35.766 11.3533C35.7035 11.2612 35.6186 11.1866 35.5193 11.1364C35.42 11.0862 35.3096 11.0621 35.1984 11.0663C35.0872 11.0705 34.979 11.1029 34.8837 11.1604C33.7248 11.8536 32.3983 12.2167 31.0479 12.2104C28.1791 12.2104 25.5905 10.608 24.6065 8.22265C24.5569 8.10258 24.4728 7.99992 24.3648 7.92769C24.2568 7.85545 24.1298 7.81689 23.9999 7.81689C23.87 7.81689 23.743 7.85545 23.635 7.92769C23.5271 7.99992 23.4429 8.10258 23.3934 8.22265C22.409 10.608 19.8204 12.2108 16.9516 12.2108C15.6012 12.2171 14.2747 11.854 13.1157 11.1608C13.0205 11.1031 12.9122 11.0705 12.8009 11.0662C12.6897 11.0619 12.5791 11.086 12.4798 11.1362C12.3804 11.1863 12.2954 11.261 12.2328 11.3531C12.1702 11.4451 12.1321 11.5516 12.122 11.6625L10.9685 24.3604C10.756 26.7492 11.2301 29.149 12.3352 31.2774C13.4402 33.4059 15.1302 35.1744 17.2062 36.375L23.672 40.0984C23.7716 40.1557 23.8845 40.1859 23.9994 40.1859C24.1143 40.1859 24.2271 40.1557 24.3267 40.0984L30.7925 36.375C32.8685 35.1744 34.5585 33.4059 35.6635 31.2774C36.7686 29.149 37.2427 26.7492 37.0302 24.3604L35.8767 11.6625ZM30.1392 35.2369L23.9994 38.7717L17.861 35.2369C16.0021 34.1619 14.4889 32.5783 13.4994 30.6725C12.51 28.7666 12.0854 26.6178 12.2757 24.4789L13.3404 12.7575C14.4765 13.2644 15.7072 13.5247 16.9512 13.5214C18.3355 13.5399 19.703 13.2165 20.9324 12.58C22.1619 11.9436 23.2153 11.0136 23.9994 9.87265C24.7834 11.0136 25.8369 11.9435 27.0663 12.5799C28.2957 13.2163 29.6632 13.5396 31.0475 13.521C32.2916 13.5243 33.5222 13.264 34.6584 12.7572L35.723 24.4789C35.9133 26.6178 35.4888 28.7666 34.4993 30.6725C33.5098 32.5783 31.9966 34.1619 30.1377 35.2369H30.1392Z" fill="#3CB7C6"/>
</svg>
