<svg width="44" height="44" viewBox="0 0 44 44" fill="none" xmlns="http://www.w3.org/2000/svg">
<g clip-path="url(#clip0)">
<path d="M29.6797 39.8324H30.9688V36.0502H42.7125V39.8324H44.0016V28.9604H29.6797V39.8324ZM42.7125 30.2495V34.7612H30.9688V30.2495H42.7125Z" fill="#3CB7C6"/>
<path d="M41.4219 12.0596C40.0003 12.0596 38.8438 13.2161 38.8438 14.6377V16.7135H40.1328V14.6378C40.1328 13.927 40.7111 13.3487 41.4219 13.3487H42.7109V27.6706H44V12.0596H41.4219Z" fill="#3CB7C6"/>
<path d="M29.6797 27.6713H30.9688C30.9688 26.9605 31.547 26.3822 32.2578 26.3822H41.4235V25.0932H40.1344V18.0034H38.8454V25.0932H32.2578C30.8362 25.0931 29.6797 26.2496 29.6797 27.6713Z" fill="#3CB7C6"/>
<path d="M1.28906 13.3495H2.57812C3.28891 13.3495 3.86719 13.9278 3.86719 14.6386V16.7144H5.15625V14.6387C5.15625 13.2171 3.9997 12.0605 2.57812 12.0605H0V27.6715H1.28906V13.3495Z" fill="#3CB7C6"/>
<path d="M11.7438 25.0942H5.15625V18.0044H3.86719V25.0942H2.57812V26.3832H11.7438C12.4546 26.3832 13.0329 26.9615 13.0329 27.6723H14.3219C14.3219 26.2507 13.1654 25.0942 11.7438 25.0942Z" fill="#3CB7C6"/>
<path d="M0 39.8324H1.28906V36.0502H13.0329V39.8324H14.3219V28.9604H0V39.8324ZM13.0329 30.2495V34.7612H1.28906V30.2495H13.0329Z" fill="#3CB7C6"/>
<path d="M24.5772 37.2552V23.1606C24.5772 22.4499 25.1555 21.8716 25.8663 21.8716H36.2647V16.7153H22.6436V18.0044H34.9757V20.5825H9.02246V18.0044H21.3546V16.7153H7.7334V21.8716H18.1319C18.8427 21.8716 19.421 22.4499 19.421 23.1606V37.2552C19.421 37.966 18.8427 38.5442 18.1319 38.5442H15.5538V39.8333H18.1319H25.8663H28.4444V38.5442H25.8663C25.1555 38.5442 24.5772 37.966 24.5772 37.2552ZM20.3632 21.8716H23.635C23.4149 22.2511 23.2882 22.6913 23.2882 23.1606V37.2552C23.2882 37.7246 23.4149 38.1647 23.635 38.5442H20.3632C20.5833 38.1647 20.71 37.7246 20.71 37.2552V23.1606C20.71 22.6913 20.5833 22.2511 20.3632 21.8716Z" fill="#3CB7C6"/>
<path d="M31.9237 14.1362H29.9644C29.6519 10.2185 26.5173 7.08386 22.5996 6.77147V5.45654H23.8887V4.16748H20.0215V5.45654H21.3105V6.77156C19.2502 6.93776 17.3198 7.89554 15.9376 9.4565L16.9027 10.311C18.1836 8.86431 20.0251 8.03458 21.955 8.03458C25.4574 8.03458 28.3439 10.7176 28.6695 14.1361H15.2403C15.3377 13.1155 15.665 12.1304 16.2024 11.2556L15.1041 10.5808C14.4419 11.6587 14.0475 12.8766 13.9467 14.1361H11.9863V15.4252H31.9237V14.1362Z" fill="#3CB7C6"/>
<path d="M26.5636 11.8575C25.6956 10.4916 24.2812 9.58577 22.6832 9.37256L22.5127 10.6503C23.7324 10.813 24.8125 11.505 25.4757 12.5489L26.5636 11.8575Z" fill="#3CB7C6"/>
<path d="M21.2277 9.37256C20.7018 9.44277 20.1905 9.58904 19.708 9.80732L20.2394 10.9817C20.6072 10.8154 20.9971 10.7038 21.3982 10.6503L21.2277 9.37256Z" fill="#3CB7C6"/>
</g>
<defs>
<clipPath id="clip0">
<rect width="44" height="44" fill="white"/>
</clipPath>
</defs>
</svg>
