<svg width="96" height="96" viewBox="0 0 96 96" fill="none" xmlns="http://www.w3.org/2000/svg">
<path d="M46.5879 0H49.4101V12.8187H46.5879V0Z" fill="#3CB7C6"/>
<path d="M59.793 15.16L65.4204 3.64881L67.9548 4.88779L62.3274 16.399L59.793 15.16Z" fill="#3CB7C6"/>
<path d="M69.9746 22.7092L80.0886 14.8385L81.8216 17.0654L71.7076 24.9361L69.9746 22.7092Z" fill="#3CB7C6"/>
<path d="M75.8359 33.9801L88.3855 31.3522L88.9641 34.1153L76.4145 36.7431L75.8359 33.9801Z" fill="#3CB7C6"/>
<path d="M28.0059 4.87537L30.5403 3.63639L36.1677 15.1476L33.6333 16.3866L28.0059 4.87537Z" fill="#3CB7C6"/>
<path d="M14.1484 17.0718L15.8814 14.8449L25.9954 22.7156L24.2624 24.9425L14.1484 17.0718Z" fill="#3CB7C6"/>
<path d="M7.06445 34.1152L7.64302 31.3522L20.1926 33.9801L19.614 36.7431L7.06445 34.1152Z" fill="#3CB7C6"/>
<path d="M60.0892 54.9539C63.6558 54.1449 65.8869 50.6044 65.0782 47.0374C64.7107 45.418 63.7739 44.0737 62.5278 43.1638C66.1427 40.524 66.1446 35.1181 62.5346 32.4815C64.6767 30.9251 65.6643 28.2389 65.0782 25.671C64.271 22.1134 60.7208 19.8758 57.1621 20.6822L41.444 24.2476L42.0682 27.0001L57.7864 23.4346C60.1479 22.8984 62.4207 24.6966 62.4207 27.1386C62.4207 28.8921 61.1778 30.4468 59.4651 30.835L37.8126 35.7474C35.7793 36.2099 33.7395 34.9423 33.2727 32.8847C32.8005 30.8158 34.1443 28.7981 36.1338 28.3473L39.2458 27.6417L38.6219 24.8892L35.5099 25.5948C32.4753 26.2825 30.356 28.9345 30.356 32.0435C30.356 34.0964 31.3067 36.1019 33.0682 37.3864C29.4047 40.0649 29.5014 45.4685 33.0686 48.0695C30.7129 49.7916 29.6928 52.9279 30.8044 55.8051H30.0625V71.7624H32.777V91.5011L38.6768 95.9995H56.922L62.8219 91.5011V71.7624H65.5363V65.194H62.7141V68.9394H32.8848V58.6276H62.7141V62.3718H65.5363V55.8053H56.3369L60.0892 54.9539ZM36.1339 39.0297L57.7856 34.1177C59.8171 33.6561 61.8608 34.9299 62.3253 36.9785C62.7893 39.0231 61.5103 41.0544 59.4647 41.5184L37.813 46.4303C35.7691 46.8943 33.7375 45.6158 33.2733 43.5694C32.8093 41.5246 34.0884 39.4937 36.1339 39.0297ZM35.5992 78.8088H59.9998V83.2219H35.5992V78.8088ZM55.9687 93.1774H39.63L35.599 90.1041V86.0444H59.9996V90.1041L55.9687 93.1774ZM59.9996 75.9866H35.5992V71.7624H59.9998V75.9866H59.9996ZM34.0268 55.8053C32.2496 53.621 33.4011 50.3329 36.1339 49.7131L57.7856 44.8011C59.8293 44.3365 61.8615 45.6162 62.3255 47.6619C62.7895 49.7073 61.5099 51.7377 59.4647 52.2016L43.5808 55.8053H34.0268Z" fill="#3CB7C6"/>
<path d="M58.4789 65.1951H48.4062V62.3728H58.4789V65.1951ZM45.584 65.1951H42.7617V62.3728H45.584V65.1951ZM39.9395 65.1951H37.1172V62.3728H39.9395V65.1951Z" fill="#3CB7C6"/>
</svg>
