<svg width="44" height="44" viewBox="0 0 44 44" fill="none" xmlns="http://www.w3.org/2000/svg">
<path d="M40.2188 7.5625H3.78125C3.1433 7.56323 2.53168 7.81698 2.08058 8.26808C1.62948 8.71918 1.37573 9.3308 1.375 9.96875V32.6562C1.37573 33.2942 1.62948 33.9058 2.08058 34.3569C2.53168 34.808 3.1433 35.0618 3.78125 35.0625H4.125V37.125C4.125 37.3073 4.19743 37.4822 4.32636 37.6111C4.4553 37.7401 4.63016 37.8125 4.8125 37.8125H8.9375C9.11984 37.8125 9.2947 37.7401 9.42364 37.6111C9.55257 37.4822 9.625 37.3073 9.625 37.125V35.0625H34.375V37.125C34.375 37.3073 34.4474 37.4822 34.5764 37.6111C34.7053 37.7401 34.8802 37.8125 35.0625 37.8125H39.1875C39.3698 37.8125 39.5447 37.7401 39.6736 37.6111C39.8026 37.4822 39.875 37.3073 39.875 37.125V35.0625H40.2188C40.8567 35.0618 41.4683 34.808 41.9194 34.3569C42.3705 33.9058 42.6243 33.2942 42.625 32.6562V9.96875C42.6243 9.3308 42.3705 8.71918 41.9194 8.26808C41.4683 7.81698 40.8567 7.56323 40.2188 7.5625ZM8.25 36.4375H5.5V35.0625H8.25V36.4375ZM38.5 36.4375H35.75V35.0625H38.5V36.4375ZM41.25 32.6562C41.2497 32.9297 41.141 33.1918 40.9476 33.3851C40.7543 33.5785 40.4922 33.6872 40.2188 33.6875H3.78125C3.50784 33.6872 3.24571 33.5785 3.05237 33.3851C2.85904 33.1918 2.7503 32.9297 2.75 32.6562V9.96875C2.7503 9.69534 2.85904 9.43321 3.05237 9.23987C3.24571 9.04654 3.50784 8.9378 3.78125 8.9375H40.2188C40.4922 8.9378 40.7543 9.04654 40.9476 9.23987C41.141 9.43321 41.2497 9.69534 41.25 9.96875V32.6562Z" fill="#3CB7C6"/>
<path d="M29.5625 10.3125H4.8125C4.63016 10.3125 4.4553 10.3849 4.32636 10.5139C4.19743 10.6428 4.125 10.8177 4.125 11V31.625C4.125 31.8073 4.19743 31.9822 4.32636 32.1111C4.4553 32.2401 4.63016 32.3125 4.8125 32.3125H29.5625C29.7448 32.3125 29.9197 32.2401 30.0486 32.1111C30.1776 31.9822 30.25 31.8073 30.25 31.625V11C30.25 10.8177 30.1776 10.6428 30.0486 10.5139C29.9197 10.3849 29.7448 10.3125 29.5625 10.3125ZM28.875 30.9375H5.5V11.6875H28.875V30.9375Z" fill="#3CB7C6"/>
<path d="M39.1875 11.5156H32.3125C32.1302 11.5156 31.9553 11.5881 31.8264 11.717C31.6974 11.8459 31.625 12.0208 31.625 12.2031V16.3281C31.625 16.5105 31.6974 16.6853 31.8264 16.8143C31.9553 16.9432 32.1302 17.0156 32.3125 17.0156H39.1875C39.3698 17.0156 39.5447 16.9432 39.6736 16.8143C39.8026 16.6853 39.875 16.5105 39.875 16.3281V12.2031C39.875 12.0208 39.8026 11.8459 39.6736 11.717C39.5447 11.5881 39.3698 11.5156 39.1875 11.5156ZM38.5 15.6406H33V12.8906H38.5V15.6406Z" fill="#3CB7C6"/>
<path d="M33 25.2656C33.3797 25.2656 33.6875 24.9578 33.6875 24.5781C33.6875 24.1984 33.3797 23.8906 33 23.8906C32.6203 23.8906 32.3125 24.1984 32.3125 24.5781C32.3125 24.9578 32.6203 25.2656 33 25.2656Z" fill="#3CB7C6"/>
<path d="M33 22.5156C33.3797 22.5156 33.6875 22.2078 33.6875 21.8281C33.6875 21.4484 33.3797 21.1406 33 21.1406C32.6203 21.1406 32.3125 21.4484 32.3125 21.8281C32.3125 22.2078 32.6203 22.5156 33 22.5156Z" fill="#3CB7C6"/>
<path d="M33 19.7656C33.3797 19.7656 33.6875 19.4578 33.6875 19.0781C33.6875 18.6984 33.3797 18.3906 33 18.3906C32.6203 18.3906 32.3125 18.6984 32.3125 19.0781C32.3125 19.4578 32.6203 19.7656 33 19.7656Z" fill="#3CB7C6"/>
<path d="M35.75 25.2656C36.1297 25.2656 36.4375 24.9578 36.4375 24.5781C36.4375 24.1984 36.1297 23.8906 35.75 23.8906C35.3703 23.8906 35.0625 24.1984 35.0625 24.5781C35.0625 24.9578 35.3703 25.2656 35.75 25.2656Z" fill="#3CB7C6"/>
<path d="M35.75 22.5156C36.1297 22.5156 36.4375 22.2078 36.4375 21.8281C36.4375 21.4484 36.1297 21.1406 35.75 21.1406C35.3703 21.1406 35.0625 21.4484 35.0625 21.8281C35.0625 22.2078 35.3703 22.5156 35.75 22.5156Z" fill="#3CB7C6"/>
<path d="M35.75 19.7656C36.1297 19.7656 36.4375 19.4578 36.4375 19.0781C36.4375 18.6984 36.1297 18.3906 35.75 18.3906C35.3703 18.3906 35.0625 18.6984 35.0625 19.0781C35.0625 19.4578 35.3703 19.7656 35.75 19.7656Z" fill="#3CB7C6"/>
<path d="M38.5 25.2656C38.8797 25.2656 39.1875 24.9578 39.1875 24.5781C39.1875 24.1984 38.8797 23.8906 38.5 23.8906C38.1203 23.8906 37.8125 24.1984 37.8125 24.5781C37.8125 24.9578 38.1203 25.2656 38.5 25.2656Z" fill="#3CB7C6"/>
<path d="M38.5 22.5156C38.8797 22.5156 39.1875 22.2078 39.1875 21.8281C39.1875 21.4484 38.8797 21.1406 38.5 21.1406C38.1203 21.1406 37.8125 21.4484 37.8125 21.8281C37.8125 22.2078 38.1203 22.5156 38.5 22.5156Z" fill="#3CB7C6"/>
<path d="M38.5 19.7656C38.8797 19.7656 39.1875 19.4578 39.1875 19.0781C39.1875 18.6984 38.8797 18.3906 38.5 18.3906C38.1203 18.3906 37.8125 18.6984 37.8125 19.0781C37.8125 19.4578 38.1203 19.7656 38.5 19.7656Z" fill="#3CB7C6"/>
<path d="M35.75 26.6406C35.1891 26.6406 34.6408 26.8069 34.1744 27.1186C33.7081 27.4302 33.3446 27.8731 33.1299 28.3913C32.9153 28.9095 32.8591 29.4797 32.9686 30.0298C33.078 30.5799 33.3481 31.0853 33.7447 31.4819C34.1413 31.8785 34.6466 32.1486 35.1967 32.258C35.7469 32.3674 36.3171 32.3113 36.8353 32.0966C37.3535 31.882 37.7964 31.5185 38.108 31.0521C38.4196 30.5858 38.586 30.0375 38.586 29.4766C38.5851 28.7247 38.286 28.0039 37.7544 27.4722C37.2227 26.9406 36.5019 26.6415 35.75 26.6406ZM35.75 30.9375C35.4244 30.9372 35.1083 30.8282 34.8517 30.6277C34.5952 30.4272 34.413 30.1468 34.334 29.831C34.255 29.5151 34.2838 29.1819 34.4158 28.8843C34.5478 28.5867 34.7754 28.3417 35.0625 28.1882V28.7891C35.0625 28.9714 35.1349 29.1463 35.2639 29.2752C35.3928 29.4041 35.5677 29.4766 35.75 29.4766C35.9323 29.4766 36.1072 29.4041 36.2361 29.2752C36.3651 29.1463 36.4375 28.9714 36.4375 28.7891V28.1882C36.7246 28.3417 36.9523 28.5867 37.0842 28.8843C37.2162 29.1819 37.245 29.5151 37.166 29.831C37.087 30.1468 36.9048 30.4272 36.6483 30.6277C36.3917 30.8282 36.0756 30.9372 35.75 30.9375Z" fill="#3CB7C6"/>
<path d="M17.1016 25.4375C17.1016 25.6198 17.174 25.7947 17.3029 25.9236C17.4319 26.0526 17.6067 26.125 17.7891 26.125C17.9714 26.125 18.1463 26.0526 18.2752 25.9236C18.4041 25.7947 18.4766 25.6198 18.4766 25.4375C18.4766 24.3614 18.074 23.7865 17.7507 23.3245C17.4736 22.9286 17.2734 22.6426 17.2734 22C17.2734 21.3574 17.4736 21.0714 17.7507 20.6755C18.074 20.2135 18.4766 19.6386 18.4766 18.5625C18.4766 18.3802 18.4041 18.2053 18.2752 18.0764C18.1463 17.9474 17.9714 17.875 17.7891 17.875C17.6067 17.875 17.4319 17.9474 17.3029 18.0764C17.174 18.2053 17.1016 18.3802 17.1016 18.5625C17.1016 19.2051 16.9014 19.4911 16.6243 19.887C16.301 20.349 15.8984 20.9239 15.8984 22C15.8984 23.0761 16.301 23.651 16.6243 24.113C16.9014 24.5089 17.1016 24.7949 17.1016 25.4375Z" fill="#3CB7C6"/>
<path d="M21.2266 25.4375C21.2266 25.6198 21.299 25.7947 21.4279 25.9236C21.5569 26.0526 21.7317 26.125 21.9141 26.125C22.0964 26.125 22.2713 26.0526 22.4002 25.9236C22.5291 25.7947 22.6016 25.6198 22.6016 25.4375C22.6016 24.3614 22.199 23.7865 21.8757 23.3245C21.5986 22.9286 21.3984 22.6426 21.3984 22C21.3984 21.3574 21.5986 21.0714 21.8757 20.6755C22.199 20.2135 22.6016 19.6386 22.6016 18.5625C22.6016 18.3802 22.5291 18.2053 22.4002 18.0764C22.2713 17.9474 22.0964 17.875 21.9141 17.875C21.7317 17.875 21.5569 17.9474 21.4279 18.0764C21.299 18.2053 21.2266 18.3802 21.2266 18.5625C21.2266 19.2051 21.0264 19.4911 20.7493 19.887C20.426 20.349 20.0234 20.9239 20.0234 22C20.0234 23.0761 20.426 23.651 20.7493 24.113C21.0264 24.5089 21.2266 24.7949 21.2266 25.4375Z" fill="#3CB7C6"/>
<path d="M12.9766 25.4375C12.9766 25.6198 13.049 25.7947 13.1779 25.9236C13.3069 26.0526 13.4817 26.125 13.6641 26.125C13.8464 26.125 14.0213 26.0526 14.1502 25.9236C14.2791 25.7947 14.3516 25.6198 14.3516 25.4375C14.3516 24.3614 13.949 23.7865 13.6257 23.3245C13.3486 22.9286 13.1484 22.6426 13.1484 22C13.1484 21.3574 13.3486 21.0714 13.6257 20.6755C13.949 20.2135 14.3516 19.6386 14.3516 18.5625C14.3516 18.3802 14.2791 18.2053 14.1502 18.0764C14.0213 17.9474 13.8464 17.875 13.6641 17.875C13.4817 17.875 13.3069 17.9474 13.1779 18.0764C13.049 18.2053 12.9766 18.3802 12.9766 18.5625C12.9766 19.2051 12.7764 19.4911 12.4993 19.887C12.176 20.349 11.7734 20.9239 11.7734 22C11.7734 23.0761 12.176 23.651 12.4993 24.113C12.7764 24.5089 12.9766 24.7949 12.9766 25.4375Z" fill="#3CB7C6"/>
</svg>
