<svg width="48" height="48" viewBox="0 0 48 48" fill="none" xmlns="http://www.w3.org/2000/svg">
<g clip-path="url(#clip0)">
<path d="M13.3985 5.90973C16.3059 3.00266 20.1716 1.40158 24.2832 1.40158C32.7719 1.40158 39.6779 8.30755 39.6779 16.7963C39.6779 18.0857 39.5178 19.3679 39.2023 20.6072C39.1068 20.9823 39.3333 21.3638 39.7084 21.4592C39.7665 21.4739 39.8246 21.481 39.8819 21.481C40.1946 21.481 40.4797 21.27 40.5604 20.953C40.9048 19.6008 41.0795 18.2024 41.0795 16.7963C41.0795 7.53481 33.5447 0 24.2832 0C19.7972 0 15.5797 1.74675 12.4075 4.91862C12.1337 5.1923 12.1337 5.63604 12.4074 5.90963C12.6811 6.18322 13.1248 6.18341 13.3985 5.90973Z" fill="#3CB7C6"/>
<path d="M42.8015 26.005C42.7797 25.5677 42.5359 25.1857 42.1495 24.983C41.3794 24.5791 40.8234 24.0683 40.4495 23.4215C40.2318 23.0447 39.8257 22.8113 39.3886 22.8113C39.3867 22.8113 39.3848 22.8113 39.3829 22.8113C38.945 22.8132 38.5399 23.0501 38.3257 23.4291C38.3257 23.4291 38.3257 23.4291 38.3256 23.4291C37.9816 24.0378 37.4638 24.5368 36.7869 24.9127C36.4012 25.1269 36.16 25.5348 36.1572 25.9775C36.1545 26.4218 36.3918 26.8342 36.7764 27.0541C37.4198 27.4217 37.9316 27.9681 38.341 28.7243C38.5495 29.1093 38.9347 29.3505 39.3712 29.3692C39.3894 29.37 39.4075 29.3704 39.4256 29.3704C39.8386 29.3704 40.2174 29.167 40.4465 28.819C40.8575 28.1946 41.4633 27.6161 42.2467 27.0998C42.616 26.8563 42.8235 26.4471 42.8015 26.005ZM39.4368 27.8161C38.9788 27.0468 38.4032 26.4341 37.7209 25.9893C38.415 25.5595 38.9751 25.0179 39.3914 24.374C39.8432 25.0583 40.4653 25.6323 41.2464 26.0851C40.5022 26.6058 39.8953 27.1865 39.4368 27.8161Z" fill="#3CB7C6"/>
<path d="M8.41051 11.2977C8.42864 11.2984 8.44677 11.2988 8.46471 11.2988C8.8779 11.2988 9.2566 11.0954 9.48562 10.7474C9.89675 10.1229 10.5025 9.54447 11.286 9.02812C11.6553 8.78471 11.8626 8.37545 11.8407 7.9333C11.8188 7.49601 11.5751 7.11403 11.1886 6.91136C10.4185 6.50742 9.86246 5.99669 9.48871 5.34981C9.2709 4.97306 8.86481 4.73975 8.4278 4.73975C8.42584 4.73975 8.42388 4.73975 8.42191 4.73975C7.98415 4.7418 7.5791 4.97858 7.36484 5.35747C7.02061 5.96613 6.50287 6.46528 5.82609 6.84109C5.44037 7.05525 5.19912 7.46321 5.19631 7.90592C5.1936 8.35013 5.43094 8.76266 5.81553 8.98243C6.45895 9.35011 6.97072 9.89645 7.38016 10.6526C7.58863 11.0378 7.97388 11.2789 8.41051 11.2977ZM6.7601 7.9177C7.45398 7.48797 8.01405 6.9463 8.43042 6.30242C8.88219 6.98676 9.5044 7.56067 10.2855 8.01347C9.5415 8.53411 8.93461 9.11465 8.47592 9.74442C8.01798 8.97514 7.44249 8.36246 6.7601 7.9177Z" fill="#3CB7C6"/>
<path d="M24.7715 10.2205L27.2565 12.2321C27.5574 12.4756 27.9988 12.4291 28.2421 12.1283C28.4856 11.8275 28.4391 11.3863 28.1383 11.1428L25.6533 9.1312C24.887 8.51067 23.7743 8.51058 23.0077 9.1312L16.469 14.4243C16.2344 14.6143 16.0878 14.8842 16.0561 15.1844C16.0246 15.4847 16.1117 15.7792 16.3017 16.014L17.5251 17.5251C17.7151 17.7597 17.985 17.9063 18.2853 17.938C18.5047 17.9608 18.7204 17.9201 18.9122 17.8229V21.1843H18.7621C18.375 21.1843 18.0613 21.498 18.0613 21.8851C18.0613 22.2723 18.375 22.5859 18.7621 22.5859H30.0009C30.388 22.5859 30.7017 22.2723 30.7017 21.8851C30.7017 21.498 30.388 21.1843 30.0009 21.1843H29.749V17.8227C29.9057 17.902 30.078 17.9444 30.2553 17.9443C30.2953 17.9443 30.3355 17.9422 30.3758 17.938C30.6762 17.9063 30.9461 17.7597 31.136 17.5252L32.3595 16.0139C32.5494 15.7792 32.6366 15.4847 32.605 15.1844C32.5733 14.8842 32.4267 14.6143 32.1921 14.4244L30.4602 13.0223C30.1593 12.7789 29.7182 12.8253 29.4746 13.126C29.231 13.4267 29.2776 13.868 29.5783 14.1116L31.0992 15.343L30.2174 16.4323L29.4946 15.8472C29.4941 15.8467 29.4935 15.8463 29.4929 15.8458L25.0418 12.2424C24.6297 11.9089 24.0316 11.9089 23.6196 12.2424L19.1684 15.8458C19.1678 15.8463 19.1673 15.8467 19.1667 15.8472L18.444 16.4323L17.5621 15.343L23.8898 10.2206C24.1449 10.0136 24.5158 10.0136 24.7715 10.2205ZM20.3137 16.7217L24.3304 13.47L28.3472 16.7218V21.1843H25.0821V20.1268C25.0821 19.7397 24.7685 19.426 24.3814 19.426C23.9942 19.426 23.6806 19.7397 23.6806 20.1268V21.1843H20.3137V16.7217Z" fill="#3CB7C6"/>
<path d="M34.7086 28.1229C31.8599 30.7463 28.1576 32.191 24.2836 32.191C15.7949 32.191 8.88889 25.285 8.88889 16.7963C8.88889 15.7038 9.00494 14.6099 9.23386 13.5449C9.31525 13.1666 9.07446 12.7939 8.69603 12.7126C8.3177 12.6313 7.94497 12.872 7.86368 13.2504C7.61391 14.4119 7.4873 15.6049 7.4873 16.7963C7.4873 23.6982 11.6722 29.6401 17.6375 32.2203H16.2961C15.227 32.2203 14.3573 33.0901 14.3573 34.1591V36.4136C14.3573 36.6001 14.3852 36.78 14.4347 36.9508H12.2458C11.1767 36.9508 10.307 37.8205 10.307 38.8895V41.144C10.307 42.2131 11.1767 43.0828 12.2458 43.0828H14.4347C14.3853 43.2536 14.3574 43.4334 14.3574 43.6199V46.0613C14.3574 47.1303 15.2271 48 16.2962 48H27.3933C27.7804 48 28.0941 47.6863 28.0941 47.2992C28.0941 46.9121 27.7804 46.5984 27.3933 46.5984H16.2961C15.9999 46.5984 15.7589 46.3575 15.7589 46.0613V43.6199C15.7589 43.3237 15.9999 43.0828 16.2961 43.0828H32.2712C32.5674 43.0828 32.8084 43.3237 32.8084 43.6199V46.0613C32.8084 46.3575 32.5674 46.5984 32.2712 46.5984H30.38C29.9929 46.5984 29.6792 46.9121 29.6792 47.2992C29.6792 47.6863 29.9929 48 30.38 48H32.2712C33.3402 48 34.21 47.1303 34.21 46.0613V43.6199C34.21 42.5509 33.3402 41.6812 32.2712 41.6812H30.0823C30.1317 41.5104 30.1597 41.3305 30.1597 41.144V38.8895C30.1597 38.703 30.1317 38.5232 30.0823 38.3524H32.2712C33.3402 38.3524 34.21 37.4826 34.21 36.4136V34.1591C34.21 33.0901 33.3402 32.2203 32.2712 32.2203H30.938C32.6559 31.4787 34.2525 30.4483 35.6582 29.1538C35.9429 28.8916 35.9611 28.4483 35.6989 28.1635C35.4366 27.8789 34.9933 27.8605 34.7086 28.1229ZM28.758 41.144C28.758 41.4402 28.517 41.6812 28.2208 41.6812H12.2457C11.9495 41.6812 11.7085 41.4402 11.7085 41.144V38.8895C11.7085 38.5933 11.9495 38.3524 12.2457 38.3524H28.2208C28.517 38.3524 28.758 38.5933 28.758 38.8895V41.144ZM32.2711 33.6219C32.5673 33.6219 32.8083 33.8629 32.8083 34.1591V36.4136C32.8083 36.7098 32.5673 36.9508 32.2711 36.9508H16.2961C15.9999 36.9508 15.7589 36.7098 15.7589 36.4136V34.1591C15.7589 33.8629 15.9999 33.6219 16.2961 33.6219H32.2711Z" fill="#3CB7C6"/>
<path d="M15.5995 26.0306C15.3502 26.3266 15.3881 26.7686 15.6841 27.0179C18.0859 29.0406 21.1398 30.1545 24.2831 30.1545C31.6489 30.1545 37.6414 24.162 37.6414 16.7962C37.6414 9.4305 31.6489 3.43799 24.2831 3.43799C16.9173 3.43799 10.9248 9.4305 10.9248 16.7962C10.9248 19.671 11.8248 22.4105 13.5275 24.7184C13.7573 25.0299 14.196 25.0961 14.5073 24.8663C14.8189 24.6366 14.885 24.1979 14.6553 23.8864C13.1316 21.8211 12.3264 19.3694 12.3264 16.7962C12.3264 10.2032 17.6901 4.83957 24.2831 4.83957C30.8761 4.83957 36.2398 10.2032 36.2398 16.7962C36.2398 23.3891 30.8761 28.753 24.2832 28.753C21.4698 28.753 18.7365 27.7561 16.587 25.946C16.2908 25.6964 15.8488 25.7345 15.5995 26.0306Z" fill="#3CB7C6"/>
</g>
<defs>
<clipPath id="clip0">
<rect width="48" height="48" fill="white"/>
</clipPath>
</defs>
</svg>
