<svg width="96" height="96" viewBox="0 0 96 96" fill="none" xmlns="http://www.w3.org/2000/svg">
<path d="M93 39H88.5V19.5C88.5 19.1022 88.342 18.7206 88.0607 18.4393C87.7794 18.158 87.3978 18 87 18H69C68.6022 18 68.2206 18.158 67.9393 18.4393C67.658 18.7206 67.5 19.1022 67.5 19.5V39H40.1719L39.4219 36H50.25C51.6419 35.9985 52.9764 35.4448 53.9606 34.4606C54.9448 33.4764 55.4985 32.1419 55.5 30.75V11.25C55.4985 9.85809 54.9448 8.52362 53.9606 7.53939C52.9764 6.55516 51.6419 6.00154 50.25 6H12.75C11.3581 6.00154 10.0236 6.55516 9.03939 7.53939C8.05516 8.52362 7.50154 9.85809 7.5 11.25V30.75C7.50154 32.1419 8.05516 33.4764 9.03939 34.4606C10.0236 35.4448 11.3581 35.9985 12.75 36H23.5781L22.8281 39H3C2.60218 39 2.22064 39.158 1.93934 39.4393C1.65804 39.7206 1.5 40.1022 1.5 40.5V88.5C1.5 88.8978 1.65804 89.2794 1.93934 89.5607C2.22064 89.842 2.60218 90 3 90H7.5C7.89782 90 8.27936 89.842 8.56066 89.5607C8.84196 89.2794 9 88.8978 9 88.5V60H55.5V88.5C55.5 88.8978 55.658 89.2794 55.9393 89.5607C56.2206 89.842 56.6022 90 57 90H61.5C61.8978 90 62.2794 89.842 62.5607 89.5607C62.842 89.2794 63 88.8978 63 88.5V84H87V88.5C87 88.8978 87.158 89.2794 87.4393 89.5607C87.7206 89.842 88.1022 90 88.5 90H93C93.3978 90 93.7794 89.842 94.0607 89.5607C94.342 89.2794 94.5 88.8978 94.5 88.5V40.5C94.5 40.1022 94.342 39.7206 94.0607 39.4393C93.7794 39.158 93.3978 39 93 39ZM79.5 21H85.5V39H79.5V21ZM70.5 21H76.5V39H70.5V21ZM10.5 11.25C10.5005 10.6534 10.7377 10.0814 11.1596 9.65956C11.5814 9.23771 12.1534 9.0005 12.75 9H50.25C50.8466 9.0005 51.4186 9.23771 51.8404 9.65956C52.2623 10.0814 52.4995 10.6534 52.5 11.25V28.5H10.5V11.25ZM12.75 33C12.2852 32.9991 11.8321 32.8544 11.4528 32.5859C11.0735 32.3174 10.7865 31.9381 10.6313 31.5H52.3687C52.2135 31.9381 51.9265 32.3174 51.5472 32.5859C51.1679 32.8544 50.7148 32.9991 50.25 33H12.75ZM37.0781 39H25.9219L26.6719 36H36.3281L37.0781 39ZM6 87H4.5V48H6V87ZM55.5 57H9V48H55.5V57ZM60 87H58.5V48H60V87ZM87 81H63V72H87V81ZM87 69H63V60H87V69ZM87 57H63V48H87V57ZM91.5 87H90V48H91.5V87ZM91.5 45H4.5V42H91.5V45Z" fill="#3CB7C6"/>
<path d="M70.5 54H79.5C79.8978 54 80.2794 53.842 80.5607 53.5607C80.842 53.2794 81 52.8978 81 52.5C81 52.1022 80.842 51.7206 80.5607 51.4393C80.2794 51.158 79.8978 51 79.5 51H70.5C70.1022 51 69.7206 51.158 69.4393 51.4393C69.158 51.7206 69 52.1022 69 52.5C69 52.8978 69.158 53.2794 69.4393 53.5607C69.7206 53.842 70.1022 54 70.5 54Z" fill="#3CB7C6"/>
<path d="M79.5 63H70.5C70.1022 63 69.7206 63.158 69.4393 63.4393C69.158 63.7206 69 64.1022 69 64.5C69 64.8978 69.158 65.2794 69.4393 65.5607C69.7206 65.842 70.1022 66 70.5 66H79.5C79.8978 66 80.2794 65.842 80.5607 65.5607C80.842 65.2794 81 64.8978 81 64.5C81 64.1022 80.842 63.7206 80.5607 63.4393C80.2794 63.158 79.8978 63 79.5 63Z" fill="#3CB7C6"/>
<path d="M79.5 75H70.5C70.1022 75 69.7206 75.158 69.4393 75.4393C69.158 75.7206 69 76.1022 69 76.5C69 76.8978 69.158 77.2794 69.4393 77.5607C69.7206 77.842 70.1022 78 70.5 78H79.5C79.8978 78 80.2794 77.842 80.5607 77.5607C80.842 77.2794 81 76.8978 81 76.5C81 76.1022 80.842 75.7206 80.5607 75.4393C80.2794 75.158 79.8978 75 79.5 75Z" fill="#3CB7C6"/>
<path d="M36 51H27C26.6022 51 26.2206 51.158 25.9393 51.4393C25.658 51.7206 25.5 52.1022 25.5 52.5C25.5 52.8978 25.658 53.2794 25.9393 53.5607C26.2206 53.842 26.6022 54 27 54H36C36.3978 54 36.7794 53.842 37.0607 53.5607C37.342 53.2794 37.5 52.8978 37.5 52.5C37.5 52.1022 37.342 51.7206 37.0607 51.4393C36.7794 51.158 36.3978 51 36 51Z" fill="#3CB7C6"/>
</svg>
