<svg width="44" height="44" viewBox="0 0 44 44" fill="none" xmlns="http://www.w3.org/2000/svg">
<path d="M41.8 5.8667H2.2C0.984958 5.8667 0 6.85166 0 8.0667V31.5334C0 32.7484 0.984958 33.7334 2.2 33.7334H14.7635L12.8077 36.6667H8.8C8.39502 36.6667 8.06667 36.9951 8.06667 37.4C8.06667 37.805 8.39502 38.1334 8.8 38.1334H35.2C35.605 38.1334 35.9333 37.805 35.9333 37.4C35.9333 36.9951 35.605 36.6667 35.2 36.6667H31.1923L29.2365 33.7334H41.8C43.015 33.7334 44 32.7484 44 31.5334V8.0667C44 6.85166 43.015 5.8667 41.8 5.8667ZM29.4294 36.6667H14.5706L16.5257 33.7334H27.4743L29.4294 36.6667ZM42.5333 31.5334C42.5333 31.9384 42.205 32.2667 41.8 32.2667H2.2C1.79502 32.2667 1.46667 31.9384 1.46667 31.5334V8.0667C1.46667 7.66172 1.79502 7.33337 2.2 7.33337H41.8C42.205 7.33337 42.5333 7.66172 42.5333 8.0667V31.5334Z" fill="#3CB7C6"/>
<path d="M2.2002 8.06689V31.5336H41.8002V8.06689H2.2002ZM40.3335 30.0669H3.66686V9.53356H40.3335V30.0669Z" fill="#3CB7C6"/>
</svg>
