<svg width="44" height="40" viewBox="0 0 44 40" fill="none" xmlns="http://www.w3.org/2000/svg">
<path d="M42.4873 12.4104H42.0674L38.1296 1.8087C37.7848 0.880484 36.888 0.256836 35.8978 0.256836H8.1021C7.11202 0.256836 6.21509 0.880484 5.8703 1.8087L1.93265 12.4104H1.51267C0.678562 12.4104 0 13.0889 0 13.923V15.1384C0 15.9725 0.678562 16.6511 1.51267 16.6511H1.73628V30.7783C1.73628 31.1343 2.02477 31.4228 2.38081 31.4228C2.73685 31.4228 3.02534 31.1343 3.02534 30.7783V16.6511H13.1453C13.7117 16.6511 14.2441 16.4305 14.6447 16.03L22 8.6745L29.3555 16.03C29.7559 16.4304 30.2884 16.651 30.8547 16.651H40.9747V18.3597C40.9747 18.7157 41.2632 19.0043 41.6193 19.0043C41.9753 19.0043 42.2638 18.7157 42.2638 18.3597V16.651H42.4874C43.3214 16.651 44.0001 15.9724 44.0001 15.1383V13.923C44 13.0889 43.3214 12.4104 42.4873 12.4104ZM7.07867 2.25746C7.2368 1.83181 7.64809 1.5459 8.1021 1.5459H35.8978C36.3518 1.5459 36.7631 1.8319 36.9212 2.25746L40.6923 12.4104H31.733L23.4993 4.1767C23.0988 3.77623 22.5664 3.55563 22 3.55563C21.4336 3.55563 20.9012 3.77615 20.5007 4.1767L12.267 12.4104H3.30765L7.07867 2.25746ZM42.7109 15.1384C42.7109 15.2617 42.6106 15.362 42.4873 15.362H30.8547C30.6327 15.362 30.4239 15.2755 30.2669 15.1185L22.4557 7.30732C22.3348 7.18641 22.1709 7.11852 21.9999 7.11852C21.8289 7.11852 21.6651 7.18641 21.5441 7.30732L13.733 15.1185C13.576 15.2755 13.3671 15.362 13.1451 15.362H1.51267C1.38935 15.362 1.28906 15.2617 1.28906 15.1384V13.923C1.28906 13.7997 1.38935 13.6994 1.51267 13.6994H12.534C12.7049 13.6994 12.8688 13.6316 12.9898 13.5106L21.4124 5.08816C21.5693 4.93115 21.778 4.8447 22.0001 4.8447C22.2221 4.8447 22.4309 4.93115 22.5878 5.08816L31.0104 13.5106C31.1313 13.6316 31.2952 13.6994 31.4662 13.6994H42.4875C42.6108 13.6994 42.7111 13.7997 42.7111 13.923V15.1384H42.7109Z" fill="#3CB7C6"/>
<path d="M38.7534 34.5327C39.1095 34.5327 39.3979 34.2441 39.3979 33.8882V22.4292C39.3979 22.0732 39.1095 21.7847 38.7534 21.7847H30.0723C29.7162 21.7847 29.4277 22.0732 29.4277 22.4292V33.8882C29.4277 34.2441 29.7162 34.5327 30.0723 34.5327H38.7534ZM38.1089 30.4657H35.0573V27.4143H38.1089V30.4657ZM33.7683 30.4657H30.7168V27.4143H33.7683V30.4657ZM38.1089 33.2437H30.7168V31.7548H38.1089V33.2437ZM38.1089 26.1251H35.0573V23.0736H38.1089V26.1251ZM33.7683 23.0737V26.1252H30.7168V23.0737H33.7683Z" fill="#3CB7C6"/>
<path d="M13.9243 34.5327C14.2804 34.5327 14.5688 34.2441 14.5688 33.8882V22.4292C14.5688 22.0732 14.2804 21.7847 13.9243 21.7847H5.24316C4.88712 21.7847 4.59863 22.0732 4.59863 22.4292V33.8882C4.59863 34.2441 4.88712 34.5327 5.24316 34.5327H13.9243ZM13.2798 30.4657H10.2283V27.4143H13.2798V30.4657ZM8.93925 30.4657H5.8877V27.4143H8.93925V30.4657ZM13.2798 33.2437H5.8877V31.7548H13.2798V33.2437ZM13.2798 26.1251H10.2283V23.0736H13.2798V26.1251ZM8.93925 23.0737V26.1252H5.8877V23.0737H8.93925Z" fill="#3CB7C6"/>
<path d="M24.082 24.5635H19.915C19.559 24.5635 19.2705 24.8521 19.2705 25.208V27.9859C19.2705 28.3419 19.559 28.6305 19.915 28.6305H24.082C24.438 28.6305 24.7265 28.3419 24.7265 27.9859V25.208C24.7265 24.8521 24.438 24.5635 24.082 24.5635ZM23.4375 27.3414H20.5596V25.8525H23.4375V27.3414Z" fill="#3CB7C6"/>
<path d="M25.4211 16.4405C25.4211 14.5534 23.8858 13.0181 21.9986 13.0181C20.1114 13.0181 18.5762 14.5534 18.5762 16.4405C18.5762 18.3276 20.1114 19.8631 21.9986 19.8631C23.8858 19.8631 25.4211 18.3277 25.4211 16.4405ZM19.8652 16.4405C19.8652 15.2642 20.8223 14.3071 21.9986 14.3071C23.1749 14.3071 24.132 15.2642 24.132 16.4405C24.132 17.6168 23.1749 18.574 21.9986 18.574C20.8223 18.574 19.8652 17.6169 19.8652 16.4405Z" fill="#3CB7C6"/>
<path d="M43.3555 35.5023H42.2638V21.375C42.2638 21.019 41.9753 20.7305 41.6193 20.7305C41.2632 20.7305 40.9747 21.019 40.9747 21.375V35.5023H27.5059V22.4307C27.5059 22.0748 27.2174 21.7862 26.8614 21.7862H17.1386C16.7826 21.7862 16.4941 22.0748 16.4941 22.4307V35.5023H3.02526V33.7935C3.02526 33.4375 2.73677 33.149 2.38073 33.149C2.02469 33.149 1.7362 33.4375 1.7362 33.7935V35.5023H0.644531C0.288492 35.5023 0 35.7908 0 36.1468V39.0984C0 39.4544 0.288492 39.7429 0.644531 39.7429H43.3555C43.7115 39.7429 44 39.4544 44 39.0984V36.1468C44 35.7908 43.7115 35.5023 43.3555 35.5023ZM17.7831 30.8014H18.7013C19.0573 30.8014 19.3458 30.5128 19.3458 30.1569C19.3458 29.8009 19.0573 29.5123 18.7013 29.5123H17.7831V23.0753H26.217V35.5023H17.7831V30.8014ZM42.7109 38.4539H1.28906V36.7913H42.7109V38.4539Z" fill="#3CB7C6"/>
</svg>
