<svg width="52" height="96" viewBox="0 0 52 96" fill="none" xmlns="http://www.w3.org/2000/svg">
<path fill-rule="evenodd" clip-rule="evenodd" d="M6.72 0.096C6.72 0.1488 6.5904 0.192 6.432 0.192C6.2736 0.192 6.144 0.2352 6.144 0.288C6.144 0.3408 6.0576 0.384 5.952 0.384C5.8464 0.384 5.76 0.4272 5.76 0.48C5.76 0.5328 5.69453 0.576 5.61446 0.576C5.42477 0.576 4.032 1.96877 4.032 2.15846C4.032 2.23853 3.9888 2.304 3.936 2.304C3.8832 2.304 3.84 2.3904 3.84 2.496C3.84 2.6016 3.7968 2.688 3.744 2.688C3.6912 2.688 3.648 2.8176 3.648 2.976C3.648 3.1344 3.6048 3.264 3.552 3.264C3.48941 3.264 3.456 4.83197 3.456 7.776V12.288H2.05968C0.705119 12.288 0.656256 12.295 0.42768 12.5237C0.29808 12.6533 0.192 12.8261 0.192 12.9077C0.192 12.9893 0.1488 13.056 0.096 13.056C0.033696 13.056 0 14.336 0 16.704C0 19.072 0.033696 20.352 0.096 20.352C0.1488 20.352 0.192 20.4187 0.192 20.5003C0.192 20.5819 0.29808 20.7547 0.42768 20.8843C0.653856 21.1106 0.713568 21.12 1.9225 21.12C2.88586 21.12 3.21399 21.1523 3.31882 21.2572C3.43507 21.3733 3.456 22.4 3.456 27.9772V34.56H2.112C1.27997 34.56 0.768 34.5966 0.768 34.656C0.768 34.7088 0.700128 34.752 0.617184 34.752C0.423168 34.752 0.192 34.9832 0.192 35.1772C0.192 35.2601 0.1488 35.328 0.096 35.328C0.0336 35.328 0 36.64 0 39.072C0 41.504 0.0336 42.816 0.096 42.816C0.1488 42.816 0.192 42.8839 0.192 42.9668C0.192 43.1935 0.43536 43.392 0.713184 43.392C0.848928 43.392 0.96 43.4352 0.96 43.488C0.96 43.547 1.44 43.584 2.208 43.584H3.456V44.16C3.456 44.48 3.49862 44.736 3.552 44.736C3.60682 44.736 3.648 45.024 3.648 45.408C3.648 45.792 3.68918 46.08 3.744 46.08C3.7968 46.08 3.84 46.296 3.84 46.56C3.84 46.824 3.8832 47.04 3.936 47.04C3.9888 47.04 4.032 47.2128 4.032 47.424C4.032 47.6352 4.0752 47.808 4.128 47.808C4.1808 47.808 4.224 47.9808 4.224 48.192C4.224 48.4032 4.2672 48.576 4.32 48.576C4.3728 48.576 4.416 48.7056 4.416 48.864C4.416 49.0224 4.4592 49.152 4.512 49.152C4.5648 49.152 4.608 49.2816 4.608 49.44C4.608 49.5984 4.6512 49.728 4.704 49.728C4.7568 49.728 4.8 49.8144 4.8 49.92C4.8 50.0256 4.8432 50.112 4.896 50.112C4.9488 50.112 4.992 50.2416 4.992 50.4C4.992 50.5584 5.0352 50.688 5.088 50.688C5.1408 50.688 5.184 50.7744 5.184 50.88C5.184 50.9856 5.2272 51.072 5.28 51.072C5.3328 51.072 5.376 51.1584 5.376 51.264C5.376 51.3696 5.4192 51.456 5.472 51.456C5.5248 51.456 5.568 51.5424 5.568 51.648C5.568 51.7536 5.6112 51.84 5.664 51.84C5.7168 51.84 5.76 51.9264 5.76 52.032C5.76 52.1376 5.8032 52.224 5.856 52.224C5.9088 52.224 5.952 52.3009 5.952 52.3948C5.952 52.4888 6.0384 52.6279 6.144 52.704C6.2496 52.7801 6.336 52.9192 6.336 53.0132C6.336 53.1071 6.3792 53.184 6.432 53.184C6.4848 53.184 6.528 53.2609 6.528 53.3548C6.528 53.4488 6.6144 53.5879 6.72 53.664C6.8256 53.7401 6.912 53.8697 6.912 53.952C6.912 54.0343 6.9984 54.1639 7.104 54.24C7.2096 54.3161 7.296 54.4552 7.296 54.5492C7.296 54.7079 7.1425 54.72 5.13283 54.72H2.96957L2.63683 55.0528L2.304 55.3856V75.36V95.3344L2.63683 95.6672L2.96957 96H25.728H48.4864L48.8192 95.6672L49.152 95.3344V92.6388V89.9433L48.9163 89.7077C48.7867 89.5781 48.6139 89.472 48.5323 89.472C48.4507 89.472 48.384 89.4288 48.384 89.376C48.384 89.3232 48.2544 89.28 48.096 89.28C47.9376 89.28 47.808 89.3232 47.808 89.376C47.808 89.4288 47.7413 89.472 47.6597 89.472C47.5781 89.472 47.4053 89.5781 47.2757 89.7077C47.0419 89.9413 47.04 89.958 47.04 91.7785C47.04 93.2411 47.0122 93.6416 46.9028 93.7508C46.696 93.9577 4.75997 93.9577 4.55318 93.7508C4.43539 93.6331 4.416 91.3408 4.416 77.5268V61.44H25.728H47.04V73.3963V85.3527L47.2757 85.5883C47.4053 85.7179 47.5781 85.824 47.6597 85.824C47.7413 85.824 47.808 85.8672 47.808 85.92C47.808 85.9728 47.9376 86.016 48.096 86.016C48.2544 86.016 48.384 85.9728 48.384 85.92C48.384 85.8672 48.4507 85.824 48.5323 85.824C48.6139 85.824 48.7867 85.7179 48.9163 85.5883L49.152 85.3527V70.3692V55.3856L48.8192 55.0528L48.4864 54.72H46.3232C44.3135 54.72 44.16 54.7079 44.16 54.5492C44.16 54.4552 44.2464 54.3161 44.352 54.24C44.4576 54.1639 44.544 54.0343 44.544 53.952C44.544 53.8697 44.6304 53.7401 44.736 53.664C44.8416 53.5879 44.928 53.4488 44.928 53.3548C44.928 53.2609 44.9712 53.184 45.024 53.184C45.0768 53.184 45.12 53.1071 45.12 53.0132C45.12 52.9192 45.2064 52.7801 45.312 52.704C45.4176 52.6279 45.504 52.4888 45.504 52.3948C45.504 52.3009 45.5472 52.224 45.6 52.224C45.6528 52.224 45.696 52.1376 45.696 52.032C45.696 51.9264 45.7392 51.84 45.792 51.84C45.8448 51.84 45.888 51.7536 45.888 51.648C45.888 51.5424 45.9312 51.456 45.984 51.456C46.0368 51.456 46.08 51.3696 46.08 51.264C46.08 51.1584 46.1232 51.072 46.176 51.072C46.2288 51.072 46.272 50.9424 46.272 50.784C46.272 50.6256 46.3152 50.496 46.368 50.496C46.4208 50.496 46.464 50.4096 46.464 50.304C46.464 50.1984 46.5072 50.112 46.56 50.112C46.6128 50.112 46.656 49.9824 46.656 49.824C46.656 49.6656 46.6992 49.536 46.752 49.536C46.8048 49.536 46.848 49.4064 46.848 49.248C46.848 49.0896 46.8912 48.96 46.944 48.96C46.9968 48.96 47.04 48.8304 47.04 48.672C47.04 48.5136 47.0832 48.384 47.136 48.384C47.1888 48.384 47.232 48.2544 47.232 48.096C47.232 47.9376 47.2752 47.808 47.328 47.808C47.3808 47.808 47.424 47.6352 47.424 47.424C47.424 47.2128 47.4672 47.04 47.52 47.04C47.5728 47.04 47.616 46.824 47.616 46.56C47.616 46.296 47.6592 46.08 47.712 46.08C47.7668 46.08 47.808 45.792 47.808 45.408C47.808 45.024 47.8492 44.736 47.904 44.736C47.9574 44.736 48 44.48 48 44.16V43.584H49.248C50.016 43.584 50.496 43.547 50.496 43.488C50.496 43.4352 50.6071 43.392 50.7428 43.392C51.0206 43.392 51.264 43.1935 51.264 42.9668C51.264 42.8839 51.3072 42.816 51.36 42.816C51.4224 42.816 51.456 41.504 51.456 39.072C51.456 36.64 51.4224 35.328 51.36 35.328C51.3072 35.328 51.264 35.2601 51.264 35.1772C51.264 35.0941 51.2023 34.9645 51.1268 34.8892C51.0515 34.8137 50.9219 34.752 50.8388 34.752C50.7559 34.752 50.688 34.7088 50.688 34.656C50.688 34.5966 50.176 34.56 49.344 34.56H48V27.9772C48 22.4 48.0209 21.3733 48.1372 21.2572C48.242 21.1523 48.5701 21.12 49.5335 21.12C50.7424 21.12 50.8021 21.1106 51.0283 20.8843C51.1579 20.7547 51.264 20.5819 51.264 20.5003C51.264 20.4187 51.3072 20.352 51.36 20.352C51.4223 20.352 51.456 19.072 51.456 16.704C51.456 14.336 51.4223 13.056 51.36 13.056C51.3072 13.056 51.264 12.9893 51.264 12.9077C51.264 12.8261 51.1579 12.6533 51.0283 12.5237C50.7997 12.295 50.7509 12.288 49.3963 12.288H48V7.776C48 4.83197 47.9666 3.264 47.904 3.264C47.8512 3.264 47.808 3.1344 47.808 2.976C47.808 2.8176 47.7648 2.688 47.712 2.688C47.6592 2.688 47.616 2.6016 47.616 2.496C47.616 2.3904 47.5728 2.304 47.52 2.304C47.4672 2.304 47.424 2.23853 47.424 2.15846C47.424 1.96877 46.0312 0.576 45.8415 0.576C45.7615 0.576 45.696 0.5328 45.696 0.48C45.696 0.4272 45.6096 0.384 45.504 0.384C45.3984 0.384 45.312 0.3408 45.312 0.288C45.312 0.2352 45.1824 0.192 45.024 0.192C44.8656 0.192 44.736 0.1488 44.736 0.096C44.736 0.032352 38.336 0 25.728 0C13.12 0 6.72 0.032352 6.72 0.096ZM43.776 2.208C43.776 2.2608 43.9488 2.304 44.16 2.304C44.3712 2.304 44.544 2.3472 44.544 2.4C44.544 2.4528 44.6102 2.496 44.6912 2.496C44.8823 2.496 45.504 3.1177 45.504 3.30883C45.504 3.38976 45.5472 3.456 45.6 3.456C45.6528 3.456 45.696 3.5856 45.696 3.744C45.696 3.9024 45.7392 4.032 45.792 4.032C45.8545 4.032 45.888 5.472 45.888 8.16V12.288H42.7648H39.6416L39.3088 12.6208C38.8387 13.0909 38.8387 13.5971 39.3088 14.0672L39.6416 14.4H44.3968H49.152V16.704V19.008H25.728H2.304V16.704V14.4H18.432C29.12 14.4 34.56 14.3676 34.56 14.304C34.56 14.2512 34.6464 14.208 34.752 14.208C34.88 14.208 34.944 14.144 34.944 14.016C34.944 13.9104 34.9872 13.824 35.04 13.824C35.0928 13.824 35.136 13.6282 35.136 13.3888C35.136 13.0202 35.085 12.9027 34.8032 12.6208L34.4704 12.288H20.0192H5.568V8.16C5.568 5.472 5.6015 4.032 5.664 4.032C5.7168 4.032 5.76 3.9024 5.76 3.744C5.76 3.5856 5.8032 3.456 5.856 3.456C5.9088 3.456 5.952 3.38976 5.952 3.30883C5.952 3.1177 6.5737 2.496 6.76483 2.496C6.84576 2.496 6.912 2.4528 6.912 2.4C6.912 2.3472 7.0848 2.304 7.296 2.304C7.5072 2.304 7.68 2.2608 7.68 2.208C7.68 2.14435 13.76 2.112 25.728 2.112C37.696 2.112 43.776 2.14435 43.776 2.208ZM45.7508 21.2572C45.8671 21.3733 45.888 22.4 45.888 27.9772V34.56H33.12C24.672 34.56 20.352 34.5924 20.352 34.656C20.352 34.7088 20.2656 34.752 20.16 34.752C20.032 34.752 19.968 34.816 19.968 34.944C19.968 35.0496 19.9248 35.136 19.872 35.136C19.8192 35.136 19.776 35.2224 19.776 35.328C19.776 35.4336 19.7328 35.52 19.68 35.52C19.6272 35.52 19.584 35.6064 19.584 35.712C19.584 35.8176 19.6272 35.904 19.68 35.904C19.7328 35.904 19.776 35.9904 19.776 36.096C19.776 36.2016 19.8192 36.288 19.872 36.288C19.9248 36.288 19.968 36.3744 19.968 36.48C19.968 36.608 20.032 36.672 20.16 36.672C20.2656 36.672 20.352 36.7152 20.352 36.768C20.352 36.8316 25.216 36.864 34.752 36.864H49.152V39.072V41.28H25.728H2.304V39.072V36.864H8.59517H14.8864L15.2192 36.5312C15.4022 36.3482 15.552 36.1322 15.552 36.0512C15.552 35.9702 15.5952 35.904 15.648 35.904C15.7008 35.904 15.744 35.8176 15.744 35.712C15.744 35.6064 15.7008 35.52 15.648 35.52C15.5952 35.52 15.552 35.4538 15.552 35.3728C15.552 35.2918 15.4022 35.0758 15.2192 34.8928L14.8864 34.56H10.2272H5.568V27.98C5.568 22.8526 5.5945 21.3698 5.688 21.2636C5.86944 21.0575 45.5448 21.0511 45.7508 21.2572ZM45.696 44.448C45.696 44.96 45.6569 45.312 45.6 45.312C45.5472 45.312 45.504 45.528 45.504 45.792C45.504 46.056 45.4608 46.272 45.408 46.272C45.3552 46.272 45.312 46.4448 45.312 46.656C45.312 46.8672 45.2688 47.04 45.216 47.04C45.1632 47.04 45.12 47.2128 45.12 47.424C45.12 47.6352 45.0768 47.808 45.024 47.808C44.9712 47.808 44.928 47.9376 44.928 48.096C44.928 48.2544 44.8848 48.384 44.832 48.384C44.7792 48.384 44.736 48.5136 44.736 48.672C44.736 48.8304 44.6928 48.96 44.64 48.96C44.5872 48.96 44.544 49.0896 44.544 49.248C44.544 49.4064 44.5008 49.536 44.448 49.536C44.3952 49.536 44.352 49.6224 44.352 49.728C44.352 49.8336 44.3088 49.92 44.256 49.92C44.2032 49.92 44.16 50.0064 44.16 50.112C44.16 50.2176 44.1168 50.304 44.064 50.304C44.0112 50.304 43.968 50.3904 43.968 50.496C43.968 50.6016 43.9248 50.688 43.872 50.688C43.8192 50.688 43.776 50.7744 43.776 50.88C43.776 50.9856 43.7328 51.072 43.68 51.072C43.6272 51.072 43.584 51.1584 43.584 51.264C43.584 51.3696 43.5408 51.456 43.488 51.456C43.4352 51.456 43.392 51.5329 43.392 51.6268C43.392 51.7208 43.3056 51.8599 43.2 51.936C43.0944 52.0121 43.008 52.1417 43.008 52.224C43.008 52.3063 42.9216 52.4359 42.816 52.512C42.7104 52.5881 42.624 52.7177 42.624 52.8C42.624 52.8823 42.5376 53.0119 42.432 53.088C42.3264 53.1641 42.24 53.286 42.24 53.3587C42.24 53.4314 42.1104 53.6121 41.952 53.76C41.7936 53.9079 41.664 54.0784 41.664 54.1389C41.664 54.1993 41.5579 54.3547 41.4283 54.4843L41.1927 54.72H37.1532H33.1136L32.7808 55.0528C32.499 55.3347 32.448 55.4522 32.448 55.8208C32.448 56.0602 32.4912 56.256 32.544 56.256C32.5968 56.256 32.64 56.3239 32.64 56.4068C32.64 56.6335 32.8834 56.832 33.1612 56.832C33.2969 56.832 33.408 56.8752 33.408 56.928C33.408 56.9911 35.744 57.024 40.224 57.024H47.04V58.08V59.136H25.728H4.416V58.08V57.024H16.032C23.712 57.024 27.648 56.9915 27.648 56.928C27.648 56.8752 27.7579 56.832 27.8923 56.832C28.1618 56.832 28.608 56.4456 28.608 56.2123C28.608 56.1307 28.6512 56.064 28.704 56.064C28.7568 56.064 28.8 55.9344 28.8 55.776C28.8 55.6176 28.7568 55.488 28.704 55.488C28.6512 55.488 28.608 55.4201 28.608 55.3372C28.608 55.1432 28.3768 54.912 28.1828 54.912C28.0999 54.912 28.032 54.8688 28.032 54.816C28.032 54.7527 25.0066 54.72 19.1477 54.72H10.2633L10.0277 54.4843C9.89808 54.3547 9.792 54.1993 9.792 54.1389C9.792 54.0784 9.6624 53.9079 9.504 53.76C9.3456 53.6121 9.216 53.4393 9.216 53.376C9.216 53.3127 9.0864 53.1399 8.928 52.992C8.7696 52.8441 8.64 52.6539 8.64 52.5695C8.64 52.485 8.5968 52.416 8.544 52.416C8.4912 52.416 8.448 52.3391 8.448 52.2452C8.448 52.1512 8.3616 52.0121 8.256 51.936C8.1504 51.8599 8.064 51.7208 8.064 51.6268C8.064 51.5329 8.0208 51.456 7.968 51.456C7.9152 51.456 7.872 51.3696 7.872 51.264C7.872 51.1584 7.8288 51.072 7.776 51.072C7.7232 51.072 7.68 50.9856 7.68 50.88C7.68 50.7744 7.6368 50.688 7.584 50.688C7.5312 50.688 7.488 50.6016 7.488 50.496C7.488 50.3904 7.4448 50.304 7.392 50.304C7.3392 50.304 7.296 50.2176 7.296 50.112C7.296 50.0064 7.2528 49.92 7.2 49.92C7.1472 49.92 7.104 49.8336 7.104 49.728C7.104 49.6224 7.0608 49.536 7.008 49.536C6.9552 49.536 6.912 49.4064 6.912 49.248C6.912 49.0896 6.8688 48.96 6.816 48.96C6.7632 48.96 6.72 48.8304 6.72 48.672C6.72 48.5136 6.6768 48.384 6.624 48.384C6.5712 48.384 6.528 48.2544 6.528 48.096C6.528 47.9376 6.4848 47.808 6.432 47.808C6.3792 47.808 6.336 47.6784 6.336 47.52C6.336 47.3616 6.2928 47.232 6.24 47.232C6.1872 47.232 6.144 47.0592 6.144 46.848C6.144 46.6368 6.1008 46.464 6.048 46.464C5.99462 46.464 5.952 46.208 5.952 45.888C5.952 45.568 5.90938 45.312 5.856 45.312C5.79907 45.312 5.76 44.96 5.76 44.448V43.584H25.728H45.696V44.448ZM17.856 63.648C17.856 63.7008 17.7461 63.744 17.6117 63.744C17.3004 63.744 16.896 64.1439 16.896 64.4516C16.896 64.5816 16.842 64.7132 16.776 64.744C16.68 64.7888 16.68 64.8112 16.776 64.856C16.842 64.8868 16.896 65.0195 16.896 65.1509C16.896 65.4216 17.0968 65.664 17.3212 65.664C17.4041 65.664 17.472 65.7072 17.472 65.76C17.472 65.82 18.048 65.856 19.008 65.856C19.968 65.856 20.544 65.82 20.544 65.76C20.544 65.7072 20.6119 65.664 20.6948 65.664C20.8888 65.664 21.12 65.4328 21.12 65.2388C21.12 65.1559 21.1632 65.088 21.216 65.088C21.2688 65.088 21.312 64.9584 21.312 64.8C21.312 64.6416 21.2688 64.512 21.216 64.512C21.1632 64.512 21.12 64.4453 21.12 64.3637C21.12 64.1304 20.6738 63.744 20.4043 63.744C20.2699 63.744 20.16 63.7008 20.16 63.648C20.16 63.5893 19.712 63.552 19.008 63.552C18.304 63.552 17.856 63.5893 17.856 63.648ZM25.536 63.648C25.536 63.7008 25.4698 63.744 25.3888 63.744C25.3078 63.744 25.0918 63.8938 24.9088 64.0768C24.6546 64.3309 24.576 64.4897 24.576 64.7488C24.576 64.9354 24.6192 65.088 24.672 65.088C24.7248 65.088 24.768 65.1547 24.768 65.2363C24.768 65.3179 24.8741 65.4907 25.0037 65.6203C25.1921 65.8089 25.3371 65.856 25.728 65.856C26.1189 65.856 26.2639 65.8089 26.4523 65.6203C26.5819 65.4907 26.688 65.3179 26.688 65.2363C26.688 65.1547 26.7312 65.088 26.784 65.088C26.8368 65.088 26.88 64.9354 26.88 64.7488C26.88 64.4897 26.8014 64.3309 26.5472 64.0768C26.3642 63.8938 26.1482 63.744 26.0672 63.744C25.9862 63.744 25.92 63.7008 25.92 63.648C25.92 63.5952 25.8336 63.552 25.728 63.552C25.6224 63.552 25.536 63.5952 25.536 63.648ZM31.296 63.648C31.296 63.7008 31.1861 63.744 31.0517 63.744C30.7822 63.744 30.336 64.1304 30.336 64.3637C30.336 64.4453 30.2928 64.512 30.24 64.512C30.1872 64.512 30.144 64.6416 30.144 64.8C30.144 64.9584 30.1872 65.088 30.24 65.088C30.2928 65.088 30.336 65.1559 30.336 65.2388C30.336 65.3219 30.3977 65.4515 30.4732 65.5268C30.5485 65.6023 30.6781 65.664 30.7612 65.664C30.8441 65.664 30.912 65.7072 30.912 65.76C30.912 65.82 31.488 65.856 32.448 65.856C33.408 65.856 33.984 65.82 33.984 65.76C33.984 65.7072 34.0519 65.664 34.1348 65.664C34.3592 65.664 34.56 65.4216 34.56 65.1509C34.56 65.0195 34.614 64.8868 34.68 64.856C34.776 64.8112 34.776 64.7888 34.68 64.744C34.614 64.7132 34.56 64.5816 34.56 64.4516C34.56 64.1439 34.1556 63.744 33.8443 63.744C33.7099 63.744 33.6 63.7008 33.6 63.648C33.6 63.5893 33.152 63.552 32.448 63.552C31.744 63.552 31.296 63.5893 31.296 63.648ZM9.6 68.256C9.6 68.3088 9.5136 68.352 9.408 68.352C9.28003 68.352 9.216 68.416 9.216 68.544C9.216 68.6496 9.1728 68.736 9.12 68.736C9.05654 68.736 9.024 72.4971 9.024 79.8272V90.9184L9.35683 91.2512L9.68957 91.584H25.728H41.7664L42.0992 91.2512L42.432 90.9184V79.8272C42.432 72.4971 42.3995 68.736 42.336 68.736C42.2832 68.736 42.24 68.6496 42.24 68.544C42.24 68.416 42.176 68.352 42.048 68.352C41.9424 68.352 41.856 68.3088 41.856 68.256C41.856 68.1924 36.416 68.16 25.728 68.16C15.04 68.16 9.6 68.1924 9.6 68.256ZM15.1243 70.5077C15.2539 70.6373 15.36 70.8101 15.36 70.8917C15.36 70.9733 15.4032 71.04 15.456 71.04C15.5088 71.04 15.552 71.1169 15.552 71.2108C15.552 71.3048 15.6384 71.4439 15.744 71.52C15.8496 71.5961 15.936 71.7352 15.936 71.8292C15.936 71.9231 15.9792 72 16.032 72C16.0848 72 16.128 72.0769 16.128 72.1708C16.128 72.2648 16.2144 72.4039 16.32 72.48C16.4256 72.5561 16.512 72.6952 16.512 72.7892C16.512 72.8831 16.5552 72.96 16.608 72.96C16.6608 72.96 16.704 73.0369 16.704 73.1308C16.704 73.2248 16.7904 73.3639 16.896 73.44C17.0016 73.5161 17.088 73.6552 17.088 73.7492C17.088 73.8431 17.1312 73.92 17.184 73.92C17.2368 73.92 17.28 73.9969 17.28 74.0908C17.28 74.1848 17.3664 74.3239 17.472 74.4C17.5776 74.4761 17.664 74.6152 17.664 74.7092C17.664 74.8031 17.7072 74.88 17.76 74.88C17.8128 74.88 17.856 74.9462 17.856 75.0272C17.856 75.1082 18.0058 75.3242 18.1888 75.5072C18.481 75.7994 18.581 75.84 19.008 75.84C19.435 75.84 19.535 75.7994 19.8272 75.5072C20.0102 75.3242 20.16 75.1177 20.16 75.0484C20.16 74.9791 20.2464 74.8601 20.352 74.784C20.4576 74.7079 20.544 74.5688 20.544 74.4748C20.544 74.3809 20.5872 74.304 20.64 74.304C20.6928 74.304 20.736 74.2271 20.736 74.1332C20.736 74.0392 20.8224 73.9001 20.928 73.824C21.0336 73.7479 21.12 73.6088 21.12 73.5148C21.12 73.4209 21.1632 73.344 21.216 73.344C21.2688 73.344 21.312 73.2671 21.312 73.1732C21.312 73.0792 21.3984 72.9401 21.504 72.864C21.6096 72.7879 21.696 72.6488 21.696 72.5548C21.696 72.4609 21.7392 72.384 21.792 72.384C21.8448 72.384 21.888 72.3071 21.888 72.2132C21.888 72.1192 21.9744 71.9801 22.08 71.904C22.1856 71.8279 22.272 71.6888 22.272 71.5948C22.272 71.5009 22.3152 71.424 22.368 71.424C22.4208 71.424 22.464 71.3471 22.464 71.2532C22.464 71.1592 22.5504 71.0201 22.656 70.944C22.7616 70.8679 22.848 70.7473 22.848 70.676C22.848 70.2972 23.028 70.272 25.728 70.272C28.428 70.272 28.608 70.2972 28.608 70.676C28.608 70.7473 28.6944 70.8679 28.8 70.944C28.9056 71.0201 28.992 71.1592 28.992 71.2532C28.992 71.3471 29.0352 71.424 29.088 71.424C29.1408 71.424 29.184 71.5009 29.184 71.5948C29.184 71.6888 29.2704 71.8279 29.376 71.904C29.4816 71.9801 29.568 72.1192 29.568 72.2132C29.568 72.3071 29.6112 72.384 29.664 72.384C29.7168 72.384 29.76 72.4609 29.76 72.5548C29.76 72.6488 29.8464 72.7879 29.952 72.864C30.0576 72.9401 30.144 73.0792 30.144 73.1732C30.144 73.2671 30.1872 73.344 30.24 73.344C30.2928 73.344 30.336 73.4209 30.336 73.5148C30.336 73.6088 30.4224 73.7479 30.528 73.824C30.6336 73.9001 30.72 74.0392 30.72 74.1332C30.72 74.2271 30.7632 74.304 30.816 74.304C30.8688 74.304 30.912 74.3809 30.912 74.4748C30.912 74.5688 30.9984 74.7079 31.104 74.784C31.2096 74.8601 31.296 74.9791 31.296 75.0484C31.296 75.1177 31.4458 75.3242 31.6288 75.5072C31.921 75.7994 32.021 75.84 32.448 75.84C32.875 75.84 32.975 75.7994 33.2672 75.5072C33.4502 75.3242 33.6 75.1082 33.6 75.0272C33.6 74.9462 33.6432 74.88 33.696 74.88C33.7488 74.88 33.792 74.8031 33.792 74.7092C33.792 74.6152 33.8784 74.4761 33.984 74.4C34.0896 74.3239 34.176 74.1848 34.176 74.0908C34.176 73.9969 34.2192 73.92 34.272 73.92C34.3248 73.92 34.368 73.8431 34.368 73.7492C34.368 73.6552 34.4544 73.5161 34.56 73.44C34.6656 73.3639 34.752 73.2248 34.752 73.1308C34.752 73.0369 34.7952 72.96 34.848 72.96C34.9008 72.96 34.944 72.8831 34.944 72.7892C34.944 72.6952 35.0304 72.5561 35.136 72.48C35.2416 72.4039 35.328 72.2648 35.328 72.1708C35.328 72.0769 35.3712 72 35.424 72C35.4768 72 35.52 71.9231 35.52 71.8292C35.52 71.7352 35.6064 71.5961 35.712 71.52C35.8176 71.4439 35.904 71.3048 35.904 71.2108C35.904 71.1169 35.9472 71.04 36 71.04C36.0528 71.04 36.096 70.9733 36.096 70.8917C36.096 70.8101 36.2021 70.6373 36.3317 70.5077C36.5645 70.2748 36.5879 70.272 38.3065 70.272C39.6858 70.272 40.074 70.3004 40.1828 70.4092C40.2998 70.5261 40.32 71.9232 40.32 79.9132V89.28H38.88C37.984 89.28 37.44 89.2437 37.44 89.184C37.44 89.1312 37.4832 89.088 37.536 89.088C37.5888 89.088 37.632 89.0016 37.632 88.896C37.632 88.7904 37.6752 88.704 37.728 88.704C37.7808 88.704 37.824 88.5312 37.824 88.32C37.824 88.1088 37.8672 87.936 37.92 87.936C37.9826 87.936 38.016 86.368 38.016 83.424C38.016 80.48 37.9826 78.912 37.92 78.912C37.8672 78.912 37.824 78.8441 37.824 78.7612C37.824 78.5672 37.5928 78.336 37.3988 78.336C37.3159 78.336 37.248 78.2928 37.248 78.24C37.248 78.1773 35.584 78.144 32.448 78.144C29.312 78.144 27.648 78.1773 27.648 78.24C27.648 78.2928 27.5813 78.336 27.4997 78.336C27.4181 78.336 27.2453 78.4421 27.1157 78.5717L26.88 78.8073V83.4677C26.88 86.5106 26.9133 88.128 26.976 88.128C27.0288 88.128 27.072 88.2576 27.072 88.416C27.072 88.5744 27.1152 88.704 27.168 88.704C27.2208 88.704 27.264 88.7904 27.264 88.896C27.264 89.0016 27.3072 89.088 27.36 89.088C27.4128 89.088 27.456 89.1312 27.456 89.184C27.456 89.2473 24.672 89.28 19.296 89.28H11.136V79.916C11.136 72.5614 11.1617 70.5227 11.256 70.4156C11.3512 70.3075 11.7391 70.2785 13.1323 70.2757C14.8714 70.272 14.891 70.2743 15.1243 70.5077ZM20.352 70.4428C20.352 70.5368 20.2656 70.6759 20.16 70.752C20.0544 70.8281 19.968 70.9672 19.968 71.0612C19.968 71.1551 19.9248 71.232 19.872 71.232C19.8192 71.232 19.776 71.3089 19.776 71.4028C19.776 71.4968 19.6896 71.6359 19.584 71.712C19.4784 71.7881 19.392 71.9272 19.392 72.0212C19.392 72.1151 19.3488 72.192 19.296 72.192C19.2432 72.192 19.2 72.2784 19.2 72.384C19.2 72.4896 19.1765 72.576 19.1477 72.576C19.0308 72.576 18.624 72.0946 18.624 71.9563C18.624 71.8747 18.5808 71.808 18.528 71.808C18.4752 71.808 18.432 71.7311 18.432 71.6372C18.432 71.5432 18.3456 71.4041 18.24 71.328C18.1344 71.2519 18.048 71.1128 18.048 71.0188C18.048 70.9249 18.0048 70.848 17.952 70.848C17.8992 70.848 17.856 70.7616 17.856 70.656C17.856 70.5504 17.8128 70.464 17.76 70.464C17.7072 70.464 17.664 70.4208 17.664 70.368C17.664 70.3086 18.176 70.272 19.008 70.272C20.2324 70.272 20.352 70.2872 20.352 70.4428ZM33.792 70.368C33.792 70.4208 33.7488 70.464 33.696 70.464C33.6432 70.464 33.6 70.5504 33.6 70.656C33.6 70.7616 33.5568 70.848 33.504 70.848C33.4512 70.848 33.408 70.9249 33.408 71.0188C33.408 71.1128 33.3216 71.2519 33.216 71.328C33.1104 71.4041 33.024 71.5432 33.024 71.6372C33.024 71.7311 32.9808 71.808 32.928 71.808C32.8752 71.808 32.832 71.8747 32.832 71.9563C32.832 72.0946 32.4252 72.576 32.3083 72.576C32.2795 72.576 32.256 72.4896 32.256 72.384C32.256 72.2784 32.2128 72.192 32.16 72.192C32.1072 72.192 32.064 72.1151 32.064 72.0212C32.064 71.9272 31.9776 71.7881 31.872 71.712C31.7664 71.6359 31.68 71.4968 31.68 71.4028C31.68 71.3089 31.6368 71.232 31.584 71.232C31.5312 71.232 31.488 71.1551 31.488 71.0612C31.488 70.9672 31.4016 70.8281 31.296 70.752C31.1904 70.6759 31.104 70.5368 31.104 70.4428C31.104 70.2872 31.2236 70.272 32.448 70.272C33.28 70.272 33.792 70.3086 33.792 70.368ZM35.712 81.504V82.56H32.352H28.992V81.504V80.448H32.352H35.712V81.504ZM35.712 86.4C35.712 87.36 35.676 87.936 35.616 87.936C35.5632 87.936 35.52 88.002 35.52 88.0825C35.52 88.2731 34.7051 89.088 34.5145 89.088C34.434 89.088 34.368 89.1312 34.368 89.184C34.368 89.2448 33.664 89.28 32.448 89.28C31.232 89.28 30.528 89.2448 30.528 89.184C30.528 89.1312 30.462 89.088 30.3815 89.088C30.3009 89.088 30.0417 88.8948 29.8055 88.6585C29.5692 88.4223 29.376 88.1631 29.376 88.0825C29.376 88.002 29.3328 87.936 29.28 87.936C29.2272 87.936 29.184 87.7632 29.184 87.552C29.184 87.3408 29.1408 87.168 29.088 87.168C29.0293 87.168 28.992 86.72 28.992 86.016V84.864H32.352H35.712V86.4Z" fill="#3CB7C6"/>
</svg>
