<svg width="48" height="48" viewBox="0 0 48 48" fill="none" xmlns="http://www.w3.org/2000/svg">
<path d="M21.9365 36.3165C23.1065 35.1465 25.0085 35.1465 26.1785 36.3165" stroke="#3CB7C6" stroke-width="1.5" stroke-miterlimit="1.5" stroke-linecap="round" stroke-linejoin="round"/>
<path d="M19.3105 32.9132C21.9445 30.2792 26.2225 30.2792 28.8565 32.9132" stroke="#3CB7C6" stroke-width="1.5" stroke-miterlimit="1.5" stroke-linecap="round" stroke-linejoin="round"/>
<path d="M16.502 29.3235C20.5999 25.2255 27.2539 25.2255 31.3519 29.3235" stroke="#3CB7C6" stroke-width="1.5" stroke-miterlimit="1.5" stroke-linecap="round" stroke-linejoin="round"/>
<path d="M45 19.5C45 19.5 41.3655 10.4145 39.7545 6.3855C39.2985 5.247 38.196 4.5 36.969 4.5C31.4985 4.5 16.5015 4.5 11.031 4.5C9.804 4.5 8.7015 5.247 8.2455 6.3855C6.6345 10.4145 3 19.5 3 19.5H45Z" stroke="#3CB7C6" stroke-width="1.5" stroke-miterlimit="1.5" stroke-linecap="round" stroke-linejoin="round"/>
<path d="M40.5 24V40.5C40.5 41.295 40.1835 42.0585 39.621 42.621C39.0585 43.1835 38.295 43.5 37.5 43.5C31.224 43.5 16.776 43.5 10.5 43.5C9.705 43.5 8.9415 43.1835 8.379 42.621C7.8165 42.0585 7.5 41.295 7.5 40.5V24" stroke="#3CB7C6" stroke-width="1.5" stroke-miterlimit="1.5" stroke-linecap="round" stroke-linejoin="round"/>
</svg>
